<?xml version="1.0" encoding="utf-8" standalone="no"?>
<!DOCTYPE svg PUBLIC "-//W3C//DTD SVG 1.1//EN"
  "http://www.w3.org/Graphics/SVG/1.1/DTD/svg11.dtd">
<svg xmlns:xlink="http://www.w3.org/1999/xlink" width="146.632541pt" height="280.512pt" viewBox="0 0 146.632541 280.512" xmlns="http://www.w3.org/2000/svg" version="1.1">
 <metadata>
  <rdf:RDF xmlns:dc="http://purl.org/dc/elements/1.1/" xmlns:cc="http://creativecommons.org/ns#" xmlns:rdf="http://www.w3.org/1999/02/22-rdf-syntax-ns#">
   <cc:Work>
    <dc:type rdf:resource="http://purl.org/dc/dcmitype/StillImage"/>
    <dc:date>2025-12-17T16:18:47.656481</dc:date>
    <dc:format>image/svg+xml</dc:format>
    <dc:creator>
     <cc:Agent>
      <dc:title>Matplotlib v3.10.6, https://matplotlib.org/</dc:title>
     </cc:Agent>
    </dc:creator>
   </cc:Work>
  </rdf:RDF>
 </metadata>
 <defs>
  <style type="text/css">*{stroke-linejoin: round; stroke-linecap: butt}</style>
 </defs>
 <g id="figure_1">
  <g id="patch_1">
   <path d="M 0 280.512 
L 146.632541 280.512 
L 146.632541 0 
L 0 0 
z
" style="fill: #ffffff"/>
  </g>
  <g id="axes_1">
   <g id="patch_2">
    <path d="M 7.2 273.312 
L 139.432541 273.312 
L 139.432541 7.2 
L 7.2 7.2 
z
" clip-path="url(#pc93b818214)" style="fill: #add8e6; stroke: #ffffff; stroke-linejoin: miter"/>
   </g>
   <g id="patch_3">
    <path d="M 7.2 273.312 
L 139.432541 273.312 
L 139.432541 7.2 
L 7.2 7.2 
z
" clip-path="url(#pc93b818214)" style="fill: #add8e6; stroke: #ffffff; stroke-linejoin: miter"/>
   </g>
   <g id="patch_4">
    <path d="M 50.415253 273.312 
L 51.999718 272.634802 
L 48.205416 272.321764 
L 49.196591 271.291372 
L 48.013728 268.580679 
L 50.835888 267.822813 
L 47.708566 266.564194 
L 49.196591 265.544699 
L 48.881039 261.983372 
L 55.613507 260.995666 
L 54.936662 258.387171 
L 57.328746 259.4452 
L 56.594641 258.218805 
L 58.682344 256.504237 
L 63.659859 257.179161 
L 63.71773 254.266643 
L 65.49084 256.240219 
L 67.7787 256.597034 
L 67.626817 254.962843 
L 71.001347 256.165775 
L 72.384446 254.971796 
L 71.71616 252.579753 
L 73.746864 254.473105 
L 73.975126 251.948105 
L 75.329595 254.473105 
L 77.046056 252.815516 
L 84.844859 254.850729 
L 88.295672 257.3287 
L 99.356221 258.116946 
L 101.043177 256.757682 
L 101.453092 249.355181 
L 104.522542 252.307457 
L 105.800112 248.42753 
L 108.717936 249.716456 
L 111.48126 248.826399 
L 113.200692 244.851094 
L 125.11833 247.951808 
L 127.177059 245.70835 
L 122.887563 244.374341 
L 121.762231 240.857259 
L 112.24662 240.493132 
L 109.596073 236.3226 
L 107.460361 236.458136 
L 105.390461 231.924036 
L 108.536812 234.459323 
L 107.755311 229.37947 
L 109.433277 228.970907 
L 107.859793 227.382648 
L 107.192118 229.525347 
L 103.826147 230.176183 
L 103.053894 232.765765 
L 98.918204 232.765058 
L 97.354321 231.116201 
L 97.430874 233.365261 
L 94.168601 232.725688 
L 94.512695 233.946222 
L 90.908688 231.195104 
L 90.79364 232.551876 
L 88.991373 231.690018 
L 88.277254 234.294404 
L 86.389443 233.210381 
L 85.226922 234.776144 
L 82.747288 232.978179 
L 82.071317 234.844408 
L 83.625161 236.6868 
L 80.193108 233.984463 
L 79.657586 236.224992 
L 76.797897 233.094822 
L 78.810356 237.062461 
L 76.778778 238.399747 
L 77.437643 235.945335 
L 75.615645 235.047751 
L 76.302703 238.918799 
L 74.510995 237.09138 
L 75.720481 238.409425 
L 73.68087 238.217728 
L 73.690041 235.722098 
L 71.745665 238.841758 
L 69.704659 237.976849 
L 66.959405 241.010576 
L 65.891591 239.284212 
L 65.547059 241.048988 
L 64.250718 239.782631 
L 62.707092 242.12094 
L 61.009397 240.569132 
L 61.972639 242.054034 
L 59.063365 245.346555 
L 60.103855 242.875622 
L 58.244063 244.489411 
L 58.416024 242.407778 
L 52.255826 245.347252 
L 47.985098 245.403757 
L 49.358336 242.331965 
L 45.620599 248.217505 
L 41.903113 248.93958 
L 45.496995 246.593193 
L 45.335163 245.11788 
L 44.219079 245.622756 
L 45.763929 243.773916 
L 43.552272 244.841493 
L 43.466118 246.622966 
L 41.796969 246.460681 
L 40.920143 244.174718 
L 42.912529 245.233533 
L 43.008548 243.649123 
L 43.732788 243.534101 
L 43.819293 241.593393 
L 41.606677 240.809362 
L 44.180584 236.06046 
L 37.63116 239.6874 
L 38.956041 238.025453 
L 36.859173 238.429316 
L 39.118226 235.260936 
L 35.057166 235.741529 
L 30.595449 231.777208 
L 28.936424 233.636845 
L 29.965217 229.776954 
L 26.952332 233.249724 
L 25.112529 230.640471 
L 24.140386 228.014998 
L 25.551683 227.274047 
L 23.739552 224.302374 
L 25.321588 224.027397 
L 22.633244 223.439976 
L 23.891785 223.538538 
L 23.634717 221.170865 
L 25.359821 223.360793 
L 23.663611 219.251177 
L 25.942043 219.537118 
L 25.283181 216.761575 
L 27.267273 215.891715 
L 25.378501 211.1208 
L 27.096621 210.742699 
L 25.398578 209.204565 
L 27.496495 209.125138 
L 25.626752 207.303018 
L 29.364839 209.644717 
L 23.47201 197.539993 
L 25.284403 192.018393 
L 24.606862 190.34864 
L 23.892134 191.321966 
L 24.444851 188.265653 
L 23.692241 187.103003 
L 22.7194 189.036228 
L 23.052147 186.370422 
L 21.527985 185.360324 
L 22.919642 182.547868 
L 21.146877 182.237851 
L 21.661101 177.600948 
L 23.120146 175.291821 
L 24.903122 175.637511 
L 25.655384 171.032736 
L 28.144707 171.168755 
L 26.084674 168.154313 
L 26.933652 165.264566 
L 27.983308 167.255077 
L 31.58601 165.984671 
L 31.757273 168.67098 
L 31.987106 166.557537 
L 35.923863 165.338353 
L 34.037276 161.020021 
L 36.381176 161.468739 
L 35.390612 157.942326 
L 36.773367 160.540551 
L 36.552786 157.277686 
L 38.755276 154.107078 
L 40.967892 156.128882 
L 42.426326 154.441019 
L 41.788065 152.035976 
L 39.356527 151.810717 
L 42.045218 151.183826 
L 41.234473 149.418021 
L 43.294157 152.662725 
L 44.037253 149.115913 
L 48.071863 148.454322 
L 47.670505 144.798096 
L 50.245026 145.800136 
L 51.008109 141.211953 
L 53.944094 140.159559 
L 55.516964 135.28087 
L 58.025752 135.137205 
L 57.39526 132.923287 
L 61.133001 127.51534 
L 60.807845 125.187737 
L 67.092607 122.506143 
L 70.524307 124.772974 
L 68.303135 120.172894 
L 71.211449 121.852834 
L 71.831208 119.768047 
L 68.607603 116.894222 
L 70.686403 115.078502 
L 68.797634 111.684396 
L 71.448881 111.797888 
L 68.969858 110.288763 
L 70.171833 107.769368 
L 66.596456 102.689612 
L 62.086112 102.818293 
L 61.334115 97.145125 
L 59.46481 99.190761 
L 56.603895 97.56201 
L 56.469117 99.58564 
L 56.357561 96.654787 
L 52.485311 99.701061 
L 51.493788 97.467991 
L 49.663151 98.840795 
L 48.538163 97.119312 
L 47.641528 99.793935 
L 47.299263 97.678396 
L 46.574324 98.747792 
L 43.809688 96.069478 
L 45.801463 99.131211 
L 44.210175 101.25394 
L 39.003703 95.369095 
L 39.365431 99.74654 
L 35.180156 97.036971 
L 35.905445 101.936959 
L 34.92309 100.744117 
L 34.341478 102.37733 
L 36.219427 105.733249 
L 32.006222 104.143752 
L 33.808227 105.354807 
L 29.765673 106.045543 
L 32.091678 107.562732 
L 30.784866 109.522002 
L 26.475905 108.629106 
L 28.05829 111.170392 
L 25.360432 109.808972 
L 28.35455 111.888382 
L 28.783317 115.157138 
L 24.130435 110.3474 
L 22.900875 111.271845 
L 25.569839 112.574347 
L 27.038486 116.554816 
L 22.099993 125.323556 
L 20.253207 124.560679 
L 23.720175 126.958249 
L 23.5016 129.378096 
L 21.413199 128.809764 
L 25.790158 131.780553 
L 26.619234 133.366693 
L 24.978104 133.476635 
L 27.324186 135.270555 
L 19.963669 142.657296 
L 16.51224 152.241788 
L 15.01662 153.827826 
L 14.519244 151.195311 
L 13.376362 155.462788 
L 12.421938 152.556424 
L 12.43154 155.795906 
L 12.098443 153.418413 
L 11.554978 155.881873 
L 9.046277 155.441129 
L 7.2 158.257347 
L 7.2 7.199992 
L 139.432535 7.199992 
L 139.432535 273.312 
z
" clip-path="url(#pc93b818214)" style="fill: #d3d3d3"/>
   </g>
   <g id="patch_5">
    <path d="M 37.279033 267.138261 
L 37.278335 267.119109 
L 39.252303 265.201223 
L 39.786165 266.925368 
L 42.48411 267.471381 
L 43.932418 270.720413 
L 40.510145 271.061927 
L 41.854579 272.028807 
L 40.109749 271.411715 
L 39.478151 273.312 
L 37.135937 273.312 
L 36.306192 269.687864 
L 32.110446 268.690962 
L 36.123756 268.571544 
z
" clip-path="url(#pc93b818214)" style="fill: #d3d3d3"/>
   </g>
   <g id="patch_6">
    <path d="M 133.988704 203.928861 
L 135.924257 206.828802 
L 138.908512 206.454392 
L 139.432535 207.382947 
L 139.432535 246.827891 
L 139.350195 246.87834 
L 135.174177 245.958979 
L 136.013208 241.676991 
L 131.280975 231.249477 
L 129.183416 229.909223 
L 129.164381 225.24779 
L 120.879033 216.220453 
L 123.46594 217.842277 
L 121.349346 215.243062 
L 122.150319 214.131685 
L 123.987236 216.002518 
L 124.273203 214.052425 
L 126.199161 214.039152 
L 124.851669 212.800155 
L 127.254307 210.75511 
L 125.801902 208.971209 
L 128.716242 209.857205 
L 131.884843 203.600001 
L 134.011045 203.908958 
z
" clip-path="url(#pc93b818214)" style="fill: #add8e6"/>
   </g>
   <g id="patch_7">
    <path d="M 98.412972 217.868682 
L 99.849408 216.510818 
L 103.281809 217.664439 
L 100.593115 214.872665 
L 96.458383 215.203307 
L 96.518698 216.708675 
L 93.238972 215.5338 
L 94.462509 214.806556 
L 92.635097 213.012469 
L 91.700754 213.900046 
L 93.029127 210.868145 
L 91.72624 209.550711 
L 94.449847 210.422681 
L 92.056631 208.757924 
L 91.993171 205.417214 
L 93.24211 206.54126 
L 92.355426 208.771107 
L 94.882018 209.21115 
L 94.246375 205.999668 
L 95.320563 207.944127 
L 98.066433 204.961673 
L 96.146848 201.98736 
L 98.320702 203.324864 
L 101.168353 209.930336 
L 103.046646 203.734406 
L 106.453562 203.35161 
L 105.852922 200.822536 
L 110.314989 201.711438 
L 107.225899 199.365752 
L 108.87218 198.825395 
L 103.876076 195.636311 
L 105.789289 196.489741 
L 105.268166 195.833088 
L 98.803851 193.747542 
L 100.192718 193.291705 
L 97.631117 185.834855 
L 97.44362 188.148188 
L 95.514523 186.061819 
L 95.285733 187.860479 
L 93.178567 184.741009 
L 93.67751 185.841846 
L 91.850104 186.048037 
L 90.305514 181.96074 
L 92.546062 185.312138 
L 92.701791 183.169023 
L 94.020736 184.837265 
L 95.190242 183.76239 
L 97.354585 187.373671 
L 94.653235 182.250944 
L 96.251767 183.23119 
L 96.938297 175.155796 
L 95.005883 176.946411 
L 90.820347 171.021373 
L 90.912527 159.724478 
L 89.129642 158.947851 
L 88.891251 160.280166 
L 87.702717 157.498508 
L 90.60422 158.391353 
L 92.1489 162.781659 
L 93.111873 163.348858 
L 93.194451 168.252184 
L 91.386074 168.174622 
L 94.004846 172.89202 
L 95.940405 173.423811 
L 95.495404 171.876751 
L 97.885392 174.436951 
L 96.985963 170.888216 
L 98.454168 169.680454 
L 98.953117 172.549076 
L 104.575262 171.414136 
L 101.749965 173.961931 
L 103.014788 181.594259 
L 111.414572 187.908311 
L 107.063713 186.968766 
L 105.579618 184.995528 
L 107.302014 184.995528 
L 104.460916 182.9753 
L 102.852776 187.11281 
L 101.107949 186.611552 
L 101.762621 181.075561 
L 99.757229 178.482673 
L 97.151113 181.372762 
L 98.76562 181.96074 
L 97.02402 182.195722 
L 99.064325 186.879384 
L 100.952226 187.023441 
L 99.553847 191.021607 
L 103.688579 191.553991 
L 104.044545 190.126564 
L 106.5934 192.46079 
L 108.738624 189.593338 
L 107.801137 187.62729 
L 111.468604 193.203269 
L 109.409187 191.485592 
L 111.017404 193.618238 
L 108.255566 192.385922 
L 109.110481 194.434414 
L 114.37666 193.536759 
L 112.879639 192.358778 
L 115.415755 193.638797 
L 116.486798 191.990677 
L 114.916806 191.39713 
L 114.999468 182.395914 
L 119.38533 188.038613 
L 119.143711 182.112597 
L 122.636516 186.501752 
L 120.211615 188.77877 
L 121.555956 189.928455 
L 117.97735 190.1812 
L 123.135472 194.652039 
L 117.580181 193.114639 
L 117.716708 195.527842 
L 116.528174 195.10014 
L 120.945721 199.190126 
L 120.132091 201.610506 
L 116.480508 203.532889 
L 114.678505 207.223025 
L 112.342638 206.74178 
L 113.143432 208.0574 
L 108.487584 204.988354 
L 107.37202 207.162839 
L 110.693129 207.223025 
L 108.401777 207.23642 
L 108.417578 210.083519 
L 106.615567 209.430712 
L 106.952505 211.55928 
L 103.723582 212.879736 
L 105.655907 213.972785 
L 107.931374 212.541506 
L 110.260958 216.075231 
L 102.102703 219.999369 
L 100.335785 218.809964 
L 99.445777 219.907376 
L 98.667157 217.934528 
z
" clip-path="url(#pc93b818214)" style="fill: #add8e6"/>
   </g>
   <g id="patch_8">
    <path d="M 76.636495 170.12294 
L 79.159865 173.535573 
L 77.1323 173.465676 
L 82.341219 179.662391 
L 77.99036 176.500934 
L 77.001889 180.272279 
L 78.667289 182.174848 
L 76.270928 180.895356 
L 75.702146 183.555561 
L 74.462635 183.114059 
L 77.577127 187.510667 
L 78.476563 183.94871 
L 78.034874 187.064547 
L 79.83365 188.271673 
L 79.159865 184.02444 
L 81.603795 181.199849 
L 83.844434 182.347529 
L 81.054049 175.385872 
L 86.854091 182.506512 
L 87.337149 180.168382 
L 82.630408 173.633501 
L 86.377398 178.038129 
L 85.176035 172.955055 
L 87.057472 174.674152 
L 85.331757 172.402157 
L 87.070218 173.486608 
L 89.256818 171.904661 
L 89.555524 174.646352 
L 87.890214 173.157967 
L 88.598834 174.96053 
L 87.200539 175.065166 
L 90.995189 177.224654 
L 88.824563 176.277906 
L 88.935772 178.357735 
L 86.749255 176.890598 
L 89.501492 181.24147 
L 88.099885 180.577036 
L 89.317139 183.065724 
L 87.202025 181.639461 
L 86.568124 184.651356 
L 88.35416 186.735108 
L 86.622072 185.126344 
L 85.354015 186.412312 
L 85.125231 182.368403 
L 82.446055 190.044513 
L 81.870816 186.700774 
L 83.058913 187.16917 
L 84.251287 184.15543 
L 81.346465 182.699983 
L 79.887682 184.465402 
L 80.958725 189.948738 
L 78.012527 187.750859 
L 79.87808 190.645899 
L 78.629141 190.789416 
L 77.138583 187.805669 
L 77.481809 195.140796 
L 76.054801 191.922317 
L 74.964729 196.070412 
L 76.626894 197.763767 
L 75.155455 196.99887 
L 74.592962 199.007786 
L 73.077002 197.987103 
L 73.102404 199.851602 
L 74.561097 199.959627 
L 72.58748 203.291295 
L 74.52304 201.603664 
L 73.137407 205.45731 
L 75.031507 207.556888 
L 72.333295 207.069251 
L 72.171199 209.723906 
L 74.284655 210.908132 
L 71.799433 210.642249 
L 72.009104 214.462654 
L 75.861014 214.647798 
L 78.546569 217.137188 
L 79.6843 214.065512 
L 80.440663 215.962988 
L 79.59142 214.922607 
L 79.162309 215.740262 
L 80.561383 219.32935 
L 78.45439 223.014152 
L 79.309305 219.046766 
L 76.560206 216.424915 
L 75.638513 218.191317 
L 73.490145 214.621451 
L 74.284655 216.345892 
L 71.688141 218.632357 
L 73.121523 221.672248 
L 71.43701 219.132007 
L 71.214593 220.400049 
L 69.631862 219.947061 
L 72.142653 217.341765 
L 71.977329 215.276097 
L 70.575805 215.718674 
L 70.629844 213.562466 
L 69.555566 214.058965 
L 67.731389 210.495754 
L 67.760025 208.371103 
L 70.366051 208.311013 
L 71.303628 206.166709 
L 67.934777 202.236214 
L 69.990966 203.210685 
L 71.281281 200.45176 
L 68.452755 200.701128 
L 70.426366 199.622156 
L 69.393561 199.034873 
L 71.567415 199.716496 
L 71.971046 197.100432 
L 74.370462 196.850035 
L 70.982575 193.332644 
L 74.154328 194.135315 
L 74.278282 191.608524 
L 76.6969 189.524946 
L 75.57497 184.926892 
L 72.65112 182.831018 
L 75.193602 181.283084 
L 75.018844 178.892266 
L 76.363108 180.161533 
L 75.222232 174.911469 
L 77.383347 175.162883 
L 74.256109 170.930229 
L 72.209347 170.087828 
L 71.535646 174.052702 
L 69.943307 171.680617 
L 71.688141 172.170956 
L 70.772911 169.504583 
L 73.08652 166.327204 
L 73.896914 169.441252 
L 76.655524 170.01741 
z
" clip-path="url(#pc93b818214)" style="fill: #add8e6"/>
   </g>
   <g id="patch_9">
    <path d="M 97.116194 268.358372 
L 97.799155 273.312 
L 89.578405 273.312 
L 88.30973 271.426377 
L 90.667853 267.655839 
L 95.276132 266.866031 
L 97.116194 268.383076 
z
" clip-path="url(#pc93b818214)" style="fill: #add8e6"/>
   </g>
   <g id="patch_10">
    <path d="M 99.018158 7.199992 
L 98.984975 8.5205 
L 101.508429 9.109874 
L 98.10152 12.06618 
L 98.114176 8.467819 
L 96.083389 12.547361 
L 93.893644 10.172634 
L 92.536635 12.407529 
L 92.49212 10.058602 
L 95.349193 9.575466 
L 94.418079 7.463965 
L 94.44339 9.092253 
L 93.481318 7.199992 
z
" clip-path="url(#pc93b818214)" style="fill: #add8e6"/>
   </g>
   <g id="patch_11">
    <path d="M 88.347787 140.926912 
L 85.906996 136.270228 
L 87.886986 136.218692 
L 86.590298 132.138699 
L 88.856338 133.890112 
L 91.719783 133.166424 
L 90.728174 136.218692 
L 93.207197 139.104439 
L 95.546208 136.255476 
L 100.284808 137.137761 
L 98.435139 137.622569 
L 99.925697 139.309519 
L 97.478533 138.664532 
L 96.937687 140.277321 
L 98.946834 140.166196 
L 99.264652 142.117312 
L 102.744629 143.78668 
L 97.345067 142.56976 
L 98.501917 141.883757 
L 95.336537 139.50728 
L 91.551315 142.131935 
L 92.120264 144.281674 
L 91.154146 141.467579 
L 89.278992 142.423921 
L 88.389163 141.02187 
z
" clip-path="url(#pc93b818214)" style="fill: #add8e6"/>
   </g>
   <g id="patch_12">
    <path d="M 125.287063 175.183577 
L 120.799599 170.073744 
L 120.894917 168.05488 
L 118.953075 169.602853 
L 118.479534 167.639216 
L 115.279228 167.061187 
L 111.128612 159.546601 
L 113.658349 161.034285 
L 112.279005 157.398406 
L 118.460409 164.376171 
L 120.538945 164.107028 
L 121.006119 165.69167 
L 121.915066 164.255606 
L 124.060303 166.327204 
L 122.258383 166.193198 
L 123.233928 170.944293 
L 127.915358 178.00339 
L 125.944963 176.744547 
L 123.88869 179.807863 
L 125.430136 175.281281 
z
" clip-path="url(#pc93b818214)" style="fill: #add8e6"/>
   </g>
   <g id="patch_13">
    <path d="M 51.055771 192.079068 
L 50.957309 193.65225 
L 53.347297 194.169302 
L 54.265755 191.451483 
L 54.103573 193.978815 
L 56.884443 193.196535 
L 55.775342 196.077119 
L 57.024282 196.626358 
L 57.82839 194.345932 
L 57.802901 196.4365 
L 59.865553 197.093731 
L 61.30845 196.937854 
L 60.72361 195.398852 
L 57.818789 193.019263 
L 61.419658 195.805886 
L 61.359253 191.1718 
L 62.573279 190.625442 
L 62.366747 192.958106 
L 63.491738 192.154155 
L 61.22256 197.283428 
L 62.98965 200.141555 
L 60.739498 197.235821 
L 55.38446 196.497561 
L 56.770093 198.615865 
L 51.526174 202.894982 
L 51.440367 205.825418 
L 53.833497 205.845643 
L 51.780449 206.481022 
L 52.371572 208.831158 
L 48.764419 211.937889 
L 51.392708 213.714722 
L 51.186092 215.731915 
L 46.825718 212.508349 
L 51.259156 209.550711 
L 49.276111 204.64653 
L 50.998595 204.525919 
L 51.847137 201.415253 
L 50.420128 199.831403 
L 52.651249 201.017943 
L 52.590844 199.40617 
L 55.368573 198.156138 
L 54.259295 194.780785 
L 50.563195 194.780785 
z
" clip-path="url(#pc93b818214)" style="fill: #add8e6"/>
   </g>
   <g id="matplotlib.axis_1"/>
   <g id="matplotlib.axis_2"/>
   <g id="LineCollection_1">
    <path d="M 50.415254 273.312 
L 51.999719 272.634801 
L 48.205417 272.321764 
L 49.19659 271.291372 
L 48.013729 268.580679 
L 50.835887 267.822813 
L 47.708565 266.564194 
L 49.19659 265.544699 
L 48.881038 261.983372 
L 55.613506 260.995666 
L 54.936663 258.387171 
L 57.328746 259.445199 
L 56.594641 258.218806 
L 58.682345 256.504236 
L 63.659857 257.179161 
L 63.71773 254.266643 
L 65.490843 256.240219 
L 67.778702 256.597033 
L 67.626818 254.962842 
L 71.001345 256.165776 
L 72.384448 254.971797 
L 71.716159 252.579754 
L 73.746863 254.473105 
L 73.975125 251.948105 
L 75.329597 254.473105 
L 77.046059 252.815515 
L 84.844857 254.850728 
L 88.295675 257.3287 
L 99.356221 258.116946 
L 101.043179 256.757682 
L 101.453091 249.35518 
L 104.52254 252.307458 
L 105.80011 248.42753 
L 108.717938 249.716456 
L 111.481263 248.826399 
L 113.200693 244.851093 
L 125.118335 247.951808 
L 127.177059 245.70835 
L 122.887564 244.374341 
L 121.762227 240.857257 
L 112.246618 240.493133 
L 109.596071 236.3226 
L 107.460357 236.458137 
L 105.39046 231.924037 
L 108.536812 234.459324 
L 107.755309 229.379471 
L 109.433276 228.970906 
L 107.859794 227.382646 
L 107.192117 229.525346 
L 103.826144 230.176184 
L 103.053894 232.765766 
L 98.918202 232.765057 
L 97.354322 231.1162 
L 97.430875 233.365262 
L 94.168603 232.725689 
L 94.512698 233.946221 
L 90.908687 231.195103 
L 90.79364 232.551875 
L 88.991372 231.690017 
L 88.277257 234.294405 
L 86.389445 233.210382 
L 85.226923 234.776144 
L 82.747289 232.978179 
L 82.071319 234.844409 
L 83.62516 236.686801 
L 80.193109 233.984463 
L 79.657588 236.224992 
L 76.797895 233.094821 
L 78.810356 237.062462 
L 76.778779 238.399746 
L 77.43764 235.945334 
L 75.615645 235.04775 
L 76.302701 238.9188 
L 74.510996 237.091379 
L 75.72048 238.409427 
L 73.680872 238.217729 
L 73.690038 235.722098 
L 71.745663 238.841756 
L 69.704659 237.976849 
L 66.959402 241.010576 
L 65.891589 239.284211 
L 65.547057 241.048988 
L 64.25072 239.78263 
L 62.707092 242.120942 
L 61.009397 240.569131 
L 61.972638 242.054033 
L 59.063364 245.346554 
L 60.103856 242.875621 
L 58.244064 244.48941 
L 58.416025 242.407777 
L 52.255827 245.347252 
L 47.985098 245.403755 
L 49.358337 242.331964 
L 45.620599 248.217506 
L 41.903111 248.939579 
L 45.496997 246.593194 
L 45.335162 245.11788 
L 44.219078 245.622755 
L 45.763928 243.773916 
L 43.552273 244.841494 
L 43.466118 246.622967 
L 41.796967 246.460681 
L 40.920144 244.174718 
L 42.912528 245.233534 
L 43.008546 243.649124 
L 43.732788 243.534102 
L 43.819291 241.593393 
L 41.606676 240.809361 
L 44.180583 236.060458 
L 37.631161 239.6874 
L 38.956041 238.025454 
L 36.859172 238.429315 
L 39.118225 235.260935 
L 35.057166 235.741528 
L 30.595448 231.777206 
L 28.936423 233.636845 
L 29.965218 229.776954 
L 26.952331 233.249725 
L 25.11253 230.640471 
L 24.140386 228.014998 
L 25.551683 227.274047 
L 23.739552 224.302373 
L 25.321588 224.027396 
L 22.633244 223.439975 
L 23.891785 223.538539 
L 23.634718 221.170866 
L 25.359821 223.360792 
L 23.66361 219.251178 
L 25.942042 219.537117 
L 25.283181 216.761574 
L 27.267272 215.891715 
L 25.378501 211.120801 
L 27.096621 210.742695 
L 25.398577 209.204563 
L 27.496495 209.125139 
L 25.626752 207.30302 
L 29.36484 209.644719 
L 23.47201 197.539994 
L 25.284403 192.018393 
L 24.606861 190.348643 
L 23.892134 191.321965 
L 24.444852 188.265651 
L 23.692241 187.103005 
L 22.719399 189.036225 
L 23.052147 186.37042 
L 21.527984 185.360324 
L 22.919642 182.547868 
L 21.146878 182.237852 
L 21.661101 177.600948 
L 23.120146 175.291819 
L 24.903122 175.637511 
L 25.655383 171.032739 
L 28.144707 171.168756 
L 26.084673 168.154313 
L 26.933652 165.264564 
L 27.983308 167.255078 
L 31.58601 165.984673 
L 31.757272 168.670982 
L 31.987106 166.557539 
L 35.923864 165.338354 
L 34.037275 161.020025 
L 36.381174 161.468738 
L 35.390612 157.942324 
L 36.773366 160.540547 
L 36.552785 157.27768 
L 38.755275 154.107077 
L 40.967891 156.128879 
L 42.426325 154.441017 
L 41.788064 152.035971 
L 39.356526 151.810715 
L 42.045219 151.183828 
L 41.234473 149.418016 
L 43.294158 152.66272 
L 44.037253 149.115919 
L 48.071864 148.454324 
L 47.670506 144.798097 
L 50.245024 145.800134 
L 51.00811 141.211947 
L 53.944094 140.159561 
L 55.516964 135.280872 
L 58.025753 135.137199 
L 57.395261 132.923285 
L 61.132999 127.515344 
L 60.807846 125.187742 
L 67.092606 122.506138 
L 70.524308 124.772976 
L 68.303138 120.172888 
L 71.211451 121.852836 
L 71.831207 119.768053 
L 68.607604 116.894221 
L 70.686404 115.078497 
L 68.797633 111.684392 
L 71.448879 111.797891 
L 68.969855 110.288757 
L 70.171832 107.769367 
L 66.596452 102.689607 
L 62.086114 102.818287 
L 61.334114 97.145121 
L 59.464809 99.190767 
L 56.603894 97.562007 
L 56.469119 99.585636 
L 56.357563 96.654783 
L 52.485311 99.701057 
L 51.493789 97.467989 
L 49.663152 98.840796 
L 48.538165 97.119311 
L 47.641526 99.793934 
L 47.299264 97.678393 
L 46.574324 98.747796 
L 43.80969 96.069483 
L 45.801463 99.131209 
L 44.210174 101.253938 
L 39.003701 95.369101 
L 39.365429 99.746541 
L 35.180157 97.036968 
L 35.905446 101.936958 
L 34.92309 100.744112 
L 34.341479 102.377334 
L 36.219427 105.733246 
L 32.006222 104.143752 
L 33.808227 105.354812 
L 29.765674 106.045541 
L 32.091678 107.562734 
L 30.784867 109.521997 
L 26.475905 108.629106 
L 28.05829 111.170393 
L 25.360432 109.808973 
L 28.354551 111.888385 
L 28.783317 115.157139 
L 24.130435 110.347399 
L 22.900874 111.271842 
L 25.56984 112.574346 
L 27.038486 116.554821 
L 22.099993 125.323552 
L 20.253208 124.560677 
L 23.720174 126.958244 
L 23.501601 129.378097 
L 21.413198 128.80977 
L 25.790158 131.78055 
L 26.619235 133.366689 
L 24.978104 133.476636 
L 27.324185 135.270553 
L 19.963668 142.657299 
L 16.512239 152.241784 
L 15.01662 153.827823 
L 14.519244 151.19531 
L 13.376362 155.462783 
L 12.421938 152.556422 
L 12.43154 155.795907 
L 12.098443 153.418413 
L 11.554978 155.881869 
L 9.046277 155.441133 
L 7.2 158.257344 
L 7.2 158.257344 
" clip-path="url(#pc93b818214)" style="fill: none; stroke: #000000; stroke-width: 0.6"/>
    <path d="M 37.279035 267.138261 
L 37.278336 267.11911 
L 39.252302 265.201223 
L 39.786165 266.925367 
L 42.48411 267.471381 
L 43.932419 270.720413 
L 40.510145 271.061927 
L 41.854578 272.028807 
L 40.109747 271.411715 
L 39.478152 273.312 
" clip-path="url(#pc93b818214)" style="fill: none; stroke: #000000; stroke-width: 0.6"/>
    <path d="M 37.135938 273.312 
L 36.306192 269.687864 
L 32.110446 268.690962 
L 36.123757 268.571544 
L 37.279035 267.138261 
" clip-path="url(#pc93b818214)" style="fill: none; stroke: #000000; stroke-width: 0.6"/>
    <path d="M 133.9887 203.928859 
L 135.924258 206.828803 
L 138.908513 206.454391 
L 139.432541 207.382948 
" clip-path="url(#pc93b818214)" style="fill: none; stroke: #000000; stroke-width: 0.6"/>
    <path d="M 139.432541 246.827892 
L 139.350198 246.878339 
L 135.174179 245.958978 
L 136.013206 241.676991 
L 131.280978 231.249478 
L 129.18341 229.909224 
L 129.164381 225.24779 
L 120.879031 216.220455 
L 123.465944 217.842275 
L 121.349347 215.243059 
L 122.150316 214.131687 
L 123.987237 216.00252 
L 124.273198 214.052422 
L 126.199155 214.03915 
L 124.851666 212.800154 
L 127.254311 210.755113 
L 125.8019 208.971208 
L 128.716236 209.857203 
L 131.884847 203.600004 
L 134.011046 203.908955 
L 133.9887 203.928859 
" clip-path="url(#pc93b818214)" style="fill: none; stroke: #000000; stroke-width: 0.6"/>
    <path d="M 98.41297 217.868685 
L 99.849407 216.510816 
L 103.281807 217.664438 
L 100.593114 214.872664 
L 96.458382 215.203305 
L 96.518699 216.708675 
L 93.238969 215.533799 
L 94.462507 214.806555 
L 92.6351 213.01247 
L 91.700753 213.900049 
L 93.029125 210.868143 
L 91.726241 209.550709 
L 94.44985 210.42268 
L 92.056632 208.757922 
L 91.993173 205.417213 
L 93.242112 206.541263 
L 92.355424 208.771106 
L 94.88202 209.211151 
L 94.246378 205.999666 
L 95.320563 207.944128 
L 98.066431 204.96167 
L 96.146846 201.987359 
L 98.320705 203.324863 
L 101.168352 209.930334 
L 103.046649 203.734402 
L 106.45356 203.351607 
L 105.85292 200.822539 
L 110.314988 201.711436 
L 107.225898 199.36575 
L 108.872179 198.825397 
L 103.876074 195.636314 
L 105.789286 196.48974 
L 105.268168 195.833088 
L 98.803853 193.747543 
L 100.192717 193.291704 
L 97.631118 185.834858 
L 97.44362 188.148189 
L 95.51452 186.061816 
L 95.285735 187.860477 
L 93.178565 184.741008 
L 93.677512 185.841845 
L 91.850105 186.048035 
L 90.305517 181.960739 
L 92.546065 185.312136 
L 92.701789 183.169025 
L 94.020734 184.837267 
L 95.19024 183.76239 
L 97.354584 187.373673 
L 94.653234 182.250946 
L 96.251768 183.231188 
L 96.9383 175.155796 
L 95.005884 176.946413 
L 90.82035 171.021371 
L 90.912528 159.72448 
L 89.129639 158.947855 
L 88.891251 160.280162 
L 87.702717 157.49851 
L 90.604221 158.391357 
L 92.148897 162.781665 
L 93.111876 163.348858 
L 93.194451 168.252183 
L 91.386074 168.174623 
L 94.004848 172.892022 
L 95.940406 173.42381 
L 95.495404 171.876753 
L 97.885392 174.436948 
L 96.98596 170.888218 
L 98.454171 169.680453 
L 98.953118 172.549076 
L 104.575263 171.414139 
L 101.749962 173.961931 
L 103.014788 181.594259 
L 111.414574 187.908311 
L 107.063714 186.968764 
L 105.579617 184.995527 
L 107.302014 184.995527 
L 104.460914 182.975301 
L 102.852778 187.112808 
L 101.107948 186.611552 
L 101.762619 181.075559 
L 99.757229 178.482676 
L 97.151112 181.372763 
L 98.76562 181.960739 
L 97.024019 182.195723 
L 99.064325 186.879383 
L 100.952223 187.023444 
L 99.553844 191.021608 
L 103.688576 191.553993 
L 104.044543 190.126563 
L 106.593398 192.460791 
L 108.738626 189.593338 
L 107.801136 187.627288 
L 111.468606 193.203269 
L 109.409184 191.485592 
L 111.017407 193.618239 
L 108.255565 192.385922 
L 109.110479 194.434416 
L 114.376658 193.536759 
L 112.879642 192.35878 
L 115.415753 193.638795 
L 116.486795 191.990676 
L 114.916805 191.397129 
L 114.999469 182.395912 
L 119.385332 188.038615 
L 119.143715 182.112595 
L 122.636519 186.50175 
L 120.211615 188.778767 
L 121.555961 189.928456 
L 117.977352 190.181198 
L 123.135466 194.652036 
L 117.580184 193.114638 
L 117.716705 195.527843 
L 116.528171 195.10014 
L 120.94572 199.190127 
L 120.132094 201.610504 
L 116.48051 203.532888 
L 114.678505 207.223026 
L 112.342637 206.741781 
L 113.143431 208.057402 
L 108.487581 204.988355 
L 107.37202 207.162842 
L 110.693126 207.223026 
L 108.401775 207.23642 
L 108.417575 210.083519 
L 106.615569 209.430711 
L 106.952507 211.559281 
L 103.723579 212.879734 
L 105.655908 213.972785 
L 107.931372 212.541505 
L 110.260955 216.075233 
L 102.102699 219.99937 
L 100.335784 218.809962 
L 99.44578 219.907376 
L 98.667157 217.934524 
L 98.41297 217.868685 
L 98.41297 217.868685 
" clip-path="url(#pc93b818214)" style="fill: none; stroke: #000000; stroke-width: 0.6"/>
    <path d="M 76.636497 170.122939 
L 79.159863 173.535575 
L 77.132301 173.465676 
L 82.341218 179.662389 
L 77.990357 176.500936 
L 77.001891 180.272279 
L 78.667288 182.174847 
L 76.270928 180.895353 
L 75.702149 183.555562 
L 74.462638 183.11406 
L 77.577129 187.510666 
L 78.47656 183.948713 
L 78.034875 187.064545 
L 79.833651 188.271674 
L 79.159863 184.024441 
L 81.603796 181.199852 
L 83.844431 182.34753 
L 81.054046 175.385871 
L 86.854088 182.506515 
L 87.337148 180.168382 
L 82.630408 173.6335 
L 86.377399 178.038127 
L 85.176033 172.955057 
L 87.057472 174.67415 
L 85.331758 172.40216 
L 87.070217 173.486608 
L 89.25682 171.904659 
L 89.555525 174.646349 
L 87.890215 173.157964 
L 88.598831 174.960531 
L 87.20054 175.065164 
L 90.995191 177.224652 
L 88.824562 176.277905 
L 88.935769 178.357733 
L 86.749253 176.8906 
L 89.501492 181.241468 
L 88.099884 180.577035 
L 89.317137 183.065725 
L 87.202024 181.639462 
L 86.568127 184.651357 
L 88.354159 186.735106 
L 86.622072 185.126346 
L 85.354017 186.412313 
L 85.125231 182.368401 
L 82.446053 190.04451 
L 81.870814 186.700777 
L 83.058913 187.169173 
L 84.251288 184.155431 
L 81.346466 182.699982 
L 79.887683 184.4654 
L 80.958726 189.948739 
L 78.012529 187.750861 
L 79.878081 190.645896 
L 78.629142 190.789413 
L 77.138586 187.805671 
L 77.481809 195.140795 
L 76.054799 191.922315 
L 74.964727 196.070414 
L 76.626895 197.763767 
L 75.155455 196.998869 
L 74.592961 199.007784 
L 73.077003 197.987101 
L 73.102404 199.851602 
L 74.5611 199.959628 
L 72.587483 203.291293 
L 74.523042 201.603664 
L 73.137408 205.457308 
L 75.031504 207.556888 
L 72.333296 207.069253 
L 72.1712 209.723905 
L 74.284654 210.908129 
L 71.799433 210.642249 
L 72.009103 214.462656 
L 75.861016 214.647796 
L 78.546566 217.13719 
L 79.684299 214.065512 
L 80.440662 215.962988 
L 79.591422 214.922605 
L 79.162307 215.740261 
L 80.561384 219.329353 
L 78.454389 223.014153 
L 79.309303 219.046766 
L 76.560205 216.424916 
L 75.638515 218.191315 
L 73.490145 214.621454 
L 74.284654 216.345893 
L 71.688139 218.632354 
L 73.121521 221.672247 
L 71.437007 219.132005 
L 71.214593 220.400048 
L 69.631859 219.947061 
L 72.142656 217.341762 
L 71.977329 215.276095 
L 70.575808 215.718674 
L 70.629841 213.562464 
L 69.555568 214.058967 
L 67.731391 210.495755 
L 67.760022 208.371105 
L 70.366052 208.311013 
L 71.303629 206.166707 
L 67.934776 202.236212 
L 69.990968 203.210683 
L 71.281283 200.451758 
L 68.452752 200.701125 
L 70.426369 199.622154 
L 69.393559 199.03487 
L 71.567418 199.7165 
L 71.971045 197.10043 
L 74.37046 196.850037 
L 70.982578 193.332645 
L 74.154331 194.135318 
L 74.278282 191.608522 
L 76.696901 189.524943 
L 75.574968 184.926895 
L 72.651117 182.831018 
L 75.1936 181.283082 
L 75.018847 178.892264 
L 76.363106 180.161531 
L 75.222231 174.911467 
L 77.383346 175.162885 
L 74.25611 170.930229 
L 72.209345 170.087828 
L 71.535644 174.052699 
L 69.943308 171.680616 
L 71.688139 172.170958 
L 70.772908 169.504581 
L 73.086518 166.327205 
L 73.896914 169.441249 
L 76.636497 170.122939 
L 76.636497 170.122939 
" clip-path="url(#pc93b818214)" style="fill: none; stroke: #000000; stroke-width: 0.6"/>
    <path d="M 97.116196 268.358373 
L 97.799154 273.312 
" clip-path="url(#pc93b818214)" style="fill: none; stroke: #000000; stroke-width: 0.6"/>
    <path d="M 89.578403 273.312 
L 88.309728 271.426377 
L 90.667855 267.655839 
L 95.276133 266.866031 
L 97.116196 268.383076 
L 97.116196 268.358373 
" clip-path="url(#pc93b818214)" style="fill: none; stroke: #000000; stroke-width: 0.6"/>
    <path d="M 104.393612 7.2 
L 104.626153 7.605031 
L 102.587113 7.2 
" clip-path="url(#pc93b818214)" style="fill: none; stroke: #000000; stroke-width: 0.6"/>
    <path d="M 99.018156 7.2 
L 98.984978 8.520504 
L 101.508432 9.109877 
L 98.101521 12.066186 
L 98.114178 8.467823 
L 96.083386 12.547366 
L 93.893641 10.172639 
L 92.536637 12.407517 
L 92.49212 10.058599 
L 95.349194 9.575471 
L 94.418076 7.463953 
L 94.44339 9.092252 
L 93.481315 7.2 
" clip-path="url(#pc93b818214)" style="fill: none; stroke: #000000; stroke-width: 0.6"/>
    <path d="M 91.964741 7.2 
L 91.869222 7.340758 
L 91.6556 7.2 
" clip-path="url(#pc93b818214)" style="fill: none; stroke: #000000; stroke-width: 0.6"/>
    <path d="M 88.347786 140.926909 
L 85.906996 136.270224 
L 87.886985 136.218697 
L 86.590299 132.138699 
L 88.856335 133.890106 
L 91.719782 133.16643 
L 90.728173 136.218697 
L 93.207196 139.104443 
L 95.546207 136.255474 
L 100.284807 137.137756 
L 98.435142 137.622565 
L 99.925698 139.309512 
L 97.478535 138.664527 
L 96.937689 140.277327 
L 98.946833 140.166193 
L 99.264654 142.117307 
L 102.744627 143.786682 
L 97.34507 142.569766 
L 98.501918 141.883754 
L 95.336537 139.507282 
L 91.551313 142.131939 
L 92.120266 144.281674 
L 91.154146 141.467584 
L 89.278991 142.42392 
L 88.389162 141.021867 
L 88.347786 140.926909 
" clip-path="url(#pc93b818214)" style="fill: none; stroke: #000000; stroke-width: 0.6"/>
    <path d="M 125.287066 175.183578 
L 120.799597 170.073744 
L 120.894918 168.054883 
L 118.953074 169.602851 
L 118.479528 167.639217 
L 115.279232 167.06119 
L 111.128614 159.546597 
L 113.658352 161.034283 
L 112.279003 157.398409 
L 118.460412 164.376168 
L 120.538951 164.107027 
L 121.006125 165.691668 
L 121.915071 164.255611 
L 124.060299 166.327205 
L 122.25838 166.193198 
L 123.233928 170.944296 
L 127.915354 178.003391 
L 125.944967 176.744548 
L 123.888687 179.807864 
L 125.430134 175.281283 
L 125.287066 175.183578 
" clip-path="url(#pc93b818214)" style="fill: none; stroke: #000000; stroke-width: 0.6"/>
    <path d="M 51.05577 192.079067 
L 50.957307 193.652249 
L 53.347295 194.169304 
L 54.265756 191.451482 
L 54.103572 193.978813 
L 56.884442 193.196538 
L 55.775341 196.077119 
L 57.02428 196.626361 
L 57.828392 194.345932 
L 57.802903 196.436499 
L 59.865555 197.093734 
L 61.308451 196.937851 
L 60.723611 195.398849 
L 57.81879 193.019263 
L 61.419658 195.805885 
L 61.359254 191.171802 
L 62.573277 190.625445 
L 62.36675 192.958104 
L 63.491738 192.154155 
L 61.222558 197.283427 
L 62.989648 200.141552 
L 60.739498 197.235822 
L 55.384459 196.497558 
L 56.770093 198.615865 
L 51.526173 202.894983 
L 51.440368 205.825419 
L 53.833498 205.84564 
L 51.780448 206.481023 
L 52.371573 208.83116 
L 48.764419 211.937886 
L 51.392707 213.714724 
L 51.186093 215.731917 
L 46.825718 212.508348 
L 51.259154 209.550709 
L 49.27611 204.646527 
L 50.998595 204.525921 
L 51.847137 201.415255 
L 50.420127 199.831403 
L 52.651248 201.017943 
L 52.590844 199.406172 
L 55.368572 198.156136 
L 54.259296 194.780787 
L 50.563195 194.780787 
L 51.05577 192.079067 
" clip-path="url(#pc93b818214)" style="fill: none; stroke: #000000; stroke-width: 0.6"/>
   </g>
   <g id="LineCollection_2">
    <path d="M 11.90632 7.2 
L 12.325221 8.37115 
L 12.807234 9.716126 
L 12.222831 10.710766 
L 11.638427 11.704242 
L 11.054024 12.696077 
L 10.46962 13.686515 
L 9.885304 14.675801 
L 9.300813 15.66346 
L 8.716497 16.649974 
L 8.300649 17.350952 
L 11.214898 19.277195 
L 10.608236 20.152427 
L 10.001574 21.026573 
L 9.394911 21.899636 
L 8.788249 22.77162 
L 8.181586 23.642527 
L 8.087663 23.77709 
L 7.409074 23.496819 
L 7.2 23.410372 
" clip-path="url(#pc93b818214)" style="fill: none; stroke: #ffffff; stroke-width: 0.6"/>
    <path d="M 71.869339 7.2 
L 71.782325 7.239331 
L 71.104783 7.545748 
L 70.427242 7.852031 
L 69.7497 8.15794 
L 69.072159 8.463957 
L 68.459211 8.740611 
L 67.935649 9.968415 
L 67.412173 11.194319 
L 66.888698 12.41785 
L 66.365135 13.639497 
L 65.841747 14.858788 
L 65.318184 16.07597 
L 64.960122 16.907669 
L 64.301523 16.37713 
L 63.64301 15.84619 
L 62.984498 15.31485 
L 62.325898 14.783108 
L 61.667386 14.250965 
L 61.008874 13.718418 
L 60.350361 13.185469 
L 59.691849 12.652356 
L 59.033336 12.118598 
L 58.374824 11.584435 
L 57.716224 11.049866 
L 57.057712 10.51489 
L 56.3992 9.979507 
L 55.7406 9.443717 
L 55.082088 8.907517 
L 54.423575 8.370909 
L 54.294299 8.26552 
L 53.63151 8.760661 
L 52.968808 9.255454 
L 52.306018 9.749898 
L 51.643229 10.243995 
L 50.980526 10.737746 
L 50.317737 11.23115 
L 49.654947 11.724208 
L 48.992245 12.21692 
L 48.329455 12.709288 
L 47.666666 13.201312 
L 47.003963 13.692992 
L 46.341087 14.184328 
L 45.697501 14.661189 
L 43.854207 12.591094 
L 43.167937 12.546886 
L 42.481666 12.502675 
L 41.795396 12.458702 
L 41.109038 12.414486 
L 40.422768 12.370267 
L 39.736497 12.326045 
L 39.05014 12.282061 
L 38.363869 12.237833 
L 37.677599 12.193603 
L 36.991328 12.14937 
L 36.305058 12.105375 
L 36.239416 12.101047 
L 35.703545 10.918388 
L 35.167675 9.733495 
L 34.631892 8.546844 
L 34.095934 7.357944 
L 34.024809 7.2 
" clip-path="url(#pc93b818214)" style="fill: none; stroke: #ffffff; stroke-width: 0.6"/>
    <path d="M 21.054032 7.2 
L 21.200648 7.360606 
L 21.839171 8.059773 
L 22.477607 8.758004 
L 23.11613 9.455783 
L 23.754566 10.152629 
L 24.393002 10.848786 
L 25.031438 11.544495 
L 25.669873 12.239275 
L 26.308309 12.933611 
L 26.946832 13.627023 
L 27.585268 14.319991 
L 28.223791 15.012038 
L 28.862227 15.703646 
L 29.500663 16.394335 
L 30.139098 17.084586 
L 30.777534 17.773923 
L 31.416057 18.462825 
L 32.054493 19.150815 
L 32.260409 19.37262 
L 32.94214 19.5915 
L 33.623959 19.81055 
L 34.305691 20.029294 
L 34.987509 20.248208 
L 35.669241 20.466817 
L 36.350972 20.685595 
L 37.032703 20.904068 
L 37.714435 21.12271 
L 38.396166 21.341048 
L 39.077985 21.559555 
L 39.759804 21.777757 
L 40.441535 21.996129 
L 41.10511 22.208508 
L 41.638798 23.379948 
L 42.172312 24.549681 
L 42.706001 25.717243 
L 43.239514 26.883111 
L 43.773203 28.046822 
L 44.306804 29.208852 
L 44.840405 30.368739 
L 44.855244 30.401068 
L 46.63822 29.897699 
L 47.239645 30.786086 
L 47.84107 31.673123 
L 48.442495 32.559282 
L 49.04392 33.44433 
L 49.645345 34.32804 
L 50.24677 35.210879 
L 50.744321 35.940391 
L 48.653212 38.331315 
L 48.56374 40.135165 
L 48.474269 41.934661 
L 48.384884 43.729367 
L 48.2955 45.519539 
L 48.206115 47.305431 
L 48.116643 49.086608 
L 48.055628 50.298686 
L 48.734828 50.558977 
L 49.414028 50.818945 
L 50.093228 51.079045 
L 50.772428 51.338823 
L 51.451541 51.598733 
L 51.907541 51.77309 
L 51.493614 53.197712 
L 51.079687 54.619255 
L 50.66576 56.038185 
L 50.251833 57.454289 
L 49.837819 58.867352 
L 49.663851 59.460753 
L 50.195531 60.578278 
L 50.727212 61.694051 
L 51.25898 62.808077 
L 51.790661 63.920362 
L 52.322341 65.031136 
L 52.854109 66.139958 
L 53.385877 67.247057 
L 53.917558 68.352438 
L 54.449238 69.456109 
L 54.653496 69.879462 
L 54.253186 71.293763 
L 53.852876 72.705267 
L 53.452566 74.113765 
L 53.052256 75.519709 
L 52.651947 76.922891 
L 52.251637 78.323323 
L 51.851327 79.720798 
L 51.451017 81.115766 
L 51.050707 82.508018 
L 50.683916 83.780878 
L 51.178674 84.964701 
L 51.673343 86.146787 
L 52.168013 87.326709 
L 52.66277 88.504907 
L 53.15744 89.680956 
L 53.65211 90.855294 
L 54.146867 92.027497 
L 54.641537 93.198003 
L 55.136207 94.366389 
L 55.630964 95.53309 
L 56.125547 96.697685 
L 56.471388 97.510629 
L 56.40435 99.177367 
L 56.337311 100.840249 
L 56.270273 102.499084 
L 56.203322 104.154314 
L 56.136284 105.805747 
L 56.115421 106.320847 
" clip-path="url(#pc93b818214)" style="fill: none; stroke: #ffffff; stroke-width: 0.6"/>
    <path d="M 107.883634 7.2 
L 109.717491 7.886861 
L 105.56373 17.724554 
L 108.300083 28.231305 
L 115.854383 31.636877 
L 123.539093 43.42378 
L 114.666284 63.120649 
L 112.628597 67.568358 
L 121.302473 87.179649 
L 122.140714 89.046793 
L 124.746831 100.616546 
L 124.629165 102.122123 
L 120.030402 102.869922 
L 121.606851 104.862656 
L 118.593965 113.583929 
L 121.536845 114.479042 
L 121.768861 117.074754 
L 118.965819 118.644321 
L 119.054767 122.29853 
L 120.977494 125.911835 
L 124.823035 126.441475 
L 125.490451 129.75986 
L 122.925709 131.605884 
L 123.809167 136.292248 
L 129.628412 140.524654 
L 130.20365 144.274279 
L 126.227786 151.557888 
L 123.135466 153.593846 
L 137.166912 166.934292 
L 139.432541 171.206505 
L 139.432541 171.206505 
" clip-path="url(#pc93b818214)" style="fill: none; stroke: #ffffff; stroke-width: 0.6"/>
    <path d="M 139.432541 178.761351 
L 139.365212 178.899698 
L 138.865305 179.92628 
L 138.365398 180.951434 
L 137.865403 181.975167 
L 137.365409 182.997482 
L 136.865414 184.018383 
L 136.365419 185.037876 
L 135.865512 186.055964 
L 135.365518 187.072652 
L 134.86561 188.087944 
L 134.365616 189.101845 
L 134.055476 189.730109 
L 133.469501 190.499161 
L 132.883439 191.267415 
L 132.297464 192.034873 
L 131.71149 192.801537 
L 131.125428 193.567409 
L 130.539366 194.33249 
L 129.953391 195.096783 
L 129.367416 195.860289 
L 128.781354 196.623011 
L 128.195379 197.384949 
L 127.609405 198.146106 
L 127.023342 198.906484 
L 126.43728 199.666085 
L 125.851306 200.42491 
L 125.265331 201.182961 
L 124.679269 201.940239 
L 124.093294 202.696748 
L 123.507319 203.452488 
L 122.921257 204.207461 
L 122.335195 204.96167 
L 121.749221 205.715115 
L 121.163246 206.467799 
L 120.577184 207.219724 
L 119.991209 207.97089 
L 119.405234 208.7213 
L 118.819172 209.470956 
L 118.23311 210.21986 
L 117.647135 210.968012 
L 117.061161 211.715415 
L 116.475099 212.462071 
L 115.889124 213.207981 
L 115.303149 213.953147 
L 114.717087 214.697571 
L 114.214474 215.335447 
L 113.601265 215.97677 
L 112.988056 216.617362 
L 112.374846 217.257768 
L 111.761637 217.897264 
L 111.148341 218.536396 
L 110.535219 219.174982 
L 109.921923 219.813024 
L 109.308801 220.450523 
L 108.695505 221.0873 
L 108.082295 221.723716 
L 107.469086 222.359593 
L 106.85579 222.99493 
L 106.242668 223.62973 
L 105.629372 224.263814 
L 105.01625 224.897721 
L 104.402954 225.530735 
L 103.789745 226.163395 
L 103.176535 226.795522 
L 102.563326 227.426939 
L 101.950117 228.058183 
L 101.336821 228.68854 
L 100.723699 229.318548 
L 100.110403 229.948028 
L 99.497194 230.576982 
L 98.883984 231.20541 
L 98.270775 231.833137 
L 98.165068 231.941435 
" clip-path="url(#pc93b818214)" style="fill: none; stroke: #ffffff; stroke-width: 0.6"/>
    <path d="M 98.546785 263.563259 
L 98.024008 264.430474 
L 97.501143 265.296705 
L 96.978279 266.162125 
L 96.455415 267.026567 
L 95.932637 267.889863 
L 95.40986 268.752186 
L 94.886996 269.613539 
L 94.364131 270.473923 
L 93.841267 271.333511 
L 93.728838 271.518221 
L 93.78837 272.837366 
L 93.809817 273.312 
" clip-path="url(#pc93b818214)" style="fill: none; stroke: #ffffff; stroke-width: 0.6"/>
    <path d="M 98.546785 263.563259 
L 99.149694 260.736961 
L 102.493931 259.24813 
" clip-path="url(#pc93b818214)" style="fill: none; stroke: #ffffff; stroke-width: 0.6"/>
    <path d="M 100.510101 256.412631 
L 102.493931 259.24813 
" clip-path="url(#pc93b818214)" style="fill: none; stroke: #ffffff; stroke-width: 0.6"/>
    <path d="M 97.996599 231.986703 
L 97.505857 232.962401 
L 97.01529 233.936837 
L 96.524548 234.910014 
L 96.033893 235.881937 
L 95.543239 236.852609 
L 95.052584 237.822033 
L 94.602345 238.710518 
" clip-path="url(#pc93b818214)" style="fill: none; stroke: #ffffff; stroke-width: 0.6"/>
   </g>
   <g id="LineCollection_3"/>
   <g id="line2d_1">
    <path d="M 85.455744 224.477895 
L 73.574156 221.746836 
L 73.574156 221.746836 
" clip-path="url(#pc93b818214)" style="fill: none; stroke: #008000; stroke-width: 0.75; stroke-linecap: square"/>
   </g>
   <g id="line2d_2">
    <path d="M 85.455744 224.477895 
L 87.934712 233.819906 
L 87.934712 233.819906 
" clip-path="url(#pc93b818214)" style="fill: none; stroke: #008000; stroke-width: 0.75; stroke-linecap: square"/>
   </g>
   <g id="line2d_3">
    <path d="M 85.455744 224.477895 
L 92.003209 204.908987 
L 92.003209 204.908987 
" clip-path="url(#pc93b818214)" style="fill: none; stroke: #008000; stroke-width: 0.75; stroke-linecap: square"/>
   </g>
   <g id="line2d_4">
    <path d="M 85.455744 224.477895 
L 98.136533 221.06832 
L 102.488397 219.951167 
L 102.488397 219.951167 
" clip-path="url(#pc93b818214)" style="fill: none; stroke: #008000; stroke-width: 0.75; stroke-linecap: square"/>
   </g>
   <g id="line2d_5">
    <path d="M 73.574156 221.746836 
L 65.408622 240.358261 
L 65.267146 240.685601 
L 65.267146 240.685601 
" clip-path="url(#pc93b818214)" style="fill: none; stroke: #008000; stroke-width: 0.75; stroke-linecap: square"/>
   </g>
   <g id="line2d_6">
    <path d="M 92.003209 204.908987 
L 96.634155 175.284342 
L 96.634155 175.284342 
" clip-path="url(#pc93b818214)" style="fill: none; stroke: #008000; stroke-width: 0.75; stroke-linecap: square"/>
   </g>
   <g id="line2d_7">
    <path d="M 92.003209 204.908987 
L 80.526195 196.19185 
L 74.395864 191.649551 
L 74.395864 191.649551 
" clip-path="url(#pc93b818214)" style="fill: none; stroke: #008000; stroke-width: 0.75; stroke-linecap: square"/>
   </g>
   <g id="line2d_8">
    <path d="M 74.395864 191.649551 
L 63.045855 200.593868 
L 52.128855 209.465588 
L 52.128855 209.465588 
" clip-path="url(#pc93b818214)" style="fill: none; stroke: #008000; stroke-width: 0.75; stroke-linecap: square"/>
   </g>
   <g id="line2d_9">
    <path d="M 41.216337 177.60026 
L 29.213269 171.163863 
L 27.28597 170.153822 
L 27.28597 170.153822 
" clip-path="url(#pc93b818214)" style="fill: none; stroke: #008000; stroke-width: 0.75; stroke-linecap: square"/>
   </g>
   <g id="line2d_10">
    <path d="M 41.216337 177.60026 
L 33.634625 197.762783 
L 29.20306 209.843851 
L 29.20306 209.843851 
" clip-path="url(#pc93b818214)" style="fill: none; stroke: #008000; stroke-width: 0.75; stroke-linecap: square"/>
   </g>
   <g id="line2d_11">
    <path d="M 29.20306 209.843851 
L 26.090363 218.329149 
L 26.090363 218.329149 
" clip-path="url(#pc93b818214)" style="fill: none; stroke: #008000; stroke-width: 0.75; stroke-linecap: square"/>
   </g>
   <g id="line2d_12">
    <path d="M 52.128855 209.465588 
L 59.877075 221.433306 
L 59.877075 221.433306 
" clip-path="url(#pc93b818214)" style="fill: none; stroke: #008000; stroke-width: 0.75; stroke-linecap: square"/>
   </g>
   <g id="line2d_13">
    <path d="M 59.877075 221.433306 
L 62.026422 239.864501 
L 62.026422 239.864501 
" clip-path="url(#pc93b818214)" style="fill: none; stroke: #008000; stroke-width: 0.75; stroke-linecap: square"/>
   </g>
   <g id="line2d_14">
    <path d="M 26.090363 218.329149 
L 34.756169 234.172393 
L 34.756169 234.172393 
" clip-path="url(#pc93b818214)" style="fill: none; stroke: #008000; stroke-width: 0.75; stroke-linecap: square"/>
   </g>
   <g id="line2d_15">
    <path d="M 34.756169 234.172393 
L 44.648702 235.751802 
L 44.648702 235.751802 
" clip-path="url(#pc93b818214)" style="fill: none; stroke: #008000; stroke-width: 0.75; stroke-linecap: square"/>
   </g>
   <g id="line2d_16">
    <path d="M 65.267146 240.685601 
L 62.026422 239.864501 
L 62.026422 239.864501 
" clip-path="url(#pc93b818214)" style="fill: none; stroke: #008000; stroke-width: 0.75; stroke-linecap: square"/>
   </g>
   <g id="line2d_17">
    <path d="M 65.267146 240.685601 
L 62.026422 239.864501 
L 62.026422 239.864501 
" clip-path="url(#pc93b818214)" style="fill: none; stroke: #008000; stroke-width: 0.75; stroke-linecap: square"/>
   </g>
   <g id="line2d_18">
    <path d="M 62.026422 239.864501 
L 49.260584 236.802044 
L 44.648702 235.751802 
L 44.648702 235.751802 
" clip-path="url(#pc93b818214)" style="fill: none; stroke: #008000; stroke-width: 0.75; stroke-linecap: square"/>
   </g>
   <g id="line2d_19">
    <path d="M 120.542178 182.58937 
L 112.032805 199.910589 
L 103.605251 217.571715 
L 102.488397 219.951167 
L 102.488397 219.951167 
" clip-path="url(#pc93b818214)" style="fill: none; stroke: #008000; stroke-width: 0.75; stroke-linecap: square"/>
   </g>
   <g id="line2d_20">
    <path d="M 120.542178 182.58937 
L 108.02108 178.65774 
L 96.634155 175.284342 
L 96.634155 175.284342 
" clip-path="url(#pc93b818214)" style="fill: none; stroke: #008000; stroke-width: 0.75; stroke-linecap: square"/>
   </g>
   <g id="line2d_21">
    <path d="M 71.361996 120.018741 
L 70.03676 115.558233 
L 70.03676 115.558233 
" clip-path="url(#pc93b818214)" style="fill: none; stroke: #008000; stroke-width: 0.75; stroke-linecap: square"/>
   </g>
   <g id="line2d_22">
    <path d="M 71.361996 120.018741 
L 83.500582 125.132187 
L 95.621744 130.479313 
L 102.808293 133.764609 
L 102.808293 133.764609 
" clip-path="url(#pc93b818214)" style="fill: none; stroke: #008000; stroke-width: 0.75; stroke-linecap: square"/>
   </g>
   <g id="line2d_23">
    <path d="M 71.361996 120.018741 
L 61.089081 131.698131 
L 50.879542 143.641557 
L 44.618154 151.136327 
L 44.618154 151.136327 
" clip-path="url(#pc93b818214)" style="fill: none; stroke: #008000; stroke-width: 0.75; stroke-linecap: square"/>
   </g>
   <g id="line2d_24">
    <path d="M 70.03676 115.558233 
L 74.205253 78.555623 
L 74.205253 78.555623 
" clip-path="url(#pc93b818214)" style="fill: none; stroke: #008000; stroke-width: 0.75; stroke-linecap: square"/>
   </g>
   <g id="line2d_25">
    <path d="M 74.205253 78.555623 
L 81.668216 58.655354 
L 84.311622 51.75655 
L 84.311622 51.75655 
" clip-path="url(#pc93b818214)" style="fill: none; stroke: #008000; stroke-width: 0.75; stroke-linecap: square"/>
   </g>
   <g id="line2d_26">
    <path d="M 74.205253 78.555623 
L 82.863094 94.704848 
L 91.424939 111.145996 
L 99.944672 127.990736 
L 102.808293 133.764609 
L 102.808293 133.764609 
" clip-path="url(#pc93b818214)" style="fill: none; stroke: #008000; stroke-width: 0.75; stroke-linecap: square"/>
   </g>
   <g id="line2d_27">
    <path d="M 102.808293 133.764609 
L 97.93013 166.367175 
L 96.634155 175.284342 
L 96.634155 175.284342 
" clip-path="url(#pc93b818214)" style="fill: none; stroke: #008000; stroke-width: 0.75; stroke-linecap: square"/>
   </g>
   <g id="line2d_28">
    <path d="M 44.618154 151.136327 
L 34.137043 162.528262 
L 27.28597 170.153822 
L 27.28597 170.153822 
" clip-path="url(#pc93b818214)" style="fill: none; stroke: #008000; stroke-width: 0.75; stroke-linecap: square"/>
   </g>
   <g id="patch_14">
    <path d="M 7.2 273.312 
L 7.2 7.2 
" style="fill: none; stroke: #ffffff; stroke-linejoin: miter; stroke-linecap: square"/>
   </g>
   <g id="patch_15">
    <path d="M 139.432541 273.312 
L 139.432541 7.2 
" style="fill: none; stroke: #ffffff; stroke-linejoin: miter; stroke-linecap: square"/>
   </g>
   <g id="patch_16">
    <path d="M 7.2 273.312 
L 139.432541 273.312 
" style="fill: none; stroke: #ffffff; stroke-linejoin: miter; stroke-linecap: square"/>
   </g>
   <g id="patch_17">
    <path d="M 7.2 7.2 
L 139.432541 7.2 
" style="fill: none; stroke: #ffffff; stroke-linejoin: miter; stroke-linecap: square"/>
   </g>
   <g id="PathCollection_1">
    <defs>
     <path id="m8f1e6bfec3" d="M 0 1.118034 
C 0.296506 1.118034 0.580908 1.000231 0.790569 0.790569 
C 1.000231 0.580908 1.118034 0.296506 1.118034 0 
C 1.118034 -0.296506 1.000231 -0.580908 0.790569 -0.790569 
C 0.580908 -1.000231 0.296506 -1.118034 0 -1.118034 
C -0.296506 -1.118034 -0.580908 -1.000231 -0.790569 -0.790569 
C -1.000231 -0.580908 -1.118034 -0.296506 -1.118034 0 
C -1.118034 0.296506 -1.000231 0.580908 -0.790569 0.790569 
C -0.580908 1.000231 -0.296506 1.118034 0 1.118034 
z
" style="stroke: #ff0000"/>
    </defs>
    <g clip-path="url(#pc93b818214)">
     <use xlink:href="#m8f1e6bfec3" x="85.455744" y="224.477895" style="fill: #ff0000; stroke: #ff0000"/>
    </g>
   </g>
   <g id="PathCollection_2">
    <g clip-path="url(#pc93b818214)">
     <use xlink:href="#m8f1e6bfec3" x="73.574156" y="221.746836" style="fill: #ff0000; stroke: #ff0000"/>
    </g>
   </g>
   <g id="PathCollection_3">
    <g clip-path="url(#pc93b818214)">
     <use xlink:href="#m8f1e6bfec3" x="92.003209" y="204.908987" style="fill: #ff0000; stroke: #ff0000"/>
    </g>
   </g>
   <g id="PathCollection_4">
    <g clip-path="url(#pc93b818214)">
     <use xlink:href="#m8f1e6bfec3" x="74.395864" y="191.649551" style="fill: #ff0000; stroke: #ff0000"/>
    </g>
   </g>
   <g id="PathCollection_5">
    <g clip-path="url(#pc93b818214)">
     <use xlink:href="#m8f1e6bfec3" x="41.216337" y="177.60026" style="fill: #ff0000; stroke: #ff0000"/>
    </g>
   </g>
   <g id="PathCollection_6">
    <g clip-path="url(#pc93b818214)">
     <use xlink:href="#m8f1e6bfec3" x="29.20306" y="209.843851" style="fill: #ff0000; stroke: #ff0000"/>
    </g>
   </g>
   <g id="PathCollection_7">
    <g clip-path="url(#pc93b818214)">
     <use xlink:href="#m8f1e6bfec3" x="52.128855" y="209.465588" style="fill: #ff0000; stroke: #ff0000"/>
    </g>
   </g>
   <g id="PathCollection_8">
    <g clip-path="url(#pc93b818214)">
     <use xlink:href="#m8f1e6bfec3" x="59.877075" y="221.433306" style="fill: #ff0000; stroke: #ff0000"/>
    </g>
   </g>
   <g id="PathCollection_9">
    <g clip-path="url(#pc93b818214)">
     <use xlink:href="#m8f1e6bfec3" x="26.090363" y="218.329149" style="fill: #ff0000; stroke: #ff0000"/>
    </g>
   </g>
   <g id="PathCollection_10">
    <g clip-path="url(#pc93b818214)">
     <use xlink:href="#m8f1e6bfec3" x="34.756169" y="234.172393" style="fill: #ff0000; stroke: #ff0000"/>
    </g>
   </g>
   <g id="PathCollection_11">
    <g clip-path="url(#pc93b818214)">
     <use xlink:href="#m8f1e6bfec3" x="87.934712" y="233.819906" style="fill: #ff0000; stroke: #ff0000"/>
    </g>
   </g>
   <g id="PathCollection_12">
    <g clip-path="url(#pc93b818214)">
     <use xlink:href="#m8f1e6bfec3" x="65.267146" y="240.685601" style="fill: #ff0000; stroke: #ff0000"/>
    </g>
   </g>
   <g id="PathCollection_13">
    <g clip-path="url(#pc93b818214)">
     <use xlink:href="#m8f1e6bfec3" x="62.026422" y="239.864501" style="fill: #ff0000; stroke: #ff0000"/>
    </g>
   </g>
   <g id="PathCollection_14">
    <g clip-path="url(#pc93b818214)">
     <use xlink:href="#m8f1e6bfec3" x="44.648702" y="235.751802" style="fill: #ff0000; stroke: #ff0000"/>
    </g>
   </g>
   <g id="PathCollection_15">
    <g clip-path="url(#pc93b818214)">
     <use xlink:href="#m8f1e6bfec3" x="120.542178" y="182.58937" style="fill: #ff0000; stroke: #ff0000"/>
    </g>
   </g>
   <g id="PathCollection_16">
    <g clip-path="url(#pc93b818214)">
     <use xlink:href="#m8f1e6bfec3" x="102.488397" y="219.951167" style="fill: #ff0000; stroke: #ff0000"/>
    </g>
   </g>
   <g id="PathCollection_17">
    <g clip-path="url(#pc93b818214)">
     <use xlink:href="#m8f1e6bfec3" x="71.361996" y="120.018741" style="fill: #ff0000; stroke: #ff0000"/>
    </g>
   </g>
   <g id="PathCollection_18">
    <g clip-path="url(#pc93b818214)">
     <use xlink:href="#m8f1e6bfec3" x="70.03676" y="115.558233" style="fill: #ff0000; stroke: #ff0000"/>
    </g>
   </g>
   <g id="PathCollection_19">
    <g clip-path="url(#pc93b818214)">
     <use xlink:href="#m8f1e6bfec3" x="74.205253" y="78.555623" style="fill: #ff0000; stroke: #ff0000"/>
    </g>
   </g>
   <g id="PathCollection_20">
    <g clip-path="url(#pc93b818214)">
     <use xlink:href="#m8f1e6bfec3" x="84.311622" y="51.75655" style="fill: #ff0000; stroke: #ff0000"/>
    </g>
   </g>
   <g id="PathCollection_21">
    <g clip-path="url(#pc93b818214)">
     <use xlink:href="#m8f1e6bfec3" x="102.808293" y="133.764609" style="fill: #ff0000; stroke: #ff0000"/>
    </g>
   </g>
   <g id="PathCollection_22">
    <g clip-path="url(#pc93b818214)">
     <use xlink:href="#m8f1e6bfec3" x="44.618154" y="151.136327" style="fill: #ff0000; stroke: #ff0000"/>
    </g>
   </g>
   <g id="PathCollection_23">
    <g clip-path="url(#pc93b818214)">
     <use xlink:href="#m8f1e6bfec3" x="27.28597" y="170.153822" style="fill: #ff0000; stroke: #ff0000"/>
    </g>
   </g>
   <g id="PathCollection_24">
    <g clip-path="url(#pc93b818214)">
     <use xlink:href="#m8f1e6bfec3" x="96.634155" y="175.284342" style="fill: #ff0000; stroke: #ff0000"/>
    </g>
   </g>
  </g>
 </g>
 <defs>
  <clipPath id="pc93b818214">
   <rect x="7.2" y="7.2" width="132.232541" height="266.112"/>
  </clipPath>
 </defs>
</svg>
