<?xml version="1.0" encoding="utf-8" standalone="no"?>
<!DOCTYPE svg PUBLIC "-//W3C//DTD SVG 1.1//EN"
  "http://www.w3.org/Graphics/SVG/1.1/DTD/svg11.dtd">
<svg xmlns:xlink="http://www.w3.org/1999/xlink" width="193.757212pt" height="280.512pt" viewBox="0 0 193.757212 280.512" xmlns="http://www.w3.org/2000/svg" version="1.1">
 <metadata>
  <rdf:RDF xmlns:dc="http://purl.org/dc/elements/1.1/" xmlns:cc="http://creativecommons.org/ns#" xmlns:rdf="http://www.w3.org/1999/02/22-rdf-syntax-ns#">
   <cc:Work>
    <dc:type rdf:resource="http://purl.org/dc/dcmitype/StillImage"/>
    <dc:date>2025-12-17T16:18:25.341109</dc:date>
    <dc:format>image/svg+xml</dc:format>
    <dc:creator>
     <cc:Agent>
      <dc:title>Matplotlib v3.10.6, https://matplotlib.org/</dc:title>
     </cc:Agent>
    </dc:creator>
   </cc:Work>
  </rdf:RDF>
 </metadata>
 <defs>
  <style type="text/css">*{stroke-linejoin: round; stroke-linecap: butt}</style>
 </defs>
 <g id="figure_1">
  <g id="patch_1">
   <path d="M 0 280.512 
L 193.757212 280.512 
L 193.757212 0 
L 0 0 
z
" style="fill: #ffffff"/>
  </g>
  <g id="axes_1">
   <g id="patch_2">
    <path d="M 7.2 273.312 
L 186.557212 273.312 
L 186.557212 7.2 
L 7.2 7.2 
z
" clip-path="url(#p6628cb7bf3)" style="fill: #add8e6; stroke: #ffffff; stroke-linejoin: miter"/>
   </g>
   <g id="patch_3">
    <path d="M 7.2 273.312 
L 186.557212 273.312 
L 186.557212 7.2 
L 7.2 7.2 
z
" clip-path="url(#p6628cb7bf3)" style="fill: #add8e6; stroke: #ffffff; stroke-linejoin: miter"/>
   </g>
   <g id="patch_4">
    <path d="M 7.2 134.620397 
L 9.594849 134.150672 
L 7.2 133.344023 
L 7.2 116.707499 
L 9.012211 113.518265 
L 11.053861 99.960519 
L 13.41314 102.033232 
L 16.105936 100.698081 
L 17.62011 105.720218 
L 20.341123 106.17967 
L 18.882111 109.054969 
L 15.841689 109.249327 
L 16.147625 113.746951 
L 17.842285 113.860012 
L 14.343785 115.976342 
L 19.716032 117.990025 
L 17.480806 116.045486 
L 23.158098 111.316703 
L 29.559495 110.505952 
L 25.284398 108.379134 
L 27.366466 103.424549 
L 21.450856 102.344565 
L 21.062684 96.947757 
L 22.840088 93.013675 
L 30.12917 88.028938 
L 35.140445 89.692558 
L 37.097062 89.704263 
L 35.195987 87.831957 
L 45.70547 86.119195 
L 50.405216 91.905544 
L 54.398909 90.171394 
L 55.953374 92.872935 
L 54.454961 90.101819 
L 48.977221 89.377049 
L 50.365433 82.723484 
L 53.599816 80.023217 
L 64.754212 78.996739 
L 68.376385 83.959134 
L 66.62796 86.01415 
L 68.890513 87.843475 
L 70.679995 86.294039 
L 70.029354 81.984125 
L 74.679278 83.982675 
L 73.899883 88.787962 
L 75.04025 83.983518 
L 73.485274 79.606595 
L 76.609458 74.023613 
L 78.747452 75.718828 
L 86.513043 75.537036 
L 91.144404 81.925 
L 95.892448 84.240372 
L 91.393906 81.715866 
L 85.327425 73.293037 
L 80.593871 72.857631 
L 79.399488 70.167832 
L 82.215827 70.249617 
L 82.396823 68.463104 
L 78.927938 65.927436 
L 81.481936 62.008636 
L 75.039739 62.45983 
L 76.108294 59.708791 
L 82.368605 57.165538 
L 78.926538 57.644187 
L 81.676275 55.874735 
L 74.290088 53.143341 
L 77.261494 51.392374 
L 75.650597 45.781037 
L 71.139087 45.819036 
L 70.069137 49.516547 
L 72.13824 40.786936 
L 71.73558 45.371551 
L 76.17769 45.371551 
L 76.760709 32.652105 
L 70.584286 25.073362 
L 70.694354 28.751902 
L 66.682107 25.995151 
L 68.45913 19.66764 
L 67.896641 7.200009 
L 103.036675 7.200009 
L 102.862252 7.360545 
L 102.084257 17.719467 
L 96.447254 17.320337 
L 99.668167 18.164405 
L 99.308085 21.964863 
L 91.449959 21.616599 
L 96.474578 24.103555 
L 94.434329 27.183419 
L 90.394378 27.956377 
L 93.727135 28.862865 
L 92.032978 29.987945 
L 93.33794 34.018157 
L 91.560538 35.065105 
L 94.087591 35.115501 
L 89.201259 41.526726 
L 92.158427 41.199812 
L 95.224657 44.841195 
L 94.572616 47.02562 
L 92.490679 44.22499 
L 89.144832 47.327084 
L 92.406919 45.842896 
L 96.154414 49.314342 
L 98.111923 48.652441 
L 99.279862 55.274842 
L 96.195972 57.738669 
L 101.515087 57.440314 
L 101.181449 61.923649 
L 104.207891 58.537958 
L 110.539504 62.303639 
L 117.660049 59.910509 
L 117.022887 65.405658 
L 111.385884 69.456096 
L 113.591875 72.185973 
L 118.452783 70.532615 
L 123.14427 73.859463 
L 125.657089 68.084219 
L 123.991671 69.220274 
L 126.726538 66.626325 
L 133.528306 65.8208 
L 134.62507 68.367742 
L 133.654139 65.879212 
L 140.749383 57.249121 
L 148.175352 58.599142 
L 139.359265 60.257107 
L 139.109762 63.992504 
L 141.519756 60.364699 
L 143.966738 59.91772 
L 145.551963 61.20931 
L 149.133707 58.514792 
L 150.591957 63.077626 
L 156.435248 68.499511 
L 160.808847 66.354546 
L 161.226761 70.260667 
L 164.030135 73.187935 
L 162.418859 75.496096 
L 169.735148 77.927262 
L 169.291427 79.594141 
L 170.929522 78.49146 
L 175.281517 82.27525 
L 174.44112 79.371279 
L 178.133444 73.117125 
L 177.621609 70.296156 
L 186.557209 67.869148 
L 186.557209 273.312 
L 7.2 273.312 
z
" clip-path="url(#p6628cb7bf3)" style="fill: #d3d3d3"/>
   </g>
   <g id="patch_5">
    <path d="M 108.825103 7.200009 
L 107.901235 9.864956 
L 107.455997 7.746246 
L 105.11171 7.908337 
L 105.348244 7.200009 
z
" clip-path="url(#p6628cb7bf3)" style="fill: #d3d3d3"/>
   </g>
   <g id="patch_6">
    <path d="M 186.557209 7.597734 
L 176.899273 7.946691 
L 178.024653 12.637251 
L 174.456758 11.109089 
L 169.194192 17.122645 
L 168.916607 21.814647 
L 171.500218 26.19067 
L 168.708783 31.198312 
L 163.65493 29.707288 
L 154.8804 32.543052 
L 145.649573 31.308151 
L 148.343389 29.523136 
L 147.066135 25.822535 
L 149.925056 22.601107 
L 141.38911 7.200009 
L 186.557209 7.200009 
z
" clip-path="url(#p6628cb7bf3)" style="fill: #d3d3d3"/>
   </g>
   <g id="patch_7">
    <path d="M 130.779458 42.386357 
L 130.294939 44.623595 
L 134.90317 47.180107 
L 131.737935 51.078325 
L 131.641589 55.144214 
L 127.213464 44.381181 
L 130.239907 42.398324 
L 125.684423 39.976298 
L 129.169952 41.103531 
L 127.378186 39.00488 
L 128.962269 38.033519 
L 127.448987 36.294462 
L 119.770209 36.476216 
L 116.966835 32.211811 
L 119.049792 30.722323 
L 116.745162 27.2685 
L 117.884007 24.887562 
L 114.274414 22.774209 
L 117.161174 22.576311 
L 113.218824 20.483578 
L 119.868839 20.914339 
L 121.354798 17.593166 
L 123.852747 17.296553 
L 124.130464 14.968241 
L 120.063685 12.574287 
L 126.087083 14.734516 
L 128.448009 13.568122 
L 126.657648 15.5383 
L 127.655781 18.43272 
L 125.685818 19.346718 
L 128.322691 20.507288 
L 126.323111 21.22084 
L 129.379162 22.331051 
L 131.168643 14.882467 
L 132.979606 19.958428 
L 130.932615 23.2172 
L 131.93838 21.992375 
L 133.501993 23.278684 
L 132.432938 14.100726 
L 129.488851 13.877264 
L 137.277703 9.043305 
L 142.511156 11.766159 
L 140.761331 15.240938 
L 141.289824 23.512277 
L 142.387103 21.922913 
L 143.48425 25.134078 
L 140.998764 25.639114 
L 141.19272 23.573087 
L 136.262789 26.410855 
L 135.431663 29.37704 
L 139.734975 34.115692 
L 132.544022 37.789943 
L 135.236817 39.127098 
L 134.945748 42.555639 
z
" clip-path="url(#p6628cb7bf3)" style="fill: #d3d3d3"/>
   </g>
   <g id="patch_8">
    <path d="M 98.794462 26.573488 
L 98.849494 26.54901 
L 104.097312 24.141142 
L 108.166376 27.198233 
L 106.638345 26.87939 
L 106.652195 29.537014 
L 109.192348 28.030858 
L 109.138196 24.102656 
L 111.303903 28.300484 
L 107.804 29.403034 
L 110.20624 29.463525 
L 113.079647 33.774189 
L 111.246577 33.654068 
L 111.219758 40.386795 
L 100.043493 40.158146 
L 101.696467 38.617231 
L 98.794462 36.540135 
L 98.418742 38.494956 
L 94.086701 28.569829 
L 95.725816 29.084116 
L 93.908252 27.572866 
z
" clip-path="url(#p6628cb7bf3)" style="fill: #d3d3d3"/>
   </g>
   <g id="patch_9">
    <path d="M 115.424946 47.506235 
L 115.454058 47.530282 
L 117.576794 47.228219 
L 115.7183 45.468131 
L 118.369538 43.499096 
L 125.753819 47.819479 
L 126.393396 45.190527 
L 129.795175 51.487362 
L 124.810334 52.24367 
L 123.893546 54.114253 
L 115.565143 49.263907 
z
" clip-path="url(#p6628cb7bf3)" style="fill: #d3d3d3"/>
   </g>
   <g id="patch_10">
    <path d="M 9.63781 134.156618 
L 11.960992 131.928847 
L 10.813255 133.41708 
L 12.636542 134.193952 
L 9.730468 134.134257 
z
" clip-path="url(#p6628cb7bf3)" style="fill: #add8e6"/>
   </g>
   <g id="matplotlib.axis_1"/>
   <g id="matplotlib.axis_2"/>
   <g id="LineCollection_1">
    <path d="M 7.2 134.620399 
L 9.594849 134.150669 
L 7.2 133.344022 
" clip-path="url(#p6628cb7bf3)" style="fill: none; stroke: #000000; stroke-width: 0.6"/>
    <path d="M 7.2 116.707501 
L 9.012211 113.518271 
L 11.053861 99.960524 
L 13.41314 102.03323 
L 16.105936 100.698085 
L 17.62011 105.720216 
L 20.341123 106.179663 
L 18.882112 109.054976 
L 15.84169 109.249323 
L 16.147626 113.746947 
L 17.842285 113.860017 
L 14.343785 115.976351 
L 19.716032 117.990022 
L 17.480805 116.045485 
L 23.158098 111.316707 
L 29.559495 110.505953 
L 25.284398 108.379125 
L 27.366467 103.424545 
L 21.450856 102.344563 
L 21.062684 96.947753 
L 22.840088 93.013677 
L 30.129169 88.028935 
L 35.140445 89.692553 
L 37.097063 89.70426 
L 35.195989 87.831959 
L 45.70547 86.119191 
L 50.405217 91.90554 
L 54.398908 90.171397 
L 55.953374 92.872934 
L 54.454961 90.101817 
L 48.977219 89.377049 
L 50.365433 82.723485 
L 53.599814 80.02321 
L 64.754214 78.996748 
L 68.376385 83.959139 
L 66.627961 86.014143 
L 68.890515 87.843471 
L 70.679993 86.294037 
L 70.029354 81.984131 
L 74.679277 83.982667 
L 73.899884 88.78797 
L 75.040249 83.983523 
L 73.485275 79.606592 
L 76.609458 74.02361 
L 78.747451 75.718828 
L 86.513041 75.537029 
L 91.144406 81.924997 
L 95.892452 84.240374 
L 91.393909 81.715861 
L 85.327427 73.293044 
L 80.593871 72.85764 
L 79.399488 70.16783 
L 82.215828 70.249626 
L 82.396822 68.463099 
L 78.927937 65.927431 
L 81.481937 62.008632 
L 75.03974 62.459826 
L 76.108292 59.708795 
L 82.368605 57.165531 
L 78.926539 57.64418 
L 81.676277 55.874743 
L 74.290089 53.143335 
L 77.261494 51.392367 
L 75.650595 45.78104 
L 71.139088 45.819042 
L 70.069138 49.516548 
L 72.138241 40.786936 
L 71.73558 45.371556 
L 76.17769 45.371556 
L 76.76071 32.652101 
L 70.584285 25.073358 
L 70.694355 28.751896 
L 66.682107 25.995156 
L 68.459129 19.667645 
L 67.896643 7.2 
" clip-path="url(#p6628cb7bf3)" style="fill: none; stroke: #000000; stroke-width: 0.6"/>
    <path d="M 111.3647 7.2 
L 110.677411 8.694308 
L 109.829379 7.2 
" clip-path="url(#p6628cb7bf3)" style="fill: none; stroke: #000000; stroke-width: 0.6"/>
    <path d="M 108.825099 7.2 
L 107.901236 9.864962 
L 107.455995 7.746241 
L 105.111714 7.90834 
L 105.348245 7.2 
" clip-path="url(#p6628cb7bf3)" style="fill: none; stroke: #000000; stroke-width: 0.6"/>
    <path d="M 103.036671 7.2 
L 102.862252 7.360537 
L 102.084257 17.71947 
L 96.447255 17.320338 
L 99.668163 18.164398 
L 99.308081 21.964859 
L 91.449961 21.616598 
L 96.474582 24.103553 
L 94.434331 27.183418 
L 90.394374 27.956368 
L 93.727132 28.862872 
L 92.032981 29.987952 
L 93.337943 34.018154 
L 91.56054 35.06511 
L 94.087595 35.115504 
L 89.201261 41.526718 
L 92.158431 41.199808 
L 95.224655 44.841201 
L 94.572618 47.025625 
L 92.490677 44.224988 
L 89.144828 47.327076 
L 92.406917 45.842903 
L 96.154411 49.314351 
L 98.111918 48.652448 
L 99.279864 55.274839 
L 96.195973 57.738662 
L 101.515091 57.440319 
L 101.181447 61.923646 
L 104.207888 58.537952 
L 110.539505 62.303638 
L 117.660049 59.910516 
L 117.022883 65.405649 
L 111.385882 69.456092 
L 113.591875 72.185978 
L 118.452788 70.532623 
L 123.144273 73.859456 
L 125.657092 68.084224 
L 123.991666 69.220267 
L 126.726534 66.626326 
L 133.528304 65.820791 
L 134.625072 68.367741 
L 133.654135 65.879216 
L 140.749386 57.249112 
L 148.175357 58.599144 
L 139.359264 60.257116 
L 139.109762 63.992506 
L 141.519755 60.364699 
L 143.966735 59.91772 
L 145.551959 61.209304 
L 149.133711 58.514786 
L 150.591959 63.077623 
L 156.435248 68.499506 
L 160.80885 66.354547 
L 161.226763 70.260661 
L 164.030139 73.187932 
L 162.418859 75.496099 
L 169.735141 77.92726 
L 169.291425 79.594141 
L 170.929524 78.491456 
L 175.281518 82.275258 
L 174.441116 79.371281 
L 178.133447 73.117132 
L 177.621605 70.296148 
L 186.557212 67.869141 
" clip-path="url(#p6628cb7bf3)" style="fill: none; stroke: #000000; stroke-width: 0.6"/>
    <path d="M 186.557212 7.597726 
L 176.899281 7.946692 
L 178.024647 12.637258 
L 174.456749 11.109099 
L 169.194192 17.122645 
L 168.9166 21.814651 
L 171.500215 26.190663 
L 168.708787 31.198304 
L 163.654932 29.707288 
L 154.880402 32.543051 
L 145.649573 31.308152 
L 148.343387 29.523129 
L 147.066132 25.822544 
L 149.925052 22.601113 
L 141.38911 7.2 
" clip-path="url(#p6628cb7bf3)" style="fill: none; stroke: #000000; stroke-width: 0.6"/>
    <path d="M 130.779455 42.386359 
L 130.29494 44.623595 
L 134.903173 47.180111 
L 131.737936 51.078327 
L 131.641592 55.144214 
L 127.213464 44.381174 
L 130.239905 42.398325 
L 125.684419 39.976297 
L 129.169955 41.103536 
L 127.378189 39.004873 
L 128.962269 38.033527 
L 127.448985 36.294463 
L 119.770207 36.476215 
L 116.966831 32.211817 
L 119.049789 30.722328 
L 116.745164 27.268503 
L 117.884004 24.88756 
L 114.274416 22.774207 
L 117.161171 22.576318 
L 113.218829 20.483571 
L 119.868838 20.914342 
L 121.354795 17.593157 
L 123.852743 17.296562 
L 124.130462 14.968244 
L 120.063687 12.574279 
L 126.08708 14.734518 
L 128.448012 13.568128 
L 126.657644 15.538291 
L 127.655781 18.43272 
L 125.685817 19.346718 
L 128.322688 20.507281 
L 126.32311 21.220842 
L 129.379166 22.331052 
L 131.168644 14.882474 
L 132.979602 19.958435 
L 130.932614 23.217192 
L 131.938377 21.992373 
L 133.501994 23.278691 
L 132.432933 14.100722 
L 129.488855 13.877267 
L 137.277704 9.043303 
L 142.511155 11.766158 
L 140.761333 15.24094 
L 141.289826 23.51227 
L 142.387103 21.922911 
L 143.484253 25.134084 
L 140.998761 25.639114 
L 141.19272 23.573079 
L 136.26279 26.41085 
L 135.431666 29.377035 
L 139.73498 34.115684 
L 132.544021 37.789952 
L 135.236817 39.127095 
L 134.945752 42.555642 
L 130.779455 42.386359 
" clip-path="url(#p6628cb7bf3)" style="fill: none; stroke: #000000; stroke-width: 0.6"/>
    <path d="M 98.794459 26.573491 
L 98.849495 26.549006 
L 104.097308 24.141145 
L 108.166372 27.198235 
L 106.638344 26.879393 
L 106.652198 29.53702 
L 109.192344 28.030853 
L 109.138199 24.102652 
L 111.3039 28.300484 
L 107.804002 29.403029 
L 110.206242 29.463529 
L 113.079651 33.774182 
L 111.246577 33.654075 
L 111.219758 40.386792 
L 100.043497 40.158141 
L 101.696467 38.617233 
L 98.794459 36.540133 
L 98.418744 38.494957 
L 94.086705 28.569827 
L 95.725821 29.08412 
L 93.908253 27.572875 
L 98.794459 26.573491 
" clip-path="url(#p6628cb7bf3)" style="fill: none; stroke: #000000; stroke-width: 0.6"/>
    <path d="M 115.424949 47.506232 
L 115.454055 47.530279 
L 117.576797 47.228219 
L 115.718302 45.468139 
L 118.369536 43.499094 
L 125.753817 47.819469 
L 126.393398 45.190524 
L 129.795172 51.487355 
L 124.810334 52.243679 
L 123.893543 54.114257 
L 115.565143 49.263906 
L 115.424949 47.506232 
" clip-path="url(#p6628cb7bf3)" style="fill: none; stroke: #000000; stroke-width: 0.6"/>
    <path d="M 9.63781 134.156618 
L 11.960992 131.928846 
L 10.813255 133.417081 
L 12.636543 134.193952 
L 9.730468 134.134257 
L 9.63781 134.156618 
" clip-path="url(#p6628cb7bf3)" style="fill: none; stroke: #000000; stroke-width: 0.6"/>
   </g>
   <g id="LineCollection_2">
    <path d="M 133.673201 170.978538 
L 137.555805 175.009054 
L 140.753453 169.121557 
L 141.751717 169.039612 
L 142.749854 168.957661 
L 143.748118 168.875704 
L 144.746382 168.793742 
L 145.744519 168.711575 
L 146.742783 168.629802 
L 147.74092 168.547624 
L 148.532642 168.482596 
L 149.40266 167.710377 
L 150.272805 166.937276 
L 151.142949 166.163892 
L 152.012967 165.390024 
L 152.883111 164.615672 
L 153.753129 163.840834 
L 154.623273 163.065309 
L 155.103848 162.636879 
L 156.55231 163.67984 
L 158.033183 160.88434 
L 159.03132 160.800441 
L 160.029584 160.716537 
L 161.027721 160.632827 
L 162.025858 160.549112 
L 163.023995 160.465191 
L 163.081954 160.460372 
L 163.896427 158.711973 
L 164.874228 158.383596 
L 165.852028 158.05513 
L 166.829829 157.726376 
L 167.807629 157.397735 
L 168.785303 157.069007 
L 169.763103 156.739989 
L 170.740904 156.411287 
L 171.718704 156.082093 
L 171.939355 156.007942 
L 169.699552 153.50352 
L 170.52788 151.781999 
L 173.855173 151.899875 
L 175.747985 156.946592 
L 178.20526 157.987133 
L 182.180395 156.690045 
L 182.457987 152.436946 
L 184.970806 152.679835 
L 185.624495 153.881447 
L 186.278057 155.081884 
L 186.557212 155.594169 
" clip-path="url(#p6628cb7bf3)" style="fill: none; stroke: #ffffff; stroke-width: 0.6"/>
    <path d="M 160.786734 266.320632 
L 161.772669 266.558925 
L 162.758732 266.797176 
L 163.744794 267.035383 
L 164.730856 267.273547 
L 165.716791 267.511668 
L 166.702853 267.749747 
L 167.688915 267.987782 
L 168.674978 268.225774 
L 169.66104 268.463723 
L 170.647102 268.701629 
L 171.633037 268.939492 
L 172.619099 269.177312 
L 173.605162 269.415089 
L 174.591224 269.652824 
L 174.924233 269.73298 
L 175.719006 268.85394 
L 176.513778 267.974128 
L 177.308551 267.094097 
L 178.103324 266.213108 
L 178.898097 265.331714 
L 179.692996 264.449727 
L 179.936017 264.179964 
L 180.935552 264.177374 
L 181.935087 264.174783 
L 182.934622 264.172193 
L 183.934284 264.169602 
L 184.933819 264.167012 
L 185.933354 264.164421 
L 186.557212 264.162804 
" clip-path="url(#p6628cb7bf3)" style="fill: none; stroke: #ffffff; stroke-width: 0.6"/>
    <path d="M 58.626342 240.459907 
L 57.325955 237.533688 
L 59.204786 230.84629 
L 58.45971 227.184529 
L 58.89402 225.835257 
L 59.32833 224.484563 
L 59.762766 223.132251 
L 60.197076 221.778889 
L 60.631386 220.423709 
L 61.065696 219.067473 
L 61.500005 217.70941 
L 61.934442 216.35009 
L 62.368752 214.989317 
L 62.657021 214.085366 
L 63.432855 213.131107 
L 64.208562 212.176131 
L 64.984397 211.220437 
L 65.760231 210.264022 
L 66.536066 209.306886 
L 67.3119 208.349027 
L 68.087608 207.390444 
L 68.863442 206.431134 
L 69.269916 205.928072 
L 68.280041 205.71742 
L 67.290039 205.506345 
L 66.300163 205.295622 
L 65.310161 205.084476 
L 64.320286 204.873683 
L 63.330283 204.662467 
L 62.340408 204.45141 
L 61.350405 204.240317 
L 60.360403 204.02919 
L 59.672142 203.882407 
L 55.951467 200.531435 
L 53.609982 202.200848 
L 49.546893 202.186868 
L 47.658783 199.405394 
L 44.33149 200.800494 
L 43.740717 199.566708 
L 43.149944 198.331713 
L 42.559298 197.095506 
L 41.968525 195.858085 
L 41.377752 194.619444 
L 41.161551 194.165583 
L 38.190527 193.29022 
L 38.612253 191.895181 
L 39.03398 190.498395 
L 39.455706 189.100247 
L 39.877433 187.700537 
L 40.299159 186.29926 
L 40.720886 184.896412 
L 40.89311 184.323015 
L 36.367239 182.428461 
L 34.034906 177.852494 
L 35.04372 173.331974 
L 38.792103 170.964005 
L 38.394145 167.901581 
L 35.23806 165.675958 
L 36.668091 163.169488 
L 32.63271 160.679601 
L 33.493449 155.406104 
L 29.89314 152.025017 
L 30.829759 151.469765 
L 31.766378 150.913857 
L 32.702998 150.358102 
L 33.639617 149.801893 
L 34.576236 149.245431 
L 34.9836 149.003483 
L 33.428627 146.802681 
L 35.867472 143.494243 
L 35.355757 142.118141 
L 34.844041 140.740487 
L 34.332453 139.361276 
L 33.820738 137.980502 
L 33.309023 136.598163 
L 32.797308 135.214457 
L 32.28572 133.82897 
L 31.774004 132.441903 
L 31.295336 131.143122 
L 34.937335 130.813632 
L 34.742995 128.969762 
L 38.880058 131.060655 
L 39.854681 130.70152 
L 40.829304 130.342072 
L 41.803927 129.982724 
L 42.77855 129.62327 
L 43.753173 129.263709 
L 44.590652 128.954723 
L 45.98357 127.025487 
L 43.683521 124.611527 
L 44.586585 123.914141 
L 45.489649 123.216354 
L 46.392714 122.518163 
L 47.295651 121.819569 
L 48.198715 121.120571 
L 49.101779 120.421169 
L 49.699543 119.957996 
L 48.662894 113.912585 
L 44.826682 113.897149 
L 43.63268 111.464496 
L 44.886802 108.660532 
L 49.67641 108.874005 
L 50.086189 107.370717 
L 50.495968 105.865125 
L 50.905747 104.357849 
L 51.315399 102.848676 
L 51.725177 101.337387 
L 52.134956 99.824608 
L 52.411405 98.802844 
L 52.337431 97.14492 
L 52.263457 95.484904 
L 52.189483 93.82215 
L 52.11551 92.157499 
L 52.041536 90.490306 
L 52.031876 90.273738 
L 48.746273 90.018188 
L 47.089617 86.464162 
L 46.13711 85.954783 
L 45.18473 85.444971 
L 44.232223 84.93494 
L 43.279843 84.424904 
L 42.327463 83.914221 
L 41.374956 83.403746 
L 40.422576 82.892837 
L 39.470069 82.381709 
L 38.968013 82.112244 
" clip-path="url(#p6628cb7bf3)" style="fill: none; stroke: #ffffff; stroke-width: 0.6"/>
    <path d="M 67.497204 273.312 
L 67.275422 272.27979 
L 68.145566 271.567878 
L 69.015584 270.855213 
L 69.885728 270.142348 
L 70.755746 269.429096 
L 71.625891 268.715275 
L 72.495908 268.001251 
L 72.643474 267.880025 
L 72.898061 273.123286 
L 73.077083 273.312 
" clip-path="url(#p6628cb7bf3)" style="fill: none; stroke: #ffffff; stroke-width: 0.6"/>
    <path d="M 86.19782 273.312 
L 87.081825 266.892095 
L 89.784408 266.791266 
L 91.172623 271.65031 
L 92.156143 271.39122 
L 93.139536 271.132079 
L 94.122929 270.872887 
L 95.106322 270.61346 
L 96.089715 270.354166 
L 97.073236 270.094638 
L 97.85962 269.887199 
L 100.935838 273.312 
" clip-path="url(#p6628cb7bf3)" style="fill: none; stroke: #ffffff; stroke-width: 0.6"/>
    <path d="M 101.10071 273.312 
L 101.501618 269.041815 
L 99.571946 268.296609 
L 99.632066 266.017807 
L 102.681639 263.593622 
L 103.88492 265.681274 
L 106.643047 265.735244 
L 105.208439 262.507975 
L 106.916063 256.348233 
L 104.745659 254.896937 
L 100.617747 258.481275 
L 96.785984 256.314353 
L 96.721288 254.279386 
L 95.725693 254.149426 
L 94.729971 254.01964 
L 93.734377 253.889468 
L 92.738654 253.759656 
L 91.74306 253.629645 
L 90.747338 253.49962 
L 90.062 253.410069 
L 90.321162 249.559721 
L 93.34773 245.144165 
L 91.57986 241.55711 
" clip-path="url(#p6628cb7bf3)" style="fill: none; stroke: #ffffff; stroke-width: 0.6"/>
    <path d="M 94.314854 241.652377 
L 95.263675 240.212837 
L 98.183604 241.378419 
L 100.428745 246.01283 
L 102.649482 245.478899 
L 101.681596 248.101401 
L 105.921485 245.405126 
L 106.66618 240.301795 
L 107.100871 241.570854 
L 108.100533 241.570854 
L 109.100068 241.570854 
L 110.09973 241.570854 
L 111.099265 241.570854 
L 112.0988 241.570854 
L 113.098335 241.570854 
L 113.496548 241.570854 
L 115.092576 245.040893 
L 119.942176 244.974418 
L 120.825921 244.284312 
L 121.709793 243.593839 
L 122.593537 242.902997 
L 123.477409 242.211974 
L 124.361154 241.520394 
L 125.245025 240.828633 
L 126.084538 240.170994 
L 127.083819 240.137067 
L 128.083227 240.103516 
L 129.082508 240.069586 
L 130.081789 240.036033 
L 131.08107 240.002102 
L 132.080478 239.968548 
L 133.079759 239.934615 
L 134.07904 239.901058 
L 135.078448 239.867124 
L 135.380571 239.856943 
L 136.398535 236.54893 
L 136.325197 237.940446 
L 139.472131 237.65097 
L 140.744937 239.293496 
L 145.098202 238.262136 
L 145.602927 241.269761 
L 149.657882 242.646423 
L 150.106046 238.002374 
L 147.287164 237.012306 
L 148.921449 233.793586 
L 148.241069 232.70208 
L 147.560689 231.609268 
L 146.880308 230.515716 
L 146.199928 229.421232 
L 145.519547 228.325625 
L 144.839167 227.229461 
L 144.746636 227.080189 
L 145.680841 226.547693 
L 146.615172 226.014976 
L 147.549376 225.482037 
L 148.483708 224.948876 
L 149.417912 224.415493 
L 150.352244 223.881888 
L 151.286448 223.34806 
L 152.220779 222.813818 
L 153.154984 222.279544 
L 154.089188 221.745046 
L 155.02352 221.210325 
L 155.353859 221.02113 
L 156.241798 215.933156 
L 160.879773 217.211564 
L 162.679038 210.796995 
L 159.208882 206.210888 
L 156.94976 206.40617 
L 156.093342 205.621375 
L 155.236925 204.835706 
L 154.380507 204.049742 
L 153.52409 203.263289 
L 152.667545 202.476152 
L 151.83693 201.71261 
L 149.221412 197.427866 
L 148.28136 196.906773 
L 147.341309 196.385464 
L 146.401258 195.863939 
L 145.46108 195.342393 
L 144.521029 194.82024 
L 143.580978 194.298261 
L 143.187341 194.079403 
L 142.546236 192.899648 
L 141.90513 191.718784 
L 141.264024 190.536807 
L 140.622919 189.353912 
L 139.981813 188.169702 
L 139.340707 186.984372 
L 138.824162 186.028454 
L 141.179755 181.49333 
L 140.277962 180.82337 
L 139.376169 180.153248 
L 138.474376 179.482765 
L 137.572582 178.811921 
L 136.670789 178.140716 
L 136.458528 177.98236 
L 135.930798 176.6595 
L 135.403195 175.335232 
L 134.875592 174.009353 
L 134.347862 172.682257 
L 133.820259 171.35374 
L 133.66799 170.969977 
" clip-path="url(#p6628cb7bf3)" style="fill: none; stroke: #ffffff; stroke-width: 0.6"/>
    <path d="M 45.379997 273.312 
L 45.641029 269.034994 
L 43.864007 268.081508 
L 42.873623 268.277425 
L 41.883239 268.472945 
L 40.892729 268.668804 
L 39.902345 268.86445 
L 38.911834 269.060066 
L 37.92145 269.255654 
L 37.339066 269.37067 
L 35.913737 271.281901 
L 37.204846 273.123286 
L 36.788024 273.312 
" clip-path="url(#p6628cb7bf3)" style="fill: none; stroke: #ffffff; stroke-width: 0.6"/>
    <path d="M 32.954754 273.312 
L 34.798412 270.135532 
L 33.340799 268.766538 
L 34.321777 264.725354 
L 35.189252 264.002498 
L 36.056728 263.279243 
L 36.924203 262.555405 
L 37.791679 261.831352 
L 38.659154 261.106899 
L 39.526629 260.38186 
L 39.777784 260.171769 
L 39.412237 256.524321 
L 43.864007 253.885551 
L 44.623953 252.932361 
L 45.3839 251.978472 
L 46.143847 251.023885 
L 46.903793 250.068784 
L 47.66374 249.112607 
L 48.423687 248.156101 
L 49.183633 247.198703 
L 49.843042 246.367411 
L 46.835031 246.080377 
L 48.658318 242.626105 
L 52.115255 242.674076 
L 52.929602 244.508252 
L 53.836225 243.885935 
L 54.742848 243.263318 
L 55.649471 242.640403 
L 56.556094 242.017187 
L 57.462717 241.393671 
L 58.369213 240.769855 
L 59.275836 240.145549 
L 59.487081 240.000217 
L 60.005405 241.509285 
L 60.993883 241.289346 
L 61.98236 241.06937 
L 62.970837 240.849355 
L 63.959314 240.629304 
L 64.947791 240.409215 
L 65.936396 240.189089 
L 66.924873 239.969113 
L 67.91335 239.748912 
L 68.788706 239.553942 
L 69.786588 239.641248 
L 70.784344 239.72836 
L 71.782227 239.815843 
L 72.78011 239.902944 
L 73.777865 239.990226 
L 74.775748 240.077503 
L 75.068465 240.103139 
L 75.831971 238.599221 
L 72.250219 237.520089 
L 74.90641 234.966302 
L 75.808965 235.605979 
L 76.711394 236.24534 
L 77.613823 236.884573 
L 78.516378 237.523111 
L 79.418807 238.161711 
L 80.321363 238.799807 
L 80.348563 238.819052 
L 81.347717 238.77207 
L 82.346743 238.725275 
L 83.34577 238.678478 
L 84.344924 238.631301 
L 85.343951 238.584501 
L 86.343104 238.537699 
L 86.494102 238.530528 
L 87.458176 238.922445 
L 88.422376 239.314243 
L 89.38645 239.705734 
L 90.350523 240.097484 
L 91.314597 240.488738 
L 92.27867 240.880062 
L 93.242744 241.271267 
L 94.206817 241.662355 
L 94.268589 241.687394 
" clip-path="url(#p6628cb7bf3)" style="fill: none; stroke: #ffffff; stroke-width: 0.6"/>
    <path d="M 38.190527 193.29022 
L 35.983135 192.050806 
L 31.785825 193.58214 
L 28.282749 190.795864 
L 23.37735 192.107766 
L 20.096323 187.159472 
L 19.1217 186.816323 
L 18.147077 186.47308 
L 17.172454 186.12994 
L 16.197831 185.786705 
L 15.223208 185.443179 
L 14.248458 185.099559 
L 13.273835 184.756041 
L 13.164146 184.717254 
L 13.090045 183.172276 
L 13.015944 181.625187 
L 12.941843 180.076177 
L 12.867742 178.525437 
L 12.793514 176.972566 
L 12.719413 175.417755 
L 12.701365 175.038025 
L 11.875579 175.91714 
L 11.04992 176.795634 
L 10.224135 177.673509 
L 9.398476 178.550764 
L 8.57269 179.427403 
L 7.747031 180.303425 
L 7.342591 180.732514 
L 7.2 180.712313 
" clip-path="url(#p6628cb7bf3)" style="fill: none; stroke: #ffffff; stroke-width: 0.6"/>
    <path d="M 155.543531 273.312 
L 155.154817 271.884699 
L 155.980094 271.068206 
L 156.805244 270.251208 
L 157.630522 269.43352 
L 158.455799 268.615324 
L 159.281076 267.796619 
L 160.106227 266.977589 
L 160.754323 266.333933 
L 159.762795 266.149181 
L 158.771395 265.964589 
L 157.779867 265.779785 
L 156.788467 265.594956 
L 155.796939 265.4101 
L 154.805539 265.225404 
L 153.814011 265.040496 
L 152.82261 264.855563 
L 151.831083 264.670603 
L 150.839682 264.485618 
L 149.848155 264.300606 
L 148.856754 264.115568 
L 147.865226 263.930505 
L 146.873826 263.745415 
L 145.882298 263.560299 
L 144.890898 263.375342 
L 143.89937 263.190174 
L 142.90797 263.00498 
L 141.916442 262.819759 
L 140.925041 262.634698 
L 139.933514 262.449426 
L 139.453066 262.359559 
L 136.796875 257.770771 
L 134.547794 256.964807 
L 135.265034 252.513102 
L 134.300198 252.896525 
L 133.335362 253.279836 
L 132.370399 253.662848 
L 131.405563 254.045934 
L 130.4406 254.428721 
L 129.475764 254.811582 
L 128.5108 255.194331 
L 128.045859 255.378584 
L 127.046578 255.405782 
L 126.047043 255.432793 
L 125.047762 255.45999 
L 124.048354 255.487186 
L 123.048946 255.514382 
L 122.049538 255.541577 
L 121.05013 255.568772 
L 120.050722 255.59578 
L 119.051314 255.622973 
L 118.309289 255.643088 
L 115.699364 260.374623 
L 114.714827 260.121654 
L 113.730417 259.868451 
L 112.746007 259.615198 
L 111.761597 259.361897 
L 110.777187 259.108732 
L 109.79265 258.855519 
L 108.80824 258.60207 
L 107.82383 258.348573 
L 106.83942 258.095212 
L 106.656901 258.048178 
" clip-path="url(#p6628cb7bf3)" style="fill: none; stroke: #ffffff; stroke-width: 0.6"/>
    <path d="M 179.232504 156.726698 
L 179.692869 155.320017 
L 180.153235 153.911724 
L 180.613474 152.502018 
L 181.073839 151.090286 
L 181.534205 149.677334 
L 181.994571 148.262548 
L 182.454937 146.846126 
L 182.740282 145.967166 
L 181.328934 140.681725 
L 177.696214 139.120632 
L 178.015496 135.313858 
L 175.419298 131.315235 
L 175.965839 129.960493 
L 176.51238 128.604443 
L 177.058921 127.246669 
L 177.605463 125.887371 
L 178.152004 124.526753 
L 178.154292 124.52117 
L 177.575594 123.194619 
L 176.996895 121.866404 
L 176.41807 120.536934 
L 175.839372 119.206 
L 175.260673 117.873596 
L 174.681975 116.539719 
L 174.345789 115.764135 
L 176.118108 110.893519 
L 175.234745 110.123913 
L 174.351254 109.353604 
L 173.467891 108.582801 
L 172.5844 107.811502 
L 171.701037 107.039918 
L 170.817674 106.267837 
L 169.934183 105.495048 
L 169.05082 104.721761 
L 168.167457 103.947975 
L 167.543002 103.400977 
L 168.155763 102.092638 
L 168.768525 100.783078 
L 169.381287 99.472083 
L 169.994049 98.159438 
L 170.606683 96.845348 
L 171.219445 95.530023 
L 171.832207 94.213246 
L 172.444842 92.894801 
L 172.925035 91.860708 
L 172.607787 90.275227 
L 172.290539 88.687418 
L 171.973164 87.097486 
L 171.655916 85.505425 
L 171.338668 83.91144 
L 171.021419 82.315098 
L 170.704044 80.716818 
L 170.386796 79.116165 
L 170.069548 77.513345 
L 169.7523 75.908351 
L 169.435051 74.301392 
L 169.190633 73.061871 
" clip-path="url(#p6628cb7bf3)" style="fill: none; stroke: #ffffff; stroke-width: 0.6"/>
    <path d="M 162.660862 210.768452 
L 166.566599 215.121558 
L 171.106324 216.240636 
L 173.24902 213.88222 
L 177.099213 215.611192 
L 179.024309 210.501506 
L 181.611229 210.754374 
L 182.522809 204.545799 
L 184.753333 206.428619 
L 186.557212 205.384289 
" clip-path="url(#p6628cb7bf3)" style="fill: none; stroke: #ffffff; stroke-width: 0.6"/>
    <path d="M 32.350415 159.604766 
L 31.35088 159.599141 
L 30.351345 159.593515 
L 29.351683 159.587889 
L 28.352147 159.582263 
L 27.352612 159.576638 
L 27.135013 159.575432 
L 26.149332 157.327689 
L 26.705406 156.011569 
L 27.261353 154.693837 
L 27.8173 153.374692 
L 28.373374 152.05433 
L 28.92932 150.732546 
L 29.485394 149.409134 
L 29.643256 149.03307 
L 28.717822 148.430843 
L 27.79226 147.82832 
L 26.866826 147.225298 
L 25.941265 146.622181 
L 25.01583 146.018768 
L 24.090269 145.415056 
L 24.006763 145.36038 
L 19.291128 146.144715 
L 16.186011 140.228671 
L 14.330312 142.582311 
L 11.877613 142.151972 
L 12.187743 139.849567 
L 9.674924 141.921866 
L 7.2 140.528534 
" clip-path="url(#p6628cb7bf3)" style="fill: none; stroke: #ffffff; stroke-width: 0.6"/>
    <path d="M 34.372745 176.085275 
L 31.651605 174.994767 
L 30.995755 176.171912 
L 30.339905 177.347943 
L 29.684056 178.522667 
L 29.028206 179.696679 
L 28.372357 180.869191 
L 27.716507 182.040799 
L 27.67647 182.112422 
L 30.476287 188.081931 
L 28.967578 191.109717 
" clip-path="url(#p6628cb7bf3)" style="fill: none; stroke: #ffffff; stroke-width: 0.6"/>
    <path d="M 72.310338 39.837286 
L 73.140954 40.80846 
L 73.97157 41.779046 
L 74.802058 42.748602 
L 75.632674 43.717353 
L 76.46329 44.68552 
L 77.127782 45.459299 
L 81.153758 45.089054 
L 82.108426 45.604049 
L 83.063221 46.118817 
L 84.017889 46.633578 
L 84.972557 47.147892 
L 85.927224 47.661979 
L 86.359882 47.894898 
L 87.336666 47.526088 
L 88.313322 47.15716 
L 89.290106 46.788117 
L 90.266763 46.418956 
L 91.243546 46.049679 
L 91.783605 45.845554 
L 92.75289 46.269227 
L 93.722302 46.692746 
L 94.691714 47.116112 
L 95.661125 47.539545 
L 96.63041 47.962825 
L 97.599822 48.38573 
L 98.569234 48.808483 
L 99.308081 49.130624 
" clip-path="url(#p6628cb7bf3)" style="fill: none; stroke: #ffffff; stroke-width: 0.6"/>
    <path d="M 92.121317 253.260804 
L 91.033827 248.114514 
" clip-path="url(#p6628cb7bf3)" style="fill: none; stroke: #ffffff; stroke-width: 0.6"/>
    <path d="M 76.803798 237.788257 
L 76.817652 237.788257 
" clip-path="url(#p6628cb7bf3)" style="fill: none; stroke: #ffffff; stroke-width: 0.6"/>
   </g>
   <g id="LineCollection_3"/>
   <g id="line2d_1">
    <path d="M 32.822459 159.517019 
L 46.649924 154.767326 
L 46.649924 154.767326 
" clip-path="url(#p6628cb7bf3)" style="fill: none; stroke: #008000; stroke-width: 0.75; stroke-linecap: square"/>
   </g>
   <g id="line2d_2">
    <path d="M 32.822459 159.517019 
L 38.320126 142.812073 
L 38.320126 142.812073 
" clip-path="url(#p6628cb7bf3)" style="fill: none; stroke: #008000; stroke-width: 0.75; stroke-linecap: square"/>
   </g>
   <g id="line2d_3">
    <path d="M 32.822459 159.517019 
L 42.963386 184.533345 
L 43.4846 185.835098 
L 43.4846 185.835098 
" clip-path="url(#p6628cb7bf3)" style="fill: none; stroke: #008000; stroke-width: 0.75; stroke-linecap: square"/>
   </g>
   <g id="line2d_4">
    <path d="M 113.788096 221.92615 
L 98.627863 220.170879 
L 98.627863 220.170879 
" clip-path="url(#p6628cb7bf3)" style="fill: none; stroke: #008000; stroke-width: 0.75; stroke-linecap: square"/>
   </g>
   <g id="line2d_5">
    <path d="M 113.788096 221.92615 
L 124.950025 226.42867 
L 124.950025 226.42867 
" clip-path="url(#p6628cb7bf3)" style="fill: none; stroke: #008000; stroke-width: 0.75; stroke-linecap: square"/>
   </g>
   <g id="line2d_6">
    <path d="M 113.788096 221.92615 
L 103.338755 196.92412 
L 98.294671 185.061341 
L 98.294671 185.061341 
" clip-path="url(#p6628cb7bf3)" style="fill: none; stroke: #008000; stroke-width: 0.75; stroke-linecap: square"/>
   </g>
   <g id="line2d_7">
    <path d="M 125.283217 181.185355 
L 134.888095 154.031059 
L 138.444298 144.146214 
L 138.444298 144.146214 
" clip-path="url(#p6628cb7bf3)" style="fill: none; stroke: #008000; stroke-width: 0.75; stroke-linecap: square"/>
   </g>
   <g id="line2d_8">
    <path d="M 125.283217 181.185355 
L 138.98847 166.486025 
L 147.607076 157.408306 
L 147.607076 157.408306 
" clip-path="url(#p6628cb7bf3)" style="fill: none; stroke: #008000; stroke-width: 0.75; stroke-linecap: square"/>
   </g>
   <g id="line2d_9">
    <path d="M 125.283217 181.185355 
L 115.953843 190.467617 
L 115.953843 190.467617 
" clip-path="url(#p6628cb7bf3)" style="fill: none; stroke: #008000; stroke-width: 0.75; stroke-linecap: square"/>
   </g>
   <g id="line2d_10">
    <path d="M 155.27049 112.263232 
L 144.09409 133.320663 
L 138.444298 144.146214 
L 138.444298 144.146214 
" clip-path="url(#p6628cb7bf3)" style="fill: none; stroke: #008000; stroke-width: 0.75; stroke-linecap: square"/>
   </g>
   <g id="line2d_11">
    <path d="M 155.27049 112.263232 
L 160.934753 152.385582 
L 160.934753 152.385582 
" clip-path="url(#p6628cb7bf3)" style="fill: none; stroke: #008000; stroke-width: 0.75; stroke-linecap: square"/>
   </g>
   <g id="line2d_12">
    <path d="M 155.27049 112.263232 
L 141.194433 99.642443 
L 127.065384 87.272377 
L 122.950874 83.725632 
L 122.950874 83.725632 
" clip-path="url(#p6628cb7bf3)" style="fill: none; stroke: #008000; stroke-width: 0.75; stroke-linecap: square"/>
   </g>
   <g id="line2d_13">
    <path d="M 155.27049 112.263232 
L 139.431659 117.792433 
L 126.116197 122.622528 
L 126.116197 122.622528 
" clip-path="url(#p6628cb7bf3)" style="fill: none; stroke: #008000; stroke-width: 0.75; stroke-linecap: square"/>
   </g>
   <g id="line2d_14">
    <path d="M 155.27049 112.263232 
L 155.437086 68.485966 
L 155.437086 68.485966 
" clip-path="url(#p6628cb7bf3)" style="fill: none; stroke: #008000; stroke-width: 0.75; stroke-linecap: square"/>
   </g>
   <g id="line2d_15">
    <path d="M 73.805065 125.333951 
L 58.811429 127.22834 
L 58.811429 127.22834 
" clip-path="url(#p6628cb7bf3)" style="fill: none; stroke: #008000; stroke-width: 0.75; stroke-linecap: square"/>
   </g>
   <g id="line2d_16">
    <path d="M 73.805065 125.333951 
L 65.975055 155.560215 
L 65.975055 155.560215 
" clip-path="url(#p6628cb7bf3)" style="fill: none; stroke: #008000; stroke-width: 0.75; stroke-linecap: square"/>
   </g>
   <g id="line2d_17">
    <path d="M 73.805065 125.333951 
L 89.439341 118.186715 
L 94.129772 116.090179 
L 94.129772 116.090179 
" clip-path="url(#p6628cb7bf3)" style="fill: none; stroke: #008000; stroke-width: 0.75; stroke-linecap: square"/>
   </g>
   <g id="line2d_18">
    <path d="M 73.805065 125.333951 
L 90.026187 122.113244 
L 106.245351 119.119143 
L 107.957237 118.816289 
L 107.957237 118.816289 
" clip-path="url(#p6628cb7bf3)" style="fill: none; stroke: #008000; stroke-width: 0.75; stroke-linecap: square"/>
   </g>
   <g id="line2d_19">
    <path d="M 107.957237 118.816289 
L 124.129312 122.192135 
L 126.116197 122.622528 
L 126.116197 122.622528 
" clip-path="url(#p6628cb7bf3)" style="fill: none; stroke: #008000; stroke-width: 0.75; stroke-linecap: square"/>
   </g>
   <g id="line2d_20">
    <path d="M 107.957237 118.816289 
L 99.750412 87.394531 
L 98.627863 83.164685 
L 98.627863 83.164685 
" clip-path="url(#p6628cb7bf3)" style="fill: none; stroke: #008000; stroke-width: 0.75; stroke-linecap: square"/>
   </g>
   <g id="line2d_21">
    <path d="M 107.957237 118.816289 
L 94.129772 116.090179 
L 94.129772 116.090179 
" clip-path="url(#p6628cb7bf3)" style="fill: none; stroke: #008000; stroke-width: 0.75; stroke-linecap: square"/>
   </g>
   <g id="line2d_22">
    <path d="M 107.957237 118.816289 
L 95.739271 136.971206 
L 90.631257 144.679462 
L 90.631257 144.679462 
" clip-path="url(#p6628cb7bf3)" style="fill: none; stroke: #008000; stroke-width: 0.75; stroke-linecap: square"/>
   </g>
   <g id="line2d_23">
    <path d="M 79.635924 95.99998 
L 68.973782 95.99998 
L 68.973782 95.99998 
" clip-path="url(#p6628cb7bf3)" style="fill: none; stroke: #008000; stroke-width: 0.75; stroke-linecap: square"/>
   </g>
   <g id="line2d_24">
    <path d="M 79.635924 95.99998 
L 75.137833 84.006006 
L 75.137833 84.006006 
" clip-path="url(#p6628cb7bf3)" style="fill: none; stroke: #008000; stroke-width: 0.75; stroke-linecap: square"/>
   </g>
   <g id="line2d_25">
    <path d="M 79.635924 95.99998 
L 92.098906 113.244161 
L 94.129772 116.090179 
L 94.129772 116.090179 
" clip-path="url(#p6628cb7bf3)" style="fill: none; stroke: #008000; stroke-width: 0.75; stroke-linecap: square"/>
   </g>
   <g id="line2d_26">
    <path d="M 75.137833 84.006006 
L 85.130523 59.748165 
L 89.631682 49.010451 
L 89.631682 49.010451 
" clip-path="url(#p6628cb7bf3)" style="fill: none; stroke: #008000; stroke-width: 0.75; stroke-linecap: square"/>
   </g>
   <g id="line2d_27">
    <path d="M 147.607076 157.408306 
L 160.934753 152.385582 
L 160.934753 152.385582 
" clip-path="url(#p6628cb7bf3)" style="fill: none; stroke: #008000; stroke-width: 0.75; stroke-linecap: square"/>
   </g>
   <g id="line2d_28">
    <path d="M 147.607076 157.408306 
L 131.141338 155.371735 
L 116.120439 153.709343 
L 116.120439 153.709343 
" clip-path="url(#p6628cb7bf3)" style="fill: none; stroke: #008000; stroke-width: 0.75; stroke-linecap: square"/>
   </g>
   <g id="line2d_29">
    <path d="M 76.304005 182.220129 
L 77.30358 176.258415 
L 77.30358 176.258415 
" clip-path="url(#p6628cb7bf3)" style="fill: none; stroke: #008000; stroke-width: 0.75; stroke-linecap: square"/>
   </g>
   <g id="line2d_30">
    <path d="M 76.304005 182.220129 
L 73.638469 192.521031 
L 73.638469 192.521031 
" clip-path="url(#p6628cb7bf3)" style="fill: none; stroke: #008000; stroke-width: 0.75; stroke-linecap: square"/>
   </g>
   <g id="line2d_31">
    <path d="M 76.304005 182.220129 
L 61.569686 193.851648 
L 61.310368 194.058891 
L 61.310368 194.058891 
" clip-path="url(#p6628cb7bf3)" style="fill: none; stroke: #008000; stroke-width: 0.75; stroke-linecap: square"/>
   </g>
   <g id="line2d_32">
    <path d="M 56.312489 139.604176 
L 49.148863 140.941824 
L 49.148863 140.941824 
" clip-path="url(#p6628cb7bf3)" style="fill: none; stroke: #008000; stroke-width: 0.75; stroke-linecap: square"/>
   </g>
   <g id="line2d_33">
    <path d="M 56.312489 139.604176 
L 58.811429 127.22834 
L 58.811429 127.22834 
" clip-path="url(#p6628cb7bf3)" style="fill: none; stroke: #008000; stroke-width: 0.75; stroke-linecap: square"/>
   </g>
   <g id="line2d_34">
    <path d="M 56.312489 139.604176 
L 65.975055 155.560215 
L 65.975055 155.560215 
" clip-path="url(#p6628cb7bf3)" style="fill: none; stroke: #008000; stroke-width: 0.75; stroke-linecap: square"/>
   </g>
   <g id="line2d_35">
    <path d="M 56.312489 139.604176 
L 72.694276 141.903548 
L 89.011772 144.417725 
L 90.631257 144.679462 
L 90.631257 144.679462 
" clip-path="url(#p6628cb7bf3)" style="fill: none; stroke: #008000; stroke-width: 0.75; stroke-linecap: square"/>
   </g>
   <g id="line2d_36">
    <path d="M 160.934753 152.385582 
L 144.981227 146.492639 
L 138.444298 144.146214 
L 138.444298 144.146214 
" clip-path="url(#p6628cb7bf3)" style="fill: none; stroke: #008000; stroke-width: 0.75; stroke-linecap: square"/>
   </g>
   <g id="line2d_37">
    <path d="M 160.934753 152.385582 
L 144.49599 152.680572 
L 127.956339 153.20021 
L 116.120439 153.709343 
L 116.120439 153.709343 
" clip-path="url(#p6628cb7bf3)" style="fill: none; stroke: #008000; stroke-width: 0.75; stroke-linecap: square"/>
   </g>
   <g id="line2d_38">
    <path d="M 44.983964 146.544004 
L 49.148863 140.941824 
L 49.148863 140.941824 
" clip-path="url(#p6628cb7bf3)" style="fill: none; stroke: #008000; stroke-width: 0.75; stroke-linecap: square"/>
   </g>
   <g id="line2d_39">
    <path d="M 44.983964 146.544004 
L 46.649924 154.767326 
L 46.649924 154.767326 
" clip-path="url(#p6628cb7bf3)" style="fill: none; stroke: #008000; stroke-width: 0.75; stroke-linecap: square"/>
   </g>
   <g id="line2d_40">
    <path d="M 116.120439 153.709343 
L 131.950837 146.878159 
L 138.444298 144.146214 
L 138.444298 144.146214 
" clip-path="url(#p6628cb7bf3)" style="fill: none; stroke: #008000; stroke-width: 0.75; stroke-linecap: square"/>
   </g>
   <g id="line2d_41">
    <path d="M 116.120439 153.709343 
L 100.08229 147.957862 
L 90.631257 144.679462 
L 90.631257 144.679462 
" clip-path="url(#p6628cb7bf3)" style="fill: none; stroke: #008000; stroke-width: 0.75; stroke-linecap: square"/>
   </g>
   <g id="line2d_42">
    <path d="M 116.120439 153.709343 
L 104.504591 174.019646 
L 98.294671 185.061341 
L 98.294671 185.061341 
" clip-path="url(#p6628cb7bf3)" style="fill: none; stroke: #008000; stroke-width: 0.75; stroke-linecap: square"/>
   </g>
   <g id="line2d_43">
    <path d="M 49.148863 140.941824 
L 38.320126 142.812073 
L 38.320126 142.812073 
" clip-path="url(#p6628cb7bf3)" style="fill: none; stroke: #008000; stroke-width: 0.75; stroke-linecap: square"/>
   </g>
   <g id="line2d_44">
    <path d="M 89.631682 49.010451 
L 100.793611 61.363352 
L 100.793611 61.363352 
" clip-path="url(#p6628cb7bf3)" style="fill: none; stroke: #008000; stroke-width: 0.75; stroke-linecap: square"/>
   </g>
   <g id="line2d_45">
    <path d="M 77.30358 176.258415 
L 61.204193 170.305578 
L 57.478661 168.961888 
L 57.478661 168.961888 
" clip-path="url(#p6628cb7bf3)" style="fill: none; stroke: #008000; stroke-width: 0.75; stroke-linecap: square"/>
   </g>
   <g id="line2d_46">
    <path d="M 77.30358 176.258415 
L 76.637197 164.510806 
L 76.637197 164.510806 
" clip-path="url(#p6628cb7bf3)" style="fill: none; stroke: #008000; stroke-width: 0.75; stroke-linecap: square"/>
   </g>
   <g id="line2d_47">
    <path d="M 77.30358 176.258415 
L 92.31603 165.685518 
L 93.629985 164.773078 
L 93.629985 164.773078 
" clip-path="url(#p6628cb7bf3)" style="fill: none; stroke: #008000; stroke-width: 0.75; stroke-linecap: square"/>
   </g>
   <g id="line2d_48">
    <path d="M 62.143348 230.666572 
L 72.305702 204.771622 
L 72.305702 204.771622 
" clip-path="url(#p6628cb7bf3)" style="fill: none; stroke: #008000; stroke-width: 0.75; stroke-linecap: square"/>
   </g>
   <g id="line2d_49">
    <path d="M 62.143348 230.666572 
L 78.569335 236.292166 
L 85.133591 238.606105 
L 85.133591 238.606105 
" clip-path="url(#p6628cb7bf3)" style="fill: none; stroke: #008000; stroke-width: 0.75; stroke-linecap: square"/>
   </g>
   <g id="line2d_50">
    <path d="M 93.629985 164.773078 
L 90.631257 144.679462 
L 90.631257 144.679462 
" clip-path="url(#p6628cb7bf3)" style="fill: none; stroke: #008000; stroke-width: 0.75; stroke-linecap: square"/>
   </g>
   <g id="line2d_51">
    <path d="M 93.629985 164.773078 
L 77.061032 164.514498 
L 76.637197 164.510806 
L 76.637197 164.510806 
" clip-path="url(#p6628cb7bf3)" style="fill: none; stroke: #008000; stroke-width: 0.75; stroke-linecap: square"/>
   </g>
   <g id="line2d_52">
    <path d="M 93.629985 164.773078 
L 98.294671 185.061341 
L 98.294671 185.061341 
" clip-path="url(#p6628cb7bf3)" style="fill: none; stroke: #008000; stroke-width: 0.75; stroke-linecap: square"/>
   </g>
   <g id="line2d_53">
    <path d="M 76.637197 164.510806 
L 65.975055 155.560215 
L 65.975055 155.560215 
" clip-path="url(#p6628cb7bf3)" style="fill: none; stroke: #008000; stroke-width: 0.75; stroke-linecap: square"/>
   </g>
   <g id="line2d_54">
    <path d="M 76.637197 164.510806 
L 89.179634 146.71432 
L 90.631257 144.679462 
L 90.631257 144.679462 
" clip-path="url(#p6628cb7bf3)" style="fill: none; stroke: #008000; stroke-width: 0.75; stroke-linecap: square"/>
   </g>
   <g id="line2d_55">
    <path d="M 155.437086 68.485966 
L 140.02156 75.581514 
L 124.631379 82.91044 
L 122.950874 83.725632 
L 122.950874 83.725632 
" clip-path="url(#p6628cb7bf3)" style="fill: none; stroke: #008000; stroke-width: 0.75; stroke-linecap: square"/>
   </g>
   <g id="line2d_56">
    <path d="M 98.627863 83.164685 
L 114.825663 83.482618 
L 122.950874 83.725632 
L 122.950874 83.725632 
" clip-path="url(#p6628cb7bf3)" style="fill: none; stroke: #008000; stroke-width: 0.75; stroke-linecap: square"/>
   </g>
   <g id="line2d_57">
    <path d="M 98.627863 83.164685 
L 100.793611 61.363352 
L 100.793611 61.363352 
" clip-path="url(#p6628cb7bf3)" style="fill: none; stroke: #008000; stroke-width: 0.75; stroke-linecap: square"/>
   </g>
   <g id="line2d_58">
    <path d="M 98.627863 83.164685 
L 94.129772 116.090179 
L 94.129772 116.090179 
" clip-path="url(#p6628cb7bf3)" style="fill: none; stroke: #008000; stroke-width: 0.75; stroke-linecap: square"/>
   </g>
   <g id="line2d_59">
    <path d="M 94.129772 116.090179 
L 77.825183 117.587811 
L 65.975055 118.816289 
L 65.975055 118.816289 
" clip-path="url(#p6628cb7bf3)" style="fill: none; stroke: #008000; stroke-width: 0.75; stroke-linecap: square"/>
   </g>
   <g id="line2d_60">
    <path d="M 61.310368 194.058891 
L 57.478661 168.961888 
L 57.478661 168.961888 
" clip-path="url(#p6628cb7bf3)" style="fill: none; stroke: #008000; stroke-width: 0.75; stroke-linecap: square"/>
   </g>
   <g id="line2d_61">
    <path d="M 61.310368 194.058891 
L 49.315459 199.171548 
L 49.315459 199.171548 
" clip-path="url(#p6628cb7bf3)" style="fill: none; stroke: #008000; stroke-width: 0.75; stroke-linecap: square"/>
   </g>
   <g id="line2d_62">
    <path d="M 61.310368 194.058891 
L 72.305702 204.771622 
L 72.305702 204.771622 
" clip-path="url(#p6628cb7bf3)" style="fill: none; stroke: #008000; stroke-width: 0.75; stroke-linecap: square"/>
   </g>
   <g id="line2d_63">
    <path d="M 72.305702 204.771622 
L 73.638469 192.521031 
L 73.638469 192.521031 
" clip-path="url(#p6628cb7bf3)" style="fill: none; stroke: #008000; stroke-width: 0.75; stroke-linecap: square"/>
   </g>
   <g id="line2d_64">
    <path d="M 72.305702 204.771622 
L 55.8145 200.709536 
L 49.315459 199.171548 
L 49.315459 199.171548 
" clip-path="url(#p6628cb7bf3)" style="fill: none; stroke: #008000; stroke-width: 0.75; stroke-linecap: square"/>
   </g>
   <g id="line2d_65">
    <path d="M 72.305702 204.771622 
L 83.800823 211.610726 
L 83.800823 211.610726 
" clip-path="url(#p6628cb7bf3)" style="fill: none; stroke: #008000; stroke-width: 0.75; stroke-linecap: square"/>
   </g>
   <g id="line2d_66">
    <path d="M 104.12553 237.121163 
L 87.262634 238.425601 
L 85.133591 238.606105 
L 85.133591 238.606105 
" clip-path="url(#p6628cb7bf3)" style="fill: none; stroke: #008000; stroke-width: 0.75; stroke-linecap: square"/>
   </g>
   <g id="line2d_67">
    <path d="M 104.12553 237.121163 
L 120.037486 228.912554 
L 124.950025 226.42867 
L 124.950025 226.42867 
" clip-path="url(#p6628cb7bf3)" style="fill: none; stroke: #008000; stroke-width: 0.75; stroke-linecap: square"/>
   </g>
   <g id="line2d_68">
    <path d="M 100.793611 61.363352 
L 114.375409 74.970914 
L 122.950874 83.725632 
L 122.950874 83.725632 
" clip-path="url(#p6628cb7bf3)" style="fill: none; stroke: #008000; stroke-width: 0.75; stroke-linecap: square"/>
   </g>
   <g id="line2d_69">
    <path d="M 57.478661 168.961888 
L 46.649924 154.767326 
L 46.649924 154.767326 
" clip-path="url(#p6628cb7bf3)" style="fill: none; stroke: #008000; stroke-width: 0.75; stroke-linecap: square"/>
   </g>
   <g id="line2d_70">
    <path d="M 57.478661 168.961888 
L 65.975055 155.560215 
L 65.975055 155.560215 
" clip-path="url(#p6628cb7bf3)" style="fill: none; stroke: #008000; stroke-width: 0.75; stroke-linecap: square"/>
   </g>
   <g id="line2d_71">
    <path d="M 57.478661 168.961888 
L 44.242604 184.911199 
L 43.4846 185.835098 
L 43.4846 185.835098 
" clip-path="url(#p6628cb7bf3)" style="fill: none; stroke: #008000; stroke-width: 0.75; stroke-linecap: square"/>
   </g>
   <g id="line2d_72">
    <path d="M 85.133591 238.606105 
L 83.800823 211.610726 
L 83.800823 211.610726 
" clip-path="url(#p6628cb7bf3)" style="fill: none; stroke: #008000; stroke-width: 0.75; stroke-linecap: square"/>
   </g>
   <g id="line2d_73">
    <path d="M 138.444298 144.146214 
L 126.835168 123.863899 
L 126.116197 122.622528 
L 126.116197 122.622528 
" clip-path="url(#p6628cb7bf3)" style="fill: none; stroke: #008000; stroke-width: 0.75; stroke-linecap: square"/>
   </g>
   <g id="line2d_74">
    <path d="M 126.116197 122.622528 
L 122.950874 83.725632 
L 122.950874 83.725632 
" clip-path="url(#p6628cb7bf3)" style="fill: none; stroke: #008000; stroke-width: 0.75; stroke-linecap: square"/>
   </g>
   <g id="line2d_75">
    <path d="M 124.950025 226.42867 
L 141.374739 220.827443 
L 156.436662 215.897997 
L 156.436662 215.897997 
" clip-path="url(#p6628cb7bf3)" style="fill: none; stroke: #008000; stroke-width: 0.75; stroke-linecap: square"/>
   </g>
   <g id="line2d_76">
    <path d="M 124.950025 226.42867 
L 116.667734 193.281776 
L 115.953843 190.467617 
L 115.953843 190.467617 
" clip-path="url(#p6628cb7bf3)" style="fill: none; stroke: #008000; stroke-width: 0.75; stroke-linecap: square"/>
   </g>
   <g id="line2d_77">
    <path d="M 124.950025 226.42867 
L 133.613015 205.025582 
L 133.613015 205.025582 
" clip-path="url(#p6628cb7bf3)" style="fill: none; stroke: #008000; stroke-width: 0.75; stroke-linecap: square"/>
   </g>
   <g id="line2d_78">
    <path d="M 58.811429 127.22834 
L 65.975055 118.816289 
L 65.975055 118.816289 
" clip-path="url(#p6628cb7bf3)" style="fill: none; stroke: #008000; stroke-width: 0.75; stroke-linecap: square"/>
   </g>
   <g id="line2d_79">
    <path d="M 52.314186 82.322766 
L 44.567533 115.410254 
L 38.320126 142.812073 
L 38.320126 142.812073 
" clip-path="url(#p6628cb7bf3)" style="fill: none; stroke: #008000; stroke-width: 0.75; stroke-linecap: square"/>
   </g>
   <g id="line2d_80">
    <path d="M 52.314186 82.322766 
L 66.587738 94.017015 
L 68.973782 95.99998 
L 68.973782 95.99998 
" clip-path="url(#p6628cb7bf3)" style="fill: none; stroke: #008000; stroke-width: 0.75; stroke-linecap: square"/>
   </g>
   <g id="line2d_81">
    <path d="M 115.953843 190.467617 
L 99.665245 185.471165 
L 98.294671 185.061341 
L 98.294671 185.061341 
" clip-path="url(#p6628cb7bf3)" style="fill: none; stroke: #008000; stroke-width: 0.75; stroke-linecap: square"/>
   </g>
   <g id="line2d_82">
    <path d="M 115.953843 190.467617 
L 130.603322 202.514899 
L 133.613015 205.025582 
L 133.613015 205.025582 
" clip-path="url(#p6628cb7bf3)" style="fill: none; stroke: #008000; stroke-width: 0.75; stroke-linecap: square"/>
   </g>
   <g id="line2d_83">
    <path d="M 68.973782 95.99998 
L 56.842651 114.215444 
L 44.771549 132.742713 
L 38.320126 142.812073 
L 38.320126 142.812073 
" clip-path="url(#p6628cb7bf3)" style="fill: none; stroke: #008000; stroke-width: 0.75; stroke-linecap: square"/>
   </g>
   <g id="line2d_84">
    <path d="M 68.973782 95.99998 
L 65.975055 118.816289 
L 65.975055 118.816289 
" clip-path="url(#p6628cb7bf3)" style="fill: none; stroke: #008000; stroke-width: 0.75; stroke-linecap: square"/>
   </g>
   <g id="line2d_85">
    <path d="M 156.436662 215.897997 
L 140.483909 208.245533 
L 133.613015 205.025582 
L 133.613015 205.025582 
" clip-path="url(#p6628cb7bf3)" style="fill: none; stroke: #008000; stroke-width: 0.75; stroke-linecap: square"/>
   </g>
   <g id="line2d_86">
    <path d="M 49.315459 199.171548 
L 43.4846 185.835098 
L 43.4846 185.835098 
" clip-path="url(#p6628cb7bf3)" style="fill: none; stroke: #008000; stroke-width: 0.75; stroke-linecap: square"/>
   </g>
   <g id="line2d_87">
    <path d="M 83.800823 211.610726 
L 98.627863 220.170879 
L 98.627863 220.170879 
" clip-path="url(#p6628cb7bf3)" style="fill: none; stroke: #008000; stroke-width: 0.75; stroke-linecap: square"/>
   </g>
   <g id="line2d_88">
    <path d="M 83.800823 211.610726 
L 95.390739 190.322485 
L 98.294671 185.061341 
L 98.294671 185.061341 
" clip-path="url(#p6628cb7bf3)" style="fill: none; stroke: #008000; stroke-width: 0.75; stroke-linecap: square"/>
   </g>
   <g id="patch_11">
    <path d="M 7.2 273.312 
L 7.2 7.2 
" style="fill: none; stroke: #ffffff; stroke-linejoin: miter; stroke-linecap: square"/>
   </g>
   <g id="patch_12">
    <path d="M 186.557212 273.312 
L 186.557212 7.2 
" style="fill: none; stroke: #ffffff; stroke-linejoin: miter; stroke-linecap: square"/>
   </g>
   <g id="patch_13">
    <path d="M 7.2 273.312 
L 186.557212 273.312 
" style="fill: none; stroke: #ffffff; stroke-linejoin: miter; stroke-linecap: square"/>
   </g>
   <g id="patch_14">
    <path d="M 7.2 7.2 
L 186.557212 7.2 
" style="fill: none; stroke: #ffffff; stroke-linejoin: miter; stroke-linecap: square"/>
   </g>
   <g id="PathCollection_1">
    <defs>
     <path id="ma1a6dbb0da" d="M 0 1.118034 
C 0.296506 1.118034 0.580908 1.000231 0.790569 0.790569 
C 1.000231 0.580908 1.118034 0.296506 1.118034 0 
C 1.118034 -0.296506 1.000231 -0.580908 0.790569 -0.790569 
C 0.580908 -1.000231 0.296506 -1.118034 0 -1.118034 
C -0.296506 -1.118034 -0.580908 -1.000231 -0.790569 -0.790569 
C -1.000231 -0.580908 -1.118034 -0.296506 -1.118034 0 
C -1.118034 0.296506 -1.000231 0.580908 -0.790569 0.790569 
C -0.580908 1.000231 -0.296506 1.118034 0 1.118034 
z
" style="stroke: #ff0000"/>
    </defs>
    <g clip-path="url(#p6628cb7bf3)">
     <use xlink:href="#ma1a6dbb0da" x="32.822459" y="159.517019" style="fill: #ff0000; stroke: #ff0000"/>
    </g>
   </g>
   <g id="PathCollection_2">
    <g clip-path="url(#p6628cb7bf3)">
     <use xlink:href="#ma1a6dbb0da" x="113.788096" y="221.92615" style="fill: #ff0000; stroke: #ff0000"/>
    </g>
   </g>
   <g id="PathCollection_3">
    <g clip-path="url(#p6628cb7bf3)">
     <use xlink:href="#ma1a6dbb0da" x="125.283217" y="181.185355" style="fill: #ff0000; stroke: #ff0000"/>
    </g>
   </g>
   <g id="PathCollection_4">
    <g clip-path="url(#p6628cb7bf3)">
     <use xlink:href="#ma1a6dbb0da" x="155.27049" y="112.263232" style="fill: #ff0000; stroke: #ff0000"/>
    </g>
   </g>
   <g id="PathCollection_5">
    <g clip-path="url(#p6628cb7bf3)">
     <use xlink:href="#ma1a6dbb0da" x="73.805065" y="125.333951" style="fill: #ff0000; stroke: #ff0000"/>
    </g>
   </g>
   <g id="PathCollection_6">
    <g clip-path="url(#p6628cb7bf3)">
     <use xlink:href="#ma1a6dbb0da" x="107.957237" y="118.816289" style="fill: #ff0000; stroke: #ff0000"/>
    </g>
   </g>
   <g id="PathCollection_7">
    <g clip-path="url(#p6628cb7bf3)">
     <use xlink:href="#ma1a6dbb0da" x="79.635924" y="95.99998" style="fill: #ff0000; stroke: #ff0000"/>
    </g>
   </g>
   <g id="PathCollection_8">
    <g clip-path="url(#p6628cb7bf3)">
     <use xlink:href="#ma1a6dbb0da" x="75.137833" y="84.006006" style="fill: #ff0000; stroke: #ff0000"/>
    </g>
   </g>
   <g id="PathCollection_9">
    <g clip-path="url(#p6628cb7bf3)">
     <use xlink:href="#ma1a6dbb0da" x="147.607076" y="157.408306" style="fill: #ff0000; stroke: #ff0000"/>
    </g>
   </g>
   <g id="PathCollection_10">
    <g clip-path="url(#p6628cb7bf3)">
     <use xlink:href="#ma1a6dbb0da" x="76.304005" y="182.220129" style="fill: #ff0000; stroke: #ff0000"/>
    </g>
   </g>
   <g id="PathCollection_11">
    <g clip-path="url(#p6628cb7bf3)">
     <use xlink:href="#ma1a6dbb0da" x="56.312489" y="139.604176" style="fill: #ff0000; stroke: #ff0000"/>
    </g>
   </g>
   <g id="PathCollection_12">
    <g clip-path="url(#p6628cb7bf3)">
     <use xlink:href="#ma1a6dbb0da" x="160.934753" y="152.385582" style="fill: #ff0000; stroke: #ff0000"/>
    </g>
   </g>
   <g id="PathCollection_13">
    <g clip-path="url(#p6628cb7bf3)">
     <use xlink:href="#ma1a6dbb0da" x="44.983964" y="146.544004" style="fill: #ff0000; stroke: #ff0000"/>
    </g>
   </g>
   <g id="PathCollection_14">
    <g clip-path="url(#p6628cb7bf3)">
     <use xlink:href="#ma1a6dbb0da" x="116.120439" y="153.709343" style="fill: #ff0000; stroke: #ff0000"/>
    </g>
   </g>
   <g id="PathCollection_15">
    <g clip-path="url(#p6628cb7bf3)">
     <use xlink:href="#ma1a6dbb0da" x="49.148863" y="140.941824" style="fill: #ff0000; stroke: #ff0000"/>
    </g>
   </g>
   <g id="PathCollection_16">
    <g clip-path="url(#p6628cb7bf3)">
     <use xlink:href="#ma1a6dbb0da" x="89.631682" y="49.010451" style="fill: #ff0000; stroke: #ff0000"/>
    </g>
   </g>
   <g id="PathCollection_17">
    <g clip-path="url(#p6628cb7bf3)">
     <use xlink:href="#ma1a6dbb0da" x="77.30358" y="176.258415" style="fill: #ff0000; stroke: #ff0000"/>
    </g>
   </g>
   <g id="PathCollection_18">
    <g clip-path="url(#p6628cb7bf3)">
     <use xlink:href="#ma1a6dbb0da" x="62.143348" y="230.666572" style="fill: #ff0000; stroke: #ff0000"/>
    </g>
   </g>
   <g id="PathCollection_19">
    <g clip-path="url(#p6628cb7bf3)">
     <use xlink:href="#ma1a6dbb0da" x="93.629985" y="164.773078" style="fill: #ff0000; stroke: #ff0000"/>
    </g>
   </g>
   <g id="PathCollection_20">
    <g clip-path="url(#p6628cb7bf3)">
     <use xlink:href="#ma1a6dbb0da" x="76.637197" y="164.510806" style="fill: #ff0000; stroke: #ff0000"/>
    </g>
   </g>
   <g id="PathCollection_21">
    <g clip-path="url(#p6628cb7bf3)">
     <use xlink:href="#ma1a6dbb0da" x="155.437086" y="68.485966" style="fill: #ff0000; stroke: #ff0000"/>
    </g>
   </g>
   <g id="PathCollection_22">
    <g clip-path="url(#p6628cb7bf3)">
     <use xlink:href="#ma1a6dbb0da" x="98.627863" y="83.164685" style="fill: #ff0000; stroke: #ff0000"/>
    </g>
   </g>
   <g id="PathCollection_23">
    <g clip-path="url(#p6628cb7bf3)">
     <use xlink:href="#ma1a6dbb0da" x="94.129772" y="116.090179" style="fill: #ff0000; stroke: #ff0000"/>
    </g>
   </g>
   <g id="PathCollection_24">
    <g clip-path="url(#p6628cb7bf3)">
     <use xlink:href="#ma1a6dbb0da" x="61.310368" y="194.058891" style="fill: #ff0000; stroke: #ff0000"/>
    </g>
   </g>
   <g id="PathCollection_25">
    <g clip-path="url(#p6628cb7bf3)">
     <use xlink:href="#ma1a6dbb0da" x="72.305702" y="204.771622" style="fill: #ff0000; stroke: #ff0000"/>
    </g>
   </g>
   <g id="PathCollection_26">
    <g clip-path="url(#p6628cb7bf3)">
     <use xlink:href="#ma1a6dbb0da" x="90.631257" y="144.679462" style="fill: #ff0000; stroke: #ff0000"/>
    </g>
   </g>
   <g id="PathCollection_27">
    <g clip-path="url(#p6628cb7bf3)">
     <use xlink:href="#ma1a6dbb0da" x="104.12553" y="237.121163" style="fill: #ff0000; stroke: #ff0000"/>
    </g>
   </g>
   <g id="PathCollection_28">
    <g clip-path="url(#p6628cb7bf3)">
     <use xlink:href="#ma1a6dbb0da" x="100.793611" y="61.363352" style="fill: #ff0000; stroke: #ff0000"/>
    </g>
   </g>
   <g id="PathCollection_29">
    <g clip-path="url(#p6628cb7bf3)">
     <use xlink:href="#ma1a6dbb0da" x="57.478661" y="168.961888" style="fill: #ff0000; stroke: #ff0000"/>
    </g>
   </g>
   <g id="PathCollection_30">
    <g clip-path="url(#p6628cb7bf3)">
     <use xlink:href="#ma1a6dbb0da" x="46.649924" y="154.767326" style="fill: #ff0000; stroke: #ff0000"/>
    </g>
   </g>
   <g id="PathCollection_31">
    <g clip-path="url(#p6628cb7bf3)">
     <use xlink:href="#ma1a6dbb0da" x="85.133591" y="238.606105" style="fill: #ff0000; stroke: #ff0000"/>
    </g>
   </g>
   <g id="PathCollection_32">
    <g clip-path="url(#p6628cb7bf3)">
     <use xlink:href="#ma1a6dbb0da" x="138.444298" y="144.146214" style="fill: #ff0000; stroke: #ff0000"/>
    </g>
   </g>
   <g id="PathCollection_33">
    <g clip-path="url(#p6628cb7bf3)">
     <use xlink:href="#ma1a6dbb0da" x="126.116197" y="122.622528" style="fill: #ff0000; stroke: #ff0000"/>
    </g>
   </g>
   <g id="PathCollection_34">
    <g clip-path="url(#p6628cb7bf3)">
     <use xlink:href="#ma1a6dbb0da" x="73.638469" y="192.521031" style="fill: #ff0000; stroke: #ff0000"/>
    </g>
   </g>
   <g id="PathCollection_35">
    <g clip-path="url(#p6628cb7bf3)">
     <use xlink:href="#ma1a6dbb0da" x="124.950025" y="226.42867" style="fill: #ff0000; stroke: #ff0000"/>
    </g>
   </g>
   <g id="PathCollection_36">
    <g clip-path="url(#p6628cb7bf3)">
     <use xlink:href="#ma1a6dbb0da" x="58.811429" y="127.22834" style="fill: #ff0000; stroke: #ff0000"/>
    </g>
   </g>
   <g id="PathCollection_37">
    <g clip-path="url(#p6628cb7bf3)">
     <use xlink:href="#ma1a6dbb0da" x="52.314186" y="82.322766" style="fill: #ff0000; stroke: #ff0000"/>
    </g>
   </g>
   <g id="PathCollection_38">
    <g clip-path="url(#p6628cb7bf3)">
     <use xlink:href="#ma1a6dbb0da" x="115.953843" y="190.467617" style="fill: #ff0000; stroke: #ff0000"/>
    </g>
   </g>
   <g id="PathCollection_39">
    <g clip-path="url(#p6628cb7bf3)">
     <use xlink:href="#ma1a6dbb0da" x="68.973782" y="95.99998" style="fill: #ff0000; stroke: #ff0000"/>
    </g>
   </g>
   <g id="PathCollection_40">
    <g clip-path="url(#p6628cb7bf3)">
     <use xlink:href="#ma1a6dbb0da" x="65.975055" y="118.816289" style="fill: #ff0000; stroke: #ff0000"/>
    </g>
   </g>
   <g id="PathCollection_41">
    <g clip-path="url(#p6628cb7bf3)">
     <use xlink:href="#ma1a6dbb0da" x="156.436662" y="215.897997" style="fill: #ff0000; stroke: #ff0000"/>
    </g>
   </g>
   <g id="PathCollection_42">
    <g clip-path="url(#p6628cb7bf3)">
     <use xlink:href="#ma1a6dbb0da" x="133.613015" y="205.025582" style="fill: #ff0000; stroke: #ff0000"/>
    </g>
   </g>
   <g id="PathCollection_43">
    <g clip-path="url(#p6628cb7bf3)">
     <use xlink:href="#ma1a6dbb0da" x="49.315459" y="199.171548" style="fill: #ff0000; stroke: #ff0000"/>
    </g>
   </g>
   <g id="PathCollection_44">
    <g clip-path="url(#p6628cb7bf3)">
     <use xlink:href="#ma1a6dbb0da" x="122.950874" y="83.725632" style="fill: #ff0000; stroke: #ff0000"/>
    </g>
   </g>
   <g id="PathCollection_45">
    <g clip-path="url(#p6628cb7bf3)">
     <use xlink:href="#ma1a6dbb0da" x="65.975055" y="155.560215" style="fill: #ff0000; stroke: #ff0000"/>
    </g>
   </g>
   <g id="PathCollection_46">
    <g clip-path="url(#p6628cb7bf3)">
     <use xlink:href="#ma1a6dbb0da" x="83.800823" y="211.610726" style="fill: #ff0000; stroke: #ff0000"/>
    </g>
   </g>
   <g id="PathCollection_47">
    <g clip-path="url(#p6628cb7bf3)">
     <use xlink:href="#ma1a6dbb0da" x="43.4846" y="185.835098" style="fill: #ff0000; stroke: #ff0000"/>
    </g>
   </g>
   <g id="PathCollection_48">
    <g clip-path="url(#p6628cb7bf3)">
     <use xlink:href="#ma1a6dbb0da" x="98.627863" y="220.170879" style="fill: #ff0000; stroke: #ff0000"/>
    </g>
   </g>
   <g id="PathCollection_49">
    <g clip-path="url(#p6628cb7bf3)">
     <use xlink:href="#ma1a6dbb0da" x="38.320126" y="142.812073" style="fill: #ff0000; stroke: #ff0000"/>
    </g>
   </g>
   <g id="PathCollection_50">
    <g clip-path="url(#p6628cb7bf3)">
     <use xlink:href="#ma1a6dbb0da" x="98.294671" y="185.061341" style="fill: #ff0000; stroke: #ff0000"/>
    </g>
   </g>
  </g>
 </g>
 <defs>
  <clipPath id="p6628cb7bf3">
   <rect x="7.2" y="7.2" width="179.357212" height="266.112"/>
  </clipPath>
 </defs>
</svg>
