<?xml version="1.0" encoding="utf-8" standalone="no"?>
<!DOCTYPE svg PUBLIC "-//W3C//DTD SVG 1.1//EN"
  "http://www.w3.org/Graphics/SVG/1.1/DTD/svg11.dtd">
<svg xmlns:xlink="http://www.w3.org/1999/xlink" width="371.52pt" height="235.416035pt" viewBox="0 0 371.52 235.416035" xmlns="http://www.w3.org/2000/svg" version="1.1">
 <metadata>
  <rdf:RDF xmlns:dc="http://purl.org/dc/elements/1.1/" xmlns:cc="http://creativecommons.org/ns#" xmlns:rdf="http://www.w3.org/1999/02/22-rdf-syntax-ns#">
   <cc:Work>
    <dc:type rdf:resource="http://purl.org/dc/dcmitype/StillImage"/>
    <dc:date>2025-12-17T16:19:18.535740</dc:date>
    <dc:format>image/svg+xml</dc:format>
    <dc:creator>
     <cc:Agent>
      <dc:title>Matplotlib v3.10.6, https://matplotlib.org/</dc:title>
     </cc:Agent>
    </dc:creator>
   </cc:Work>
  </rdf:RDF>
 </metadata>
 <defs>
  <style type="text/css">*{stroke-linejoin: round; stroke-linecap: butt}</style>
 </defs>
 <g id="figure_1">
  <g id="patch_1">
   <path d="M 0 235.416035 
L 371.52 235.416035 
L 371.52 0 
L 0 0 
z
" style="fill: #ffffff"/>
  </g>
  <g id="axes_1">
   <g id="patch_2">
    <path d="M 7.2 228.216035 
L 364.32 228.216035 
L 364.32 7.2 
L 7.2 7.2 
z
" clip-path="url(#p8ff1eaa67b)" style="fill: #add8e6; stroke: #ffffff; stroke-linejoin: miter"/>
   </g>
   <g id="patch_3">
    <path d="M 7.2 228.216035 
L 364.32 228.216035 
L 364.32 7.2 
L 7.2 7.2 
z
" clip-path="url(#p8ff1eaa67b)" style="fill: #add8e6; stroke: #ffffff; stroke-linejoin: miter"/>
   </g>
   <g id="patch_4">
    <path d="M 7.2 228.216035 
L 7.2 7.200001 
L 364.319998 7.200001 
L 364.319998 228.216035 
z
" clip-path="url(#p8ff1eaa67b)" style="fill: #d3d3d3"/>
   </g>
   <g id="matplotlib.axis_1"/>
   <g id="matplotlib.axis_2"/>
   <g id="LineCollection_1"/>
   <g id="LineCollection_2"/>
   <g id="LineCollection_3">
    <path d="M 277.374803 217.494538 
L 274.969141 228.216035 
" clip-path="url(#p8ff1eaa67b)" style="fill: none; stroke: #ffffff; stroke-width: 0.3"/>
    <path d="M 277.374803 217.494538 
L 274.969141 228.216035 
" clip-path="url(#p8ff1eaa67b)" style="fill: none; stroke: #ffffff; stroke-width: 0.3"/>
    <path d="M 7.2 81.067234 
L 10.411738 78.693139 
L 12.911378 78.654975 
L 15.411018 78.616811 
L 17.91034 78.578646 
L 20.40998 78.540481 
L 22.90962 78.502316 
L 25.409259 78.464583 
L 27.908899 78.426417 
L 30.408539 78.388251 
L 32.907861 78.350083 
L 35.258743 78.314085 
L 37.606129 79.486677 
L 39.953514 80.658445 
L 42.3009 81.829822 
L 44.648604 83.000809 
L 46.995989 84.171405 
L 49.343375 85.342045 
L 51.69076 86.511429 
L 54.038146 87.68129 
L 56.385532 88.85033 
L 58.149965 89.728477 
L 61.563766 97.998514 
L 71.169452 100.03886 
L 71.546432 103.388733 
L 71.923731 106.735006 
L 72.300711 110.078551 
L 72.677691 113.418517 
L 73.054671 116.755344 
L 73.136679 117.479468 
L 74.624893 120.18848 
L 76.113424 122.895431 
L 77.601638 125.600754 
L 79.09017 128.304025 
L 80.578384 131.004823 
L 82.066916 133.70358 
L 83.55513 136.400302 
L 84.92955 138.888633 
L 83.830077 153.250826 
L 87.857345 153.420691 
L 89.281034 164.581932 
L 92.7298 166.384911 
L 92.739335 169.710867 
L 92.748871 173.033772 
L 92.758089 176.353633 
L 92.767625 179.67046 
L 92.777161 182.984683 
L 92.786696 186.29547 
L 92.795914 189.60367 
L 92.80545 192.908452 
L 92.814986 196.210246 
L 92.822296 198.77648 
L 100.28657 209.936309 
L 101.837402 221.184062 
L 109.591244 225.370395 
L 110.109792 228.216035 
" clip-path="url(#p8ff1eaa67b)" style="fill: none; stroke: #ffffff; stroke-width: 0.3"/>
    <path d="M 7.2 81.067234 
L 10.411738 78.693139 
L 12.911378 78.654975 
L 15.411018 78.616811 
L 17.91034 78.578646 
L 20.40998 78.540481 
L 22.90962 78.502316 
L 25.409259 78.464583 
L 27.908899 78.426417 
L 30.408539 78.388251 
L 32.907861 78.350083 
L 35.258743 78.314085 
L 37.606129 79.486677 
L 39.953514 80.658445 
L 42.3009 81.829822 
L 44.648604 83.000809 
L 46.995989 84.171405 
L 49.343375 85.342045 
L 51.69076 86.511429 
L 54.038146 87.68129 
L 56.385532 88.85033 
L 58.149965 89.728477 
L 61.563766 97.998514 
L 71.169452 100.03886 
L 71.546432 103.388733 
L 71.923731 106.735006 
L 72.300711 110.078551 
L 72.677691 113.418517 
L 73.054671 116.755344 
L 73.136679 117.479468 
L 74.624893 120.18848 
L 76.113424 122.895431 
L 77.601638 125.600754 
L 79.09017 128.304025 
L 80.578384 131.004823 
L 82.066916 133.70358 
L 83.55513 136.400302 
L 84.92955 138.888633 
L 83.830077 153.250826 
L 87.857345 153.420691 
L 89.281034 164.581932 
L 92.7298 166.384911 
L 92.739335 169.710867 
L 92.748871 173.033772 
L 92.758089 176.353633 
L 92.767625 179.67046 
L 92.777161 182.984683 
L 92.786696 186.29547 
L 92.795914 189.60367 
L 92.80545 192.908452 
L 92.814986 196.210246 
L 92.822296 198.77648 
L 100.28657 209.936309 
L 101.837402 221.184062 
L 109.591244 225.370395 
L 110.109792 228.216035 
" clip-path="url(#p8ff1eaa67b)" style="fill: none; stroke: #ffffff; stroke-width: 0.3"/>
    <path d="M 97.27772 205.214559 
L 264.876285 203.796765 
L 274.574151 215.822673 
L 279.909407 216.70419 
L 278.589976 207.088757 
L 289.734734 201.310323 
L 297.893528 184.533095 
L 297.326468 177.429065 
L 291.354859 170.511026 
L 294.005164 160.819021 
L 322.555539 150.853179 
L 331.547441 128.005521 
L 330.320824 120.929047 
L 310.646968 101.168908 
L 308.529076 91.349295 
L 293.727355 86.16957 
L 289.08662 66.751907 
L 289.08662 66.751907 
" clip-path="url(#p8ff1eaa67b)" style="fill: none; stroke: #ffffff; stroke-width: 0.3"/>
    <path d="M 97.27772 205.214559 
L 264.876285 203.781269 
L 274.574151 215.822673 
L 279.909407 216.70419 
L 278.601737 207.088757 
L 289.734734 201.310323 
L 297.893528 184.533095 
L 297.326468 177.429065 
L 291.354859 170.511026 
L 294.005164 160.819021 
L 322.555539 150.853179 
L 331.547441 128.005521 
L 330.320824 120.929047 
L 310.646968 101.168908 
L 308.529076 91.349295 
L 293.727355 86.16957 
L 289.08662 66.751907 
L 289.08662 66.751907 
" clip-path="url(#p8ff1eaa67b)" style="fill: none; stroke: #ffffff; stroke-width: 0.3"/>
    <path d="M 68.495944 42.538051 
L 68.495944 39.08993 
L 68.495944 35.638813 
L 68.495944 32.184251 
L 68.495944 28.726232 
L 68.495944 25.264746 
L 68.495944 21.799342 
L 68.495944 18.33089 
L 68.495944 14.858497 
L 68.495944 11.383035 
L 68.495944 7.904051 
L 68.495944 7.2 
" clip-path="url(#p8ff1eaa67b)" style="fill: none; stroke: #ffffff; stroke-width: 0.3"/>
    <path d="M 68.495944 42.538051 
L 68.495944 39.08993 
L 68.495944 35.638813 
L 68.495944 32.184251 
L 68.495944 28.726232 
L 68.495944 25.264746 
L 68.495944 21.799342 
L 68.495944 18.33089 
L 68.495944 14.858497 
L 68.495944 11.383035 
L 68.495944 7.904051 
L 68.495944 7.2 
" clip-path="url(#p8ff1eaa67b)" style="fill: none; stroke: #ffffff; stroke-width: 0.3"/>
    <path d="M 66.250908 71.105998 
L 68.542351 63.930508 
L 67.419674 58.693932 
L 63.484903 58.074524 
L 62.292933 42.506062 
L 64.792573 42.505624 
L 67.292531 42.505186 
L 69.792171 42.50431 
L 72.291811 42.503871 
L 74.791768 42.503433 
L 77.291408 42.502557 
L 79.791048 42.502557 
L 82.291006 42.50168 
L 84.790646 42.501242 
L 87.290286 42.500804 
L 89.790243 42.499928 
L 92.289883 42.499928 
L 94.789523 42.499051 
L 97.289163 42.498613 
L 99.789121 42.498175 
L 102.288761 42.497298 
L 104.788401 42.497298 
L 107.288358 42.496422 
L 109.787998 42.495984 
L 112.287638 42.495546 
L 114.787596 42.494669 
L 117.287236 42.494669 
L 119.786876 42.493793 
L 122.286833 42.493355 
L 124.786473 42.492916 
L 127.286113 42.49204 
L 129.786071 42.491602 
L 132.285711 42.491164 
L 134.785351 42.490725 
L 137.285308 42.490287 
L 139.784948 42.489411 
L 142.284588 42.488973 
L 144.784546 42.488534 
L 147.284186 42.487658 
L 149.783826 42.487658 
L 152.283783 42.486782 
L 154.783423 42.486343 
L 157.283063 42.485905 
L 159.782703 42.485029 
L 162.282661 42.485029 
L 164.782301 42.484152 
L 167.28194 42.483714 
L 169.781898 42.483276 
L 172.281538 42.4824 
L 174.781178 42.4824 
L 177.281136 42.481523 
L 179.780776 42.481085 
L 182.280415 42.480647 
L 184.780373 42.47977 
L 187.280013 42.479332 
L 189.779653 42.478894 
L 192.279611 42.478456 
L 194.779251 42.478018 
L 197.27889 42.477141 
L 199.778848 42.476703 
L 202.278488 42.476265 
L 204.778128 42.475388 
L 207.278086 42.475388 
L 209.777726 42.474512 
L 212.277365 42.474074 
L 214.777323 42.473636 
L 217.276963 42.472759 
L 219.776603 42.472759 
L 222.276243 42.471883 
L 224.776201 42.471445 
L 227.27584 42.471006 
L 229.77548 42.47013 
L 232.275438 42.47013 
L 234.775078 42.469253 
L 237.274718 42.468815 
L 239.774676 42.468377 
L 242.274315 42.467501 
L 244.773955 42.467501 
L 247.273913 42.466624 
L 249.773553 42.466186 
L 252.273193 42.465748 
L 254.773151 42.464871 
L 257.27279 42.464433 
L 259.77243 42.463995 
L 262.272388 42.463557 
L 264.772028 42.463119 
L 267.271668 42.462242 
L 269.771626 42.461804 
L 272.271265 42.461366 
L 274.770905 42.460489 
L 277.270863 42.460489 
L 279.770503 42.459613 
L 282.270143 42.459175 
L 284.769783 42.458737 
L 286.505926 42.458298 
" clip-path="url(#p8ff1eaa67b)" style="fill: none; stroke: #ffffff; stroke-width: 0.3"/>
    <path d="M 66.274112 71.137725 
L 68.542351 63.930508 
L 67.419674 58.693932 
L 63.484903 58.074524 
L 62.292933 42.506062 
L 64.792573 42.505624 
L 67.292531 42.505186 
L 69.792171 42.50431 
L 72.291811 42.503871 
L 74.791768 42.503433 
L 77.291408 42.502557 
L 79.791048 42.502557 
L 82.291006 42.50168 
L 84.790646 42.501242 
L 87.290286 42.500804 
L 89.790243 42.499928 
L 92.289883 42.499928 
L 94.789523 42.499051 
L 97.289163 42.498613 
L 99.789121 42.498175 
L 102.288761 42.497298 
L 104.788401 42.497298 
L 107.288358 42.496422 
L 109.787998 42.495984 
L 112.287638 42.495546 
L 114.787596 42.494669 
L 117.287236 42.494669 
L 119.786876 42.493793 
L 122.286833 42.493355 
L 124.786473 42.492916 
L 127.286113 42.49204 
L 129.786071 42.491602 
L 132.285711 42.491164 
L 134.785351 42.490725 
L 137.285308 42.490287 
L 139.784948 42.489411 
L 142.284588 42.488973 
L 144.784546 42.488534 
L 147.284186 42.487658 
L 149.783826 42.487658 
L 152.283783 42.486782 
L 154.783423 42.486343 
L 157.283063 42.485905 
L 159.782703 42.485029 
L 162.282661 42.485029 
L 164.782301 42.484152 
L 167.28194 42.483714 
L 169.781898 42.483276 
L 172.281538 42.4824 
L 174.781178 42.4824 
L 177.281136 42.481523 
L 179.780776 42.481085 
L 182.280415 42.480647 
L 184.780373 42.47977 
L 187.280013 42.479332 
L 189.779653 42.478894 
L 192.279611 42.478456 
L 194.779251 42.478018 
L 197.27889 42.477141 
L 199.778848 42.476703 
L 202.278488 42.476265 
L 204.778128 42.475388 
L 207.278086 42.475388 
L 209.777726 42.474512 
L 212.277365 42.474074 
L 214.777323 42.473636 
L 217.276963 42.472759 
L 219.776603 42.472759 
L 222.276243 42.471883 
L 224.776201 42.471445 
L 227.27584 42.471006 
L 229.77548 42.47013 
L 232.275438 42.47013 
L 234.775078 42.469253 
L 237.274718 42.468815 
L 239.774676 42.468377 
L 242.274315 42.467501 
L 244.773955 42.467501 
L 247.273913 42.466624 
L 249.773553 42.466186 
L 252.273193 42.465748 
L 254.773151 42.464871 
L 257.27279 42.464433 
L 259.77243 42.463995 
L 262.272388 42.463557 
L 264.772028 42.463119 
L 267.271668 42.462242 
L 269.771626 42.461804 
L 272.271265 42.461366 
L 274.770905 42.460489 
L 277.270863 42.460489 
L 279.770503 42.459613 
L 282.270143 42.459175 
L 284.769783 42.458737 
L 286.505926 42.458298 
" clip-path="url(#p8ff1eaa67b)" style="fill: none; stroke: #ffffff; stroke-width: 0.3"/>
    <path d="M 364.32 99.352913 
L 363.895273 99.349103 
L 361.395633 99.325822 
L 358.895993 99.302971 
L 356.396353 99.28012 
L 353.896713 99.257269 
L 351.397073 99.234418 
L 348.897433 99.211136 
L 346.397476 99.188716 
L 343.897836 99.165433 
L 341.398196 99.142581 
L 338.898556 99.119729 
L 336.398916 99.096446 
L 333.899276 99.074025 
L 331.399636 99.050742 
L 328.899679 99.027889 
L 326.400039 99.005037 
L 323.900399 98.981753 
L 321.400759 98.959331 
L 318.901119 98.936047 
L 316.401479 98.913194 
L 313.901839 98.890341 
L 311.401882 98.867487 
L 310.797315 98.861882 
" clip-path="url(#p8ff1eaa67b)" style="fill: none; stroke: #ffffff; stroke-width: 0.3"/>
    <path d="M 364.32 99.352913 
L 363.895273 99.349103 
L 361.395633 99.325822 
L 358.895993 99.302971 
L 356.396353 99.28012 
L 353.896713 99.257269 
L 351.397073 99.234418 
L 348.897433 99.211136 
L 346.397476 99.188716 
L 343.897836 99.165433 
L 341.398196 99.142581 
L 338.898556 99.119729 
L 336.398916 99.096446 
L 333.899276 99.074025 
L 331.399636 99.050742 
L 328.899679 99.027889 
L 326.400039 99.005037 
L 323.900399 98.981753 
L 321.400759 98.959331 
L 318.901119 98.936047 
L 316.401479 98.913194 
L 313.901839 98.890341 
L 311.401882 98.867487 
L 310.797315 98.861882 
" clip-path="url(#p8ff1eaa67b)" style="fill: none; stroke: #ffffff; stroke-width: 0.3"/>
    <path d="M 268.778254 7.2 
L 269.962976 8.273175 
L 272.0583 10.171276 
L 274.153624 12.067445 
L 276.248948 13.962567 
L 278.344271 15.857528 
L 280.439595 17.750562 
L 281.17067 18.41076 
" clip-path="url(#p8ff1eaa67b)" style="fill: none; stroke: #ffffff; stroke-width: 0.3"/>
    <path d="M 268.778254 7.2 
L 269.962976 8.273175 
L 272.0583 10.171276 
L 274.153624 12.067445 
L 276.248948 13.962567 
L 278.344271 15.857528 
L 280.439595 17.750562 
L 281.17067 18.41076 
" clip-path="url(#p8ff1eaa67b)" style="fill: none; stroke: #ffffff; stroke-width: 0.3"/>
    <path d="M 288.889866 66.609172 
L 292.385039 54.435243 
L 287.015136 50.458152 
L 286.597787 47.066472 
L 286.180439 43.671477 
L 285.763091 40.273156 
L 285.345742 36.871499 
L 284.928394 33.466496 
L 284.511046 30.058137 
L 284.457646 29.622729 
" clip-path="url(#p8ff1eaa67b)" style="fill: none; stroke: #ffffff; stroke-width: 0.3"/>
    <path d="M 288.901626 66.609172 
L 292.385039 54.435243 
L 287.015136 50.458152 
L 286.597787 47.066472 
L 286.180439 43.671477 
L 285.763091 40.273156 
L 285.345742 36.871499 
L 284.928394 33.466496 
L 284.511046 30.058137 
L 284.457646 29.622729 
" clip-path="url(#p8ff1eaa67b)" style="fill: none; stroke: #ffffff; stroke-width: 0.3"/>
    <path d="M 66.563363 71.074271 
L 60.742101 85.917697 
L 67.28077 98.735969 
" clip-path="url(#p8ff1eaa67b)" style="fill: none; stroke: #ffffff; stroke-width: 0.3"/>
    <path d="M 66.563363 71.074271 
L 60.742101 85.917697 
L 67.28077 98.735969 
" clip-path="url(#p8ff1eaa67b)" style="fill: none; stroke: #ffffff; stroke-width: 0.3"/>
    <path d="M 284.7701 26.146293 
L 281.193874 18.28279 
" clip-path="url(#p8ff1eaa67b)" style="fill: none; stroke: #ffffff; stroke-width: 0.3"/>
    <path d="M 284.7701 26.130443 
L 281.193874 18.28279 
" clip-path="url(#p8ff1eaa67b)" style="fill: none; stroke: #ffffff; stroke-width: 0.3"/>
    <path d="M 284.792986 26.290701 
L 284.503735 29.51101 
" clip-path="url(#p8ff1eaa67b)" style="fill: none; stroke: #ffffff; stroke-width: 0.3"/>
    <path d="M 284.792986 26.30655 
L 284.503735 29.51101 
" clip-path="url(#p8ff1eaa67b)" style="fill: none; stroke: #ffffff; stroke-width: 0.3"/>
   </g>
   <g id="line2d_1">
    <path d="M 236.757853 196.927181 
L 236.908254 182.140612 
L 236.908254 182.140612 
" clip-path="url(#p8ff1eaa67b)" style="fill: none; stroke: #008000; stroke-width: 0.75; stroke-linecap: square"/>
   </g>
   <g id="line2d_2">
    <path d="M 236.757853 196.927181 
L 208.893725 189.108054 
L 181.052718 181.52522 
L 180.489087 181.374078 
L 180.489087 181.374078 
" clip-path="url(#p8ff1eaa67b)" style="fill: none; stroke: #008000; stroke-width: 0.75; stroke-linecap: square"/>
   </g>
   <g id="line2d_3">
    <path d="M 236.757853 196.927181 
L 255.599239 182.76896 
L 255.599239 182.76896 
" clip-path="url(#p8ff1eaa67b)" style="fill: none; stroke: #008000; stroke-width: 0.75; stroke-linecap: square"/>
   </g>
   <g id="line2d_4">
    <path d="M 89.986359 168.941174 
L 117.12093 180.873427 
L 124.717768 184.25768 
L 124.717768 184.25768 
" clip-path="url(#p8ff1eaa67b)" style="fill: none; stroke: #008000; stroke-width: 0.75; stroke-linecap: square"/>
   </g>
   <g id="line2d_5">
    <path d="M 89.986359 168.941174 
L 114.59797 147.77961 
L 115.493722 147.01495 
L 115.493722 147.01495 
" clip-path="url(#p8ff1eaa67b)" style="fill: none; stroke: #008000; stroke-width: 0.75; stroke-linecap: square"/>
   </g>
   <g id="line2d_6">
    <path d="M 227.198425 166.846202 
L 236.908254 182.140612 
L 236.908254 182.140612 
" clip-path="url(#p8ff1eaa67b)" style="fill: none; stroke: #008000; stroke-width: 0.75; stroke-linecap: square"/>
   </g>
   <g id="line2d_7">
    <path d="M 227.198425 166.846202 
L 223.946678 141.99255 
L 223.946678 141.99255 
" clip-path="url(#p8ff1eaa67b)" style="fill: none; stroke: #008000; stroke-width: 0.75; stroke-linecap: square"/>
   </g>
   <g id="line2d_8">
    <path d="M 155.664569 180.00905 
L 180.489087 181.374078 
L 180.489087 181.374078 
" clip-path="url(#p8ff1eaa67b)" style="fill: none; stroke: #008000; stroke-width: 0.75; stroke-linecap: square"/>
   </g>
   <g id="line2d_9">
    <path d="M 155.664569 180.00905 
L 127.415969 183.876531 
L 124.717768 184.25768 
L 124.717768 184.25768 
" clip-path="url(#p8ff1eaa67b)" style="fill: none; stroke: #008000; stroke-width: 0.75; stroke-linecap: square"/>
   </g>
   <g id="line2d_10">
    <path d="M 180.489087 181.374078 
L 187.004663 149.941118 
L 187.004663 149.941118 
" clip-path="url(#p8ff1eaa67b)" style="fill: none; stroke: #008000; stroke-width: 0.75; stroke-linecap: square"/>
   </g>
   <g id="line2d_11">
    <path d="M 124.717768 184.25768 
L 127.460818 197.463357 
L 127.460818 197.463357 
" clip-path="url(#p8ff1eaa67b)" style="fill: none; stroke: #008000; stroke-width: 0.75; stroke-linecap: square"/>
   </g>
   <g id="line2d_12">
    <path d="M 124.717768 184.25768 
L 115.493722 147.01495 
L 115.493722 147.01495 
" clip-path="url(#p8ff1eaa67b)" style="fill: none; stroke: #008000; stroke-width: 0.75; stroke-linecap: square"/>
   </g>
   <g id="line2d_13">
    <path d="M 115.493722 147.01495 
L 143.683718 147.997608 
L 171.856625 149.201815 
L 187.004663 149.941118 
L 187.004663 149.941118 
" clip-path="url(#p8ff1eaa67b)" style="fill: none; stroke: #008000; stroke-width: 0.75; stroke-linecap: square"/>
   </g>
   <g id="line2d_14">
    <path d="M 115.493722 147.01495 
L 92.192967 122.126325 
L 70.716684 99.474697 
L 70.716684 99.474697 
" clip-path="url(#p8ff1eaa67b)" style="fill: none; stroke: #008000; stroke-width: 0.75; stroke-linecap: square"/>
   </g>
   <g id="line2d_15">
    <path d="M 70.716684 99.474697 
L 83.991006 67.471194 
L 83.991006 67.471194 
" clip-path="url(#p8ff1eaa67b)" style="fill: none; stroke: #008000; stroke-width: 0.75; stroke-linecap: square"/>
   </g>
   <g id="line2d_16">
    <path d="M 70.716684 99.474697 
L 98.219137 92.54407 
L 119.158343 87.42067 
L 119.158343 87.42067 
" clip-path="url(#p8ff1eaa67b)" style="fill: none; stroke: #008000; stroke-width: 0.75; stroke-linecap: square"/>
   </g>
   <g id="line2d_17">
    <path d="M 83.991006 67.471194 
L 61.065333 42.690548 
L 58.217143 39.634814 
L 58.217143 39.634814 
" clip-path="url(#p8ff1eaa67b)" style="fill: none; stroke: #008000; stroke-width: 0.75; stroke-linecap: square"/>
   </g>
   <g id="line2d_18">
    <path d="M 83.991006 67.471194 
L 111.733386 64.280187 
L 123.039192 63.043986 
L 123.039192 63.043986 
" clip-path="url(#p8ff1eaa67b)" style="fill: none; stroke: #008000; stroke-width: 0.75; stroke-linecap: square"/>
   </g>
   <g id="line2d_19">
    <path d="M 119.158343 87.42067 
L 146.642396 94.871331 
L 163.719153 99.617095 
L 163.719153 99.617095 
" clip-path="url(#p8ff1eaa67b)" style="fill: none; stroke: #008000; stroke-width: 0.75; stroke-linecap: square"/>
   </g>
   <g id="line2d_20">
    <path d="M 119.158343 87.42067 
L 123.039192 63.043986 
L 123.039192 63.043986 
" clip-path="url(#p8ff1eaa67b)" style="fill: none; stroke: #008000; stroke-width: 0.75; stroke-linecap: square"/>
   </g>
   <g id="line2d_21">
    <path d="M 192.623457 103.213292 
L 216.215393 124.844083 
L 216.215393 124.844083 
" clip-path="url(#p8ff1eaa67b)" style="fill: none; stroke: #008000; stroke-width: 0.75; stroke-linecap: square"/>
   </g>
   <g id="line2d_22">
    <path d="M 192.623457 103.213292 
L 164.729259 99.738709 
L 163.719153 99.617095 
L 163.719153 99.617095 
" clip-path="url(#p8ff1eaa67b)" style="fill: none; stroke: #008000; stroke-width: 0.75; stroke-linecap: square"/>
   </g>
   <g id="line2d_23">
    <path d="M 192.623457 103.213292 
L 204.005822 62.346754 
L 204.005822 62.346754 
" clip-path="url(#p8ff1eaa67b)" style="fill: none; stroke: #008000; stroke-width: 0.75; stroke-linecap: square"/>
   </g>
   <g id="line2d_24">
    <path d="M 192.623457 103.213292 
L 186.55346 125.669865 
L 186.55346 125.669865 
" clip-path="url(#p8ff1eaa67b)" style="fill: none; stroke: #008000; stroke-width: 0.75; stroke-linecap: square"/>
   </g>
   <g id="line2d_25">
    <path d="M 309.681148 99.442487 
L 313.302857 154.222964 
L 313.302857 154.222964 
" clip-path="url(#p8ff1eaa67b)" style="fill: none; stroke: #008000; stroke-width: 0.75; stroke-linecap: square"/>
   </g>
   <g id="line2d_26">
    <path d="M 313.302857 154.222964 
L 285.313416 148.773619 
L 273.618209 146.56383 
L 273.618209 146.56383 
" clip-path="url(#p8ff1eaa67b)" style="fill: none; stroke: #008000; stroke-width: 0.75; stroke-linecap: square"/>
   </g>
   <g id="line2d_27">
    <path d="M 313.302857 154.222964 
L 287.235542 138.24678 
L 268.872867 127.149287 
L 268.872867 127.149287 
" clip-path="url(#p8ff1eaa67b)" style="fill: none; stroke: #008000; stroke-width: 0.75; stroke-linecap: square"/>
   </g>
   <g id="line2d_28">
    <path d="M 313.302857 154.222964 
L 293.906112 159.737313 
L 293.906112 159.737313 
" clip-path="url(#p8ff1eaa67b)" style="fill: none; stroke: #008000; stroke-width: 0.75; stroke-linecap: square"/>
   </g>
   <g id="line2d_29">
    <path d="M 273.618209 146.56383 
L 268.872867 127.149287 
L 268.872867 127.149287 
" clip-path="url(#p8ff1eaa67b)" style="fill: none; stroke: #008000; stroke-width: 0.75; stroke-linecap: square"/>
   </g>
   <g id="line2d_30">
    <path d="M 268.872867 127.149287 
L 244.870485 104.640478 
L 239.75546 99.883229 
L 239.75546 99.883229 
" clip-path="url(#p8ff1eaa67b)" style="fill: none; stroke: #008000; stroke-width: 0.75; stroke-linecap: square"/>
   </g>
   <g id="line2d_31">
    <path d="M 268.872867 127.149287 
L 241.491939 136.120941 
L 223.946678 141.99255 
L 223.946678 141.99255 
" clip-path="url(#p8ff1eaa67b)" style="fill: none; stroke: #008000; stroke-width: 0.75; stroke-linecap: square"/>
   </g>
   <g id="line2d_32">
    <path d="M 272.461246 185.252029 
L 255.599239 182.76896 
L 255.599239 182.76896 
" clip-path="url(#p8ff1eaa67b)" style="fill: none; stroke: #008000; stroke-width: 0.75; stroke-linecap: square"/>
   </g>
   <g id="line2d_33">
    <path d="M 272.461246 185.252029 
L 293.906112 159.737313 
L 293.906112 159.737313 
" clip-path="url(#p8ff1eaa67b)" style="fill: none; stroke: #008000; stroke-width: 0.75; stroke-linecap: square"/>
   </g>
   <g id="line2d_34">
    <path d="M 186.55346 125.669865 
L 187.004663 149.941118 
L 187.004663 149.941118 
" clip-path="url(#p8ff1eaa67b)" style="fill: none; stroke: #008000; stroke-width: 0.75; stroke-linecap: square"/>
   </g>
   <g id="line2d_35">
    <path d="M 216.215393 124.844083 
L 210.382663 144.411724 
L 210.382663 144.411724 
" clip-path="url(#p8ff1eaa67b)" style="fill: none; stroke: #008000; stroke-width: 0.75; stroke-linecap: square"/>
   </g>
   <g id="line2d_36">
    <path d="M 204.005822 62.346754 
L 227.094049 86.50111 
L 239.75546 99.883229 
L 239.75546 99.883229 
" clip-path="url(#p8ff1eaa67b)" style="fill: none; stroke: #008000; stroke-width: 0.75; stroke-linecap: square"/>
   </g>
   <g id="line2d_37">
    <path d="M 223.946678 141.99255 
L 210.382663 144.411724 
L 210.382663 144.411724 
" clip-path="url(#p8ff1eaa67b)" style="fill: none; stroke: #008000; stroke-width: 0.75; stroke-linecap: square"/>
   </g>
   <g id="line2d_38">
    <path d="M 210.382663 144.411724 
L 187.004663 149.941118 
L 187.004663 149.941118 
" clip-path="url(#p8ff1eaa67b)" style="fill: none; stroke: #008000; stroke-width: 0.75; stroke-linecap: square"/>
   </g>
   <g id="patch_5">
    <path d="M 7.2 228.216035 
L 7.2 7.2 
" style="fill: none; stroke: #ffffff; stroke-linejoin: miter; stroke-linecap: square"/>
   </g>
   <g id="patch_6">
    <path d="M 364.32 228.216035 
L 364.32 7.2 
" style="fill: none; stroke: #ffffff; stroke-linejoin: miter; stroke-linecap: square"/>
   </g>
   <g id="patch_7">
    <path d="M 7.2 228.216035 
L 364.32 228.216035 
" style="fill: none; stroke: #ffffff; stroke-linejoin: miter; stroke-linecap: square"/>
   </g>
   <g id="patch_8">
    <path d="M 7.2 7.2 
L 364.32 7.2 
" style="fill: none; stroke: #ffffff; stroke-linejoin: miter; stroke-linecap: square"/>
   </g>
   <g id="PathCollection_1">
    <defs>
     <path id="m33ccbc3b09" d="M 0 1.118034 
C 0.296506 1.118034 0.580908 1.000231 0.790569 0.790569 
C 1.000231 0.580908 1.118034 0.296506 1.118034 0 
C 1.118034 -0.296506 1.000231 -0.580908 0.790569 -0.790569 
C 0.580908 -1.000231 0.296506 -1.118034 0 -1.118034 
C -0.296506 -1.118034 -0.580908 -1.000231 -0.790569 -0.790569 
C -1.000231 -0.580908 -1.118034 -0.296506 -1.118034 0 
C -1.118034 0.296506 -1.000231 0.580908 -0.790569 0.790569 
C -0.580908 1.000231 -0.296506 1.118034 0 1.118034 
z
" style="stroke: #ff0000"/>
    </defs>
    <g clip-path="url(#p8ff1eaa67b)">
     <use xlink:href="#m33ccbc3b09" x="236.757853" y="196.927181" style="fill: #ff0000; stroke: #ff0000"/>
    </g>
   </g>
   <g id="PathCollection_2">
    <g clip-path="url(#p8ff1eaa67b)">
     <use xlink:href="#m33ccbc3b09" x="89.986359" y="168.941174" style="fill: #ff0000; stroke: #ff0000"/>
    </g>
   </g>
   <g id="PathCollection_3">
    <g clip-path="url(#p8ff1eaa67b)">
     <use xlink:href="#m33ccbc3b09" x="227.198425" y="166.846202" style="fill: #ff0000; stroke: #ff0000"/>
    </g>
   </g>
   <g id="PathCollection_4">
    <g clip-path="url(#p8ff1eaa67b)">
     <use xlink:href="#m33ccbc3b09" x="236.908254" y="182.140612" style="fill: #ff0000; stroke: #ff0000"/>
    </g>
   </g>
   <g id="PathCollection_5">
    <g clip-path="url(#p8ff1eaa67b)">
     <use xlink:href="#m33ccbc3b09" x="155.664569" y="180.00905" style="fill: #ff0000; stroke: #ff0000"/>
    </g>
   </g>
   <g id="PathCollection_6">
    <g clip-path="url(#p8ff1eaa67b)">
     <use xlink:href="#m33ccbc3b09" x="180.489087" y="181.374078" style="fill: #ff0000; stroke: #ff0000"/>
    </g>
   </g>
   <g id="PathCollection_7">
    <g clip-path="url(#p8ff1eaa67b)">
     <use xlink:href="#m33ccbc3b09" x="124.717768" y="184.25768" style="fill: #ff0000; stroke: #ff0000"/>
    </g>
   </g>
   <g id="PathCollection_8">
    <g clip-path="url(#p8ff1eaa67b)">
     <use xlink:href="#m33ccbc3b09" x="115.493722" y="147.01495" style="fill: #ff0000; stroke: #ff0000"/>
    </g>
   </g>
   <g id="PathCollection_9">
    <g clip-path="url(#p8ff1eaa67b)">
     <use xlink:href="#m33ccbc3b09" x="127.460818" y="197.463357" style="fill: #ff0000; stroke: #ff0000"/>
    </g>
   </g>
   <g id="PathCollection_10">
    <g clip-path="url(#p8ff1eaa67b)">
     <use xlink:href="#m33ccbc3b09" x="70.716684" y="99.474697" style="fill: #ff0000; stroke: #ff0000"/>
    </g>
   </g>
   <g id="PathCollection_11">
    <defs>
     <path id="m842ef96333" d="M 0 1.118034 
C 0.296506 1.118034 0.580908 1.000231 0.790569 0.790569 
C 1.000231 0.580908 1.118034 0.296506 1.118034 0 
C 1.118034 -0.296506 1.000231 -0.580908 0.790569 -0.790569 
C 0.580908 -1.000231 0.296506 -1.118034 0 -1.118034 
C -0.296506 -1.118034 -0.580908 -1.000231 -0.790569 -0.790569 
C -1.000231 -0.580908 -1.118034 -0.296506 -1.118034 0 
C -1.118034 0.296506 -1.000231 0.580908 -0.790569 0.790569 
C -0.580908 1.000231 -0.296506 1.118034 0 1.118034 
z
" style="stroke: #ffff00"/>
    </defs>
    <g clip-path="url(#p8ff1eaa67b)">
     <use xlink:href="#m842ef96333" x="83.991006" y="67.471194" style="fill: #ffff00; stroke: #ffff00"/>
    </g>
   </g>
   <g id="PathCollection_12">
    <g clip-path="url(#p8ff1eaa67b)">
     <use xlink:href="#m842ef96333" x="119.158343" y="87.42067" style="fill: #ffff00; stroke: #ffff00"/>
    </g>
   </g>
   <g id="PathCollection_13">
    <g clip-path="url(#p8ff1eaa67b)">
     <use xlink:href="#m842ef96333" x="192.623457" y="103.213292" style="fill: #ffff00; stroke: #ffff00"/>
    </g>
   </g>
   <g id="PathCollection_14">
    <g clip-path="url(#p8ff1eaa67b)">
     <use xlink:href="#m33ccbc3b09" x="309.681148" y="99.442487" style="fill: #ff0000; stroke: #ff0000"/>
    </g>
   </g>
   <g id="PathCollection_15">
    <g clip-path="url(#p8ff1eaa67b)">
     <use xlink:href="#m33ccbc3b09" x="313.302857" y="154.222964" style="fill: #ff0000; stroke: #ff0000"/>
    </g>
   </g>
   <g id="PathCollection_16">
    <g clip-path="url(#p8ff1eaa67b)">
     <use xlink:href="#m33ccbc3b09" x="273.618209" y="146.56383" style="fill: #ff0000; stroke: #ff0000"/>
    </g>
   </g>
   <g id="PathCollection_17">
    <g clip-path="url(#p8ff1eaa67b)">
     <use xlink:href="#m33ccbc3b09" x="268.872867" y="127.149287" style="fill: #ff0000; stroke: #ff0000"/>
    </g>
   </g>
   <g id="PathCollection_18">
    <g clip-path="url(#p8ff1eaa67b)">
     <use xlink:href="#m33ccbc3b09" x="272.461246" y="185.252029" style="fill: #ff0000; stroke: #ff0000"/>
    </g>
   </g>
   <g id="PathCollection_19">
    <g clip-path="url(#p8ff1eaa67b)">
     <use xlink:href="#m33ccbc3b09" x="255.599239" y="182.76896" style="fill: #ff0000; stroke: #ff0000"/>
    </g>
   </g>
   <g id="PathCollection_20">
    <g clip-path="url(#p8ff1eaa67b)">
     <use xlink:href="#m33ccbc3b09" x="293.906112" y="159.737313" style="fill: #ff0000; stroke: #ff0000"/>
    </g>
   </g>
   <g id="PathCollection_21">
    <g clip-path="url(#p8ff1eaa67b)">
     <use xlink:href="#m33ccbc3b09" x="186.55346" y="125.669865" style="fill: #ff0000; stroke: #ff0000"/>
    </g>
   </g>
   <g id="PathCollection_22">
    <g clip-path="url(#p8ff1eaa67b)">
     <use xlink:href="#m33ccbc3b09" x="216.215393" y="124.844083" style="fill: #ff0000; stroke: #ff0000"/>
    </g>
   </g>
   <g id="PathCollection_23">
    <g clip-path="url(#p8ff1eaa67b)">
     <use xlink:href="#m33ccbc3b09" x="123.039192" y="63.043986" style="fill: #ff0000; stroke: #ff0000"/>
    </g>
   </g>
   <g id="PathCollection_24">
    <g clip-path="url(#p8ff1eaa67b)">
     <use xlink:href="#m33ccbc3b09" x="58.217143" y="39.634814" style="fill: #ff0000; stroke: #ff0000"/>
    </g>
   </g>
   <g id="PathCollection_25">
    <g clip-path="url(#p8ff1eaa67b)">
     <use xlink:href="#m33ccbc3b09" x="163.719153" y="99.617095" style="fill: #ff0000; stroke: #ff0000"/>
    </g>
   </g>
   <g id="PathCollection_26">
    <g clip-path="url(#p8ff1eaa67b)">
     <use xlink:href="#m33ccbc3b09" x="204.005822" y="62.346754" style="fill: #ff0000; stroke: #ff0000"/>
    </g>
   </g>
   <g id="PathCollection_27">
    <g clip-path="url(#p8ff1eaa67b)">
     <use xlink:href="#m33ccbc3b09" x="239.75546" y="99.883229" style="fill: #ff0000; stroke: #ff0000"/>
    </g>
   </g>
   <g id="PathCollection_28">
    <g clip-path="url(#p8ff1eaa67b)">
     <use xlink:href="#m33ccbc3b09" x="223.946678" y="141.99255" style="fill: #ff0000; stroke: #ff0000"/>
    </g>
   </g>
   <g id="PathCollection_29">
    <g clip-path="url(#p8ff1eaa67b)">
     <use xlink:href="#m33ccbc3b09" x="210.382663" y="144.411724" style="fill: #ff0000; stroke: #ff0000"/>
    </g>
   </g>
   <g id="PathCollection_30">
    <g clip-path="url(#p8ff1eaa67b)">
     <use xlink:href="#m33ccbc3b09" x="187.004663" y="149.941118" style="fill: #ff0000; stroke: #ff0000"/>
    </g>
   </g>
  </g>
 </g>
 <defs>
  <clipPath id="p8ff1eaa67b">
   <rect x="7.2" y="7.2" width="357.12" height="221.016035"/>
  </clipPath>
 </defs>
</svg>
