<?xml version="1.0" encoding="utf-8" standalone="no"?>
<!DOCTYPE svg PUBLIC "-//W3C//DTD SVG 1.1//EN"
  "http://www.w3.org/Graphics/SVG/1.1/DTD/svg11.dtd">
<svg xmlns:xlink="http://www.w3.org/1999/xlink" width="293.992171pt" height="280.512pt" viewBox="0 0 293.992171 280.512" xmlns="http://www.w3.org/2000/svg" version="1.1">
 <metadata>
  <rdf:RDF xmlns:dc="http://purl.org/dc/elements/1.1/" xmlns:cc="http://creativecommons.org/ns#" xmlns:rdf="http://www.w3.org/1999/02/22-rdf-syntax-ns#">
   <cc:Work>
    <dc:type rdf:resource="http://purl.org/dc/dcmitype/StillImage"/>
    <dc:date>2025-12-17T16:19:22.328446</dc:date>
    <dc:format>image/svg+xml</dc:format>
    <dc:creator>
     <cc:Agent>
      <dc:title>Matplotlib v3.10.6, https://matplotlib.org/</dc:title>
     </cc:Agent>
    </dc:creator>
   </cc:Work>
  </rdf:RDF>
 </metadata>
 <defs>
  <style type="text/css">*{stroke-linejoin: round; stroke-linecap: butt}</style>
 </defs>
 <g id="figure_1">
  <g id="patch_1">
   <path d="M -0 280.512 
L 293.992171 280.512 
L 293.992171 0 
L -0 0 
z
" style="fill: #ffffff"/>
  </g>
  <g id="axes_1">
   <g id="patch_2">
    <path d="M 7.2 273.312 
L 286.792171 273.312 
L 286.792171 7.2 
L 7.2 7.2 
z
" clip-path="url(#pb9126fb020)" style="fill: #add8e6; stroke: #ffffff; stroke-linejoin: miter"/>
   </g>
   <g id="patch_3">
    <path d="M 7.2 273.312 
L 286.792171 273.312 
L 286.792171 7.2 
L 7.2 7.2 
z
" clip-path="url(#pb9126fb020)" style="fill: #add8e6; stroke: #ffffff; stroke-linejoin: miter"/>
   </g>
   <g id="patch_4">
    <path d="M 7.2 273.312 
L 7.2 7.199996 
L 286.792166 7.199996 
L 286.792166 273.312 
z
" clip-path="url(#pb9126fb020)" style="fill: #d3d3d3"/>
   </g>
   <g id="matplotlib.axis_1"/>
   <g id="matplotlib.axis_2"/>
   <g id="LineCollection_1"/>
   <g id="LineCollection_2"/>
   <g id="LineCollection_3">
    <path d="M 204.04364 51.168105 
L 201.411174 62.894931 
L 202.103998 65.441591 
L 202.796821 67.986139 
L 203.489644 70.528581 
L 204.182204 73.068581 
L 204.875028 75.606828 
L 205.567851 78.142988 
L 206.255153 80.656896 
L 207.934756 82.224531 
L 209.61436 83.791372 
L 211.2937 85.35776 
L 212.973303 86.922675 
L 214.652907 88.487482 
L 216.33251 90.051499 
L 218.012114 91.614048 
L 219.691717 93.176491 
L 221.371058 94.737809 
L 223.050661 96.298344 
L 224.730265 97.858437 
L 226.409868 99.41741 
L 226.530816 99.529876 
L 227.29095 102.013626 
L 228.051084 104.495741 
L 228.811217 106.975548 
L 229.571088 109.453729 
L 230.331221 111.929951 
L 231.091355 114.404219 
L 231.851489 116.876539 
L 232.130984 117.784664 
L 238.592777 114.339292 
L 240.506652 115.34585 
L 242.420527 116.352086 
L 244.334665 117.357662 
L 246.24854 118.363254 
L 248.162415 119.368525 
L 249.314579 119.973491 
L 248.567855 122.44785 
L 247.820868 124.920267 
L 247.074144 127.391086 
L 246.32742 129.859975 
L 245.580696 132.326602 
L 244.833708 134.791311 
L 244.086984 137.254441 
L 243.34026 139.715662 
L 242.593536 142.174645 
L 241.846549 144.631729 
L 241.139265 146.95773 
L 242.869877 148.398283 
L 244.600226 149.837853 
L 246.330838 151.277108 
L 248.061187 152.715716 
L 249.791799 154.153344 
L 251.522148 155.590994 
L 253.25276 157.027333 
L 254.983109 158.463362 
L 255.307303 158.73215 
L 254.981795 161.717652 
L 258.696221 161.11091 
L 260.410006 162.57709 
L 262.123527 164.042269 
L 263.837312 165.507447 
L 265.551096 166.971294 
L 267.264881 168.434809 
L 268.978402 169.89766 
L 269.925217 170.705417 
L 272.912113 182.501729 
L 270.183678 188.738877 
L 274.826777 198.180356 
L 278.445234 200.506355 
L 278.847256 196.584827 
L 284.170032 202.207903 
L 283.60473 204.696105 
L 283.039165 207.182097 
L 282.473863 209.666543 
L 281.908562 212.149118 
L 281.342997 214.629501 
L 280.777695 217.108351 
L 280.455605 218.519795 
L 275.305312 216.32574 
L 271.390006 224.022614 
L 270.758182 219.377829 
L 268.307402 219.902165 
L 269.944411 227.151239 
L 266.45032 229.647194 
L 268.872178 231.832149 
L 264.315583 232.888883 
L 267.20651 237.502839 
L 262.946501 243.081066 
L 265.234527 247.527183 
L 262.324407 246.983792 
L 263.004083 250.716624 
L 255.068036 254.303776 
L 258.638639 257.981288 
L 255.776372 262.761038 
L 252.148187 262.302498 
L 253.210691 267.217198 
L 250.003721 265.113197 
L 247.505351 267.616675 
L 250.424937 269.072856 
L 247.737568 273.312 
" clip-path="url(#pb9126fb020)" style="fill: none; stroke: #ffffff; stroke-width: 0.3"/>
    <path d="M 204.04364 51.168105 
L 201.411174 62.894931 
L 202.103998 65.441591 
L 202.796821 67.986139 
L 203.489644 70.528581 
L 204.182204 73.068581 
L 204.875028 75.606828 
L 205.567851 78.142988 
L 206.255153 80.656896 
L 207.934756 82.224531 
L 209.61436 83.791372 
L 211.2937 85.35776 
L 212.973303 86.922675 
L 214.652907 88.487482 
L 216.33251 90.051499 
L 218.012114 91.614048 
L 219.691717 93.176491 
L 221.371058 94.737809 
L 223.050661 96.298344 
L 224.730265 97.858437 
L 226.409868 99.41741 
L 226.530816 99.529876 
L 227.29095 102.013626 
L 228.051084 104.495741 
L 228.811217 106.975548 
L 229.571088 109.453729 
L 230.331221 111.929951 
L 231.091355 114.404219 
L 231.851489 116.876539 
L 232.130984 117.784664 
L 238.592777 114.339292 
L 240.507441 115.34416 
L 242.421842 116.348031 
L 244.336506 117.352256 
L 246.250907 118.355486 
L 248.165571 119.359072 
L 249.314579 119.961002 
L 248.568118 122.435707 
L 247.821657 124.908471 
L 247.075196 127.379299 
L 246.328471 129.848197 
L 245.58201 132.314834 
L 244.835549 134.779887 
L 244.089088 137.243026 
L 243.342627 139.704257 
L 242.596165 142.163583 
L 241.849704 144.621011 
L 241.139265 146.95773 
L 242.869877 148.398283 
L 244.600226 149.837853 
L 246.330838 151.277108 
L 248.061187 152.715716 
L 249.791799 154.153344 
L 251.522148 155.590994 
L 253.25276 157.027333 
L 254.983109 158.463362 
L 255.307303 158.73215 
L 254.981795 161.717652 
L 258.696221 161.11091 
L 260.410006 162.57709 
L 262.123527 164.042269 
L 263.837312 165.507447 
L 265.551096 166.971294 
L 267.264881 168.434809 
L 268.978402 169.89766 
L 269.925217 170.705417 
L 272.912113 182.501729 
L 270.183678 188.738877 
L 274.826777 198.180356 
L 278.454963 200.506355 
L 278.856984 196.584827 
L 284.170032 202.207903 
L 283.60473 204.696105 
L 283.039165 207.182097 
L 282.473863 209.666543 
L 281.908562 212.149118 
L 281.342997 214.629501 
L 280.777695 217.108351 
L 280.455605 218.519795 
L 275.305312 216.32574 
L 271.390006 224.022614 
L 270.758182 219.377829 
L 268.307402 219.902165 
L 269.944411 227.151239 
L 266.45032 229.647194 
L 268.881907 231.832149 
L 264.315583 232.888883 
L 267.20651 237.502839 
L 262.946501 243.081066 
L 265.234527 247.527183 
L 262.324407 246.983792 
L 263.004083 250.716624 
L 255.068036 254.303776 
L 258.638639 257.981288 
L 255.776372 262.761038 
L 252.148187 262.302498 
L 253.210691 267.217198 
L 250.003721 265.113197 
L 247.505351 267.616675 
L 250.434665 269.072856 
L 247.737975 273.312 
" clip-path="url(#pb9126fb020)" style="fill: none; stroke: #ffffff; stroke-width: 0.3"/>
    <path d="M 273.486355 221.856074 
L 275.554044 221.856402 
L 277.621997 221.856729 
L 279.689687 221.857383 
L 281.757376 221.858037 
L 283.825329 221.858691 
L 285.893019 221.859018 
L 286.792171 221.85916 
" clip-path="url(#pb9126fb020)" style="fill: none; stroke: #ffffff; stroke-width: 0.3"/>
    <path d="M 273.486355 221.856074 
L 275.554044 221.856402 
L 277.621997 221.856729 
L 279.689687 221.857383 
L 281.757376 221.858037 
L 283.825329 221.858691 
L 285.893019 221.859018 
L 286.792171 221.85916 
" clip-path="url(#pb9126fb020)" style="fill: none; stroke: #ffffff; stroke-width: 0.3"/>
    <path d="M 7.2 200.31146 
L 8.208137 200.31146 
L 10.276089 200.311789 
L 12.343779 200.311789 
L 14.411468 200.311789 
L 16.479421 200.311789 
L 18.547111 200.311789 
L 20.6148 200.311789 
L 22.68249 200.311789 
L 24.750443 200.312118 
L 26.818132 200.312118 
L 28.885822 200.312447 
L 30.953774 200.312447 
L 33.021464 200.312447 
L 35.089154 200.312447 
L 37.157106 200.312447 
L 39.224796 200.312447 
L 41.292486 200.312447 
L 43.360438 200.312777 
L 45.428128 200.312777 
L 47.495817 200.313106 
L 49.56377 200.313106 
L 51.63146 200.313106 
L 53.699149 200.313106 
L 55.767102 200.313106 
L 57.834792 200.313106 
L 59.902481 200.313106 
L 61.970434 200.313435 
L 64.038123 200.313435 
L 66.105813 200.313764 
L 68.173766 200.313764 
L 70.241455 200.313764 
L 72.309145 200.313764 
L 74.376835 200.313764 
L 76.444787 200.313764 
L 78.512477 200.314093 
L 80.580166 200.314093 
L 82.648119 200.314093 
L 84.715809 200.314423 
L 86.783498 200.314423 
L 88.851451 200.314423 
L 90.91914 200.314423 
L 92.98683 200.314423 
L 94.518666 200.314423 
L 94.518666 197.724382 
L 94.518666 195.132292 
L 94.518666 192.538146 
L 94.518666 189.94161 
L 94.518666 187.343336 
L 94.518666 184.742657 
L 94.518666 182.14023 
L 94.518666 179.535717 
L 94.518666 176.929111 
L 94.518666 174.320408 
L 94.518666 171.709267 
L 94.518666 169.096016 
L 94.518666 166.480979 
L 94.518666 163.863819 
L 94.518666 161.244529 
L 94.518666 158.623104 
L 94.518666 155.999202 
L 94.518666 153.37315 
L 94.518666 150.745278 
L 94.518666 148.115243 
L 94.518666 145.483041 
L 94.518666 142.848663 
L 94.518666 140.21177 
L 94.518666 137.573024 
L 94.518666 134.931748 
L 94.518666 132.288607 
L 94.518666 129.643258 
L 94.518666 126.995696 
L 94.518666 124.345577 
L 94.518666 121.693567 
L 94.518666 119.038986 
L 94.518666 116.382501 
L 94.518666 113.72377 
L 94.518666 111.062784 
L 94.518666 108.399539 
L 94.518666 106.906399 
" clip-path="url(#pb9126fb020)" style="fill: none; stroke: #ffffff; stroke-width: 0.3"/>
    <path d="M 7.2 200.31146 
L 8.208137 200.31146 
L 10.276089 200.311789 
L 12.343779 200.311789 
L 14.411468 200.311789 
L 16.479421 200.311789 
L 18.547111 200.311789 
L 20.6148 200.311789 
L 22.68249 200.311789 
L 24.750443 200.312118 
L 26.818132 200.312118 
L 28.885822 200.312447 
L 30.953774 200.312447 
L 33.021464 200.312447 
L 35.089154 200.312447 
L 37.157106 200.312447 
L 39.224796 200.312447 
L 41.292486 200.312447 
L 43.360438 200.312777 
L 45.428128 200.312777 
L 47.495817 200.313106 
L 49.56377 200.313106 
L 51.63146 200.313106 
L 53.699149 200.313106 
L 55.767102 200.313106 
L 57.834792 200.313106 
L 59.902481 200.313106 
L 61.970434 200.313435 
L 64.038123 200.313435 
L 66.105813 200.313764 
L 68.173766 200.313764 
L 70.241455 200.313764 
L 72.309145 200.313764 
L 74.376835 200.313764 
L 76.444787 200.313764 
L 78.512477 200.314093 
L 80.580166 200.314093 
L 82.648119 200.314093 
L 84.715809 200.314423 
L 86.783498 200.314423 
L 88.851451 200.314423 
L 90.91914 200.314423 
L 92.98683 200.314423 
L 94.518666 200.314423 
L 94.518666 197.724382 
L 94.518666 195.132292 
L 94.518666 192.538146 
L 94.518666 189.94161 
L 94.518666 187.343336 
L 94.518666 184.742657 
L 94.518666 182.14023 
L 94.518666 179.535717 
L 94.518666 176.929111 
L 94.518666 174.320408 
L 94.518666 171.709267 
L 94.518666 169.096016 
L 94.518666 166.480979 
L 94.518666 163.863819 
L 94.518666 161.244529 
L 94.518666 158.623104 
L 94.518666 155.999202 
L 94.518666 153.37315 
L 94.518666 150.745278 
L 94.518666 148.115243 
L 94.518666 145.483041 
L 94.518666 142.848663 
L 94.518666 140.21177 
L 94.518666 137.573024 
L 94.518666 134.931748 
L 94.518666 132.288607 
L 94.518666 129.643258 
L 94.518666 126.995696 
L 94.518666 124.345577 
L 94.518666 121.693567 
L 94.518666 119.038986 
L 94.518666 116.382501 
L 94.518666 113.72377 
L 94.518666 111.062784 
L 94.518666 108.399539 
L 94.518666 106.906399 
" clip-path="url(#pb9126fb020)" style="fill: none; stroke: #ffffff; stroke-width: 0.3"/>
    <path d="M 48.427982 7.2 
L 48.453412 7.399061 
L 51.306214 8.890476 
L 51.314102 11.641691 
L 51.32199 14.390381 
L 51.329615 17.136553 
L 51.337503 19.880216 
L 51.345391 22.621725 
L 51.353279 25.360391 
L 51.360904 28.096918 
L 51.368792 30.830617 
L 51.376679 33.561845 
L 51.382727 35.684621 
L 57.557136 44.915976 
L 58.839977 54.220061 
L 65.253916 57.682975 
L 66.8528 66.447987 
L 68.666235 67.745167 
L 70.479934 69.0418 
L 72.293369 70.337885 
L 74.107067 71.633425 
L 75.920503 72.928419 
L 77.733938 74.222869 
L 77.880916 74.32769 
L 83.021481 72.668641 
L 85.433873 76.285053 
L 85.644481 80.233666 
L 82.533218 80.034338 
L 77.698968 88.450656 
L 79.01783 90.515303 
L 80.336429 92.578578 
L 81.655291 94.640824 
L 82.974153 96.701364 
L 84.293015 98.760541 
L 85.611615 100.818698 
L 86.930477 102.874819 
L 87.243102 103.362168 
L 94.518666 107.48632 
" clip-path="url(#pb9126fb020)" style="fill: none; stroke: #ffffff; stroke-width: 0.3"/>
    <path d="M 48.427982 7.2 
L 48.453412 7.399061 
L 51.306214 8.890476 
L 51.314102 11.641691 
L 51.32199 14.390381 
L 51.329615 17.136553 
L 51.337503 19.880216 
L 51.345391 22.621725 
L 51.353279 25.360391 
L 51.360904 28.096918 
L 51.368792 30.830617 
L 51.376679 33.561845 
L 51.382727 35.684621 
L 57.557136 44.915976 
L 58.839977 54.220061 
L 65.253916 57.682975 
L 66.8528 66.447987 
L 68.666235 67.745167 
L 70.479934 69.0418 
L 72.293369 70.337885 
L 74.107067 71.633425 
L 75.920503 72.928419 
L 77.733938 74.222869 
L 77.880916 74.32769 
L 83.021481 72.668641 
L 85.433873 76.285053 
L 85.654209 80.233666 
L 82.533218 80.034338 
L 77.698968 88.450656 
L 79.01783 90.515303 
L 80.336429 92.578578 
L 81.655291 94.640824 
L 82.974153 96.701364 
L 84.293015 98.760541 
L 85.611615 100.818698 
L 86.930477 102.874819 
L 87.243102 103.362168 
L 94.518666 107.48632 
" clip-path="url(#pb9126fb020)" style="fill: none; stroke: #ffffff; stroke-width: 0.3"/>
    <path d="M 55.068231 41.010168 
L 57.135921 40.992506 
L 59.20361 40.974845 
L 61.2713 40.95753 
L 63.339253 40.940215 
L 65.406942 40.922553 
L 67.474632 40.904891 
L 69.542322 40.887576 
L 71.610011 40.87026 
L 73.677701 40.852598 
L 75.745653 40.834936 
L 77.813343 40.81762 
L 79.881033 40.800304 
L 81.948722 40.782641 
L 84.016412 40.764979 
L 86.084102 40.747662 
L 88.152054 40.730346 
L 90.219744 40.712683 
L 92.287434 40.69502 
L 94.355123 40.677703 
L 96.422813 40.660386 
L 98.490502 40.642723 
L 100.558192 40.62506 
L 102.626145 40.607743 
L 104.693834 40.590425 
L 106.761524 40.572762 
L 108.829214 40.555098 
L 110.896903 40.53778 
L 112.964593 40.520463 
L 115.032545 40.502798 
L 117.100235 40.485134 
L 119.167925 40.467816 
L 121.235614 40.450498 
L 123.303304 40.432834 
L 125.370994 40.415169 
L 127.438946 40.397851 
L 129.506636 40.380532 
L 131.574326 40.362867 
L 133.642015 40.345202 
L 135.709705 40.327884 
L 137.777394 40.310565 
L 139.845084 40.292899 
L 141.913037 40.275234 
L 143.980726 40.257915 
L 146.048416 40.240595 
L 148.116106 40.22293 
L 150.183795 40.205264 
L 152.251485 40.187944 
L 154.319437 40.170625 
L 156.387127 40.152959 
L 158.454817 40.135292 
L 160.522506 40.117972 
L 162.590196 40.100652 
L 164.657886 40.082986 
L 166.725838 40.065319 
L 168.793528 40.047999 
L 170.861218 40.030678 
L 172.928907 40.013011 
L 174.996597 39.995344 
L 177.064286 39.978023 
L 179.131976 39.960703 
L 181.199929 39.943035 
L 183.267618 39.925368 
L 185.335308 39.908047 
L 187.402998 39.890725 
L 189.470687 39.873058 
L 191.538377 39.85539 
L 193.606329 39.838068 
L 193.704929 39.837375 
L 195.20942 41.705455 
L 196.714174 43.572731 
L 198.218666 45.438861 
L 199.723157 47.3035 
L 201.227911 49.167342 
L 201.726954 49.785147 
L 206.140252 50.514333 
L 205.048825 42.560495 
L 214.267713 37.780603 
L 215.385696 35.486183 
L 216.503416 33.190023 
L 217.621398 30.892465 
L 218.739381 28.592811 
L 219.857364 26.291402 
L 220.975084 23.988235 
L 221.016627 23.902564 
L 220.547558 18.026146 
L 215.607872 12.303578 
L 217.004139 7.2 
" clip-path="url(#pb9126fb020)" style="fill: none; stroke: #ffffff; stroke-width: 0.3"/>
    <path d="M 55.068231 41.010168 
L 57.135921 40.99216 
L 59.20361 40.974845 
L 61.2713 40.956837 
L 63.339253 40.939522 
L 65.406942 40.921514 
L 67.474632 40.903852 
L 69.542322 40.88619 
L 71.610011 40.868528 
L 73.677701 40.850866 
L 75.745653 40.833204 
L 77.813343 40.815542 
L 79.881033 40.797879 
L 81.948722 40.780217 
L 84.016412 40.762554 
L 86.084102 40.744892 
L 88.151791 40.727229 
L 90.219744 40.709566 
L 92.287434 40.691557 
L 94.355123 40.67424 
L 96.422813 40.65623 
L 98.490502 40.638913 
L 100.558192 40.620904 
L 102.626145 40.603586 
L 104.693834 40.585576 
L 106.761524 40.568259 
L 108.829214 40.550249 
L 110.896903 40.532931 
L 112.964593 40.514921 
L 115.032283 40.497257 
L 117.100235 40.479592 
L 119.167925 40.461928 
L 121.235614 40.444264 
L 123.303304 40.426599 
L 125.370994 40.408934 
L 127.438683 40.39127 
L 129.506636 40.373605 
L 131.574326 40.35594 
L 133.642015 40.338275 
L 135.709705 40.320263 
L 137.777394 40.302944 
L 139.845084 40.284933 
L 141.912774 40.267613 
L 143.980726 40.249602 
L 146.048416 40.232282 
L 148.116106 40.21427 
L 150.183795 40.196951 
L 152.251485 40.178938 
L 154.319175 40.161618 
L 156.387127 40.143606 
L 158.454817 40.12594 
L 160.522506 40.108273 
L 162.590196 40.090607 
L 164.657886 40.07294 
L 166.725575 40.055273 
L 168.793265 40.037606 
L 170.861218 40.01994 
L 172.928907 40.002273 
L 174.996597 39.984605 
L 177.064286 39.966938 
L 179.131976 39.949271 
L 181.199666 39.931603 
L 183.267618 39.913589 
L 185.335308 39.896268 
L 187.402998 39.878254 
L 189.470687 39.860933 
L 191.538377 39.842918 
L 193.606067 39.825597 
L 193.704929 39.824557 
L 195.208631 41.694376 
L 196.712334 43.562697 
L 198.216036 45.42987 
L 199.719739 47.295897 
L 201.223441 49.16078 
L 201.726954 49.785147 
L 206.140252 50.514333 
L 205.058554 42.560495 
L 214.267713 37.780603 
L 215.385696 35.486183 
L 216.503416 33.190023 
L 217.621398 30.892465 
L 218.739381 28.592811 
L 219.857364 26.291402 
L 220.975084 23.988235 
L 221.016627 23.902564 
L 220.547558 18.026146 
L 215.607872 12.303578 
L 217.004139 7.2 
" clip-path="url(#pb9126fb020)" style="fill: none; stroke: #ffffff; stroke-width: 0.3"/>
    <path d="M 286.792171 192.384381 
L 282.178855 197.136529 
L 283.614721 201.045877 
" clip-path="url(#pb9126fb020)" style="fill: none; stroke: #ffffff; stroke-width: 0.3"/>
    <path d="M 286.792171 192.384381 
L 282.178855 197.136529 
L 283.614721 201.045877 
" clip-path="url(#pb9126fb020)" style="fill: none; stroke: #ffffff; stroke-width: 0.3"/>
    <path d="M 100.59761 273.312 
L 100.631024 271.726188 
L 100.683873 269.225728 
L 100.35705 266.720205 
L 100.03049 264.212838 
L 99.703666 261.703943 
L 99.376843 259.193192 
L 99.050283 256.680257 
L 98.723459 254.165455 
L 98.396636 251.649105 
L 98.070076 249.130878 
L 97.743252 246.610444 
L 97.416429 244.08812 
L 97.089869 241.564228 
L 96.763046 239.038436 
L 96.436222 236.510413 
L 96.109662 233.98048 
L 95.782839 231.44863 
L 95.456015 228.915184 
L 95.129455 226.379811 
L 94.802632 223.842178 
L 94.53786 221.784443 
L 96.60555 221.78477 
L 98.673502 221.785424 
L 100.741192 221.786078 
L 102.808882 221.786405 
L 104.876834 221.786732 
L 106.944524 221.787387 
L 109.012214 221.788041 
L 111.080166 221.788368 
L 113.147856 221.788695 
L 115.215545 221.789349 
L 117.283498 221.789676 
L 119.351188 221.790003 
L 121.418877 221.790657 
L 123.486567 221.791312 
L 125.55452 221.791639 
L 127.622209 221.791966 
L 129.689899 221.79262 
L 131.757851 221.793274 
L 133.825541 221.793601 
L 135.893231 221.793928 
L 137.961183 221.794582 
L 140.028873 221.795237 
L 142.096563 221.795564 
L 144.164515 221.795891 
L 146.232205 221.796545 
L 148.299894 221.797199 
L 150.367847 221.797526 
L 152.435537 221.797853 
L 154.503226 221.798508 
L 156.571179 221.798835 
L 158.638868 221.799162 
L 160.706558 221.799816 
L 162.774511 221.80047 
L 164.8422 221.800797 
L 166.90989 221.801124 
L 168.977843 221.801778 
L 171.045532 221.802433 
L 173.113222 221.80276 
L 175.180911 221.803087 
L 177.248864 221.803741 
L 179.316554 221.804395 
L 181.384243 221.804722 
L 183.452196 221.805049 
L 185.519886 221.805703 
L 187.587575 221.806358 
L 189.655528 221.806685 
L 191.723217 221.807012 
L 193.790907 221.807666 
L 195.85886 221.80832 
L 197.926549 221.80832 
L 199.994239 221.808974 
L 202.062191 221.809628 
L 204.129881 221.809956 
L 206.197571 221.810283 
L 208.265523 221.810937 
L 210.333213 221.811591 
L 212.400903 221.811918 
L 214.468855 221.812245 
L 216.536545 221.812899 
L 218.604234 221.813554 
L 220.672187 221.813881 
L 222.739877 221.814208 
L 224.807566 221.814862 
L 226.875256 221.815516 
L 228.943209 221.815843 
L 231.010898 221.81617 
L 233.078588 221.816824 
L 235.14654 221.817479 
L 237.21423 221.817806 
L 239.28192 221.818133 
L 241.349872 221.818787 
L 243.417562 221.819114 
L 245.485252 221.819441 
L 247.553204 221.820095 
L 248.079592 221.820095 
L 251.277096 231.143674 
L 249.774971 232.906161 
L 248.272583 234.667393 
L 246.770458 236.427698 
L 245.268333 238.187077 
L 243.766208 239.945533 
L 242.263821 241.703067 
L 240.761696 243.460006 
L 240.478782 243.790812 
L 242.545946 243.734597 
L 244.613372 243.678056 
L 246.680536 243.621514 
L 248.747963 243.56497 
L 250.815127 243.508426 
L 252.88229 243.451881 
L 254.949717 243.395661 
L 257.016881 243.339114 
L 259.084308 243.282891 
L 261.151471 243.226342 
L 263.004083 243.175642 
" clip-path="url(#pb9126fb020)" style="fill: none; stroke: #ffffff; stroke-width: 0.3"/>
    <path d="M 94.518666 200.314423 
L 94.517615 202.90275 
L 94.5163 205.488711 
L 94.515248 208.072969 
L 94.514196 210.654874 
L 94.512882 213.23476 
L 94.51183 215.812634 
L 94.510778 218.3885 
L 94.509464 220.962693 
L 94.509201 221.820095 
L 96.57689 221.820095 
L 98.644843 221.820095 
L 100.712533 221.820095 
L 102.780222 221.820095 
L 104.848175 221.820095 
L 106.915864 221.820095 
L 108.983554 221.820095 
L 111.051507 221.820095 
L 113.119196 221.820095 
L 115.186886 221.820095 
L 117.254839 221.820095 
L 119.322528 221.820095 
L 121.390218 221.820095 
L 123.457907 221.820095 
L 125.52586 221.820095 
L 127.59355 221.820095 
L 129.661239 221.820095 
L 131.729192 221.820095 
L 133.796882 221.820095 
L 135.864571 221.820095 
L 137.932524 221.820095 
L 140.000213 221.820095 
L 142.067903 221.820095 
L 144.135856 221.820095 
L 146.203545 221.820095 
L 148.271235 221.820095 
L 150.339187 221.820095 
L 152.406877 221.820095 
L 154.474567 221.820095 
L 156.542519 221.820095 
L 158.610209 221.820095 
L 160.677899 221.820095 
L 162.745851 221.820095 
L 164.813541 221.820095 
L 166.88123 221.820095 
L 168.949183 221.820095 
L 171.016873 221.820095 
L 173.084562 221.820095 
L 175.152252 221.820095 
L 177.220205 221.820095 
L 179.287894 221.820095 
L 181.355584 221.820095 
L 183.423536 221.820095 
L 185.491226 221.820095 
L 187.558916 221.820095 
L 189.626868 221.820095 
L 191.694558 221.820095 
L 193.762248 221.820095 
L 195.8302 221.820095 
L 197.89789 221.820095 
L 199.965579 221.820095 
L 202.033532 221.820095 
L 204.101222 221.820095 
L 206.168911 221.820095 
L 208.236864 221.820095 
L 210.304554 221.820095 
L 212.372243 221.820095 
L 214.440196 221.820095 
L 216.507885 221.820095 
L 218.575575 221.820095 
L 220.643528 221.820095 
L 222.711217 221.820095 
L 224.778907 221.820095 
L 226.846597 221.820095 
L 228.914549 221.820095 
L 230.982239 221.820095 
L 233.049928 221.820095 
L 235.117881 221.820095 
L 237.185571 221.820095 
L 239.25326 221.820095 
L 241.321213 221.820095 
L 243.388902 221.820095 
L 245.456592 221.820095 
L 247.524545 221.820095 
L 248.079592 221.820095 
L 251.277096 231.143674 
L 249.774971 232.906161 
L 248.272583 234.667393 
L 246.770458 236.427698 
L 245.268333 238.187077 
L 243.766208 239.945533 
L 242.263821 241.703067 
L 240.761696 243.460006 
L 240.478782 243.790812 
L 242.545946 243.734597 
L 244.613372 243.678056 
L 246.680536 243.621514 
L 248.747963 243.56497 
L 250.815127 243.508426 
L 252.88229 243.451881 
L 254.949717 243.395661 
L 257.016881 243.339114 
L 259.084308 243.282891 
L 261.151471 243.226342 
L 263.004083 243.175642 
" clip-path="url(#pb9126fb020)" style="fill: none; stroke: #ffffff; stroke-width: 0.3"/>
    <path d="M 100.59761 273.312 
L 100.631024 271.726188 
L 100.683873 269.225728 
L 100.35705 266.720205 
L 100.03049 264.212838 
L 99.703666 261.703943 
L 99.376843 259.193192 
L 99.050283 256.680257 
L 98.723459 254.165455 
L 98.396636 251.649105 
L 98.070076 249.130878 
L 97.743252 246.610444 
L 97.416429 244.08812 
L 97.089869 241.564228 
L 96.763046 239.038436 
L 96.436222 236.510413 
L 96.109662 233.98048 
L 95.782839 231.44863 
L 95.456015 228.915184 
L 95.129455 226.379811 
L 94.802632 223.842178 
L 94.53786 221.784443 
" clip-path="url(#pb9126fb020)" style="fill: none; stroke: #ffffff; stroke-width: 0.3"/>
    <path d="M 7.2 68.166067 
L 8.849688 68.166341 
L 10.917641 68.166684 
L 12.985331 68.166684 
L 15.05302 68.167028 
L 17.120973 68.167371 
L 19.188662 68.167371 
L 21.256352 68.167714 
L 23.324042 68.168057 
L 25.391994 68.168057 
L 27.459684 68.1684 
L 29.527374 68.168744 
L 31.595326 68.168744 
L 33.663016 68.168744 
L 35.730705 68.16943 
L 37.798658 68.16943 
L 39.866348 68.16943 
L 41.934037 68.170117 
L 44.00199 68.170117 
L 46.06968 68.170117 
L 48.137369 68.170803 
L 50.205322 68.170803 
L 52.273011 68.170803 
L 54.340701 68.17149 
L 56.408654 68.17149 
L 58.476343 68.17149 
L 60.544033 68.171833 
L 62.611985 68.172176 
L 64.679675 68.172176 
L 66.747365 68.172519 
L 68.815317 68.172862 
L 70.883007 68.172862 
L 70.988179 68.172862 
" clip-path="url(#pb9126fb020)" style="fill: none; stroke: #ffffff; stroke-width: 0.3"/>
    <path d="M 7.2 68.166069 
L 8.83996 68.166341 
L 10.907912 68.166684 
L 12.975602 68.166684 
L 15.043292 68.167028 
L 17.111244 68.167371 
L 19.178934 68.167371 
L 21.246624 68.167714 
L 23.314313 68.168057 
L 25.382266 68.168057 
L 27.449955 68.1684 
L 29.517645 68.168744 
L 31.585598 68.168744 
L 33.653287 68.168744 
L 35.720977 68.16943 
L 37.78893 68.16943 
L 39.856619 68.16943 
L 41.924309 68.170117 
L 43.992261 68.170117 
L 46.059951 68.170117 
L 48.127641 68.170803 
L 50.195593 68.170803 
L 52.263283 68.170803 
L 54.330973 68.17149 
L 56.398925 68.17149 
L 58.466615 68.17149 
L 60.534304 68.171833 
L 62.602257 68.172176 
L 64.669947 68.172176 
L 66.737636 68.172519 
L 68.805589 68.172862 
L 70.873278 68.172862 
L 70.988179 68.172862 
" clip-path="url(#pb9126fb020)" style="fill: none; stroke: #ffffff; stroke-width: 0.3"/>
    <path d="M 94.509201 221.820095 
L 94.510252 219.246896 
L 94.511567 216.671697 
L 94.512619 214.094494 
L 94.513671 211.514951 
L 94.514985 208.93372 
L 94.516037 206.350137 
L 94.517089 203.764853 
L 94.518403 201.177535 
L 94.518666 200.314423 
" clip-path="url(#pb9126fb020)" style="fill: none; stroke: #ffffff; stroke-width: 0.3"/>
    <path d="M 268.699958 221.772667 
L 271.16967 221.74879 
" clip-path="url(#pb9126fb020)" style="fill: none; stroke: #ffffff; stroke-width: 0.3"/>
    <path d="M 268.699958 221.772667 
L 271.16967 221.74879 
" clip-path="url(#pb9126fb020)" style="fill: none; stroke: #ffffff; stroke-width: 0.3"/>
   </g>
   <g id="line2d_1">
    <path d="M 103.375536 152.642227 
L 100.015404 125.253115 
L 100.015404 125.253115 
" clip-path="url(#pb9126fb020)" style="fill: none; stroke: #008000; stroke-width: 0.75; stroke-linecap: square"/>
   </g>
   <g id="line2d_2">
    <path d="M 103.337282 96.472598 
L 95.879511 108.398925 
L 95.879511 108.398925 
" clip-path="url(#pb9126fb020)" style="fill: none; stroke: #008000; stroke-width: 0.75; stroke-linecap: square"/>
   </g>
   <g id="line2d_3">
    <path d="M 103.337282 96.472598 
L 104.447677 88.41314 
L 104.447677 88.41314 
" clip-path="url(#pb9126fb020)" style="fill: none; stroke: #008000; stroke-width: 0.75; stroke-linecap: square"/>
   </g>
   <g id="line2d_4">
    <path d="M 79.07816 48.050165 
L 85.750866 52.55043 
L 85.750866 52.55043 
" clip-path="url(#pb9126fb020)" style="fill: none; stroke: #008000; stroke-width: 0.75; stroke-linecap: square"/>
   </g>
   <g id="line2d_5">
    <path d="M 79.07816 48.050165 
L 78.791084 59.112211 
L 78.791084 59.112211 
" clip-path="url(#pb9126fb020)" style="fill: none; stroke: #008000; stroke-width: 0.75; stroke-linecap: square"/>
   </g>
   <g id="line2d_6">
    <path d="M 79.07816 48.050165 
L 63.540908 49.60938 
L 63.540908 49.60938 
" clip-path="url(#pb9126fb020)" style="fill: none; stroke: #008000; stroke-width: 0.75; stroke-linecap: square"/>
   </g>
   <g id="line2d_7">
    <path d="M 124.915191 123.326243 
L 102.648024 116.775974 
L 102.648024 116.775974 
" clip-path="url(#pb9126fb020)" style="fill: none; stroke: #008000; stroke-width: 0.75; stroke-linecap: square"/>
   </g>
   <g id="line2d_8">
    <path d="M 124.915191 123.326243 
L 142.415105 125.90324 
L 142.415105 125.90324 
" clip-path="url(#pb9126fb020)" style="fill: none; stroke: #008000; stroke-width: 0.75; stroke-linecap: square"/>
   </g>
   <g id="line2d_9">
    <path d="M 124.915191 123.326243 
L 125.566195 109.607481 
L 125.566195 109.607481 
" clip-path="url(#pb9126fb020)" style="fill: none; stroke: #008000; stroke-width: 0.75; stroke-linecap: square"/>
   </g>
   <g id="line2d_10">
    <path d="M 124.915191 123.326243 
L 137.303378 178.777095 
L 140.003391 190.997398 
L 140.003391 190.997398 
" clip-path="url(#pb9126fb020)" style="fill: none; stroke: #008000; stroke-width: 0.75; stroke-linecap: square"/>
   </g>
   <g id="line2d_11">
    <path d="M 124.915191 123.326243 
L 100.015404 125.253115 
L 100.015404 125.253115 
" clip-path="url(#pb9126fb020)" style="fill: none; stroke: #008000; stroke-width: 0.75; stroke-linecap: square"/>
   </g>
   <g id="line2d_12">
    <path d="M 125.566195 109.607481 
L 131.49209 108.595647 
L 131.49209 108.595647 
" clip-path="url(#pb9126fb020)" style="fill: none; stroke: #008000; stroke-width: 0.75; stroke-linecap: square"/>
   </g>
   <g id="line2d_13">
    <path d="M 92.356714 129.654747 
L 95.362568 127.019448 
L 95.362568 127.019448 
" clip-path="url(#pb9126fb020)" style="fill: none; stroke: #008000; stroke-width: 0.75; stroke-linecap: square"/>
   </g>
   <g id="line2d_14">
    <path d="M 100.015404 125.253115 
L 95.362568 127.019448 
L 95.362568 127.019448 
" clip-path="url(#pb9126fb020)" style="fill: none; stroke: #008000; stroke-width: 0.75; stroke-linecap: square"/>
   </g>
   <g id="line2d_15">
    <path d="M 142.751118 215.643182 
L 140.003391 190.997398 
L 140.003391 190.997398 
" clip-path="url(#pb9126fb020)" style="fill: none; stroke: #008000; stroke-width: 0.75; stroke-linecap: square"/>
   </g>
   <g id="line2d_16">
    <path d="M 246.850432 129.310235 
L 220.92647 121.636142 
L 199.287586 115.408453 
L 199.287586 115.408453 
" clip-path="url(#pb9126fb020)" style="fill: none; stroke: #008000; stroke-width: 0.75; stroke-linecap: square"/>
   </g>
   <g id="line2d_17">
    <path d="M 246.850432 129.310235 
L 244.961521 127.543859 
L 244.961521 127.543859 
" clip-path="url(#pb9126fb020)" style="fill: none; stroke: #008000; stroke-width: 0.75; stroke-linecap: square"/>
   </g>
   <g id="line2d_18">
    <path d="M 246.850432 129.310235 
L 222.080186 143.035113 
L 213.67886 147.747828 
L 213.67886 147.747828 
" clip-path="url(#pb9126fb020)" style="fill: none; stroke: #008000; stroke-width: 0.75; stroke-linecap: square"/>
   </g>
   <g id="line2d_19">
    <path d="M 102.648024 116.775974 
L 95.879511 108.398925 
L 95.879511 108.398925 
" clip-path="url(#pb9126fb020)" style="fill: none; stroke: #008000; stroke-width: 0.75; stroke-linecap: square"/>
   </g>
   <g id="line2d_20">
    <path d="M 142.415105 125.90324 
L 157.8662 128.061121 
L 157.8662 128.061121 
" clip-path="url(#pb9126fb020)" style="fill: none; stroke: #008000; stroke-width: 0.75; stroke-linecap: square"/>
   </g>
   <g id="line2d_21">
    <path d="M 142.415105 125.90324 
L 143.496895 107.361824 
L 143.496895 107.361824 
" clip-path="url(#pb9126fb020)" style="fill: none; stroke: #008000; stroke-width: 0.75; stroke-linecap: square"/>
   </g>
   <g id="line2d_22">
    <path d="M 213.67886 147.747828 
L 205.302309 154.113289 
L 205.302309 154.113289 
" clip-path="url(#pb9126fb020)" style="fill: none; stroke: #008000; stroke-width: 0.75; stroke-linecap: square"/>
   </g>
   <g id="line2d_23">
    <path d="M 206.97755 158.256652 
L 205.302309 154.113289 
L 205.302309 154.113289 
" clip-path="url(#pb9126fb020)" style="fill: none; stroke: #008000; stroke-width: 0.75; stroke-linecap: square"/>
   </g>
   <g id="line2d_24">
    <path d="M 157.8662 128.061121 
L 153.328815 118.374426 
L 153.328815 118.374426 
" clip-path="url(#pb9126fb020)" style="fill: none; stroke: #008000; stroke-width: 0.75; stroke-linecap: square"/>
   </g>
   <g id="line2d_25">
    <path d="M 157.8662 128.061121 
L 178.7645 131.540295 
L 178.7645 131.540295 
" clip-path="url(#pb9126fb020)" style="fill: none; stroke: #008000; stroke-width: 0.75; stroke-linecap: square"/>
   </g>
   <g id="line2d_26">
    <path d="M 205.302309 154.113289 
L 192.6272 158.985299 
L 192.6272 158.985299 
" clip-path="url(#pb9126fb020)" style="fill: none; stroke: #008000; stroke-width: 0.75; stroke-linecap: square"/>
   </g>
   <g id="line2d_27">
    <path d="M 165.95602 93.225173 
L 169.641482 94.216575 
L 169.641482 94.216575 
" clip-path="url(#pb9126fb020)" style="fill: none; stroke: #008000; stroke-width: 0.75; stroke-linecap: square"/>
   </g>
   <g id="line2d_28">
    <path d="M 165.95602 93.225173 
L 165.304671 79.522398 
L 165.304671 79.522398 
" clip-path="url(#pb9126fb020)" style="fill: none; stroke: #008000; stroke-width: 0.75; stroke-linecap: square"/>
   </g>
   <g id="line2d_29">
    <path d="M 165.95602 93.225173 
L 139.807053 96.124522 
L 133.195935 96.892941 
L 133.195935 96.892941 
" clip-path="url(#pb9126fb020)" style="fill: none; stroke: #008000; stroke-width: 0.75; stroke-linecap: square"/>
   </g>
   <g id="line2d_30">
    <path d="M 169.641482 94.216575 
L 173.231482 114.965332 
L 173.231482 114.965332 
" clip-path="url(#pb9126fb020)" style="fill: none; stroke: #008000; stroke-width: 0.75; stroke-linecap: square"/>
   </g>
   <g id="line2d_31">
    <path d="M 169.641482 94.216575 
L 188.778384 105.287478 
L 188.778384 105.287478 
" clip-path="url(#pb9126fb020)" style="fill: none; stroke: #008000; stroke-width: 0.75; stroke-linecap: square"/>
   </g>
   <g id="line2d_32">
    <path d="M 169.641482 94.216575 
L 184.700389 91.427172 
L 184.700389 91.427172 
" clip-path="url(#pb9126fb020)" style="fill: none; stroke: #008000; stroke-width: 0.75; stroke-linecap: square"/>
   </g>
   <g id="line2d_33">
    <path d="M 151.892401 56.051469 
L 164.644018 59.386535 
L 164.644018 59.386535 
" clip-path="url(#pb9126fb020)" style="fill: none; stroke: #008000; stroke-width: 0.75; stroke-linecap: square"/>
   </g>
   <g id="line2d_34">
    <path d="M 151.892401 56.051469 
L 150.169257 46.627432 
L 150.169257 46.627432 
" clip-path="url(#pb9126fb020)" style="fill: none; stroke: #008000; stroke-width: 0.75; stroke-linecap: square"/>
   </g>
   <g id="line2d_35">
    <path d="M 164.644018 59.386535 
L 174.332227 61.403055 
L 174.332227 61.403055 
" clip-path="url(#pb9126fb020)" style="fill: none; stroke: #008000; stroke-width: 0.75; stroke-linecap: square"/>
   </g>
   <g id="line2d_36">
    <path d="M 174.332227 61.403055 
L 168.16716 72.716674 
L 168.16716 72.716674 
" clip-path="url(#pb9126fb020)" style="fill: none; stroke: #008000; stroke-width: 0.75; stroke-linecap: square"/>
   </g>
   <g id="line2d_37">
    <path d="M 206.853139 81.252061 
L 197.097842 80.185998 
L 197.097842 80.185998 
" clip-path="url(#pb9126fb020)" style="fill: none; stroke: #008000; stroke-width: 0.75; stroke-linecap: square"/>
   </g>
   <g id="line2d_38">
    <path d="M 206.853139 81.252061 
L 205.388466 86.75992 
L 205.388466 86.75992 
" clip-path="url(#pb9126fb020)" style="fill: none; stroke: #008000; stroke-width: 0.75; stroke-linecap: square"/>
   </g>
   <g id="line2d_39">
    <path d="M 201.176066 77.404707 
L 197.097842 80.185998 
L 197.097842 80.185998 
" clip-path="url(#pb9126fb020)" style="fill: none; stroke: #008000; stroke-width: 0.75; stroke-linecap: square"/>
   </g>
   <g id="line2d_40">
    <path d="M 205.388466 86.75992 
L 202.372618 99.008505 
L 202.372618 99.008505 
" clip-path="url(#pb9126fb020)" style="fill: none; stroke: #008000; stroke-width: 0.75; stroke-linecap: square"/>
   </g>
   <g id="line2d_41">
    <path d="M 168.16716 72.716674 
L 165.304671 79.522398 
L 165.304671 79.522398 
" clip-path="url(#pb9126fb020)" style="fill: none; stroke: #008000; stroke-width: 0.75; stroke-linecap: square"/>
   </g>
   <g id="line2d_42">
    <path d="M 192.6272 158.985299 
L 178.7645 131.540295 
L 178.7645 131.540295 
" clip-path="url(#pb9126fb020)" style="fill: none; stroke: #008000; stroke-width: 0.75; stroke-linecap: square"/>
   </g>
   <g id="line2d_43">
    <path d="M 153.328815 118.374426 
L 143.496895 107.361824 
L 143.496895 107.361824 
" clip-path="url(#pb9126fb020)" style="fill: none; stroke: #008000; stroke-width: 0.75; stroke-linecap: square"/>
   </g>
   <g id="line2d_44">
    <path d="M 178.7645 131.540295 
L 173.231482 114.965332 
L 173.231482 114.965332 
" clip-path="url(#pb9126fb020)" style="fill: none; stroke: #008000; stroke-width: 0.75; stroke-linecap: square"/>
   </g>
   <g id="line2d_45">
    <path d="M 178.7645 131.540295 
L 189.075109 127.202207 
L 189.075109 127.202207 
" clip-path="url(#pb9126fb020)" style="fill: none; stroke: #008000; stroke-width: 0.75; stroke-linecap: square"/>
   </g>
   <g id="line2d_46">
    <path d="M 80.383615 181.000684 
L 61.098194 213.106843 
L 47.141739 236.609908 
L 47.141739 236.609908 
" clip-path="url(#pb9126fb020)" style="fill: none; stroke: #008000; stroke-width: 0.75; stroke-linecap: square"/>
   </g>
   <g id="line2d_47">
    <path d="M 80.383615 181.000684 
L 98.129594 196.665843 
L 98.129594 196.665843 
" clip-path="url(#pb9126fb020)" style="fill: none; stroke: #008000; stroke-width: 0.75; stroke-linecap: square"/>
   </g>
   <g id="line2d_48">
    <path d="M 80.383615 181.000684 
L 92.5747 123.737193 
L 95.879511 108.398925 
L 95.879511 108.398925 
" clip-path="url(#pb9126fb020)" style="fill: none; stroke: #008000; stroke-width: 0.75; stroke-linecap: square"/>
   </g>
   <g id="line2d_49">
    <path d="M 199.287586 115.408453 
L 188.778384 105.287478 
L 188.778384 105.287478 
" clip-path="url(#pb9126fb020)" style="fill: none; stroke: #008000; stroke-width: 0.75; stroke-linecap: square"/>
   </g>
   <g id="line2d_50">
    <path d="M 199.287586 115.408453 
L 188.290045 112.021865 
L 188.290045 112.021865 
" clip-path="url(#pb9126fb020)" style="fill: none; stroke: #008000; stroke-width: 0.75; stroke-linecap: square"/>
   </g>
   <g id="line2d_51">
    <path d="M 199.287586 115.408453 
L 173.231482 114.965332 
L 173.231482 114.965332 
" clip-path="url(#pb9126fb020)" style="fill: none; stroke: #008000; stroke-width: 0.75; stroke-linecap: square"/>
   </g>
   <g id="line2d_52">
    <path d="M 197.097842 80.185998 
L 183.264321 81.899316 
L 183.264321 81.899316 
" clip-path="url(#pb9126fb020)" style="fill: none; stroke: #008000; stroke-width: 0.75; stroke-linecap: square"/>
   </g>
   <g id="line2d_53">
    <path d="M 95.362568 127.019448 
L 78.399478 165.06616 
L 61.473011 203.576449 
L 47.141739 236.609908 
L 47.141739 236.609908 
" clip-path="url(#pb9126fb020)" style="fill: none; stroke: #008000; stroke-width: 0.75; stroke-linecap: square"/>
   </g>
   <g id="line2d_54">
    <path d="M 95.362568 127.019448 
L 95.879511 108.398925 
L 95.879511 108.398925 
" clip-path="url(#pb9126fb020)" style="fill: none; stroke: #008000; stroke-width: 0.75; stroke-linecap: square"/>
   </g>
   <g id="line2d_55">
    <path d="M 47.141739 236.609908 
L 71.274959 217.54519 
L 95.30031 198.84897 
L 98.129594 196.665843 
L 98.129594 196.665843 
" clip-path="url(#pb9126fb020)" style="fill: none; stroke: #008000; stroke-width: 0.75; stroke-linecap: square"/>
   </g>
   <g id="line2d_56">
    <path d="M 98.129594 196.665843 
L 124.949848 192.972052 
L 140.003391 190.997398 
L 140.003391 190.997398 
" clip-path="url(#pb9126fb020)" style="fill: none; stroke: #008000; stroke-width: 0.75; stroke-linecap: square"/>
   </g>
   <g id="line2d_57">
    <path d="M 183.264321 81.899316 
L 184.700389 91.427172 
L 184.700389 91.427172 
" clip-path="url(#pb9126fb020)" style="fill: none; stroke: #008000; stroke-width: 0.75; stroke-linecap: square"/>
   </g>
   <g id="line2d_58">
    <path d="M 199.405018 100.715325 
L 202.372618 99.008505 
L 202.372618 99.008505 
" clip-path="url(#pb9126fb020)" style="fill: none; stroke: #008000; stroke-width: 0.75; stroke-linecap: square"/>
   </g>
   <g id="line2d_59">
    <path d="M 199.405018 100.715325 
L 188.778384 105.287478 
L 188.778384 105.287478 
" clip-path="url(#pb9126fb020)" style="fill: none; stroke: #008000; stroke-width: 0.75; stroke-linecap: square"/>
   </g>
   <g id="line2d_60">
    <path d="M 173.231482 114.965332 
L 188.290045 112.021865 
L 188.290045 112.021865 
" clip-path="url(#pb9126fb020)" style="fill: none; stroke: #008000; stroke-width: 0.75; stroke-linecap: square"/>
   </g>
   <g id="line2d_61">
    <path d="M 189.075109 127.202207 
L 188.290045 112.021865 
L 188.290045 112.021865 
" clip-path="url(#pb9126fb020)" style="fill: none; stroke: #008000; stroke-width: 0.75; stroke-linecap: square"/>
   </g>
   <g id="line2d_62">
    <path d="M 143.774322 73.615871 
L 131.242923 77.356265 
L 131.242923 77.356265 
" clip-path="url(#pb9126fb020)" style="fill: none; stroke: #008000; stroke-width: 0.75; stroke-linecap: square"/>
   </g>
   <g id="line2d_63">
    <path d="M 143.774322 73.615871 
L 129.031439 64.60889 
L 129.031439 64.60889 
" clip-path="url(#pb9126fb020)" style="fill: none; stroke: #008000; stroke-width: 0.75; stroke-linecap: square"/>
   </g>
   <g id="line2d_64">
    <path d="M 150.169257 46.627432 
L 130.275894 50.074184 
L 130.275894 50.074184 
" clip-path="url(#pb9126fb020)" style="fill: none; stroke: #008000; stroke-width: 0.75; stroke-linecap: square"/>
   </g>
   <g id="line2d_65">
    <path d="M 131.49209 108.595647 
L 143.496895 107.361824 
L 143.496895 107.361824 
" clip-path="url(#pb9126fb020)" style="fill: none; stroke: #008000; stroke-width: 0.75; stroke-linecap: square"/>
   </g>
   <g id="line2d_66">
    <path d="M 133.195935 96.892941 
L 135.110694 88.958805 
L 135.110694 88.958805 
" clip-path="url(#pb9126fb020)" style="fill: none; stroke: #008000; stroke-width: 0.75; stroke-linecap: square"/>
   </g>
   <g id="line2d_67">
    <path d="M 133.195935 96.892941 
L 107.466024 89.289819 
L 104.447677 88.41314 
L 104.447677 88.41314 
" clip-path="url(#pb9126fb020)" style="fill: none; stroke: #008000; stroke-width: 0.75; stroke-linecap: square"/>
   </g>
   <g id="line2d_68">
    <path d="M 135.110694 88.958805 
L 131.242923 77.356265 
L 131.242923 77.356265 
" clip-path="url(#pb9126fb020)" style="fill: none; stroke: #008000; stroke-width: 0.75; stroke-linecap: square"/>
   </g>
   <g id="line2d_69">
    <path d="M 130.275894 50.074184 
L 114.843754 56.065019 
L 114.843754 56.065019 
" clip-path="url(#pb9126fb020)" style="fill: none; stroke: #008000; stroke-width: 0.75; stroke-linecap: square"/>
   </g>
   <g id="line2d_70">
    <path d="M 130.275894 50.074184 
L 129.031439 64.60889 
L 129.031439 64.60889 
" clip-path="url(#pb9126fb020)" style="fill: none; stroke: #008000; stroke-width: 0.75; stroke-linecap: square"/>
   </g>
   <g id="line2d_71">
    <path d="M 87.20589 70.783993 
L 78.791084 59.112211 
L 78.791084 59.112211 
" clip-path="url(#pb9126fb020)" style="fill: none; stroke: #008000; stroke-width: 0.75; stroke-linecap: square"/>
   </g>
   <g id="line2d_72">
    <path d="M 87.20589 70.783993 
L 86.641387 78.552736 
L 86.641387 78.552736 
" clip-path="url(#pb9126fb020)" style="fill: none; stroke: #008000; stroke-width: 0.75; stroke-linecap: square"/>
   </g>
   <g id="line2d_73">
    <path d="M 85.750866 52.55043 
L 104.409078 56.955565 
L 104.409078 56.955565 
" clip-path="url(#pb9126fb020)" style="fill: none; stroke: #008000; stroke-width: 0.75; stroke-linecap: square"/>
   </g>
   <g id="line2d_74">
    <path d="M 78.791084 59.112211 
L 104.409078 56.955565 
L 104.409078 56.955565 
" clip-path="url(#pb9126fb020)" style="fill: none; stroke: #008000; stroke-width: 0.75; stroke-linecap: square"/>
   </g>
   <g id="line2d_75">
    <path d="M 63.540908 49.60938 
L 76.359382 68.747995 
L 76.359382 68.747995 
" clip-path="url(#pb9126fb020)" style="fill: none; stroke: #008000; stroke-width: 0.75; stroke-linecap: square"/>
   </g>
   <g id="line2d_76">
    <path d="M 76.359382 68.747995 
L 86.641387 78.552736 
L 86.641387 78.552736 
" clip-path="url(#pb9126fb020)" style="fill: none; stroke: #008000; stroke-width: 0.75; stroke-linecap: square"/>
   </g>
   <g id="line2d_77">
    <path d="M 86.641387 78.552736 
L 95.879511 108.398925 
L 95.879511 108.398925 
" clip-path="url(#pb9126fb020)" style="fill: none; stroke: #008000; stroke-width: 0.75; stroke-linecap: square"/>
   </g>
   <g id="line2d_78">
    <path d="M 104.447677 88.41314 
L 107.511083 79.822694 
L 107.511083 79.822694 
" clip-path="url(#pb9126fb020)" style="fill: none; stroke: #008000; stroke-width: 0.75; stroke-linecap: square"/>
   </g>
   <g id="line2d_79">
    <path d="M 107.511083 79.822694 
L 114.843754 56.065019 
L 114.843754 56.065019 
" clip-path="url(#pb9126fb020)" style="fill: none; stroke: #008000; stroke-width: 0.75; stroke-linecap: square"/>
   </g>
   <g id="line2d_80">
    <path d="M 104.409078 56.955565 
L 114.843754 56.065019 
L 114.843754 56.065019 
" clip-path="url(#pb9126fb020)" style="fill: none; stroke: #008000; stroke-width: 0.75; stroke-linecap: square"/>
   </g>
   <g id="patch_5">
    <path d="M 7.2 273.312 
L 7.2 7.2 
" style="fill: none; stroke: #ffffff; stroke-linejoin: miter; stroke-linecap: square"/>
   </g>
   <g id="patch_6">
    <path d="M 286.792171 273.312 
L 286.792171 7.2 
" style="fill: none; stroke: #ffffff; stroke-linejoin: miter; stroke-linecap: square"/>
   </g>
   <g id="patch_7">
    <path d="M 7.2 273.312 
L 286.792171 273.312 
" style="fill: none; stroke: #ffffff; stroke-linejoin: miter; stroke-linecap: square"/>
   </g>
   <g id="patch_8">
    <path d="M 7.2 7.2 
L 286.792171 7.2 
" style="fill: none; stroke: #ffffff; stroke-linejoin: miter; stroke-linecap: square"/>
   </g>
   <g id="PathCollection_1">
    <defs>
     <path id="me5dff93e72" d="M 0 1.118034 
C 0.296506 1.118034 0.580908 1.000231 0.790569 0.790569 
C 1.000231 0.580908 1.118034 0.296506 1.118034 0 
C 1.118034 -0.296506 1.000231 -0.580908 0.790569 -0.790569 
C 0.580908 -1.000231 0.296506 -1.118034 0 -1.118034 
C -0.296506 -1.118034 -0.580908 -1.000231 -0.790569 -0.790569 
C -1.000231 -0.580908 -1.118034 -0.296506 -1.118034 0 
C -1.118034 0.296506 -1.000231 0.580908 -0.790569 0.790569 
C -0.580908 1.000231 -0.296506 1.118034 0 1.118034 
z
" style="stroke: #ff0000"/>
    </defs>
    <g clip-path="url(#pb9126fb020)">
     <use xlink:href="#me5dff93e72" x="103.375536" y="152.642227" style="fill: #ff0000; stroke: #ff0000"/>
    </g>
   </g>
   <g id="PathCollection_2">
    <g clip-path="url(#pb9126fb020)">
     <use xlink:href="#me5dff93e72" x="103.337282" y="96.472598" style="fill: #ff0000; stroke: #ff0000"/>
    </g>
   </g>
   <g id="PathCollection_3">
    <g clip-path="url(#pb9126fb020)">
     <use xlink:href="#me5dff93e72" x="79.07816" y="48.050165" style="fill: #ff0000; stroke: #ff0000"/>
    </g>
   </g>
   <g id="PathCollection_4">
    <g clip-path="url(#pb9126fb020)">
     <use xlink:href="#me5dff93e72" x="124.915191" y="123.326243" style="fill: #ff0000; stroke: #ff0000"/>
    </g>
   </g>
   <g id="PathCollection_5">
    <g clip-path="url(#pb9126fb020)">
     <use xlink:href="#me5dff93e72" x="125.566195" y="109.607481" style="fill: #ff0000; stroke: #ff0000"/>
    </g>
   </g>
   <g id="PathCollection_6">
    <g clip-path="url(#pb9126fb020)">
     <use xlink:href="#me5dff93e72" x="92.356714" y="129.654747" style="fill: #ff0000; stroke: #ff0000"/>
    </g>
   </g>
   <g id="PathCollection_7">
    <g clip-path="url(#pb9126fb020)">
     <use xlink:href="#me5dff93e72" x="100.015404" y="125.253115" style="fill: #ff0000; stroke: #ff0000"/>
    </g>
   </g>
   <g id="PathCollection_8">
    <g clip-path="url(#pb9126fb020)">
     <use xlink:href="#me5dff93e72" x="142.751118" y="215.643182" style="fill: #ff0000; stroke: #ff0000"/>
    </g>
   </g>
   <g id="PathCollection_9">
    <g clip-path="url(#pb9126fb020)">
     <use xlink:href="#me5dff93e72" x="246.850432" y="129.310235" style="fill: #ff0000; stroke: #ff0000"/>
    </g>
   </g>
   <g id="PathCollection_10">
    <g clip-path="url(#pb9126fb020)">
     <use xlink:href="#me5dff93e72" x="102.648024" y="116.775974" style="fill: #ff0000; stroke: #ff0000"/>
    </g>
   </g>
   <g id="PathCollection_11">
    <g clip-path="url(#pb9126fb020)">
     <use xlink:href="#me5dff93e72" x="142.415105" y="125.90324" style="fill: #ff0000; stroke: #ff0000"/>
    </g>
   </g>
   <g id="PathCollection_12">
    <g clip-path="url(#pb9126fb020)">
     <use xlink:href="#me5dff93e72" x="213.67886" y="147.747828" style="fill: #ff0000; stroke: #ff0000"/>
    </g>
   </g>
   <g id="PathCollection_13">
    <g clip-path="url(#pb9126fb020)">
     <use xlink:href="#me5dff93e72" x="206.97755" y="158.256652" style="fill: #ff0000; stroke: #ff0000"/>
    </g>
   </g>
   <g id="PathCollection_14">
    <g clip-path="url(#pb9126fb020)">
     <use xlink:href="#me5dff93e72" x="157.8662" y="128.061121" style="fill: #ff0000; stroke: #ff0000"/>
    </g>
   </g>
   <g id="PathCollection_15">
    <g clip-path="url(#pb9126fb020)">
     <use xlink:href="#me5dff93e72" x="205.302309" y="154.113289" style="fill: #ff0000; stroke: #ff0000"/>
    </g>
   </g>
   <g id="PathCollection_16">
    <g clip-path="url(#pb9126fb020)">
     <use xlink:href="#me5dff93e72" x="165.95602" y="93.225173" style="fill: #ff0000; stroke: #ff0000"/>
    </g>
   </g>
   <g id="PathCollection_17">
    <g clip-path="url(#pb9126fb020)">
     <use xlink:href="#me5dff93e72" x="169.641482" y="94.216575" style="fill: #ff0000; stroke: #ff0000"/>
    </g>
   </g>
   <g id="PathCollection_18">
    <g clip-path="url(#pb9126fb020)">
     <use xlink:href="#me5dff93e72" x="151.892401" y="56.051469" style="fill: #ff0000; stroke: #ff0000"/>
    </g>
   </g>
   <g id="PathCollection_19">
    <g clip-path="url(#pb9126fb020)">
     <use xlink:href="#me5dff93e72" x="164.644018" y="59.386535" style="fill: #ff0000; stroke: #ff0000"/>
    </g>
   </g>
   <g id="PathCollection_20">
    <g clip-path="url(#pb9126fb020)">
     <use xlink:href="#me5dff93e72" x="174.332227" y="61.403055" style="fill: #ff0000; stroke: #ff0000"/>
    </g>
   </g>
   <g id="PathCollection_21">
    <g clip-path="url(#pb9126fb020)">
     <use xlink:href="#me5dff93e72" x="206.853139" y="81.252061" style="fill: #ff0000; stroke: #ff0000"/>
    </g>
   </g>
   <g id="PathCollection_22">
    <g clip-path="url(#pb9126fb020)">
     <use xlink:href="#me5dff93e72" x="201.176066" y="77.404707" style="fill: #ff0000; stroke: #ff0000"/>
    </g>
   </g>
   <g id="PathCollection_23">
    <g clip-path="url(#pb9126fb020)">
     <use xlink:href="#me5dff93e72" x="205.388466" y="86.75992" style="fill: #ff0000; stroke: #ff0000"/>
    </g>
   </g>
   <g id="PathCollection_24">
    <g clip-path="url(#pb9126fb020)">
     <use xlink:href="#me5dff93e72" x="168.16716" y="72.716674" style="fill: #ff0000; stroke: #ff0000"/>
    </g>
   </g>
   <g id="PathCollection_25">
    <g clip-path="url(#pb9126fb020)">
     <use xlink:href="#me5dff93e72" x="165.304671" y="79.522398" style="fill: #ff0000; stroke: #ff0000"/>
    </g>
   </g>
   <g id="PathCollection_26">
    <g clip-path="url(#pb9126fb020)">
     <use xlink:href="#me5dff93e72" x="244.961521" y="127.543859" style="fill: #ff0000; stroke: #ff0000"/>
    </g>
   </g>
   <g id="PathCollection_27">
    <g clip-path="url(#pb9126fb020)">
     <use xlink:href="#me5dff93e72" x="192.6272" y="158.985299" style="fill: #ff0000; stroke: #ff0000"/>
    </g>
   </g>
   <g id="PathCollection_28">
    <g clip-path="url(#pb9126fb020)">
     <use xlink:href="#me5dff93e72" x="153.328815" y="118.374426" style="fill: #ff0000; stroke: #ff0000"/>
    </g>
   </g>
   <g id="PathCollection_29">
    <g clip-path="url(#pb9126fb020)">
     <use xlink:href="#me5dff93e72" x="178.7645" y="131.540295" style="fill: #ff0000; stroke: #ff0000"/>
    </g>
   </g>
   <g id="PathCollection_30">
    <defs>
     <path id="m4fa518442b" d="M 0 1.118034 
C 0.296506 1.118034 0.580908 1.000231 0.790569 0.790569 
C 1.000231 0.580908 1.118034 0.296506 1.118034 0 
C 1.118034 -0.296506 1.000231 -0.580908 0.790569 -0.790569 
C 0.580908 -1.000231 0.296506 -1.118034 0 -1.118034 
C -0.296506 -1.118034 -0.580908 -1.000231 -0.790569 -0.790569 
C -1.000231 -0.580908 -1.118034 -0.296506 -1.118034 0 
C -1.118034 0.296506 -1.000231 0.580908 -0.790569 0.790569 
C -0.580908 1.000231 -0.296506 1.118034 0 1.118034 
z
" style="stroke: #ffff00"/>
    </defs>
    <g clip-path="url(#pb9126fb020)">
     <use xlink:href="#m4fa518442b" x="80.383615" y="181.000684" style="fill: #ffff00; stroke: #ffff00"/>
    </g>
   </g>
   <g id="PathCollection_31">
    <g clip-path="url(#pb9126fb020)">
     <use xlink:href="#m4fa518442b" x="199.287586" y="115.408453" style="fill: #ffff00; stroke: #ffff00"/>
    </g>
   </g>
   <g id="PathCollection_32">
    <g clip-path="url(#pb9126fb020)">
     <use xlink:href="#m4fa518442b" x="197.097842" y="80.185998" style="fill: #ffff00; stroke: #ffff00"/>
    </g>
   </g>
   <g id="PathCollection_33">
    <g clip-path="url(#pb9126fb020)">
     <use xlink:href="#me5dff93e72" x="95.362568" y="127.019448" style="fill: #ff0000; stroke: #ff0000"/>
    </g>
   </g>
   <g id="PathCollection_34">
    <g clip-path="url(#pb9126fb020)">
     <use xlink:href="#me5dff93e72" x="47.141739" y="236.609908" style="fill: #ff0000; stroke: #ff0000"/>
    </g>
   </g>
   <g id="PathCollection_35">
    <g clip-path="url(#pb9126fb020)">
     <use xlink:href="#me5dff93e72" x="98.129594" y="196.665843" style="fill: #ff0000; stroke: #ff0000"/>
    </g>
   </g>
   <g id="PathCollection_36">
    <g clip-path="url(#pb9126fb020)">
     <use xlink:href="#me5dff93e72" x="183.264321" y="81.899316" style="fill: #ff0000; stroke: #ff0000"/>
    </g>
   </g>
   <g id="PathCollection_37">
    <g clip-path="url(#pb9126fb020)">
     <use xlink:href="#me5dff93e72" x="184.700389" y="91.427172" style="fill: #ff0000; stroke: #ff0000"/>
    </g>
   </g>
   <g id="PathCollection_38">
    <g clip-path="url(#pb9126fb020)">
     <use xlink:href="#me5dff93e72" x="199.405018" y="100.715325" style="fill: #ff0000; stroke: #ff0000"/>
    </g>
   </g>
   <g id="PathCollection_39">
    <g clip-path="url(#pb9126fb020)">
     <use xlink:href="#me5dff93e72" x="202.372618" y="99.008505" style="fill: #ff0000; stroke: #ff0000"/>
    </g>
   </g>
   <g id="PathCollection_40">
    <g clip-path="url(#pb9126fb020)">
     <use xlink:href="#me5dff93e72" x="173.231482" y="114.965332" style="fill: #ff0000; stroke: #ff0000"/>
    </g>
   </g>
   <g id="PathCollection_41">
    <g clip-path="url(#pb9126fb020)">
     <use xlink:href="#me5dff93e72" x="188.778384" y="105.287478" style="fill: #ff0000; stroke: #ff0000"/>
    </g>
   </g>
   <g id="PathCollection_42">
    <g clip-path="url(#pb9126fb020)">
     <use xlink:href="#me5dff93e72" x="189.075109" y="127.202207" style="fill: #ff0000; stroke: #ff0000"/>
    </g>
   </g>
   <g id="PathCollection_43">
    <g clip-path="url(#pb9126fb020)">
     <use xlink:href="#me5dff93e72" x="188.290045" y="112.021865" style="fill: #ff0000; stroke: #ff0000"/>
    </g>
   </g>
   <g id="PathCollection_44">
    <g clip-path="url(#pb9126fb020)">
     <use xlink:href="#me5dff93e72" x="140.003391" y="190.997398" style="fill: #ff0000; stroke: #ff0000"/>
    </g>
   </g>
   <g id="PathCollection_45">
    <g clip-path="url(#pb9126fb020)">
     <use xlink:href="#me5dff93e72" x="143.774322" y="73.615871" style="fill: #ff0000; stroke: #ff0000"/>
    </g>
   </g>
   <g id="PathCollection_46">
    <g clip-path="url(#pb9126fb020)">
     <use xlink:href="#me5dff93e72" x="150.169257" y="46.627432" style="fill: #ff0000; stroke: #ff0000"/>
    </g>
   </g>
   <g id="PathCollection_47">
    <g clip-path="url(#pb9126fb020)">
     <use xlink:href="#me5dff93e72" x="131.49209" y="108.595647" style="fill: #ff0000; stroke: #ff0000"/>
    </g>
   </g>
   <g id="PathCollection_48">
    <g clip-path="url(#pb9126fb020)">
     <use xlink:href="#me5dff93e72" x="133.195935" y="96.892941" style="fill: #ff0000; stroke: #ff0000"/>
    </g>
   </g>
   <g id="PathCollection_49">
    <g clip-path="url(#pb9126fb020)">
     <use xlink:href="#me5dff93e72" x="135.110694" y="88.958805" style="fill: #ff0000; stroke: #ff0000"/>
    </g>
   </g>
   <g id="PathCollection_50">
    <g clip-path="url(#pb9126fb020)">
     <use xlink:href="#me5dff93e72" x="131.242923" y="77.356265" style="fill: #ff0000; stroke: #ff0000"/>
    </g>
   </g>
   <g id="PathCollection_51">
    <g clip-path="url(#pb9126fb020)">
     <use xlink:href="#me5dff93e72" x="130.275894" y="50.074184" style="fill: #ff0000; stroke: #ff0000"/>
    </g>
   </g>
   <g id="PathCollection_52">
    <g clip-path="url(#pb9126fb020)">
     <use xlink:href="#me5dff93e72" x="129.031439" y="64.60889" style="fill: #ff0000; stroke: #ff0000"/>
    </g>
   </g>
   <g id="PathCollection_53">
    <g clip-path="url(#pb9126fb020)">
     <use xlink:href="#me5dff93e72" x="143.496895" y="107.361824" style="fill: #ff0000; stroke: #ff0000"/>
    </g>
   </g>
   <g id="PathCollection_54">
    <g clip-path="url(#pb9126fb020)">
     <use xlink:href="#me5dff93e72" x="87.20589" y="70.783993" style="fill: #ff0000; stroke: #ff0000"/>
    </g>
   </g>
   <g id="PathCollection_55">
    <g clip-path="url(#pb9126fb020)">
     <use xlink:href="#me5dff93e72" x="85.750866" y="52.55043" style="fill: #ff0000; stroke: #ff0000"/>
    </g>
   </g>
   <g id="PathCollection_56">
    <g clip-path="url(#pb9126fb020)">
     <use xlink:href="#me5dff93e72" x="78.791084" y="59.112211" style="fill: #ff0000; stroke: #ff0000"/>
    </g>
   </g>
   <g id="PathCollection_57">
    <g clip-path="url(#pb9126fb020)">
     <use xlink:href="#me5dff93e72" x="63.540908" y="49.60938" style="fill: #ff0000; stroke: #ff0000"/>
    </g>
   </g>
   <g id="PathCollection_58">
    <g clip-path="url(#pb9126fb020)">
     <use xlink:href="#me5dff93e72" x="76.359382" y="68.747995" style="fill: #ff0000; stroke: #ff0000"/>
    </g>
   </g>
   <g id="PathCollection_59">
    <g clip-path="url(#pb9126fb020)">
     <use xlink:href="#me5dff93e72" x="86.641387" y="78.552736" style="fill: #ff0000; stroke: #ff0000"/>
    </g>
   </g>
   <g id="PathCollection_60">
    <g clip-path="url(#pb9126fb020)">
     <use xlink:href="#me5dff93e72" x="95.879511" y="108.398925" style="fill: #ff0000; stroke: #ff0000"/>
    </g>
   </g>
   <g id="PathCollection_61">
    <g clip-path="url(#pb9126fb020)">
     <use xlink:href="#me5dff93e72" x="104.447677" y="88.41314" style="fill: #ff0000; stroke: #ff0000"/>
    </g>
   </g>
   <g id="PathCollection_62">
    <g clip-path="url(#pb9126fb020)">
     <use xlink:href="#me5dff93e72" x="107.511083" y="79.822694" style="fill: #ff0000; stroke: #ff0000"/>
    </g>
   </g>
   <g id="PathCollection_63">
    <g clip-path="url(#pb9126fb020)">
     <use xlink:href="#me5dff93e72" x="104.409078" y="56.955565" style="fill: #ff0000; stroke: #ff0000"/>
    </g>
   </g>
   <g id="PathCollection_64">
    <g clip-path="url(#pb9126fb020)">
     <use xlink:href="#me5dff93e72" x="114.843754" y="56.065019" style="fill: #ff0000; stroke: #ff0000"/>
    </g>
   </g>
  </g>
 </g>
 <defs>
  <clipPath id="pb9126fb020">
   <rect x="7.2" y="7.2" width="279.592171" height="266.112"/>
  </clipPath>
 </defs>
</svg>
