<?xml version="1.0" encoding="utf-8" standalone="no"?>
<!DOCTYPE svg PUBLIC "-//W3C//DTD SVG 1.1//EN"
  "http://www.w3.org/Graphics/SVG/1.1/DTD/svg11.dtd">
<svg xmlns:xlink="http://www.w3.org/1999/xlink" width="371.52pt" height="163.497061pt" viewBox="0 0 371.52 163.497061" xmlns="http://www.w3.org/2000/svg" version="1.1">
 <metadata>
  <rdf:RDF xmlns:dc="http://purl.org/dc/elements/1.1/" xmlns:cc="http://creativecommons.org/ns#" xmlns:rdf="http://www.w3.org/1999/02/22-rdf-syntax-ns#">
   <cc:Work>
    <dc:type rdf:resource="http://purl.org/dc/dcmitype/StillImage"/>
    <dc:date>2025-12-17T16:18:18.865513</dc:date>
    <dc:format>image/svg+xml</dc:format>
    <dc:creator>
     <cc:Agent>
      <dc:title>Matplotlib v3.10.6, https://matplotlib.org/</dc:title>
     </cc:Agent>
    </dc:creator>
   </cc:Work>
  </rdf:RDF>
 </metadata>
 <defs>
  <style type="text/css">*{stroke-linejoin: round; stroke-linecap: butt}</style>
 </defs>
 <g id="figure_1">
  <g id="patch_1">
   <path d="M 0 163.497061 
L 371.52 163.497061 
L 371.52 0 
L 0 0 
z
" style="fill: #ffffff"/>
  </g>
  <g id="axes_1">
   <g id="patch_2">
    <path d="M 7.2 156.297061 
L 364.32 156.297061 
L 364.32 7.2 
L 7.2 7.2 
z
" clip-path="url(#p0e352f9f91)" style="fill: #add8e6; stroke: #ffffff; stroke-linejoin: miter"/>
   </g>
   <g id="patch_3">
    <path d="M 7.2 156.297061 
L 364.32 156.297061 
L 364.32 7.2 
L 7.2 7.2 
z
" clip-path="url(#p0e352f9f91)" style="fill: #add8e6; stroke: #ffffff; stroke-linejoin: miter"/>
   </g>
   <g id="patch_4">
    <path d="M 364.319996 104.683714 
L 358.584623 107.865645 
L 361.227851 107.538559 
L 355.147486 108.74314 
L 360.747791 103.944319 
L 358.725609 102.948495 
L 355.295732 107.395148 
L 353.423015 106.204919 
L 353.475816 108.029894 
L 356.118404 107.746229 
L 354.987039 108.842622 
L 342.135898 110.491628 
L 350.316076 107.94789 
L 345.395018 104.505365 
L 342.923614 93.065381 
L 341.159824 99.182712 
L 339.627463 98.859511 
L 339.246752 107.694674 
L 333.847067 104.734361 
L 329.793429 107.462297 
L 326.449236 104.478477 
L 323.668529 106.756913 
L 317.717162 103.925113 
L 319.676172 105.252542 
L 308.110011 107.939978 
L 309.037035 106.63026 
L 306.211428 105.843104 
L 304.866021 106.721892 
L 306.968092 107.719134 
L 303.407569 111.892387 
L 299.6539 110.768094 
L 298.116354 112.363876 
L 283.271398 105.336541 
L 277.628267 110.782945 
L 278.020996 115.256125 
L 284.569433 116.7432 
L 292.395378 112.573135 
L 293.9472 114.293618 
L 295.650135 111.917533 
L 292.5198 117.289735 
L 293.819239 120.095481 
L 296.127115 118.790891 
L 296.623128 121.295189 
L 299.222676 121.450851 
L 300.072283 117.550774 
L 303.746643 115.4738 
L 302.7954 118.893393 
L 305.532212 118.478576 
L 306.913033 121.790798 
L 309.364945 120.969517 
L 307.498665 123.274758 
L 304.369154 122.950722 
L 306.567919 124.30414 
L 304.515539 125.334856 
L 303.067428 123.172397 
L 304.289266 125.958796 
L 301.405488 124.123576 
L 304.221548 127.572788 
L 298.476566 124.840052 
L 300.546975 128.15936 
L 297.707702 127.105265 
L 298.782545 129.459336 
L 297.019579 129.746982 
L 299.167801 130.758774 
L 296.61175 131.123416 
L 301.768172 134.371438 
L 300.603497 136.410271 
L 305.487677 136.385083 
L 308.969959 139.237698 
L 310.371278 137.654602 
L 312.429668 142.942676 
L 315.858325 142.95216 
L 312.802113 143.552246 
L 315.108494 144.302016 
L 311.706771 148.617302 
L 308.765831 145.144024 
L 304.583225 151.117266 
L 308.031557 144.795682 
L 304.786713 145.945538 
L 303.237178 140.883121 
L 298.974044 140.66435 
L 297.517026 139.614419 
L 299.06595 140.610722 
L 298.906967 138.484836 
L 293.389692 138.952576 
L 294.756848 135.72233 
L 292.812937 135.125042 
L 295.017681 133.709926 
L 290.72142 132.774725 
L 289.207056 134.488174 
L 283.36727 130.9173 
L 282.493626 132.791852 
L 288.029753 135.235096 
L 285.568079 144.253901 
L 282.124323 145.933457 
L 281.701365 140.677401 
L 280.949887 141.896106 
L 279.110114 139.119236 
L 277.736126 140.547603 
L 276.613057 137.749843 
L 275.613557 140.081995 
L 272.428988 138.993885 
L 271.09868 144.589503 
L 270.508473 143.16295 
L 265.398202 145.88276 
L 262.888913 141.9962 
L 258.012984 141.889227 
L 259.108325 139.183335 
L 254.487022 134.75373 
L 254.740413 128.85586 
L 252.973512 133.433579 
L 249.879598 132.370307 
L 250.674772 128.802031 
L 249.696395 131.676249 
L 246.510361 132.55468 
L 246.465857 128.9416 
L 243.791576 128.887774 
L 245.050262 125.118582 
L 237.575609 126.437219 
L 239.063466 122.681542 
L 235.132786 122.661498 
L 230.48975 126.36428 
L 230.78435 124.806187 
L 228.832157 125.198465 
L 231.715934 129.739363 
L 234.262056 129.56673 
L 225.637842 132.06434 
L 197.867241 123.564162 
L 197.800988 125.042275 
L 184.615104 127.047118 
L 182.677401 123.845432 
L 185.887441 122.175101 
L 186.71054 118.50988 
L 183.868995 117.744149 
L 181.842069 124.223283 
L 184.431261 127.48963 
L 177.390532 128.157453 
L 159.215064 137.409005 
L 167.433737 131.283827 
L 158.957952 132.162366 
L 161.198111 128.255601 
L 160.423236 124.041042 
L 155.572976 128.206051 
L 153.245456 126.385971 
L 154.141641 129.163565 
L 153.516859 127.564211 
L 150.981291 131.587965 
L 155.469051 133.161016 
L 154.276618 135.509381 
L 158.190734 137.275035 
L 155.956585 136.541664 
L 155.747912 139.207549 
L 150.164185 143.310423 
L 147.848043 141.990982 
L 147.173372 147.995202 
L 149.688655 146.501007 
L 142.385018 152.913787 
L 132.37485 156.297061 
L 121.292311 156.297061 
L 121.470267 155.969448 
L 121.04467 156.297061 
L 114.155953 156.297061 
L 113.895219 155.738242 
L 114.122713 156.297061 
L 7.2 156.297061 
L 7.2 7.199999 
L 364.319996 7.199999 
z
" clip-path="url(#p0e352f9f91)" style="fill: #d3d3d3"/>
   </g>
   <g id="matplotlib.axis_1"/>
   <g id="matplotlib.axis_2"/>
   <g id="LineCollection_1">
    <path d="M 364.32 104.683713 
L 358.584634 107.865646 
L 361.227857 107.53856 
L 355.147492 108.743139 
L 360.74778 103.944319 
L 358.725615 102.948495 
L 355.295718 107.395149 
L 353.423021 106.204917 
L 353.475811 108.029895 
L 356.118413 107.74623 
L 354.987052 108.84262 
L 342.135912 110.491627 
L 350.316075 107.947891 
L 345.395018 104.505364 
L 342.923621 93.065382 
L 341.159816 99.182713 
L 339.627459 98.859509 
L 339.24675 107.694673 
L 333.847064 104.734362 
L 329.793419 107.462299 
L 326.449228 104.478478 
L 323.668544 106.756914 
L 317.717152 103.925112 
L 319.676176 105.252544 
L 308.110005 107.939979 
L 309.037038 106.630258 
L 306.211431 105.843103 
L 304.866012 106.721892 
L 306.968086 107.719133 
L 303.407561 111.892387 
L 299.653886 110.768093 
L 298.116353 112.363875 
L 283.27141 105.336539 
L 277.628269 110.782945 
L 278.020985 115.256124 
L 284.569421 116.7432 
L 292.395373 112.573136 
L 293.947191 114.293617 
L 295.650132 111.917532 
L 292.519792 117.289733 
L 293.819253 120.095479 
L 296.127104 118.79089 
L 296.623123 121.29519 
L 299.222665 121.450851 
L 300.072272 117.550773 
L 303.746658 115.473801 
L 302.795404 118.893394 
L 305.5322 118.478577 
L 306.913019 121.790796 
L 309.364956 120.969518 
L 307.498677 123.274756 
L 304.369166 122.950722 
L 306.567918 124.304141 
L 304.515528 125.334857 
L 303.067428 123.172396 
L 304.289256 125.958797 
L 301.405477 124.123576 
L 304.221561 127.572789 
L 298.476567 124.840051 
L 300.546967 128.159359 
L 297.707697 127.105265 
L 298.782541 129.459336 
L 297.019565 129.746982 
L 299.167804 130.758775 
L 296.611737 131.123416 
L 301.768174 134.371437 
L 300.603484 136.410271 
L 305.487691 136.385084 
L 308.969964 139.237698 
L 310.371277 137.654602 
L 312.429671 142.942676 
L 315.858325 142.95216 
L 312.802099 143.552246 
L 315.108501 144.302016 
L 311.706759 148.617301 
L 308.765842 145.144024 
L 304.583224 151.117266 
L 308.031545 144.795683 
L 304.786724 145.945538 
L 303.237184 140.883121 
L 298.974034 140.66435 
L 297.517032 139.61442 
L 299.065951 140.610723 
L 298.90696 138.484835 
L 293.389687 138.952576 
L 294.756843 135.722329 
L 292.812932 135.125041 
L 295.017688 133.709925 
L 290.721415 132.774725 
L 289.207069 134.488175 
L 283.36726 130.917299 
L 282.493638 132.791852 
L 288.029749 135.235095 
L 285.568082 144.253901 
L 282.124316 145.933456 
L 281.701375 140.677401 
L 280.949895 141.896105 
L 279.110114 139.119237 
L 277.736126 140.547603 
L 276.613047 137.749843 
L 275.613557 140.081995 
L 272.428978 138.993886 
L 271.098672 144.589504 
L 270.50846 143.16295 
L 265.398187 145.88276 
L 262.888906 141.9962 
L 258.012979 141.889227 
L 259.108319 139.183335 
L 254.487026 134.75373 
L 254.740417 128.855859 
L 252.973507 133.43358 
L 249.879603 132.370306 
L 250.674764 128.802031 
L 249.696391 131.676249 
L 246.510363 132.55468 
L 246.465854 128.941601 
L 243.791578 128.887774 
L 245.050256 125.118582 
L 237.575615 126.437218 
L 239.063463 122.681543 
L 235.132787 122.661497 
L 230.489757 126.36428 
L 230.784345 124.806186 
L 228.832153 125.198465 
L 231.715933 129.739363 
L 234.262063 129.56673 
L 225.637844 132.06434 
L 197.867234 123.564163 
L 197.800988 125.042275 
L 184.615098 127.047117 
L 182.677396 123.845433 
L 185.887438 122.175099 
L 186.710547 118.509881 
L 183.869 117.744148 
L 181.842073 124.223282 
L 184.431264 127.489631 
L 177.390536 128.157454 
L 159.215066 137.409005 
L 167.433734 131.283826 
L 158.957948 132.162367 
L 161.198104 128.255602 
L 160.423231 124.041042 
L 155.572974 128.206052 
L 153.245456 126.385971 
L 154.141643 129.163566 
L 153.516858 127.564211 
L 150.981285 131.587964 
L 155.469051 133.161016 
L 154.276619 135.509381 
L 158.190734 137.275035 
L 155.956581 136.541664 
L 155.747906 139.207549 
L 150.16418 143.310423 
L 147.848047 141.990982 
L 147.173371 147.995202 
L 149.688656 146.501007 
L 142.385014 152.913787 
L 132.374847 156.297061 
L 132.374847 156.297061 
" clip-path="url(#p0e352f9f91)" style="fill: none; stroke: #000000; stroke-width: 0.6"/>
    <path d="M 121.292313 156.297061 
L 121.470263 155.969448 
L 121.044674 156.297061 
" clip-path="url(#p0e352f9f91)" style="fill: none; stroke: #000000; stroke-width: 0.6"/>
    <path d="M 114.155952 156.297061 
L 113.895218 155.738242 
L 114.122715 156.297061 
" clip-path="url(#p0e352f9f91)" style="fill: none; stroke: #000000; stroke-width: 0.6"/>
   </g>
   <g id="LineCollection_2"/>
   <g id="LineCollection_3">
    <path d="M 257.244375 7.2 
L 256.728631 9.226944 
L 259.029788 7.2 
" clip-path="url(#p0e352f9f91)" style="fill: none; stroke: #ffffff; stroke-width: 0.3"/>
    <path d="M 259.215625 7.2 
L 257.384468 10.400501 
L 258.296389 13.313696 
L 260.143208 12.79073 
L 258.628034 17.232371 
L 256.012551 17.322369 
L 257.859371 20.093613 
L 255.364374 24.281197 
L 258.816628 22.529507 
L 256.683501 28.830335 
L 259.751114 30.533388 
L 256.947244 33.345722 
L 257.806581 34.88491 
L 261.077694 33.703677 
L 259.381791 36.137138 
L 261.228404 38.166525 
L 258.997356 37.317376 
L 258.575451 38.952852 
L 261.899353 39.792445 
L 261.643063 42.399472 
L 264.085064 43.844686 
L 257.248871 47.205255 
L 257.535179 49.520583 
L 261.220951 48.924194 
L 259.118048 52.003132 
L 257.075389 51.416289 
L 259.442034 53.523685 
L 254.384551 59.935242 
L 252.213746 59.030257 
L 251.640924 61.238869 
L 253.977551 61.673283 
L 251.166228 62.382234 
L 250.080826 65.85442 
L 247.668843 65.748407 
L 250.186199 67.545004 
L 247.585829 69.110519 
L 248.158651 73.493414 
L 245.965281 72.795844 
L 247.548151 76.644032 
L 243.922828 77.552387 
L 246.040636 83.753824 
L 243.900056 85.961595 
L 245.528056 85.960629 
L 247.156264 85.959663 
L 248.784264 85.958456 
L 250.412264 85.957248 
L 252.040471 85.956282 
L 253.668471 85.955316 
L 255.296471 85.953867 
L 256.924678 85.952901 
L 258.552679 85.951935 
L 260.180679 85.950727 
L 261.808886 85.949519 
L 263.436886 85.948553 
L 265.064886 85.947587 
L 266.692886 85.94638 
L 268.321094 85.945172 
L 269.949094 85.944206 
L 271.577094 85.942999 
L 273.205301 85.941791 
L 274.833301 85.940825 
L 276.461301 85.939859 
L 278.089508 85.938651 
L 279.717509 85.937444 
L 281.345509 85.936478 
L 282.973716 85.93527 
L 284.601716 85.934062 
L 286.229716 85.933096 
L 287.857923 85.93213 
L 289.485924 85.930923 
L 291.113924 85.929715 
L 292.742131 85.928749 
L 294.370131 85.927783 
L 295.937889 85.926575 
L 295.413716 87.72414 
L 294.889336 89.520878 
L 294.365163 91.31631 
L 293.84099 93.11068 
L 293.31661 94.904231 
L 292.915406 96.276261 
L 293.814077 97.854331 
L 294.712541 99.431585 
L 295.611212 101.008025 
L 296.509883 102.583414 
L 297.408554 104.158234 
L 298.307018 105.732247 
L 299.205689 107.305454 
L 300.10436 108.877858 
L 301.002824 110.44946 
L 301.651209 111.582732 
" clip-path="url(#p0e352f9f91)" style="fill: none; stroke: #ffffff; stroke-width: 0.3"/>
    <path d="M 257.244375 7.2 
L 256.728631 9.226944 
L 259.029788 7.2 
" clip-path="url(#p0e352f9f91)" style="fill: none; stroke: #ffffff; stroke-width: 0.3"/>
    <path d="M 259.215625 7.2 
L 257.384468 10.400501 
L 258.296389 13.313696 
L 260.143208 12.79073 
L 258.628034 17.232371 
L 256.012551 17.322369 
L 257.859371 20.093613 
L 255.364374 24.281197 
L 258.816628 22.529507 
L 256.683501 28.830335 
L 259.751114 30.533388 
L 256.947244 33.345722 
L 257.806581 34.88491 
L 261.077694 33.703677 
L 259.381791 36.137138 
L 261.228404 38.166525 
L 258.575451 38.952852 
L 261.899353 39.792445 
L 261.643063 42.399472 
L 264.085064 43.844686 
L 257.248871 47.205255 
L 257.535179 49.520583 
L 261.220951 48.924194 
L 259.118048 52.003132 
L 257.075389 51.416289 
L 259.442034 53.523685 
L 254.384551 59.935242 
L 252.017906 59.296372 
L 251.640924 61.238869 
L 253.977551 61.673283 
L 251.166228 62.382234 
L 250.080826 65.85442 
L 247.668843 65.748407 
L 250.186199 67.545004 
L 247.585829 69.110519 
L 248.158651 73.493414 
L 245.965281 72.795844 
L 247.548151 76.644032 
L 243.922828 77.552387 
L 246.040636 83.753824 
L 243.900056 85.961595 
L 245.528056 85.960629 
L 247.156264 85.959663 
L 248.784264 85.958456 
L 250.412264 85.957248 
L 252.040471 85.956282 
L 253.668471 85.955316 
L 255.296471 85.953867 
L 256.924678 85.952901 
L 258.552679 85.951935 
L 260.180679 85.950727 
L 261.808886 85.949519 
L 263.436886 85.948553 
L 265.064886 85.947587 
L 266.692886 85.94638 
L 268.321094 85.945172 
L 269.949094 85.944206 
L 271.577094 85.942999 
L 273.205301 85.941791 
L 274.833301 85.940825 
L 276.461301 85.939859 
L 278.089508 85.938651 
L 279.717509 85.937444 
L 281.345509 85.936478 
L 282.973716 85.93527 
L 284.601716 85.934062 
L 286.229716 85.933096 
L 287.857923 85.93213 
L 289.485924 85.930923 
L 291.113924 85.929715 
L 292.742131 85.928749 
L 294.370131 85.927783 
L 295.937889 85.926575 
L 295.414751 87.724623 
L 294.89182 89.521843 
L 294.368682 91.317757 
L 293.845751 93.112607 
L 293.322613 94.906639 
L 292.923066 96.276261 
L 293.821116 97.854812 
L 294.719166 99.432306 
L 295.617216 101.009227 
L 296.515266 102.585336 
L 297.413315 104.160635 
L 298.311365 105.734886 
L 299.209415 107.308332 
L 300.107672 108.881214 
L 301.005722 110.453294 
L 301.651209 111.582732 
" clip-path="url(#p0e352f9f91)" style="fill: none; stroke: #ffffff; stroke-width: 0.3"/>
    <path d="M 335.367932 7.2 
L 335.23927 8.357989 
L 335.024177 10.290702 
L 334.80929 12.222094 
L 334.594404 14.152418 
L 334.379518 16.081428 
L 334.164632 18.008883 
L 333.949746 19.935032 
L 333.73486 21.860127 
L 333.519974 23.783925 
L 333.305088 25.706183 
L 333.090202 27.627151 
L 332.875109 29.547079 
L 332.660223 31.465725 
L 332.445336 33.382847 
L 332.23045 35.298694 
L 332.015564 37.213517 
L 331.800678 39.127072 
L 331.585792 41.039118 
L 331.370906 42.949905 
L 331.15602 44.85968 
L 330.941134 46.768204 
L 330.726041 48.675234 
L 330.511155 50.58102 
L 330.296269 52.485809 
L 330.081383 54.38936 
L 329.866496 56.291677 
L 329.750566 57.317236 
L 329.841447 59.231307 
L 329.932329 61.144136 
L 330.02321 63.055727 
L 330.114092 64.966082 
L 330.20518 66.875206 
L 330.296062 68.783102 
L 330.386943 70.689774 
L 330.477825 72.595469 
L 330.568706 74.499704 
L 330.659588 76.402726 
L 330.750469 78.304539 
L 330.841351 80.205145 
L 330.932232 82.10455 
L 331.023114 84.002756 
L 331.114202 85.899767 
L 331.205084 87.795586 
L 331.295965 89.690218 
L 331.386847 91.583665 
L 331.477728 93.475931 
L 331.56861 95.36702 
L 331.659491 97.256936 
L 331.750373 99.145681 
L 331.841254 101.033259 
L 331.932136 102.919674 
L 332.023224 104.80493 
L 332.041856 105.193266 
" clip-path="url(#p0e352f9f91)" style="fill: none; stroke: #ffffff; stroke-width: 0.3"/>
    <path d="M 335.367932 7.2 
L 335.23927 8.357989 
L 335.024177 10.290702 
L 334.80929 12.222094 
L 334.594404 14.152418 
L 334.379518 16.081428 
L 334.164632 18.008883 
L 333.949746 19.935032 
L 333.73486 21.860127 
L 333.519974 23.783925 
L 333.305088 25.706183 
L 333.090202 27.627151 
L 332.875109 29.547079 
L 332.660223 31.465725 
L 332.445336 33.382847 
L 332.23045 35.298694 
L 332.015564 37.213517 
L 331.800678 39.127072 
L 331.585792 41.039118 
L 331.370906 42.949905 
L 331.15602 44.85968 
L 330.941134 46.768204 
L 330.726041 48.675234 
L 330.511155 50.58102 
L 330.296269 52.485809 
L 330.081383 54.38936 
L 329.866496 56.291677 
L 329.750566 57.317236 
L 329.841447 59.231307 
L 329.932329 61.144136 
L 330.02321 63.055727 
L 330.114092 64.966082 
L 330.20518 66.875206 
L 330.296062 68.783102 
L 330.386943 70.689774 
L 330.477825 72.595469 
L 330.568706 74.499704 
L 330.659588 76.402726 
L 330.750469 78.304539 
L 330.841351 80.205145 
L 330.932232 82.10455 
L 331.023114 84.002756 
L 331.114202 85.899767 
L 331.205084 87.795586 
L 331.295965 89.690218 
L 331.386847 91.583665 
L 331.477728 93.475931 
L 331.56861 95.36702 
L 331.659491 97.256936 
L 331.750373 99.145681 
L 331.841254 101.033259 
L 331.932136 102.919674 
L 332.023224 104.80493 
L 332.041856 105.193266 
" clip-path="url(#p0e352f9f91)" style="fill: none; stroke: #ffffff; stroke-width: 0.3"/>
    <path d="M 178.973854 7.2 
L 178.974027 8.017179 
L 178.974234 9.967229 
L 178.974648 11.915934 
L 178.974855 13.8633 
L 178.975269 15.809575 
L 178.975476 17.754271 
L 178.975684 19.697886 
L 178.976098 21.639928 
L 178.976305 23.58065 
L 178.976719 25.520055 
L 178.976926 27.458394 
L 178.97734 29.395177 
L 178.977547 31.330901 
L 178.977754 33.265077 
L 178.978168 35.197957 
L 178.978375 37.129543 
L 178.978789 39.060084 
L 178.978996 40.989094 
L 178.97941 42.917068 
L 178.979617 44.843518 
L 178.979824 46.768693 
L 178.980238 48.692598 
L 178.980445 50.615237 
L 178.980859 52.536856 
L 178.981066 54.341517 
L 184.505791 60.821927 
L 184.656708 66.908019 
L 185.60672 68.459779 
L 186.556732 70.010729 
L 187.506951 71.560871 
L 188.456963 73.11045 
L 189.406974 74.659224 
L 190.356986 76.206954 
L 191.307205 77.753883 
L 192.257217 79.300014 
L 192.721561 80.0556 
L 193.362286 84.835925 
L 192.693614 86.567737 
L 192.024734 88.298556 
L 191.356062 90.028627 
L 190.687389 91.757469 
L 190.018717 93.485568 
L 189.349837 95.212444 
L 188.681165 96.938341 
L 188.012492 98.663262 
L 187.392676 100.261012 
L 187.443396 102.150065 
L 187.494116 104.037714 
L 187.545042 105.924203 
L 187.595762 107.809775 
L 187.646482 109.694194 
L 187.697202 111.577224 
L 187.748128 113.459107 
L 187.792223 115.09489 
L 186.723176 116.513417 
L 185.654128 117.931297 
L 184.58508 119.34877 
L 183.516239 120.765598 
L 182.447191 122.181544 
L 181.656791 123.227991 
L 184.166694 126.614313 
" clip-path="url(#p0e352f9f91)" style="fill: none; stroke: #ffffff; stroke-width: 0.3"/>
    <path d="M 184.166694 126.614313 
L 181.656791 123.227991 
L 182.725839 121.81228 
L 183.794887 120.396167 
L 184.863935 118.979409 
L 185.932776 117.561768 
L 187.001824 116.14372 
L 187.792223 115.09489 
L 187.741504 113.213761 
L 187.690784 111.331489 
L 187.639857 109.448309 
L 187.589137 107.56398 
L 187.538418 105.678257 
L 187.487698 103.791377 
L 187.436771 101.903576 
L 187.392676 100.261012 
L 188.061349 98.536993 
L 188.730228 96.81176 
L 189.398901 95.085791 
L 190.067573 93.358843 
L 190.736246 91.630914 
L 191.405125 89.901999 
L 192.073798 88.172097 
L 192.74247 86.440964 
L 193.362286 84.835925 
L 192.721561 80.0556 
L 191.771549 78.509858 
L 190.821538 76.96332 
L 189.871319 75.415739 
L 188.921307 73.867357 
L 187.971295 72.318414 
L 187.021283 70.768667 
L 186.071065 69.217869 
L 185.121053 67.666505 
L 184.656708 66.908019 
L 184.505791 60.821927 
L 178.981066 54.341517 
L 178.980859 52.421326 
L 178.980445 50.499631 
L 178.980238 48.576916 
L 178.979824 46.65269 
L 178.979617 44.727438 
L 178.979203 42.800911 
L 178.978996 40.873106 
L 178.978789 38.943773 
L 178.978375 37.013399 
L 178.978168 35.08149 
L 178.977754 33.148532 
L 178.977547 31.214277 
L 178.977133 29.278721 
L 178.976926 27.341859 
L 178.976719 25.403442 
L 178.976305 23.463711 
L 178.976098 21.52291 
L 178.975684 19.580787 
L 178.975476 17.63734 
L 178.975062 15.692564 
L 178.974855 13.746208 
L 178.974648 11.798515 
L 178.974234 9.849728 
L 178.974027 7.899597 
L 178.973879 7.2 
" clip-path="url(#p0e352f9f91)" style="fill: none; stroke: #ffffff; stroke-width: 0.3"/>
    <path d="M 356.297071 108.808581 
L 359.990296 103.619937 
L 358.068328 100.856138 
L 359.311893 96.898394 
L 358.100623 95.633537 
L 356.889353 94.368155 
L 355.678083 93.102247 
L 354.46702 91.83581 
L 353.255749 90.568845 
L 353.169008 90.478172 
L 353.651363 85.970531 
L 355.279364 85.97029 
L 356.907571 85.97029 
L 358.535571 85.969807 
L 360.163571 85.969807 
L 361.791778 85.969565 
L 363.419778 85.969324 
L 364.32 85.96919 
" clip-path="url(#p0e352f9f91)" style="fill: none; stroke: #ffffff; stroke-width: 0.3"/>
    <path d="M 356.297071 108.808581 
L 359.990296 103.619937 
L 358.068328 100.856138 
L 359.311893 96.898394 
L 358.100623 95.633537 
L 356.889353 94.368155 
L 355.678083 93.102247 
L 354.46702 91.83581 
L 353.255749 90.568845 
L 353.169008 90.478172 
L 353.651363 85.970531 
L 355.279364 85.97029 
L 356.907571 85.97029 
L 358.535571 85.969807 
L 360.163571 85.969807 
L 361.791778 85.969565 
L 363.419778 85.969324 
L 364.32 85.96919 
" clip-path="url(#p0e352f9f91)" style="fill: none; stroke: #ffffff; stroke-width: 0.3"/>
    <path d="M 178.965954 21.576976 
L 180.593954 21.576729 
L 182.222161 21.576235 
L 183.850161 21.575741 
L 185.478161 21.575495 
L 187.106368 21.575248 
L 188.734369 21.574754 
L 190.362369 21.57426 
L 191.990576 21.574013 
L 193.618576 21.57352 
L 195.246576 21.573273 
L 196.874783 21.572779 
L 198.502783 21.572285 
L 200.130784 21.572038 
L 201.758784 21.571791 
L 203.386991 21.571298 
L 205.014991 21.570804 
L 206.642991 21.570557 
L 208.271198 21.57031 
L 209.899199 21.569816 
L 211.527199 21.569323 
L 213.155406 21.569076 
L 214.783406 21.568829 
L 216.411406 21.568335 
L 218.039613 21.567841 
L 219.667613 21.567595 
L 221.295614 21.567101 
L 222.923821 21.566854 
L 224.551821 21.56636 
L 226.179821 21.565866 
L 227.808028 21.56562 
L 229.436028 21.565373 
L 231.064029 21.564879 
L 232.692236 21.564385 
L 234.320236 21.564138 
L 235.948236 21.563891 
L 237.576443 21.563398 
L 239.204443 21.562904 
L 240.832444 21.562657 
L 242.460444 21.56241 
L 244.088651 21.561916 
L 245.716651 21.561423 
L 247.344651 21.560929 
L 248.972858 21.560682 
L 250.600858 21.560435 
L 252.228859 21.559941 
L 253.857066 21.559448 
L 255.485066 21.559201 
L 256.653276 21.558954 
" clip-path="url(#p0e352f9f91)" style="fill: none; stroke: #ffffff; stroke-width: 0.3"/>
    <path d="M 178.965954 21.576976 
L 180.593954 21.576729 
L 182.222161 21.576235 
L 183.850161 21.575741 
L 185.478161 21.575495 
L 187.106368 21.575248 
L 188.734369 21.574754 
L 190.362369 21.57426 
L 191.990576 21.574013 
L 193.618576 21.57352 
L 195.246576 21.573273 
L 196.874783 21.572779 
L 198.502783 21.572285 
L 200.130784 21.572038 
L 201.758784 21.571791 
L 203.386991 21.571298 
L 205.014991 21.570804 
L 206.642991 21.570557 
L 208.271198 21.57031 
L 209.899199 21.569816 
L 211.527199 21.569323 
L 213.155406 21.569076 
L 214.783406 21.568829 
L 216.411406 21.568335 
L 218.039613 21.567841 
L 219.667613 21.567595 
L 221.295614 21.567101 
L 222.923821 21.566854 
L 224.551821 21.56636 
L 226.179821 21.565866 
L 227.808028 21.56562 
L 229.436028 21.565373 
L 231.064029 21.564879 
L 232.692236 21.564385 
L 234.320236 21.564138 
L 235.948236 21.563891 
L 237.576443 21.563398 
L 239.204443 21.562904 
L 240.832444 21.562657 
L 242.460444 21.56241 
L 244.088651 21.561916 
L 245.716651 21.561423 
L 247.344651 21.560929 
L 248.972858 21.560682 
L 250.600858 21.560435 
L 252.228859 21.559941 
L 253.857066 21.559448 
L 255.485066 21.559201 
L 256.653276 21.558954 
" clip-path="url(#p0e352f9f91)" style="fill: none; stroke: #ffffff; stroke-width: 0.3"/>
   </g>
   <g id="line2d_1">
    <path d="M 286.650054 118.866183 
L 266.358919 123.838311 
L 266.358919 123.838311 
" clip-path="url(#p0e352f9f91)" style="fill: none; stroke: #008000; stroke-width: 0.75; stroke-linecap: square"/>
   </g>
   <g id="line2d_2">
    <path d="M 286.650054 118.866183 
L 311.5013 106.778711 
L 313.302857 105.912092 
L 313.302857 105.912092 
" clip-path="url(#p0e352f9f91)" style="fill: none; stroke: #008000; stroke-width: 0.75; stroke-linecap: square"/>
   </g>
   <g id="line2d_3">
    <path d="M 286.650054 118.866183 
L 276.172632 101.602411 
L 276.172632 101.602411 
" clip-path="url(#p0e352f9f91)" style="fill: none; stroke: #008000; stroke-width: 0.75; stroke-linecap: square"/>
   </g>
   <g id="line2d_4">
    <path d="M 266.358919 123.838311 
L 255.942008 126.850784 
L 255.942008 126.850784 
" clip-path="url(#p0e352f9f91)" style="fill: none; stroke: #008000; stroke-width: 0.75; stroke-linecap: square"/>
   </g>
   <g id="line2d_5">
    <path d="M 285.9489 102.512122 
L 294.624865 108.811289 
L 294.624865 108.811289 
" clip-path="url(#p0e352f9f91)" style="fill: none; stroke: #008000; stroke-width: 0.75; stroke-linecap: square"/>
   </g>
   <g id="line2d_6">
    <path d="M 285.9489 102.512122 
L 276.172632 101.602411 
L 276.172632 101.602411 
" clip-path="url(#p0e352f9f91)" style="fill: none; stroke: #008000; stroke-width: 0.75; stroke-linecap: square"/>
   </g>
   <g id="line2d_7">
    <path d="M 313.302857 105.912092 
L 294.624865 108.811289 
L 294.624865 108.811289 
" clip-path="url(#p0e352f9f91)" style="fill: none; stroke: #008000; stroke-width: 0.75; stroke-linecap: square"/>
   </g>
   <g id="line2d_8">
    <path d="M 257.358968 103.290309 
L 233.879809 110.416415 
L 233.879809 110.416415 
" clip-path="url(#p0e352f9f91)" style="fill: none; stroke: #008000; stroke-width: 0.75; stroke-linecap: square"/>
   </g>
   <g id="line2d_9">
    <path d="M 257.358968 103.290309 
L 276.172632 101.602411 
L 276.172632 101.602411 
" clip-path="url(#p0e352f9f91)" style="fill: none; stroke: #008000; stroke-width: 0.75; stroke-linecap: square"/>
   </g>
   <g id="line2d_10">
    <path d="M 233.879809 110.416415 
L 232.206428 100.68361 
L 232.206428 100.68361 
" clip-path="url(#p0e352f9f91)" style="fill: none; stroke: #008000; stroke-width: 0.75; stroke-linecap: square"/>
   </g>
   <g id="line2d_11">
    <path d="M 233.879809 110.416415 
L 255.942008 126.850784 
L 255.942008 126.850784 
" clip-path="url(#p0e352f9f91)" style="fill: none; stroke: #008000; stroke-width: 0.75; stroke-linecap: square"/>
   </g>
   <g id="line2d_12">
    <path d="M 233.879809 110.416415 
L 207.748503 110.671678 
L 201.737437 110.761832 
L 201.737437 110.761832 
" clip-path="url(#p0e352f9f91)" style="fill: none; stroke: #008000; stroke-width: 0.75; stroke-linecap: square"/>
   </g>
   <g id="line2d_13">
    <path d="M 276.172632 101.602411 
L 283.67232 44.553292 
L 283.67232 44.553292 
" clip-path="url(#p0e352f9f91)" style="fill: none; stroke: #008000; stroke-width: 0.75; stroke-linecap: square"/>
   </g>
   <g id="line2d_14">
    <path d="M 222.339531 76.082554 
L 208.703933 68.99896 
L 208.703933 68.99896 
" clip-path="url(#p0e352f9f91)" style="fill: none; stroke: #008000; stroke-width: 0.75; stroke-linecap: square"/>
   </g>
   <g id="line2d_15">
    <path d="M 222.339531 76.082554 
L 227.420184 90.875821 
L 227.420184 90.875821 
" clip-path="url(#p0e352f9f91)" style="fill: none; stroke: #008000; stroke-width: 0.75; stroke-linecap: square"/>
   </g>
   <g id="line2d_16">
    <path d="M 208.703933 68.99896 
L 204.942828 61.774306 
L 204.942828 61.774306 
" clip-path="url(#p0e352f9f91)" style="fill: none; stroke: #008000; stroke-width: 0.75; stroke-linecap: square"/>
   </g>
   <g id="line2d_17">
    <path d="M 58.217143 135.437305 
L 78.583439 109.063893 
L 78.583439 109.063893 
" clip-path="url(#p0e352f9f91)" style="fill: none; stroke: #008000; stroke-width: 0.75; stroke-linecap: square"/>
   </g>
   <g id="line2d_18">
    <path d="M 58.217143 135.437305 
L 84.633152 131.895243 
L 110.894431 128.598096 
L 137.208766 125.518729 
L 143.157708 124.853731 
L 143.157708 124.853731 
" clip-path="url(#p0e352f9f91)" style="fill: none; stroke: #008000; stroke-width: 0.75; stroke-linecap: square"/>
   </g>
   <g id="line2d_19">
    <path d="M 78.583439 109.063893 
L 104.097764 101.42501 
L 116.806368 97.706714 
L 116.806368 97.706714 
" clip-path="url(#p0e352f9f91)" style="fill: none; stroke: #008000; stroke-width: 0.75; stroke-linecap: square"/>
   </g>
   <g id="line2d_20">
    <path d="M 116.806368 97.706714 
L 96.706917 71.065534 
L 94.766148 68.51279 
L 94.766148 68.51279 
" clip-path="url(#p0e352f9f91)" style="fill: none; stroke: #008000; stroke-width: 0.75; stroke-linecap: square"/>
   </g>
   <g id="line2d_21">
    <path d="M 94.766148 68.51279 
L 103.991858 28.964725 
L 103.991858 28.964725 
" clip-path="url(#p0e352f9f91)" style="fill: none; stroke: #008000; stroke-width: 0.75; stroke-linecap: square"/>
   </g>
   <g id="line2d_22">
    <path d="M 204.942828 61.774306 
L 198.000482 53.652026 
L 198.000482 53.652026 
" clip-path="url(#p0e352f9f91)" style="fill: none; stroke: #008000; stroke-width: 0.75; stroke-linecap: square"/>
   </g>
   <g id="line2d_23">
    <path d="M 143.157708 124.853731 
L 158.564372 115.628112 
L 158.564372 115.628112 
" clip-path="url(#p0e352f9f91)" style="fill: none; stroke: #008000; stroke-width: 0.75; stroke-linecap: square"/>
   </g>
   <g id="line2d_24">
    <path d="M 158.564372 115.628112 
L 168.634505 116.324641 
L 168.634505 116.324641 
" clip-path="url(#p0e352f9f91)" style="fill: none; stroke: #008000; stroke-width: 0.75; stroke-linecap: square"/>
   </g>
   <g id="line2d_25">
    <path d="M 232.206428 100.68361 
L 227.420184 90.875821 
L 227.420184 90.875821 
" clip-path="url(#p0e352f9f91)" style="fill: none; stroke: #008000; stroke-width: 0.75; stroke-linecap: square"/>
   </g>
   <g id="line2d_26">
    <path d="M 201.709217 84.478006 
L 199.440506 90.814192 
L 199.440506 90.814192 
" clip-path="url(#p0e352f9f91)" style="fill: none; stroke: #008000; stroke-width: 0.75; stroke-linecap: square"/>
   </g>
   <g id="line2d_27">
    <path d="M 198.000482 53.652026 
L 186.928002 37.276751 
L 186.928002 37.276751 
" clip-path="url(#p0e352f9f91)" style="fill: none; stroke: #008000; stroke-width: 0.75; stroke-linecap: square"/>
   </g>
   <g id="line2d_28">
    <path d="M 168.634505 116.324641 
L 177.385633 114.748292 
L 177.385633 114.748292 
" clip-path="url(#p0e352f9f91)" style="fill: none; stroke: #008000; stroke-width: 0.75; stroke-linecap: square"/>
   </g>
   <g id="line2d_29">
    <path d="M 177.385633 114.748292 
L 201.737437 110.761832 
L 201.737437 110.761832 
" clip-path="url(#p0e352f9f91)" style="fill: none; stroke: #008000; stroke-width: 0.75; stroke-linecap: square"/>
   </g>
   <g id="line2d_30">
    <path d="M 201.737437 110.761832 
L 199.440506 90.814192 
L 199.440506 90.814192 
" clip-path="url(#p0e352f9f91)" style="fill: none; stroke: #008000; stroke-width: 0.75; stroke-linecap: square"/>
   </g>
   <g id="line2d_31">
    <path d="M 283.67232 44.553292 
L 258.388564 42.336794 
L 233.068277 40.340297 
L 207.715185 38.565084 
L 186.928002 37.276751 
L 186.928002 37.276751 
" clip-path="url(#p0e352f9f91)" style="fill: none; stroke: #008000; stroke-width: 0.75; stroke-linecap: square"/>
   </g>
   <g id="line2d_32">
    <path d="M 103.991858 28.964725 
L 128.591901 37.258622 
L 144.845742 42.867481 
L 144.845742 42.867481 
" clip-path="url(#p0e352f9f91)" style="fill: none; stroke: #008000; stroke-width: 0.75; stroke-linecap: square"/>
   </g>
   <g id="line2d_33">
    <path d="M 144.845742 42.867481 
L 160.056495 38.063494 
L 160.056495 38.063494 
" clip-path="url(#p0e352f9f91)" style="fill: none; stroke: #008000; stroke-width: 0.75; stroke-linecap: square"/>
   </g>
   <g id="line2d_34">
    <path d="M 160.056495 38.063494 
L 185.319342 37.316784 
L 186.928002 37.276751 
L 186.928002 37.276751 
" clip-path="url(#p0e352f9f91)" style="fill: none; stroke: #008000; stroke-width: 0.75; stroke-linecap: square"/>
   </g>
   <g id="line2d_35">
    <path d="M 186.928002 37.276751 
L 212.201636 37.484518 
L 231.181017 37.786469 
L 231.181017 37.786469 
" clip-path="url(#p0e352f9f91)" style="fill: none; stroke: #008000; stroke-width: 0.75; stroke-linecap: square"/>
   </g>
   <g id="line2d_36">
    <path d="M 186.928002 37.276751 
L 187.41805 37.571523 
L 187.41805 37.571523 
" clip-path="url(#p0e352f9f91)" style="fill: none; stroke: #008000; stroke-width: 0.75; stroke-linecap: square"/>
   </g>
   <g id="line2d_37">
    <path d="M 187.41805 37.571523 
L 199.500473 34.369897 
L 199.500473 34.369897 
" clip-path="url(#p0e352f9f91)" style="fill: none; stroke: #008000; stroke-width: 0.75; stroke-linecap: square"/>
   </g>
   <g id="line2d_38">
    <path d="M 199.500473 34.369897 
L 217.108283 37.339183 
L 217.108283 37.339183 
" clip-path="url(#p0e352f9f91)" style="fill: none; stroke: #008000; stroke-width: 0.75; stroke-linecap: square"/>
   </g>
   <g id="line2d_39">
    <path d="M 217.108283 37.339183 
L 231.181017 37.786469 
L 231.181017 37.786469 
" clip-path="url(#p0e352f9f91)" style="fill: none; stroke: #008000; stroke-width: 0.75; stroke-linecap: square"/>
   </g>
   <g id="patch_5">
    <path d="M 7.2 156.297061 
L 7.2 7.2 
" style="fill: none; stroke: #ffffff; stroke-linejoin: miter; stroke-linecap: square"/>
   </g>
   <g id="patch_6">
    <path d="M 364.32 156.297061 
L 364.32 7.2 
" style="fill: none; stroke: #ffffff; stroke-linejoin: miter; stroke-linecap: square"/>
   </g>
   <g id="patch_7">
    <path d="M 7.2 156.297061 
L 364.32 156.297061 
" style="fill: none; stroke: #ffffff; stroke-linejoin: miter; stroke-linecap: square"/>
   </g>
   <g id="patch_8">
    <path d="M 7.2 7.2 
L 364.32 7.2 
" style="fill: none; stroke: #ffffff; stroke-linejoin: miter; stroke-linecap: square"/>
   </g>
   <g id="PathCollection_1">
    <defs>
     <path id="m78ba850877" d="M 0 1.118034 
C 0.296506 1.118034 0.580908 1.000231 0.790569 0.790569 
C 1.000231 0.580908 1.118034 0.296506 1.118034 0 
C 1.118034 -0.296506 1.000231 -0.580908 0.790569 -0.790569 
C 0.580908 -1.000231 0.296506 -1.118034 0 -1.118034 
C -0.296506 -1.118034 -0.580908 -1.000231 -0.790569 -0.790569 
C -1.000231 -0.580908 -1.118034 -0.296506 -1.118034 0 
C -1.118034 0.296506 -1.000231 0.580908 -0.790569 0.790569 
C -0.580908 1.000231 -0.296506 1.118034 0 1.118034 
z
" style="stroke: #ff0000"/>
    </defs>
    <g clip-path="url(#p0e352f9f91)">
     <use xlink:href="#m78ba850877" x="286.650054" y="118.866183" style="fill: #ff0000; stroke: #ff0000"/>
    </g>
   </g>
   <g id="PathCollection_2">
    <g clip-path="url(#p0e352f9f91)">
     <use xlink:href="#m78ba850877" x="266.358919" y="123.838311" style="fill: #ff0000; stroke: #ff0000"/>
    </g>
   </g>
   <g id="PathCollection_3">
    <g clip-path="url(#p0e352f9f91)">
     <use xlink:href="#m78ba850877" x="285.9489" y="102.512122" style="fill: #ff0000; stroke: #ff0000"/>
    </g>
   </g>
   <g id="PathCollection_4">
    <g clip-path="url(#p0e352f9f91)">
     <use xlink:href="#m78ba850877" x="313.302857" y="105.912092" style="fill: #ff0000; stroke: #ff0000"/>
    </g>
   </g>
   <g id="PathCollection_5">
    <g clip-path="url(#p0e352f9f91)">
     <use xlink:href="#m78ba850877" x="257.358968" y="103.290309" style="fill: #ff0000; stroke: #ff0000"/>
    </g>
   </g>
   <g id="PathCollection_6">
    <g clip-path="url(#p0e352f9f91)">
     <use xlink:href="#m78ba850877" x="233.879809" y="110.416415" style="fill: #ff0000; stroke: #ff0000"/>
    </g>
   </g>
   <g id="PathCollection_7">
    <g clip-path="url(#p0e352f9f91)">
     <use xlink:href="#m78ba850877" x="255.942008" y="126.850784" style="fill: #ff0000; stroke: #ff0000"/>
    </g>
   </g>
   <g id="PathCollection_8">
    <g clip-path="url(#p0e352f9f91)">
     <use xlink:href="#m78ba850877" x="276.172632" y="101.602411" style="fill: #ff0000; stroke: #ff0000"/>
    </g>
   </g>
   <g id="PathCollection_9">
    <g clip-path="url(#p0e352f9f91)">
     <use xlink:href="#m78ba850877" x="222.339531" y="76.082554" style="fill: #ff0000; stroke: #ff0000"/>
    </g>
   </g>
   <g id="PathCollection_10">
    <g clip-path="url(#p0e352f9f91)">
     <use xlink:href="#m78ba850877" x="208.703933" y="68.99896" style="fill: #ff0000; stroke: #ff0000"/>
    </g>
   </g>
   <g id="PathCollection_11">
    <g clip-path="url(#p0e352f9f91)">
     <use xlink:href="#m78ba850877" x="58.217143" y="135.437305" style="fill: #ff0000; stroke: #ff0000"/>
    </g>
   </g>
   <g id="PathCollection_12">
    <g clip-path="url(#p0e352f9f91)">
     <use xlink:href="#m78ba850877" x="78.583439" y="109.063893" style="fill: #ff0000; stroke: #ff0000"/>
    </g>
   </g>
   <g id="PathCollection_13">
    <g clip-path="url(#p0e352f9f91)">
     <use xlink:href="#m78ba850877" x="116.806368" y="97.706714" style="fill: #ff0000; stroke: #ff0000"/>
    </g>
   </g>
   <g id="PathCollection_14">
    <g clip-path="url(#p0e352f9f91)">
     <use xlink:href="#m78ba850877" x="94.766148" y="68.51279" style="fill: #ff0000; stroke: #ff0000"/>
    </g>
   </g>
   <g id="PathCollection_15">
    <g clip-path="url(#p0e352f9f91)">
     <use xlink:href="#m78ba850877" x="204.942828" y="61.774306" style="fill: #ff0000; stroke: #ff0000"/>
    </g>
   </g>
   <g id="PathCollection_16">
    <g clip-path="url(#p0e352f9f91)">
     <use xlink:href="#m78ba850877" x="143.157708" y="124.853731" style="fill: #ff0000; stroke: #ff0000"/>
    </g>
   </g>
   <g id="PathCollection_17">
    <g clip-path="url(#p0e352f9f91)">
     <use xlink:href="#m78ba850877" x="158.564372" y="115.628112" style="fill: #ff0000; stroke: #ff0000"/>
    </g>
   </g>
   <g id="PathCollection_18">
    <g clip-path="url(#p0e352f9f91)">
     <use xlink:href="#m78ba850877" x="232.206428" y="100.68361" style="fill: #ff0000; stroke: #ff0000"/>
    </g>
   </g>
   <g id="PathCollection_19">
    <g clip-path="url(#p0e352f9f91)">
     <use xlink:href="#m78ba850877" x="227.420184" y="90.875821" style="fill: #ff0000; stroke: #ff0000"/>
    </g>
   </g>
   <g id="PathCollection_20">
    <g clip-path="url(#p0e352f9f91)">
     <use xlink:href="#m78ba850877" x="201.709217" y="84.478006" style="fill: #ff0000; stroke: #ff0000"/>
    </g>
   </g>
   <g id="PathCollection_21">
    <g clip-path="url(#p0e352f9f91)">
     <use xlink:href="#m78ba850877" x="198.000482" y="53.652026" style="fill: #ff0000; stroke: #ff0000"/>
    </g>
   </g>
   <g id="PathCollection_22">
    <g clip-path="url(#p0e352f9f91)">
     <use xlink:href="#m78ba850877" x="168.634505" y="116.324641" style="fill: #ff0000; stroke: #ff0000"/>
    </g>
   </g>
   <g id="PathCollection_23">
    <g clip-path="url(#p0e352f9f91)">
     <use xlink:href="#m78ba850877" x="177.385633" y="114.748292" style="fill: #ff0000; stroke: #ff0000"/>
    </g>
   </g>
   <g id="PathCollection_24">
    <g clip-path="url(#p0e352f9f91)">
     <use xlink:href="#m78ba850877" x="201.737437" y="110.761832" style="fill: #ff0000; stroke: #ff0000"/>
    </g>
   </g>
   <g id="PathCollection_25">
    <g clip-path="url(#p0e352f9f91)">
     <use xlink:href="#m78ba850877" x="199.440506" y="90.814192" style="fill: #ff0000; stroke: #ff0000"/>
    </g>
   </g>
   <g id="PathCollection_26">
    <g clip-path="url(#p0e352f9f91)">
     <use xlink:href="#m78ba850877" x="283.67232" y="44.553292" style="fill: #ff0000; stroke: #ff0000"/>
    </g>
   </g>
   <g id="PathCollection_27">
    <g clip-path="url(#p0e352f9f91)">
     <use xlink:href="#m78ba850877" x="294.624865" y="108.811289" style="fill: #ff0000; stroke: #ff0000"/>
    </g>
   </g>
   <g id="PathCollection_28">
    <g clip-path="url(#p0e352f9f91)">
     <use xlink:href="#m78ba850877" x="103.991858" y="28.964725" style="fill: #ff0000; stroke: #ff0000"/>
    </g>
   </g>
   <g id="PathCollection_29">
    <g clip-path="url(#p0e352f9f91)">
     <use xlink:href="#m78ba850877" x="144.845742" y="42.867481" style="fill: #ff0000; stroke: #ff0000"/>
    </g>
   </g>
   <g id="PathCollection_30">
    <g clip-path="url(#p0e352f9f91)">
     <use xlink:href="#m78ba850877" x="160.056495" y="38.063494" style="fill: #ff0000; stroke: #ff0000"/>
    </g>
   </g>
   <g id="PathCollection_31">
    <g clip-path="url(#p0e352f9f91)">
     <use xlink:href="#m78ba850877" x="186.928002" y="37.276751" style="fill: #ff0000; stroke: #ff0000"/>
    </g>
   </g>
   <g id="PathCollection_32">
    <g clip-path="url(#p0e352f9f91)">
     <use xlink:href="#m78ba850877" x="187.41805" y="37.571523" style="fill: #ff0000; stroke: #ff0000"/>
    </g>
   </g>
   <g id="PathCollection_33">
    <g clip-path="url(#p0e352f9f91)">
     <use xlink:href="#m78ba850877" x="199.500473" y="34.369897" style="fill: #ff0000; stroke: #ff0000"/>
    </g>
   </g>
   <g id="PathCollection_34">
    <g clip-path="url(#p0e352f9f91)">
     <use xlink:href="#m78ba850877" x="217.108283" y="37.339183" style="fill: #ff0000; stroke: #ff0000"/>
    </g>
   </g>
   <g id="PathCollection_35">
    <g clip-path="url(#p0e352f9f91)">
     <use xlink:href="#m78ba850877" x="231.181017" y="37.786469" style="fill: #ff0000; stroke: #ff0000"/>
    </g>
   </g>
  </g>
 </g>
 <defs>
  <clipPath id="p0e352f9f91">
   <rect x="7.2" y="7.2" width="357.12" height="149.097061"/>
  </clipPath>
 </defs>
</svg>
