<?xml version="1.0" encoding="utf-8" standalone="no"?>
<!DOCTYPE svg PUBLIC "-//W3C//DTD SVG 1.1//EN"
  "http://www.w3.org/Graphics/SVG/1.1/DTD/svg11.dtd">
<svg xmlns:xlink="http://www.w3.org/1999/xlink" width="371.52pt" height="136.686855pt" viewBox="0 0 371.52 136.686855" xmlns="http://www.w3.org/2000/svg" version="1.1">
 <metadata>
  <rdf:RDF xmlns:dc="http://purl.org/dc/elements/1.1/" xmlns:cc="http://creativecommons.org/ns#" xmlns:rdf="http://www.w3.org/1999/02/22-rdf-syntax-ns#">
   <cc:Work>
    <dc:type rdf:resource="http://purl.org/dc/dcmitype/StillImage"/>
    <dc:date>2025-12-17T16:20:18.673330</dc:date>
    <dc:format>image/svg+xml</dc:format>
    <dc:creator>
     <cc:Agent>
      <dc:title>Matplotlib v3.10.6, https://matplotlib.org/</dc:title>
     </cc:Agent>
    </dc:creator>
   </cc:Work>
  </rdf:RDF>
 </metadata>
 <defs>
  <style type="text/css">*{stroke-linejoin: round; stroke-linecap: butt}</style>
 </defs>
 <g id="figure_1">
  <g id="patch_1">
   <path d="M 0 136.686855 
L 371.52 136.686855 
L 371.52 0 
L 0 0 
z
" style="fill: #ffffff"/>
  </g>
  <g id="axes_1">
   <g id="patch_2">
    <path d="M 7.2 129.486855 
L 364.32 129.486855 
L 364.32 7.2 
L 7.2 7.2 
z
" clip-path="url(#pfaaffc9a34)" style="fill: #add8e6; stroke: #ffffff; stroke-linejoin: miter"/>
   </g>
   <g id="patch_3">
    <path d="M 7.2 129.486855 
L 364.32 129.486855 
L 364.32 7.2 
L 7.2 7.2 
z
" clip-path="url(#pfaaffc9a34)" style="fill: #add8e6; stroke: #ffffff; stroke-linejoin: miter"/>
   </g>
   <g id="patch_4">
    <path d="M 266.408913 118.100369 
L 266.408698 118.09258 
L 265.61959 116.346299 
L 265.733739 116.887421 
L 264.799178 116.47037 
L 264.000891 117.305019 
L 262.834143 115.211258 
L 263.459731 115.447474 
L 263.317399 114.994436 
L 261.840832 115.33771 
L 260.222549 114.054319 
L 260.530492 112.904166 
L 261.410899 112.68967 
L 261.02042 111.400498 
L 259.442113 111.262413 
L 259.276502 112.955038 
L 258.552926 112.780599 
L 257.259391 113.704879 
L 255.344542 112.061113 
L 257.196151 112.402323 
L 258.476125 110.642503 
L 257.190631 107.992131 
L 254.324616 110.175532 
L 253.347065 110.301973 
L 254.141692 110.812836 
L 255.606881 110.421742 
L 255.378353 111.777907 
L 253.816852 111.828489 
L 251.127303 113.514902 
L 247.810182 116.850836 
L 239.735078 112.417093 
L 238.167503 112.780332 
L 235.364005 111.589439 
L 234.041886 113.136987 
L 233.500403 112.533137 
L 232.884733 112.736664 
L 232.759191 111.719818 
L 230.342836 109.813584 
L 227.465043 109.639611 
L 226.071228 108.494133 
L 225.758165 106.676435 
L 225.994735 108.223353 
L 221.711534 102.305142 
L 222.076458 101.733411 
L 221.233198 100.391164 
L 222.42979 99.372093 
L 222.561067 98.198403 
L 220.837799 93.600796 
L 218.730325 90.797863 
L 215.915879 88.552104 
L 219.100354 91.015486 
L 221.589236 94.671738 
L 220.187902 91.898465 
L 215.901688 88.296235 
L 214.688382 88.149425 
L 213.405502 89.2358 
L 210.478861 89.077743 
L 212.855978 86.761002 
L 213.117486 81.991513 
L 213.223194 82.55724 
L 213.693088 82.379947 
L 210.453815 76.645088 
L 209.037674 79.795679 
L 208.906705 82.005616 
L 207.829074 84.34748 
L 208.18585 84.810863 
L 207.353229 85.270602 
L 205.917669 84.657345 
L 204.184914 85.822121 
L 201.956711 86.212489 
L 203.079223 82.953181 
L 205.564338 83.446873 
L 206.068458 83.060634 
L 206.472929 80.487251 
L 206.290513 79.173247 
L 205.817497 79.311497 
L 206.415747 78.013299 
L 206.051345 76.683162 
L 206.557971 76.614076 
L 207.094442 74.524187 
L 209.658664 71.852362 
L 208.530202 69.496583 
L 210.143273 68.05352 
L 209.424817 67.325827 
L 209.345617 65.371655 
L 208.128252 62.925971 
L 208.312006 67.325827 
L 207.358872 66.97597 
L 206.085371 68.468831 
L 204.464274 72.751982 
L 202.970902 73.293811 
L 202.53242 72.861568 
L 202.14151 73.584399 
L 202.680595 73.526348 
L 200.20695 74.719853 
L 196.921242 78.5381 
L 196.819286 80.003281 
L 196.554026 79.508509 
L 195.678846 79.947667 
L 195.416507 81.77645 
L 194.692931 82.25519 
L 196.203524 81.63752 
L 195.84152 83.891613 
L 194.695637 82.668378 
L 193.538914 83.370168 
L 191.01413 80.089303 
L 190.065378 80.411065 
L 190.740736 79.086894 
L 190.815246 79.646758 
L 191.741043 79.851023 
L 191.359113 80.093232 
L 191.81806 80.843696 
L 192.841015 80.612132 
L 192.279282 80.553047 
L 192.062655 79.715707 
L 191.974891 80.459552 
L 190.561349 74.54499 
L 188.127988 72.454406 
L 188.24758 70.970767 
L 186.953937 69.244404 
L 187.295891 68.808755 
L 186.290264 68.641953 
L 186.768599 69.336604 
L 185.566687 68.526159 
L 184.973558 68.771227 
L 184.335239 67.540121 
L 184.699841 68.961942 
L 183.403492 67.495689 
L 183.751288 66.891097 
L 182.862316 66.626033 
L 183.397957 66.009001 
L 182.881628 65.036075 
L 183.964902 65.165015 
L 183.845203 65.70019 
L 184.423833 64.877145 
L 183.697028 63.141868 
L 182.71654 62.952994 
L 181.428955 63.655998 
L 181.534447 62.476749 
L 182.080943 62.294464 
L 179.764868 59.932815 
L 179.359674 60.619736 
L 178.841254 60.054329 
L 178.351326 60.363655 
L 178.938413 60.889033 
L 176.482081 60.922513 
L 173.849514 58.823964 
L 172.338814 58.716727 
L 171.817273 59.00871 
L 172.008238 59.482463 
L 170.139193 59.46954 
L 167.118761 56.966044 
L 162.981029 54.911838 
L 160.51375 56.075273 
L 156.15384 55.834422 
L 148.220959 56.704789 
L 143.10912 59.240505 
L 136.093326 61.44829 
L 132.400595 61.718017 
L 129.106592 61.098103 
L 127.453883 61.549377 
L 119.589139 66.324659 
L 115.668249 67.485545 
L 114.833546 68.529584 
L 113.859008 71.920546 
L 110.830004 75.015623 
L 109.741518 74.658063 
L 108.2997 75.647441 
L 108.100025 74.705896 
L 107.319474 74.328579 
L 104.595338 74.637444 
L 104.282075 75.20771 
L 102.89175 74.774798 
L 102.327365 75.572035 
L 101.175954 75.729651 
L 100.406628 74.116126 
L 98.9418 74.768383 
L 96.120974 73.992656 
L 90.67849 74.630594 
L 89.612752 75.317427 
L 86.051091 74.987701 
L 82.981856 77.861353 
L 83.771325 78.707266 
L 82.67715 78.582727 
L 82.677311 79.287323 
L 81.816415 79.231832 
L 81.58861 79.916316 
L 78.887114 79.217979 
L 79.254691 79.657145 
L 78.243322 79.92322 
L 77.946964 80.948028 
L 76.009168 81.835385 
L 75.752672 83.120122 
L 74.2197 83.3146 
L 74.373717 84.03795 
L 72.789406 83.954426 
L 72.854783 83.137304 
L 72.532602 83.356291 
L 72.011677 84.222684 
L 73.191209 84.717037 
L 72.715165 84.901445 
L 70.874354 84.204968 
L 70.395645 84.957204 
L 68.50381 83.968122 
L 65.608901 84.323133 
L 64.34338 83.71786 
L 63.625289 84.30943 
L 61.858622 83.3146 
L 62.921646 83.387546 
L 62.155137 82.696358 
L 61.858415 83.265913 
L 59.328838 82.473704 
L 57.334005 79.397685 
L 54.911754 78.140767 
L 53.623592 78.182588 
L 53.395637 78.610288 
L 52.412597 76.345606 
L 52.521068 71.64729 
L 53.86866 72.635769 
L 54.951669 72.553667 
L 57.291065 69.783312 
L 56.623948 64.599307 
L 57.593111 63.030664 
L 57.165531 61.350793 
L 57.775516 60.757948 
L 57.524916 59.640717 
L 58.621386 59.375134 
L 58.556428 58.908153 
L 57.507646 59.620337 
L 57.165323 56.420217 
L 52.874557 47.277053 
L 52.167736 43.647285 
L 52.463886 39.261536 
L 51.60904 36.294773 
L 49.591202 33.695947 
L 49.824896 32.760195 
L 49.277939 31.436939 
L 46.844521 28.485228 
L 46.365809 26.458414 
L 46.745125 25.328237 
L 45.534288 21.849604 
L 39.88607 13.403508 
L 40.721508 14.117859 
L 40.897809 12.359796 
L 41.015048 14.845649 
L 41.496001 15.306579 
L 41.34803 12.359565 
L 42.277175 15.981484 
L 42.54807 14.489649 
L 42.815886 17.163385 
L 43.120593 15.771591 
L 43.354444 17.389783 
L 44.570971 16.780947 
L 44.838841 14.782309 
L 42.781349 12.965764 
L 41.980818 9.801524 
L 42.032107 10.604954 
L 41.647259 10.145984 
L 42.32236 8.512263 
L 44.024064 11.367923 
L 43.778842 13.790881 
L 44.889973 12.711805 
L 44.795901 11.826992 
L 45.129094 14.159512 
L 46.180744 15.803411 
L 47.260727 14.674387 
L 46.981641 12.102754 
L 47.591622 12.236145 
L 47.574144 11.101894 
L 46.799078 10.734639 
L 45.056529 7.2 
L 311.801946 7.2 
L 311.880762 7.947755 
L 310.729559 8.53435 
L 312.092177 7.972541 
L 311.49957 8.585113 
L 311.481826 9.950083 
L 312.291076 10.525577 
L 311.8553 10.95917 
L 312.536501 10.981372 
L 312.365155 12.052261 
L 312.715473 10.81357 
L 313.166071 11.71954 
L 313.710553 11.748031 
L 312.724852 15.240233 
L 313.226374 15.13202 
L 313.100202 17.188954 
L 312.701605 17.048867 
L 313.351286 17.462886 
L 312.952258 19.135999 
L 313.325732 18.455674 
L 313.818766 20.543214 
L 312.869599 19.228676 
L 312.690011 19.838996 
L 313.385297 20.485202 
L 312.593391 20.876135 
L 313.209277 21.541891 
L 312.559165 22.170347 
L 313.465434 22.702804 
L 313.00066 23.373627 
L 313.554029 22.995072 
L 314.38874 23.839178 
L 315.448735 28.446189 
L 316.309124 29.170158 
L 316.058378 31.747834 
L 316.765042 32.578563 
L 316.48579 34.307666 
L 316.025813 34.407877 
L 316.394582 34.444102 
L 314.752927 37.731163 
L 314.895797 38.718093 
L 314.413802 38.38834 
L 314.952964 38.855643 
L 314.263091 42.614336 
L 312.547787 47.131361 
L 312.838386 51.662117 
L 310.724146 57.968373 
L 309.288371 59.311079 
L 308.99442 60.69377 
L 308.011211 60.723852 
L 308.809083 61.121235 
L 308.965822 61.994263 
L 308.934425 60.784886 
L 309.453444 60.939349 
L 309.265308 62.807994 
L 307.848752 63.520762 
L 306.971666 64.914161 
L 306.714647 64.399824 
L 306.04796 64.826121 
L 305.067888 64.521653 
L 305.41839 64.938094 
L 304.965609 65.300555 
L 305.250089 65.544777 
L 305.996821 64.894073 
L 306.837068 65.235915 
L 304.184128 66.587747 
L 304.267402 65.947903 
L 303.757147 66.086506 
L 304.09867 66.53685 
L 303.232777 68.036769 
L 302.919514 67.037096 
L 302.933598 68.006129 
L 302.226935 67.992056 
L 302.611448 68.778085 
L 303.281395 68.060059 
L 302.64549 69.698292 
L 301.77686 69.824015 
L 302.210022 70.179388 
L 301.799923 71.326028 
L 301.112756 71.794016 
L 301.044642 70.823711 
L 300.856475 71.862633 
L 300.089601 71.503474 
L 300.442933 72.050735 
L 299.864717 72.581055 
L 300.68513 71.992369 
L 300.6311 72.673251 
L 300.964381 72.040214 
L 301.104207 72.419942 
L 300.822372 74.075177 
L 300.149812 73.649488 
L 300.273278 74.253438 
L 299.730642 74.099167 
L 300.047134 74.50062 
L 300.699859 74.160723 
L 300.597058 75.280122 
L 298.956141 75.417599 
L 300.295388 75.788832 
L 299.166818 76.070375 
L 299.901773 76.283861 
L 298.283274 78.08227 
L 298.192096 79.636376 
L 297.445672 79.712224 
L 298.066877 80.473432 
L 297.519751 81.991513 
L 295.998211 82.706279 
L 296.787626 82.820689 
L 296.718528 83.307854 
L 297.169126 82.995041 
L 297.639435 84.382541 
L 297.171955 84.507625 
L 297.163191 83.704234 
L 296.414029 84.006415 
L 297.075211 85.260388 
L 295.510466 85.702995 
L 293.79796 89.884328 
L 292.920874 89.702988 
L 293.518493 90.586879 
L 292.544171 91.465365 
L 293.006054 91.458795 
L 292.452963 92.797012 
L 292.823208 94.830603 
L 291.461635 99.913497 
L 291.045909 99.821048 
L 291.535838 100.890612 
L 291.057503 101.790601 
L 291.903469 101.951662 
L 292.236659 102.977933 
L 291.495554 103.135946 
L 291.735352 105.072862 
L 290.295733 105.57956 
L 290.592698 104.932591 
L 289.715027 104.983159 
L 290.292904 105.68337 
L 288.370245 107.436654 
L 278.835763 108.143913 
L 279.1148 107.703996 
L 277.217172 108.490497 
L 275.854769 108.057346 
L 276.325202 108.660255 
L 274.464198 110.045204 
L 278.006279 108.429073 
L 275.03448 110.298658 
L 270.566572 114.929238 
L 270.851144 114.557214 
L 268.366536 115.520482 
L 266.092821 115.432633 
L 266.542681 117.268141 
L 267.805234 116.335118 
L 267.443446 119.263551 
z
" clip-path="url(#pfaaffc9a34)" style="fill: #d3d3d3"/>
   </g>
   <g id="patch_5">
    <path d="M 202.970902 92.392484 
L 202.965166 92.398549 
L 200.941889 92.765062 
L 199.799665 91.269045 
L 200.152797 90.136815 
L 207.262236 88.54813 
L 206.940209 89.919419 
L 208.339344 89.930152 
L 208.168214 90.913457 
L 209.188463 89.852708 
L 210.695811 90.579414 
L 210.105803 91.433929 
L 207.450065 91.293258 
L 207.108941 92.329267 
L 206.16248 92.863758 
L 204.486399 92.032494 
z
" clip-path="url(#pfaaffc9a34)" style="fill: #d3d3d3"/>
   </g>
   <g id="patch_6">
    <path d="M 312.385205 7.98202 
L 312.391048 7.975892 
L 312.572757 7.2 
L 314.030458 7.2 
L 312.863664 10.725191 
L 312.006411 9.128318 
z
" clip-path="url(#pfaaffc9a34)" style="fill: #d3d3d3"/>
   </g>
   <g id="patch_7">
    <path d="M 278.197244 127.9124 
L 278.191402 127.912878 
L 277.208623 127.156543 
L 277.336364 126.179007 
L 276.473484 125.86305 
L 277.775676 124.457371 
L 279.394359 126.587763 
L 280.234391 126.613765 
L 279.631144 128.080034 
L 280.163448 127.659366 
L 280.491317 128.841004 
L 278.801137 129.382286 
z
" clip-path="url(#pfaaffc9a34)" style="fill: #d3d3d3"/>
   </g>
   <g id="patch_8">
    <path d="M 251.739836 126.963348 
L 251.733901 126.971045 
L 250.397683 128.381986 
L 250.035572 128.012961 
L 249.790777 124.416605 
L 250.494719 123.221823 
L 251.614617 124.031462 
z
" clip-path="url(#pfaaffc9a34)" style="fill: #d3d3d3"/>
   </g>
   <g id="matplotlib.axis_1"/>
   <g id="matplotlib.axis_2"/>
   <g id="LineCollection_1">
    <path d="M 266.408906 118.100368 
L 266.408697 118.09258 
L 265.619593 116.346299 
L 265.733753 116.887421 
L 264.799184 116.470369 
L 264.000898 117.305019 
L 262.834147 115.211258 
L 263.459732 115.447474 
L 263.317397 114.994436 
L 261.840828 115.33771 
L 260.22255 114.054319 
L 260.53049 112.904166 
L 261.410901 112.689669 
L 261.020419 111.400497 
L 259.442108 111.262413 
L 259.276502 112.955038 
L 258.552931 112.780599 
L 257.259394 113.704879 
L 255.34455 112.061112 
L 257.196157 112.402323 
L 258.476129 110.642503 
L 257.190626 107.992131 
L 254.324621 110.175531 
L 253.347059 110.301973 
L 254.141694 110.812837 
L 255.606889 110.421741 
L 255.378359 111.777907 
L 253.816848 111.828489 
L 251.127301 113.514903 
L 247.810186 116.850836 
L 239.735074 112.417094 
L 238.16751 112.780332 
L 235.364011 111.589439 
L 234.041882 113.136986 
L 233.500404 112.533137 
L 232.884732 112.736663 
L 232.759197 111.719819 
L 230.342841 109.813584 
L 227.465044 109.63961 
L 226.071225 108.494133 
L 225.758172 106.676436 
L 225.994736 108.223353 
L 221.711537 102.305142 
L 222.076454 101.733412 
L 221.233192 100.391163 
L 222.429787 99.372092 
L 222.56106 98.198403 
L 220.837805 93.600796 
L 218.730328 90.797865 
L 215.915873 88.552105 
L 219.100358 91.015484 
L 221.589238 94.671737 
L 220.187906 91.898466 
L 215.901681 88.296235 
L 214.68839 88.149426 
L 213.405496 89.235799 
L 210.478863 89.077745 
L 212.855983 86.761001 
L 213.117487 81.991512 
L 213.223195 82.557239 
L 213.693088 82.379946 
L 210.453819 76.645088 
L 209.037669 79.795678 
L 208.906708 82.005614 
L 207.829074 84.347482 
L 208.18585 84.810863 
L 207.353232 85.270601 
L 205.917673 84.657345 
L 204.184922 85.822123 
L 201.956711 86.212488 
L 203.079216 82.953182 
L 205.56434 83.446873 
L 206.06846 83.060633 
L 206.472926 80.48725 
L 206.29052 79.173247 
L 205.817496 79.311495 
L 206.415741 78.013298 
L 206.051347 76.683163 
L 206.557972 76.614075 
L 207.094441 74.524188 
L 209.658663 71.852364 
L 208.530209 69.496583 
L 210.14327 68.05352 
L 209.424812 67.325828 
L 209.345609 65.371654 
L 208.128248 62.925969 
L 208.312011 67.325828 
L 207.358867 66.975969 
L 206.085365 68.468829 
L 204.46427 72.751984 
L 202.9709 73.293811 
L 202.532416 72.86157 
L 202.141517 73.584399 
L 202.680595 73.526347 
L 200.20695 74.719852 
L 196.921244 78.538101 
L 196.819293 80.00328 
L 196.554033 79.508508 
L 195.678839 79.947668 
L 195.4165 81.776452 
L 194.692929 82.255188 
L 196.203517 81.637518 
L 195.841523 83.891614 
L 194.695642 82.66838 
L 193.53891 83.370168 
L 191.014133 80.089302 
L 190.065372 80.411064 
L 190.740733 79.086895 
L 190.815239 79.64676 
L 191.741043 79.851024 
L 191.359118 80.09323 
L 191.818054 80.843696 
L 192.841009 80.612131 
L 192.279286 80.553047 
L 192.062653 79.715707 
L 191.974894 80.459551 
L 190.561353 74.54499 
L 188.127988 72.454406 
L 188.247574 70.970767 
L 186.953933 69.244403 
L 187.295891 68.808756 
L 186.290259 68.641951 
L 186.768605 69.336605 
L 185.566688 68.526158 
L 184.973556 68.771228 
L 184.33524 67.540119 
L 184.699843 68.961944 
L 183.403488 67.495688 
L 183.75129 66.891096 
L 182.862323 66.626032 
L 183.397957 66.009003 
L 182.881628 65.036074 
L 183.964897 65.165015 
L 183.845206 65.70019 
L 184.423834 64.877146 
L 183.697028 63.141869 
L 182.716544 62.952991 
L 181.428955 63.655995 
L 181.534454 62.476747 
L 182.080941 62.294466 
L 179.764866 59.932813 
L 179.359671 60.619733 
L 178.841254 60.054328 
L 178.351325 60.363657 
L 178.938405 60.889032 
L 176.482083 60.922516 
L 173.849511 58.823964 
L 172.338819 58.71673 
L 171.817272 59.008708 
L 172.008234 59.482464 
L 170.1392 59.469539 
L 167.118755 56.966046 
L 162.981022 54.91184 
L 160.513743 56.075275 
L 156.153846 55.83442 
L 148.220965 56.704792 
L 143.109114 59.240503 
L 136.093323 61.448291 
L 132.400595 61.718017 
L 129.106594 61.098103 
L 127.45388 61.54938 
L 119.58914 66.324658 
L 115.668248 67.485545 
L 114.833543 68.529586 
L 113.859008 71.920547 
L 110.830006 75.015621 
L 109.741519 74.658061 
L 108.299698 75.647439 
L 108.100022 74.705897 
L 107.319475 74.328578 
L 104.595336 74.637444 
L 104.282073 75.207711 
L 102.89175 74.774797 
L 102.327367 75.572034 
L 101.175956 75.729652 
L 100.406627 74.116126 
L 98.941797 74.768384 
L 96.120976 73.992655 
L 90.678488 74.630593 
L 89.612749 75.317429 
L 86.051087 74.987699 
L 82.981858 77.861353 
L 83.771327 78.707264 
L 82.677152 78.582727 
L 82.677309 79.287324 
L 81.816412 79.231833 
L 81.588613 79.916317 
L 78.887117 79.217977 
L 79.254694 79.657143 
L 78.243323 79.923221 
L 77.946965 80.948027 
L 76.009164 81.835387 
L 75.752669 83.120124 
L 74.219698 83.314601 
L 74.37372 84.037951 
L 72.789408 83.954426 
L 72.854784 83.137304 
L 72.5326 83.356291 
L 72.011679 84.222684 
L 73.191213 84.717039 
L 72.715162 84.901446 
L 70.874355 84.204967 
L 70.395644 84.957205 
L 68.50381 83.968123 
L 65.608899 84.323133 
L 64.34338 83.717861 
L 63.625287 84.309428 
L 61.858622 83.314601 
L 62.921647 83.387545 
L 62.155136 82.696359 
L 61.858413 83.265913 
L 59.328836 82.473704 
L 57.334007 79.397685 
L 54.911755 78.140766 
L 53.623592 78.182587 
L 53.395637 78.610287 
L 52.412596 76.345606 
L 52.521069 71.64729 
L 53.868661 72.635771 
L 54.951669 72.553668 
L 57.291066 69.78331 
L 56.623949 64.599308 
L 57.593111 63.030664 
L 57.165532 61.350794 
L 57.775517 60.757946 
L 57.524917 59.640716 
L 58.621387 59.375134 
L 58.556429 58.908151 
L 57.507647 59.62034 
L 57.165323 56.420215 
L 52.874559 47.277054 
L 52.167736 43.647284 
L 52.463885 39.261533 
L 51.60904 36.294774 
L 49.591201 33.695946 
L 49.824896 32.760198 
L 49.277939 31.43694 
L 46.844522 28.485227 
L 46.365811 26.458416 
L 46.745127 25.328239 
L 45.534288 21.849605 
L 39.886072 13.403509 
L 40.721507 14.117858 
L 40.897809 12.359795 
L 41.015047 14.845649 
L 41.496002 15.306576 
L 41.348032 12.359562 
L 42.277175 15.981483 
L 42.54807 14.489651 
L 42.815888 17.163384 
L 43.120593 15.77159 
L 43.354444 17.389784 
L 44.57097 16.780948 
L 44.83884 14.782309 
L 42.781347 12.965763 
L 41.980817 9.801522 
L 42.032106 10.604952 
L 41.647259 10.145985 
L 42.322359 8.512266 
L 44.024066 11.367924 
L 43.77884 13.790878 
L 44.889972 12.711803 
L 44.795899 11.826993 
L 45.129093 14.159509 
L 46.180744 15.803412 
L 47.260726 14.674385 
L 46.981639 12.102757 
L 47.591624 12.236142 
L 47.574145 11.101894 
L 46.799077 10.734638 
L 45.05653 7.2 
L 45.05653 7.2 
" clip-path="url(#pfaaffc9a34)" style="fill: none; stroke: #000000; stroke-width: 0.6"/>
    <path d="M 311.801935 7.2 
L 311.880768 7.947759 
L 310.729566 8.53435 
L 312.092184 7.972544 
L 311.499573 8.585109 
L 311.481834 9.950084 
L 312.291077 10.525573 
L 311.855306 10.959171 
L 312.536511 10.981372 
L 312.365166 12.052263 
L 312.715473 10.813572 
L 313.166062 11.719543 
L 313.710566 11.748029 
L 312.724865 15.240232 
L 313.226377 15.132019 
L 313.100216 17.188952 
L 312.701595 17.048863 
L 313.351285 17.46289 
L 312.952246 19.136001 
L 313.325719 18.455672 
L 313.818778 20.543213 
L 312.8696 19.228679 
L 312.690012 19.838999 
L 313.385303 20.4852 
L 312.593382 20.876132 
L 313.209263 21.541888 
L 312.559155 22.170349 
L 313.465445 22.702802 
L 313.000665 23.373628 
L 313.554039 22.99507 
L 314.388744 23.839179 
L 315.448744 28.446187 
L 316.309119 29.170157 
L 316.058363 31.747837 
L 316.76503 32.578563 
L 316.485786 34.307667 
L 316.025806 34.407878 
L 316.394583 34.444104 
L 314.75293 37.731159 
L 314.895787 38.718095 
L 314.413789 38.388343 
L 314.952971 38.855643 
L 314.263106 42.614334 
L 312.547781 47.131362 
L 312.838399 51.662115 
L 310.72414 57.968371 
L 309.288372 59.311077 
L 308.994414 60.693768 
L 308.011218 60.723853 
L 308.809087 61.121234 
L 308.965822 61.994266 
L 308.934412 60.784889 
L 309.453455 60.939352 
L 309.26531 62.807996 
L 307.848743 63.520761 
L 306.971671 64.914162 
L 306.714654 64.399828 
L 306.047954 64.82612 
L 305.067888 64.521653 
L 305.418404 64.938096 
L 304.965624 65.300555 
L 305.250085 65.544778 
L 305.996822 64.894073 
L 306.837058 65.235915 
L 304.184138 66.587747 
L 304.26741 65.947901 
L 303.757133 66.086507 
L 304.098674 66.536849 
L 303.232768 68.036768 
L 302.919506 67.037097 
L 302.933593 68.00613 
L 302.226927 67.992057 
L 302.611461 68.778085 
L 303.281396 68.060059 
L 302.64548 69.698291 
L 301.776861 69.824013 
L 302.210022 70.179388 
L 301.799922 71.326027 
L 301.11277 71.794016 
L 301.044628 70.823711 
L 300.856483 71.862632 
L 300.089606 71.503474 
L 300.442939 72.050733 
L 299.864729 72.581056 
L 300.685138 71.992369 
L 300.631085 72.673253 
L 300.964382 72.040212 
L 301.104213 72.419943 
L 300.82236 74.075176 
L 300.149817 73.649486 
L 300.273264 74.25344 
L 299.730638 74.099168 
L 300.047135 74.500621 
L 300.699852 74.160722 
L 300.597066 75.28012 
L 298.956144 75.417599 
L 300.295387 75.78883 
L 299.166829 76.070375 
L 299.901774 76.28386 
L 298.283287 78.082272 
L 298.192084 79.636378 
L 297.44566 79.712224 
L 298.066863 80.473432 
L 297.51975 81.991512 
L 295.998205 82.706279 
L 296.787622 82.820688 
L 296.718541 83.307855 
L 297.16913 82.99504 
L 297.63944 84.382542 
L 297.171947 84.507624 
L 297.163182 83.704232 
L 296.414045 84.006413 
L 297.075214 85.260388 
L 295.510468 85.702994 
L 293.79796 89.884327 
L 292.920889 89.70299 
L 293.518508 90.586879 
L 292.544181 91.465364 
L 293.006039 91.458794 
L 292.452978 92.797012 
L 292.823216 94.830604 
L 291.461642 99.913498 
L 291.045907 99.821047 
L 291.535835 100.890612 
L 291.05749 101.790601 
L 291.903465 101.951662 
L 292.236658 102.977933 
L 291.495556 103.135945 
L 291.735355 105.072863 
L 290.295726 105.57956 
L 290.592709 104.93259 
L 289.715012 104.983159 
L 290.292909 105.68337 
L 288.370238 107.436653 
L 278.835775 108.143913 
L 279.11481 107.703996 
L 277.217184 108.490497 
L 275.854775 108.057346 
L 276.32519 108.660255 
L 274.464191 110.045204 
L 278.006287 108.429072 
L 275.03447 110.298658 
L 270.56657 114.929238 
L 270.851135 114.557213 
L 268.366534 115.520483 
L 266.092826 115.432633 
L 266.542684 117.268141 
L 267.805229 116.335119 
L 267.443443 119.263552 
L 266.408906 118.100368 
L 266.408906 118.100368 
" clip-path="url(#pfaaffc9a34)" style="fill: none; stroke: #000000; stroke-width: 0.6"/>
    <path d="M 202.9709 92.392484 
L 202.965161 92.398548 
L 200.941895 92.765061 
L 199.799667 91.269044 
L 200.152792 90.136816 
L 207.262238 88.548128 
L 206.94021 89.919418 
L 208.339351 89.930151 
L 208.168215 90.913456 
L 209.188456 89.852709 
L 210.695809 90.579416 
L 210.105808 91.433929 
L 207.45007 91.293259 
L 207.108946 92.329268 
L 206.162481 92.863757 
L 204.486392 92.032493 
L 202.9709 92.392484 
" clip-path="url(#pfaaffc9a34)" style="fill: none; stroke: #000000; stroke-width: 0.6"/>
    <path d="M 312.385202 7.982019 
L 312.391045 7.975895 
L 312.57276 7.2 
" clip-path="url(#pfaaffc9a34)" style="fill: none; stroke: #000000; stroke-width: 0.6"/>
    <path d="M 314.030456 7.2 
L 312.863652 10.725192 
L 312.006407 9.128319 
L 312.385202 7.982019 
" clip-path="url(#pfaaffc9a34)" style="fill: none; stroke: #000000; stroke-width: 0.6"/>
    <path d="M 278.19725 127.9124 
L 278.191406 127.912878 
L 277.208627 127.156543 
L 277.336353 126.179007 
L 276.473473 125.86305 
L 277.775671 124.457371 
L 279.394367 126.587762 
L 280.234394 126.613765 
L 279.63114 128.080034 
L 280.163435 127.659366 
L 280.491306 128.841004 
L 278.80113 129.382286 
L 278.19725 127.9124 
" clip-path="url(#pfaaffc9a34)" style="fill: none; stroke: #000000; stroke-width: 0.6"/>
    <path d="M 251.739842 126.963348 
L 251.733894 126.971045 
L 250.397677 128.381986 
L 250.035579 128.012961 
L 249.790771 124.416605 
L 250.494724 123.221823 
L 251.614621 124.031462 
L 251.739842 126.963348 
" clip-path="url(#pfaaffc9a34)" style="fill: none; stroke: #000000; stroke-width: 0.6"/>
   </g>
   <g id="LineCollection_2"/>
   <g id="LineCollection_3">
    <path d="M 148.210385 7.2 
L 148.210217 7.566301 
L 148.210008 8.020614 
L 148.209799 8.475095 
L 148.209695 8.929862 
L 148.209486 9.384798 
L 148.209278 9.839963 
L 148.209173 10.295357 
L 148.208965 10.750981 
L 148.208756 11.206894 
L 148.208547 11.663038 
L 148.208443 12.119356 
L 148.208234 12.575908 
L 148.208025 13.032693 
L 148.207921 13.489712 
L 148.207712 13.947025 
L 148.207504 14.404573 
L 148.207295 14.8623 
L 148.207191 15.320265 
L 148.206982 15.778467 
L 148.206773 16.236909 
L 148.206669 16.695648 
L 148.20646 17.15457 
L 148.206251 17.613791 
L 148.206043 18.073195 
L 148.205938 18.532842 
L 148.20573 18.992733 
L 148.205521 19.452926 
L 148.205417 19.913306 
L 148.205208 20.37399 
L 148.204999 20.834862 
L 148.204895 21.295981 
L 148.204686 21.757348 
L 148.204477 22.218964 
L 148.204269 22.680889 
L 148.204164 23.143064 
L 148.203956 23.605431 
L 148.203747 24.06805 
L 148.203643 24.530921 
L 148.203434 24.994047 
L 148.203225 25.457485 
L 148.203017 25.921119 
L 148.202912 26.385069 
L 148.202703 26.849216 
L 148.202495 27.31362 
L 148.20239 27.778283 
L 148.202182 28.243264 
L 148.201973 28.708445 
L 148.201764 29.173946 
L 148.20166 29.63965 
L 148.201451 30.105616 
L 148.201243 30.571844 
L 148.201138 31.038337 
L 148.20093 31.505154 
L 148.200721 31.972236 
L 148.200512 32.439525 
L 148.200408 32.907081 
L 148.200199 33.374905 
L 148.19999 33.842998 
L 148.199886 34.31142 
L 148.199677 34.780112 
L 148.199469 35.249016 
L 148.19926 35.718192 
L 148.199156 36.187641 
L 148.198947 36.657364 
L 148.198738 37.127421 
L 148.198634 37.597694 
L 148.198425 38.068302 
L 148.198216 38.539128 
L 148.198112 39.010232 
L 148.197903 39.481614 
L 148.197695 39.953336 
L 148.197486 40.425279 
L 148.197382 40.897563 
L 148.197173 41.370069 
L 148.196964 41.842858 
L 148.19686 42.315931 
L 148.196651 42.789288 
L 148.196442 43.262992 
L 148.196234 43.736982 
L 148.196129 44.211199 
L 148.195921 44.685704 
L 148.195712 45.160498 
L 148.195608 45.635582 
L 148.195399 46.111018 
L 148.19519 46.586745 
L 148.194981 47.062704 
L 148.194877 47.538957 
L 148.194668 48.015504 
L 148.19446 48.492346 
L 148.194355 48.969545 
L 148.194147 49.446981 
L 148.193938 49.924775 
L 148.193729 50.402807 
L 148.193625 50.881139 
L 148.193416 51.359771 
L 148.193208 51.838766 
L 148.193103 52.318002 
L 148.192894 52.797603 
L 148.192686 53.277447 
L 148.192581 53.757596 
L 148.192373 54.238051 
L 148.192164 54.718813 
L 148.191955 55.199944 
L 148.191851 55.681384 
L 148.191642 56.163073 
L 148.191434 56.645072 
L 148.191434 56.721348 
" clip-path="url(#pfaaffc9a34)" style="fill: none; stroke: #ffffff; stroke-width: 0.3"/>
    <path d="M 148.232652 12.267605 
L 230.33251 12.31126 
L 230.33251 12.31126 
" clip-path="url(#pfaaffc9a34)" style="fill: none; stroke: #ffffff; stroke-width: 0.3"/>
    <path d="M 209.800733 7.2 
L 209.800789 7.44619 
L 209.800998 7.900385 
L 209.801102 8.354807 
L 209.801207 8.809513 
L 209.801311 9.264389 
L 209.801415 9.719551 
L 209.80152 10.174884 
L 209.801728 10.630448 
L 209.801833 11.086241 
L 209.801937 11.542266 
L 209.802041 11.998581 
L 209.802146 12.285485 
" clip-path="url(#pfaaffc9a34)" style="fill: none; stroke: #ffffff; stroke-width: 0.3"/>
    <path d="M 230.33251 12.31126 
L 230.114312 109.876004 
L 230.114312 109.876004 
" clip-path="url(#pfaaffc9a34)" style="fill: none; stroke: #ffffff; stroke-width: 0.3"/>
    <path d="M 316.173671 28.931723 
L 313.708896 29.582548 
L 313.127765 30.395258 
L 311.40597 30.066143 
L 310.662677 30.432909 
L 309.761813 29.762041 
L 309.510118 30.243489 
L 308.759207 29.667965 
L 308.175466 30.51539 
L 305.269495 31.612265 
L 306.048163 33.159818 
L 305.582757 34.738029 
L 304.508044 34.74101 
L 304.358091 35.198261 
L 303.668017 34.42611 
L 302.783223 34.860053 
L 301.406518 36.817983 
L 300.628998 36.241385 
L 300.580787 34.955383 
L 299.043694 34.247141 
L 298.757459 33.396685 
L 297.109023 32.597824 
L 294.870899 32.791237 
L 293.84471 31.813998 
L 289.795675 32.593247 
L 288.367734 32.156707 
L 284.81061 35.422599 
L 230.323954 35.454158 
L 230.323954 35.454158 
" clip-path="url(#pfaaffc9a34)" style="fill: none; stroke: #ffffff; stroke-width: 0.3"/>
    <path d="M 286.024215 88.807366 
L 285.600758 88.77753 
L 285.566322 89.280552 
L 285.531886 89.78395 
L 285.49745 90.287661 
L 285.46291 90.791751 
L 285.428474 91.29635 
L 285.412404 91.532364 
L 284.787131 91.38111 
L 284.534393 90.982202 
L 284.281654 90.583469 
L 284.028916 90.185037 
L 283.776282 89.786777 
L 283.523543 89.388753 
L 283.48389 89.326399 
L 283.49589 87.581147 
L 283.710853 86.515273 
L 284.060117 86.251287 
L 284.409276 85.987405 
L 284.758539 85.72356 
L 285.107698 85.459883 
L 285.456962 85.196307 
L 285.806121 84.932834 
L 285.87061 84.884157 
L 286.203907 85.176905 
L 286.537205 85.469715 
L 286.870503 85.762651 
L 287.2038 86.055778 
L 287.537098 86.348903 
L 287.778254 86.561188 
L 286.434106 86.762537 
L 286.024215 88.807366 
" clip-path="url(#pfaaffc9a34)" style="fill: none; stroke: #ffffff; stroke-width: 0.3"/>
    <path d="M 230.325936 75.527097 
L 233.910295 77.285952 
L 235.106368 76.372323 
L 237.447383 76.383224 
L 238.666622 77.066547 
L 239.141002 78.246144 
L 239.878243 78.345471 
L 239.651697 79.702727 
L 240.705227 81.831195 
L 241.52814 82.070668 
L 242.613184 80.125412 
L 243.19108 81.192332 
L 244.814472 81.209845 
L 246.383287 82.176774 
L 246.71022 85.467608 
L 247.847335 85.824231 
L 248.394343 87.19345 
L 249.149533 87.115105 
L 251.480738 88.823985 
L 255.804738 93.239635 
L 257.548655 92.852202 
L 257.465174 91.130855 
L 258.410909 90.792652 
L 261.379805 90.815691 
L 263.270648 92.191634 
L 263.903121 91.888603 
L 265.774033 92.614043 
L 268.680735 92.079561 
L 270.99754 93.204756 
L 272.062444 92.408031 
L 273.635329 92.711943 
L 274.136006 91.818603 
L 275.125047 92.253869 
L 276.205603 91.697378 
L 277.571143 92.253353 
L 278.437988 93.486353 
L 278.468563 95.500028 
L 279.693124 97.341041 
L 278.914456 98.98267 
L 291.724085 105.075231 
L 291.724085 105.075231 
" clip-path="url(#pfaaffc9a34)" style="fill: none; stroke: #ffffff; stroke-width: 0.3"/>
   </g>
   <g id="line2d_1">
    <path d="M 282.414507 61.235789 
L 290.090675 41.082609 
L 290.848954 39.058614 
L 290.848954 39.058614 
" clip-path="url(#pfaaffc9a34)" style="fill: none; stroke: #008000; stroke-width: 0.75; stroke-linecap: square"/>
   </g>
   <g id="line2d_2">
    <path d="M 282.414507 61.235789 
L 279.451 68.413862 
L 279.451 68.413862 
" clip-path="url(#pfaaffc9a34)" style="fill: none; stroke: #008000; stroke-width: 0.75; stroke-linecap: square"/>
   </g>
   <g id="line2d_3">
    <path d="M 290.848954 39.058614 
L 302.874125 30.562916 
L 312.583146 23.508505 
L 312.583146 23.508505 
" clip-path="url(#pfaaffc9a34)" style="fill: none; stroke: #008000; stroke-width: 0.75; stroke-linecap: square"/>
   </g>
   <g id="line2d_4">
    <path d="M 275.259775 83.269484 
L 264.504558 92.16791 
L 260.416476 95.474223 
L 260.416476 95.474223 
" clip-path="url(#pfaaffc9a34)" style="fill: none; stroke: #008000; stroke-width: 0.75; stroke-linecap: square"/>
   </g>
   <g id="line2d_5">
    <path d="M 275.259775 83.269484 
L 279.451 68.413862 
L 279.451 68.413862 
" clip-path="url(#pfaaffc9a34)" style="fill: none; stroke: #008000; stroke-width: 0.75; stroke-linecap: square"/>
   </g>
   <g id="line2d_6">
    <path d="M 275.259775 83.269484 
L 285.911849 86.196104 
L 285.911849 86.196104 
" clip-path="url(#pfaaffc9a34)" style="fill: none; stroke: #008000; stroke-width: 0.75; stroke-linecap: square"/>
   </g>
   <g id="line2d_7">
    <path d="M 270.788617 92.930719 
L 260.919474 103.932107 
L 257.430127 107.741747 
L 257.430127 107.741747 
" clip-path="url(#pfaaffc9a34)" style="fill: none; stroke: #008000; stroke-width: 0.75; stroke-linecap: square"/>
   </g>
   <g id="line2d_8">
    <path d="M 270.788617 92.930719 
L 282.393847 87.79931 
L 285.911849 86.196104 
L 285.911849 86.196104 
" clip-path="url(#pfaaffc9a34)" style="fill: none; stroke: #008000; stroke-width: 0.75; stroke-linecap: square"/>
   </g>
   <g id="line2d_9">
    <path d="M 304.023618 66.732033 
L 300.131339 74.437833 
L 300.131339 74.437833 
" clip-path="url(#pfaaffc9a34)" style="fill: none; stroke: #008000; stroke-width: 0.75; stroke-linecap: square"/>
   </g>
   <g id="line2d_10">
    <path d="M 304.023618 66.732033 
L 312.10577 48.393727 
L 313.302857 45.63157 
L 313.302857 45.63157 
" clip-path="url(#pfaaffc9a34)" style="fill: none; stroke: #008000; stroke-width: 0.75; stroke-linecap: square"/>
   </g>
   <g id="line2d_11">
    <path d="M 313.302857 45.63157 
L 312.583146 23.508505 
L 312.583146 23.508505 
" clip-path="url(#pfaaffc9a34)" style="fill: none; stroke: #008000; stroke-width: 0.75; stroke-linecap: square"/>
   </g>
   <g id="line2d_12">
    <path d="M 253.308886 110.631888 
L 242.474641 103.45709 
L 231.585198 95.978384 
L 220.653375 88.200233 
L 213.912914 83.269123 
L 213.912914 83.269123 
" clip-path="url(#pfaaffc9a34)" style="fill: none; stroke: #008000; stroke-width: 0.75; stroke-linecap: square"/>
   </g>
   <g id="line2d_13">
    <path d="M 253.308886 110.631888 
L 242.474641 103.45709 
L 231.585198 95.978384 
L 220.653375 88.200233 
L 213.912914 83.269123 
L 213.912914 83.269123 
" clip-path="url(#pfaaffc9a34)" style="fill: none; stroke: #008000; stroke-width: 0.75; stroke-linecap: square"/>
   </g>
   <g id="line2d_14">
    <path d="M 253.308886 110.631888 
L 257.430127 107.741747 
L 257.430127 107.741747 
" clip-path="url(#pfaaffc9a34)" style="fill: none; stroke: #008000; stroke-width: 0.75; stroke-linecap: square"/>
   </g>
   <g id="line2d_15">
    <path d="M 260.416476 95.474223 
L 257.430127 107.741747 
L 257.430127 107.741747 
" clip-path="url(#pfaaffc9a34)" style="fill: none; stroke: #008000; stroke-width: 0.75; stroke-linecap: square"/>
   </g>
   <g id="line2d_16">
    <path d="M 58.217143 58.67956 
L 70.931757 62.020175 
L 83.379864 65.062092 
L 95.928859 67.899224 
L 108.573225 70.524579 
L 120.919742 72.861824 
L 133.344124 74.987924 
L 145.839816 76.89753 
L 158.00641 78.53637 
L 170.22661 79.963388 
L 182.493339 81.175011 
L 194.799227 82.168161 
L 207.136654 82.940285 
L 213.912914 83.269123 
L 213.912914 83.269123 
" clip-path="url(#pfaaffc9a34)" style="fill: none; stroke: #008000; stroke-width: 0.75; stroke-linecap: square"/>
   </g>
   <g id="line2d_17">
    <path d="M 58.217143 58.67956 
L 70.907929 55.790432 
L 83.593892 52.674157 
L 96.362776 49.30771 
L 96.742198 49.204158 
L 96.742198 49.204158 
" clip-path="url(#pfaaffc9a34)" style="fill: none; stroke: #008000; stroke-width: 0.75; stroke-linecap: square"/>
   </g>
   <g id="line2d_18">
    <path d="M 213.912914 83.269123 
L 208.213971 63.260144 
L 208.213971 63.260144 
" clip-path="url(#pfaaffc9a34)" style="fill: none; stroke: #008000; stroke-width: 0.75; stroke-linecap: square"/>
   </g>
   <g id="line2d_19">
    <path d="M 300.131339 74.437833 
L 289.217033 83.507206 
L 285.911849 86.196104 
L 285.911849 86.196104 
" clip-path="url(#pfaaffc9a34)" style="fill: none; stroke: #008000; stroke-width: 0.75; stroke-linecap: square"/>
   </g>
   <g id="line2d_20">
    <path d="M 96.742198 49.204158 
L 109.56123 51.68919 
L 122.460438 53.962752 
L 135.156894 55.977727 
L 147.918001 57.779794 
L 160.737113 59.364462 
L 173.607212 60.727707 
L 186.239797 61.843682 
L 198.906981 62.741597 
L 208.213971 63.260144 
L 208.213971 63.260144 
" clip-path="url(#pfaaffc9a34)" style="fill: none; stroke: #008000; stroke-width: 0.75; stroke-linecap: square"/>
   </g>
   <g id="patch_9">
    <path d="M 7.2 129.486855 
L 7.2 7.2 
" style="fill: none; stroke: #ffffff; stroke-linejoin: miter; stroke-linecap: square"/>
   </g>
   <g id="patch_10">
    <path d="M 364.32 129.486855 
L 364.32 7.2 
" style="fill: none; stroke: #ffffff; stroke-linejoin: miter; stroke-linecap: square"/>
   </g>
   <g id="patch_11">
    <path d="M 7.2 129.486855 
L 364.32 129.486855 
" style="fill: none; stroke: #ffffff; stroke-linejoin: miter; stroke-linecap: square"/>
   </g>
   <g id="patch_12">
    <path d="M 7.2 7.2 
L 364.32 7.2 
" style="fill: none; stroke: #ffffff; stroke-linejoin: miter; stroke-linecap: square"/>
   </g>
   <g id="PathCollection_1">
    <defs>
     <path id="ma81427b01a" d="M 0 1.118034 
C 0.296506 1.118034 0.580908 1.000231 0.790569 0.790569 
C 1.000231 0.580908 1.118034 0.296506 1.118034 0 
C 1.118034 -0.296506 1.000231 -0.580908 0.790569 -0.790569 
C 0.580908 -1.000231 0.296506 -1.118034 0 -1.118034 
C -0.296506 -1.118034 -0.580908 -1.000231 -0.790569 -0.790569 
C -1.000231 -0.580908 -1.118034 -0.296506 -1.118034 0 
C -1.118034 0.296506 -1.000231 0.580908 -0.790569 0.790569 
C -0.580908 1.000231 -0.296506 1.118034 0 1.118034 
z
" style="stroke: #ff0000"/>
    </defs>
    <g clip-path="url(#pfaaffc9a34)">
     <use xlink:href="#ma81427b01a" x="282.414507" y="61.235789" style="fill: #ff0000; stroke: #ff0000"/>
    </g>
   </g>
   <g id="PathCollection_2">
    <g clip-path="url(#pfaaffc9a34)">
     <use xlink:href="#ma81427b01a" x="290.848954" y="39.058614" style="fill: #ff0000; stroke: #ff0000"/>
    </g>
   </g>
   <g id="PathCollection_3">
    <defs>
     <path id="mbe4d700028" d="M 0 1.118034 
C 0.296506 1.118034 0.580908 1.000231 0.790569 0.790569 
C 1.000231 0.580908 1.118034 0.296506 1.118034 0 
C 1.118034 -0.296506 1.000231 -0.580908 0.790569 -0.790569 
C 0.580908 -1.000231 0.296506 -1.118034 0 -1.118034 
C -0.296506 -1.118034 -0.580908 -1.000231 -0.790569 -0.790569 
C -1.000231 -0.580908 -1.118034 -0.296506 -1.118034 0 
C -1.118034 0.296506 -1.000231 0.580908 -0.790569 0.790569 
C -0.580908 1.000231 -0.296506 1.118034 0 1.118034 
z
" style="stroke: #ffff00"/>
    </defs>
    <g clip-path="url(#pfaaffc9a34)">
     <use xlink:href="#mbe4d700028" x="275.259775" y="83.269484" style="fill: #ffff00; stroke: #ffff00"/>
    </g>
   </g>
   <g id="PathCollection_4">
    <g clip-path="url(#pfaaffc9a34)">
     <use xlink:href="#ma81427b01a" x="279.451" y="68.413862" style="fill: #ff0000; stroke: #ff0000"/>
    </g>
   </g>
   <g id="PathCollection_5">
    <g clip-path="url(#pfaaffc9a34)">
     <use xlink:href="#ma81427b01a" x="270.788617" y="92.930719" style="fill: #ff0000; stroke: #ff0000"/>
    </g>
   </g>
   <g id="PathCollection_6">
    <g clip-path="url(#pfaaffc9a34)">
     <use xlink:href="#ma81427b01a" x="304.023618" y="66.732033" style="fill: #ff0000; stroke: #ff0000"/>
    </g>
   </g>
   <g id="PathCollection_7">
    <g clip-path="url(#pfaaffc9a34)">
     <use xlink:href="#ma81427b01a" x="313.302857" y="45.63157" style="fill: #ff0000; stroke: #ff0000"/>
    </g>
   </g>
   <g id="PathCollection_8">
    <g clip-path="url(#pfaaffc9a34)">
     <use xlink:href="#ma81427b01a" x="253.308886" y="110.631888" style="fill: #ff0000; stroke: #ff0000"/>
    </g>
   </g>
   <g id="PathCollection_9">
    <g clip-path="url(#pfaaffc9a34)">
     <use xlink:href="#ma81427b01a" x="260.416476" y="95.474223" style="fill: #ff0000; stroke: #ff0000"/>
    </g>
   </g>
   <g id="PathCollection_10">
    <g clip-path="url(#pfaaffc9a34)">
     <use xlink:href="#ma81427b01a" x="58.217143" y="58.67956" style="fill: #ff0000; stroke: #ff0000"/>
    </g>
   </g>
   <g id="PathCollection_11">
    <g clip-path="url(#pfaaffc9a34)">
     <use xlink:href="#ma81427b01a" x="213.912914" y="83.269123" style="fill: #ff0000; stroke: #ff0000"/>
    </g>
   </g>
   <g id="PathCollection_12">
    <g clip-path="url(#pfaaffc9a34)">
     <use xlink:href="#ma81427b01a" x="257.430127" y="107.741747" style="fill: #ff0000; stroke: #ff0000"/>
    </g>
   </g>
   <g id="PathCollection_13">
    <g clip-path="url(#pfaaffc9a34)">
     <use xlink:href="#ma81427b01a" x="300.131339" y="74.437833" style="fill: #ff0000; stroke: #ff0000"/>
    </g>
   </g>
   <g id="PathCollection_14">
    <g clip-path="url(#pfaaffc9a34)">
     <use xlink:href="#ma81427b01a" x="285.911849" y="86.196104" style="fill: #ff0000; stroke: #ff0000"/>
    </g>
   </g>
   <g id="PathCollection_15">
    <g clip-path="url(#pfaaffc9a34)">
     <use xlink:href="#ma81427b01a" x="312.583146" y="23.508505" style="fill: #ff0000; stroke: #ff0000"/>
    </g>
   </g>
   <g id="PathCollection_16">
    <g clip-path="url(#pfaaffc9a34)">
     <use xlink:href="#ma81427b01a" x="96.742198" y="49.204158" style="fill: #ff0000; stroke: #ff0000"/>
    </g>
   </g>
   <g id="PathCollection_17">
    <g clip-path="url(#pfaaffc9a34)">
     <use xlink:href="#ma81427b01a" x="208.213971" y="63.260144" style="fill: #ff0000; stroke: #ff0000"/>
    </g>
   </g>
  </g>
 </g>
 <defs>
  <clipPath id="pfaaffc9a34">
   <rect x="7.2" y="7.2" width="357.12" height="122.286855"/>
  </clipPath>
 </defs>
</svg>
