<?xml version="1.0" encoding="utf-8" standalone="no"?>
<!DOCTYPE svg PUBLIC "-//W3C//DTD SVG 1.1//EN"
  "http://www.w3.org/Graphics/SVG/1.1/DTD/svg11.dtd">
<svg xmlns:xlink="http://www.w3.org/1999/xlink" width="220.219095pt" height="280.512pt" viewBox="0 0 220.219095 280.512" xmlns="http://www.w3.org/2000/svg" version="1.1">
 <metadata>
  <rdf:RDF xmlns:dc="http://purl.org/dc/elements/1.1/" xmlns:cc="http://creativecommons.org/ns#" xmlns:rdf="http://www.w3.org/1999/02/22-rdf-syntax-ns#">
   <cc:Work>
    <dc:type rdf:resource="http://purl.org/dc/dcmitype/StillImage"/>
    <dc:date>2025-12-17T16:20:18.436492</dc:date>
    <dc:format>image/svg+xml</dc:format>
    <dc:creator>
     <cc:Agent>
      <dc:title>Matplotlib v3.10.6, https://matplotlib.org/</dc:title>
     </cc:Agent>
    </dc:creator>
   </cc:Work>
  </rdf:RDF>
 </metadata>
 <defs>
  <style type="text/css">*{stroke-linejoin: round; stroke-linecap: butt}</style>
 </defs>
 <g id="figure_1">
  <g id="patch_1">
   <path d="M -0 280.512 
L 220.219095 280.512 
L 220.219095 0 
L -0 0 
z
" style="fill: #ffffff"/>
  </g>
  <g id="axes_1">
   <g id="patch_2">
    <path d="M 7.2 273.312 
L 213.019095 273.312 
L 213.019095 7.2 
L 7.2 7.2 
z
" clip-path="url(#p463b682dd7)" style="fill: #add8e6; stroke: #ffffff; stroke-linejoin: miter"/>
   </g>
   <g id="patch_3">
    <path d="M 7.2 273.312 
L 213.019095 273.312 
L 213.019095 7.2 
L 7.2 7.2 
z
" clip-path="url(#p463b682dd7)" style="fill: #add8e6; stroke: #ffffff; stroke-linejoin: miter"/>
   </g>
   <g id="patch_4">
    <path d="M 7.2 86.587731 
L 7.636483 86.223493 
L 16.067755 85.155654 
L 10.43703 82.354412 
L 13.17932 75.828733 
L 7.2 74.737239 
L 7.2 62.155693 
L 7.217631 62.116597 
L 16.818072 55.551205 
L 23.418417 57.742357 
L 25.995476 57.757774 
L 23.491574 55.291762 
L 37.333599 53.035885 
L 43.523631 60.657078 
L 48.783716 58.373031 
L 50.8311 61.931228 
L 48.857543 58.281395 
L 41.642814 57.3268 
L 43.471233 48.563399 
L 47.731229 45.00688 
L 62.422677 43.654907 
L 67.193437 50.190872 
L 64.890588 52.89753 
L 67.870594 55.306932 
L 70.227512 53.266171 
L 69.37056 47.589589 
L 75.494964 50.221877 
L 74.468429 56.550915 
L 75.970399 50.222987 
L 73.922349 44.458148 
L 78.037207 37.104808 
L 80.853151 39.337573 
L 91.081202 39.098135 
L 97.181167 47.511716 
L 103.434817 50.561289 
L 97.509787 47.236265 
L 89.519631 36.142567 
L 83.285073 35.569095 
L 81.711947 32.026364 
L 85.421349 32.134083 
L 85.659733 29.781069 
L 81.090868 26.441344 
L 84.454742 21.279897 
L 75.969733 21.874163 
L 77.377119 18.250773 
L 85.622572 14.901058 
L 81.089031 15.531485 
L 84.710706 13.200942 
L 74.982368 9.603427 
L 78.896003 7.29723 
L 78.868025 7.199995 
L 106.976326 7.199995 
L 107.89637 12.410824 
L 103.834581 15.655928 
L 110.840388 15.262965 
L 110.400941 21.16796 
L 114.387065 16.708671 
L 122.726424 21.668444 
L 132.104886 18.516456 
L 131.265681 25.75411 
L 123.841191 31.088938 
L 126.746699 34.684454 
L 133.149008 32.506819 
L 139.328159 36.888606 
L 142.637791 29.28204 
L 140.444258 30.778337 
L 144.046348 27.361849 
L 153.004948 26.300868 
L 154.449507 29.655467 
L 153.170683 26.377828 
L 162.515832 15.01112 
L 172.296568 16.789256 
L 160.684897 18.97296 
L 160.356278 23.892847 
L 163.530478 19.114669 
L 166.753394 18.525953 
L 168.841293 20.227105 
L 173.558816 16.678158 
L 175.479476 22.687863 
L 183.175655 29.829021 
L 188.936129 27.003889 
L 189.486562 32.148636 
L 193.178883 36.004139 
L 191.056661 39.044214 
L 200.692937 42.2463 
L 200.108513 44.441745 
L 202.266058 42.989404 
L 207.998054 47.97303 
L 206.891168 44.148213 
L 211.754335 35.910874 
L 211.080186 32.195355 
L 213.019099 31.669193 
L 213.019099 273.312 
L 7.2 273.312 
z
" clip-path="url(#p463b682dd7)" style="fill: #d3d3d3"/>
   </g>
   <g id="patch_5">
    <path d="M 147.967624 7.199995 
L 148.088046 7.422339 
L 141.522518 8.418472 
L 140.315017 10.882214 
L 133.986831 7.199995 
z
" clip-path="url(#p463b682dd7)" style="fill: #d3d3d3"/>
   </g>
   <g id="matplotlib.axis_1"/>
   <g id="matplotlib.axis_2"/>
   <g id="LineCollection_1">
    <path d="M 7.2 86.58773 
L 7.636483 86.223498 
L 16.067755 85.155654 
L 10.43703 82.354412 
L 13.17932 75.828739 
L 7.2 74.737241 
" clip-path="url(#p463b682dd7)" style="fill: none; stroke: #000000; stroke-width: 0.6"/>
    <path d="M 7.2 62.155687 
L 7.217631 62.116598 
L 16.818072 55.5512 
L 23.418417 57.742349 
L 25.995476 57.757769 
L 23.491574 55.291763 
L 37.333599 53.035879 
L 43.52363 60.657072 
L 48.783717 58.373034 
L 50.831101 61.931226 
L 48.857543 58.28139 
L 41.642815 57.326799 
L 43.471232 48.563398 
L 47.731231 45.006869 
L 62.422677 43.654917 
L 67.193434 50.190877 
L 64.890587 52.89752 
L 67.870594 55.306926 
L 70.227514 53.266168 
L 69.370559 47.589595 
L 75.494966 50.221865 
L 74.468428 56.550924 
L 75.970401 50.222992 
L 73.922348 44.458142 
L 78.037205 37.104804 
L 80.853153 39.337572 
L 91.081202 39.098125 
L 97.181168 47.51171 
L 103.434814 50.56129 
L 97.509788 47.236258 
L 89.519632 36.142576 
L 83.285071 35.569106 
L 81.71195 32.026359 
L 85.421348 32.134093 
L 85.659735 29.78106 
L 81.090871 26.441336 
L 84.454742 21.27989 
L 75.969732 21.874158 
L 77.37712 18.250777 
L 85.622571 14.901047 
L 81.089029 15.531475 
L 84.710707 13.200952 
L 74.982367 9.603417 
L 78.896001 7.29722 
L 78.868025 7.2 
" clip-path="url(#p463b682dd7)" style="fill: none; stroke: #000000; stroke-width: 0.6"/>
    <path d="M 106.976327 7.2 
L 107.896371 12.41082 
L 103.834581 15.655917 
L 110.840385 15.26297 
L 110.400943 21.167955 
L 114.387064 16.708661 
L 122.72643 21.668442 
L 132.10489 18.516464 
L 131.26568 25.754098 
L 123.841191 31.088931 
L 126.746703 34.68446 
L 133.149005 32.506829 
L 139.328155 36.888596 
L 142.637786 29.282045 
L 140.444256 30.778326 
L 144.046346 27.361849 
L 153.00495 26.30088 
L 154.449502 29.655465 
L 153.170682 26.377832 
L 162.515828 15.011132 
L 172.296566 16.789258 
L 160.684901 18.97297 
L 160.356281 23.892847 
L 163.53048 19.114667 
L 166.753394 18.525952 
L 168.841291 20.227095 
L 173.558813 16.678149 
L 175.47947 22.687856 
L 183.175659 29.829012 
L 188.936125 27.003889 
L 189.486558 32.148628 
L 193.178881 36.004132 
L 191.056666 39.044216 
L 200.692932 42.246296 
L 200.108515 44.441742 
L 202.266053 42.989398 
L 207.998059 47.973039 
L 206.891166 44.148214 
L 211.754331 35.910882 
L 211.080184 32.195367 
L 213.019095 31.66919 
" clip-path="url(#p463b682dd7)" style="fill: none; stroke: #000000; stroke-width: 0.6"/>
    <path d="M 150.639373 7.2 
L 150.519964 12.238772 
L 148.44076 7.2 
" clip-path="url(#p463b682dd7)" style="fill: none; stroke: #000000; stroke-width: 0.6"/>
    <path d="M 147.967622 7.2 
L 148.088047 7.422328 
L 141.522522 8.418482 
L 140.315018 10.882218 
L 133.986834 7.2 
" clip-path="url(#p463b682dd7)" style="fill: none; stroke: #000000; stroke-width: 0.6"/>
   </g>
   <g id="LineCollection_2">
    <path d="M 153.195793 164.804023 
L 158.309567 170.112612 
L 162.521185 162.358197 
L 163.835997 162.250266 
L 165.150642 162.142328 
L 166.465455 162.034384 
L 167.780267 161.926431 
L 169.094912 161.81821 
L 170.409725 161.710506 
L 171.72437 161.60227 
L 172.767146 161.516621 
L 173.913045 160.499533 
L 175.059112 159.481283 
L 176.205178 158.462659 
L 177.351077 157.443399 
L 178.497143 156.4235 
L 179.643043 155.402962 
L 180.789109 154.381519 
L 181.422074 153.817235 
L 183.329841 155.190917 
L 185.280297 151.508967 
L 186.594942 151.398464 
L 187.909754 151.287954 
L 189.224399 151.177701 
L 190.539044 151.06744 
L 191.853689 150.956907 
L 191.930027 150.95056 
L 193.002769 148.647746 
L 194.290629 148.21524 
L 195.578489 147.782619 
L 196.866349 147.349617 
L 198.154209 146.916765 
L 199.441901 146.483797 
L 200.729761 146.050448 
L 202.017621 145.617514 
L 203.305481 145.183934 
L 203.596099 145.086269 
L 200.646058 141.787698 
L 201.737047 139.520285 
L 206.119421 139.675539 
L 208.612441 146.322565 
L 211.848916 147.69306 
L 213.019095 147.311386 
" clip-path="url(#p463b682dd7)" style="fill: none; stroke: #ffffff; stroke-width: 0.6"/>
    <path d="M 54.351664 256.317852 
L 52.638926 252.463732 
L 55.113532 243.655769 
L 54.132194 238.832868 
L 54.704223 237.055744 
L 55.276252 235.276746 
L 55.848448 233.495617 
L 56.420477 231.713106 
L 56.992505 229.9282 
L 57.564534 228.141903 
L 58.136563 226.353199 
L 58.708759 224.562841 
L 59.280788 222.770569 
L 59.660466 221.579975 
L 60.682317 220.323122 
L 61.704 219.065325 
L 62.725851 217.806581 
L 63.747702 216.546888 
L 64.769552 215.286246 
L 65.791403 214.024651 
L 66.813086 212.762102 
L 67.834937 211.498597 
L 68.370303 210.836014 
L 67.06654 210.558563 
L 65.762609 210.280557 
L 64.458845 210.003014 
L 63.154914 209.724915 
L 61.851151 209.447279 
L 60.54722 209.169087 
L 59.243456 208.891104 
L 57.939525 208.613074 
L 56.635594 208.334998 
L 55.729087 208.14167 
L 50.82859 203.72811 
L 47.744623 205.926892 
L 42.393132 205.908478 
L 39.906305 202.245002 
L 35.523932 204.082486 
L 34.745826 202.457468 
L 33.967719 200.830858 
L 33.18978 199.202652 
L 32.411674 197.572845 
L 31.633567 195.941434 
L 31.348808 195.343653 
L 27.435676 194.190713 
L 27.991132 192.35331 
L 28.546587 190.513604 
L 29.102043 188.672105 
L 29.657498 186.828549 
L 30.212954 184.982929 
L 30.768409 183.13524 
L 30.995245 182.380018 
L 25.034227 179.884703 
L 21.962313 173.857703 
L 23.291021 167.903731 
L 28.228012 164.784882 
L 27.703862 160.751367 
L 23.546985 157.820002 
L 25.430479 154.518734 
L 20.115482 151.239306 
L 21.249161 144.293589 
L 16.507198 139.840364 
L 17.740818 139.109042 
L 18.974438 138.376857 
L 20.208058 137.644872 
L 21.441678 136.91229 
L 22.675299 136.179374 
L 23.211837 135.860704 
L 21.163783 132.962031 
L 24.375984 128.604492 
L 23.702004 126.79203 
L 23.028025 124.977523 
L 22.354213 123.160965 
L 21.680233 121.34235 
L 21.006254 119.521672 
L 20.332274 117.699195 
L 19.658462 115.874372 
L 18.984483 114.047468 
L 18.354029 112.336844 
L 23.150901 111.902874 
L 22.894936 109.474315 
L 28.343858 112.228227 
L 29.627533 111.755211 
L 30.911207 111.281783 
L 32.194882 110.808486 
L 33.478557 110.335049 
L 34.762232 109.861472 
L 35.865275 109.454507 
L 37.699885 106.913512 
L 34.670493 103.734088 
L 35.859917 102.815563 
L 37.049342 101.896507 
L 38.238767 100.976922 
L 39.428024 100.056804 
L 40.617449 99.136155 
L 41.806874 98.214973 
L 42.594188 97.604929 
L 41.228819 89.642525 
L 36.176149 89.622194 
L 34.60353 86.418149 
L 36.255332 82.725052 
L 42.56372 83.006216 
L 43.103439 81.026239 
L 43.643158 79.043224 
L 44.182878 77.057994 
L 44.72243 75.070263 
L 45.262149 73.079746 
L 45.801868 71.087267 
L 46.165978 69.741502 
L 46.068547 67.557853 
L 45.971116 65.371447 
L 45.873686 63.181437 
L 45.776255 60.988927 
L 45.678824 58.793069 
L 45.666101 58.507827 
L 41.338637 58.171242 
L 39.156658 53.49024 
L 37.902112 52.819336 
L 36.647734 52.147864 
L 35.393188 51.476103 
L 34.138809 50.804335 
L 32.88443 50.131715 
L 31.629884 49.459369 
L 30.375506 48.786452 
L 29.12096 48.113245 
L 28.459703 47.758333 
" clip-path="url(#p463b682dd7)" style="fill: none; stroke: #ffffff; stroke-width: 0.6"/>
    <path d="M 95.759745 273.312 
L 96.096875 268.303207 
L 100.083164 262.487483 
L 97.754704 257.762977 
" clip-path="url(#p463b682dd7)" style="fill: none; stroke: #ffffff; stroke-width: 0.6"/>
    <path d="M 101.356962 257.888453 
L 102.606653 255.992437 
L 106.452488 257.527623 
L 109.40956 263.6316 
L 112.33449 262.928361 
L 111.059688 266.382455 
L 116.644042 262.831194 
L 117.624878 256.109603 
L 118.197409 257.78108 
L 119.514062 257.78108 
L 120.830549 257.78108 
L 122.147203 257.78108 
L 123.463689 257.78108 
L 124.780176 257.78108 
L 126.096662 257.78108 
L 126.621148 257.78108 
L 128.723274 262.351463 
L 135.110677 262.26391 
L 136.274656 261.354972 
L 137.438803 260.44555 
L 138.602782 259.535643 
L 139.766928 258.625498 
L 140.930907 257.714619 
L 142.095053 256.803501 
L 143.200775 255.937326 
L 144.516926 255.89264 
L 145.833246 255.84845 
L 147.149397 255.803762 
L 148.465549 255.759569 
L 149.781701 255.714879 
L 151.09802 255.670684 
L 152.414171 255.625991 
L 153.730323 255.581794 
L 155.046642 255.537098 
L 155.444568 255.52369 
L 156.785328 251.166709 
L 156.688735 252.999473 
L 160.833558 252.618204 
L 162.509969 254.781574 
L 168.243649 253.423171 
L 168.908421 257.38451 
L 174.249198 259.19771 
L 174.839474 253.081038 
L 171.126728 251.777021 
L 173.279243 247.537648 
L 172.383115 246.100028 
L 171.486987 244.660686 
L 170.590859 243.22037 
L 169.69473 241.778827 
L 168.798602 240.335804 
L 167.902474 238.892048 
L 167.780602 238.695442 
L 169.011041 237.994092 
L 170.241648 237.292451 
L 171.472088 236.590517 
L 172.702695 235.888292 
L 173.933134 235.185774 
L 175.163741 234.482963 
L 176.39418 233.779859 
L 177.624787 233.076209 
L 178.855226 232.372517 
L 180.085666 231.668531 
L 181.316273 230.964251 
L 181.751363 230.715062 
L 182.920866 224.013698 
L 189.029538 225.697487 
L 191.399347 217.248867 
L 186.828809 211.20851 
L 183.853322 211.465716 
L 182.725335 210.432063 
L 181.597349 209.397259 
L 180.469362 208.362067 
L 179.341376 207.32623 
L 178.213222 206.289493 
L 177.119219 205.283834 
L 173.674323 199.640402 
L 172.436183 198.954071 
L 171.198043 198.267456 
L 169.959903 197.580556 
L 168.721595 196.893628 
L 167.483455 196.205901 
L 166.245315 195.518403 
L 165.726856 195.230145 
L 164.882457 193.676292 
L 164.038057 192.120977 
L 163.193658 190.564197 
L 162.349258 189.006207 
L 161.504859 187.446486 
L 160.660459 185.885289 
L 159.980118 184.62625 
L 163.082667 178.653044 
L 161.894916 177.770641 
L 160.707166 176.888023 
L 159.519415 176.004931 
L 158.331664 175.121364 
L 157.143913 174.23732 
L 156.864344 174.02875 
L 156.169272 172.286412 
L 155.474366 170.54222 
L 154.779461 168.795907 
L 154.084388 167.047989 
L 153.389483 165.298201 
L 153.18893 164.792748 
" clip-path="url(#p463b682dd7)" style="fill: none; stroke: #ffffff; stroke-width: 0.6"/>
    <path d="M 35.45742 273.312 
L 35.909135 272.745306 
L 36.91006 271.488941 
L 37.910985 270.231655 
L 38.911909 268.973693 
L 39.912834 267.714313 
L 40.913759 266.4545 
L 41.914684 265.193512 
L 42.78319 264.098619 
L 38.821342 263.720566 
L 41.222792 259.17095 
L 45.77592 259.234132 
L 46.848495 261.649923 
L 48.042607 260.83027 
L 49.236719 260.010222 
L 50.430831 259.189781 
L 51.624944 258.368944 
L 52.819056 257.547712 
L 54.013001 256.726084 
L 55.207113 255.903812 
L 55.485343 255.712396 
L 56.168027 257.699988 
L 57.469949 257.410306 
L 58.771872 257.120575 
L 60.073794 256.830795 
L 61.375716 256.540965 
L 62.677638 256.251086 
L 63.979727 255.961158 
L 65.281649 255.671428 
L 66.583572 255.381401 
L 67.736502 255.124607 
L 69.050812 255.239598 
L 70.364955 255.354333 
L 71.679265 255.469557 
L 72.993575 255.584277 
L 74.307718 255.699237 
L 75.622028 255.814189 
L 76.007566 255.847953 
L 77.013178 253.867145 
L 72.295656 252.445822 
L 75.794122 249.082231 
L 76.982877 249.92475 
L 78.171465 250.766851 
L 79.360053 251.608784 
L 80.548808 252.449802 
L 81.737396 253.290901 
L 82.926151 254.131336 
L 82.961976 254.156684 
L 84.27796 254.094804 
L 85.593777 254.03317 
L 86.909594 253.971534 
L 88.225578 253.909398 
L 89.541395 253.847757 
L 90.857379 253.786115 
L 91.056258 253.776669 
L 92.326038 254.292863 
L 93.595986 254.8089 
L 94.865766 255.324533 
L 96.135546 255.840505 
L 97.405326 256.355825 
L 98.675106 256.871238 
L 99.944886 257.386494 
L 101.214666 257.901595 
L 101.296026 257.934574 
" clip-path="url(#p463b682dd7)" style="fill: none; stroke: #ffffff; stroke-width: 0.6"/>
    <path d="M 27.435676 194.190713 
L 24.528324 192.558283 
L 19.000051 194.575202 
L 14.386155 190.9054 
L 7.92526 192.633304 
L 7.2 191.541296 
" clip-path="url(#p463b682dd7)" style="fill: none; stroke: #ffffff; stroke-width: 0.6"/>
    <path d="M 155.112372 273.312 
L 155.292395 272.193101 
L 154.021611 272.698108 
L 152.750826 273.202966 
L 152.476157 273.312 
" clip-path="url(#p463b682dd7)" style="fill: none; stroke: #ffffff; stroke-width: 0.6"/>
    <path d="M 213.019095 123.635307 
L 211.178452 122.844013 
L 211.598977 117.830115 
L 208.179528 112.563535 
L 208.899377 110.779206 
L 209.619226 108.993154 
L 210.339074 107.204831 
L 211.058923 105.414502 
L 211.778772 103.622433 
L 211.781786 103.61508 
L 211.019583 101.867881 
L 210.25738 100.11849 
L 209.49501 98.367447 
L 208.732807 96.614475 
L 207.970604 94.859568 
L 207.208401 93.10272 
L 206.76561 92.0812 
L 209.09993 85.666117 
L 207.936453 84.652469 
L 206.772809 83.637896 
L 205.609332 82.622672 
L 204.445688 81.606796 
L 203.282211 80.590543 
L 202.118735 79.573636 
L 200.95509 78.555797 
L 199.791614 77.537301 
L 198.628137 76.518149 
L 197.805668 75.797698 
L 198.612736 74.074486 
L 199.419803 72.349667 
L 200.226871 70.622957 
L 201.033939 68.894073 
L 201.840839 67.163287 
L 202.647907 65.430874 
L 203.454975 63.696548 
L 204.261875 61.960026 
L 204.894338 60.598024 
L 204.476491 58.509789 
L 204.058644 56.418487 
L 203.640629 54.32439 
L 203.222782 52.227488 
L 202.804935 50.128053 
L 202.387088 48.025512 
L 201.969073 45.920419 
L 201.551226 43.812201 
L 201.133379 41.701129 
L 200.715531 39.587194 
L 200.297684 37.470669 
L 199.975761 35.838097 
" clip-path="url(#p463b682dd7)" style="fill: none; stroke: #ffffff; stroke-width: 0.6"/>
    <path d="M 191.375408 217.211273 
L 196.519649 222.944743 
L 202.498915 224.41868 
L 205.321058 221.312412 
L 210.392142 223.589639 
L 212.927685 216.859677 
L 213.019095 216.868614 
" clip-path="url(#p463b682dd7)" style="fill: none; stroke: #ffffff; stroke-width: 0.6"/>
    <path d="M 19.743672 149.823642 
L 18.427186 149.816233 
L 17.110699 149.808823 
L 15.794045 149.801414 
L 14.477559 149.794004 
L 13.161072 149.786594 
L 12.874472 149.785007 
L 11.576233 146.824507 
L 12.308637 145.091047 
L 13.040874 143.355464 
L 13.773111 141.618018 
L 14.505516 139.878972 
L 15.237753 138.138052 
L 15.970157 136.394988 
L 16.178076 135.899674 
L 14.959188 135.106482 
L 13.740132 134.3129 
L 12.521244 133.51866 
L 11.302188 132.724295 
L 10.0833 131.92954 
L 8.864244 131.134392 
L 8.754258 131.062378 
L 7.2 131.320955 
" clip-path="url(#p463b682dd7)" style="fill: none; stroke: #ffffff; stroke-width: 0.6"/>
    <path d="M 22.40728 171.530101 
L 18.82327 170.093794 
L 17.959451 171.64421 
L 17.095632 173.19316 
L 16.231814 174.740387 
L 15.367995 176.286677 
L 14.504176 177.830991 
L 13.640358 179.374114 
L 13.587625 179.468449 
L 17.27526 187.330883 
L 15.288142 191.318776 
" clip-path="url(#p463b682dd7)" style="fill: none; stroke: #ffffff; stroke-width: 0.6"/>
    <path d="M 98.467856 273.177899 
L 97.035524 266.399726 
" clip-path="url(#p463b682dd7)" style="fill: none; stroke: #ffffff; stroke-width: 0.6"/>
    <path d="M 78.29317 252.799025 
L 78.311417 252.799025 
" clip-path="url(#p463b682dd7)" style="fill: none; stroke: #ffffff; stroke-width: 0.6"/>
   </g>
   <g id="LineCollection_3"/>
   <g id="line2d_1">
    <path d="M 102.868577 92.151128 
L 121.549964 90.700149 
L 140.262889 89.468998 
L 159.002223 88.4588 
L 177.762782 87.670482 
L 183.616367 87.470164 
L 183.616367 87.470164 
" clip-path="url(#p463b682dd7)" style="fill: none; stroke: #008000; stroke-width: 0.75; stroke-linecap: square"/>
   </g>
   <g id="line2d_2">
    <path d="M 102.868577 92.151128 
L 87.675518 74.762734 
L 80.926243 67.146076 
L 80.926243 67.146076 
" clip-path="url(#p463b682dd7)" style="fill: none; stroke: #008000; stroke-width: 0.75; stroke-linecap: square"/>
   </g>
   <g id="line2d_3">
    <path d="M 102.868577 92.151128 
L 85.507803 102.583873 
L 68.121469 113.292404 
L 51.962362 123.480888 
L 51.962362 123.480888 
" clip-path="url(#p463b682dd7)" style="fill: none; stroke: #008000; stroke-width: 0.75; stroke-linecap: square"/>
   </g>
   <g id="line2d_4">
    <path d="M 102.868577 92.151128 
L 92.467297 124.451174 
L 82.108542 157.347867 
L 77.854316 171.073567 
L 77.854316 171.073567 
" clip-path="url(#p463b682dd7)" style="fill: none; stroke: #008000; stroke-width: 0.75; stroke-linecap: square"/>
   </g>
   <g id="line2d_5">
    <path d="M 102.868577 92.151128 
L 109.012431 49.883325 
L 109.012431 49.883325 
" clip-path="url(#p463b682dd7)" style="fill: none; stroke: #008000; stroke-width: 0.75; stroke-linecap: square"/>
   </g>
   <g id="line2d_6">
    <path d="M 102.868577 92.151128 
L 120.086598 103.194877 
L 137.207589 114.439227 
L 154.366268 125.973894 
L 159.4798 129.463201 
L 159.4798 129.463201 
" clip-path="url(#p463b682dd7)" style="fill: none; stroke: #008000; stroke-width: 0.75; stroke-linecap: square"/>
   </g>
   <g id="line2d_7">
    <path d="M 77.854316 171.073567 
L 60.848692 158.270582 
L 43.758473 145.682707 
L 41.649465 144.148539 
L 41.649465 144.148539 
" clip-path="url(#p463b682dd7)" style="fill: none; stroke: #008000; stroke-width: 0.75; stroke-linecap: square"/>
   </g>
   <g id="line2d_8">
    <path d="M 77.854316 171.073567 
L 95.810893 161.473487 
L 113.774877 152.122985 
L 131.739294 143.02392 
L 149.697008 134.177884 
L 159.4798 129.463201 
L 159.4798 129.463201 
" clip-path="url(#p463b682dd7)" style="fill: none; stroke: #008000; stroke-width: 0.75; stroke-linecap: square"/>
   </g>
   <g id="line2d_9">
    <path d="M 77.854316 171.073567 
L 74.12412 193.177616 
L 74.12412 193.177616 
" clip-path="url(#p463b682dd7)" style="fill: none; stroke: #008000; stroke-width: 0.75; stroke-linecap: square"/>
   </g>
   <g id="line2d_10">
    <path d="M 77.854316 171.073567 
L 96.165404 178.929937 
L 114.432638 187.010062 
L 130.954765 194.528233 
L 130.954765 194.528233 
" clip-path="url(#p463b682dd7)" style="fill: none; stroke: #008000; stroke-width: 0.75; stroke-linecap: square"/>
   </g>
   <g id="line2d_11">
    <path d="M 109.012431 49.883325 
L 126.631052 58.360019 
L 144.245299 67.080301 
L 161.848361 76.042456 
L 179.433581 85.244516 
L 183.616367 87.470164 
L 183.616367 87.470164 
" clip-path="url(#p463b682dd7)" style="fill: none; stroke: #008000; stroke-width: 0.75; stroke-linecap: square"/>
   </g>
   <g id="line2d_12">
    <path d="M 109.012431 49.883325 
L 91.779233 60.393013 
L 80.926243 67.146076 
L 80.926243 67.146076 
" clip-path="url(#p463b682dd7)" style="fill: none; stroke: #008000; stroke-width: 0.75; stroke-linecap: square"/>
   </g>
   <g id="line2d_13">
    <path d="M 46.037932 48.035611 
L 63.457684 57.450955 
L 80.926243 67.146076 
L 80.926243 67.146076 
" clip-path="url(#p463b682dd7)" style="fill: none; stroke: #008000; stroke-width: 0.75; stroke-linecap: square"/>
   </g>
   <g id="line2d_14">
    <path d="M 46.037932 48.035611 
L 51.25374 114.264307 
L 51.962362 123.480888 
L 51.962362 123.480888 
" clip-path="url(#p463b682dd7)" style="fill: none; stroke: #008000; stroke-width: 0.75; stroke-linecap: square"/>
   </g>
   <g id="line2d_15">
    <path d="M 183.616367 87.470164 
L 170.337878 110.389838 
L 159.4798 129.463201 
L 159.4798 129.463201 
" clip-path="url(#p463b682dd7)" style="fill: none; stroke: #008000; stroke-width: 0.75; stroke-linecap: square"/>
   </g>
   <g id="line2d_16">
    <path d="M 141.267662 237.837327 
L 131.98147 198.786793 
L 130.954765 194.528233 
L 130.954765 194.528233 
" clip-path="url(#p463b682dd7)" style="fill: none; stroke: #008000; stroke-width: 0.75; stroke-linecap: square"/>
   </g>
   <g id="line2d_17">
    <path d="M 141.267662 237.837327 
L 122.187765 233.152105 
L 107.037621 229.595198 
L 107.037621 229.595198 
" clip-path="url(#p463b682dd7)" style="fill: none; stroke: #008000; stroke-width: 0.75; stroke-linecap: square"/>
   </g>
   <g id="line2d_18">
    <path d="M 107.037621 229.595198 
L 89.049437 219.276897 
L 87.94779 218.65332 
L 87.94779 218.65332 
" clip-path="url(#p463b682dd7)" style="fill: none; stroke: #008000; stroke-width: 0.75; stroke-linecap: square"/>
   </g>
   <g id="line2d_19">
    <path d="M 130.954765 194.528233 
L 142.983728 166.711659 
L 155.065019 139.331575 
L 159.4798 129.463201 
L 159.4798 129.463201 
" clip-path="url(#p463b682dd7)" style="fill: none; stroke: #008000; stroke-width: 0.75; stroke-linecap: square"/>
   </g>
   <g id="line2d_20">
    <path d="M 130.954765 194.528233 
L 113.00046 204.421659 
L 95.047022 214.569717 
L 87.94779 218.65332 
L 87.94779 218.65332 
" clip-path="url(#p463b682dd7)" style="fill: none; stroke: #008000; stroke-width: 0.75; stroke-linecap: square"/>
   </g>
   <g id="line2d_21">
    <path d="M 87.94779 218.65332 
L 72.368733 209.312854 
L 72.368733 209.312854 
" clip-path="url(#p463b682dd7)" style="fill: none; stroke: #008000; stroke-width: 0.75; stroke-linecap: square"/>
   </g>
   <g id="line2d_22">
    <path d="M 72.368733 209.312854 
L 74.12412 193.177616 
L 74.12412 193.177616 
" clip-path="url(#p463b682dd7)" style="fill: none; stroke: #008000; stroke-width: 0.75; stroke-linecap: square"/>
   </g>
   <g id="line2d_23">
    <path d="M 41.430041 125.94689 
L 51.962362 123.480888 
L 51.962362 123.480888 
" clip-path="url(#p463b682dd7)" style="fill: none; stroke: #008000; stroke-width: 0.75; stroke-linecap: square"/>
   </g>
   <g id="line2d_24">
    <path d="M 41.430041 125.94689 
L 36.602728 133.672664 
L 36.602728 133.672664 
" clip-path="url(#p463b682dd7)" style="fill: none; stroke: #008000; stroke-width: 0.75; stroke-linecap: square"/>
   </g>
   <g id="line2d_25">
    <path d="M 51.962362 123.480888 
L 41.649465 144.148539 
L 41.649465 144.148539 
" clip-path="url(#p463b682dd7)" style="fill: none; stroke: #008000; stroke-width: 0.75; stroke-linecap: square"/>
   </g>
   <g id="line2d_26">
    <path d="M 36.602728 133.672664 
L 41.649465 144.148539 
L 41.649465 144.148539 
" clip-path="url(#p463b682dd7)" style="fill: none; stroke: #008000; stroke-width: 0.75; stroke-linecap: square"/>
   </g>
   <g id="patch_6">
    <path d="M 7.2 273.312 
L 7.2 7.2 
" style="fill: none; stroke: #ffffff; stroke-linejoin: miter; stroke-linecap: square"/>
   </g>
   <g id="patch_7">
    <path d="M 213.019095 273.312 
L 213.019095 7.2 
" style="fill: none; stroke: #ffffff; stroke-linejoin: miter; stroke-linecap: square"/>
   </g>
   <g id="patch_8">
    <path d="M 7.2 273.312 
L 213.019095 273.312 
" style="fill: none; stroke: #ffffff; stroke-linejoin: miter; stroke-linecap: square"/>
   </g>
   <g id="patch_9">
    <path d="M 7.2 7.2 
L 213.019095 7.2 
" style="fill: none; stroke: #ffffff; stroke-linejoin: miter; stroke-linecap: square"/>
   </g>
   <g id="PathCollection_1">
    <defs>
     <path id="mb5d47befe6" d="M 0 1.118034 
C 0.296506 1.118034 0.580908 1.000231 0.790569 0.790569 
C 1.000231 0.580908 1.118034 0.296506 1.118034 0 
C 1.118034 -0.296506 1.000231 -0.580908 0.790569 -0.790569 
C 0.580908 -1.000231 0.296506 -1.118034 0 -1.118034 
C -0.296506 -1.118034 -0.580908 -1.000231 -0.790569 -0.790569 
C -1.000231 -0.580908 -1.118034 -0.296506 -1.118034 0 
C -1.118034 0.296506 -1.000231 0.580908 -0.790569 0.790569 
C -0.580908 1.000231 -0.296506 1.118034 0 1.118034 
z
" style="stroke: #ff0000"/>
    </defs>
    <g clip-path="url(#p463b682dd7)">
     <use xlink:href="#mb5d47befe6" x="102.868577" y="92.151128" style="fill: #ff0000; stroke: #ff0000"/>
    </g>
   </g>
   <g id="PathCollection_2">
    <g clip-path="url(#p463b682dd7)">
     <use xlink:href="#mb5d47befe6" x="77.854316" y="171.073567" style="fill: #ff0000; stroke: #ff0000"/>
    </g>
   </g>
   <g id="PathCollection_3">
    <g clip-path="url(#p463b682dd7)">
     <use xlink:href="#mb5d47befe6" x="109.012431" y="49.883325" style="fill: #ff0000; stroke: #ff0000"/>
    </g>
   </g>
   <g id="PathCollection_4">
    <g clip-path="url(#p463b682dd7)">
     <use xlink:href="#mb5d47befe6" x="46.037932" y="48.035611" style="fill: #ff0000; stroke: #ff0000"/>
    </g>
   </g>
   <g id="PathCollection_5">
    <g clip-path="url(#p463b682dd7)">
     <use xlink:href="#mb5d47befe6" x="80.926243" y="67.146076" style="fill: #ff0000; stroke: #ff0000"/>
    </g>
   </g>
   <g id="PathCollection_6">
    <g clip-path="url(#p463b682dd7)">
     <use xlink:href="#mb5d47befe6" x="183.616367" y="87.470164" style="fill: #ff0000; stroke: #ff0000"/>
    </g>
   </g>
   <g id="PathCollection_7">
    <g clip-path="url(#p463b682dd7)">
     <use xlink:href="#mb5d47befe6" x="141.267662" y="237.837327" style="fill: #ff0000; stroke: #ff0000"/>
    </g>
   </g>
   <g id="PathCollection_8">
    <g clip-path="url(#p463b682dd7)">
     <use xlink:href="#mb5d47befe6" x="107.037621" y="229.595198" style="fill: #ff0000; stroke: #ff0000"/>
    </g>
   </g>
   <g id="PathCollection_9">
    <g clip-path="url(#p463b682dd7)">
     <use xlink:href="#mb5d47befe6" x="130.954765" y="194.528233" style="fill: #ff0000; stroke: #ff0000"/>
    </g>
   </g>
   <g id="PathCollection_10">
    <g clip-path="url(#p463b682dd7)">
     <use xlink:href="#mb5d47befe6" x="87.94779" y="218.65332" style="fill: #ff0000; stroke: #ff0000"/>
    </g>
   </g>
   <g id="PathCollection_11">
    <g clip-path="url(#p463b682dd7)">
     <use xlink:href="#mb5d47befe6" x="72.368733" y="209.312854" style="fill: #ff0000; stroke: #ff0000"/>
    </g>
   </g>
   <g id="PathCollection_12">
    <g clip-path="url(#p463b682dd7)">
     <use xlink:href="#mb5d47befe6" x="74.12412" y="193.177616" style="fill: #ff0000; stroke: #ff0000"/>
    </g>
   </g>
   <g id="PathCollection_13">
    <g clip-path="url(#p463b682dd7)">
     <use xlink:href="#mb5d47befe6" x="41.430041" y="125.94689" style="fill: #ff0000; stroke: #ff0000"/>
    </g>
   </g>
   <g id="PathCollection_14">
    <g clip-path="url(#p463b682dd7)">
     <use xlink:href="#mb5d47befe6" x="51.962362" y="123.480888" style="fill: #ff0000; stroke: #ff0000"/>
    </g>
   </g>
   <g id="PathCollection_15">
    <g clip-path="url(#p463b682dd7)">
     <use xlink:href="#mb5d47befe6" x="36.602728" y="133.672664" style="fill: #ff0000; stroke: #ff0000"/>
    </g>
   </g>
   <g id="PathCollection_16">
    <g clip-path="url(#p463b682dd7)">
     <use xlink:href="#mb5d47befe6" x="41.649465" y="144.148539" style="fill: #ff0000; stroke: #ff0000"/>
    </g>
   </g>
   <g id="PathCollection_17">
    <g clip-path="url(#p463b682dd7)">
     <use xlink:href="#mb5d47befe6" x="159.4798" y="129.463201" style="fill: #ff0000; stroke: #ff0000"/>
    </g>
   </g>
  </g>
 </g>
 <defs>
  <clipPath id="p463b682dd7">
   <rect x="7.2" y="7.2" width="205.819095" height="266.112"/>
  </clipPath>
 </defs>
</svg>
