<?xml version="1.0" encoding="utf-8" standalone="no"?>
<!DOCTYPE svg PUBLIC "-//W3C//DTD SVG 1.1//EN"
  "http://www.w3.org/Graphics/SVG/1.1/DTD/svg11.dtd">
<svg xmlns:xlink="http://www.w3.org/1999/xlink" width="279.07963pt" height="280.512pt" viewBox="0 0 279.07963 280.512" xmlns="http://www.w3.org/2000/svg" version="1.1">
 <metadata>
  <rdf:RDF xmlns:dc="http://purl.org/dc/elements/1.1/" xmlns:cc="http://creativecommons.org/ns#" xmlns:rdf="http://www.w3.org/1999/02/22-rdf-syntax-ns#">
   <cc:Work>
    <dc:type rdf:resource="http://purl.org/dc/dcmitype/StillImage"/>
    <dc:date>2025-12-17T16:19:36.504990</dc:date>
    <dc:format>image/svg+xml</dc:format>
    <dc:creator>
     <cc:Agent>
      <dc:title>Matplotlib v3.10.6, https://matplotlib.org/</dc:title>
     </cc:Agent>
    </dc:creator>
   </cc:Work>
  </rdf:RDF>
 </metadata>
 <defs>
  <style type="text/css">*{stroke-linejoin: round; stroke-linecap: butt}</style>
 </defs>
 <g id="figure_1">
  <g id="patch_1">
   <path d="M 0 280.512 
L 279.07963 280.512 
L 279.07963 0 
L 0 0 
z
" style="fill: #ffffff"/>
  </g>
  <g id="axes_1">
   <g id="patch_2">
    <path d="M 7.2 273.312 
L 271.87963 273.312 
L 271.87963 7.2 
L 7.2 7.2 
z
" clip-path="url(#pdd79e651ce)" style="fill: #add8e6; stroke: #ffffff; stroke-linejoin: miter"/>
   </g>
   <g id="patch_3">
    <path d="M 7.2 273.312 
L 271.87963 273.312 
L 271.87963 7.2 
L 7.2 7.2 
z
" clip-path="url(#pdd79e651ce)" style="fill: #add8e6; stroke: #ffffff; stroke-linejoin: miter"/>
   </g>
   <g id="patch_4">
    <path d="M 271.879635 93.779443 
L 271.338196 92.960741 
L 270.175635 99.64336 
L 267.097889 97.205959 
L 270.319916 100.017974 
L 268.776103 101.998527 
L 267.565365 98.863414 
L 262.372166 99.102227 
L 269.200065 104.661828 
L 269.127943 107.902121 
L 265.833774 106.714906 
L 270.414716 109.85518 
L 268.313308 111.6573 
L 263.933689 107.445274 
L 268.494581 113.122872 
L 265.09625 112.727747 
L 267.180448 117.516152 
L 264.560547 120.654901 
L 266.475732 131.948632 
L 270.861337 137.399216 
L 267.097889 140.111519 
L 271.14756 141.163001 
L 271.879635 146.04042 
L 271.879635 151.768727 
L 261.181229 142.992624 
L 258.118582 144.539104 
L 252.241504 141.487529 
L 248.8963 132.491415 
L 246.594125 136.525622 
L 245.063838 134.648665 
L 241.30509 137.774301 
L 240.361811 133.016144 
L 243.907014 129.292238 
L 241.71942 125.370464 
L 238.250003 139.213097 
L 248.262171 136.744951 
L 250.085415 145.410493 
L 263.229241 147.664903 
L 267.788023 155.590138 
L 271.879635 157.290397 
L 271.879635 168.058709 
L 271.777276 168.296841 
L 271.879635 168.399344 
L 271.879635 171.089103 
L 271.521272 171.120319 
L 268.060182 167.452112 
L 266.446568 169.676496 
L 263.919625 164.081831 
L 252.181873 154.889729 
L 265.14364 170.559108 
L 271.879635 172.594937 
L 271.879635 173.918174 
L 269.778477 174.793851 
L 271.879635 176.00997 
L 271.879635 181.659028 
L 268.490667 178.7846 
L 268.210968 184.306903 
L 271.346791 185.52262 
L 266.715849 186.710392 
L 256.290388 174.403072 
L 262.725829 184.319019 
L 271.879635 190.374666 
L 271.879635 197.807367 
L 269.205801 198.592608 
L 261.756782 187.806165 
L 250.255214 186.847469 
L 258.701695 190.924298 
L 260.52964 188.755095 
L 261.223938 195.203851 
L 267.314043 199.037502 
L 265.952538 203.274825 
L 271.766858 200.40799 
L 271.879635 200.5838 
L 271.879635 233.127164 
L 268.29535 231.184515 
L 271.879635 234.14044 
L 271.879635 236.452284 
L 266.39135 239.423963 
L 259.194689 234.604362 
L 258.754822 242.49957 
L 270.229798 240.336837 
L 271.879635 241.239161 
L 271.879635 264.341383 
L 270.145435 267.088776 
L 269.518578 262.446979 
L 268.066955 266.113212 
L 265.763725 264.925869 
L 263.84359 260.402345 
L 267.741669 259.071852 
L 261.653387 258.654804 
L 264.284493 265.446601 
L 249.93177 261.402589 
L 267.998709 270.661631 
L 263.872235 271.601767 
L 265.438094 273.312 
L 263.641058 273.312 
L 262.607334 273.045904 
L 262.964297 273.312 
L 7.2 273.312 
L 7.2 7.200005 
L 271.879635 7.200005 
z
" clip-path="url(#pdd79e651ce)" style="fill: #d3d3d3"/>
   </g>
   <g id="matplotlib.axis_1"/>
   <g id="matplotlib.axis_2"/>
   <g id="LineCollection_1">
    <path d="M 271.87963 113.791547 
L 270.969422 117.054694 
L 271.87963 113.713189 
" clip-path="url(#pdd79e651ce)" style="fill: none; stroke: #000000; stroke-width: 0.6"/>
    <path d="M 271.87963 93.779452 
L 271.338188 92.960732 
L 270.175637 99.643367 
L 267.097896 97.205966 
L 270.319914 100.017975 
L 268.776096 101.998537 
L 267.565365 98.863406 
L 262.372166 99.102225 
L 269.200073 104.661826 
L 269.127934 107.902113 
L 265.833777 106.714915 
L 270.41471 109.855187 
L 268.313315 111.657296 
L 263.933693 107.445268 
L 268.494573 113.122876 
L 265.096245 112.727746 
L 267.180452 117.516148 
L 264.560544 120.6549 
L 266.475733 131.94863 
L 270.861344 137.399219 
L 267.097896 140.111518 
L 271.147555 141.162997 
L 271.87963 146.040419 
" clip-path="url(#pdd79e651ce)" style="fill: none; stroke: #000000; stroke-width: 0.6"/>
    <path d="M 271.87963 151.768728 
L 261.181227 142.992627 
L 258.118591 144.539105 
L 252.241508 141.487531 
L 248.896307 132.491418 
L 246.594122 136.525618 
L 245.063846 134.648668 
L 241.305085 137.774304 
L 240.361814 133.016147 
L 243.907023 129.292237 
L 241.719426 125.370463 
L 238.250002 139.213101 
L 248.262165 136.744955 
L 250.085423 145.41049 
L 263.229235 147.6649 
L 267.788031 155.590133 
L 271.87963 157.2904 
" clip-path="url(#pdd79e651ce)" style="fill: none; stroke: #000000; stroke-width: 0.6"/>
    <path d="M 271.87963 168.058706 
L 271.77727 168.296842 
L 271.87963 168.399343 
" clip-path="url(#pdd79e651ce)" style="fill: none; stroke: #000000; stroke-width: 0.6"/>
    <path d="M 271.87963 171.089098 
L 271.521269 171.120316 
L 268.060178 167.452112 
L 266.446565 169.676495 
L 263.91963 164.081828 
L 252.18187 154.889729 
L 265.143643 170.559108 
L 271.87963 172.594941 
" clip-path="url(#pdd79e651ce)" style="fill: none; stroke: #000000; stroke-width: 0.6"/>
    <path d="M 271.87963 173.918173 
L 269.778484 174.793849 
L 271.87963 176.009966 
" clip-path="url(#pdd79e651ce)" style="fill: none; stroke: #000000; stroke-width: 0.6"/>
    <path d="M 271.87963 181.659024 
L 268.490666 178.784597 
L 268.210966 184.306903 
L 271.346782 185.522617 
L 266.715848 186.710393 
L 256.290385 174.403073 
L 262.725827 184.319016 
L 271.87963 190.374669 
" clip-path="url(#pdd79e651ce)" style="fill: none; stroke: #000000; stroke-width: 0.6"/>
    <path d="M 271.87963 197.807366 
L 269.205802 198.592607 
L 261.756774 187.806163 
L 250.255222 186.847466 
L 258.70169 190.924294 
L 260.529636 188.755094 
L 261.223938 195.203853 
L 267.314051 199.037503 
L 265.952533 203.274826 
L 271.766853 200.40799 
L 271.87963 200.583802 
" clip-path="url(#pdd79e651ce)" style="fill: none; stroke: #000000; stroke-width: 0.6"/>
    <path d="M 271.87963 233.127164 
L 268.295345 231.184516 
L 271.87963 234.140439 
" clip-path="url(#pdd79e651ce)" style="fill: none; stroke: #000000; stroke-width: 0.6"/>
    <path d="M 271.87963 236.452284 
L 266.391354 239.423962 
L 259.194681 234.604361 
L 258.754818 242.499571 
L 270.229806 240.336837 
L 271.87963 241.239161 
" clip-path="url(#pdd79e651ce)" style="fill: none; stroke: #000000; stroke-width: 0.6"/>
    <path d="M 271.87963 264.341384 
L 270.145427 267.088776 
L 269.518576 262.446979 
L 268.066949 266.113212 
L 265.763722 264.925869 
L 263.843585 260.402346 
L 267.741675 259.071852 
L 261.653384 258.654804 
L 264.28449 265.446601 
L 249.93177 261.40259 
L 267.998717 270.661631 
L 263.872232 271.601767 
L 265.438089 273.312 
" clip-path="url(#pdd79e651ce)" style="fill: none; stroke: #000000; stroke-width: 0.6"/>
    <path d="M 263.641053 273.312 
L 262.607332 273.045904 
L 262.9643 273.312 
" clip-path="url(#pdd79e651ce)" style="fill: none; stroke: #000000; stroke-width: 0.6"/>
   </g>
   <g id="LineCollection_2"/>
   <g id="LineCollection_3">
    <path d="M 129.728781 37.559149 
L 124.409534 39.844793 
L 126.798963 52.392765 
L 126.042419 54.887648 
L 125.285875 57.380477 
L 124.529331 59.871257 
L 123.772787 62.360334 
L 123.016243 64.847032 
L 122.259699 67.331698 
L 121.502895 69.814338 
L 120.746351 72.294956 
L 119.989807 74.77356 
L 119.233263 77.250493 
L 118.476719 79.725083 
L 117.720175 82.197675 
L 117.421203 83.174253 
L 115.710451 84.635157 
L 113.999437 86.096041 
L 112.288684 87.555894 
L 110.577671 89.015053 
L 108.866918 90.473857 
L 107.155904 91.931296 
L 105.663651 93.202704 
L 100.847031 95.348953 
L 97.670588 92.429541 
L 93.725881 98.363845 
L 89.819458 98.951536 
L 85.230192 107.317125 
L 87.145642 113.758996 
L 81.693577 115.928192 
L 81.380542 111.21072 
L 77.625688 110.381385 
L 71.670997 120.455814 
L 73.08382 127.683923 
L 69.698774 128.897149 
L 68.058597 134.992494 
L 59.136066 136.384038 
L 50.772934 128.909142 
L 48.421528 121.683865 
L 46.508162 122.62036 
L 44.594795 123.556907 
L 42.681429 124.493175 
L 40.768324 125.429162 
L 38.854957 126.364537 
L 36.941591 127.299632 
L 35.028225 128.234781 
L 34.814934 128.339077 
L 27.627636 123.555573 
L 19.624938 125.984752 
L 15.244275 120.930125 
L 13.217101 120.555358 
L 11.189928 120.180546 
L 9.162755 119.806358 
L 7.2 119.44337 
" clip-path="url(#pdd79e651ce)" style="fill: none; stroke: #ffffff; stroke-width: 0.3"/>
    <path d="M 129.728781 37.559149 
L 124.409534 39.844793 
L 126.798963 52.392765 
L 126.04294 54.888331 
L 125.287177 57.381159 
L 124.531154 59.87262 
L 123.775392 62.361695 
L 123.019369 64.848732 
L 122.263606 67.333737 
L 121.507583 69.816715 
L 120.75182 72.29801 
L 119.995797 74.776611 
L 119.240034 77.253881 
L 118.484011 79.728468 
L 117.728248 82.201734 
L 117.430839 83.174253 
L 115.719565 84.634481 
L 114.008292 86.094352 
L 112.297018 87.55353 
L 110.585744 89.011678 
L 108.87447 90.469473 
L 107.163196 91.926577 
L 105.663651 93.202704 
L 100.847031 95.348953 
L 97.670588 92.429541 
L 93.725881 98.363845 
L 89.819458 98.951536 
L 85.230192 107.317125 
L 87.145642 113.758996 
L 81.693577 115.915814 
L 81.380542 111.21072 
L 77.625688 110.381385 
L 71.670997 120.455814 
L 73.08382 127.683923 
L 69.70841 128.897149 
L 68.058597 134.992494 
L 59.136066 136.384038 
L 50.772934 128.909142 
L 48.421528 121.683865 
L 46.508162 122.62036 
L 44.594795 123.556907 
L 42.681429 124.493175 
L 40.768324 125.429162 
L 38.854957 126.364537 
L 36.941591 127.299632 
L 35.028225 128.234781 
L 34.814934 128.339077 
L 27.627636 123.555573 
L 19.624938 125.984752 
L 15.244275 120.930125 
L 13.220747 120.524627 
L 11.19722 120.119076 
L 9.173693 119.713472 
L 7.2 119.317807 
" clip-path="url(#pdd79e651ce)" style="fill: none; stroke: #ffffff; stroke-width: 0.3"/>
    <path d="M 224.652002 96.145963 
L 221.23857 104.213234 
L 219.485627 102.847249 
L 217.732425 101.480997 
L 215.979482 100.114141 
L 214.22628 98.746681 
L 212.473337 97.378616 
L 210.720134 96.009607 
L 208.967192 94.639991 
L 207.213989 93.270103 
L 205.461047 91.899606 
L 204.019577 90.772011 
L 203.474761 93.328064 
L 202.930205 95.881326 
L 202.38539 98.433149 
L 201.840574 100.982531 
L 201.296018 103.529813 
L 201.241328 103.785064 
L 199.662873 105.467851 
L 198.084418 107.149725 
L 196.506223 108.830353 
L 194.927767 110.510072 
L 193.349312 112.189218 
L 191.770856 113.867123 
L 190.192661 115.544124 
L 188.614206 117.220558 
L 187.03575 118.896091 
L 185.852104 120.151816 
L 181.613895 117.292117 
L 180.45499 119.459525 
L 179.296084 121.625429 
L 178.137178 123.789833 
L 176.978273 125.95274 
L 175.819367 128.114154 
L 174.660462 130.274079 
L 173.501556 132.432851 
L 172.342651 134.589808 
L 171.657724 135.86386 
L 169.7941 134.779685 
L 167.930476 133.694804 
L 166.066851 132.609548 
L 164.203227 131.523918 
L 162.339603 130.437911 
L 160.475978 129.351862 
L 159.217589 128.617958 
L 158.379791 131.007928 
L 157.541994 133.396413 
L 156.704196 135.782751 
L 155.866399 138.167614 
L 155.028601 140.550341 
L 154.286902 142.657965 
L 152.965489 144.650818 
L 151.644336 146.641753 
L 150.322924 148.631767 
L 149.001771 150.620531 
L 147.680358 152.608049 
L 146.359206 154.594324 
L 145.037793 156.579027 
L 143.716381 158.563152 
L 142.395228 160.545383 
L 141.073815 162.52671 
L 139.752663 164.506808 
L 138.43125 166.48568 
L 137.570274 167.774301 
L 139.836521 170.373332 
L 137.8169 174.979041 
L 135.853011 175.711822 
L 133.889122 176.444436 
L 131.925232 177.176883 
L 129.961343 177.909164 
L 127.997454 178.641277 
L 126.033565 179.373224 
L 124.069676 180.105005 
L 122.105786 180.836619 
L 121.991458 180.879226 
L 118.303013 178.94562 
L 114.775774 184.755402 
L 105.768082 186.840269 
L 100.932191 182.704564 
L 93.318311 188.471621 
L 84.708815 184.74329 
L 80.593528 174.405372 
L 78.72157 173.357266 
L 76.849612 172.309147 
L 74.977654 171.260356 
L 73.105696 170.211222 
L 71.233738 169.162073 
L 69.36178 168.111922 
L 69.016191 167.918436 
L 67.821347 165.815655 
L 66.626502 163.71149 
L 65.431918 161.606266 
L 64.237073 159.499652 
L 63.042228 157.391314 
L 61.847384 155.281578 
L 60.6528 153.170771 
L 59.457955 151.05856 
L 58.26311 148.944611 
L 57.486253 147.569522 
L 59.012883 136.069615 
" clip-path="url(#pdd79e651ce)" style="fill: none; stroke: #ffffff; stroke-width: 0.3"/>
    <path d="M 7.2 214.789714 
L 28.850868 215.060213 
L 271.87963 216.329936 
L 271.87963 216.329936 
" clip-path="url(#pdd79e651ce)" style="fill: none; stroke: #ffffff; stroke-width: 0.3"/>
    <path d="M 7.2 214.789714 
L 28.850868 215.060213 
L 271.87963 216.329936 
L 271.87963 216.329936 
" clip-path="url(#pdd79e651ce)" style="fill: none; stroke: #ffffff; stroke-width: 0.3"/>
    <path d="M 224.652002 96.145963 
L 221.23857 104.213234 
L 219.50542 102.805927 
L 217.77227 101.397981 
L 216.03886 99.989393 
L 214.30571 98.580163 
L 212.57256 97.170627 
L 210.839411 95.760111 
L 209.106 94.348949 
L 207.37285 92.937141 
L 205.639701 91.524686 
L 204.370374 90.48971 
L 203.774514 93.026451 
L 203.178394 95.561105 
L 202.582534 98.093679 
L 201.986414 100.624177 
L 201.390554 103.152607 
L 201.241328 103.785064 
L 199.663394 105.468523 
L 198.085459 107.151067 
L 196.507525 108.8327 
L 194.92959 110.513088 
L 193.351656 112.192902 
L 191.773721 113.871475 
L 190.195786 115.549478 
L 188.617852 117.226577 
L 187.040178 118.902775 
L 185.852104 120.163843 
L 181.68968 117.218886 
L 180.527909 119.384005 
L 179.366139 121.54729 
L 178.204369 123.709078 
L 177.042599 125.87004 
L 175.880568 128.028846 
L 174.718798 130.186165 
L 173.557027 132.342336 
L 172.395257 134.497027 
L 171.657724 135.86386 
L 169.804517 134.750423 
L 167.95157 133.636259 
L 166.098363 132.522366 
L 164.245416 131.407411 
L 162.392209 130.292727 
L 160.539262 129.17698 
L 159.369158 128.47269 
L 158.521985 130.857443 
L 157.674812 133.240386 
L 156.827639 135.621524 
L 155.980727 138.000862 
L 155.133554 140.378404 
L 154.372322 142.513343 
L 153.05143 144.506287 
L 151.730799 146.497975 
L 150.409907 148.488742 
L 149.089015 150.478258 
L 147.768383 152.466196 
L 146.447491 154.452889 
L 145.126599 156.438341 
L 143.805707 158.422885 
L 142.485076 160.406192 
L 141.164184 162.387935 
L 139.843292 164.368449 
L 138.52266 166.348064 
L 137.570274 167.774301 
L 139.836521 170.373332 
L 137.940083 174.835879 
L 131.928618 178.850188 
L 129.368609 177.13029 
L 121.991458 180.879226 
L 118.303013 178.94562 
L 116.757632 183.634692 
L 114.764315 184.226035 
L 112.770997 184.81727 
L 110.77768 185.408725 
L 108.784362 185.999743 
L 106.790784 186.590654 
L 105.948299 186.840269 
L 100.932191 182.704564 
L 91.933875 188.364699 
L 90.129889 187.146783 
L 88.325902 185.928735 
L 86.521916 184.710228 
L 84.717669 183.490933 
L 82.913683 182.271832 
L 81.560758 181.356712 
L 80.252107 174.106182 
" clip-path="url(#pdd79e651ce)" style="fill: none; stroke: #ffffff; stroke-width: 0.3"/>
    <path d="M 90.834086 213.824664 
L 88.947024 225.109632 
L 82.271988 226.663172 
L 76.573297 235.335483 
L 69.101612 233.880172 
L 67.394505 235.280687 
L 65.687398 236.681255 
L 63.980291 238.080589 
L 62.273184 239.479978 
L 60.566077 240.878135 
L 60.017876 241.327326 
L 57.590424 237.025023 
L 51.654744 242.521764 
L 48.241311 241.783856 
L 45.40629 248.886276 
L 39.413576 249.739119 
L 37.64006 251.001133 
L 35.866544 252.262992 
L 34.093027 253.524056 
L 32.319511 254.784646 
L 30.545995 256.045082 
L 28.772479 257.304726 
L 28.168025 257.734108 
L 26.13981 258.085001 
L 24.111855 258.435858 
L 22.08364 258.786677 
L 20.055686 259.137461 
L 18.027471 259.488208 
L 15.999516 259.838918 
L 14.69425 260.064492 
L 13.44758 262.060087 
L 12.20091 264.054821 
L 10.95424 266.048377 
L 9.707571 268.040757 
L 8.460901 270.031645 
L 8.132761 270.555738 
L 7.2 270.744406 
" clip-path="url(#pdd79e651ce)" style="fill: none; stroke: #ffffff; stroke-width: 0.3"/>
    <path d="M 90.834086 213.824664 
L 88.947024 225.109632 
L 82.271988 226.663172 
L 76.573297 235.335483 
L 69.101612 233.880172 
L 67.394505 235.280687 
L 65.687398 236.681255 
L 63.980291 238.080589 
L 62.273184 239.479978 
L 60.566077 240.878135 
L 60.017876 241.327326 
L 57.60006 237.025023 
L 51.66438 242.521764 
L 48.241311 241.783856 
L 45.40629 248.886276 
L 39.413576 249.739119 
L 37.64006 251.001133 
L 35.866544 252.262992 
L 34.093027 253.524056 
L 32.319511 254.784646 
L 30.545995 256.045082 
L 28.772479 257.304726 
L 28.168025 257.734108 
L 26.13981 258.085001 
L 24.111855 258.435858 
L 22.08364 258.786677 
L 20.055686 259.137461 
L 18.027471 259.488208 
L 15.999516 259.838918 
L 14.69425 260.064492 
L 13.44758 262.060087 
L 12.20091 264.054821 
L 10.95424 266.048377 
L 9.707571 268.040757 
L 8.460901 270.031645 
L 8.132761 270.555738 
L 7.2 270.744406 
" clip-path="url(#pdd79e651ce)" style="fill: none; stroke: #ffffff; stroke-width: 0.3"/>
    <path d="M 63.362821 273.312 
L 65.09258 272.650979 
L 65.744953 272.401697 
L 67.790877 272.519965 
L 69.83654 272.63791 
L 71.882464 272.756488 
L 73.928128 272.874425 
L 75.974052 272.992677 
L 78.019716 273.110924 
L 80.06564 273.228848 
L 81.500563 273.312 
" clip-path="url(#pdd79e651ce)" style="fill: none; stroke: #ffffff; stroke-width: 0.3"/>
    <path d="M 63.362821 273.312 
L 65.09258 272.650979 
L 65.744953 272.401697 
L 67.790877 272.519965 
L 69.83654 272.63791 
L 71.882464 272.756488 
L 73.928128 272.874425 
L 75.974052 272.992677 
L 78.019716 273.110924 
L 80.06564 273.228848 
L 81.500563 273.312 
" clip-path="url(#pdd79e651ce)" style="fill: none; stroke: #ffffff; stroke-width: 0.3"/>
    <path d="M 59.012883 136.069615 
L 57.344059 147.220108 
L 62.577885 157.080952 
L 63.8157 159.14924 
L 65.053255 161.216185 
L 66.29107 163.28179 
L 67.528625 165.34606 
L 68.766441 167.408997 
L 69.158385 168.061906 
L 71.039198 169.086087 
L 72.92001 170.10994 
L 74.800823 171.133137 
L 76.681636 172.156336 
L 78.562448 173.179209 
L 80.290129 174.118334 
L 78.500466 175.374343 
L 76.711064 176.629533 
L 74.921401 177.884232 
L 73.131739 179.13877 
L 71.342076 180.392819 
L 69.552674 181.646053 
L 67.763011 182.899127 
L 65.973348 184.151714 
L 64.183946 185.403488 
L 62.394283 186.654777 
L 60.60462 187.905908 
L 58.814958 189.156556 
L 57.025555 190.406394 
L 55.235893 191.655749 
L 55.229382 191.660322 
L 49.597361 201.315139 
L 42.84602 203.472715 
L 40.542011 207.924979 
L 38.56484 208.591532 
L 36.587409 209.257624 
L 34.610238 209.923581 
L 32.633067 210.589727 
L 30.655896 211.255737 
L 28.678464 211.921287 
L 26.701293 212.586702 
L 24.724122 213.252307 
L 22.746691 213.917776 
L 22.004991 214.167252 
" clip-path="url(#pdd79e651ce)" style="fill: none; stroke: #ffffff; stroke-width: 0.3"/>
    <path d="M 271.87963 155.834007 
L 267.908609 154.567227 
L 263.271945 147.461224 
L 253.771003 146.194498 
L 247.958766 140.918745 
L 248.650723 136.602056 
L 241.112629 139.323342 
L 239.425054 132.412552 
L 240.965487 130.687639 
L 242.50592 128.961445 
L 244.046353 127.234301 
L 245.586785 125.506537 
L 247.127218 123.777486 
L 248.461132 122.279515 
L 247.62672 114.62458 
" clip-path="url(#pdd79e651ce)" style="fill: none; stroke: #ffffff; stroke-width: 0.3"/>
    <path d="M 271.87963 155.834007 
L 267.908609 154.567227 
L 263.271945 147.461224 
L 253.771003 146.194498 
L 247.958766 140.906798 
L 248.660359 136.602056 
L 241.112629 139.323342 
L 239.425054 132.412552 
L 240.965487 130.687639 
L 242.50592 128.961445 
L 244.046353 127.234301 
L 245.586785 125.506537 
L 247.127218 123.777486 
L 248.461132 122.279515 
L 247.62672 114.62458 
" clip-path="url(#pdd79e651ce)" style="fill: none; stroke: #ffffff; stroke-width: 0.3"/>
    <path d="M 196.159072 87.294907 
L 198.035197 86.230135 
L 199.911582 85.164994 
L 201.787707 84.099145 
L 203.663832 83.032925 
L 205.540217 81.966673 
L 207.416342 80.899712 
L 209.292467 79.832717 
L 209.481017 79.725422 
L 211.460011 80.410423 
L 213.439265 81.09527 
L 215.41826 81.779965 
L 217.397514 82.464506 
L 219.376508 83.148895 
L 220.660159 83.592787 
L 221.416963 86.062264 
L 222.173768 88.529418 
L 222.930572 90.994932 
L 223.687116 93.458136 
L 224.44392 95.91971 
L 224.472047 96.010954 
L 230.891342 97.408231 
L 234.124558 100.420778 
L 232.294529 104.457684 
L 234.560775 107.304713 
L 236.434296 108.370627 
L 238.307817 109.436176 
L 240.181077 110.501359 
L 242.054597 111.565842 
L 243.928118 112.629961 
L 245.801639 113.69405 
L 247.655106 114.746398 
" clip-path="url(#pdd79e651ce)" style="fill: none; stroke: #ffffff; stroke-width: 0.3"/>
    <path d="M 196.159072 87.294907 
L 198.035197 86.230135 
L 199.911582 85.164994 
L 201.787707 84.099145 
L 203.663832 83.032925 
L 205.540217 81.966673 
L 207.416342 80.899712 
L 209.292467 79.832717 
L 209.481017 79.725422 
L 211.458969 80.415499 
L 213.437182 81.105758 
L 215.415134 81.795524 
L 217.393087 82.485135 
L 219.371039 83.174929 
L 220.887773 83.703666 
L 224.472047 96.010954 
L 230.891342 97.408231 
L 234.124558 100.420778 
L 232.294529 104.457684 
L 234.560775 107.304713 
L 236.434556 108.369956 
L 238.308077 109.434835 
L 240.181858 110.499348 
L 242.055639 111.563162 
L 243.92916 112.626947 
L 245.802941 113.690033 
L 247.664742 114.746398 
" clip-path="url(#pdd79e651ce)" style="fill: none; stroke: #ffffff; stroke-width: 0.3"/>
    <path d="M 271.87963 78.716256 
L 271.123075 78.716256 
L 269.074807 78.716256 
L 267.026799 78.716594 
L 264.978792 78.716933 
L 262.930784 78.716933 
L 260.882516 78.716933 
L 258.834509 78.717271 
L 256.786501 78.71761 
L 254.738233 78.71761 
L 252.690226 78.71761 
L 250.642218 78.71761 
L 248.59395 78.717949 
L 246.545943 78.718287 
L 244.497935 78.718287 
L 242.449667 78.718287 
L 240.40166 78.718626 
L 238.353652 78.718964 
L 236.305384 78.718964 
L 234.257377 78.718964 
L 232.209369 78.719303 
L 230.161101 78.719642 
L 228.113094 78.719642 
L 226.065086 78.719642 
L 224.016818 78.719642 
L 221.968811 78.71998 
L 219.920803 78.720319 
L 217.872535 78.720319 
L 215.824528 78.720319 
L 213.77652 78.720657 
L 211.728512 78.720996 
L 209.680245 78.720996 
L 207.632237 78.720996 
L 205.584229 78.721335 
L 203.535962 78.721673 
L 201.487954 78.721673 
L 199.439946 78.721673 
L 197.391678 78.721673 
L 195.343671 78.722012 
L 193.295663 78.72235 
L 191.247395 78.72235 
L 189.199388 78.72235 
L 187.15138 78.722689 
L 185.103112 78.723027 
L 183.055105 78.723027 
L 181.007097 78.723027 
L 178.958829 78.723366 
L 176.910822 78.723705 
L 174.862814 78.723705 
L 172.814546 78.723705 
L 170.766539 78.723705 
L 168.718531 78.724043 
L 166.670263 78.724382 
L 164.622256 78.724382 
L 162.574248 78.724382 
L 160.526241 78.72472 
L 158.477973 78.725059 
L 156.429965 78.725059 
L 154.381958 78.725059 
L 152.33369 78.725398 
L 150.285682 78.725736 
L 148.237675 78.725736 
L 146.189407 78.725736 
L 144.141399 78.725736 
L 142.093392 78.726075 
L 140.045124 78.726413 
L 137.997116 78.726413 
L 135.949109 78.726413 
L 133.900841 78.726752 
L 131.852833 78.727091 
L 129.804826 78.727091 
L 129.64336 78.727091 
L 129.6431 76.06328 
L 129.642839 73.397146 
L 129.642579 70.728342 
L 129.642319 68.057199 
L 129.642058 65.384052 
L 129.641798 62.708553 
L 129.641537 60.030695 
L 129.641277 57.350472 
L 129.641016 54.667534 
L 129.640756 51.982557 
L 129.640496 49.294851 
L 129.640496 46.605092 
L 129.640235 43.912932 
L 129.639975 41.218362 
L 129.639714 38.521033 
L 129.639454 35.821624 
L 129.639193 33.11944 
L 129.638933 30.415161 
L 129.638673 27.708436 
L 129.638412 24.999259 
L 129.638152 22.287621 
L 129.637891 19.57317 
L 129.637631 16.856243 
L 129.63737 14.137179 
L 129.63711 11.415624 
L 129.63685 8.691571 
L 129.636707 7.2 
" clip-path="url(#pdd79e651ce)" style="fill: none; stroke: #ffffff; stroke-width: 0.3"/>
    <path d="M 129.63685 7.2 
L 129.63685 9.776435 
L 129.63711 12.499492 
L 129.63737 15.2204 
L 129.637631 17.938475 
L 129.637891 20.65407 
L 129.638152 23.367192 
L 129.638412 26.078195 
L 129.638673 28.786394 
L 129.638933 31.492488 
L 129.639193 34.195795 
L 129.639454 36.896667 
L 129.639714 39.595111 
L 129.639975 42.291134 
L 129.640235 44.985086 
L 129.640496 47.676632 
L 129.640756 50.365436 
L 129.641016 53.051849 
L 129.641277 55.735877 
L 129.641537 58.417528 
L 129.641798 61.09715 
L 129.642058 63.774068 
L 129.642319 66.448969 
L 129.642579 69.121182 
L 129.642839 71.791053 
L 129.642839 74.458589 
L 129.6431 77.124137 
L 129.64336 78.727091 
L 131.691368 78.727091 
L 133.739636 78.726752 
L 135.787643 78.726413 
L 137.835651 78.726413 
L 139.883919 78.726413 
L 141.931926 78.726075 
L 143.979934 78.726075 
L 146.028202 78.725736 
L 148.076209 78.725736 
L 150.124217 78.725736 
L 152.172485 78.725398 
L 154.220492 78.725059 
L 156.2685 78.725059 
L 158.316507 78.725059 
L 160.364775 78.72472 
L 162.412783 78.724382 
L 164.46079 78.724382 
L 166.509058 78.724382 
L 168.557066 78.724043 
L 170.605073 78.724043 
L 172.653341 78.723705 
L 174.701349 78.723705 
L 176.749356 78.723705 
L 178.797624 78.723366 
L 180.845632 78.723027 
L 182.893639 78.723027 
L 184.941907 78.723027 
L 186.989915 78.722689 
L 189.037922 78.72235 
L 191.08619 78.72235 
L 193.134198 78.72235 
L 195.182205 78.722012 
L 197.230473 78.722012 
L 199.278481 78.721673 
L 201.326488 78.721673 
L 203.374756 78.721673 
L 205.422764 78.721335 
L 207.470771 78.720996 
L 209.518779 78.720996 
L 211.567047 78.720996 
L 213.615055 78.720657 
L 215.663062 78.720319 
L 217.71133 78.720319 
L 219.759338 78.720319 
L 221.807345 78.71998 
L 223.855613 78.71998 
L 225.903621 78.719642 
L 227.951628 78.719642 
L 229.999896 78.719642 
L 232.047904 78.719303 
L 234.095911 78.718964 
L 236.144179 78.718964 
L 238.192187 78.718964 
L 240.240194 78.718626 
L 242.288462 78.718287 
L 244.33647 78.718287 
L 246.384477 78.718287 
L 248.432745 78.717949 
L 250.480753 78.717949 
L 252.52876 78.71761 
L 254.577028 78.71761 
L 256.625036 78.71761 
L 258.673043 78.717271 
L 260.721051 78.716933 
L 262.769319 78.716933 
L 264.817326 78.716933 
L 266.865334 78.716594 
L 268.913602 78.716256 
L 270.961609 78.716256 
L 271.87963 78.716256 
" clip-path="url(#pdd79e651ce)" style="fill: none; stroke: #ffffff; stroke-width: 0.3"/>
    <path d="M 80.290129 174.082535 
L 78.501508 175.340199 
L 76.712627 176.597699 
L 74.924006 177.854708 
L 73.135124 179.110897 
L 71.346503 180.366596 
L 69.557882 181.622133 
L 67.769001 182.877182 
L 65.98038 184.131415 
L 64.191498 185.38516 
L 62.402877 186.638746 
L 60.614256 187.891846 
L 58.825375 189.144134 
L 57.036754 190.395937 
L 55.247872 191.647256 
L 55.229382 191.660322 
L 49.597361 201.315139 
L 42.84602 203.472715 
L 40.542011 207.924979 
L 38.56484 208.591532 
L 36.587409 209.257624 
L 34.610238 209.923581 
L 32.633067 210.589727 
L 30.655896 211.255737 
L 28.678464 211.921287 
L 26.701293 212.586702 
L 24.724122 213.252307 
L 22.746691 213.917776 
L 22.004991 214.167252 
" clip-path="url(#pdd79e651ce)" style="fill: none; stroke: #ffffff; stroke-width: 0.3"/>
    <path d="M 165.238429 78.727091 
L 165.197802 81.388246 
L 165.157175 84.047093 
L 165.116549 86.7033 
L 165.075661 89.357549 
L 165.035035 92.009511 
L 164.994408 94.658853 
L 164.953781 97.306595 
L 164.913154 99.951396 
L 164.887632 101.608037 
L 166.575468 100.110443 
L 168.263303 98.612122 
L 169.950878 97.113075 
L 171.638713 95.613299 
L 173.326548 94.112794 
L 175.014384 92.611558 
L 176.702219 91.109591 
L 177.991599 89.961803 
L 182.969684 90.747728 
L 189.284548 82.312324 
L 196.007242 87.405652 
" clip-path="url(#pdd79e651ce)" style="fill: none; stroke: #ffffff; stroke-width: 0.3"/>
    <path d="M 165.238429 78.727091 
L 165.197802 81.388246 
L 165.157175 84.047093 
L 165.116549 86.7033 
L 165.075661 89.357549 
L 165.035035 92.009511 
L 164.994408 94.658853 
L 164.953781 97.306595 
L 164.913154 99.951396 
L 164.887632 101.608037 
L 166.575468 100.110443 
L 168.263303 98.612122 
L 169.950878 97.113075 
L 171.638713 95.613299 
L 173.326548 94.112794 
L 175.014384 92.611558 
L 176.702219 91.109591 
L 177.991599 89.961803 
L 182.969684 90.747728 
L 189.284548 82.312324 
L 196.007242 87.405652 
" clip-path="url(#pdd79e651ce)" style="fill: none; stroke: #ffffff; stroke-width: 0.3"/>
    <path d="M 248.432745 119.786645 
L 253.116807 115.282477 
L 248.461132 110.80831 
L 245.654497 113.076668 
" clip-path="url(#pdd79e651ce)" style="fill: none; stroke: #ffffff; stroke-width: 0.3"/>
    <path d="M 248.432745 119.786645 
L 253.116807 115.282477 
L 248.461132 110.796247 
L 245.654497 113.064614 
" clip-path="url(#pdd79e651ce)" style="fill: none; stroke: #ffffff; stroke-width: 0.3"/>
   </g>
   <g id="line2d_1">
    <path d="M 198.823 153.370014 
L 185.282388 151.227106 
L 185.282388 151.227106 
" clip-path="url(#pdd79e651ce)" style="fill: none; stroke: #008000; stroke-width: 0.75; stroke-linecap: square"/>
   </g>
   <g id="line2d_2">
    <path d="M 198.823 153.370014 
L 206.854588 137.672946 
L 206.854588 137.672946 
" clip-path="url(#pdd79e651ce)" style="fill: none; stroke: #008000; stroke-width: 0.75; stroke-linecap: square"/>
   </g>
   <g id="line2d_3">
    <path d="M 198.823 153.370014 
L 177.225364 177.889776 
L 175.43073 179.942326 
L 175.43073 179.942326 
" clip-path="url(#pdd79e651ce)" style="fill: none; stroke: #008000; stroke-width: 0.75; stroke-linecap: square"/>
   </g>
   <g id="line2d_4">
    <path d="M 198.823 153.370014 
L 223.567353 167.424603 
L 234.068254 173.466188 
L 234.068254 173.466188 
" clip-path="url(#pdd79e651ce)" style="fill: none; stroke: #008000; stroke-width: 0.75; stroke-linecap: square"/>
   </g>
   <g id="line2d_5">
    <path d="M 214.933282 131.728725 
L 206.854588 137.672946 
L 206.854588 137.672946 
" clip-path="url(#pdd79e651ce)" style="fill: none; stroke: #008000; stroke-width: 0.75; stroke-linecap: square"/>
   </g>
   <g id="line2d_6">
    <path d="M 214.933282 131.728725 
L 222.632739 123.137292 
L 222.632739 123.137292 
" clip-path="url(#pdd79e651ce)" style="fill: none; stroke: #008000; stroke-width: 0.75; stroke-linecap: square"/>
   </g>
   <g id="line2d_7">
    <path d="M 185.282388 151.227106 
L 185.983859 134.659961 
L 185.983859 134.659961 
" clip-path="url(#pdd79e651ce)" style="fill: none; stroke: #008000; stroke-width: 0.75; stroke-linecap: square"/>
   </g>
   <g id="line2d_8">
    <path d="M 185.282388 151.227106 
L 178.872546 147.865493 
L 178.872546 147.865493 
" clip-path="url(#pdd79e651ce)" style="fill: none; stroke: #008000; stroke-width: 0.75; stroke-linecap: square"/>
   </g>
   <g id="line2d_9">
    <path d="M 202.265499 184.283706 
L 184.875159 210.072165 
L 184.875159 210.072165 
" clip-path="url(#pdd79e651ce)" style="fill: none; stroke: #008000; stroke-width: 0.75; stroke-linecap: square"/>
   </g>
   <g id="line2d_10">
    <path d="M 202.265499 184.283706 
L 175.698761 179.98455 
L 175.43073 179.942326 
L 175.43073 179.942326 
" clip-path="url(#pdd79e651ce)" style="fill: none; stroke: #008000; stroke-width: 0.75; stroke-linecap: square"/>
   </g>
   <g id="line2d_11">
    <path d="M 202.265499 184.283706 
L 228.262896 175.414574 
L 234.068254 173.466188 
L 234.068254 173.466188 
" clip-path="url(#pdd79e651ce)" style="fill: none; stroke: #008000; stroke-width: 0.75; stroke-linecap: square"/>
   </g>
   <g id="line2d_12">
    <path d="M 175.43073 179.942326 
L 149.119306 186.30866 
L 146.842453 186.870297 
L 146.842453 186.870297 
" clip-path="url(#pdd79e651ce)" style="fill: none; stroke: #008000; stroke-width: 0.75; stroke-linecap: square"/>
   </g>
   <g id="line2d_13">
    <path d="M 175.43073 179.942326 
L 168.025516 214.870074 
L 168.025516 214.870074 
" clip-path="url(#pdd79e651ce)" style="fill: none; stroke: #008000; stroke-width: 0.75; stroke-linecap: square"/>
   </g>
   <g id="line2d_14">
    <path d="M 222.632739 123.137292 
L 233.138762 108.655502 
L 233.138762 108.655502 
" clip-path="url(#pdd79e651ce)" style="fill: none; stroke: #008000; stroke-width: 0.75; stroke-linecap: square"/>
   </g>
   <g id="line2d_15">
    <path d="M 234.068254 173.466188 
L 233.138762 108.655502 
L 233.138762 108.655502 
" clip-path="url(#pdd79e651ce)" style="fill: none; stroke: #008000; stroke-width: 0.75; stroke-linecap: square"/>
   </g>
   <g id="line2d_16">
    <path d="M 151.649664 179.298135 
L 165.900963 163.320535 
L 165.900963 163.320535 
" clip-path="url(#pdd79e651ce)" style="fill: none; stroke: #008000; stroke-width: 0.75; stroke-linecap: square"/>
   </g>
   <g id="line2d_17">
    <path d="M 151.649664 179.298135 
L 153.365623 162.144584 
L 153.365623 162.144584 
" clip-path="url(#pdd79e651ce)" style="fill: none; stroke: #008000; stroke-width: 0.75; stroke-linecap: square"/>
   </g>
   <g id="line2d_18">
    <path d="M 151.649664 179.298135 
L 145.505391 184.654021 
L 145.505391 184.654021 
" clip-path="url(#pdd79e651ce)" style="fill: none; stroke: #008000; stroke-width: 0.75; stroke-linecap: square"/>
   </g>
   <g id="line2d_19">
    <path d="M 153.365623 162.144584 
L 147.581132 163.128749 
L 147.581132 163.128749 
" clip-path="url(#pdd79e651ce)" style="fill: none; stroke: #008000; stroke-width: 0.75; stroke-linecap: square"/>
   </g>
   <g id="line2d_20">
    <path d="M 153.365623 162.144584 
L 147.581132 163.128749 
L 147.581132 163.128749 
" clip-path="url(#pdd79e651ce)" style="fill: none; stroke: #008000; stroke-width: 0.75; stroke-linecap: square"/>
   </g>
   <g id="line2d_21">
    <path d="M 153.365623 162.144584 
L 178.169807 148.255279 
L 178.872546 147.865493 
L 178.872546 147.865493 
" clip-path="url(#pdd79e651ce)" style="fill: none; stroke: #008000; stroke-width: 0.75; stroke-linecap: square"/>
   </g>
   <g id="line2d_22">
    <path d="M 145.505391 184.654021 
L 133.415511 191.666953 
L 133.415511 191.666953 
" clip-path="url(#pdd79e651ce)" style="fill: none; stroke: #008000; stroke-width: 0.75; stroke-linecap: square"/>
   </g>
   <g id="line2d_23">
    <path d="M 145.505391 184.654021 
L 133.244837 187.394655 
L 133.244837 187.394655 
" clip-path="url(#pdd79e651ce)" style="fill: none; stroke: #008000; stroke-width: 0.75; stroke-linecap: square"/>
   </g>
   <g id="line2d_24">
    <path d="M 145.505391 184.654021 
L 146.842453 186.870297 
L 146.842453 186.870297 
" clip-path="url(#pdd79e651ce)" style="fill: none; stroke: #008000; stroke-width: 0.75; stroke-linecap: square"/>
   </g>
   <g id="line2d_25">
    <path d="M 146.842453 186.870297 
L 151.061862 197.32255 
L 151.061862 197.32255 
" clip-path="url(#pdd79e651ce)" style="fill: none; stroke: #008000; stroke-width: 0.75; stroke-linecap: square"/>
   </g>
   <g id="line2d_26">
    <path d="M 72.662309 214.4815 
L 59.92728 216.465553 
L 59.92728 216.465553 
" clip-path="url(#pdd79e651ce)" style="fill: none; stroke: #008000; stroke-width: 0.75; stroke-linecap: square"/>
   </g>
   <g id="line2d_27">
    <path d="M 72.662309 214.4815 
L 79.878075 209.600418 
L 79.878075 209.600418 
" clip-path="url(#pdd79e651ce)" style="fill: none; stroke: #008000; stroke-width: 0.75; stroke-linecap: square"/>
   </g>
   <g id="line2d_28">
    <path d="M 79.878075 209.600418 
L 106.078738 200.830037 
L 110.344792 199.424257 
L 110.344792 199.424257 
" clip-path="url(#pdd79e651ce)" style="fill: none; stroke: #008000; stroke-width: 0.75; stroke-linecap: square"/>
   </g>
   <g id="line2d_29">
    <path d="M 79.878075 209.600418 
L 102.477875 187.03364 
L 102.882231 186.632743 
L 102.882231 186.632743 
" clip-path="url(#pdd79e651ce)" style="fill: none; stroke: #008000; stroke-width: 0.75; stroke-linecap: square"/>
   </g>
   <g id="line2d_30">
    <path d="M 102.882231 186.632743 
L 105.650909 185.667769 
L 105.650909 185.667769 
" clip-path="url(#pdd79e651ce)" style="fill: none; stroke: #008000; stroke-width: 0.75; stroke-linecap: square"/>
   </g>
   <g id="line2d_31">
    <path d="M 105.650909 185.667769 
L 110.344792 199.424257 
L 110.344792 199.424257 
" clip-path="url(#pdd79e651ce)" style="fill: none; stroke: #008000; stroke-width: 0.75; stroke-linecap: square"/>
   </g>
   <g id="line2d_32">
    <path d="M 110.344792 199.424257 
L 127.697583 191.583892 
L 127.697583 191.583892 
" clip-path="url(#pdd79e651ce)" style="fill: none; stroke: #008000; stroke-width: 0.75; stroke-linecap: square"/>
   </g>
   <g id="line2d_33">
    <path d="M 127.697583 191.583892 
L 133.244837 187.394655 
L 133.244837 187.394655 
" clip-path="url(#pdd79e651ce)" style="fill: none; stroke: #008000; stroke-width: 0.75; stroke-linecap: square"/>
   </g>
   <g id="line2d_34">
    <path d="M 127.697583 191.583892 
L 133.415511 191.666953 
L 133.415511 191.666953 
" clip-path="url(#pdd79e651ce)" style="fill: none; stroke: #008000; stroke-width: 0.75; stroke-linecap: square"/>
   </g>
   <g id="line2d_35">
    <path d="M 151.725443 210.37953 
L 151.061862 197.32255 
L 151.061862 197.32255 
" clip-path="url(#pdd79e651ce)" style="fill: none; stroke: #008000; stroke-width: 0.75; stroke-linecap: square"/>
   </g>
   <g id="line2d_36">
    <path d="M 151.725443 210.37953 
L 168.025516 214.870074 
L 168.025516 214.870074 
" clip-path="url(#pdd79e651ce)" style="fill: none; stroke: #008000; stroke-width: 0.75; stroke-linecap: square"/>
   </g>
   <g id="line2d_37">
    <path d="M 168.025516 214.870074 
L 184.875159 210.072165 
L 184.875159 210.072165 
" clip-path="url(#pdd79e651ce)" style="fill: none; stroke: #008000; stroke-width: 0.75; stroke-linecap: square"/>
   </g>
   <g id="line2d_38">
    <path d="M 168.025516 214.870074 
L 154.475347 236.620337 
L 154.475347 236.620337 
" clip-path="url(#pdd79e651ce)" style="fill: none; stroke: #008000; stroke-width: 0.75; stroke-linecap: square"/>
   </g>
   <g id="line2d_39">
    <path d="M 165.900963 163.320535 
L 178.872546 147.865493 
L 178.872546 147.865493 
" clip-path="url(#pdd79e651ce)" style="fill: none; stroke: #008000; stroke-width: 0.75; stroke-linecap: square"/>
   </g>
   <g id="line2d_40">
    <path d="M 102.028177 146.371165 
L 106.816955 163.789153 
L 106.816955 163.789153 
" clip-path="url(#pdd79e651ce)" style="fill: none; stroke: #008000; stroke-width: 0.75; stroke-linecap: square"/>
   </g>
   <g id="line2d_41">
    <path d="M 102.028177 146.371165 
L 91.645381 139.004693 
L 91.645381 139.004693 
" clip-path="url(#pdd79e651ce)" style="fill: none; stroke: #008000; stroke-width: 0.75; stroke-linecap: square"/>
   </g>
   <g id="line2d_42">
    <path d="M 59.92728 216.465553 
L 67.039276 226.435259 
L 67.039276 226.435259 
" clip-path="url(#pdd79e651ce)" style="fill: none; stroke: #008000; stroke-width: 0.75; stroke-linecap: square"/>
   </g>
   <g id="line2d_43">
    <path d="M 118.271245 141.989176 
L 123.145018 125.276212 
L 123.145018 125.276212 
" clip-path="url(#pdd79e651ce)" style="fill: none; stroke: #008000; stroke-width: 0.75; stroke-linecap: square"/>
   </g>
   <g id="line2d_44">
    <path d="M 132.163104 162.768903 
L 137.217109 162.996997 
L 137.217109 162.996997 
" clip-path="url(#pdd79e651ce)" style="fill: none; stroke: #008000; stroke-width: 0.75; stroke-linecap: square"/>
   </g>
   <g id="line2d_45">
    <path d="M 132.163104 162.768903 
L 106.816955 163.789153 
L 106.816955 163.789153 
" clip-path="url(#pdd79e651ce)" style="fill: none; stroke: #008000; stroke-width: 0.75; stroke-linecap: square"/>
   </g>
   <g id="line2d_46">
    <path d="M 137.217109 162.996997 
L 147.581132 163.128749 
L 147.581132 163.128749 
" clip-path="url(#pdd79e651ce)" style="fill: none; stroke: #008000; stroke-width: 0.75; stroke-linecap: square"/>
   </g>
   <g id="line2d_47">
    <path d="M 106.816955 163.789153 
L 91.645381 139.004693 
L 91.645381 139.004693 
" clip-path="url(#pdd79e651ce)" style="fill: none; stroke: #008000; stroke-width: 0.75; stroke-linecap: square"/>
   </g>
   <g id="line2d_48">
    <path d="M 57.328935 133.402682 
L 63.909793 135.98122 
L 63.909793 135.98122 
" clip-path="url(#pdd79e651ce)" style="fill: none; stroke: #008000; stroke-width: 0.75; stroke-linecap: square"/>
   </g>
   <g id="line2d_49">
    <path d="M 57.328935 133.402682 
L 63.909793 135.98122 
L 63.909793 135.98122 
" clip-path="url(#pdd79e651ce)" style="fill: none; stroke: #008000; stroke-width: 0.75; stroke-linecap: square"/>
   </g>
   <g id="line2d_50">
    <path d="M 63.909793 135.98122 
L 90.194224 138.840349 
L 91.645381 139.004693 
L 91.645381 139.004693 
" clip-path="url(#pdd79e651ce)" style="fill: none; stroke: #008000; stroke-width: 0.75; stroke-linecap: square"/>
   </g>
   <g id="line2d_51">
    <path d="M 63.909793 135.98122 
L 90.194224 138.840349 
L 91.645381 139.004693 
L 91.645381 139.004693 
" clip-path="url(#pdd79e651ce)" style="fill: none; stroke: #008000; stroke-width: 0.75; stroke-linecap: square"/>
   </g>
   <g id="line2d_52">
    <path d="M 91.645381 139.004693 
L 87.264514 112.853454 
L 87.264514 112.853454 
" clip-path="url(#pdd79e651ce)" style="fill: none; stroke: #008000; stroke-width: 0.75; stroke-linecap: square"/>
   </g>
   <g id="line2d_53">
    <path d="M 185.983859 134.659961 
L 206.373101 107.32578 
L 210.069067 102.410884 
L 210.069067 102.410884 
" clip-path="url(#pdd79e651ce)" style="fill: none; stroke: #008000; stroke-width: 0.75; stroke-linecap: square"/>
   </g>
   <g id="line2d_54">
    <path d="M 185.983859 134.659961 
L 178.872546 147.865493 
L 178.872546 147.865493 
" clip-path="url(#pdd79e651ce)" style="fill: none; stroke: #008000; stroke-width: 0.75; stroke-linecap: square"/>
   </g>
   <g id="line2d_55">
    <path d="M 45.011376 68.066786 
L 66.554435 90.747033 
L 87.264514 112.853454 
L 87.264514 112.853454 
" clip-path="url(#pdd79e651ce)" style="fill: none; stroke: #008000; stroke-width: 0.75; stroke-linecap: square"/>
   </g>
   <g id="line2d_56">
    <path d="M 148.879963 82.801054 
L 135.614137 98.224776 
L 135.614137 98.224776 
" clip-path="url(#pdd79e651ce)" style="fill: none; stroke: #008000; stroke-width: 0.75; stroke-linecap: square"/>
   </g>
   <g id="line2d_57">
    <path d="M 148.879963 82.801054 
L 147.51491 46.639672 
L 147.51491 46.639672 
" clip-path="url(#pdd79e651ce)" style="fill: none; stroke: #008000; stroke-width: 0.75; stroke-linecap: square"/>
   </g>
   <g id="line2d_58">
    <path d="M 135.614137 98.224776 
L 123.145018 125.276212 
L 123.145018 125.276212 
" clip-path="url(#pdd79e651ce)" style="fill: none; stroke: #008000; stroke-width: 0.75; stroke-linecap: square"/>
   </g>
   <g id="line2d_59">
    <path d="M 135.614137 98.224776 
L 109.996101 105.872834 
L 87.264514 112.853454 
L 87.264514 112.853454 
" clip-path="url(#pdd79e651ce)" style="fill: none; stroke: #008000; stroke-width: 0.75; stroke-linecap: square"/>
   </g>
   <g id="line2d_60">
    <path d="M 147.51491 46.639672 
L 170.917316 63.225564 
L 194.279081 80.055309 
L 217.59666 97.125745 
L 233.138762 108.655502 
L 233.138762 108.655502 
" clip-path="url(#pdd79e651ce)" style="fill: none; stroke: #008000; stroke-width: 0.75; stroke-linecap: square"/>
   </g>
   <g id="line2d_61">
    <path d="M 233.138762 108.655502 
L 210.069067 102.410884 
L 210.069067 102.410884 
" clip-path="url(#pdd79e651ce)" style="fill: none; stroke: #008000; stroke-width: 0.75; stroke-linecap: square"/>
   </g>
   <g id="patch_5">
    <path d="M 7.2 273.312 
L 7.2 7.2 
" style="fill: none; stroke: #ffffff; stroke-linejoin: miter; stroke-linecap: square"/>
   </g>
   <g id="patch_6">
    <path d="M 271.87963 273.312 
L 271.87963 7.2 
" style="fill: none; stroke: #ffffff; stroke-linejoin: miter; stroke-linecap: square"/>
   </g>
   <g id="patch_7">
    <path d="M 7.2 273.312 
L 271.87963 273.312 
" style="fill: none; stroke: #ffffff; stroke-linejoin: miter; stroke-linecap: square"/>
   </g>
   <g id="patch_8">
    <path d="M 7.2 7.2 
L 271.87963 7.2 
" style="fill: none; stroke: #ffffff; stroke-linejoin: miter; stroke-linecap: square"/>
   </g>
   <g id="PathCollection_1">
    <defs>
     <path id="m3dbb1cc83d" d="M 0 1.118034 
C 0.296506 1.118034 0.580908 1.000231 0.790569 0.790569 
C 1.000231 0.580908 1.118034 0.296506 1.118034 0 
C 1.118034 -0.296506 1.000231 -0.580908 0.790569 -0.790569 
C 0.580908 -1.000231 0.296506 -1.118034 0 -1.118034 
C -0.296506 -1.118034 -0.580908 -1.000231 -0.790569 -0.790569 
C -1.000231 -0.580908 -1.118034 -0.296506 -1.118034 0 
C -1.118034 0.296506 -1.000231 0.580908 -0.790569 0.790569 
C -0.580908 1.000231 -0.296506 1.118034 0 1.118034 
z
" style="stroke: #ff0000"/>
    </defs>
    <g clip-path="url(#pdd79e651ce)">
     <use xlink:href="#m3dbb1cc83d" x="198.823" y="153.370014" style="fill: #ff0000; stroke: #ff0000"/>
    </g>
   </g>
   <g id="PathCollection_2">
    <g clip-path="url(#pdd79e651ce)">
     <use xlink:href="#m3dbb1cc83d" x="214.933282" y="131.728725" style="fill: #ff0000; stroke: #ff0000"/>
    </g>
   </g>
   <g id="PathCollection_3">
    <g clip-path="url(#pdd79e651ce)">
     <use xlink:href="#m3dbb1cc83d" x="185.282388" y="151.227106" style="fill: #ff0000; stroke: #ff0000"/>
    </g>
   </g>
   <g id="PathCollection_4">
    <g clip-path="url(#pdd79e651ce)">
     <use xlink:href="#m3dbb1cc83d" x="206.854588" y="137.672946" style="fill: #ff0000; stroke: #ff0000"/>
    </g>
   </g>
   <g id="PathCollection_5">
    <g clip-path="url(#pdd79e651ce)">
     <use xlink:href="#m3dbb1cc83d" x="202.265499" y="184.283706" style="fill: #ff0000; stroke: #ff0000"/>
    </g>
   </g>
   <g id="PathCollection_6">
    <g clip-path="url(#pdd79e651ce)">
     <use xlink:href="#m3dbb1cc83d" x="175.43073" y="179.942326" style="fill: #ff0000; stroke: #ff0000"/>
    </g>
   </g>
   <g id="PathCollection_7">
    <g clip-path="url(#pdd79e651ce)">
     <use xlink:href="#m3dbb1cc83d" x="222.632739" y="123.137292" style="fill: #ff0000; stroke: #ff0000"/>
    </g>
   </g>
   <g id="PathCollection_8">
    <g clip-path="url(#pdd79e651ce)">
     <use xlink:href="#m3dbb1cc83d" x="234.068254" y="173.466188" style="fill: #ff0000; stroke: #ff0000"/>
    </g>
   </g>
   <g id="PathCollection_9">
    <g clip-path="url(#pdd79e651ce)">
     <use xlink:href="#m3dbb1cc83d" x="151.649664" y="179.298135" style="fill: #ff0000; stroke: #ff0000"/>
    </g>
   </g>
   <g id="PathCollection_10">
    <g clip-path="url(#pdd79e651ce)">
     <use xlink:href="#m3dbb1cc83d" x="153.365623" y="162.144584" style="fill: #ff0000; stroke: #ff0000"/>
    </g>
   </g>
   <g id="PathCollection_11">
    <g clip-path="url(#pdd79e651ce)">
     <use xlink:href="#m3dbb1cc83d" x="145.505391" y="184.654021" style="fill: #ff0000; stroke: #ff0000"/>
    </g>
   </g>
   <g id="PathCollection_12">
    <g clip-path="url(#pdd79e651ce)">
     <use xlink:href="#m3dbb1cc83d" x="146.842453" y="186.870297" style="fill: #ff0000; stroke: #ff0000"/>
    </g>
   </g>
   <g id="PathCollection_13">
    <g clip-path="url(#pdd79e651ce)">
     <use xlink:href="#m3dbb1cc83d" x="72.662309" y="214.4815" style="fill: #ff0000; stroke: #ff0000"/>
    </g>
   </g>
   <g id="PathCollection_14">
    <g clip-path="url(#pdd79e651ce)">
     <use xlink:href="#m3dbb1cc83d" x="79.878075" y="209.600418" style="fill: #ff0000; stroke: #ff0000"/>
    </g>
   </g>
   <g id="PathCollection_15">
    <g clip-path="url(#pdd79e651ce)">
     <use xlink:href="#m3dbb1cc83d" x="102.882231" y="186.632743" style="fill: #ff0000; stroke: #ff0000"/>
    </g>
   </g>
   <g id="PathCollection_16">
    <g clip-path="url(#pdd79e651ce)">
     <use xlink:href="#m3dbb1cc83d" x="105.650909" y="185.667769" style="fill: #ff0000; stroke: #ff0000"/>
    </g>
   </g>
   <g id="PathCollection_17">
    <g clip-path="url(#pdd79e651ce)">
     <use xlink:href="#m3dbb1cc83d" x="110.344792" y="199.424257" style="fill: #ff0000; stroke: #ff0000"/>
    </g>
   </g>
   <g id="PathCollection_18">
    <g clip-path="url(#pdd79e651ce)">
     <use xlink:href="#m3dbb1cc83d" x="127.697583" y="191.583892" style="fill: #ff0000; stroke: #ff0000"/>
    </g>
   </g>
   <g id="PathCollection_19">
    <g clip-path="url(#pdd79e651ce)">
     <use xlink:href="#m3dbb1cc83d" x="133.244837" y="187.394655" style="fill: #ff0000; stroke: #ff0000"/>
    </g>
   </g>
   <g id="PathCollection_20">
    <g clip-path="url(#pdd79e651ce)">
     <use xlink:href="#m3dbb1cc83d" x="133.415511" y="191.666953" style="fill: #ff0000; stroke: #ff0000"/>
    </g>
   </g>
   <g id="PathCollection_21">
    <g clip-path="url(#pdd79e651ce)">
     <use xlink:href="#m3dbb1cc83d" x="151.725443" y="210.37953" style="fill: #ff0000; stroke: #ff0000"/>
    </g>
   </g>
   <g id="PathCollection_22">
    <g clip-path="url(#pdd79e651ce)">
     <use xlink:href="#m3dbb1cc83d" x="151.061862" y="197.32255" style="fill: #ff0000; stroke: #ff0000"/>
    </g>
   </g>
   <g id="PathCollection_23">
    <g clip-path="url(#pdd79e651ce)">
     <use xlink:href="#m3dbb1cc83d" x="168.025516" y="214.870074" style="fill: #ff0000; stroke: #ff0000"/>
    </g>
   </g>
   <g id="PathCollection_24">
    <g clip-path="url(#pdd79e651ce)">
     <use xlink:href="#m3dbb1cc83d" x="154.475347" y="236.620337" style="fill: #ff0000; stroke: #ff0000"/>
    </g>
   </g>
   <g id="PathCollection_25">
    <g clip-path="url(#pdd79e651ce)">
     <use xlink:href="#m3dbb1cc83d" x="165.900963" y="163.320535" style="fill: #ff0000; stroke: #ff0000"/>
    </g>
   </g>
   <g id="PathCollection_26">
    <g clip-path="url(#pdd79e651ce)">
     <use xlink:href="#m3dbb1cc83d" x="184.875159" y="210.072165" style="fill: #ff0000; stroke: #ff0000"/>
    </g>
   </g>
   <g id="PathCollection_27">
    <g clip-path="url(#pdd79e651ce)">
     <use xlink:href="#m3dbb1cc83d" x="102.028177" y="146.371165" style="fill: #ff0000; stroke: #ff0000"/>
    </g>
   </g>
   <g id="PathCollection_28">
    <g clip-path="url(#pdd79e651ce)">
     <use xlink:href="#m3dbb1cc83d" x="59.92728" y="216.465553" style="fill: #ff0000; stroke: #ff0000"/>
    </g>
   </g>
   <g id="PathCollection_29">
    <g clip-path="url(#pdd79e651ce)">
     <use xlink:href="#m3dbb1cc83d" x="67.039276" y="226.435259" style="fill: #ff0000; stroke: #ff0000"/>
    </g>
   </g>
   <g id="PathCollection_30">
    <g clip-path="url(#pdd79e651ce)">
     <use xlink:href="#m3dbb1cc83d" x="118.271245" y="141.989176" style="fill: #ff0000; stroke: #ff0000"/>
    </g>
   </g>
   <g id="PathCollection_31">
    <g clip-path="url(#pdd79e651ce)">
     <use xlink:href="#m3dbb1cc83d" x="132.163104" y="162.768903" style="fill: #ff0000; stroke: #ff0000"/>
    </g>
   </g>
   <g id="PathCollection_32">
    <g clip-path="url(#pdd79e651ce)">
     <use xlink:href="#m3dbb1cc83d" x="137.217109" y="162.996997" style="fill: #ff0000; stroke: #ff0000"/>
    </g>
   </g>
   <g id="PathCollection_33">
    <g clip-path="url(#pdd79e651ce)">
     <use xlink:href="#m3dbb1cc83d" x="147.581132" y="163.128749" style="fill: #ff0000; stroke: #ff0000"/>
    </g>
   </g>
   <g id="PathCollection_34">
    <g clip-path="url(#pdd79e651ce)">
     <use xlink:href="#m3dbb1cc83d" x="106.816955" y="163.789153" style="fill: #ff0000; stroke: #ff0000"/>
    </g>
   </g>
   <g id="PathCollection_35">
    <g clip-path="url(#pdd79e651ce)">
     <use xlink:href="#m3dbb1cc83d" x="57.328935" y="133.402682" style="fill: #ff0000; stroke: #ff0000"/>
    </g>
   </g>
   <g id="PathCollection_36">
    <g clip-path="url(#pdd79e651ce)">
     <use xlink:href="#m3dbb1cc83d" x="63.909793" y="135.98122" style="fill: #ff0000; stroke: #ff0000"/>
    </g>
   </g>
   <g id="PathCollection_37">
    <g clip-path="url(#pdd79e651ce)">
     <use xlink:href="#m3dbb1cc83d" x="91.645381" y="139.004693" style="fill: #ff0000; stroke: #ff0000"/>
    </g>
   </g>
   <g id="PathCollection_38">
    <g clip-path="url(#pdd79e651ce)">
     <use xlink:href="#m3dbb1cc83d" x="185.983859" y="134.659961" style="fill: #ff0000; stroke: #ff0000"/>
    </g>
   </g>
   <g id="PathCollection_39">
    <g clip-path="url(#pdd79e651ce)">
     <use xlink:href="#m3dbb1cc83d" x="178.872546" y="147.865493" style="fill: #ff0000; stroke: #ff0000"/>
    </g>
   </g>
   <g id="PathCollection_40">
    <g clip-path="url(#pdd79e651ce)">
     <use xlink:href="#m3dbb1cc83d" x="45.011376" y="68.066786" style="fill: #ff0000; stroke: #ff0000"/>
    </g>
   </g>
   <g id="PathCollection_41">
    <g clip-path="url(#pdd79e651ce)">
     <use xlink:href="#m3dbb1cc83d" x="148.879963" y="82.801054" style="fill: #ff0000; stroke: #ff0000"/>
    </g>
   </g>
   <g id="PathCollection_42">
    <g clip-path="url(#pdd79e651ce)">
     <use xlink:href="#m3dbb1cc83d" x="135.614137" y="98.224776" style="fill: #ff0000; stroke: #ff0000"/>
    </g>
   </g>
   <g id="PathCollection_43">
    <g clip-path="url(#pdd79e651ce)">
     <use xlink:href="#m3dbb1cc83d" x="123.145018" y="125.276212" style="fill: #ff0000; stroke: #ff0000"/>
    </g>
   </g>
   <g id="PathCollection_44">
    <g clip-path="url(#pdd79e651ce)">
     <use xlink:href="#m3dbb1cc83d" x="87.264514" y="112.853454" style="fill: #ff0000; stroke: #ff0000"/>
    </g>
   </g>
   <g id="PathCollection_45">
    <g clip-path="url(#pdd79e651ce)">
     <use xlink:href="#m3dbb1cc83d" x="147.51491" y="46.639672" style="fill: #ff0000; stroke: #ff0000"/>
    </g>
   </g>
   <g id="PathCollection_46">
    <g clip-path="url(#pdd79e651ce)">
     <use xlink:href="#m3dbb1cc83d" x="233.138762" y="108.655502" style="fill: #ff0000; stroke: #ff0000"/>
    </g>
   </g>
   <g id="PathCollection_47">
    <g clip-path="url(#pdd79e651ce)">
     <use xlink:href="#m3dbb1cc83d" x="210.069067" y="102.410884" style="fill: #ff0000; stroke: #ff0000"/>
    </g>
   </g>
  </g>
 </g>
 <defs>
  <clipPath id="pdd79e651ce">
   <rect x="7.2" y="7.2" width="264.67963" height="266.112"/>
  </clipPath>
 </defs>
</svg>
