<?xml version="1.0" encoding="utf-8" standalone="no"?>
<!DOCTYPE svg PUBLIC "-//W3C//DTD SVG 1.1//EN"
  "http://www.w3.org/Graphics/SVG/1.1/DTD/svg11.dtd">
<svg xmlns:xlink="http://www.w3.org/1999/xlink" width="126.135398pt" height="280.512pt" viewBox="0 0 126.135398 280.512" xmlns="http://www.w3.org/2000/svg" version="1.1">
 <metadata>
  <rdf:RDF xmlns:dc="http://purl.org/dc/elements/1.1/" xmlns:cc="http://creativecommons.org/ns#" xmlns:rdf="http://www.w3.org/1999/02/22-rdf-syntax-ns#">
   <cc:Work>
    <dc:type rdf:resource="http://purl.org/dc/dcmitype/StillImage"/>
    <dc:date>2025-12-17T16:18:32.947026</dc:date>
    <dc:format>image/svg+xml</dc:format>
    <dc:creator>
     <cc:Agent>
      <dc:title>Matplotlib v3.10.6, https://matplotlib.org/</dc:title>
     </cc:Agent>
    </dc:creator>
   </cc:Work>
  </rdf:RDF>
 </metadata>
 <defs>
  <style type="text/css">*{stroke-linejoin: round; stroke-linecap: butt}</style>
 </defs>
 <g id="figure_1">
  <g id="patch_1">
   <path d="M -0 280.512 
L 126.135398 280.512 
L 126.135398 0 
L -0 0 
z
" style="fill: #ffffff"/>
  </g>
  <g id="axes_1">
   <g id="patch_2">
    <path d="M 7.2 273.312 
L 118.935398 273.312 
L 118.935398 7.2 
L 7.2 7.2 
z
" clip-path="url(#pe0bc5404e0)" style="fill: #add8e6; stroke: #ffffff; stroke-linejoin: miter"/>
   </g>
   <g id="patch_3">
    <path d="M 7.2 273.312 
L 118.935398 273.312 
L 118.935398 7.2 
L 7.2 7.2 
z
" clip-path="url(#pe0bc5404e0)" style="fill: #add8e6; stroke: #ffffff; stroke-linejoin: miter"/>
   </g>
   <g id="patch_4">
    <path d="M 7.2 268.483289 
L 7.90542 268.827067 
L 7.2 268.431463 
L 7.2 253.130933 
L 8.017472 253.887637 
L 8.854786 253.60451 
L 9.354369 256.437205 
L 8.03525 257.491094 
L 10.310476 257.363479 
L 10.167761 259.2812 
L 11.462306 257.832986 
L 14.170624 259.44374 
L 17.216401 258.420093 
L 16.943856 260.770609 
L 14.532657 262.503165 
L 15.476259 263.67086 
L 17.555491 262.963646 
L 19.562249 264.386682 
L 20.637095 261.916356 
L 19.924718 262.402293 
L 21.094544 261.292747 
L 24.003966 260.948183 
L 24.473103 262.037629 
L 24.05779 260.973175 
L 27.092747 257.281691 
L 30.26917 257.859161 
L 26.498131 258.56835 
L 26.391407 260.166143 
L 27.42227 258.614368 
L 28.468952 258.423175 
L 29.147024 258.975643 
L 30.679101 257.823076 
L 31.302859 259.774807 
L 33.802297 262.09399 
L 35.673084 261.176495 
L 35.851842 262.847315 
L 37.050973 264.099441 
L 36.361756 265.086747 
L 39.491258 266.126665 
L 39.301461 266.839665 
L 40.002149 266.367997 
L 41.863696 267.986499 
L 41.504216 266.744337 
L 43.083593 264.069157 
L 42.864654 262.862495 
L 52.924327 260.125572 
L 55.679293 256.565244 
L 65.787031 252.990112 
L 68.494913 252.938855 
L 71.779035 255.197125 
L 71.939367 255.950624 
L 69.165968 253.551713 
L 70.199062 257.68526 
L 71.831718 258.996069 
L 76.855601 258.262359 
L 79.540108 255.356483 
L 77.520463 258.007209 
L 74.902445 259.08336 
L 75.109644 259.861869 
L 76.14893 259.78561 
L 75.941683 260.501851 
L 80.312291 256.146045 
L 83.346813 254.89932 
L 80.988889 255.222122 
L 80.395034 254.277944 
L 79.622691 255.387673 
L 79.949275 251.943624 
L 83.305053 251.596357 
L 85.054438 249.88127 
L 88.261144 244.483274 
L 87.993873 246.602519 
L 84.072125 251.46666 
L 87.475207 252.278927 
L 89.296849 251.519868 
L 88.797858 248.490875 
L 89.652953 247.167831 
L 88.893218 246.656059 
L 89.308914 244.888125 
L 88.127508 242.354829 
L 87.396157 231.622613 
L 87.93086 227.557641 
L 90.365823 224.989738 
L 90.496631 221.594555 
L 92.503772 217.943667 
L 99.005903 215.361638 
L 99.012103 217.411475 
L 102.693872 220.604443 
L 103.628177 224.236433 
L 106.3216 225.912435 
L 108.625908 225.47616 
L 111.718228 222.262553 
L 111.283179 214.298516 
L 113.08622 207.795283 
L 111.156064 207.008016 
L 109.777954 209.030873 
L 108.969514 207.78845 
L 107.02908 207.421188 
L 105.306987 202.803981 
L 107.314127 201.946523 
L 104.950884 201.751549 
L 105.568227 201.109781 
L 104.831492 199.421446 
L 106.589248 198.949419 
L 104.64142 198.165501 
L 105.568227 197.530518 
L 105.37169 195.312374 
L 109.564947 194.697195 
L 109.14338 193.072513 
L 110.633264 193.731496 
L 110.176033 192.967652 
L 111.476343 191.899744 
L 114.576545 192.320117 
L 114.612586 190.506085 
L 115.716951 191.735306 
L 117.141924 191.957541 
L 117.047325 190.9397 
L 118.935401 191.612805 
L 118.935401 273.312 
L 7.2 273.312 
z
" clip-path="url(#pe0bc5404e0)" style="fill: #d3d3d3"/>
   </g>
   <g id="patch_5">
    <path d="M 7.2 219.897508 
L 8.706689 217.682969 
L 13.831914 215.667694 
L 12.157504 217.655379 
L 13.036191 222.406607 
L 11.575119 225.502007 
L 10.790867 225.587334 
L 11.539508 229.226834 
L 10.030973 229.17315 
L 11.622636 229.399542 
L 10.949457 230.980557 
L 15.108681 231.509649 
L 15.993294 232.665468 
L 14.229612 236.512619 
L 13.600145 235.40291 
L 13.042117 237.013361 
L 12.851668 236.107086 
L 11.848913 236.176423 
L 12.388674 234.557838 
L 10.886717 235.942104 
L 10.553934 240.373087 
L 8.142735 240.202359 
L 9.520462 240.563401 
L 9.366438 242.18903 
L 7.2 242.09302 
z
" clip-path="url(#pe0bc5404e0)" style="fill: #d3d3d3"/>
   </g>
   <g id="patch_6">
    <path d="M 7.2 242.631731 
L 8.154424 243.103844 
L 7.281716 244.421242 
L 7.2 244.436882 
z
" clip-path="url(#pe0bc5404e0)" style="fill: #d3d3d3"/>
   </g>
   <g id="patch_7">
    <path d="M 7.2 251.476283 
L 7.619773 251.974269 
L 7.340868 252.908646 
L 7.2 252.71934 
z
" clip-path="url(#pe0bc5404e0)" style="fill: #d3d3d3"/>
   </g>
   <g id="patch_8">
    <path d="M 118.935401 180.611886 
L 118.34149 180.360132 
L 116.631638 182.249658 
L 115.966559 181.174411 
L 115.751966 182.273586 
L 114.944552 181.484845 
L 113.983123 182.941244 
L 112.925724 181.974712 
L 113.525675 182.899564 
L 111.713654 184.950283 
L 112.361718 183.411284 
L 111.203367 184.416421 
L 111.310471 183.119892 
L 107.473646 184.950723 
L 104.81366 184.985915 
L 105.66897 183.072677 
L 103.34095 186.738432 
L 101.025548 187.188165 
L 103.263967 185.726743 
L 103.163167 184.807859 
L 102.468024 185.122314 
L 103.430222 183.970781 
L 102.052713 184.635716 
L 101.999057 185.745288 
L 100.959435 185.644208 
L 100.413316 184.220421 
L 101.654257 184.879892 
L 101.714058 183.893052 
L 102.165145 183.821412 
L 102.219025 182.612666 
L 100.840915 182.124337 
L 102.444048 179.166526 
L 98.3648 181.425533 
L 99.18999 180.390404 
L 97.883977 180.641943 
L 99.291006 178.668544 
L 96.761611 178.967883 
L 93.982673 176.498737 
L 92.949363 177.656999 
L 93.590137 175.252901 
L 91.713589 177.415883 
L 90.567687 175.790737 
L 89.962193 174.155481 
L 90.841207 173.693988 
L 89.712537 171.843106 
L 90.697894 171.671836 
L 89.02349 171.305968 
L 89.80736 171.367362 
L 89.647241 169.892674 
L 90.72171 171.256653 
L 89.665241 168.697018 
L 91.084342 168.875113 
L 90.673974 167.146388 
L 91.909748 166.604603 
L 90.733342 163.633086 
L 91.803461 163.397585 
L 90.745847 162.439568 
L 92.052517 162.390101 
L 90.887966 161.255215 
L 93.216202 162.713721 
L 89.545904 155.174402 
L 90.674735 151.73532 
L 90.252735 150.695329 
L 89.807577 151.301552 
L 90.151832 149.39796 
L 89.683073 148.673817 
L 89.077146 149.877901 
L 89.284393 148.217532 
L 88.335084 147.588405 
L 89.201866 145.836689 
L 88.097716 145.643597 
L 88.417995 142.755544 
L 89.326746 141.317321 
L 90.437256 141.532635 
L 90.905798 138.664592 
L 92.456252 138.749314 
L 91.173174 136.871797 
L 91.701957 135.071935 
L 92.355724 136.311715 
L 94.599639 135.520459 
L 94.706303 137.19359 
L 94.849455 135.877259 
L 97.301426 135.117901 
L 96.126381 132.428267 
L 97.586257 132.707747 
L 96.969299 130.511352 
L 97.830529 132.129625 
L 97.693145 130.097387 
L 99.06495 128.122603 
L 100.443052 129.381865 
L 101.351426 128.330595 
L 100.953891 126.832627 
L 99.43943 126.692327 
L 101.114059 126.301881 
L 100.609091 125.202066 
L 101.891953 127.222993 
L 102.354784 125.013909 
L 104.8677 124.601834 
L 104.617716 122.324579 
L 106.221233 122.948699 
L 106.696512 120.090982 
L 108.525164 119.435508 
L 109.504818 116.396861 
L 111.067392 116.30738 
L 110.674696 114.928469 
L 113.002708 111.560178 
L 112.800196 110.110452 
L 116.714597 108.440237 
L 118.852001 109.85212 
L 117.468564 106.987002 
L 118.935401 107.834478 
z
" clip-path="url(#pe0bc5404e0)" style="fill: #d3d3d3"/>
   </g>
   <g id="patch_9">
    <path d="M 118.935401 101.471118 
L 117.883826 100.830752 
L 118.632465 99.261569 
L 116.405574 96.097697 
L 113.596347 96.177837 
L 113.127972 92.644363 
L 111.963694 93.918477 
L 110.181801 92.904009 
L 110.097856 94.164408 
L 110.028371 92.338961 
L 107.616574 94.236297 
L 106.999015 92.84545 
L 105.858818 93.700488 
L 105.158131 92.628278 
L 104.599668 94.294151 
L 104.386493 92.976506 
L 103.934974 93.64257 
L 102.213041 91.974406 
L 103.453598 93.881371 
L 102.462481 95.203502 
L 99.219678 91.538171 
L 99.444973 94.264623 
L 96.838219 92.576993 
L 97.289954 95.628906 
L 96.678107 94.885955 
L 96.315852 95.903195 
L 97.485513 97.993399 
L 94.861359 97.003395 
L 95.983725 97.75769 
L 93.465858 98.187901 
L 94.914583 99.132868 
L 94.100648 100.353182 
L 91.416853 99.797058 
L 92.402427 101.379875 
L 90.722087 100.531918 
L 92.586947 101.827069 
L 92.854003 103.862975 
L 89.956 100.867281 
L 89.190178 101.443064 
L 90.852518 102.254315 
L 91.767253 104.733506 
L 88.691355 110.195046 
L 87.541104 109.719894 
L 89.700472 111.213199 
L 89.564337 112.720379 
L 88.263587 112.366399 
L 90.989743 114.216728 
L 91.506125 115.204633 
L 90.483958 115.273109 
L 91.945196 116.390436 
L 87.360765 120.991201 
L 85.211073 126.960816 
L 84.27954 127.948673 
L 83.969755 126.309027 
L 83.257918 128.966987 
L 82.663462 127.156792 
L 82.669446 129.174466 
L 82.461983 127.693674 
L 82.123487 129.22801 
L 80.560961 128.953497 
L 78.019879 132.820555 
L 76.511346 130.545062 
L 76.957322 133.185542 
L 75.667891 131.756724 
L 73.506347 136.693685 
L 72.378222 134.979042 
L 71.285544 135.125271 
L 72.49125 136.384565 
L 71.427659 136.825286 
L 71.036156 135.666159 
L 71.350892 137.069086 
L 69.85421 137.161563 
L 69.533711 139.247457 
L 68.767456 138.598584 
L 69.266552 139.31864 
L 67.609699 139.417613 
L 70.162853 140.214373 
L 69.12976 139.966969 
L 69.818814 140.763496 
L 68.648937 142.189631 
L 67.62117 141.389506 
L 68.16811 142.300612 
L 67.02204 143.24199 
L 66.487393 141.851776 
L 65.543355 142.313589 
L 64.914104 139.48351 
L 63.904554 139.548429 
L 66.101762 144.828989 
L 65.079927 144.725963 
L 65.115808 147.549441 
L 63.761406 147.83303 
L 64.314105 149.147711 
L 62.330453 146.835825 
L 61.362166 147.845495 
L 61.754482 150.420752 
L 63.773911 151.544223 
L 62.621264 151.595212 
L 61.350639 156.147528 
L 62.503285 160.78076 
L 59.871789 159.185558 
L 60.852036 160.243301 
L 59.72353 160.755366 
L 60.768471 161.030504 
L 59.307618 161.442915 
L 60.614504 161.792073 
L 59.343719 161.867286 
L 60.62614 163.695602 
L 59.640402 163.881756 
L 60.887864 165.467625 
L 59.997106 165.343499 
L 60.9829 165.850885 
L 59.628494 165.343499 
L 60.567369 166.319852 
L 60.020866 169.971861 
L 60.803919 169.911067 
L 60.032553 170.792285 
L 61.422515 171.696197 
L 60.769124 172.781224 
L 61.58839 173.596737 
L 60.28134 174.641174 
L 63.422914 175.167282 
L 64.266589 177.294896 
L 66.08393 175.773457 
L 67.788299 179.634644 
L 69.385668 179.593004 
L 69.237028 180.449844 
L 70.507869 180.845361 
L 69.730087 181.257843 
L 68.369593 179.935008 
L 70.341397 183.578325 
L 70.394621 182.40433 
L 71.642083 183.762285 
L 72.128998 182.893564 
L 72.597973 185.442745 
L 73.904967 186.212116 
L 73.649007 187.105021 
L 72.378818 185.400857 
L 72.871117 186.673393 
L 71.256292 188.03057 
L 73.928563 188.043091 
L 68.061006 192.045516 
L 68.518289 193.207463 
L 66.754392 192.617862 
L 66.760316 194.080357 
L 68.673073 193.451839 
L 69.456727 194.103692 
L 69.564048 192.623421 
L 70.780576 193.597555 
L 69.890635 193.492598 
L 70.911657 194.132243 
L 70.151109 194.539471 
L 69.231484 194.243673 
L 70.579089 195.062678 
L 69.70573 195.54516 
L 68.334582 193.887898 
L 68.774197 194.841998 
L 67.977878 194.772312 
L 69.533551 196.211544 
L 66.101546 198.291935 
L 65.60827 201.218327 
L 64.248974 199.50173 
L 64.616933 197.171796 
L 63.969305 197.790027 
L 63.684638 195.951178 
L 63.524471 200.122621 
L 62.776264 199.950582 
L 63.126227 200.840627 
L 62.265157 200.053601 
L 62.639913 201.517057 
L 60.157057 202.421778 
L 59.622786 201.676688 
L 59.272006 202.689627 
L 60.245676 202.79331 
L 58.69658 202.92427 
L 59.343502 203.341087 
L 58.565556 203.871216 
L 53.238626 203.443481 
L 57.41351 203.951797 
L 58.666299 205.686202 
L 57.164127 206.452693 
L 54.865903 205.686618 
L 57.526322 207.195264 
L 56.398248 207.364199 
L 56.985582 208.229291 
L 57.776138 207.998056 
L 56.885219 208.574231 
L 57.811586 210.42178 
L 56.849335 210.151833 
L 57.716718 211.376861 
L 56.528676 212.005351 
L 57.187831 212.850868 
L 57.704646 212.195787 
L 57.573838 213.952142 
L 56.156587 213.105583 
L 55.258107 213.594877 
L 57.027715 215.756297 
L 54.830127 213.728445 
L 57.063327 215.934673 
L 57.188427 216.540576 
L 56.101133 216.245855 
L 56.659704 218.076142 
L 55.905353 217.261866 
L 55.566698 217.976511 
L 56.683516 218.220027 
L 57.098991 219.568257 
L 55.163075 221.912783 
L 56.065685 224.781582 
L 55.115122 224.825261 
L 55.721101 225.381629 
L 55.299863 225.910641 
L 55.079731 225.228668 
L 54.711932 228.208576 
L 55.341018 228.403967 
L 54.4744 228.501086 
L 54.605044 229.875551 
L 53.654702 230.221132 
L 50.822319 237.385902 
L 50.685748 236.155527 
L 48.969527 236.416782 
L 49.004758 235.616177 
L 47.271142 236.800406 
L 46.98571 236.032758 
L 42.555683 236.192829 
L 43.037054 238.199196 
L 41.510901 237.545533 
L 39.259871 240.117797 
L 39.141131 242.124779 
L 40.24626 243.996595 
L 39.052241 246.138589 
L 36.890479 245.500815 
L 33.137218 246.713799 
L 29.188779 246.185576 
L 30.341043 245.422041 
L 29.794704 243.839135 
L 31.017593 242.461184 
L 26.575713 234.435161 
L 29.057752 235.579124 
L 27.811105 232.923571 
L 29.693744 232.72526 
L 30.102696 230.836447 
L 29.444306 229.815802 
L 28.594759 230.091926 
L 27.7519 227.752995 
L 25.910581 226.318129 
L 24.913155 222.461549 
L 24.069696 222.340915 
L 24.176203 219.700286 
L 23.434467 220.939842 
L 22.751394 220.262655 
L 23.166489 218.894611 
L 22.217124 216.712767 
L 23.095812 216.068409 
L 21.278631 216.102194 
L 22.359023 214.832614 
L 21.076765 214.185948 
L 22.762267 207.534008 
L 21.271944 207.539291 
L 19.757864 209.317964 
L 21.295269 208.015027 
L 22.299056 209.036861 
L 21.265584 211.141485 
L 21.501811 211.94654 
L 20.322579 213.119409 
L 19.757864 211.758571 
L 21.301249 210.770293 
L 19.430463 211.337813 
L 19.16341 209.375028 
L 21.301629 206.242414 
L 20.713319 206.713003 
L 20.375642 205.675283 
L 19.383108 208.534329 
L 19.519897 206.83232 
L 18.819753 207.409893 
L 19.573721 205.930402 
L 17.774211 207.409893 
L 18.8552 205.515741 
L 17.893167 205.186602 
L 18.54661 204.264369 
L 16.943856 198.740875 
L 18.154675 197.17222 
L 17.578651 195.766049 
L 16.818757 196.808139 
L 15.678778 195.417572 
L 14.995651 196.130395 
L 14.817488 194.040399 
L 14.009478 194.260712 
L 13.332712 192.640949 
L 14.057594 191.19115 
L 13.309334 187.865861 
L 13.849529 186.30126 
L 14.389725 187.771927 
L 14.515042 185.7686 
L 12.525463 186.815256 
L 13.487115 190.663977 
L 12.447663 191.314949 
L 12.210729 189.954711 
L 11.842552 191.115032 
L 10.815441 190.58262 
L 12.703843 192.477409 
L 12.157123 197.633641 
L 11.996576 194.626956 
L 11.338022 197.749853 
L 10.785322 196.738429 
L 10.67289 198.142365 
L 9.288475 197.836538 
L 8.861908 199.024296 
L 7.822673 198.880334 
L 7.709643 197.258801 
L 7.2 197.532833 
L 7.2 129.364049 
L 7.234199 129.342179 
L 8.997501 132.627495 
L 7.911346 134.688716 
L 10.998714 134.503106 
L 9.556072 133.609456 
L 10.488421 132.488604 
L 15.993892 132.547964 
L 14.520587 131.63073 
L 15.618974 129.890309 
L 13.629612 130.938006 
L 15.92838 128.484257 
L 19.781188 127.189027 
L 18.354801 125.832097 
L 16.775589 125.927378 
L 19.782384 123.518601 
L 17.953189 123.13857 
L 19.016345 121.81519 
L 13.356851 126.799992 
L 16.609115 125.60371 
L 15.91631 127.827886 
L 12.150979 130.598445 
L 8.677221 131.697268 
L 9.176424 130.1513 
L 8.089128 130.317796 
L 7.821694 128.75978 
L 9.966058 127.169705 
L 7.2 128.568819 
L 7.2 127.978297 
L 7.762706 127.485506 
L 7.2 127.450867 
L 7.2 126.01854 
L 10.934561 125.1557 
L 10.572147 124.270028 
L 8.772202 125.168309 
L 10.387841 123.884309 
L 8.737189 124.547249 
L 9.223343 122.203168 
L 10.946086 121.97156 
L 9.971766 121.604314 
L 10.619664 120.275198 
L 11.824937 120.705313 
L 11.112125 119.790882 
L 12.715314 118.805301 
L 12.282005 117.826095 
L 13.998224 117.751098 
L 12.839816 116.438581 
L 15.132439 117.565345 
L 13.784397 116.196703 
L 16.171837 115.42533 
L 15.951703 113.662622 
L 17.412993 116.396861 
L 18.689706 116.486341 
L 17.82847 118.552384 
L 19.146175 116.299946 
L 22.403169 116.305105 
L 19.408063 116.190263 
L 19.990013 114.424095 
L 21.931477 113.933098 
L 19.930263 114.313081 
L 19.022489 112.338169 
L 22.437258 110.49404 
L 20.726964 110.159269 
L 21.931857 109.804168 
L 24.610273 107.78087 
L 17.875552 111.677985 
L 19.425461 110.25048 
L 17.615077 110.745114 
L 18.137059 109.642638 
L 21.420803 108.614391 
L 18.327074 109.139754 
L 19.49081 108.089429 
L 20.136425 108.665917 
L 19.621837 108.018822 
L 23.954709 105.555124 
L 24.848021 103.48123 
L 25.838762 105.537564 
L 26.605778 105.798251 
L 30.245793 101.771089 
L 26.937963 104.824413 
L 25.899327 104.379815 
L 27.0268 103.799354 
L 25.79244 103.219069 
L 26.664549 102.728954 
L 25.186134 103.176628 
L 26.747895 100.838314 
L 23.712991 103.4737 
L 25.910961 99.175822 
L 24.663553 99.646535 
L 25.488743 97.075348 
L 27.057083 100.432056 
L 26.723756 99.311701 
L 28.351248 100.752343 
L 27.739613 99.718472 
L 28.927271 99.275973 
L 27.715853 99.24731 
L 27.436732 97.103498 
L 27.104437 98.410008 
L 27.246554 97.160983 
L 26.26098 97.964769 
L 25.89813 96.421493 
L 27.032944 94.481939 
L 29.021708 96.306458 
L 27.228123 94.272442 
L 28.534575 93.765568 
L 28.167757 91.254414 
L 29.597731 90.373308 
L 31.956085 92.910786 
L 31.457046 90.919515 
L 29.770131 90.409357 
L 30.857481 88.545553 
L 28.220438 88.662591 
L 34.132199 85.879391 
L 34.372774 87.98959 
L 36.391821 87.461968 
L 34.78276 85.939408 
L 36.213278 85.622645 
L 36.129986 86.519884 
L 38.868316 84.213614 
L 30.649634 86.777879 
L 31.735951 85.076407 
L 34.509564 84.477809 
L 30.524914 84.102184 
L 31.706265 81.676184 
L 30.339847 80.51475 
L 31.403384 80.149282 
L 32.352967 82.025566 
L 33.237962 81.63166 
L 32.377108 80.522665 
L 35.251681 80.730801 
L 33.868027 79.887426 
L 35.708529 79.170654 
L 31.961631 80.060186 
L 33.451952 78.885887 
L 32.151809 77.814654 
L 34.508966 78.406762 
L 31.955487 77.116931 
L 35.536728 77.484898 
L 36.920382 76.93656 
L 34.610306 77.289675 
L 33.897549 76.703511 
L 35.898925 76.425297 
L 34.064402 75.57412 
L 37.58546 75.717384 
L 35.32214 75.107027 
L 34.010525 72.920133 
L 36.130749 72.791656 
L 37.353855 70.951501 
L 37.709363 72.700109 
L 38.018389 70.540516 
L 38.659926 72.639388 
L 39.325221 70.616186 
L 40.673807 70.532842 
L 39.366975 70.364023 
L 40.050102 68.875156 
L 43.433992 67.60282 
L 44.841946 67.656636 
L 44.598487 69.837987 
L 45.465485 67.695008 
L 47.579349 68.53771 
L 47.288754 67.948133 
L 48.429332 67.565009 
L 45.061481 67.064768 
L 45.987852 66.00294 
L 42.840734 67.633597 
L 42.86449 66.310474 
L 39.865415 67.195905 
L 42.293794 63.903203 
L 43.814997 64.954105 
L 45.17473 63.694683 
L 42.324295 63.306849 
L 44.278208 61.418917 
L 44.823734 61.388268 
L 44.302184 63.003897 
L 46.504723 62.670761 
L 45.798813 64.057507 
L 47.983737 62.926353 
L 48.993066 65.617557 
L 49.735401 64.01827 
L 48.898467 64.475108 
L 48.607275 62.981179 
L 51.100842 61.349352 
L 48.518003 62.631957 
L 46.314872 61.785042 
L 46.462751 60.63934 
L 48.000972 61.146471 
L 45.910648 60.397559 
L 46.949882 58.357631 
L 50.851402 58.913835 
L 47.424785 55.732003 
L 45.95224 58.765604 
L 43.113713 59.875128 
L 43.221578 58.389498 
L 45.732704 57.925882 
L 43.518478 57.761068 
L 43.399357 56.315155 
L 45.567046 55.94432 
L 43.707512 55.73157 
L 46.403763 55.242881 
L 46.094575 56.220564 
L 49.943032 54.009317 
L 50.940895 55.163959 
L 51.463258 52.852081 
L 48.482776 51.549112 
L 47.674981 53.534679 
L 46.754487 52.225301 
L 49.265829 49.794591 
L 49.426758 51.811817 
L 50.50144 51.549112 
L 51.926032 48.305052 
L 53.34611 55.313408 
L 55.584313 56.882286 
L 53.583045 55.26616 
L 53.274835 52.95582 
L 55.168186 55.023434 
L 54.177064 52.877074 
L 55.620086 54.058455 
L 54.47402 52.590128 
L 55.163291 51.095317 
L 54.289932 51.565582 
L 54.907711 49.47416 
L 56.27924 49.913407 
L 55.322589 48.753831 
L 53.316643 49.394197 
L 54.5217 48.649675 
L 53.120271 47.237792 
L 57.787229 50.441349 
L 53.933609 46.198474 
L 57.366807 45.295659 
L 57.828821 47.00415 
L 60.417367 45.893856 
L 61.403486 49.714548 
L 61.201782 45.32908 
L 65.477787 45.458262 
L 62.437012 44.488173 
L 63.007055 42.867977 
L 59.502797 44.779268 
L 59.051874 43.322941 
L 55.560934 44.860065 
L 55.151223 43.654267 
L 56.40994 43.070265 
L 56.321048 40.962374 
L 58.838916 39.591554 
L 60.073112 40.979837 
L 60.928423 39.166454 
L 63.950712 40.466411 
L 60.86291 38.66679 
L 62.424724 37.541772 
L 64.781666 38.92847 
L 62.454628 37.303355 
L 64.063472 35.927521 
L 65.174415 36.645078 
L 64.134584 35.317388 
L 62.317619 36.093023 
L 62.453975 34.135205 
L 63.60091 31.801602 
L 67.668906 31.508472 
L 65.922837 29.320553 
L 67.211459 24.613612 
L 68.774413 24.775094 
L 69.765098 28.809369 
L 70.122239 26.843701 
L 71.120049 28.892713 
L 70.976736 27.499639 
L 73.281264 28.204876 
L 69.344296 25.130211 
L 69.326897 23.716053 
L 72.057943 22.646038 
L 73.186829 26.152162 
L 75.686099 27.474389 
L 75.097788 29.446738 
L 77.199423 29.680429 
L 75.893515 26.42251 
L 74.100963 26.473138 
L 73.026281 24.757582 
L 73.851744 22.952498 
L 75.03266 23.538502 
L 74.563742 22.459467 
L 73.019973 23.104943 
L 72.848174 21.376682 
L 74.717765 18.476557 
L 78.412255 17.497399 
L 78.073327 24.251253 
L 76.766497 26.009266 
L 77.889023 25.646202 
L 78.518486 21.70961 
L 81.422801 22.195688 
L 78.75031 20.216353 
L 82.460997 14.058757 
L 82.906813 21.497677 
L 79.765355 28.541104 
L 82.324213 26.026121 
L 83.28054 22.101385 
L 86.243566 23.946171 
L 83.832146 21.480662 
L 83.690684 18.504066 
L 87.9251 14.423536 
L 86.433742 16.6447 
L 87.663644 18.271064 
L 87.776076 16.231408 
L 88.909857 16.153015 
L 88.518739 17.703901 
L 89.842808 15.573916 
L 89.208226 13.364415 
L 90.578774 13.278203 
L 95.502678 19.077092 
L 93.667561 14.935088 
L 94.56343 13.765531 
L 94.943293 14.978347 
L 95.237641 12.972817 
L 93.046358 12.834294 
L 95.148746 10.987089 
L 92.627947 12.460704 
L 88.842983 9.394675 
L 90.507718 7.874855 
L 91.025351 9.526116 
L 91.472304 7.199995 
L 91.731741 7.199995 
L 93.554689 10.680725 
L 94.195159 7.199995 
L 94.511817 7.199995 
L 95.229102 8.736077 
L 96.788359 7.759836 
L 96.191733 10.907927 
L 98.569275 11.248016 
L 96.805543 10.374153 
L 97.188994 8.173865 
L 101.455702 9.429666 
L 100.592076 11.31018 
L 101.677793 10.698333 
L 102.799774 14.120056 
L 101.903256 15.219295 
L 105.121866 14.007312 
L 102.703004 11.824776 
L 104.501696 11.056495 
L 103.040682 9.096514 
L 105.357007 8.58799 
L 103.522106 8.393536 
L 106.015837 7.461178 
L 105.609867 7.199995 
L 116.990264 7.199995 
L 115.404996 11.789337 
L 116.144719 12.495599 
L 116.661101 10.226626 
L 117.124092 12.251703 
L 118.935401 9.119745 
z
" clip-path="url(#pe0bc5404e0)" style="fill: #d3d3d3"/>
   </g>
   <g id="patch_10">
    <path d="M 22.82816 250.924223 
L 22.620911 251.88119 
L 24.592061 252.974727 
L 23.238145 254.642168 
L 23.196935 256.381332 
L 21.302825 251.777495 
L 22.59737 250.929342 
L 20.648784 249.893332 
L 22.139705 250.375502 
L 21.373286 249.477809 
L 22.050868 249.062322 
L 21.403568 248.318445 
L 18.11901 248.39619 
L 16.91988 246.572114 
L 17.810854 245.934993 
L 16.825063 244.457637 
L 17.312196 243.439199 
L 15.768212 242.535223 
L 17.003008 242.450577 
L 15.316691 241.555415 
L 18.161199 241.739677 
L 18.79681 240.319056 
L 19.865294 240.192189 
L 19.984087 239.196262 
L 18.244544 238.172256 
L 20.821021 239.096287 
L 21.830897 238.597372 
L 21.065076 239.440098 
L 21.492024 240.678175 
L 20.649382 241.069133 
L 21.77729 241.565557 
L 20.921981 241.870779 
L 22.229193 242.345666 
L 22.994634 239.159576 
L 23.769262 241.330791 
L 22.893673 242.724708 
L 23.323883 242.200797 
L 23.992713 242.751014 
L 23.535427 238.825186 
L 22.276112 238.729602 
L 25.607753 236.6619 
L 27.846337 237.826587 
L 27.097858 239.312906 
L 27.323918 242.850926 
L 27.793273 242.171085 
L 28.262573 243.544649 
L 27.199416 243.760674 
L 27.282382 242.876937 
L 25.173629 244.09078 
L 24.818121 245.359551 
L 26.658841 247.386483 
L 23.582944 248.958134 
L 24.734775 249.530089 
L 24.610273 250.996632 
z
" clip-path="url(#pe0bc5404e0)" style="fill: #d3d3d3"/>
   </g>
   <g id="patch_11">
    <path d="M 67.550114 225.457992 
L 67.598828 225.414373 
L 68.310441 224.071799 
L 67.515264 224.487134 
L 66.81376 222.000653 
L 67.550495 220.296048 
L 66.920864 218.341386 
L 71.155116 213.197627 
L 71.855422 214.459564 
L 72.247794 213.175309 
L 73.388152 213.186468 
L 74.023162 214.610147 
L 72.651798 215.985056 
L 71.915443 215.606171 
L 71.624251 217.223494 
L 71.612564 219.237059 
L 72.728781 220.108676 
L 70.911657 221.396717 
L 71.078076 222.516379 
L 69.047393 223.579165 
L 69.011565 225.48015 
L 67.06934 226.607194 
z
" clip-path="url(#pe0bc5404e0)" style="fill: #d3d3d3"/>
   </g>
   <g id="patch_12">
    <path d="M 9.146739 244.16035 
L 9.170281 244.149875 
L 11.415006 243.119924 
L 13.155528 244.427579 
L 12.501921 244.291196 
L 12.507847 245.427983 
L 13.594382 244.783728 
L 13.571222 243.10346 
L 14.49759 244.899061 
L 13.000526 245.37067 
L 14.028072 245.396549 
L 15.257158 247.240407 
L 14.47307 247.189032 
L 14.461598 250.068918 
L 9.681009 249.971114 
L 10.388058 249.311998 
L 9.146739 248.423529 
L 8.986029 249.259695 
L 7.2 245.168362 
L 7.2 245.035291 
L 7.834145 245.234258 
L 7.2 244.707051 
L 7.2 244.558529 
z
" clip-path="url(#pe0bc5404e0)" style="fill: #d3d3d3"/>
   </g>
   <g id="patch_13">
    <path d="M 94.65944 212.908642 
L 94.61192 212.872894 
L 96.245013 210.286775 
L 93.453946 208.35919 
L 94.819391 207.22802 
L 93.495105 205.40858 
L 94.730119 205.283188 
L 95.371437 206.52038 
L 96.084252 204.725862 
L 96.726004 205.56733 
L 96.684412 204.412857 
L 98.68584 203.495511 
L 99.434103 204.350092 
L 101.381274 203.779981 
L 103.929206 205.720616 
L 99.671414 208.454935 
L 99.86143 209.290923 
L 98.50768 208.737515 
L 96.713875 209.471298 
L 96.114317 212.397122 
L 95.015551 213.476818 
z
" clip-path="url(#pe0bc5404e0)" style="fill: #d3d3d3"/>
   </g>
   <g id="patch_14">
    <path d="M 44.705591 47.583249 
L 44.687979 47.558095 
L 46.344772 44.406703 
L 47.632793 44.447142 
L 46.250173 42.314481 
L 49.27257 41.476425 
L 48.024948 39.337324 
L 49.878281 39.992173 
L 48.06034 38.633465 
L 49.592689 37.632807 
L 49.182702 34.887049 
L 51.302926 34.830269 
L 50.298923 39.19808 
L 52.003833 38.272627 
L 49.990332 43.142314 
L 51.854972 40.391205 
L 52.550768 41.102098 
L 52.413384 38.953063 
L 53.880165 39.059542 
L 52.562024 37.500693 
L 54.39084 37.237106 
L 53.780018 35.532093 
L 56.166809 37.147209 
L 55.595949 42.542003 
L 52.59236 42.704429 
L 51.968005 45.530375 
L 50.988791 46.102408 
L 50.335132 44.601317 
L 49.242506 47.566618 
L 47.097925 46.545468 
L 48.624511 43.467696 
z
" clip-path="url(#pe0bc5404e0)" style="fill: #d3d3d3"/>
   </g>
   <g id="patch_15">
    <path d="M 65.881846 23.478517 
L 66.148681 24.944714 
L 66.529746 26.577919 
L 65.103519 29.388019 
L 66.059629 30.315924 
L 62.437773 31.0177 
L 62.36568 29.914616 
L 60.062021 33.729043 
L 60.156841 32.316471 
L 57.485327 32.84837 
L 60.506639 30.04 
L 58.227065 29.974328 
L 60.281777 28.229933 
L 58.286052 27.692987 
L 60.341689 26.935905 
L 58.078805 26.388256 
L 60.536704 25.578623 
L 61.84397 26.708431 
L 61.089567 25.485826 
L 62.526284 25.383881 
L 61.463671 24.817855 
L 61.214832 23.07149 
L 63.856658 24.589436 
L 62.425705 21.863593 
L 63.803214 24.275446 
L 63.44629 21.898216 
L 64.586868 23.258269 
L 65.298918 22.306333 
L 64.83092 24.809492 
z
" clip-path="url(#pe0bc5404e0)" style="fill: #d3d3d3"/>
   </g>
   <g id="patch_16">
    <path d="M 57.538606 225.425653 
L 57.550078 225.414373 
L 58.726104 221.616488 
L 59.884078 220.653941 
L 54.729331 235.839998 
L 54.723784 230.577339 
z
" clip-path="url(#pe0bc5404e0)" style="fill: #d3d3d3"/>
   </g>
   <g id="patch_17">
    <path d="M 16.260348 253.114223 
L 16.272797 253.124509 
L 17.18079 252.995305 
L 16.385827 252.24244 
L 17.51988 251.400191 
L 20.678469 253.248209 
L 20.952046 252.12369 
L 22.407139 254.817128 
L 20.274899 255.140643 
L 19.882746 255.940773 
L 16.320315 253.866058 
z
" clip-path="url(#pe0bc5404e0)" style="fill: #d3d3d3"/>
   </g>
   <g id="patch_18">
    <path d="M 98.145481 198.523054 
L 98.145049 198.511126 
L 99.374519 197.316591 
L 99.70703 198.390451 
L 101.387418 198.730533 
L 102.289488 200.754167 
L 100.157948 200.966877 
L 100.995323 201.569087 
L 99.908565 201.184738 
L 99.409966 202.684396 
L 98.115801 202.627255 
L 97.539562 200.111054 
L 94.926278 199.490139 
L 97.425929 199.415758 
z
" clip-path="url(#pe0bc5404e0)" style="fill: #d3d3d3"/>
   </g>
   <g id="patch_19">
    <path d="M 38.167627 194.179226 
L 37.110559 197.256478 
L 37.920201 197.66864 
L 38.1399 196.905806 
L 38.476381 197.68789 
L 36.403891 202.400101 
L 33.114059 203.701989 
L 32.326219 205.277156 
L 31.393925 205.117997 
L 31.827396 203.884474 
L 30.419985 203.880613 
L 27.486422 207.38689 
L 27.878358 205.720304 
L 25.661359 207.100096 
L 27.910054 203.504283 
L 26.322523 201.243617 
L 27.039087 201.235855 
L 26.488778 199.075749 
L 27.5795 201.086895 
L 28.361359 197.626343 
L 29.64601 197.302828 
L 32.338071 199.816065 
L 31.03363 194.675486 
L 31.732362 193.406819 
L 32.427179 194.346018 
L 32.516233 193.492278 
L 35.273644 192.847058 
L 35.827922 194.070664 
L 38.167627 194.12106 
z
" clip-path="url(#pe0bc5404e0)" style="fill: #add8e6"/>
   </g>
   <g id="patch_20">
    <path d="M 118.935401 166.480628 
L 118.884076 166.496826 
L 118.917737 165.153851 
L 118.248629 165.463091 
L 117.112461 163.243778 
L 117.130293 161.920462 
L 118.753436 161.883035 
L 118.935401 161.467284 
z
" clip-path="url(#pe0bc5404e0)" style="fill: #add8e6"/>
   </g>
   <g id="patch_21">
    <path d="M 118.935401 160.079449 
L 117.239135 158.099393 
L 118.519818 158.706338 
L 118.935401 157.818552 
z
" clip-path="url(#pe0bc5404e0)" style="fill: #add8e6"/>
   </g>
   <g id="patch_22">
    <path d="M 118.935401 157.022184 
L 117.561753 157.143283 
L 118.791007 156.471251 
L 118.147725 156.105471 
L 118.935401 156.352499 
z
" clip-path="url(#pe0bc5404e0)" style="fill: #add8e6"/>
   </g>
   <g id="patch_23">
    <path d="M 44.31382 200.976009 
L 43.67446 204.287104 
L 44.654322 205.159637 
L 42.411557 206.937705 
L 38.856464 215.051717 
L 38.262607 213.005332 
L 39.596786 208.257633 
L 41.380257 203.827485 
L 44.147564 200.214561 
L 44.353401 200.914783 
z
" clip-path="url(#pe0bc5404e0)" style="fill: #add8e6"/>
   </g>
   <g id="patch_24">
    <path d="M 7.2 224.332069 
L 7.604768 224.180694 
L 8.643949 224.861638 
L 7.2 225.014227 
z
" clip-path="url(#pe0bc5404e0)" style="fill: #add8e6"/>
   </g>
   <g id="patch_25">
    <path d="M 52.013402 191.501504 
L 54.174565 192.184599 
L 55.813746 191.415893 
L 55.811571 190.092905 
L 57.279494 191.304879 
L 57.679965 190.34341 
L 59.684005 191.052956 
L 59.453158 190.139431 
L 61.792048 192.389202 
L 61.918511 189.437447 
L 62.893915 191.90467 
L 64.191669 192.497932 
L 64.831141 191.175609 
L 63.065502 189.33974 
L 62.592722 189.718193 
L 62.801871 188.340628 
L 61.8182 188.242039 
L 63.375559 187.393746 
L 63.184349 189.347702 
L 64.153393 189.938585 
L 64.228694 189.243843 
L 65.091127 190.540867 
L 64.468833 192.900474 
L 66.238606 193.769242 
L 65.31985 195.289311 
L 63.386706 194.563952 
L 63.351907 195.304828 
L 61.755459 194.052552 
L 61.788299 195.048107 
L 60.473531 195.049068 
L 61.20586 193.775002 
L 59.395096 193.535905 
L 57.8995 191.707357 
L 52.595893 192.504669 
L 52.030797 191.51682 
z
" clip-path="url(#pe0bc5404e0)" style="fill: #add8e6"/>
   </g>
   <g id="patch_26">
    <path d="M 106.7262 151.773107 
L 106.66487 152.752953 
L 108.153456 153.074994 
L 108.725514 151.382229 
L 108.624498 152.956347 
L 110.356532 152.469115 
L 109.665739 154.263265 
L 110.443633 154.605349 
L 110.944467 153.185006 
L 110.92859 154.487102 
L 112.213294 154.896453 
L 113.111991 154.799362 
L 112.747725 153.840808 
L 110.938483 152.358703 
L 113.181252 154.094325 
L 113.143634 151.208027 
L 113.899779 150.867737 
L 113.771142 152.320611 
L 114.471828 151.819882 
L 113.058495 155.014595 
L 114.159112 156.794758 
L 112.757626 154.984948 
L 109.422283 154.525129 
L 110.285316 155.844496 
L 107.019187 158.509705 
L 106.965747 160.334905 
L 108.45628 160.347498 
L 107.17756 160.743238 
L 107.545735 162.206999 
L 105.299057 164.141994 
L 106.936059 165.248683 
L 106.807374 166.505077 
L 104.091552 164.497304 
L 106.852875 162.655162 
L 105.617757 159.600637 
L 106.690593 159.52552 
L 107.219095 157.588073 
L 106.330292 156.601586 
L 107.719929 157.340613 
L 107.682311 156.336734 
L 109.41239 155.558159 
L 108.721485 153.455851 
L 106.419404 153.455851 
z
" clip-path="url(#pe0bc5404e0)" style="fill: #add8e6"/>
   </g>
   <g id="matplotlib.axis_1"/>
   <g id="matplotlib.axis_2"/>
   <g id="LineCollection_1">
    <path d="M 7.2 268.483289 
L 7.90542 268.827067 
L 7.2 268.431463 
" clip-path="url(#pe0bc5404e0)" style="fill: none; stroke: #000000; stroke-width: 0.6"/>
    <path d="M 7.2 219.897507 
L 8.706689 217.68297 
L 13.831914 215.667694 
L 12.157503 217.655381 
L 13.036191 222.406608 
L 11.575119 225.502009 
L 10.790867 225.587335 
L 11.539508 229.226836 
L 10.030973 229.17315 
L 11.622636 229.399541 
L 10.949457 230.980557 
L 15.108681 231.509649 
L 15.993294 232.665466 
L 14.229612 236.512618 
L 13.600145 235.40291 
L 13.042117 237.013359 
L 12.851668 236.107087 
L 11.848913 236.176424 
L 12.388674 234.557836 
L 10.886717 235.942104 
L 10.553934 240.373086 
L 8.142735 240.202359 
L 9.520462 240.563401 
L 9.366438 242.189029 
L 7.2 242.093021 
" clip-path="url(#pe0bc5404e0)" style="fill: none; stroke: #000000; stroke-width: 0.6"/>
    <path d="M 7.2 242.631732 
L 8.154424 243.103845 
L 7.281716 244.421242 
L 7.2 244.436881 
" clip-path="url(#pe0bc5404e0)" style="fill: none; stroke: #000000; stroke-width: 0.6"/>
    <path d="M 7.2 251.476283 
L 7.619773 251.97427 
L 7.340868 252.908646 
L 7.2 252.719341 
" clip-path="url(#pe0bc5404e0)" style="fill: none; stroke: #000000; stroke-width: 0.6"/>
    <path d="M 7.2 253.130933 
L 8.017472 253.887637 
L 8.854786 253.604511 
L 9.354369 256.437206 
L 8.03525 257.491093 
L 10.310476 257.363479 
L 10.167761 259.281199 
L 11.462306 257.832986 
L 14.170624 259.443739 
L 17.2164 258.420093 
L 16.943856 260.770609 
L 14.532657 262.503165 
L 15.476259 263.67086 
L 17.55549 262.963646 
L 19.56225 264.386682 
L 20.637095 261.916355 
L 19.924718 262.402292 
L 21.094543 261.292747 
L 24.003966 260.948184 
L 24.473104 262.037629 
L 24.05779 260.973175 
L 27.092748 257.281691 
L 30.26917 257.85916 
L 26.49813 258.56835 
L 26.391407 260.166144 
L 27.422269 258.614367 
L 28.468953 258.423174 
L 29.147024 258.975643 
L 30.679101 257.823076 
L 31.302859 259.774807 
L 33.802297 262.09399 
L 35.673083 261.176495 
L 35.851843 262.847316 
L 37.050973 264.099441 
L 36.361756 265.086748 
L 39.491259 266.126665 
L 39.301462 266.839664 
L 40.00215 266.367997 
L 41.863694 267.986499 
L 41.504216 266.744337 
L 43.083592 264.069157 
L 42.864654 262.862495 
L 52.924329 260.125572 
L 55.679294 256.565244 
L 65.787029 252.990113 
L 68.494912 252.938855 
L 71.779036 255.197125 
L 71.939366 255.950625 
L 69.16597 253.551714 
L 70.199062 257.68526 
L 71.831718 258.996069 
L 76.855602 258.262359 
L 79.540107 255.356484 
L 77.520462 258.007209 
L 74.902449 259.08336 
L 75.109644 259.861869 
L 76.148933 259.785609 
L 75.941684 260.501851 
L 80.312288 256.146046 
L 83.346811 254.899319 
L 80.988892 255.222122 
L 80.395036 254.277944 
L 79.622691 255.387673 
L 79.949277 251.943623 
L 83.305057 251.596356 
L 85.05444 249.881269 
L 88.261145 244.483275 
L 87.993874 246.602519 
L 84.072128 251.46666 
L 87.475208 252.278928 
L 89.296846 251.519868 
L 88.797861 248.490875 
L 89.652953 247.167832 
L 88.893221 246.656058 
L 89.308915 244.888124 
L 88.127509 242.354828 
L 87.396158 231.622614 
L 87.930862 227.557642 
L 90.36582 224.98974 
L 90.496628 221.594555 
L 92.503768 217.943666 
L 99.005904 215.361639 
L 99.012102 217.411477 
L 102.69387 220.604443 
L 103.628176 224.236434 
L 106.321597 225.912434 
L 108.625909 225.476159 
L 111.718225 222.262553 
L 111.283176 214.298517 
L 113.08622 207.795283 
L 111.156064 207.008018 
L 109.777957 209.030872 
L 108.969512 207.78845 
L 107.029081 207.421187 
L 105.30699 202.803982 
L 107.31413 201.946524 
L 104.950883 201.751551 
L 105.568226 201.109781 
L 104.831492 199.42145 
L 106.589248 198.94942 
L 104.641423 198.165501 
L 105.568226 197.530518 
L 105.371688 195.312377 
L 109.564945 194.697194 
L 109.143379 193.072516 
L 110.633266 193.731499 
L 110.176036 192.967651 
L 111.476343 191.899747 
L 114.576542 192.320117 
L 114.612588 190.506082 
L 115.716955 191.735306 
L 117.141927 191.957544 
L 117.047328 190.939703 
L 118.935398 191.612806 
" clip-path="url(#pe0bc5404e0)" style="fill: none; stroke: #000000; stroke-width: 0.6"/>
    <path d="M 118.935398 180.611884 
L 118.341492 180.360131 
L 116.631634 182.24966 
L 115.966556 181.174409 
L 115.751968 182.273585 
L 114.944556 181.484845 
L 113.983121 182.941241 
L 112.925727 181.97471 
L 113.525672 182.899568 
L 111.713658 184.950285 
L 112.361718 183.411286 
L 111.203364 184.416421 
L 111.310468 183.119894 
L 107.473644 184.950719 
L 104.813659 184.985912 
L 105.668969 183.072674 
L 103.340952 186.738431 
L 101.025549 187.188168 
L 103.263968 185.726743 
L 103.163171 184.807857 
L 102.468028 185.122314 
L 103.430224 183.970781 
L 102.052714 184.635713 
L 101.999053 185.745287 
L 100.959438 185.644209 
L 100.413316 184.220417 
L 101.654255 184.879891 
L 101.714059 183.893056 
L 102.165146 183.821415 
L 102.219024 182.612662 
L 100.840917 182.124335 
L 102.444051 179.166524 
L 98.364803 181.425532 
L 99.189993 180.390404 
L 97.883977 180.641945 
L 99.291008 178.668548 
L 96.761614 178.967881 
L 93.982673 176.498739 
L 92.949364 177.656998 
L 93.590139 175.2529 
L 91.71359 177.415884 
L 90.567686 175.790733 
L 89.962195 174.155481 
L 90.841209 173.693987 
L 89.71254 171.843106 
L 90.697896 171.67184 
L 89.023486 171.30597 
L 89.807357 171.367359 
L 89.647244 169.892675 
L 90.721709 171.256651 
L 89.66524 168.697015 
L 91.084341 168.87511 
L 90.673975 167.146387 
L 91.909748 166.604604 
L 90.733344 163.633083 
L 91.80346 163.397583 
L 90.745849 162.439572 
L 92.052517 162.390103 
L 90.887965 161.255212 
L 93.2162 162.713719 
L 89.545903 155.1744 
L 90.674736 151.73532 
L 90.252735 150.695331 
L 89.807574 151.301556 
L 90.151829 149.397959 
L 89.683073 148.673815 
L 89.077147 149.877904 
L 89.284396 148.217531 
L 88.335084 147.588402 
L 89.201866 145.836689 
L 88.097716 145.643599 
L 88.417995 142.755544 
L 89.326748 141.317324 
L 90.437259 141.532635 
L 90.905798 138.664595 
L 92.45625 138.749312 
L 91.173177 136.871793 
L 91.701956 135.071939 
L 92.355725 136.311713 
L 94.599635 135.520452 
L 94.706304 137.193596 
L 94.849454 135.877256 
L 97.301429 135.117898 
L 96.126384 132.428266 
L 97.58626 132.707743 
L 96.969298 130.511347 
L 97.830533 132.129628 
L 97.693147 130.09738 
L 99.064948 128.122599 
L 100.443055 129.38186 
L 101.351428 128.33059 
L 100.953892 126.832629 
L 99.439431 126.69233 
L 101.114059 126.301879 
L 100.609094 125.202059 
L 101.891949 127.222994 
L 102.35478 125.013901 
L 104.867701 124.601832 
L 104.617719 122.324584 
L 106.221234 122.948694 
L 106.696515 120.090983 
L 108.525166 119.435514 
L 109.504814 116.396866 
L 111.067391 116.307381 
L 110.674695 114.928464 
L 113.002711 111.560177 
L 112.800192 110.110452 
L 116.714599 108.440239 
L 118.852003 109.852118 
L 117.468567 106.986995 
L 118.935398 107.834477 
" clip-path="url(#pe0bc5404e0)" style="fill: none; stroke: #000000; stroke-width: 0.6"/>
    <path d="M 118.935398 106.084346 
L 117.658201 104.944906 
L 118.935398 103.829361 
" clip-path="url(#pe0bc5404e0)" style="fill: none; stroke: #000000; stroke-width: 0.6"/>
    <path d="M 118.935398 103.782506 
L 117.776559 101.700012 
L 118.935398 101.749622 
" clip-path="url(#pe0bc5404e0)" style="fill: none; stroke: #000000; stroke-width: 0.6"/>
    <path d="M 118.935398 101.471123 
L 117.883826 100.830753 
L 118.632467 99.261573 
L 116.405574 96.097691 
L 113.59635 96.177838 
L 113.127974 92.644357 
L 111.963694 93.918469 
L 110.181799 92.904011 
L 110.097855 94.16441 
L 110.028374 92.338955 
L 107.616576 94.236299 
L 106.999016 92.845453 
L 105.85882 93.700493 
L 105.158132 92.628282 
L 104.599669 94.294147 
L 104.386494 92.976501 
L 103.934972 93.642569 
L 102.213044 91.974406 
L 103.453602 93.881375 
L 102.462482 95.203497 
L 99.219678 91.538179 
L 99.444976 94.264628 
L 96.838217 92.576995 
L 97.289957 95.62891 
L 96.678105 94.885957 
L 96.315854 95.903194 
L 97.485517 97.993394 
L 94.86136 97.003392 
L 95.983723 97.757689 
L 93.465855 98.187904 
L 94.914586 99.132874 
L 94.10065 100.353183 
L 91.416852 99.797054 
L 92.402427 101.379872 
L 90.72209 100.531924 
L 92.58695 101.827067 
L 92.854003 103.86298 
L 89.955997 100.867277 
L 89.190177 101.443058 
L 90.852518 102.254312 
L 91.767251 104.733514 
L 88.691355 110.195039 
L 87.541101 109.71989 
L 89.70047 111.213193 
L 89.564334 112.720376 
L 88.263591 112.366399 
L 90.989741 114.216723 
L 91.506124 115.204635 
L 90.48396 115.273114 
L 91.945196 116.390439 
L 87.360764 120.991208 
L 85.211073 126.960818 
L 84.27954 127.948668 
L 83.969754 126.309031 
L 83.25792 128.966988 
L 82.663466 127.156787 
L 82.669446 129.174471 
L 82.46198 127.69367 
L 82.123488 129.228012 
L 80.560965 128.953503 
L 78.019882 132.820555 
L 76.511347 130.545064 
L 76.957324 133.185546 
L 75.667889 131.756725 
L 73.506346 136.693693 
L 72.37822 134.979038 
L 71.285542 135.125276 
L 72.49125 136.384564 
L 71.427659 136.825287 
L 71.036158 135.666155 
L 71.350892 137.069093 
L 69.854208 137.16157 
L 69.533712 139.247455 
L 68.767456 138.598587 
L 69.26655 139.318643 
L 67.6097 139.417616 
L 70.162853 140.214374 
L 69.129761 139.966972 
L 69.818815 140.763493 
L 68.648935 142.189634 
L 67.621172 141.389504 
L 68.168109 142.30061 
L 67.022042 143.241991 
L 66.487392 141.851778 
L 65.543354 142.313587 
L 64.914105 139.483507 
L 63.904554 139.548429 
L 66.101763 144.828985 
L 65.079925 144.725961 
L 65.115808 147.549443 
L 63.761405 147.833028 
L 64.314105 149.147711 
L 62.330452 146.835823 
L 61.362166 147.845497 
L 61.754482 150.420755 
L 63.773909 151.54422 
L 62.621264 151.595211 
L 61.35064 156.147526 
L 62.503286 160.780759 
L 59.87179 159.185556 
L 60.852036 160.243297 
L 59.72353 160.755365 
L 60.768473 161.030508 
L 59.307618 161.442916 
L 60.614504 161.792075 
L 59.343718 161.867284 
L 60.626139 163.695605 
L 59.640402 163.881758 
L 60.887864 165.467623 
L 59.997107 165.343499 
L 60.982899 165.850885 
L 59.628495 165.343499 
L 60.567368 166.319856 
L 60.020866 169.971859 
L 60.803921 169.91107 
L 60.032555 170.792285 
L 61.422514 171.696198 
L 60.769126 172.781223 
L 61.58839 173.596737 
L 60.28134 174.641172 
L 63.422912 175.167286 
L 64.266588 177.294894 
L 66.08393 175.773454 
L 67.788297 179.634641 
L 69.385669 179.593003 
L 69.237028 180.449847 
L 70.507869 180.845361 
L 69.730087 181.25784 
L 68.369595 179.935006 
L 70.341396 183.578322 
L 70.394621 182.40433 
L 71.642084 183.762287 
L 72.128999 182.893567 
L 72.597974 185.442747 
L 73.904969 186.212113 
L 73.649006 187.105024 
L 72.378818 185.40086 
L 72.871116 186.67339 
L 71.256292 188.03057 
L 73.928564 188.043088 
L 68.061005 192.045512 
L 68.51829 193.20746 
L 66.75439 192.617864 
L 66.760317 194.08036 
L 68.673074 193.451842 
L 69.456728 194.103693 
L 69.564049 192.623422 
L 70.780576 193.597557 
L 69.890635 193.492595 
L 70.911657 194.132246 
L 70.151109 194.539468 
L 69.231483 194.24367 
L 70.57909 195.062678 
L 69.705731 195.545163 
L 68.334582 193.887895 
L 68.774198 194.841995 
L 67.977877 194.772313 
L 69.533549 196.211546 
L 66.101545 198.291932 
L 65.608269 201.218325 
L 64.248972 199.501727 
L 64.616932 197.171796 
L 63.969306 197.790025 
L 63.684638 195.951175 
L 63.524471 200.122623 
L 62.776265 199.950584 
L 63.126229 200.840625 
L 62.265156 200.053604 
L 62.639912 201.51706 
L 60.157056 202.421777 
L 59.622787 201.676686 
L 59.272007 202.689625 
L 60.245675 202.793311 
L 58.696582 202.924274 
L 59.343501 203.341086 
L 58.565556 203.871219 
L 53.238627 203.443482 
L 57.413508 203.951795 
L 58.666299 205.686201 
L 57.164125 206.452694 
L 54.865901 205.686617 
L 57.526321 207.195263 
L 56.39825 207.364198 
L 56.985582 208.229291 
L 57.77614 207.998055 
L 56.885219 208.57423 
L 57.811587 210.42178 
L 56.849337 210.151833 
L 57.716716 211.376863 
L 56.528677 212.005349 
L 57.187829 212.850867 
L 57.704646 212.195787 
L 57.573838 213.95214 
L 56.156586 213.105585 
L 55.258109 213.594875 
L 57.027717 215.756295 
L 54.830127 213.728446 
L 57.063327 215.934671 
L 57.188427 216.540575 
L 56.101131 216.245857 
L 56.659703 218.076141 
L 55.905354 217.261867 
L 55.566698 217.97651 
L 56.683516 218.220028 
L 57.098992 219.568256 
L 55.163074 221.912783 
L 56.065684 224.781582 
L 55.115122 224.82526 
L 55.721102 225.381629 
L 55.299863 225.910639 
L 55.079729 225.228666 
L 54.711932 228.208576 
L 55.341019 228.403965 
L 54.474401 228.501085 
L 54.605046 229.87555 
L 53.654702 230.221133 
L 50.822318 237.385902 
L 50.685746 236.155526 
L 48.969527 236.416781 
L 49.004757 235.616176 
L 47.271141 236.800407 
L 46.985711 236.032759 
L 42.555683 236.192829 
L 43.037053 238.199195 
L 41.510903 237.545533 
L 39.25987 240.117797 
L 39.141132 242.124778 
L 40.24626 243.996596 
L 39.052241 246.138589 
L 36.89048 245.500815 
L 33.137219 246.713798 
L 29.188778 246.185576 
L 30.341043 245.422041 
L 29.794704 243.839135 
L 31.017593 242.461184 
L 26.575713 234.435159 
L 29.057753 235.579122 
L 27.811106 232.923572 
L 29.693744 232.72526 
L 30.102696 230.836447 
L 29.444306 229.815802 
L 28.594759 230.091927 
L 27.7519 227.752994 
L 25.910581 226.318129 
L 24.913154 222.461547 
L 24.069697 222.340915 
L 24.176203 219.700287 
L 23.434467 220.939843 
L 22.751393 220.262656 
L 23.166489 218.894611 
L 22.217124 216.712767 
L 23.095812 216.06841 
L 21.278632 216.102195 
L 22.359023 214.832615 
L 21.076765 214.185946 
L 22.762267 207.534006 
L 21.271945 207.539289 
L 19.757864 209.317963 
L 21.295268 208.015026 
L 22.299056 209.036862 
L 21.265584 211.141483 
L 21.501811 211.94654 
L 20.322579 213.119408 
L 19.757864 211.758571 
L 21.301249 210.770294 
L 19.430463 211.337812 
L 19.16341 209.37503 
L 21.301629 206.242413 
L 20.713319 206.713005 
L 20.375642 205.675282 
L 19.383109 208.534331 
L 19.519897 206.832318 
L 18.819752 207.409894 
L 19.573721 205.930403 
L 17.774211 207.409894 
L 18.8552 205.515737 
L 17.893167 205.186598 
L 18.54661 204.264367 
L 16.943856 198.740874 
L 18.154675 197.172219 
L 17.578651 195.766049 
L 16.818756 196.808142 
L 15.678778 195.417575 
L 14.995651 196.130394 
L 14.817488 194.040403 
L 14.009478 194.260712 
L 13.332711 192.640949 
L 14.057593 191.191153 
L 13.309333 187.865859 
L 13.849529 186.301263 
L 14.389725 187.771928 
L 14.515042 185.768601 
L 12.525463 186.815256 
L 13.487115 190.663974 
L 12.447663 191.314952 
L 12.210729 189.95471 
L 11.842552 191.115035 
L 10.815441 190.58262 
L 12.703842 192.477406 
L 12.157123 197.63364 
L 11.996576 194.626958 
L 11.338022 197.74985 
L 10.785322 196.738429 
L 10.67289 198.142366 
L 9.288475 197.83654 
L 8.861908 199.024293 
L 7.822673 198.880337 
L 7.709643 197.258803 
L 7.2 197.532835 
L 7.2 197.532835 
" clip-path="url(#pe0bc5404e0)" style="fill: none; stroke: #000000; stroke-width: 0.6"/>
    <path d="M 7.2 198.48439 
L 7.371368 198.69603 
L 7.2 198.75303 
" clip-path="url(#pe0bc5404e0)" style="fill: none; stroke: #000000; stroke-width: 0.6"/>
    <path d="M 7.2 129.364046 
L 7.234199 129.342178 
L 8.997501 132.627493 
L 7.911346 134.688722 
L 10.998714 134.503108 
L 9.556072 133.609462 
L 10.488421 132.488603 
L 15.993892 132.547958 
L 14.520587 131.630732 
L 15.618974 129.890317 
L 13.629612 130.937999 
L 15.92838 128.484251 
L 19.781188 127.18903 
L 18.354802 125.832105 
L 16.775588 125.927382 
L 19.782384 123.518604 
L 17.953189 123.138578 
L 19.016345 121.81519 
L 13.356851 126.799991 
L 16.609115 125.603705 
L 15.91631 127.827885 
L 12.150979 130.598444 
L 8.677222 131.697266 
L 9.176424 130.151302 
L 8.089128 130.317794 
L 7.821694 128.759778 
L 9.966058 127.169709 
L 7.2 128.568825 
" clip-path="url(#pe0bc5404e0)" style="fill: none; stroke: #000000; stroke-width: 0.6"/>
    <path d="M 7.2 127.978297 
L 7.762706 127.485511 
L 7.2 127.450867 
" clip-path="url(#pe0bc5404e0)" style="fill: none; stroke: #000000; stroke-width: 0.6"/>
    <path d="M 7.2 126.018547 
L 10.934561 125.155707 
L 10.572147 124.270026 
L 8.772202 125.168315 
L 10.387841 123.884306 
L 8.737189 124.54725 
L 9.223343 122.203168 
L 10.946087 121.971566 
L 9.971766 121.60432 
L 10.619664 120.275194 
L 11.824937 120.705313 
L 11.112125 119.790886 
L 12.715314 118.805295 
L 12.282005 117.826099 
L 13.998224 117.751094 
L 12.839816 116.438578 
L 15.132439 117.565351 
L 13.784397 116.196698 
L 16.171837 115.425324 
L 15.951703 113.662623 
L 17.412993 116.396866 
L 18.689705 116.486333 
L 17.82847 118.552385 
L 19.146175 116.299944 
L 22.403169 116.305112 
L 19.408063 116.190268 
L 19.990013 114.424097 
L 21.931477 113.933106 
L 19.930263 114.313079 
L 19.022489 112.338171 
L 22.437258 110.494036 
L 20.726965 110.159264 
L 21.931858 109.804167 
L 24.610273 107.780873 
L 17.875552 111.677987 
L 19.425461 110.250486 
L 17.615077 110.745112 
L 18.13706 109.642632 
L 21.420803 108.614385 
L 18.327074 109.139751 
L 19.490811 108.089433 
L 20.136425 108.665924 
L 19.621836 108.018828 
L 23.954709 105.555124 
L 24.848022 103.481227 
L 25.838761 105.537568 
L 26.605778 105.798257 
L 30.245792 101.771094 
L 26.937964 104.824419 
L 25.899327 104.379808 
L 27.0268 103.799356 
L 25.79244 103.219061 
L 26.664549 102.728957 
L 25.186134 103.176628 
L 26.747895 100.838319 
L 23.712992 103.473705 
L 25.910961 99.175821 
L 24.663553 99.646535 
L 25.488743 97.075353 
L 27.057083 100.432052 
L 26.723756 99.311708 
L 28.351247 100.752346 
L 27.739612 99.718466 
L 28.927271 99.275973 
L 27.715854 99.247304 
L 27.436731 97.103503 
L 27.104437 98.410005 
L 27.246554 97.160982 
L 26.260979 97.964774 
L 25.898131 96.421488 
L 27.032944 94.481933 
L 29.021707 96.306466 
L 27.228123 94.272438 
L 28.534574 93.765566 
L 28.167757 91.25441 
L 29.597731 90.373313 
L 31.956085 92.910783 
L 31.457045 90.919518 
L 29.77013 90.409364 
L 30.85748 88.545559 
L 28.220439 88.662594 
L 34.132199 85.879397 
L 34.372775 87.989597 
L 36.391821 87.461973 
L 34.78276 85.939415 
L 36.213278 85.622645 
L 36.129987 86.519889 
L 38.868316 84.213617 
L 30.649633 86.777875 
L 31.735951 85.076405 
L 34.509564 84.477811 
L 30.524914 84.102181 
L 31.706266 81.676192 
L 30.339847 80.514744 
L 31.403385 80.149282 
L 32.352968 82.025573 
L 33.237962 81.631666 
L 32.377107 80.522662 
L 35.25168 80.730793 
L 33.868027 79.887429 
L 35.70853 79.170646 
L 31.96163 80.060193 
L 33.451952 78.885883 
L 32.151808 77.814646 
L 34.508966 78.406759 
L 31.955487 77.116934 
L 35.536729 77.484895 
L 36.920382 76.936555 
L 34.610307 77.289677 
L 33.897549 76.703509 
L 35.898925 76.42529 
L 34.064402 75.574127 
L 37.58546 75.717389 
L 35.32214 75.107032 
L 34.010524 72.920133 
L 36.130748 72.791663 
L 37.353854 70.951496 
L 37.709363 72.700113 
L 38.018388 70.540523 
L 38.659925 72.639394 
L 39.32522 70.616188 
L 40.673806 70.532844 
L 39.366974 70.364016 
L 40.050102 68.875151 
L 43.43399 67.602817 
L 44.841946 67.656642 
L 44.598488 69.837986 
L 45.465487 67.695004 
L 47.57935 68.537706 
L 47.288756 67.948138 
L 48.429332 67.56501 
L 45.061482 67.064773 
L 45.98785 66.002939 
L 42.840732 67.633595 
L 42.864491 66.310466 
L 39.865416 67.195899 
L 42.293795 63.9032 
L 43.814998 64.954104 
L 45.174729 63.694676 
L 42.324295 63.306852 
L 44.278209 61.41891 
L 44.823733 61.388267 
L 44.302185 63.003903 
L 46.504722 62.67076 
L 45.798814 64.05751 
L 47.983736 62.926358 
L 48.993068 65.617558 
L 49.735402 64.018265 
L 48.898469 64.475109 
L 48.607277 62.98118 
L 51.100842 61.349354 
L 48.518005 62.631959 
L 46.31487 61.78504 
L 46.46275 60.639339 
L 48.00097 61.146466 
L 45.910648 60.397556 
L 46.949883 58.357635 
L 50.851404 58.913831 
L 47.424783 55.731996 
L 45.952239 58.7656 
L 43.113711 59.875122 
L 43.221577 58.389494 
L 45.732703 57.925877 
L 43.518478 57.761074 
L 43.399358 56.315158 
L 45.567045 55.944315 
L 43.707513 55.731563 
L 46.403761 55.242884 
L 46.094573 56.220565 
L 49.943032 54.009318 
L 50.940893 55.163963 
L 51.463256 52.852074 
L 48.482775 51.549115 
L 47.674982 53.534684 
L 46.754486 52.225307 
L 49.26583 49.794595 
L 49.426758 51.811822 
L 50.501441 51.549115 
L 51.926033 48.305056 
L 53.346112 55.31341 
L 55.584314 56.882286 
L 53.583046 55.266153 
L 53.274836 52.955819 
L 55.168185 55.023431 
L 54.177065 52.877068 
L 55.620087 54.058449 
L 54.47402 52.590133 
L 55.163292 51.095311 
L 54.289932 51.565584 
L 54.90771 49.474159 
L 56.279239 49.9134 
L 55.322588 48.753826 
L 53.316645 49.394196 
L 54.521701 48.649673 
L 53.120269 47.23779 
L 57.787231 50.441342 
L 53.933607 46.198467 
L 57.366807 45.295667 
L 57.828822 47.004146 
L 60.417368 45.893852 
L 61.403486 49.714544 
L 61.201782 45.329076 
L 65.477787 45.458257 
L 62.437012 44.488177 
L 63.007055 42.867983 
L 59.502798 44.779263 
L 59.051873 43.322936 
L 55.560936 44.86007 
L 55.151222 43.65427 
L 56.409939 43.070259 
L 56.321048 40.962375 
L 58.838916 39.591558 
L 60.073113 40.979843 
L 60.928422 39.166448 
L 63.950712 40.466403 
L 60.86291 38.666787 
L 62.424725 37.541779 
L 64.781665 38.928464 
L 62.454627 37.303361 
L 64.063471 35.927521 
L 65.174416 36.645084 
L 64.134583 35.317385 
L 62.317621 36.09302 
L 62.453975 34.135198 
L 63.600912 31.801598 
L 67.668906 31.508467 
L 65.922839 29.320559 
L 67.211458 24.61362 
L 68.774415 24.775094 
L 69.7651 28.809362 
L 70.12224 26.843694 
L 71.120047 28.89271 
L 70.976734 27.499644 
L 73.281264 28.20488 
L 69.344296 25.130219 
L 69.326898 23.716058 
L 72.057941 22.646035 
L 73.186828 26.152161 
L 75.686103 27.474392 
L 75.097792 29.446732 
L 77.199422 29.680432 
L 75.893515 26.422516 
L 74.100963 26.47314 
L 73.026281 24.757586 
L 73.851743 22.952491 
L 75.032659 23.538499 
L 74.56374 22.459473 
L 73.019974 23.104938 
L 72.848173 21.376674 
L 74.717763 18.476556 
L 78.412253 17.4974 
L 78.073326 24.251249 
L 76.766494 26.009274 
L 77.88902 25.646205 
L 78.518487 21.709614 
L 81.422799 22.195688 
L 78.75031 20.216345 
L 82.461001 14.058764 
L 82.906815 21.497673 
L 79.765351 28.541097 
L 82.324212 26.026114 
L 83.280537 22.101385 
L 86.243566 23.946172 
L 83.83215 21.480657 
L 83.690685 18.504064 
L 87.925099 14.423529 
L 86.433744 16.644707 
L 87.663646 18.271056 
L 87.776078 16.231401 
L 88.909858 16.153022 
L 88.518738 17.703896 
L 89.842804 15.573913 
L 89.208227 13.36442 
L 90.578777 13.278205 
L 95.50268 19.077091 
L 93.667559 14.935081 
L 94.563426 13.765523 
L 94.943292 14.978343 
L 95.237638 12.972816 
L 93.046355 12.834294 
L 95.148747 10.987095 
L 92.627943 12.460701 
L 88.842986 9.394682 
L 90.507719 7.874854 
L 91.025352 9.526122 
L 91.472305 7.2 
L 91.472305 7.2 
" clip-path="url(#pe0bc5404e0)" style="fill: none; stroke: #000000; stroke-width: 0.6"/>
    <path d="M 91.731738 7.2 
L 93.554692 10.68073 
L 94.195156 7.2 
" clip-path="url(#pe0bc5404e0)" style="fill: none; stroke: #000000; stroke-width: 0.6"/>
    <path d="M 94.511819 7.2 
L 95.229102 8.736079 
L 96.788362 7.759831 
L 96.191733 10.907925 
L 98.569279 11.248014 
L 96.805543 10.374149 
L 97.188997 8.17387 
L 101.455704 9.429672 
L 100.592077 11.310183 
L 101.677796 10.698334 
L 102.799778 14.120056 
L 101.903258 15.219298 
L 105.121869 14.00731 
L 102.703004 11.824774 
L 104.501699 11.056497 
L 103.040681 9.096507 
L 105.357008 8.587997 
L 103.522105 8.393532 
L 106.015834 7.461174 
L 105.60987 7.2 
" clip-path="url(#pe0bc5404e0)" style="fill: none; stroke: #000000; stroke-width: 0.6"/>
    <path d="M 116.990265 7.2 
L 115.404994 11.789338 
L 116.144718 12.495604 
L 116.661101 10.226625 
L 117.124095 12.251699 
L 118.935398 9.119742 
" clip-path="url(#pe0bc5404e0)" style="fill: none; stroke: #000000; stroke-width: 0.6"/>
    <path d="M 22.82816 250.924223 
L 22.620911 251.88119 
L 24.59206 252.974727 
L 23.238146 254.642169 
L 23.196935 256.381331 
L 21.302825 251.777495 
L 22.59737 250.929342 
L 20.648784 249.893331 
L 22.139705 250.375502 
L 21.373286 249.47781 
L 22.050868 249.062321 
L 21.403568 248.318445 
L 18.11901 248.396189 
L 16.91988 246.572114 
L 17.810855 245.934993 
L 16.825063 244.457637 
L 17.312196 243.4392 
L 15.768213 242.535224 
L 17.003008 242.450578 
L 15.316691 241.555416 
L 18.161199 241.739676 
L 18.796809 240.319056 
L 19.865294 240.192189 
L 19.984087 239.196262 
L 18.244544 238.172256 
L 20.821021 239.096287 
L 21.830897 238.59737 
L 21.065076 239.440097 
L 21.492024 240.678175 
L 20.649382 241.069133 
L 21.777291 241.565558 
L 20.921981 241.87078 
L 22.229193 242.345667 
L 22.994634 239.159575 
L 23.769262 241.330792 
L 22.893673 242.724708 
L 23.323883 242.200798 
L 23.992712 242.751015 
L 23.535427 238.825185 
L 22.276113 238.729603 
L 25.607754 236.661899 
L 27.846336 237.826586 
L 27.097858 239.312907 
L 27.323918 242.850927 
L 27.793273 242.171086 
L 28.262574 243.54465 
L 27.199417 243.760674 
L 27.282382 242.876937 
L 25.173629 244.090779 
L 24.81812 245.359551 
L 26.658841 247.386483 
L 23.582944 248.958133 
L 24.734775 249.53009 
L 24.610273 250.996633 
L 22.82816 250.924223 
" clip-path="url(#pe0bc5404e0)" style="fill: none; stroke: #000000; stroke-width: 0.6"/>
    <path d="M 67.550113 225.457993 
L 67.598827 225.414372 
L 68.310443 224.071799 
L 67.515264 224.487132 
L 66.81376 222.000651 
L 67.550494 220.296049 
L 66.920864 218.341387 
L 71.155114 213.197627 
L 71.855422 214.459564 
L 72.247792 213.175309 
L 73.388151 213.186468 
L 74.023163 214.610146 
L 72.651797 215.985057 
L 71.915444 215.606172 
L 71.624251 217.223493 
L 71.612562 219.237061 
L 72.728782 220.108677 
L 70.911657 221.396715 
L 71.078075 222.51638 
L 69.047395 223.579163 
L 69.011566 225.480151 
L 67.069341 226.607193 
L 67.550113 225.457993 
" clip-path="url(#pe0bc5404e0)" style="fill: none; stroke: #000000; stroke-width: 0.6"/>
    <path d="M 9.146739 244.160349 
L 9.170281 244.149875 
L 11.415006 243.119925 
L 13.155528 244.42758 
L 12.501922 244.291196 
L 12.507848 245.427983 
L 13.594382 244.783728 
L 13.571222 243.10346 
L 14.49759 244.899061 
L 13.000526 245.370669 
L 14.028072 245.396548 
L 15.257158 247.240408 
L 14.47307 247.189033 
L 14.461598 250.068919 
L 9.681009 249.971114 
L 10.388058 249.311998 
L 9.146739 248.42353 
L 8.986029 249.259695 
L 7.2 245.168361 
" clip-path="url(#pe0bc5404e0)" style="fill: none; stroke: #000000; stroke-width: 0.6"/>
    <path d="M 7.2 245.035291 
L 7.834145 245.234258 
L 7.2 244.707051 
" clip-path="url(#pe0bc5404e0)" style="fill: none; stroke: #000000; stroke-width: 0.6"/>
    <path d="M 7.2 244.55853 
L 9.146739 244.160349 
" clip-path="url(#pe0bc5404e0)" style="fill: none; stroke: #000000; stroke-width: 0.6"/>
    <path d="M 94.659439 212.908643 
L 94.611922 212.872893 
L 96.245014 210.286774 
L 93.453949 208.359189 
L 94.819389 207.228018 
L 93.495105 205.408581 
L 94.730117 205.283188 
L 95.371436 206.52038 
L 96.084249 204.725861 
L 96.726003 205.56733 
L 96.684412 204.412861 
L 98.685843 203.495508 
L 99.434103 204.35009 
L 101.381275 203.779981 
L 103.929209 205.720619 
L 99.671417 208.454935 
L 99.861432 209.290923 
L 98.507681 208.737514 
L 96.713879 209.471296 
L 96.114314 212.397121 
L 95.015547 213.47682 
L 94.659439 212.908643 
" clip-path="url(#pe0bc5404e0)" style="fill: none; stroke: #000000; stroke-width: 0.6"/>
    <path d="M 44.705592 47.583245 
L 44.687977 47.558095 
L 46.344773 44.406709 
L 47.632793 44.447149 
L 46.250173 42.314481 
L 49.272572 41.476428 
L 48.024946 39.337321 
L 49.87828 39.992166 
L 48.060339 38.633466 
L 49.592688 37.632806 
L 49.182702 34.887043 
L 51.302926 34.830268 
L 50.298922 39.198079 
L 52.003832 38.272627 
L 49.990332 43.142319 
L 51.854974 40.391211 
L 52.55077 41.102102 
L 52.413383 38.953063 
L 53.880164 39.059543 
L 52.562024 37.500697 
L 54.390838 37.237111 
L 53.780019 35.532095 
L 56.166807 37.147206 
L 55.595948 42.542006 
L 52.592361 42.70443 
L 51.968004 45.530369 
L 50.988791 46.102412 
L 50.33513 44.601318 
L 49.242507 47.566626 
L 47.097926 46.545476 
L 48.624511 43.467703 
L 44.705592 47.583245 
" clip-path="url(#pe0bc5404e0)" style="fill: none; stroke: #000000; stroke-width: 0.6"/>
    <path d="M 65.881846 23.478519 
L 66.148682 24.944716 
L 66.529744 26.577921 
L 65.103521 29.38802 
L 66.059628 30.315921 
L 62.437773 31.017696 
L 62.365682 29.914618 
L 60.062022 33.729041 
L 60.156839 32.316465 
L 57.485328 32.84837 
L 60.506639 30.040008 
L 58.227064 29.974332 
L 60.281775 28.229937 
L 58.286053 27.69299 
L 60.341688 26.935898 
L 58.078804 26.388248 
L 60.536704 25.578628 
L 61.843971 26.708437 
L 61.089568 25.485828 
L 62.526284 25.383879 
L 61.463671 24.817854 
L 61.21483 23.071498 
L 63.856656 24.589441 
L 62.425704 21.863588 
L 63.803213 24.275448 
L 63.446291 21.898213 
L 64.586867 23.258265 
L 65.298918 22.306332 
L 64.830922 24.809489 
L 65.881846 23.478519 
" clip-path="url(#pe0bc5404e0)" style="fill: none; stroke: #000000; stroke-width: 0.6"/>
    <path d="M 57.538608 225.425652 
L 57.55008 225.414372 
L 58.726103 221.616488 
L 59.884077 220.653941 
L 54.72933 235.84 
L 54.723785 230.577337 
L 57.538608 225.425652 
" clip-path="url(#pe0bc5404e0)" style="fill: none; stroke: #000000; stroke-width: 0.6"/>
    <path d="M 16.260348 253.114223 
L 16.272798 253.124509 
L 17.18079 252.995304 
L 16.385828 252.242439 
L 17.51988 251.40019 
L 20.678469 253.248209 
L 20.952046 252.123691 
L 22.407138 254.817128 
L 20.274899 255.140642 
L 19.882746 255.940773 
L 16.320315 253.866059 
L 16.260348 253.114223 
" clip-path="url(#pe0bc5404e0)" style="fill: none; stroke: #000000; stroke-width: 0.6"/>
    <path d="M 98.145484 198.523053 
L 98.145049 198.511125 
L 99.374516 197.316587 
L 99.707028 198.390454 
L 101.387419 198.730534 
L 102.289485 200.754165 
L 100.157952 200.966873 
L 100.99532 201.569086 
L 99.908568 201.184735 
L 99.409964 202.684393 
L 98.1158 202.627255 
L 97.539558 200.111051 
L 94.926275 199.490139 
L 97.42593 199.415761 
L 98.145484 198.523053 
" clip-path="url(#pe0bc5404e0)" style="fill: none; stroke: #000000; stroke-width: 0.6"/>
    <path d="M 38.167627 194.179226 
L 37.11056 197.256474 
L 37.920201 197.668643 
L 38.1399 196.905807 
L 38.47638 197.687889 
L 36.403891 202.400104 
L 33.114058 203.701987 
L 32.326219 205.277152 
L 31.393925 205.117995 
L 31.827397 203.884476 
L 30.419985 203.880614 
L 27.486423 207.386891 
L 27.878358 205.720307 
L 25.66136 207.100094 
L 27.910055 203.504282 
L 26.322523 201.24362 
L 27.039087 201.235853 
L 26.488779 199.075748 
L 27.5795 201.086893 
L 28.361359 197.626343 
L 29.646009 197.302829 
L 32.338071 199.816066 
L 31.033631 194.675485 
L 31.732362 193.406817 
L 32.427179 194.346017 
L 32.516233 193.492275 
L 35.273645 192.84706 
L 35.827921 194.070664 
L 38.167627 194.12106 
L 38.167627 194.179226 
" clip-path="url(#pe0bc5404e0)" style="fill: none; stroke: #000000; stroke-width: 0.6"/>
    <path d="M 118.935398 169.313415 
L 118.29615 169.130439 
L 118.935398 168.467813 
" clip-path="url(#pe0bc5404e0)" style="fill: none; stroke: #000000; stroke-width: 0.6"/>
    <path d="M 118.935398 166.480626 
L 118.88408 166.496827 
L 118.917733 165.153851 
L 118.248632 165.463093 
L 117.11246 163.243779 
L 117.130293 161.92046 
L 118.753435 161.883032 
L 118.935398 161.467282 
" clip-path="url(#pe0bc5404e0)" style="fill: none; stroke: #000000; stroke-width: 0.6"/>
    <path d="M 118.935398 160.079451 
L 117.239136 158.099396 
L 118.519818 158.706337 
L 118.935398 157.818548 
" clip-path="url(#pe0bc5404e0)" style="fill: none; stroke: #000000; stroke-width: 0.6"/>
    <path d="M 118.935398 157.022184 
L 117.561753 157.143282 
L 118.791003 156.471255 
L 118.147726 156.10547 
L 118.935398 156.352497 
" clip-path="url(#pe0bc5404e0)" style="fill: none; stroke: #000000; stroke-width: 0.6"/>
    <path d="M 118.935398 139.732014 
L 118.490133 139.068119 
L 118.935398 139.193274 
" clip-path="url(#pe0bc5404e0)" style="fill: none; stroke: #000000; stroke-width: 0.6"/>
    <path d="M 44.31382 200.97601 
L 43.674458 204.287103 
L 44.654324 205.159637 
L 42.411555 206.937704 
L 38.856464 215.051719 
L 38.262607 213.005332 
L 39.596786 208.257631 
L 41.380258 203.827482 
L 44.147564 200.214563 
L 44.353399 200.914781 
L 44.31382 200.97601 
" clip-path="url(#pe0bc5404e0)" style="fill: none; stroke: #000000; stroke-width: 0.6"/>
    <path d="M 7.2 224.33207 
L 7.604768 224.180695 
L 8.643949 224.861638 
L 7.2 225.014227 
" clip-path="url(#pe0bc5404e0)" style="fill: none; stroke: #000000; stroke-width: 0.6"/>
    <path d="M 52.013401 191.5015 
L 54.174564 192.1846 
L 55.813744 191.415896 
L 55.81157 190.092909 
L 57.279493 191.304878 
L 57.679964 190.343412 
L 59.684004 191.052952 
L 59.45316 190.139431 
L 61.79205 192.389198 
L 61.918509 189.43745 
L 62.893917 191.90467 
L 64.191669 192.497933 
L 64.83114 191.175608 
L 63.0655 189.339741 
L 62.592721 189.718195 
L 62.801872 188.340624 
L 61.818201 188.242041 
L 63.375558 187.39375 
L 63.184348 189.347705 
L 64.153394 189.938588 
L 64.228693 189.243843 
L 65.091125 190.540863 
L 64.468835 192.90047 
L 66.238606 193.769243 
L 65.319849 195.289315 
L 63.386704 194.56395 
L 63.351909 195.304832 
L 61.755461 194.05255 
L 61.788299 195.04811 
L 60.473529 195.049067 
L 61.20586 193.775001 
L 59.395095 193.535906 
L 57.8995 191.707358 
L 52.595895 192.504667 
L 52.030799 191.51682 
L 52.013401 191.5015 
" clip-path="url(#pe0bc5404e0)" style="fill: none; stroke: #000000; stroke-width: 0.6"/>
    <path d="M 106.7262 151.773111 
L 106.664873 152.752953 
L 108.153456 153.074996 
L 108.725511 151.382225 
L 108.624496 152.95635 
L 110.356536 152.469117 
L 109.665742 154.263261 
L 110.443633 154.605351 
L 110.944466 153.185007 
L 110.928591 154.487098 
L 112.213295 154.896451 
L 113.11199 154.799361 
L 112.747728 153.840807 
L 110.938486 152.358703 
L 113.181254 154.094326 
L 113.143632 151.208028 
L 113.899775 150.867735 
L 113.771142 152.320611 
L 114.47183 151.819878 
L 113.058492 155.014599 
L 114.159108 156.794757 
L 112.757623 154.984949 
L 109.422285 154.525128 
L 110.285314 155.844496 
L 107.019186 158.509706 
L 106.965743 160.334902 
L 108.456283 160.347496 
L 107.177559 160.743239 
L 107.545736 162.207001 
L 105.299053 164.141997 
L 106.936058 165.248684 
L 106.80737 166.505075 
L 104.09155 164.497304 
L 106.852876 162.655165 
L 105.617755 159.60064 
L 106.690589 159.525521 
L 107.219096 157.588071 
L 106.330295 156.601583 
L 107.719929 157.340609 
L 107.682307 156.336732 
L 109.41239 155.558158 
L 108.721487 153.455852 
L 106.419404 153.455852 
L 106.7262 151.773111 
" clip-path="url(#pe0bc5404e0)" style="fill: none; stroke: #000000; stroke-width: 0.6"/>
   </g>
   <g id="LineCollection_2">
    <path d="M 108.27783 273.312 
L 108.274151 273.177444 
L 108.031455 272.589973 
L 107.788758 272.001824 
L 107.546007 271.412996 
L 107.303256 270.823394 
L 107.06056 270.2332 
L 106.817809 269.642229 
L 106.575058 269.050661 
L 106.348128 268.496938 
L 106.227106 267.806065 
L 106.106084 267.114341 
L 105.985062 266.42158 
L 105.86404 265.72787 
L 105.742963 265.033299 
L 105.621941 264.337682 
L 105.500865 263.641105 
L 105.379843 262.943658 
L 105.258821 262.245246 
L 105.137799 261.545679 
L 105.057552 261.081486 
L 104.669259 260.775534 
L 104.280967 260.46949 
L 103.892674 260.163166 
L 103.504381 259.856749 
L 103.116088 259.550144 
L 102.727796 259.243353 
L 102.339503 258.936281 
L 101.95121 258.629021 
L 101.734066 258.457161 
L 101.306792 258.485918 
L 100.879572 258.514672 
L 100.452298 258.543425 
L 100.025078 258.572083 
L 99.597858 258.600833 
L 99.170638 258.629581 
L 98.743418 258.658328 
L 98.316144 258.687073 
L 97.888924 258.715816 
L 97.46165 258.744557 
L 97.03443 258.773297 
L 96.60721 258.802035 
L 96.17999 258.830772 
L 95.75277 258.859507 
L 95.325496 258.88824 
L 94.898222 258.916972 
L 94.471002 258.945702 
L 94.043782 258.97443 
L 93.616562 259.003157 
L 93.189342 259.031882 
L 92.762122 259.060606 
L 92.334848 259.089328 
L 91.907574 259.118048 
L 91.480354 259.146766 
L 91.053134 259.175483 
L 90.625914 259.204198 
L 90.4689 259.21464 
L 90.042822 259.153852 
L 89.616744 259.092871 
L 89.190612 259.031976 
L 88.764588 258.971073 
L 88.338455 258.910162 
L 87.912377 258.849245 
L 87.486299 258.78832 
L 87.060221 258.727387 
L 86.634143 258.666354 
L 86.20801 258.6055 
L 85.781986 258.544452 
L 85.355854 258.483584 
L 84.929775 258.422521 
L 84.503697 258.361544 
L 84.077619 258.30056 
L 83.651541 258.239568 
L 83.225408 258.178569 
L 82.799385 258.117563 
L 82.373252 258.056549 
L 81.947174 257.995434 
L 81.521096 257.934499 
L 81.094963 257.873369 
L 80.668939 257.812419 
L 80.242807 257.751274 
L 79.816783 257.690216 
L 79.39065 257.62915 
L 78.964572 257.568077 
L 78.538494 257.506996 
L 78.112361 257.445814 
L 77.686338 257.384812 
L 77.570752 257.368157 
" clip-path="url(#pe0bc5404e0)" style="fill: none; stroke: #ffffff; stroke-width: 0.6"/>
    <path d="M 84.583944 32.823425 
L 81.098116 33.127988 
L 82.903444 38.189996 
L 80.096558 42.945278 
L 81.911672 44.145021 
L 79.963901 46.94774 
L 72.940815 44.0371 
L 66.846 43.632011 
L 67.261694 50.243895 
L 65.329799 54.449705 
L 60.978875 51.689303 
L 57.083335 55.329161 
L 55.525488 60.787941 
L 52.514724 64.467324 
L 54.47837 67.681655 
L 54.424926 71.715215 
L 47.362206 81.423273 
L 48.112423 84.911524 
L 44.957151 87.2774 
L 41.249613 87.585741 
L 42.174023 92.934947 
L 41.164527 101.780076 
L 35.245917 114.080193 
L 38.480349 115.939551 
L 38.696134 120.818519 
L 37.520328 123.441806 
L 32.163877 122.138839 
L 28.157481 124.249713 
L 24.392531 130.36399 
L 24.788435 131.945285 
L 22.94554 135.333605 
L 24.600378 139.377838 
L 23.483996 145.840942 
L 25.506956 151.071964 
L 24.285645 159.162141 
L 29.499543 164.637763 
L 28.066416 169.077182 
L 24.895322 169.959971 
L 27.716071 177.578332 
L 26.884683 183.066022 
L 24.451955 186.018805 
L 22.08251 186.661593 
L 22.706051 188.615985 
L 21.017559 190.202708 
L 21.96176 195.105313 
L 20.700868 199.82754 
L 19.350869 200.049817 
L 18.412594 197.036914 
L 14.544726 199.704886 
L 14.544726 199.704886 
" clip-path="url(#pe0bc5404e0)" style="fill: none; stroke: #ffffff; stroke-width: 0.6"/>
    <path d="M 118.935398 36.963942 
L 117.565776 37.582405 
L 115.3864 42.669184 
L 108.743289 37.286499 
L 103.38885 41.269984 
L 102.240771 39.980643 
L 97.497967 39.675422 
L 92.392967 28.269747 
L 89.819644 27.435125 
L 87.764987 29.711071 
L 87.957013 33.282849 
L 84.552302 32.784788 
L 95.019679 44.204456 
L 100.528521 45.970763 
L 102.864258 51.073425 
L 103.974769 50.759906 
L 106.532216 54.523543 
L 105.229788 56.012708 
L 104.857588 63.466477 
L 107.256718 64.384797 
L 105.859255 69.172989 
L 108.967011 75.662187 
L 106.494594 84.320559 
L 110.099269 92.872011 
L 109.877558 98.359376 
L 109.877558 98.359376 
" clip-path="url(#pe0bc5404e0)" style="fill: none; stroke: #ffffff; stroke-width: 0.6"/>
    <path d="M 40.28635 273.312 
L 40.388268 273.092913 
L 40.65032 272.528955 
L 40.85572 272.086627 
L 40.720019 271.408445 
L 40.584317 270.729268 
L 40.448562 270.049183 
L 40.31286 269.368187 
L 40.177159 268.686368 
L 40.041458 268.00354 
L 39.905702 267.319884 
L 39.770001 266.635213 
L 39.6343 265.949615 
L 39.498598 265.263087 
L 39.362897 264.575718 
L 39.258348 264.045519 
" clip-path="url(#pe0bc5404e0)" style="fill: none; stroke: #ffffff; stroke-width: 0.6"/>
    <path d="M 87.917433 237.330082 
L 89.087531 237.178081 
L 90.058861 235.258236 
L 90.473467 235.070458 
L 90.888128 234.882608 
L 91.302789 234.694588 
L 91.717396 234.506594 
L 92.132003 234.318528 
L 92.546664 234.130292 
L 92.961325 233.941983 
L 93.375931 233.753701 
L 93.790538 233.565346 
L 94.205145 233.37682 
L 94.619806 233.188222 
L 95.034467 232.999748 
L 95.138309 232.952373 
L 95.563734 233.029626 
L 95.98916 233.106867 
L 96.414531 233.184096 
L 96.840012 233.261313 
L 97.265383 233.338517 
L 97.690863 233.41571 
L 98.116235 233.49289 
L 98.541715 233.570058 
L 98.967086 233.647214 
L 99.392566 233.724358 
L 99.586386 233.759491 
L 101.367901 232.894376 
L 102.470311 234.413795 
L 104.065834 233.455971 
L 104.489194 233.563971 
L 104.9125 233.672047 
L 105.335914 233.780098 
L 105.759219 233.888027 
L 106.182633 233.996031 
L 106.605939 234.104011 
L 107.029353 234.21187 
L 107.452658 234.319802 
L 107.876018 234.427711 
L 108.299378 234.535498 
L 108.722738 234.643261 
L 109.146098 234.751197 
L 109.569457 234.858913 
L 109.992817 234.966606 
L 110.075238 234.987652 
L 110.501806 234.93479 
L 110.928373 234.881824 
L 111.354886 234.828951 
L 111.781454 234.776072 
L 112.207967 234.723187 
L 112.634535 234.670297 
L 112.890062 234.63856 
L 113.27618 234.307745 
L 113.662298 233.97661 
L 114.04847 233.645251 
L 114.434643 233.313766 
L 114.820761 232.982057 
L 115.206933 232.650025 
L 115.322899 232.550282 
L 115.587995 233.156881 
L 115.853091 233.762631 
L 116.118242 234.367732 
L 116.383392 234.972088 
L 116.648488 235.5757 
L 116.728136 235.756933 
L 117.154106 235.822801 
L 117.58013 235.888661 
L 118.006099 235.954511 
L 118.432068 236.020451 
L 118.858092 236.086382 
L 118.935398 236.098328 
" clip-path="url(#pe0bc5404e0)" style="fill: none; stroke: #ffffff; stroke-width: 0.6"/>
    <path d="M 87.917433 237.330082 
L 89.087531 237.178081 
L 90.058861 235.258236 
L 90.473467 235.070458 
L 90.888128 234.882608 
L 91.302789 234.694588 
L 91.717396 234.506594 
L 92.132003 234.318528 
L 92.546664 234.130292 
L 92.961325 233.941983 
L 93.375931 233.753701 
L 93.790538 233.565346 
L 94.205145 233.37682 
L 94.619806 233.188222 
L 95.034467 232.999748 
L 95.138309 232.952373 
L 95.563734 233.029626 
L 95.98916 233.106867 
L 96.414531 233.184096 
L 96.840012 233.261313 
L 97.265383 233.338517 
L 97.690863 233.41571 
L 98.116235 233.49289 
L 98.541715 233.570058 
L 98.967086 233.647214 
L 99.392566 233.724358 
L 99.586386 233.759491 
L 101.367901 232.894376 
L 102.470311 234.413795 
L 104.065834 233.455971 
L 104.489194 233.563971 
L 104.9125 233.672047 
L 105.335914 233.780098 
L 105.759219 233.888027 
L 106.182633 233.996031 
L 106.605939 234.104011 
L 107.029353 234.21187 
L 107.452658 234.319802 
L 107.876018 234.427711 
L 108.299378 234.535498 
L 108.722738 234.643261 
L 109.146098 234.751197 
L 109.569457 234.858913 
L 109.992817 234.966606 
L 110.075238 234.987652 
L 110.501806 234.93479 
L 110.928373 234.881824 
L 111.354886 234.828951 
L 111.781454 234.776072 
L 112.207967 234.723187 
L 112.634535 234.670297 
L 112.890062 234.63856 
L 113.27618 234.307745 
L 113.662298 233.97661 
L 114.04847 233.645251 
L 114.434643 233.313766 
L 114.820761 232.982057 
L 115.206933 232.650025 
L 115.322899 232.550282 
L 115.587995 233.156881 
L 115.853091 233.762631 
L 116.118242 234.367732 
L 116.383392 234.972088 
L 116.648488 235.5757 
L 116.728136 235.756933 
L 117.154106 235.822801 
L 117.58013 235.888661 
L 118.006099 235.954511 
L 118.432068 236.020451 
L 118.858092 236.086382 
L 118.935398 236.098328 
" clip-path="url(#pe0bc5404e0)" style="fill: none; stroke: #ffffff; stroke-width: 0.6"/>
    <path d="M 118.935398 259.592793 
L 117.554033 259.98429 
L 116.549974 261.544751 
L 114.899594 261.453617 
L 114.76063 263.456803 
L 113.274114 263.275024 
L 111.668641 264.529319 
L 110.162879 263.574379 
L 109.738269 263.659771 
L 109.313658 263.744964 
L 108.889048 263.830327 
L 108.464438 263.915584 
L 108.039827 264.000826 
L 107.615217 264.086145 
L 107.190607 264.171359 
L 106.765997 264.256558 
L 106.377486 264.334544 
L 105.378429 263.81296 
" clip-path="url(#pe0bc5404e0)" style="fill: none; stroke: #ffffff; stroke-width: 0.6"/>
    <path d="M 118.935398 259.592793 
L 117.554033 259.98429 
L 116.549974 261.544751 
L 114.899594 261.453617 
L 114.76063 263.456803 
L 113.274114 263.275024 
L 111.668641 264.529319 
L 110.162879 263.574379 
L 109.738269 263.659771 
L 109.313658 263.744964 
L 108.889048 263.830327 
L 108.464438 263.915584 
L 108.039827 264.000826 
L 107.615217 264.086145 
L 107.190607 264.171359 
L 106.765997 264.256558 
L 106.377486 264.334544 
L 105.378429 263.81296 
" clip-path="url(#pe0bc5404e0)" style="fill: none; stroke: #ffffff; stroke-width: 0.6"/>
    <path d="M 118.935398 211.784983 
L 118.573206 211.434303 
L 118.192743 211.065602 
L 118.139789 211.014391 
L 117.799176 212.251488 
L 116.780166 211.159886 
L 116.36594 211.360215 
L 115.951714 211.560564 
L 115.537488 211.76083 
L 115.123262 211.961012 
L 114.70909 212.161111 
L 114.29481 212.361025 
L 113.880638 212.560855 
L 113.466412 212.760705 
L 113.052186 212.960473 
L 112.638014 213.160157 
L 112.223734 213.359656 
L 111.809562 213.559175 
L 111.395336 213.75851 
L 111.132741 213.884879 
" clip-path="url(#pe0bc5404e0)" style="fill: none; stroke: #ffffff; stroke-width: 0.6"/>
    <path d="M 98.950776 250.010428 
L 98.524643 250.072052 
L 98.098511 250.133668 
L 97.672378 250.195182 
L 97.2463 250.256688 
L 96.820222 250.318186 
L 96.394089 250.379772 
L 95.967957 250.44135 
L 95.541879 250.502826 
L 95.1158 250.564294 
L 95.100523 250.56657 
L 94.701085 250.300535 
L 94.301593 250.034547 
L 93.9021 249.768227 
L 93.502608 249.501954 
L 93.103115 249.235444 
L 92.703623 248.968791 
L 92.30413 248.701995 
L 91.904638 248.435056 
L 91.505145 248.167973 
L 91.105653 247.900747 
L 90.70616 247.633377 
L 90.306722 247.365864 
L 90.249147 247.327295 
L 89.433906 247.806331 
" clip-path="url(#pe0bc5404e0)" style="fill: none; stroke: #ffffff; stroke-width: 0.6"/>
    <path d="M 100.251247 258.735786 
L 99.635589 255.983654 
L 100.841297 253.002289 
L 100.524715 252.503095 
L 100.208079 252.003495 
L 99.891497 251.503395 
L 99.574915 251.002698 
L 99.258278 250.501498 
L 98.950776 250.014226 
" clip-path="url(#pe0bc5404e0)" style="fill: none; stroke: #ffffff; stroke-width: 0.6"/>
    <path d="M 7.2 252.863591 
L 7.391811 252.947351 
L 7.806472 253.128473 
L 8.221078 253.309528 
L 8.635739 253.490424 
L 9.0504 253.671254 
L 9.366438 253.809049 
" clip-path="url(#pe0bc5404e0)" style="fill: none; stroke: #ffffff; stroke-width: 0.6"/>
   </g>
   <g id="LineCollection_3"/>
   <g id="line2d_1">
    <path d="M 23.1622 216.072595 
L 29.504178 229.655236 
L 29.504178 229.655236 
" clip-path="url(#pe0bc5404e0)" style="fill: none; stroke: #008000; stroke-width: 0.75; stroke-linecap: square"/>
   </g>
   <g id="line2d_2">
    <path d="M 23.1622 216.072595 
L 30.098064 215.887821 
L 30.098064 215.887821 
" clip-path="url(#pe0bc5404e0)" style="fill: none; stroke: #008000; stroke-width: 0.75; stroke-linecap: square"/>
   </g>
   <g id="line2d_3">
    <path d="M 23.1622 216.072595 
L 30.098064 215.887821 
L 30.098064 215.887821 
" clip-path="url(#pe0bc5404e0)" style="fill: none; stroke: #008000; stroke-width: 0.75; stroke-linecap: square"/>
   </g>
   <g id="line2d_4">
    <path d="M 23.1622 216.072595 
L 25.455722 208.321074 
L 25.455722 208.321074 
" clip-path="url(#pe0bc5404e0)" style="fill: none; stroke: #008000; stroke-width: 0.75; stroke-linecap: square"/>
   </g>
   <g id="line2d_5">
    <path d="M 36.546861 206.861286 
L 44.692017 196.620544 
L 46.249275 194.70321 
L 46.249275 194.70321 
" clip-path="url(#pe0bc5404e0)" style="fill: none; stroke: #008000; stroke-width: 0.75; stroke-linecap: square"/>
   </g>
   <g id="line2d_6">
    <path d="M 36.546861 206.861286 
L 30.098064 215.887821 
L 30.098064 215.887821 
" clip-path="url(#pe0bc5404e0)" style="fill: none; stroke: #008000; stroke-width: 0.75; stroke-linecap: square"/>
   </g>
   <g id="line2d_7">
    <path d="M 36.546861 206.861286 
L 26.283096 208.203149 
L 25.455722 208.321074 
L 25.455722 208.321074 
" clip-path="url(#pe0bc5404e0)" style="fill: none; stroke: #008000; stroke-width: 0.75; stroke-linecap: square"/>
   </g>
   <g id="line2d_8">
    <path d="M 36.546861 206.861286 
L 26.283096 208.203149 
L 25.455722 208.321074 
L 25.455722 208.321074 
" clip-path="url(#pe0bc5404e0)" style="fill: none; stroke: #008000; stroke-width: 0.75; stroke-linecap: square"/>
   </g>
   <g id="line2d_9">
    <path d="M 46.249275 194.70321 
L 47.892116 177.494381 
L 47.892116 177.494381 
" clip-path="url(#pe0bc5404e0)" style="fill: none; stroke: #008000; stroke-width: 0.75; stroke-linecap: square"/>
   </g>
   <g id="line2d_10">
    <path d="M 46.249275 194.70321 
L 36.024871 193.444476 
L 34.113384 193.233973 
L 34.113384 193.233973 
" clip-path="url(#pe0bc5404e0)" style="fill: none; stroke: #008000; stroke-width: 0.75; stroke-linecap: square"/>
   </g>
   <g id="line2d_11">
    <path d="M 46.249275 194.70321 
L 36.024871 193.444476 
L 34.113384 193.233973 
L 34.113384 193.233973 
" clip-path="url(#pe0bc5404e0)" style="fill: none; stroke: #008000; stroke-width: 0.75; stroke-linecap: square"/>
   </g>
   <g id="line2d_12">
    <path d="M 46.249275 194.70321 
L 53.01334 180.876747 
L 59.936324 167.232877 
L 66.876087 154.046518 
L 73.941846 141.10127 
L 80.969498 128.684045 
L 88.076478 116.569662 
L 95.242558 104.784834 
L 102.620555 93.082258 
L 102.973198 92.533517 
L 102.973198 92.533517 
" clip-path="url(#pe0bc5404e0)" style="fill: none; stroke: #008000; stroke-width: 0.75; stroke-linecap: square"/>
   </g>
   <g id="line2d_13">
    <path d="M 46.249275 194.70321 
L 53.01334 180.876747 
L 59.936324 167.232877 
L 66.876087 154.046518 
L 73.941846 141.10127 
L 80.969498 128.684045 
L 88.076478 116.569662 
L 95.242558 104.784834 
L 102.620555 93.082258 
L 102.973198 92.533517 
L 102.973198 92.533517 
" clip-path="url(#pe0bc5404e0)" style="fill: none; stroke: #008000; stroke-width: 0.75; stroke-linecap: square"/>
   </g>
   <g id="line2d_14">
    <path d="M 34.113384 193.233973 
L 26.86464 205.822319 
L 25.455722 208.321074 
L 25.455722 208.321074 
" clip-path="url(#pe0bc5404e0)" style="fill: none; stroke: #008000; stroke-width: 0.75; stroke-linecap: square"/>
   </g>
   <g id="line2d_15">
    <path d="M 29.504178 229.655236 
L 31.90174 242.060726 
L 31.90174 242.060726 
" clip-path="url(#pe0bc5404e0)" style="fill: none; stroke: #008000; stroke-width: 0.75; stroke-linecap: square"/>
   </g>
   <g id="line2d_16">
    <path d="M 49.171457 206.514591 
L 58.410694 199.705997 
L 66.617687 193.887156 
L 66.617687 193.887156 
" clip-path="url(#pe0bc5404e0)" style="fill: none; stroke: #008000; stroke-width: 0.75; stroke-linecap: square"/>
   </g>
   <g id="line2d_17">
    <path d="M 49.171457 206.514591 
L 58.410694 199.705997 
L 66.617687 193.887156 
L 66.617687 193.887156 
" clip-path="url(#pe0bc5404e0)" style="fill: none; stroke: #008000; stroke-width: 0.75; stroke-linecap: square"/>
   </g>
   <g id="line2d_18">
    <path d="M 49.171457 206.514591 
L 40.118346 213.944378 
L 38.763921 215.080658 
L 38.763921 215.080658 
" clip-path="url(#pe0bc5404e0)" style="fill: none; stroke: #008000; stroke-width: 0.75; stroke-linecap: square"/>
   </g>
   <g id="line2d_19">
    <path d="M 49.171457 206.514591 
L 40.118346 213.944378 
L 38.763921 215.080658 
L 38.763921 215.080658 
" clip-path="url(#pe0bc5404e0)" style="fill: none; stroke: #008000; stroke-width: 0.75; stroke-linecap: square"/>
   </g>
   <g id="line2d_20">
    <path d="M 38.763921 215.080658 
L 43.470611 227.155746 
L 43.470611 227.155746 
" clip-path="url(#pe0bc5404e0)" style="fill: none; stroke: #008000; stroke-width: 0.75; stroke-linecap: square"/>
   </g>
   <g id="line2d_21">
    <path d="M 38.763921 215.080658 
L 43.470611 227.155746 
L 43.470611 227.155746 
" clip-path="url(#pe0bc5404e0)" style="fill: none; stroke: #008000; stroke-width: 0.75; stroke-linecap: square"/>
   </g>
   <g id="line2d_22">
    <path d="M 43.470611 227.155746 
L 35.31915 237.581952 
L 31.90174 242.060726 
L 31.90174 242.060726 
" clip-path="url(#pe0bc5404e0)" style="fill: none; stroke: #008000; stroke-width: 0.75; stroke-linecap: square"/>
   </g>
   <g id="line2d_23">
    <path d="M 43.470611 227.155746 
L 53.715284 229.62863 
L 54.480086 229.8224 
L 54.480086 229.8224 
" clip-path="url(#pe0bc5404e0)" style="fill: none; stroke: #008000; stroke-width: 0.75; stroke-linecap: square"/>
   </g>
   <g id="line2d_24">
    <path d="M 31.90174 242.060726 
L 30.530116 243.323469 
L 30.530116 243.323469 
" clip-path="url(#pe0bc5404e0)" style="fill: none; stroke: #008000; stroke-width: 0.75; stroke-linecap: square"/>
   </g>
   <g id="line2d_25">
    <path d="M 31.90174 242.060726 
L 30.530116 243.323469 
L 30.530116 243.323469 
" clip-path="url(#pe0bc5404e0)" style="fill: none; stroke: #008000; stroke-width: 0.75; stroke-linecap: square"/>
   </g>
   <g id="line2d_26">
    <path d="M 38.737127 237.92738 
L 46.743966 235.64298 
L 46.743966 235.64298 
" clip-path="url(#pe0bc5404e0)" style="fill: none; stroke: #008000; stroke-width: 0.75; stroke-linecap: square"/>
   </g>
   <g id="line2d_27">
    <path d="M 38.737127 237.92738 
L 46.743966 235.64298 
L 46.743966 235.64298 
" clip-path="url(#pe0bc5404e0)" style="fill: none; stroke: #008000; stroke-width: 0.75; stroke-linecap: square"/>
   </g>
   <g id="line2d_28">
    <path d="M 38.737127 237.92738 
L 30.530116 243.323469 
L 30.530116 243.323469 
" clip-path="url(#pe0bc5404e0)" style="fill: none; stroke: #008000; stroke-width: 0.75; stroke-linecap: square"/>
   </g>
   <g id="line2d_29">
    <path d="M 38.737127 237.92738 
L 30.530116 243.323469 
L 30.530116 243.323469 
" clip-path="url(#pe0bc5404e0)" style="fill: none; stroke: #008000; stroke-width: 0.75; stroke-linecap: square"/>
   </g>
   <g id="line2d_30">
    <path d="M 46.743966 235.64298 
L 54.480086 229.8224 
L 54.480086 229.8224 
" clip-path="url(#pe0bc5404e0)" style="fill: none; stroke: #008000; stroke-width: 0.75; stroke-linecap: square"/>
   </g>
   <g id="line2d_31">
    <path d="M 46.743966 235.64298 
L 54.480086 229.8224 
L 54.480086 229.8224 
" clip-path="url(#pe0bc5404e0)" style="fill: none; stroke: #008000; stroke-width: 0.75; stroke-linecap: square"/>
   </g>
   <g id="line2d_32">
    <path d="M 68.264662 216.955731 
L 66.617687 193.887156 
L 66.617687 193.887156 
" clip-path="url(#pe0bc5404e0)" style="fill: none; stroke: #008000; stroke-width: 0.75; stroke-linecap: square"/>
   </g>
   <g id="line2d_33">
    <path d="M 68.264662 216.955731 
L 66.617687 193.887156 
L 66.617687 193.887156 
" clip-path="url(#pe0bc5404e0)" style="fill: none; stroke: #008000; stroke-width: 0.75; stroke-linecap: square"/>
   </g>
   <g id="line2d_34">
    <path d="M 66.617687 193.887156 
L 72.285892 176.347124 
L 78.063251 159.189105 
L 83.927718 142.47048 
L 89.851659 126.253046 
L 95.80147 110.602479 
L 101.849009 95.310681 
L 102.973198 92.533517 
L 102.973198 92.533517 
" clip-path="url(#pe0bc5404e0)" style="fill: none; stroke: #008000; stroke-width: 0.75; stroke-linecap: square"/>
   </g>
   <g id="line2d_35">
    <path d="M 66.617687 193.887156 
L 72.285892 176.347124 
L 78.063251 159.189105 
L 83.927718 142.47048 
L 89.851659 126.253046 
L 95.80147 110.602479 
L 101.849009 95.310681 
L 102.973198 92.533517 
L 102.973198 92.533517 
" clip-path="url(#pe0bc5404e0)" style="fill: none; stroke: #008000; stroke-width: 0.75; stroke-linecap: square"/>
   </g>
   <g id="line2d_36">
    <path d="M 66.617687 193.887156 
L 63.62852 186.481862 
L 63.62852 186.481862 
" clip-path="url(#pe0bc5404e0)" style="fill: none; stroke: #008000; stroke-width: 0.75; stroke-linecap: square"/>
   </g>
   <g id="line2d_37">
    <path d="M 66.617687 193.887156 
L 63.62852 186.481862 
L 63.62852 186.481862 
" clip-path="url(#pe0bc5404e0)" style="fill: none; stroke: #008000; stroke-width: 0.75; stroke-linecap: square"/>
   </g>
   <g id="line2d_38">
    <path d="M 82.011612 56.151348 
L 87.664768 72.496588 
L 93.214964 89.225667 
L 95.761484 97.140239 
L 95.761484 97.140239 
" clip-path="url(#pe0bc5404e0)" style="fill: none; stroke: #008000; stroke-width: 0.75; stroke-linecap: square"/>
   </g>
   <g id="line2d_39">
    <path d="M 82.011612 56.151348 
L 87.664768 72.496588 
L 93.214964 89.225667 
L 95.761484 97.140239 
L 95.761484 97.140239 
" clip-path="url(#pe0bc5404e0)" style="fill: none; stroke: #008000; stroke-width: 0.75; stroke-linecap: square"/>
   </g>
   <g id="line2d_40">
    <path d="M 95.761484 97.140239 
L 88.650703 109.104008 
L 81.598551 121.40546 
L 79.743815 124.715617 
L 79.743815 124.715617 
" clip-path="url(#pe0bc5404e0)" style="fill: none; stroke: #008000; stroke-width: 0.75; stroke-linecap: square"/>
   </g>
   <g id="line2d_41">
    <path d="M 95.761484 97.140239 
L 89.246236 110.986701 
L 82.827819 125.151294 
L 82.258103 126.434697 
L 82.258103 126.434697 
" clip-path="url(#pe0bc5404e0)" style="fill: none; stroke: #008000; stroke-width: 0.75; stroke-linecap: square"/>
   </g>
   <g id="line2d_42">
    <path d="M 79.743815 124.715617 
L 82.258103 126.434697 
L 82.258103 126.434697 
" clip-path="url(#pe0bc5404e0)" style="fill: none; stroke: #008000; stroke-width: 0.75; stroke-linecap: square"/>
   </g>
   <g id="line2d_43">
    <path d="M 79.743815 124.715617 
L 71.87879 134.807288 
L 64.084064 145.170653 
L 61.211859 149.083056 
L 61.211859 149.083056 
" clip-path="url(#pe0bc5404e0)" style="fill: none; stroke: #008000; stroke-width: 0.75; stroke-linecap: square"/>
   </g>
   <g id="line2d_44">
    <path d="M 82.258103 126.434697 
L 73.928403 135.149187 
L 65.654331 144.126821 
L 61.211859 149.083056 
L 61.211859 149.083056 
" clip-path="url(#pe0bc5404e0)" style="fill: none; stroke: #008000; stroke-width: 0.75; stroke-linecap: square"/>
   </g>
   <g id="line2d_45">
    <path d="M 61.211859 149.083056 
L 60.039195 174.756556 
L 60.039195 174.756556 
" clip-path="url(#pe0bc5404e0)" style="fill: none; stroke: #008000; stroke-width: 0.75; stroke-linecap: square"/>
   </g>
   <g id="line2d_46">
    <path d="M 61.211859 149.083056 
L 60.039195 174.756556 
L 60.039195 174.756556 
" clip-path="url(#pe0bc5404e0)" style="fill: none; stroke: #008000; stroke-width: 0.75; stroke-linecap: square"/>
   </g>
   <g id="line2d_47">
    <path d="M 60.039195 174.756556 
L 49.972065 177.002047 
L 47.892116 177.494381 
L 47.892116 177.494381 
" clip-path="url(#pe0bc5404e0)" style="fill: none; stroke: #008000; stroke-width: 0.75; stroke-linecap: square"/>
   </g>
   <g id="line2d_48">
    <path d="M 60.039195 174.756556 
L 63.62852 186.481862 
L 63.62852 186.481862 
" clip-path="url(#pe0bc5404e0)" style="fill: none; stroke: #008000; stroke-width: 0.75; stroke-linecap: square"/>
   </g>
   <g id="line2d_49">
    <path d="M 60.039195 174.756556 
L 63.62852 186.481862 
L 63.62852 186.481862 
" clip-path="url(#pe0bc5404e0)" style="fill: none; stroke: #008000; stroke-width: 0.75; stroke-linecap: square"/>
   </g>
   <g id="patch_27">
    <path d="M 7.2 273.312 
L 7.2 7.2 
" style="fill: none; stroke: #ffffff; stroke-linejoin: miter; stroke-linecap: square"/>
   </g>
   <g id="patch_28">
    <path d="M 118.935398 273.312 
L 118.935398 7.2 
" style="fill: none; stroke: #ffffff; stroke-linejoin: miter; stroke-linecap: square"/>
   </g>
   <g id="patch_29">
    <path d="M 7.2 273.312 
L 118.935398 273.312 
" style="fill: none; stroke: #ffffff; stroke-linejoin: miter; stroke-linecap: square"/>
   </g>
   <g id="patch_30">
    <path d="M 7.2 7.2 
L 118.935398 7.2 
" style="fill: none; stroke: #ffffff; stroke-linejoin: miter; stroke-linecap: square"/>
   </g>
   <g id="PathCollection_1">
    <defs>
     <path id="m41b860656e" d="M 0 1.118034 
C 0.296506 1.118034 0.580908 1.000231 0.790569 0.790569 
C 1.000231 0.580908 1.118034 0.296506 1.118034 0 
C 1.118034 -0.296506 1.000231 -0.580908 0.790569 -0.790569 
C 0.580908 -1.000231 0.296506 -1.118034 0 -1.118034 
C -0.296506 -1.118034 -0.580908 -1.000231 -0.790569 -0.790569 
C -1.000231 -0.580908 -1.118034 -0.296506 -1.118034 0 
C -1.118034 0.296506 -1.000231 0.580908 -0.790569 0.790569 
C -0.580908 1.000231 -0.296506 1.118034 0 1.118034 
z
" style="stroke: #ff0000"/>
    </defs>
    <g clip-path="url(#pe0bc5404e0)">
     <use xlink:href="#m41b860656e" x="23.1622" y="216.072595" style="fill: #ff0000; stroke: #ff0000"/>
    </g>
   </g>
   <g id="PathCollection_2">
    <g clip-path="url(#pe0bc5404e0)">
     <use xlink:href="#m41b860656e" x="36.546861" y="206.861286" style="fill: #ff0000; stroke: #ff0000"/>
    </g>
   </g>
   <g id="PathCollection_3">
    <g clip-path="url(#pe0bc5404e0)">
     <use xlink:href="#m41b860656e" x="46.249275" y="194.70321" style="fill: #ff0000; stroke: #ff0000"/>
    </g>
   </g>
   <g id="PathCollection_4">
    <g clip-path="url(#pe0bc5404e0)">
     <use xlink:href="#m41b860656e" x="34.113384" y="193.233973" style="fill: #ff0000; stroke: #ff0000"/>
    </g>
   </g>
   <g id="PathCollection_5">
    <g clip-path="url(#pe0bc5404e0)">
     <use xlink:href="#m41b860656e" x="29.504178" y="229.655236" style="fill: #ff0000; stroke: #ff0000"/>
    </g>
   </g>
   <g id="PathCollection_6">
    <g clip-path="url(#pe0bc5404e0)">
     <use xlink:href="#m41b860656e" x="49.171457" y="206.514591" style="fill: #ff0000; stroke: #ff0000"/>
    </g>
   </g>
   <g id="PathCollection_7">
    <g clip-path="url(#pe0bc5404e0)">
     <use xlink:href="#m41b860656e" x="30.098064" y="215.887821" style="fill: #ff0000; stroke: #ff0000"/>
    </g>
   </g>
   <g id="PathCollection_8">
    <g clip-path="url(#pe0bc5404e0)">
     <use xlink:href="#m41b860656e" x="25.455722" y="208.321074" style="fill: #ff0000; stroke: #ff0000"/>
    </g>
   </g>
   <g id="PathCollection_9">
    <g clip-path="url(#pe0bc5404e0)">
     <use xlink:href="#m41b860656e" x="38.763921" y="215.080658" style="fill: #ff0000; stroke: #ff0000"/>
    </g>
   </g>
   <g id="PathCollection_10">
    <g clip-path="url(#pe0bc5404e0)">
     <use xlink:href="#m41b860656e" x="43.470611" y="227.155746" style="fill: #ff0000; stroke: #ff0000"/>
    </g>
   </g>
   <g id="PathCollection_11">
    <g clip-path="url(#pe0bc5404e0)">
     <use xlink:href="#m41b860656e" x="31.90174" y="242.060726" style="fill: #ff0000; stroke: #ff0000"/>
    </g>
   </g>
   <g id="PathCollection_12">
    <g clip-path="url(#pe0bc5404e0)">
     <use xlink:href="#m41b860656e" x="38.737127" y="237.92738" style="fill: #ff0000; stroke: #ff0000"/>
    </g>
   </g>
   <g id="PathCollection_13">
    <g clip-path="url(#pe0bc5404e0)">
     <use xlink:href="#m41b860656e" x="46.743966" y="235.64298" style="fill: #ff0000; stroke: #ff0000"/>
    </g>
   </g>
   <g id="PathCollection_14">
    <g clip-path="url(#pe0bc5404e0)">
     <use xlink:href="#m41b860656e" x="54.480086" y="229.8224" style="fill: #ff0000; stroke: #ff0000"/>
    </g>
   </g>
   <g id="PathCollection_15">
    <g clip-path="url(#pe0bc5404e0)">
     <use xlink:href="#m41b860656e" x="68.264662" y="216.955731" style="fill: #ff0000; stroke: #ff0000"/>
    </g>
   </g>
   <g id="PathCollection_16">
    <g clip-path="url(#pe0bc5404e0)">
     <use xlink:href="#m41b860656e" x="30.530116" y="243.323469" style="fill: #ff0000; stroke: #ff0000"/>
    </g>
   </g>
   <g id="PathCollection_17">
    <g clip-path="url(#pe0bc5404e0)">
     <use xlink:href="#m41b860656e" x="66.617687" y="193.887156" style="fill: #ff0000; stroke: #ff0000"/>
    </g>
   </g>
   <g id="PathCollection_18">
    <g clip-path="url(#pe0bc5404e0)">
     <use xlink:href="#m41b860656e" x="102.973198" y="92.533517" style="fill: #ff0000; stroke: #ff0000"/>
    </g>
   </g>
   <g id="PathCollection_19">
    <g clip-path="url(#pe0bc5404e0)">
     <use xlink:href="#m41b860656e" x="82.011612" y="56.151348" style="fill: #ff0000; stroke: #ff0000"/>
    </g>
   </g>
   <g id="PathCollection_20">
    <g clip-path="url(#pe0bc5404e0)">
     <use xlink:href="#m41b860656e" x="95.761484" y="97.140239" style="fill: #ff0000; stroke: #ff0000"/>
    </g>
   </g>
   <g id="PathCollection_21">
    <defs>
     <path id="m2b752fbee6" d="M 0 1.118034 
C 0.296506 1.118034 0.580908 1.000231 0.790569 0.790569 
C 1.000231 0.580908 1.118034 0.296506 1.118034 0 
C 1.118034 -0.296506 1.000231 -0.580908 0.790569 -0.790569 
C 0.580908 -1.000231 0.296506 -1.118034 0 -1.118034 
C -0.296506 -1.118034 -0.580908 -1.000231 -0.790569 -0.790569 
C -1.000231 -0.580908 -1.118034 -0.296506 -1.118034 0 
C -1.118034 0.296506 -1.000231 0.580908 -0.790569 0.790569 
C -0.580908 1.000231 -0.296506 1.118034 0 1.118034 
z
" style="stroke: #ffff00"/>
    </defs>
    <g clip-path="url(#pe0bc5404e0)">
     <use xlink:href="#m2b752fbee6" x="79.743815" y="124.715617" style="fill: #ffff00; stroke: #ffff00"/>
    </g>
   </g>
   <g id="PathCollection_22">
    <g clip-path="url(#pe0bc5404e0)">
     <use xlink:href="#m41b860656e" x="82.258103" y="126.434697" style="fill: #ff0000; stroke: #ff0000"/>
    </g>
   </g>
   <g id="PathCollection_23">
    <g clip-path="url(#pe0bc5404e0)">
     <use xlink:href="#m41b860656e" x="61.211859" y="149.083056" style="fill: #ff0000; stroke: #ff0000"/>
    </g>
   </g>
   <g id="PathCollection_24">
    <g clip-path="url(#pe0bc5404e0)">
     <use xlink:href="#m41b860656e" x="60.039195" y="174.756556" style="fill: #ff0000; stroke: #ff0000"/>
    </g>
   </g>
   <g id="PathCollection_25">
    <g clip-path="url(#pe0bc5404e0)">
     <use xlink:href="#m41b860656e" x="47.892116" y="177.494381" style="fill: #ff0000; stroke: #ff0000"/>
    </g>
   </g>
   <g id="PathCollection_26">
    <g clip-path="url(#pe0bc5404e0)">
     <use xlink:href="#m41b860656e" x="63.62852" y="186.481862" style="fill: #ff0000; stroke: #ff0000"/>
    </g>
   </g>
  </g>
 </g>
 <defs>
  <clipPath id="pe0bc5404e0">
   <rect x="7.2" y="7.2" width="111.735398" height="266.112"/>
  </clipPath>
 </defs>
</svg>
