<?xml version="1.0" encoding="utf-8" standalone="no"?>
<!DOCTYPE svg PUBLIC "-//W3C//DTD SVG 1.1//EN"
  "http://www.w3.org/Graphics/SVG/1.1/DTD/svg11.dtd">
<svg xmlns:xlink="http://www.w3.org/1999/xlink" width="287.042527pt" height="280.512pt" viewBox="0 0 287.042527 280.512" xmlns="http://www.w3.org/2000/svg" version="1.1">
 <metadata>
  <rdf:RDF xmlns:dc="http://purl.org/dc/elements/1.1/" xmlns:cc="http://creativecommons.org/ns#" xmlns:rdf="http://www.w3.org/1999/02/22-rdf-syntax-ns#">
   <cc:Work>
    <dc:type rdf:resource="http://purl.org/dc/dcmitype/StillImage"/>
    <dc:date>2025-12-17T16:18:10.446283</dc:date>
    <dc:format>image/svg+xml</dc:format>
    <dc:creator>
     <cc:Agent>
      <dc:title>Matplotlib v3.10.6, https://matplotlib.org/</dc:title>
     </cc:Agent>
    </dc:creator>
   </cc:Work>
  </rdf:RDF>
 </metadata>
 <defs>
  <style type="text/css">*{stroke-linejoin: round; stroke-linecap: butt}</style>
 </defs>
 <g id="figure_1">
  <g id="patch_1">
   <path d="M 0 280.512 
L 287.042527 280.512 
L 287.042527 0 
L 0 0 
z
" style="fill: #ffffff"/>
  </g>
  <g id="axes_1">
   <g id="patch_2">
    <path d="M 7.2 273.312 
L 279.842527 273.312 
L 279.842527 7.2 
L 7.2 7.2 
z
" clip-path="url(#pdf081b77cf)" style="fill: #add8e6; stroke: #ffffff; stroke-linejoin: miter"/>
   </g>
   <g id="patch_3">
    <path d="M 7.2 273.312 
L 279.842527 273.312 
L 279.842527 7.2 
L 7.2 7.2 
z
" clip-path="url(#pdf081b77cf)" style="fill: #add8e6; stroke: #ffffff; stroke-linejoin: miter"/>
   </g>
   <g id="patch_4">
    <path d="M 279.84253 69.331846 
L 279.356817 68.736154 
L 279.84253 69.654214 
L 279.84253 77.792086 
L 277.6212 79.930659 
L 268.145987 61.692667 
L 269.255647 70.466646 
L 264.388264 65.264288 
L 266.955265 70.989803 
L 262.497931 68.311073 
L 258.748765 75.34507 
L 259.137766 68.135682 
L 255.134472 68.312709 
L 257.281316 76.123949 
L 255.552706 71.588237 
L 250.908265 74.294319 
L 253.96207 87.294391 
L 242.290165 78.676678 
L 238.486842 81.476227 
L 242.748527 63.48132 
L 238.447474 55.948343 
L 239.334191 70.197946 
L 229.322684 72.7985 
L 232.301271 78.998242 
L 224.245222 95.734315 
L 227.31462 97.486787 
L 218.76746 108.334919 
L 215.35858 106.931835 
L 221.080333 98.524143 
L 213.817449 106.730428 
L 209.763115 98.046183 
L 203.319138 115.363862 
L 201.765143 101.773985 
L 198.661833 116.784132 
L 195.746778 105.340898 
L 193.239418 113.888532 
L 194.986349 105.447057 
L 188.43986 109.806789 
L 189.173785 97.156867 
L 182.882973 109.134773 
L 187.079188 104.922751 
L 189.680087 121.786117 
L 185.791797 124.476304 
L 184.131786 110.742666 
L 177.176812 122.673509 
L 180.978584 113.335008 
L 165.183759 123.635675 
L 168.459329 134.328774 
L 160.922447 135.047351 
L 161.400695 142.550823 
L 149.765429 151.386037 
L 134.212255 186.9642 
L 139.36495 199.104963 
L 146.432156 195.331949 
L 148.30381 199.292522 
L 132.903815 205.641374 
L 135.876932 209.392205 
L 128.054752 214.546472 
L 129.794662 219.616583 
L 124.343791 217.70985 
L 129.424383 226.461787 
L 133.024633 221.910408 
L 139.570735 225.966842 
L 147.974464 242.877803 
L 145.334972 240.064378 
L 141.809941 243.60159 
L 150.734774 248.145611 
L 151.058276 256.595255 
L 161.376531 263.253377 
L 178.106013 256.34583 
L 173.583582 241.073054 
L 165.883384 238.776168 
L 175.565918 240.411825 
L 179.852944 258.6168 
L 180.148392 267.049474 
L 157.536568 268.086386 
L 149.564066 273.312 
L 145.21068 273.312 
L 147.369943 259.417424 
L 143.813727 264.435246 
L 142.212955 260.17297 
L 134.748564 271.939808 
L 131.308887 266.479798 
L 130.232536 273.312 
L 118.159591 273.312 
L 119.228131 262.44353 
L 114.05283 262.192348 
L 111.997989 267.376013 
L 106.674584 255.671737 
L 109.630945 262.686865 
L 104.157482 264.089697 
L 106.899084 270.640072 
L 106.223802 273.312 
L 7.2 273.312 
L 7.2 7.199994 
L 279.84253 7.199994 
z
" clip-path="url(#pdf081b77cf)" style="fill: #d3d3d3"/>
   </g>
   <g id="patch_5">
    <path d="M 20.922012 27.240582 
L 20.141313 33.163598 
L 15.519481 36.225171 
L 17.998776 45.503499 
L 15.146086 63.388327 
L 9.554909 64.065511 
L 13.869216 73.176188 
L 7.2 91.094483 
L 7.2 86.379978 
L 7.922963 84.407821 
L 7.2 80.045175 
L 7.2 31.954455 
L 8.348976 26.577209 
L 10.406545 41.701497 
L 20.836654 26.838285 
z
" clip-path="url(#pdf081b77cf)" style="fill: #add8e6"/>
   </g>
   <g id="matplotlib.axis_1"/>
   <g id="matplotlib.axis_2"/>
   <g id="LineCollection_1">
    <path d="M 279.842527 69.331841 
L 279.356809 68.73616 
L 279.842527 69.654221 
" clip-path="url(#pdf081b77cf)" style="fill: none; stroke: #000000; stroke-width: 0.6"/>
    <path d="M 279.842527 77.792086 
L 277.621186 79.93066 
L 268.146001 61.692663 
L 269.255662 70.466644 
L 264.388277 65.26429 
L 266.955269 70.989799 
L 262.497918 68.311076 
L 258.748769 75.345067 
L 259.137754 68.135676 
L 255.134479 68.312715 
L 257.281304 76.123952 
L 255.552697 71.588235 
L 250.908258 74.294323 
L 253.962066 87.294391 
L 242.290166 78.676676 
L 238.48684 81.476232 
L 242.748529 63.48132 
L 238.447473 55.948342 
L 239.334189 70.197941 
L 229.322687 72.798495 
L 232.301271 78.998246 
L 224.245219 95.734308 
L 227.314618 97.486785 
L 218.767463 108.334918 
L 215.358579 106.931837 
L 221.080328 98.524142 
L 213.817449 106.73043 
L 209.763114 98.046186 
L 203.319131 115.363868 
L 201.765138 101.773992 
L 198.66183 116.784136 
L 195.746778 105.340897 
L 193.23942 113.888532 
L 194.986347 105.44705 
L 188.439855 109.806785 
L 189.173783 97.15686 
L 182.882977 109.134768 
L 187.079186 104.922756 
L 189.680087 121.786119 
L 185.791792 124.476301 
L 184.131784 110.742669 
L 177.176819 122.673507 
L 180.978585 113.335012 
L 165.183752 123.635668 
L 168.459336 134.328771 
L 160.922452 135.047356 
L 161.400694 142.550818 
L 149.765432 151.386038 
L 134.212252 186.964201 
L 139.364945 199.104966 
L 146.432162 195.331946 
L 148.303813 199.292523 
L 132.903811 205.641377 
L 135.876938 209.392203 
L 128.054746 214.546472 
L 129.794657 219.616582 
L 124.343794 217.709851 
L 129.42438 226.461786 
L 133.024639 221.910407 
L 139.57074 225.966844 
L 147.974462 242.877802 
L 145.334974 240.064379 
L 141.80994 243.60159 
L 150.734777 248.14561 
L 151.058282 256.595255 
L 161.376528 263.253377 
L 178.106018 256.34583 
L 173.583576 241.073054 
L 165.88338 238.776169 
L 175.56592 240.411826 
L 179.852944 258.6168 
L 180.148386 267.049474 
L 157.536564 268.086386 
L 149.564067 273.312 
" clip-path="url(#pdf081b77cf)" style="fill: none; stroke: #000000; stroke-width: 0.6"/>
    <path d="M 145.210682 273.312 
L 147.369936 259.417424 
L 143.813721 264.435246 
L 142.212957 260.17297 
L 134.748569 271.939808 
L 131.308893 266.479798 
L 130.232536 273.312 
" clip-path="url(#pdf081b77cf)" style="fill: none; stroke: #000000; stroke-width: 0.6"/>
    <path d="M 118.15959 273.312 
L 119.22813 262.44353 
L 114.052831 262.192348 
L 111.997991 267.376013 
L 106.674581 255.671737 
L 109.630948 262.686865 
L 104.15748 264.089697 
L 106.899086 270.640072 
L 106.223804 273.312 
" clip-path="url(#pdf081b77cf)" style="fill: none; stroke: #000000; stroke-width: 0.6"/>
    <path d="M 20.922013 27.240581 
L 20.141313 33.163593 
L 15.519481 36.225171 
L 17.998776 45.503496 
L 15.146086 63.388323 
L 9.554909 64.065518 
L 13.869216 73.176187 
L 7.2 91.094488 
" clip-path="url(#pdf081b77cf)" style="fill: none; stroke: #000000; stroke-width: 0.6"/>
    <path d="M 7.2 86.379981 
L 7.922963 84.407821 
L 7.2 80.045175 
" clip-path="url(#pdf081b77cf)" style="fill: none; stroke: #000000; stroke-width: 0.6"/>
    <path d="M 7.2 31.954465 
L 8.348976 26.577223 
L 10.406545 41.701502 
L 20.836654 26.838274 
L 20.922013 27.240581 
" clip-path="url(#pdf081b77cf)" style="fill: none; stroke: #000000; stroke-width: 0.6"/>
   </g>
   <g id="LineCollection_2">
    <path d="M 7.2 31.735215 
L 9.310136 31.706374 
L 12.375248 31.663928 
L 15.440359 31.622033 
L 18.50508 31.580138 
L 21.570192 31.537691 
L 24.635303 31.495795 
L 27.700414 31.453898 
L 30.765526 31.412001 
L 33.830637 31.370104 
L 36.895748 31.328206 
L 39.960859 31.285757 
L 43.025971 31.243858 
L 46.091082 31.201959 
L 49.156193 31.159508 
L 52.221305 31.117608 
L 55.286416 31.075708 
L 58.351527 31.033807 
L 61.416639 30.991906 
L 64.48175 30.950004 
L 67.546861 30.908102 
L 70.611972 30.865648 
L 73.677084 30.823746 
L 76.742195 30.781291 
L 79.806917 30.739387 
L 82.872028 30.697483 
L 85.937139 30.655578 
L 89.00225 30.613673 
L 92.067362 30.571768 
L 95.132473 30.529862 
L 98.197584 30.487404 
L 101.262696 30.445498 
L 102.122517 30.433918 
L 104.875427 14.643981 
L 111.587568 10.08654 
L 120.215794 13.596033 
L 127.908845 7.2 
" clip-path="url(#pdf081b77cf)" style="fill: none; stroke: #ffffff; stroke-width: 0.6"/>
    <path d="M 129.711665 7.2 
L 133.555109 14.643981 
L 135.339555 7.2 
" clip-path="url(#pdf081b77cf)" style="fill: none; stroke: #ffffff; stroke-width: 0.6"/>
   </g>
   <g id="LineCollection_3">
    <path d="M 136.776516 182.585949 
L 133.758956 183.319335 
L 130.741006 184.053128 
L 127.723446 184.786264 
L 124.705886 185.519807 
L 121.687936 186.253224 
L 120.76926 186.476414 
L 112.311362 194.864727 
L 109.24703 194.756533 
L 106.183088 194.648337 
L 103.118756 194.540137 
L 100.054424 194.431935 
L 96.990482 194.32373 
L 93.926151 194.215522 
L 90.861819 194.107312 
L 87.797877 193.999099 
L 84.733545 193.890353 
L 81.669213 193.782134 
L 78.605271 193.673913 
L 75.54094 193.565689 
L 72.476608 193.457462 
L 69.412666 193.349233 
L 66.348334 193.241001 
L 63.284002 193.132766 
L 60.22006 193.024529 
L 57.155728 192.916288 
L 54.091397 192.808046 
L 51.027455 192.6998 
L 47.963123 192.591552 
L 44.898791 192.4833 
L 41.834849 192.375047 
L 38.770517 192.26679 
L 35.706186 192.158531 
L 32.642244 192.050269 
L 29.577912 191.942004 
L 26.51358 191.833737 
L 23.449248 191.725467 
L 20.385306 191.617194 
L 17.320975 191.508918 
L 14.256643 191.40064 
L 12.251302 191.329515 
L 12.298464 187.153882 
L 12.346015 182.974197 
L 12.393177 178.789915 
L 12.440728 174.602088 
L 12.48789 170.410171 
L 12.535051 166.213618 
L 12.582602 162.013484 
L 12.629764 157.809223 
L 12.677315 153.600285 
L 12.724477 149.387194 
L 12.771638 145.171008 
L 12.81919 140.949571 
L 12.866351 136.723941 
L 12.875706 135.89541 
L 9.413034 129.959242 
L 7.2 130.838896 
" clip-path="url(#pdf081b77cf)" style="fill: none; stroke: #ffffff; stroke-width: 0.3"/>
    <path d="M 7.2 82.880275 
L 8.065617 79.700164 
L 9.1554 75.693074 
L 10.245572 71.682142 
L 10.293123 71.506337 
L 7.2 63.383082 
" clip-path="url(#pdf081b77cf)" style="fill: none; stroke: #ffffff; stroke-width: 0.3"/>
    <path d="M 136.776516 182.585949 
L 133.758956 183.319335 
L 130.741006 184.053128 
L 127.723446 184.786264 
L 124.705886 185.519807 
L 121.687936 186.253224 
L 120.76926 186.476414 
L 112.311362 194.864727 
L 109.24703 194.756533 
L 106.183088 194.648337 
L 103.118756 194.540137 
L 100.054424 194.431935 
L 96.990482 194.32373 
L 93.926151 194.215522 
L 90.861819 194.107312 
L 87.797877 193.999099 
L 84.733545 193.890353 
L 81.669213 193.782134 
L 78.605271 193.673913 
L 75.54094 193.565689 
L 72.476608 193.457462 
L 69.412666 193.349233 
L 66.348334 193.241001 
L 63.284002 193.132766 
L 60.22006 193.024529 
L 57.155728 192.916288 
L 54.091397 192.808046 
L 51.027455 192.6998 
L 47.963123 192.591552 
L 44.898791 192.4833 
L 41.834849 192.375047 
L 38.770517 192.26679 
L 35.706186 192.158531 
L 32.642244 192.050269 
L 29.577912 191.942004 
L 26.51358 191.833737 
L 23.449248 191.725467 
L 20.385306 191.617194 
L 17.320975 191.508918 
L 14.256643 191.40064 
L 12.251302 191.329515 
L 12.298464 187.153882 
L 12.346015 182.974197 
L 12.393177 178.789915 
L 12.440728 174.602088 
L 12.48789 170.410171 
L 12.535051 166.213618 
L 12.582602 162.013484 
L 12.629764 157.809223 
L 12.677315 153.600285 
L 12.724477 149.387194 
L 12.771638 145.171008 
L 12.81919 140.949571 
L 12.866351 136.723941 
L 12.875706 135.89541 
L 9.413034 129.979165 
L 7.2 130.851488 
" clip-path="url(#pdf081b77cf)" style="fill: none; stroke: #ffffff; stroke-width: 0.3"/>
    <path d="M 7.2 82.880275 
L 8.065617 79.700164 
L 9.1554 75.693074 
L 10.245572 71.682142 
L 10.293123 71.506337 
L 7.2 64.012258 
" clip-path="url(#pdf081b77cf)" style="fill: none; stroke: #ffffff; stroke-width: 0.3"/>
    <path d="M 102.122517 30.433918 
L 100.679997 34.257825 
L 99.237087 38.078754 
L 97.794567 41.896166 
L 96.352047 45.710069 
L 94.909138 49.520473 
L 94.757129 49.922231 
L 97.32568 66.374706 
L 94.566924 68.248239 
L 91.808168 70.120386 
L 89.049412 71.99224 
L 86.290656 73.863257 
L 83.5319 75.733437 
L 80.773144 77.602781 
L 78.014388 79.471291 
L 75.255632 81.338968 
L 74.733736 81.691924 
L 74.11479 85.884817 
L 73.495453 90.073524 
L 72.876507 94.2586 
L 72.25756 98.438971 
L 71.638223 102.615735 
L 71.157643 105.855392 
L 69.399024 109.342553 
L 67.640405 112.825754 
L 65.881785 116.307165 
L 64.123166 119.785172 
L 62.364937 123.260322 
L 60.606317 126.733162 
L 58.847698 130.20262 
L 57.089079 133.669244 
L 55.95915 135.89541 
L 55.251337 140.007981 
L 54.543524 144.116041 
L 53.835711 148.220679 
L 53.127898 152.321368 
L 52.420475 156.41812 
L 51.712661 160.510947 
L 51.004848 164.599861 
L 50.297035 168.684874 
L 49.589222 172.765463 
L 48.881409 176.842708 
L 48.173596 180.916086 
L 47.728484 183.476207 
L 52.539353 193.068567 
" clip-path="url(#pdf081b77cf)" style="fill: none; stroke: #ffffff; stroke-width: 0.3"/>
    <path d="M 102.122517 30.433918 
L 100.679997 34.257825 
L 99.237087 38.078754 
L 97.794567 41.896166 
L 96.352047 45.710069 
L 94.909138 49.520473 
L 94.757129 49.922231 
L 97.32568 66.374706 
L 94.567314 68.248785 
L 91.808948 70.12257 
L 89.050581 71.995516 
L 86.292215 73.867622 
L 83.533459 75.738345 
L 80.775093 77.608233 
L 78.016726 79.47783 
L 75.25836 81.346594 
L 74.748158 81.691924 
L 74.126872 85.884273 
L 73.505197 90.072437 
L 72.883912 94.256428 
L 72.262237 98.436258 
L 71.640952 102.611942 
L 71.157643 105.855392 
L 69.399024 109.342553 
L 67.640405 112.825754 
L 65.881785 116.307165 
L 64.123166 119.785172 
L 62.364937 123.260322 
L 60.606317 126.733162 
L 58.847698 130.20262 
L 57.089079 133.669244 
L 55.95915 135.89541 
L 55.252506 140.008518 
L 54.545863 144.117115 
L 53.839219 148.221751 
L 53.132965 152.322975 
L 52.426321 156.420261 
L 51.719677 160.513086 
L 51.013033 164.601998 
L 50.30639 168.687542 
L 49.599746 172.769194 
L 48.893102 176.846436 
L 48.186458 180.91981 
L 47.742906 183.476207 
L 52.539353 193.068567 
" clip-path="url(#pdf081b77cf)" style="fill: none; stroke: #ffffff; stroke-width: 0.3"/>
    <path d="M 123.039641 10.005635 
L 123.208799 14.355033 
L 123.377957 18.699294 
L 123.547115 23.039538 
L 123.716273 27.374675 
L 123.885431 31.705271 
L 124.054589 36.031341 
L 124.223747 40.35345 
L 124.392905 44.670511 
L 124.562063 48.983636 
L 124.731221 53.291743 
L 124.900379 57.595394 
L 125.069537 61.894603 
L 125.238695 66.18993 
L 125.407853 70.480297 
L 125.577011 74.766808 
L 125.746169 79.048387 
L 125.915327 83.325593 
L 126.084485 87.598439 
L 126.253643 91.867483 
L 126.4228 96.131651 
L 126.591958 100.392041 
L 126.761116 104.647584 
L 126.930274 108.898834 
L 127.099432 113.145805 
L 127.26859 117.38905 
L 127.437748 121.627502 
L 127.606906 125.862254 
L 127.776064 130.09224 
L 127.945222 134.318013 
L 128.11438 138.539585 
L 128.283538 142.757507 
L 128.418007 146.102339 
L 130.254969 149.478314 
L 132.091541 152.851619 
L 133.928503 156.222259 
L 135.765076 159.590242 
L 137.602038 162.955574 
L 139.43861 166.318262 
L 140.579842 168.406328 
" clip-path="url(#pdf081b77cf)" style="fill: none; stroke: #ffffff; stroke-width: 0.3"/>
    <path d="M 123.039641 10.005635 
L 123.208799 14.355033 
L 123.377957 18.699294 
L 123.547115 23.039538 
L 123.716273 27.374675 
L 123.885431 31.705271 
L 124.054589 36.031341 
L 124.223747 40.35345 
L 124.392905 44.670511 
L 124.562063 48.983636 
L 124.731221 53.291743 
L 124.900379 57.595394 
L 125.069537 61.894603 
L 125.238695 66.18993 
L 125.407853 70.480297 
L 125.577011 74.766808 
L 125.746169 79.048387 
L 125.915327 83.325593 
L 126.084485 87.598439 
L 126.253643 91.867483 
L 126.4228 96.131651 
L 126.591958 100.392041 
L 126.761116 104.647584 
L 126.930274 108.898834 
L 127.099432 113.145805 
L 127.26859 117.38905 
L 127.437748 121.627502 
L 127.606906 125.862254 
L 127.776064 130.09224 
L 127.945222 134.318013 
L 128.11438 138.539585 
L 128.283538 142.757507 
L 128.418007 146.102339 
L 130.254969 149.478314 
L 132.091541 152.851619 
L 133.928503 156.222259 
L 135.765076 159.590242 
L 137.602038 162.955574 
L 139.43861 166.318262 
L 140.579842 168.406328 
" clip-path="url(#pdf081b77cf)" style="fill: none; stroke: #ffffff; stroke-width: 0.3"/>
    <path d="M 7.2 239.632075 
L 9.865941 239.689608 
L 12.930663 239.755747 
L 15.995774 239.821884 
L 19.060495 239.88802 
L 22.125217 239.95468 
L 25.189938 240.020814 
L 28.25505 240.087473 
L 31.319771 240.153605 
L 34.384493 240.219736 
L 37.449604 240.285866 
L 40.514326 240.351995 
L 43.579047 240.418648 
L 46.644158 240.484776 
L 49.70888 240.551427 
L 52.773602 240.617552 
L 55.838713 240.683676 
L 58.903434 240.749799 
L 61.968156 240.815921 
L 65.032877 240.882567 
L 68.097989 240.948687 
L 71.16271 241.015331 
L 74.227432 241.081449 
L 77.292543 241.147567 
L 80.357265 241.213683 
L 83.421986 241.279798 
L 86.384589 241.343813 
L 86.20179 245.461387 
L 86.01899 249.574568 
L 85.83619 253.684415 
L 85.65339 257.789893 
L 85.470591 261.891537 
L 85.287791 265.989359 
L 85.104991 270.083371 
L 84.96073 273.312 
" clip-path="url(#pdf081b77cf)" style="fill: none; stroke: #ffffff; stroke-width: 0.3"/>
    <path d="M 7.2 239.632075 
L 9.865941 239.689608 
L 12.930663 239.755747 
L 15.995774 239.821884 
L 19.060495 239.88802 
L 22.125217 239.95468 
L 25.189938 240.020814 
L 28.25505 240.087473 
L 31.319771 240.153605 
L 34.384493 240.219736 
L 37.449604 240.285866 
L 40.514326 240.351995 
L 43.579047 240.418648 
L 46.644158 240.484776 
L 49.70888 240.551427 
L 52.773602 240.617552 
L 55.838713 240.683676 
L 58.903434 240.749799 
L 61.968156 240.815921 
L 65.032877 240.882567 
L 68.097989 240.948687 
L 71.16271 241.015331 
L 74.227432 241.081449 
L 77.292543 241.147567 
L 80.357265 241.213683 
L 83.421986 241.279798 
L 86.384589 241.343813 
L 86.20179 245.461387 
L 86.01899 249.574568 
L 85.83619 253.684415 
L 85.65339 257.789893 
L 85.470591 261.891537 
L 85.287791 265.989359 
L 85.104991 270.083371 
L 84.96073 273.312 
" clip-path="url(#pdf081b77cf)" style="fill: none; stroke: #ffffff; stroke-width: 0.3"/>
    <path d="M 12.166334 191.252549 
L 11.076941 195.152701 
L 9.987548 199.049332 
L 8.898155 202.942453 
L 7.809152 206.831544 
L 7.2 209.005261 
" clip-path="url(#pdf081b77cf)" style="fill: none; stroke: #ffffff; stroke-width: 0.3"/>
    <path d="M 12.166334 191.252549 
L 11.076941 195.152701 
L 9.987548 199.049332 
L 8.898155 202.942453 
L 7.809152 206.831544 
L 7.2 209.005261 
" clip-path="url(#pdf081b77cf)" style="fill: none; stroke: #ffffff; stroke-width: 0.3"/>
    <path d="M 86.526464 242.528452 
L 89.591185 242.464454 
L 92.656297 242.40098 
L 95.721018 242.337505 
L 98.786129 242.273504 
L 101.850851 242.209502 
L 104.915572 242.1455 
L 107.642758 242.088841 
L 109.970044 257.476234 
L 120.130436 267.173102 
L 120.579364 273.312 
" clip-path="url(#pdf081b77cf)" style="fill: none; stroke: #ffffff; stroke-width: 0.3"/>
    <path d="M 86.526464 242.528452 
L 89.591185 242.464454 
L 92.656297 242.40098 
L 95.721018 242.337505 
L 98.786129 242.273504 
L 101.850851 242.209502 
L 104.915572 242.1455 
L 107.642758 242.088841 
L 109.955623 257.476234 
L 120.130436 267.173102 
L 120.579364 273.312 
" clip-path="url(#pdf081b77cf)" style="fill: none; stroke: #ffffff; stroke-width: 0.3"/>
   </g>
   <g id="line2d_1">
    <path d="M 139.498652 168.963547 
L 161.892293 133.116586 
L 165.411136 127.521892 
L 165.411136 127.521892 
" clip-path="url(#pdf081b77cf)" style="fill: none; stroke: #008000; stroke-width: 0.75; stroke-linecap: square"/>
   </g>
   <g id="line2d_2">
    <path d="M 139.498652 168.963547 
L 138.902464 143.185685 
L 138.902464 143.185685 
" clip-path="url(#pdf081b77cf)" style="fill: none; stroke: #008000; stroke-width: 0.75; stroke-linecap: square"/>
   </g>
   <g id="line2d_3">
    <path d="M 139.498652 168.963547 
L 108.8912 173.5506 
L 104.134002 174.283679 
L 104.134002 174.283679 
" clip-path="url(#pdf081b77cf)" style="fill: none; stroke: #008000; stroke-width: 0.75; stroke-linecap: square"/>
   </g>
   <g id="line2d_4">
    <path d="M 133.821835 160.135682 
L 159.466158 133.622583 
L 165.411136 127.521892 
L 165.411136 127.521892 
" clip-path="url(#pdf081b77cf)" style="fill: none; stroke: #008000; stroke-width: 0.75; stroke-linecap: square"/>
   </g>
   <g id="line2d_5">
    <path d="M 133.821835 160.135682 
L 103.507799 167.783559 
L 73.124409 175.679071 
L 62.071301 178.608588 
L 62.071301 178.608588 
" clip-path="url(#pdf081b77cf)" style="fill: none; stroke: #008000; stroke-width: 0.75; stroke-linecap: square"/>
   </g>
   <g id="line2d_6">
    <path d="M 155.293302 139.431834 
L 165.411136 127.521892 
L 165.411136 127.521892 
" clip-path="url(#pdf081b77cf)" style="fill: none; stroke: #008000; stroke-width: 0.75; stroke-linecap: square"/>
   </g>
   <g id="line2d_7">
    <path d="M 155.293302 139.431834 
L 138.902464 143.185685 
L 138.902464 143.185685 
" clip-path="url(#pdf081b77cf)" style="fill: none; stroke: #008000; stroke-width: 0.75; stroke-linecap: square"/>
   </g>
   <g id="line2d_8">
    <path d="M 124.314494 218.563296 
L 106.106992 224.033308 
L 106.106992 224.033308 
" clip-path="url(#pdf081b77cf)" style="fill: none; stroke: #008000; stroke-width: 0.75; stroke-linecap: square"/>
   </g>
   <g id="line2d_9">
    <path d="M 124.314494 218.563296 
L 104.388185 174.837984 
L 104.134002 174.283679 
L 104.134002 174.283679 
" clip-path="url(#pdf081b77cf)" style="fill: none; stroke: #008000; stroke-width: 0.75; stroke-linecap: square"/>
   </g>
   <g id="line2d_10">
    <path d="M 106.106992 224.033308 
L 86.381177 225.184195 
L 86.381177 225.184195 
" clip-path="url(#pdf081b77cf)" style="fill: none; stroke: #008000; stroke-width: 0.75; stroke-linecap: square"/>
   </g>
   <g id="line2d_11">
    <path d="M 62.071301 178.608588 
L 46.148932 236.291494 
L 46.148932 236.291494 
" clip-path="url(#pdf081b77cf)" style="fill: none; stroke: #008000; stroke-width: 0.75; stroke-linecap: square"/>
   </g>
   <g id="line2d_12">
    <path d="M 86.381177 225.184195 
L 55.862155 233.573136 
L 46.148932 236.291494 
L 46.148932 236.291494 
" clip-path="url(#pdf081b77cf)" style="fill: none; stroke: #008000; stroke-width: 0.75; stroke-linecap: square"/>
   </g>
   <g id="line2d_13">
    <path d="M 240.893594 46.258718 
L 213.227415 64.938241 
L 185.625647 83.842491 
L 167.482724 96.414938 
L 167.482724 96.414938 
" clip-path="url(#pdf081b77cf)" style="fill: none; stroke: #008000; stroke-width: 0.75; stroke-linecap: square"/>
   </g>
   <g id="line2d_14">
    <path d="M 240.893594 46.258718 
L 213.349746 65.07415 
L 189.720501 81.429615 
L 189.720501 81.429615 
" clip-path="url(#pdf081b77cf)" style="fill: none; stroke: #008000; stroke-width: 0.75; stroke-linecap: square"/>
   </g>
   <g id="line2d_15">
    <path d="M 165.411136 127.521892 
L 167.482724 96.414938 
L 167.482724 96.414938 
" clip-path="url(#pdf081b77cf)" style="fill: none; stroke: #008000; stroke-width: 0.75; stroke-linecap: square"/>
   </g>
   <g id="line2d_16">
    <path d="M 165.411136 127.521892 
L 150.255076 122.261828 
L 150.255076 122.261828 
" clip-path="url(#pdf081b77cf)" style="fill: none; stroke: #008000; stroke-width: 0.75; stroke-linecap: square"/>
   </g>
   <g id="line2d_17">
    <path d="M 165.368222 85.294557 
L 189.720501 81.429615 
L 189.720501 81.429615 
" clip-path="url(#pdf081b77cf)" style="fill: none; stroke: #008000; stroke-width: 0.75; stroke-linecap: square"/>
   </g>
   <g id="line2d_18">
    <path d="M 165.368222 85.294557 
L 138.064632 74.741039 
L 138.064632 74.741039 
" clip-path="url(#pdf081b77cf)" style="fill: none; stroke: #008000; stroke-width: 0.75; stroke-linecap: square"/>
   </g>
   <g id="line2d_19">
    <path d="M 138.064632 74.741039 
L 150.623926 88.324932 
L 150.623926 88.324932 
" clip-path="url(#pdf081b77cf)" style="fill: none; stroke: #008000; stroke-width: 0.75; stroke-linecap: square"/>
   </g>
   <g id="line2d_20">
    <path d="M 150.623926 88.324932 
L 159.791025 82.936481 
L 159.791025 82.936481 
" clip-path="url(#pdf081b77cf)" style="fill: none; stroke: #008000; stroke-width: 0.75; stroke-linecap: square"/>
   </g>
   <g id="line2d_21">
    <path d="M 150.623926 88.324932 
L 150.255076 122.261828 
L 150.255076 122.261828 
" clip-path="url(#pdf081b77cf)" style="fill: none; stroke: #008000; stroke-width: 0.75; stroke-linecap: square"/>
   </g>
   <g id="line2d_22">
    <path d="M 150.255076 122.261828 
L 159.791025 82.936481 
L 159.791025 82.936481 
" clip-path="url(#pdf081b77cf)" style="fill: none; stroke: #008000; stroke-width: 0.75; stroke-linecap: square"/>
   </g>
   <g id="line2d_23">
    <path d="M 159.791025 82.936481 
L 189.720501 81.429615 
L 189.720501 81.429615 
" clip-path="url(#pdf081b77cf)" style="fill: none; stroke: #008000; stroke-width: 0.75; stroke-linecap: square"/>
   </g>
   <g id="line2d_24">
    <path d="M 189.720501 81.429615 
L 167.482724 96.414938 
L 167.482724 96.414938 
" clip-path="url(#pdf081b77cf)" style="fill: none; stroke: #008000; stroke-width: 0.75; stroke-linecap: square"/>
   </g>
   <g id="line2d_25">
    <path d="M 189.720501 81.429615 
L 189.720501 81.429615 
L 189.720501 81.429615 
" clip-path="url(#pdf081b77cf)" style="fill: none; stroke: #008000; stroke-width: 0.75; stroke-linecap: square"/>
   </g>
   <g id="line2d_26">
    <path d="M 167.482724 96.414938 
L 189.720501 81.429615 
L 189.720501 81.429615 
" clip-path="url(#pdf081b77cf)" style="fill: none; stroke: #008000; stroke-width: 0.75; stroke-linecap: square"/>
   </g>
   <g id="patch_6">
    <path d="M 7.2 273.312 
L 7.2 7.2 
" style="fill: none; stroke: #ffffff; stroke-linejoin: miter; stroke-linecap: square"/>
   </g>
   <g id="patch_7">
    <path d="M 279.842527 273.312 
L 279.842527 7.2 
" style="fill: none; stroke: #ffffff; stroke-linejoin: miter; stroke-linecap: square"/>
   </g>
   <g id="patch_8">
    <path d="M 7.2 273.312 
L 279.842527 273.312 
" style="fill: none; stroke: #ffffff; stroke-linejoin: miter; stroke-linecap: square"/>
   </g>
   <g id="patch_9">
    <path d="M 7.2 7.2 
L 279.842527 7.2 
" style="fill: none; stroke: #ffffff; stroke-linejoin: miter; stroke-linecap: square"/>
   </g>
   <g id="PathCollection_1">
    <defs>
     <path id="m5e833f2e71" d="M 0 1.118034 
C 0.296506 1.118034 0.580908 1.000231 0.790569 0.790569 
C 1.000231 0.580908 1.118034 0.296506 1.118034 0 
C 1.118034 -0.296506 1.000231 -0.580908 0.790569 -0.790569 
C 0.580908 -1.000231 0.296506 -1.118034 0 -1.118034 
C -0.296506 -1.118034 -0.580908 -1.000231 -0.790569 -0.790569 
C -1.000231 -0.580908 -1.118034 -0.296506 -1.118034 0 
C -1.118034 0.296506 -1.000231 0.580908 -0.790569 0.790569 
C -0.580908 1.000231 -0.296506 1.118034 0 1.118034 
z
" style="stroke: #ff0000"/>
    </defs>
    <g clip-path="url(#pdf081b77cf)">
     <use xlink:href="#m5e833f2e71" x="139.498652" y="168.963547" style="fill: #ff0000; stroke: #ff0000"/>
    </g>
   </g>
   <g id="PathCollection_2">
    <g clip-path="url(#pdf081b77cf)">
     <use xlink:href="#m5e833f2e71" x="133.821835" y="160.135682" style="fill: #ff0000; stroke: #ff0000"/>
    </g>
   </g>
   <g id="PathCollection_3">
    <g clip-path="url(#pdf081b77cf)">
     <use xlink:href="#m5e833f2e71" x="155.293302" y="139.431834" style="fill: #ff0000; stroke: #ff0000"/>
    </g>
   </g>
   <g id="PathCollection_4">
    <g clip-path="url(#pdf081b77cf)">
     <use xlink:href="#m5e833f2e71" x="138.902464" y="143.185685" style="fill: #ff0000; stroke: #ff0000"/>
    </g>
   </g>
   <g id="PathCollection_5">
    <g clip-path="url(#pdf081b77cf)">
     <use xlink:href="#m5e833f2e71" x="124.314494" y="218.563296" style="fill: #ff0000; stroke: #ff0000"/>
    </g>
   </g>
   <g id="PathCollection_6">
    <g clip-path="url(#pdf081b77cf)">
     <use xlink:href="#m5e833f2e71" x="106.106992" y="224.033308" style="fill: #ff0000; stroke: #ff0000"/>
    </g>
   </g>
   <g id="PathCollection_7">
    <g clip-path="url(#pdf081b77cf)">
     <use xlink:href="#m5e833f2e71" x="104.134002" y="174.283679" style="fill: #ff0000; stroke: #ff0000"/>
    </g>
   </g>
   <g id="PathCollection_8">
    <g clip-path="url(#pdf081b77cf)">
     <use xlink:href="#m5e833f2e71" x="62.071301" y="178.608588" style="fill: #ff0000; stroke: #ff0000"/>
    </g>
   </g>
   <g id="PathCollection_9">
    <g clip-path="url(#pdf081b77cf)">
     <use xlink:href="#m5e833f2e71" x="86.381177" y="225.184195" style="fill: #ff0000; stroke: #ff0000"/>
    </g>
   </g>
   <g id="PathCollection_10">
    <g clip-path="url(#pdf081b77cf)">
     <use xlink:href="#m5e833f2e71" x="46.148932" y="236.291494" style="fill: #ff0000; stroke: #ff0000"/>
    </g>
   </g>
   <g id="PathCollection_11">
    <g clip-path="url(#pdf081b77cf)">
     <use xlink:href="#m5e833f2e71" x="240.893594" y="46.258718" style="fill: #ff0000; stroke: #ff0000"/>
    </g>
   </g>
   <g id="PathCollection_12">
    <g clip-path="url(#pdf081b77cf)">
     <use xlink:href="#m5e833f2e71" x="165.411136" y="127.521892" style="fill: #ff0000; stroke: #ff0000"/>
    </g>
   </g>
   <g id="PathCollection_13">
    <g clip-path="url(#pdf081b77cf)">
     <use xlink:href="#m5e833f2e71" x="165.368222" y="85.294557" style="fill: #ff0000; stroke: #ff0000"/>
    </g>
   </g>
   <g id="PathCollection_14">
    <g clip-path="url(#pdf081b77cf)">
     <use xlink:href="#m5e833f2e71" x="138.064632" y="74.741039" style="fill: #ff0000; stroke: #ff0000"/>
    </g>
   </g>
   <g id="PathCollection_15">
    <g clip-path="url(#pdf081b77cf)">
     <use xlink:href="#m5e833f2e71" x="150.623926" y="88.324932" style="fill: #ff0000; stroke: #ff0000"/>
    </g>
   </g>
   <g id="PathCollection_16">
    <g clip-path="url(#pdf081b77cf)">
     <use xlink:href="#m5e833f2e71" x="150.255076" y="122.261828" style="fill: #ff0000; stroke: #ff0000"/>
    </g>
   </g>
   <g id="PathCollection_17">
    <g clip-path="url(#pdf081b77cf)">
     <use xlink:href="#m5e833f2e71" x="159.791025" y="82.936481" style="fill: #ff0000; stroke: #ff0000"/>
    </g>
   </g>
   <g id="PathCollection_18">
    <g clip-path="url(#pdf081b77cf)">
     <use xlink:href="#m5e833f2e71" x="189.720501" y="81.429615" style="fill: #ff0000; stroke: #ff0000"/>
    </g>
   </g>
   <g id="PathCollection_19">
    <g clip-path="url(#pdf081b77cf)">
     <use xlink:href="#m5e833f2e71" x="167.482724" y="96.414938" style="fill: #ff0000; stroke: #ff0000"/>
    </g>
   </g>
   <g id="PathCollection_20">
    <g clip-path="url(#pdf081b77cf)">
     <use xlink:href="#m5e833f2e71" x="189.720501" y="81.429615" style="fill: #ff0000; stroke: #ff0000"/>
    </g>
   </g>
  </g>
 </g>
 <defs>
  <clipPath id="pdf081b77cf">
   <rect x="7.2" y="7.2" width="272.642527" height="266.112"/>
  </clipPath>
 </defs>
</svg>
