<?xml version="1.0" encoding="utf-8" standalone="no"?>
<!DOCTYPE svg PUBLIC "-//W3C//DTD SVG 1.1//EN"
  "http://www.w3.org/Graphics/SVG/1.1/DTD/svg11.dtd">
<svg xmlns:xlink="http://www.w3.org/1999/xlink" width="339.050587pt" height="280.512pt" viewBox="0 0 339.050587 280.512" xmlns="http://www.w3.org/2000/svg" version="1.1">
 <metadata>
  <rdf:RDF xmlns:dc="http://purl.org/dc/elements/1.1/" xmlns:cc="http://creativecommons.org/ns#" xmlns:rdf="http://www.w3.org/1999/02/22-rdf-syntax-ns#">
   <cc:Work>
    <dc:type rdf:resource="http://purl.org/dc/dcmitype/StillImage"/>
    <dc:date>2025-12-17T16:20:55.246347</dc:date>
    <dc:format>image/svg+xml</dc:format>
    <dc:creator>
     <cc:Agent>
      <dc:title>Matplotlib v3.10.6, https://matplotlib.org/</dc:title>
     </cc:Agent>
    </dc:creator>
   </cc:Work>
  </rdf:RDF>
 </metadata>
 <defs>
  <style type="text/css">*{stroke-linejoin: round; stroke-linecap: butt}</style>
 </defs>
 <g id="figure_1">
  <g id="patch_1">
   <path d="M 0 280.512 
L 339.050587 280.512 
L 339.050587 0 
L 0 0 
z
" style="fill: #ffffff"/>
  </g>
  <g id="axes_1">
   <g id="patch_2">
    <path d="M 7.2 273.312 
L 331.850587 273.312 
L 331.850587 7.2 
L 7.2 7.2 
z
" clip-path="url(#pd2d382fff8)" style="fill: #add8e6; stroke: #ffffff; stroke-linejoin: miter"/>
   </g>
   <g id="patch_3">
    <path d="M 7.2 273.312 
L 331.850587 273.312 
L 331.850587 7.2 
L 7.2 7.2 
z
" clip-path="url(#pd2d382fff8)" style="fill: #add8e6; stroke: #ffffff; stroke-linejoin: miter"/>
   </g>
   <g id="patch_4">
    <path d="M 7.2 47.289887 
L 12.271425 43.474142 
L 14.632498 50.861913 
L 24.093457 59.640554 
L 31.174822 56.167623 
L 31.851471 62.492068 
L 36.390461 67.231669 
L 33.781612 70.968847 
L 45.627514 74.905185 
L 44.909091 77.604054 
L 47.561362 75.818686 
L 54.607741 81.945094 
L 53.24703 77.243215 
L 59.225342 67.117034 
L 58.396612 62.549529 
L 96.474847 52.189637 
L 106.903034 38.712952 
L 145.16319 25.180246 
L 155.413163 24.986226 
L 167.844353 33.534309 
L 168.451231 36.386475 
L 157.953279 27.306032 
L 161.863766 42.952486 
L 168.043755 47.9142 
L 187.060346 45.136931 
L 197.221823 34.137518 
L 189.576992 44.171139 
L 179.667193 48.244611 
L 180.451474 51.19146 
L 184.385432 50.902803 
L 183.600954 53.613938 
L 200.144716 37.126197 
L 211.631096 32.407034 
L 202.705815 33.628931 
L 200.457934 30.05498 
L 197.534419 34.255579 
L 198.770629 21.219028 
L 211.473039 19.904541 
L 218.094875 13.412547 
L 221.799426 7.200008 
L 224.240098 7.200008 
L 214.376587 19.413616 
L 227.258053 22.488245 
L 234.153383 19.61502 
L 232.264599 8.149562 
L 232.878982 7.200008 
L 331.85058 7.200008 
L 331.85058 273.312 
L 7.2 273.312 
z
" clip-path="url(#pd2d382fff8)" style="fill: #d3d3d3"/>
   </g>
   <g id="matplotlib.axis_1"/>
   <g id="matplotlib.axis_2"/>
   <g id="LineCollection_1">
    <path d="M 7.2 42.97111 
L 10.71974 43.610734 
L 7.2 44.273016 
" clip-path="url(#pd2d382fff8)" style="fill: none; stroke: #000000; stroke-width: 0.6"/>
    <path d="M 7.2 47.289882 
L 12.271425 43.474147 
L 14.632498 50.861907 
L 24.093457 59.640561 
L 31.174822 56.167625 
L 31.851472 62.492075 
L 36.39046 67.231663 
L 33.781612 70.968851 
L 45.627516 74.905182 
L 44.909089 77.604053 
L 47.56136 75.818681 
L 54.60774 81.945092 
L 53.247031 77.243218 
L 59.225342 67.11703 
L 58.39661 62.549531 
L 96.474845 52.189634 
L 106.903035 38.712955 
L 145.163192 25.180244 
L 155.413164 24.986222 
L 167.844345 33.534305 
L 168.451231 36.38648 
L 157.953277 27.306035 
L 161.863771 42.95248 
L 168.04376 47.9142 
L 187.060343 45.136936 
L 197.221824 34.137515 
L 189.576995 44.171132 
L 179.6672 48.244615 
L 180.45148 51.191458 
L 184.385435 50.902795 
L 183.600949 53.613939 
L 200.144713 37.126192 
L 211.631095 32.407039 
L 202.705817 33.628925 
L 200.457932 30.054986 
L 197.534425 34.255574 
L 198.770628 21.219035 
L 211.473045 19.904547 
L 218.094873 13.412537 
L 221.799425 7.2 
" clip-path="url(#pd2d382fff8)" style="fill: none; stroke: #000000; stroke-width: 0.6"/>
    <path d="M 224.240101 7.2 
L 214.37659 19.413618 
L 227.258048 22.488241 
L 234.153376 19.615022 
L 232.2646 8.149569 
L 232.878975 7.2 
" clip-path="url(#pd2d382fff8)" style="fill: none; stroke: #000000; stroke-width: 0.6"/>
   </g>
   <g id="LineCollection_2">
    <path d="M 7.2 221.861372 
L 8.400238 221.763053 
L 10.016337 221.629998 
L 11.298226 221.52471 
L 12.706885 220.274398 
L 14.115749 219.022659 
L 15.524614 217.770461 
L 16.933273 216.51748 
L 18.342137 215.263714 
L 19.750796 214.009162 
L 21.15966 212.753498 
L 21.937767 212.059821 
L 24.282993 213.748495 
L 26.680697 209.222258 
L 28.296795 209.086416 
L 29.9131 208.950565 
L 31.529199 208.81503 
L 33.145298 208.679486 
L 34.761396 208.543607 
L 34.855238 208.535805 
L 36.173965 205.704946 
L 37.757137 205.173264 
L 39.340309 204.641441 
L 40.923481 204.10915 
L 42.506652 203.577043 
L 44.089618 203.044794 
L 45.67279 202.512076 
L 47.255962 201.979869 
L 48.839134 201.446866 
L 49.196392 201.326807 
L 45.569893 197.271859 
L 46.911052 194.484518 
L 52.298322 194.675373 
L 55.363003 202.84659 
L 59.341615 204.531346 
L 65.777817 202.431211 
L 66.22727 195.544954 
L 70.295814 195.938218 
L 71.354212 197.883766 
L 72.412404 199.827413 
L 73.470801 201.769164 
L 74.528993 203.709024 
L 75.587185 205.646998 
L 75.877971 206.178879 
L 77.49263 206.354622 
L 79.107082 206.53035 
L 80.72174 206.706388 
L 82.336399 206.882085 
L 83.951057 207.057766 
L 85.565509 207.233432 
L 87.180168 207.409082 
L 87.633943 207.458522 
L 92.871395 213.72515 
L 95.538895 211.244491 
L 102.589391 211.941696 
L 104.695073 214.975992 
L 98.123871 221.195569 
L 99.433337 222.687737 
L 100.742803 224.179118 
L 102.052269 225.669392 
L 103.361529 227.15856 
L 104.671201 228.646626 
L 105.980461 230.133269 
L 107.290133 231.619136 
L 108.599393 233.103585 
L 109.909065 234.587261 
L 109.924911 234.605231 
L 111.469806 233.853585 
L 113.014906 233.101016 
L 114.559594 232.348808 
L 116.104694 231.595677 
L 117.649588 230.842906 
L 119.194482 230.089532 
L 120.392202 229.505095 
L 116.623294 220.630833 
L 118.219637 221.050523 
L 119.815774 221.469803 
L 121.412116 221.888995 
L 123.008253 222.308423 
L 124.60439 222.727763 
L 125.037792 222.841379 
L 131.503833 228.73191 
L 139.16883 225.765438 
L 140.187921 230.383455 
L 135.902059 232.068666 
L 137.250831 234.546829 
L 143.177693 240.054136 
L 147.913009 238.923523 
L 147.688282 236.672254 
L 149.118137 237.852506 
L 150.548199 239.031746 
L 151.97826 240.210938 
L 153.408115 241.388801 
L 154.838176 242.566298 
L 155.180823 242.848501 
L 162.126776 242.743678 
L 163.655207 250.918859 
L 168.405545 252.772432 
L 169.243332 254.910876 
L 170.081118 257.047385 
L 170.918905 259.181648 
L 171.756692 261.313355 
L 172.594272 263.443146 
L 172.938771 264.317648 
L 178.955359 263.81102 
L 180.245069 262.307788 
L 181.534779 260.803444 
L 182.824489 259.297986 
L 184.114198 257.791412 
L 185.403703 256.283402 
L 186.11081 255.456568 
L 190.733762 264.041264 
L 194.847375 263.903374 
L 194.330421 272.188647 
L 195.940757 272.435583 
L 197.551094 272.68312 
L 199.161431 272.929996 
L 200.771767 273.176843 
L 201.652438 273.312 
" clip-path="url(#pd2d382fff8)" style="fill: none; stroke: #ffffff; stroke-width: 0.6"/>
    <path d="M 202.746654 273.312 
L 204.378304 267.699526 
L 209.338346 264.248713 
L 210.954651 264.117479 
L 212.570544 263.986551 
L 214.186848 263.8553 
L 215.803153 263.724356 
L 217.419252 263.593403 
L 219.035351 263.462442 
L 219.423478 263.430808 
L 225.222953 268.481008 
L 230.108293 265.571974 
L 229.666247 263.15462 
L 231.284198 263.097353 
L 232.902149 263.0404 
L 234.5201 262.98313 
L 236.138051 262.925858 
L 237.756002 262.868901 
L 239.374159 262.811309 
L 240.99211 262.754349 
L 242.610267 262.697071 
L 244.007195 262.647702 
L 245.566701 263.313441 
L 247.126 263.978645 
L 248.685506 264.643948 
L 250.244806 265.309034 
L 251.804311 265.973903 
L 253.290554 266.607601 
L 255.471145 272.005315 
L 257.039294 272.616357 
L 258.607855 273.227531 
L 258.824649 273.312 
" clip-path="url(#pd2d382fff8)" style="fill: none; stroke: #ffffff; stroke-width: 0.6"/>
    <path d="M 273.323513 273.312 
L 272.816683 257.028662 
L 294.430384 230.604352 
L 300.412398 223.229306 
L 308.174941 221.99491 
L 311.981303 216.178772 
L 307.118395 205.527192 
L 312.303371 202.822791 
L 298.584126 183.79985 
L 300.090125 179.168558 
L 295.96931 171.176561 
L 298.651626 149.931582 
L 285.981313 141.011064 
L 292.245265 130.647019 
L 306.548964 122.09526 
L 305.986941 101.594039 
L 298.696489 83.877224 
L 293.811356 55.807994 
L 281.23118 45.874308 
L 238.589879 48.741543 
L 189.767355 41.752171 
L 189.767355 41.752171 
" clip-path="url(#pd2d382fff8)" style="fill: none; stroke: #ffffff; stroke-width: 0.6"/>
    <path d="M 15.416186 273.312 
L 12.413423 268.390439 
L 10.891372 267.54673 
L 9.369321 266.70267 
L 7.84727 265.858261 
L 7.2 265.499243 
" clip-path="url(#pd2d382fff8)" style="fill: none; stroke: #ffffff; stroke-width: 0.6"/>
    <path d="M 169.511481 259.282454 
L 161.50034 259.905881 
L 156.833759 267.037431 
L 151.574081 268.857754 
L 150.446498 273.312 
" clip-path="url(#pd2d382fff8)" style="fill: none; stroke: #ffffff; stroke-width: 0.6"/>
    <path d="M 61.004841 202.490556 
L 61.750226 200.212977 
L 62.495611 197.932789 
L 63.240791 195.650312 
L 63.986176 193.364556 
L 64.731561 191.076823 
L 65.476946 188.786121 
L 66.222331 186.492772 
L 66.684339 185.069634 
L 64.399204 176.511895 
L 58.517411 173.984305 
L 59.034365 167.820699 
L 54.830821 161.346468 
L 55.715734 159.152985 
L 56.600647 156.957384 
L 57.485561 154.75899 
L 58.370474 152.558131 
L 59.255388 150.355133 
L 59.259092 150.346094 
L 58.322113 148.198254 
L 57.385133 146.04772 
L 56.447948 143.895156 
L 55.510969 141.74022 
L 54.57399 139.582905 
L 53.637011 137.423204 
L 53.092686 136.167445 
L 55.962275 128.281355 
L 54.532008 127.035274 
L 53.101535 125.788055 
L 51.671268 124.540036 
L 50.240795 123.291215 
L 48.810528 122.041931 
L 47.380261 120.791842 
L 45.949789 119.540609 
L 44.519522 118.288568 
L 43.089255 117.035719 
L 42.07819 116.150065 
L 43.070322 114.031714 
L 44.062454 111.911386 
L 45.054586 109.788734 
L 46.046718 107.663409 
L 47.038644 105.535747 
L 48.030776 103.406084 
L 49.022908 101.27407 
L 50.014834 99.139355 
L 50.792323 97.465041 
L 50.278662 94.897964 
L 49.765 92.327118 
L 49.251133 89.752835 
L 48.737472 87.175104 
L 48.22381 84.594259 
L 47.710149 82.009597 
L 47.196282 79.421797 
L 46.68262 76.830155 
L 46.168959 74.235006 
L 45.655298 71.636336 
L 45.141636 69.034483 
L 44.745895 67.027555 
" clip-path="url(#pd2d382fff8)" style="fill: none; stroke: #ffffff; stroke-width: 0.6"/>
    <path d="M 331.850587 57.259939 
L 331.065798 57.216599 
L 330.539789 64.799128 
L 324.912975 64.11105 
L 318.835884 68.858852 
L 313.136218 65.244182 
L 311.528968 65.56741 
L 309.921719 65.889885 
L 308.314469 66.213005 
L 306.707219 66.53572 
L 305.09997 66.858381 
L 303.49272 67.181337 
L 301.88547 67.503889 
L 300.278221 67.826386 
L 298.807618 68.121583 
L 295.025951 66.147266 
" clip-path="url(#pd2d382fff8)" style="fill: none; stroke: #ffffff; stroke-width: 0.6"/>
    <path d="M 331.850587 57.259939 
L 331.065798 57.216599 
L 330.539789 64.799128 
L 324.912975 64.11105 
L 318.835884 68.858852 
L 313.136218 65.244182 
L 311.528968 65.56741 
L 309.921719 65.889885 
L 308.314469 66.213005 
L 306.707219 66.53572 
L 305.09997 66.858381 
L 303.49272 67.181337 
L 301.88547 67.503889 
L 300.278221 67.826386 
L 298.807618 68.121583 
L 295.025951 66.147266 
" clip-path="url(#pd2d382fff8)" style="fill: none; stroke: #ffffff; stroke-width: 0.6"/>
    <path d="M 331.850587 156.44549 
L 330.543905 156.643049 
L 328.93254 156.886646 
L 327.321174 157.130213 
L 325.709603 157.374083 
L 324.098237 157.617923 
L 322.486666 157.861399 
L 320.8753 158.104845 
L 319.263935 158.34826 
L 319.100123 158.372934 
L 317.825024 159.987363 
L 316.549926 161.600135 
L 315.274827 163.211584 
L 313.999729 164.822047 
L 312.72463 166.430862 
L 311.449532 168.038363 
L 310.174434 169.644885 
L 309.562197 170.415512 
L 307.948979 170.206395 
L 306.335762 169.997256 
L 304.722544 169.788096 
L 303.109532 169.578913 
L 301.496108 169.369707 
L 299.883097 169.16048 
L 299.409359 169.099133 
L 297.68563 173.852647 
" clip-path="url(#pd2d382fff8)" style="fill: none; stroke: #ffffff; stroke-width: 0.6"/>
    <path d="M 270.695772 13.901436 
L 269.08276 14.134697 
L 267.469748 14.367929 
L 265.856736 14.600772 
L 264.24393 14.833587 
L 262.631124 15.066373 
L 261.018112 15.29949 
L 259.4051 15.532578 
L 257.792294 15.765278 
L 256.179488 15.997949 
L 256.12166 16.006566 
L 254.609692 14.999558 
L 253.097519 13.992731 
L 251.585347 12.984647 
L 250.073174 11.976743 
L 248.561001 10.967939 
L 247.048828 9.958595 
L 245.536655 8.94871 
L 244.024482 7.938282 
L 242.920106 7.2 
" clip-path="url(#pd2d382fff8)" style="fill: none; stroke: #ffffff; stroke-width: 0.6"/>
    <path d="M 275.61836 46.928967 
L 273.28795 36.511502 
L 277.85184 25.226334 
L 276.653502 23.336766 
L 275.454959 21.445665 
L 274.256622 19.552668 
L 273.058285 17.657412 
L 271.859741 15.76025 
L 270.695772 13.915814 
" clip-path="url(#pd2d382fff8)" style="fill: none; stroke: #ffffff; stroke-width: 0.6"/>
   </g>
   <g id="LineCollection_3"/>
   <g id="line2d_1">
    <path d="M 231.524251 81.074953 
L 213.541691 73.670612 
L 213.541691 73.670612 
" clip-path="url(#pd2d382fff8)" style="fill: none; stroke: #008000; stroke-width: 0.75; stroke-linecap: square"/>
   </g>
   <g id="line2d_2">
    <path d="M 231.524251 81.074953 
L 251.397968 89.175749 
L 258.498092 92.128205 
L 258.498092 92.128205 
" clip-path="url(#pd2d382fff8)" style="fill: none; stroke: #008000; stroke-width: 0.75; stroke-linecap: square"/>
   </g>
   <g id="line2d_3">
    <path d="M 213.541691 73.670612 
L 194.170497 63.450589 
L 188.766789 60.644401 
L 188.766789 60.644401 
" clip-path="url(#pd2d382fff8)" style="fill: none; stroke: #008000; stroke-width: 0.75; stroke-linecap: square"/>
   </g>
   <g id="line2d_4">
    <path d="M 285.471932 103.118373 
L 266.6576 115.95352 
L 247.8051 129.085494 
L 229.064487 142.41079 
L 227.795999 143.322571 
L 227.795999 143.322571 
" clip-path="url(#pd2d382fff8)" style="fill: none; stroke: #008000; stroke-width: 0.75; stroke-linecap: square"/>
   </g>
   <g id="line2d_5">
    <path d="M 285.471932 103.118373 
L 265.590671 94.975292 
L 258.498092 92.128205 
L 258.498092 92.128205 
" clip-path="url(#pd2d382fff8)" style="fill: none; stroke: #008000; stroke-width: 0.75; stroke-linecap: square"/>
   </g>
   <g id="line2d_6">
    <path d="M 227.795999 143.322571 
L 231.447174 179.419476 
L 231.447174 179.419476 
" clip-path="url(#pd2d382fff8)" style="fill: none; stroke: #008000; stroke-width: 0.75; stroke-linecap: square"/>
   </g>
   <g id="line2d_7">
    <path d="M 227.795999 143.322571 
L 206.962325 144.944383 
L 186.165421 146.786734 
L 177.532828 147.617099 
L 177.532828 147.617099 
" clip-path="url(#pd2d382fff8)" style="fill: none; stroke: #008000; stroke-width: 0.75; stroke-linecap: square"/>
   </g>
   <g id="line2d_8">
    <path d="M 231.447174 179.419476 
L 252.353917 178.841221 
L 253.626386 178.813187 
L 253.626386 178.813187 
" clip-path="url(#pd2d382fff8)" style="fill: none; stroke: #008000; stroke-width: 0.75; stroke-linecap: square"/>
   </g>
   <g id="line2d_9">
    <path d="M 231.447174 179.419476 
L 217.431044 202.298202 
L 217.431044 202.298202 
" clip-path="url(#pd2d382fff8)" style="fill: none; stroke: #008000; stroke-width: 0.75; stroke-linecap: square"/>
   </g>
   <g id="line2d_10">
    <path d="M 177.532828 147.617099 
L 156.926761 143.013738 
L 136.373007 138.649279 
L 118.683984 135.07427 
L 118.683984 135.07427 
" clip-path="url(#pd2d382fff8)" style="fill: none; stroke: #008000; stroke-width: 0.75; stroke-linecap: square"/>
   </g>
   <g id="line2d_11">
    <path d="M 177.532828 147.617099 
L 186.118501 164.338116 
L 186.118501 164.338116 
" clip-path="url(#pd2d382fff8)" style="fill: none; stroke: #008000; stroke-width: 0.75; stroke-linecap: square"/>
   </g>
   <g id="line2d_12">
    <path d="M 176.877814 205.453089 
L 164.539455 227.231789 
L 164.539455 227.231789 
" clip-path="url(#pd2d382fff8)" style="fill: none; stroke: #008000; stroke-width: 0.75; stroke-linecap: square"/>
   </g>
   <g id="line2d_13">
    <path d="M 176.877814 205.453089 
L 186.118501 164.338116 
L 186.118501 164.338116 
" clip-path="url(#pd2d382fff8)" style="fill: none; stroke: #008000; stroke-width: 0.75; stroke-linecap: square"/>
   </g>
   <g id="line2d_14">
    <path d="M 164.539455 227.231789 
L 181.398084 231.448671 
L 181.398084 231.448671 
" clip-path="url(#pd2d382fff8)" style="fill: none; stroke: #008000; stroke-width: 0.75; stroke-linecap: square"/>
   </g>
   <g id="line2d_15">
    <path d="M 164.539455 227.231789 
L 146.082598 211.712274 
L 145.208137 210.984187 
L 145.208137 210.984187 
" clip-path="url(#pd2d382fff8)" style="fill: none; stroke: #008000; stroke-width: 0.75; stroke-linecap: square"/>
   </g>
   <g id="line2d_16">
    <path d="M 145.208137 210.984187 
L 126.381385 196.833941 
L 120.482058 192.457251 
L 120.482058 192.457251 
" clip-path="url(#pd2d382fff8)" style="fill: none; stroke: #008000; stroke-width: 0.75; stroke-linecap: square"/>
   </g>
   <g id="line2d_17">
    <path d="M 120.482058 192.457251 
L 102.385735 176.356033 
L 84.201473 160.474088 
L 79.295752 156.240135 
L 79.295752 156.240135 
" clip-path="url(#pd2d382fff8)" style="fill: none; stroke: #008000; stroke-width: 0.75; stroke-linecap: square"/>
   </g>
   <g id="line2d_18">
    <path d="M 181.398084 231.448671 
L 198.256714 235.656734 
L 198.256714 235.656734 
" clip-path="url(#pd2d382fff8)" style="fill: none; stroke: #008000; stroke-width: 0.75; stroke-linecap: square"/>
   </g>
   <g id="line2d_19">
    <path d="M 262.081326 211.878105 
L 254.42535 237.421922 
L 254.42535 237.421922 
" clip-path="url(#pd2d382fff8)" style="fill: none; stroke: #008000; stroke-width: 0.75; stroke-linecap: square"/>
   </g>
   <g id="line2d_20">
    <path d="M 262.081326 211.878105 
L 269.737301 186.003601 
L 269.737301 186.003601 
" clip-path="url(#pd2d382fff8)" style="fill: none; stroke: #008000; stroke-width: 0.75; stroke-linecap: square"/>
   </g>
   <g id="line2d_21">
    <path d="M 269.737301 186.003601 
L 253.626386 178.813187 
L 253.626386 178.813187 
" clip-path="url(#pd2d382fff8)" style="fill: none; stroke: #008000; stroke-width: 0.75; stroke-linecap: square"/>
   </g>
   <g id="line2d_22">
    <path d="M 198.256714 235.656734 
L 219.418594 236.137315 
L 240.568083 236.840418 
L 254.42535 237.421922 
L 254.42535 237.421922 
" clip-path="url(#pd2d382fff8)" style="fill: none; stroke: #008000; stroke-width: 0.75; stroke-linecap: square"/>
   </g>
   <g id="line2d_23">
    <path d="M 198.256714 235.656734 
L 213.168391 209.650232 
L 217.431044 202.298202 
L 217.431044 202.298202 
" clip-path="url(#pd2d382fff8)" style="fill: none; stroke: #008000; stroke-width: 0.75; stroke-linecap: square"/>
   </g>
   <g id="line2d_24">
    <path d="M 162.69094 108.487193 
L 146.762368 103.560277 
L 146.762368 103.560277 
" clip-path="url(#pd2d382fff8)" style="fill: none; stroke: #008000; stroke-width: 0.75; stroke-linecap: square"/>
   </g>
   <g id="line2d_25">
    <path d="M 162.69094 108.487193 
L 163.991887 47.528679 
L 163.991887 47.528679 
" clip-path="url(#pd2d382fff8)" style="fill: none; stroke: #008000; stroke-width: 0.75; stroke-linecap: square"/>
   </g>
   <g id="line2d_26">
    <path d="M 188.766789 60.644401 
L 169.457919 50.386863 
L 163.991887 47.528679 
L 163.991887 47.528679 
" clip-path="url(#pd2d382fff8)" style="fill: none; stroke: #008000; stroke-width: 0.75; stroke-linecap: square"/>
   </g>
   <g id="line2d_27">
    <path d="M 163.991887 47.528679 
L 143.468262 49.515963 
L 122.989716 51.722334 
L 102.560796 54.146138 
L 97.254643 54.812144 
L 97.254643 54.812144 
" clip-path="url(#pd2d382fff8)" style="fill: none; stroke: #008000; stroke-width: 0.75; stroke-linecap: square"/>
   </g>
   <g id="line2d_28">
    <path d="M 97.254643 54.812144 
L 79.090317 69.156732 
L 60.873442 83.826848 
L 53.578655 89.781841 
L 53.578655 89.781841 
" clip-path="url(#pd2d382fff8)" style="fill: none; stroke: #008000; stroke-width: 0.75; stroke-linecap: square"/>
   </g>
   <g id="line2d_29">
    <path d="M 53.578655 89.781841 
L 72.262392 102.755453 
L 86.13132 112.560427 
L 86.13132 112.560427 
" clip-path="url(#pd2d382fff8)" style="fill: none; stroke: #008000; stroke-width: 0.75; stroke-linecap: square"/>
   </g>
   <g id="line2d_30">
    <path d="M 86.13132 112.560427 
L 104.975424 125.494722 
L 118.683984 135.07427 
L 118.683984 135.07427 
" clip-path="url(#pd2d382fff8)" style="fill: none; stroke: #008000; stroke-width: 0.75; stroke-linecap: square"/>
   </g>
   <g id="line2d_31">
    <path d="M 79.295752 156.240135 
L 98.834496 145.612631 
L 118.386152 135.230479 
L 118.683984 135.07427 
L 118.683984 135.07427 
" clip-path="url(#pd2d382fff8)" style="fill: none; stroke: #008000; stroke-width: 0.75; stroke-linecap: square"/>
   </g>
   <g id="line2d_32">
    <path d="M 118.683984 135.07427 
L 135.590311 115.989192 
L 146.762368 103.560277 
L 146.762368 103.560277 
" clip-path="url(#pd2d382fff8)" style="fill: none; stroke: #008000; stroke-width: 0.75; stroke-linecap: square"/>
   </g>
   <g id="patch_5">
    <path d="M 7.2 273.312 
L 7.2 7.2 
" style="fill: none; stroke: #ffffff; stroke-linejoin: miter; stroke-linecap: square"/>
   </g>
   <g id="patch_6">
    <path d="M 331.850587 273.312 
L 331.850587 7.2 
" style="fill: none; stroke: #ffffff; stroke-linejoin: miter; stroke-linecap: square"/>
   </g>
   <g id="patch_7">
    <path d="M 7.2 273.312 
L 331.850587 273.312 
" style="fill: none; stroke: #ffffff; stroke-linejoin: miter; stroke-linecap: square"/>
   </g>
   <g id="patch_8">
    <path d="M 7.2 7.2 
L 331.850587 7.2 
" style="fill: none; stroke: #ffffff; stroke-linejoin: miter; stroke-linecap: square"/>
   </g>
   <g id="PathCollection_1">
    <defs>
     <path id="m9fbdd272ff" d="M 0 1.118034 
C 0.296506 1.118034 0.580908 1.000231 0.790569 0.790569 
C 1.000231 0.580908 1.118034 0.296506 1.118034 0 
C 1.118034 -0.296506 1.000231 -0.580908 0.790569 -0.790569 
C 0.580908 -1.000231 0.296506 -1.118034 0 -1.118034 
C -0.296506 -1.118034 -0.580908 -1.000231 -0.790569 -0.790569 
C -1.000231 -0.580908 -1.118034 -0.296506 -1.118034 0 
C -1.118034 0.296506 -1.000231 0.580908 -0.790569 0.790569 
C -0.580908 1.000231 -0.296506 1.118034 0 1.118034 
z
" style="stroke: #ffff00"/>
    </defs>
    <g clip-path="url(#pd2d382fff8)">
     <use xlink:href="#m9fbdd272ff" x="231.524251" y="81.074953" style="fill: #ffff00; stroke: #ffff00"/>
    </g>
   </g>
   <g id="PathCollection_2">
    <defs>
     <path id="m23499ca524" d="M 0 1.118034 
C 0.296506 1.118034 0.580908 1.000231 0.790569 0.790569 
C 1.000231 0.580908 1.118034 0.296506 1.118034 0 
C 1.118034 -0.296506 1.000231 -0.580908 0.790569 -0.790569 
C 0.580908 -1.000231 0.296506 -1.118034 0 -1.118034 
C -0.296506 -1.118034 -0.580908 -1.000231 -0.790569 -0.790569 
C -1.000231 -0.580908 -1.118034 -0.296506 -1.118034 0 
C -1.118034 0.296506 -1.000231 0.580908 -0.790569 0.790569 
C -0.580908 1.000231 -0.296506 1.118034 0 1.118034 
z
" style="stroke: #ff0000"/>
    </defs>
    <g clip-path="url(#pd2d382fff8)">
     <use xlink:href="#m23499ca524" x="213.541691" y="73.670612" style="fill: #ff0000; stroke: #ff0000"/>
    </g>
   </g>
   <g id="PathCollection_3">
    <g clip-path="url(#pd2d382fff8)">
     <use xlink:href="#m23499ca524" x="285.471932" y="103.118373" style="fill: #ff0000; stroke: #ff0000"/>
    </g>
   </g>
   <g id="PathCollection_4">
    <g clip-path="url(#pd2d382fff8)">
     <use xlink:href="#m23499ca524" x="227.795999" y="143.322571" style="fill: #ff0000; stroke: #ff0000"/>
    </g>
   </g>
   <g id="PathCollection_5">
    <g clip-path="url(#pd2d382fff8)">
     <use xlink:href="#m9fbdd272ff" x="258.498092" y="92.128205" style="fill: #ffff00; stroke: #ffff00"/>
    </g>
   </g>
   <g id="PathCollection_6">
    <g clip-path="url(#pd2d382fff8)">
     <use xlink:href="#m23499ca524" x="231.447174" y="179.419476" style="fill: #ff0000; stroke: #ff0000"/>
    </g>
   </g>
   <g id="PathCollection_7">
    <g clip-path="url(#pd2d382fff8)">
     <use xlink:href="#m9fbdd272ff" x="177.532828" y="147.617099" style="fill: #ffff00; stroke: #ffff00"/>
    </g>
   </g>
   <g id="PathCollection_8">
    <g clip-path="url(#pd2d382fff8)">
     <use xlink:href="#m23499ca524" x="176.877814" y="205.453089" style="fill: #ff0000; stroke: #ff0000"/>
    </g>
   </g>
   <g id="PathCollection_9">
    <g clip-path="url(#pd2d382fff8)">
     <use xlink:href="#m23499ca524" x="164.539455" y="227.231789" style="fill: #ff0000; stroke: #ff0000"/>
    </g>
   </g>
   <g id="PathCollection_10">
    <g clip-path="url(#pd2d382fff8)">
     <use xlink:href="#m23499ca524" x="145.208137" y="210.984187" style="fill: #ff0000; stroke: #ff0000"/>
    </g>
   </g>
   <g id="PathCollection_11">
    <g clip-path="url(#pd2d382fff8)">
     <use xlink:href="#m23499ca524" x="120.482058" y="192.457251" style="fill: #ff0000; stroke: #ff0000"/>
    </g>
   </g>
   <g id="PathCollection_12">
    <g clip-path="url(#pd2d382fff8)">
     <use xlink:href="#m9fbdd272ff" x="181.398084" y="231.448671" style="fill: #ffff00; stroke: #ffff00"/>
    </g>
   </g>
   <g id="PathCollection_13">
    <g clip-path="url(#pd2d382fff8)">
     <use xlink:href="#m9fbdd272ff" x="262.081326" y="211.878105" style="fill: #ffff00; stroke: #ffff00"/>
    </g>
   </g>
   <g id="PathCollection_14">
    <g clip-path="url(#pd2d382fff8)">
     <use xlink:href="#m23499ca524" x="269.737301" y="186.003601" style="fill: #ff0000; stroke: #ff0000"/>
    </g>
   </g>
   <g id="PathCollection_15">
    <g clip-path="url(#pd2d382fff8)">
     <use xlink:href="#m23499ca524" x="253.626386" y="178.813187" style="fill: #ff0000; stroke: #ff0000"/>
    </g>
   </g>
   <g id="PathCollection_16">
    <g clip-path="url(#pd2d382fff8)">
     <use xlink:href="#m23499ca524" x="186.118501" y="164.338116" style="fill: #ff0000; stroke: #ff0000"/>
    </g>
   </g>
   <g id="PathCollection_17">
    <g clip-path="url(#pd2d382fff8)">
     <use xlink:href="#m23499ca524" x="198.256714" y="235.656734" style="fill: #ff0000; stroke: #ff0000"/>
    </g>
   </g>
   <g id="PathCollection_18">
    <g clip-path="url(#pd2d382fff8)">
     <use xlink:href="#m23499ca524" x="217.431044" y="202.298202" style="fill: #ff0000; stroke: #ff0000"/>
    </g>
   </g>
   <g id="PathCollection_19">
    <g clip-path="url(#pd2d382fff8)">
     <use xlink:href="#m23499ca524" x="254.42535" y="237.421922" style="fill: #ff0000; stroke: #ff0000"/>
    </g>
   </g>
   <g id="PathCollection_20">
    <g clip-path="url(#pd2d382fff8)">
     <use xlink:href="#m23499ca524" x="162.69094" y="108.487193" style="fill: #ff0000; stroke: #ff0000"/>
    </g>
   </g>
   <g id="PathCollection_21">
    <g clip-path="url(#pd2d382fff8)">
     <use xlink:href="#m9fbdd272ff" x="188.766789" y="60.644401" style="fill: #ffff00; stroke: #ffff00"/>
    </g>
   </g>
   <g id="PathCollection_22">
    <g clip-path="url(#pd2d382fff8)">
     <use xlink:href="#m23499ca524" x="163.991887" y="47.528679" style="fill: #ff0000; stroke: #ff0000"/>
    </g>
   </g>
   <g id="PathCollection_23">
    <g clip-path="url(#pd2d382fff8)">
     <use xlink:href="#m23499ca524" x="97.254643" y="54.812144" style="fill: #ff0000; stroke: #ff0000"/>
    </g>
   </g>
   <g id="PathCollection_24">
    <g clip-path="url(#pd2d382fff8)">
     <use xlink:href="#m23499ca524" x="53.578655" y="89.781841" style="fill: #ff0000; stroke: #ff0000"/>
    </g>
   </g>
   <g id="PathCollection_25">
    <g clip-path="url(#pd2d382fff8)">
     <use xlink:href="#m9fbdd272ff" x="86.13132" y="112.560427" style="fill: #ffff00; stroke: #ffff00"/>
    </g>
   </g>
   <g id="PathCollection_26">
    <g clip-path="url(#pd2d382fff8)">
     <use xlink:href="#m23499ca524" x="79.295752" y="156.240135" style="fill: #ff0000; stroke: #ff0000"/>
    </g>
   </g>
   <g id="PathCollection_27">
    <g clip-path="url(#pd2d382fff8)">
     <use xlink:href="#m23499ca524" x="118.683984" y="135.07427" style="fill: #ff0000; stroke: #ff0000"/>
    </g>
   </g>
   <g id="PathCollection_28">
    <g clip-path="url(#pd2d382fff8)">
     <use xlink:href="#m23499ca524" x="146.762368" y="103.560277" style="fill: #ff0000; stroke: #ff0000"/>
    </g>
   </g>
  </g>
 </g>
 <defs>
  <clipPath id="pd2d382fff8">
   <rect x="7.2" y="7.2" width="324.650587" height="266.112"/>
  </clipPath>
 </defs>
</svg>
