<?xml version="1.0" encoding="utf-8" standalone="no"?>
<!DOCTYPE svg PUBLIC "-//W3C//DTD SVG 1.1//EN"
  "http://www.w3.org/Graphics/SVG/1.1/DTD/svg11.dtd">
<svg xmlns:xlink="http://www.w3.org/1999/xlink" width="347.947582pt" height="280.512pt" viewBox="0 0 347.947582 280.512" xmlns="http://www.w3.org/2000/svg" version="1.1">
 <metadata>
  <rdf:RDF xmlns:dc="http://purl.org/dc/elements/1.1/" xmlns:cc="http://creativecommons.org/ns#" xmlns:rdf="http://www.w3.org/1999/02/22-rdf-syntax-ns#">
   <cc:Work>
    <dc:type rdf:resource="http://purl.org/dc/dcmitype/StillImage"/>
    <dc:date>2025-12-17T16:18:59.879403</dc:date>
    <dc:format>image/svg+xml</dc:format>
    <dc:creator>
     <cc:Agent>
      <dc:title>Matplotlib v3.10.6, https://matplotlib.org/</dc:title>
     </cc:Agent>
    </dc:creator>
   </cc:Work>
  </rdf:RDF>
 </metadata>
 <defs>
  <style type="text/css">*{stroke-linejoin: round; stroke-linecap: butt}</style>
 </defs>
 <g id="figure_1">
  <g id="patch_1">
   <path d="M 0 280.512 
L 347.947582 280.512 
L 347.947582 0 
L 0 0 
z
" style="fill: #ffffff"/>
  </g>
  <g id="axes_1">
   <g id="patch_2">
    <path d="M 7.2 273.312 
L 340.747582 273.312 
L 340.747582 7.2 
L 7.2 7.2 
z
" clip-path="url(#pe7441c85ab)" style="fill: #add8e6; stroke: #ffffff; stroke-linejoin: miter"/>
   </g>
   <g id="patch_3">
    <path d="M 7.2 273.312 
L 340.747582 273.312 
L 340.747582 7.2 
L 7.2 7.2 
z
" clip-path="url(#pe7441c85ab)" style="fill: #add8e6; stroke: #ffffff; stroke-linejoin: miter"/>
   </g>
   <g id="patch_4">
    <path d="M 7.2 40.270677 
L 7.938033 40.871762 
L 13.894138 36.391041 
L 16.319064 43.978591 
L 26.035885 52.994658 
L 33.308759 49.427804 
L 34.003709 55.923288 
L 38.665449 60.791051 
L 35.986048 64.629314 
L 48.152312 68.672106 
L 47.414455 71.443964 
L 50.138455 69.610296 
L 57.3754 75.902403 
L 55.97789 71.073366 
L 62.11788 60.673316 
L 61.266734 55.982304 
L 100.374762 45.342238 
L 111.08497 31.501089 
L 150.379843 17.602404 
L 160.907001 17.403122 
L 173.67438 26.182379 
L 174.297671 29.111695 
L 163.515812 19.78568 
L 167.53207 35.855262 
L 173.87919 40.951176 
L 193.410052 38.098799 
L 203.846336 26.801917 
L 195.994773 37.106872 
L 185.816974 41.290523 
L 186.622465 44.317066 
L 190.662812 44.020587 
L 189.857103 46.805058 
L 206.848276 29.871406 
L 218.645295 25.024633 
L 209.478653 26.27956 
L 207.169965 22.60897 
L 204.167402 26.923156 
L 205.437028 13.534059 
L 218.482979 12.184022 
L 223.568865 7.200003 
L 225.090405 7.200003 
L 221.46505 11.679821 
L 234.694867 14.837584 
L 241.776675 11.886671 
L 241.003199 7.200003 
L 340.747573 7.200003 
L 340.747573 273.312 
L 7.2 273.312 
z
" clip-path="url(#pe7441c85ab)" style="fill: #d3d3d3"/>
   </g>
   <g id="matplotlib.axis_1"/>
   <g id="matplotlib.axis_2"/>
   <g id="LineCollection_1">
    <path d="M 7.2 35.604373 
L 12.300489 36.531323 
L 7.2 37.490973 
" clip-path="url(#pe7441c85ab)" style="fill: none; stroke: #000000; stroke-width: 0.6"/>
    <path d="M 7.2 40.270679 
L 7.938033 40.871764 
L 13.894138 36.391042 
L 16.319064 43.978597 
L 26.035885 52.994661 
L 33.308759 49.427803 
L 34.003708 55.923291 
L 38.665449 60.791057 
L 35.986047 64.629314 
L 48.152312 68.672099 
L 47.414457 71.443959 
L 50.138456 69.610302 
L 57.375398 75.902397 
L 55.977891 71.073365 
L 62.117878 60.673324 
L 61.266735 55.982301 
L 100.374759 45.342231 
L 111.084969 31.501088 
L 150.379836 17.602397 
L 160.907009 17.403128 
L 173.674379 26.182386 
L 174.297678 29.111695 
L 163.515817 19.785679 
L 167.532066 35.855267 
L 173.879186 40.951172 
L 193.410055 38.098799 
L 203.846344 26.80191 
L 195.994768 37.106876 
L 185.816972 41.290523 
L 186.622462 44.317061 
L 190.662807 44.020591 
L 189.857105 46.805055 
L 206.84828 29.871413 
L 218.6453 25.024635 
L 209.478646 26.279565 
L 207.169969 22.608972 
L 204.167398 26.923162 
L 205.437034 13.534061 
L 218.482976 12.184024 
L 223.568872 7.2 
" clip-path="url(#pe7441c85ab)" style="fill: none; stroke: #000000; stroke-width: 0.6"/>
    <path d="M 225.090407 7.2 
L 221.465044 11.679819 
L 234.694869 14.837592 
L 241.776674 11.886669 
L 241.003196 7.2 
" clip-path="url(#pe7441c85ab)" style="fill: none; stroke: #000000; stroke-width: 0.6"/>
   </g>
   <g id="LineCollection_2">
    <path d="M 7.2 219.724698 
L 12.89462 219.256812 
L 23.821896 209.535954 
L 26.230547 211.270297 
L 28.693094 206.621652 
L 37.088709 205.916635 
L 38.443099 203.009217 
L 51.817705 198.512676 
L 48.093131 194.348066 
L 49.47056 191.485345 
L 55.003524 191.681361 
L 58.151087 200.07356 
L 62.237297 201.803879 
L 68.847559 199.646948 
L 69.309168 192.574458 
L 73.487741 192.978358 
L 79.220863 203.495968 
L 91.294763 204.810217 
L 96.673858 211.24632 
L 99.413497 208.698574 
L 106.654667 209.414635 
L 108.817295 212.53099 
L 102.068381 218.91877 
L 114.18857 232.691083 
L 124.938938 227.453019 
L 121.068104 218.338761 
L 129.710163 220.609089 
L 136.351073 226.658924 
L 144.223362 223.612227 
L 145.270013 228.355134 
L 140.868244 230.085919 
L 142.253493 232.631102 
L 148.340641 238.287349 
L 153.204019 237.12616 
L 152.973214 234.814007 
L 160.668384 241.157285 
L 167.802184 241.049627 
L 169.371949 249.445898 
L 174.250756 251.349599 
L 178.906579 263.207044 
L 185.08588 262.686715 
L 192.434843 254.106325 
L 197.182819 262.923185 
L 201.40768 262.781566 
L 200.876745 271.290906 
L 209.472517 272.609756 
L 211.196364 266.680382 
L 216.290546 263.136245 
L 226.64842 262.296221 
L 232.604737 267.482998 
L 237.622195 264.495292 
L 237.168196 262.012563 
L 251.896981 261.491936 
L 261.431399 265.558927 
L 263.670962 271.102617 
L 269.341805 273.312 
L 269.341805 273.312 
" clip-path="url(#pe7441c85ab)" style="fill: none; stroke: #ffffff; stroke-width: 0.6"/>
    <path d="M 282.466049 273.312 
L 282.024137 273.021606 
L 281.485593 255.720934 
L 303.683816 228.582004 
L 309.827608 221.007507 
L 317.800082 219.739728 
L 321.709383 213.766298 
L 316.714963 202.826656 
L 322.040161 200.049118 
L 307.949892 180.511719 
L 309.49662 175.755178 
L 305.264361 167.547046 
L 308.019218 145.727517 
L 295.006248 136.565751 
L 301.439603 125.921421 
L 316.130132 117.138387 
L 315.552909 96.082731 
L 308.065294 77.886781 
L 303.048047 49.058446 
L 290.127653 38.856113 
L 246.333158 41.800889 
L 196.190275 34.622497 
L 196.190275 34.622497 
" clip-path="url(#pe7441c85ab)" style="fill: none; stroke: #ffffff; stroke-width: 0.6"/>
    <path d="M 17.653892 273.312 
L 14.039976 267.38998 
L 12.476763 266.523453 
L 10.913549 265.656567 
L 9.350336 264.789322 
L 7.786911 263.922042 
L 7.2 263.596083 
" clip-path="url(#pe7441c85ab)" style="fill: none; stroke: #ffffff; stroke-width: 0.6"/>
    <path d="M 175.386601 258.035678 
L 167.158806 258.675965 
L 162.366022 266.000381 
L 156.964101 267.869933 
L 155.586169 273.312 
" clip-path="url(#pe7441c85ab)" style="fill: none; stroke: #ffffff; stroke-width: 0.6"/>
    <path d="M 63.945502 199.707898 
L 64.711046 197.368723 
L 65.476589 195.02687 
L 66.241921 192.682666 
L 67.007465 190.335094 
L 67.773008 187.985491 
L 68.538552 185.63284 
L 69.304095 183.277469 
L 69.778597 181.815843 
L 67.431663 173.026668 
L 61.390802 170.430722 
L 61.921737 164.100427 
L 57.604512 157.451107 
L 58.513357 155.198303 
L 59.422202 152.943324 
L 60.331047 150.685477 
L 61.239892 148.425098 
L 62.148737 146.162523 
L 62.152541 146.153239 
L 61.190222 143.947313 
L 60.227904 141.73862 
L 59.265373 139.527841 
L 58.303054 137.314627 
L 57.340735 135.098969 
L 56.378416 132.880861 
L 55.819371 131.591141 
L 58.766565 123.49178 
L 57.297618 122.212 
L 55.82846 120.931051 
L 54.359512 119.64928 
L 52.890354 118.366686 
L 51.421407 117.083616 
L 49.952459 115.79972 
L 48.483301 114.514648 
L 47.014354 113.228747 
L 45.545406 111.942016 
L 44.506998 111.032411 
L 45.525961 108.856771 
L 46.544925 106.6791 
L 47.563888 104.499043 
L 48.582851 102.316242 
L 49.601603 100.131039 
L 50.620566 97.94378 
L 51.639529 95.754108 
L 52.658281 93.561662 
L 53.456797 91.842068 
L 52.929244 89.205567 
L 52.401691 86.565195 
L 51.873927 83.921293 
L 51.346374 81.27385 
L 50.818821 78.623209 
L 50.291268 75.968646 
L 49.763504 73.310862 
L 49.235951 70.649132 
L 48.708398 67.983798 
L 48.180846 65.31485 
L 47.653293 62.642633 
L 47.246849 60.581429 
" clip-path="url(#pe7441c85ab)" style="fill: none; stroke: #ffffff; stroke-width: 0.6"/>
    <path d="M 340.747582 58.290024 
L 334.99078 57.58605 
L 328.749339 62.462251 
L 322.895532 58.749826 
L 321.244816 59.081796 
L 319.594099 59.412992 
L 317.943383 59.74485 
L 316.292667 60.076293 
L 314.641951 60.40768 
L 312.991235 60.73937 
L 311.340518 61.070645 
L 309.689802 61.401864 
L 308.179429 61.705044 
L 304.29549 59.677334 
" clip-path="url(#pe7441c85ab)" style="fill: none; stroke: #ffffff; stroke-width: 0.6"/>
    <path d="M 340.747582 58.290024 
L 334.99078 57.58605 
L 328.749339 62.462251 
L 322.895532 58.749826 
L 321.244816 59.081796 
L 319.594099 59.412992 
L 317.943383 59.74485 
L 316.292667 60.076293 
L 314.641951 60.40768 
L 312.991235 60.73937 
L 311.340518 61.070645 
L 309.689802 61.401864 
L 308.179429 61.705044 
L 304.29549 59.677334 
" clip-path="url(#pe7441c85ab)" style="fill: none; stroke: #ffffff; stroke-width: 0.6"/>
    <path d="M 340.747582 152.624482 
L 339.11905 152.870673 
L 337.464106 153.120827 
L 335.808952 153.371293 
L 334.154008 153.621727 
L 332.498853 153.871788 
L 330.84391 154.121817 
L 329.188967 154.371816 
L 329.020725 154.397156 
L 327.711142 156.055247 
L 326.40156 157.711634 
L 325.091978 159.366664 
L 323.782396 161.02068 
L 322.472813 162.673004 
L 321.163231 164.323978 
L 319.853649 165.973947 
L 319.224855 166.765414 
L 317.568009 166.550643 
L 315.911163 166.335848 
L 314.254318 166.12103 
L 312.597684 165.90619 
L 310.940627 165.691327 
L 309.283992 165.476441 
L 308.797443 165.413436 
L 307.027098 170.295504 
" clip-path="url(#pe7441c85ab)" style="fill: none; stroke: #ffffff; stroke-width: 0.6"/>
    <path d="M 271.128555 7.2 
L 271.024575 7.215007 
L 269.367941 7.454428 
L 267.711307 7.69382 
L 266.054884 7.932813 
L 264.398461 8.171776 
L 264.339069 8.180626 
L 262.866692 7.2 
" clip-path="url(#pe7441c85ab)" style="fill: none; stroke: #ffffff; stroke-width: 0.6"/>
    <path d="M 284.363039 39.939294 
L 281.969606 29.240099 
L 286.656921 17.649734 
L 285.426176 15.709065 
L 284.195219 13.76682 
L 282.964474 11.822629 
L 281.733729 9.876118 
L 280.502772 7.927649 
L 280.043436 7.2 
" clip-path="url(#pe7441c85ab)" style="fill: none; stroke: #ffffff; stroke-width: 0.6"/>
   </g>
   <g id="LineCollection_3"/>
   <g id="line2d_1">
    <path d="M 168.433133 47.769522 
L 184.411501 69.407259 
L 200.376555 91.399011 
L 216.317787 113.735101 
L 232.225336 136.405813 
L 234.921023 140.285821 
L 234.921023 140.285821 
" clip-path="url(#pe7441c85ab)" style="fill: none; stroke: #008000; stroke-width: 0.75; stroke-linecap: square"/>
   </g>
   <g id="line2d_2">
    <path d="M 168.433133 47.769522 
L 147.535976 47.510695 
L 126.635687 47.475563 
L 105.737032 47.664151 
L 99.174915 47.769522 
L 99.174915 47.769522 
" clip-path="url(#pe7441c85ab)" style="fill: none; stroke: #008000; stroke-width: 0.75; stroke-linecap: square"/>
   </g>
   <g id="line2d_3">
    <path d="M 168.433133 47.769522 
L 188.445554 55.40271 
L 208.615293 63.334099 
L 228.621495 71.438819 
L 248.771107 79.842321 
L 268.748605 88.413987 
L 288.855876 97.284122 
L 293.097927 99.186726 
L 293.097927 99.186726 
" clip-path="url(#pe7441c85ab)" style="fill: none; stroke: #008000; stroke-width: 0.75; stroke-linecap: square"/>
   </g>
   <g id="line2d_4">
    <path d="M 149.040832 99.186726 
L 131.555068 80.859329 
L 114.119482 62.905853 
L 99.174915 47.769522 
L 99.174915 47.769522 
" clip-path="url(#pe7441c85ab)" style="fill: none; stroke: #008000; stroke-width: 0.75; stroke-linecap: square"/>
   </g>
   <g id="line2d_5">
    <path d="M 149.040832 99.186726 
L 131.594496 117.40874 
L 118.567216 131.225437 
L 118.567216 131.225437 
" clip-path="url(#pe7441c85ab)" style="fill: none; stroke: #008000; stroke-width: 0.75; stroke-linecap: square"/>
   </g>
   <g id="line2d_6">
    <path d="M 149.040832 99.186726 
L 169.055323 108.35918 
L 189.099568 117.791119 
L 209.166603 127.481914 
L 229.039191 137.32517 
L 234.921023 140.285821 
L 234.921023 140.285821 
" clip-path="url(#pe7441c85ab)" style="fill: none; stroke: #008000; stroke-width: 0.75; stroke-linecap: square"/>
   </g>
   <g id="line2d_7">
    <path d="M 99.174915 47.769522 
L 80.95361 62.988165 
L 62.684558 78.537583 
L 54.849655 85.296223 
L 54.849655 85.296223 
" clip-path="url(#pe7441c85ab)" style="fill: none; stroke: #008000; stroke-width: 0.75; stroke-linecap: square"/>
   </g>
   <g id="line2d_8">
    <path d="M 173.973791 224.395384 
L 194.31885 233.876274 
L 201.677078 237.365552 
L 201.677078 237.365552 
" clip-path="url(#pe7441c85ab)" style="fill: none; stroke: #008000; stroke-width: 0.75; stroke-linecap: square"/>
   </g>
   <g id="line2d_9">
    <path d="M 173.973791 224.395384 
L 184.845614 183.855959 
L 190.595763 162.75983 
L 190.595763 162.75983 
" clip-path="url(#pe7441c85ab)" style="fill: none; stroke: #008000; stroke-width: 0.75; stroke-linecap: square"/>
   </g>
   <g id="line2d_10">
    <path d="M 173.973791 224.395384 
L 154.493907 211.217439 
L 135.028857 198.317521 
L 121.337545 189.403251 
L 121.337545 189.403251 
" clip-path="url(#pe7441c85ab)" style="fill: none; stroke: #008000; stroke-width: 0.75; stroke-linecap: square"/>
   </g>
   <g id="line2d_11">
    <path d="M 201.677078 237.365552 
L 223.148387 237.174827 
L 244.621332 237.207245 
L 259.853982 237.365552 
L 259.853982 237.365552 
" clip-path="url(#pe7441c85ab)" style="fill: none; stroke: #008000; stroke-width: 0.75; stroke-linecap: square"/>
   </g>
   <g id="line2d_12">
    <path d="M 201.677078 237.365552 
L 213.745577 201.522498 
L 225.907134 166.099349 
L 234.921023 140.285821 
L 234.921023 140.285821 
" clip-path="url(#pe7441c85ab)" style="fill: none; stroke: #008000; stroke-width: 0.75; stroke-linecap: square"/>
   </g>
   <g id="line2d_13">
    <path d="M 293.097927 99.186726 
L 282.838124 140.771853 
L 272.580837 183.281208 
L 262.424677 226.319149 
L 259.853982 237.365552 
L 259.853982 237.365552 
" clip-path="url(#pe7441c85ab)" style="fill: none; stroke: #008000; stroke-width: 0.75; stroke-linecap: square"/>
   </g>
   <g id="line2d_14">
    <path d="M 293.097927 99.186726 
L 274.121494 112.313146 
L 255.105326 125.737571 
L 236.200666 139.354286 
L 234.921023 140.285821 
L 234.921023 140.285821 
" clip-path="url(#pe7441c85ab)" style="fill: none; stroke: #008000; stroke-width: 0.75; stroke-linecap: square"/>
   </g>
   <g id="line2d_15">
    <path d="M 190.595763 162.75983 
L 210.591261 152.469481 
L 230.566827 142.439207 
L 234.921023 140.285821 
L 234.921023 140.285821 
" clip-path="url(#pe7441c85ab)" style="fill: none; stroke: #008000; stroke-width: 0.75; stroke-linecap: square"/>
   </g>
   <g id="line2d_16">
    <path d="M 190.595763 162.75983 
L 170.027866 170.388774 
L 149.615577 178.196191 
L 129.189867 186.245521 
L 121.337545 189.403251 
L 121.337545 189.403251 
" clip-path="url(#pe7441c85ab)" style="fill: none; stroke: #008000; stroke-width: 0.75; stroke-linecap: square"/>
   </g>
   <g id="line2d_17">
    <path d="M 118.567216 131.225437 
L 99.649048 117.263612 
L 80.784986 103.616372 
L 61.823342 90.172215 
L 54.849655 85.296223 
L 54.849655 85.296223 
" clip-path="url(#pe7441c85ab)" style="fill: none; stroke: #008000; stroke-width: 0.75; stroke-linecap: square"/>
   </g>
   <g id="line2d_18">
    <path d="M 118.567216 131.225437 
L 121.337545 189.403251 
L 121.337545 189.403251 
" clip-path="url(#pe7441c85ab)" style="fill: none; stroke: #008000; stroke-width: 0.75; stroke-linecap: square"/>
   </g>
   <g id="patch_5">
    <path d="M 7.2 273.312 
L 7.2 7.2 
" style="fill: none; stroke: #ffffff; stroke-linejoin: miter; stroke-linecap: square"/>
   </g>
   <g id="patch_6">
    <path d="M 340.747582 273.312 
L 340.747582 7.2 
" style="fill: none; stroke: #ffffff; stroke-linejoin: miter; stroke-linecap: square"/>
   </g>
   <g id="patch_7">
    <path d="M 7.2 273.312 
L 340.747582 273.312 
" style="fill: none; stroke: #ffffff; stroke-linejoin: miter; stroke-linecap: square"/>
   </g>
   <g id="patch_8">
    <path d="M 7.2 7.2 
L 340.747582 7.2 
" style="fill: none; stroke: #ffffff; stroke-linejoin: miter; stroke-linecap: square"/>
   </g>
   <g id="PathCollection_1">
    <defs>
     <path id="m74350166d7" d="M 0 1.118034 
C 0.296506 1.118034 0.580908 1.000231 0.790569 0.790569 
C 1.000231 0.580908 1.118034 0.296506 1.118034 0 
C 1.118034 -0.296506 1.000231 -0.580908 0.790569 -0.790569 
C 0.580908 -1.000231 0.296506 -1.118034 0 -1.118034 
C -0.296506 -1.118034 -0.580908 -1.000231 -0.790569 -0.790569 
C -1.000231 -0.580908 -1.118034 -0.296506 -1.118034 0 
C -1.118034 0.296506 -1.000231 0.580908 -0.790569 0.790569 
C -0.580908 1.000231 -0.296506 1.118034 0 1.118034 
z
" style="stroke: #ff0000"/>
    </defs>
    <g clip-path="url(#pe7441c85ab)">
     <use xlink:href="#m74350166d7" x="168.433133" y="47.769522" style="fill: #ff0000; stroke: #ff0000"/>
    </g>
   </g>
   <g id="PathCollection_2">
    <g clip-path="url(#pe7441c85ab)">
     <use xlink:href="#m74350166d7" x="149.040832" y="99.186726" style="fill: #ff0000; stroke: #ff0000"/>
    </g>
   </g>
   <g id="PathCollection_3">
    <g clip-path="url(#pe7441c85ab)">
     <use xlink:href="#m74350166d7" x="99.174915" y="47.769522" style="fill: #ff0000; stroke: #ff0000"/>
    </g>
   </g>
   <g id="PathCollection_4">
    <g clip-path="url(#pe7441c85ab)">
     <use xlink:href="#m74350166d7" x="173.973791" y="224.395384" style="fill: #ff0000; stroke: #ff0000"/>
    </g>
   </g>
   <g id="PathCollection_5">
    <g clip-path="url(#pe7441c85ab)">
     <use xlink:href="#m74350166d7" x="201.677078" y="237.365552" style="fill: #ff0000; stroke: #ff0000"/>
    </g>
   </g>
   <g id="PathCollection_6">
    <g clip-path="url(#pe7441c85ab)">
     <use xlink:href="#m74350166d7" x="293.097927" y="99.186726" style="fill: #ff0000; stroke: #ff0000"/>
    </g>
   </g>
   <g id="PathCollection_7">
    <g clip-path="url(#pe7441c85ab)">
     <use xlink:href="#m74350166d7" x="190.595763" y="162.75983" style="fill: #ff0000; stroke: #ff0000"/>
    </g>
   </g>
   <g id="PathCollection_8">
    <g clip-path="url(#pe7441c85ab)">
     <use xlink:href="#m74350166d7" x="118.567216" y="131.225437" style="fill: #ff0000; stroke: #ff0000"/>
    </g>
   </g>
   <g id="PathCollection_9">
    <g clip-path="url(#pe7441c85ab)">
     <use xlink:href="#m74350166d7" x="259.853982" y="237.365552" style="fill: #ff0000; stroke: #ff0000"/>
    </g>
   </g>
   <g id="PathCollection_10">
    <g clip-path="url(#pe7441c85ab)">
     <use xlink:href="#m74350166d7" x="54.849655" y="85.296223" style="fill: #ff0000; stroke: #ff0000"/>
    </g>
   </g>
   <g id="PathCollection_11">
    <g clip-path="url(#pe7441c85ab)">
     <use xlink:href="#m74350166d7" x="234.921023" y="140.285821" style="fill: #ff0000; stroke: #ff0000"/>
    </g>
   </g>
   <g id="PathCollection_12">
    <g clip-path="url(#pe7441c85ab)">
     <use xlink:href="#m74350166d7" x="121.337545" y="189.403251" style="fill: #ff0000; stroke: #ff0000"/>
    </g>
   </g>
  </g>
 </g>
 <defs>
  <clipPath id="pe7441c85ab">
   <rect x="7.2" y="7.2" width="333.547582" height="266.112"/>
  </clipPath>
 </defs>
</svg>
