<?xml version="1.0" encoding="utf-8" standalone="no"?>
<!DOCTYPE svg PUBLIC "-//W3C//DTD SVG 1.1//EN"
  "http://www.w3.org/Graphics/SVG/1.1/DTD/svg11.dtd">
<svg xmlns:xlink="http://www.w3.org/1999/xlink" width="139.63533pt" height="280.512pt" viewBox="0 0 139.63533 280.512" xmlns="http://www.w3.org/2000/svg" version="1.1">
 <metadata>
  <rdf:RDF xmlns:dc="http://purl.org/dc/elements/1.1/" xmlns:cc="http://creativecommons.org/ns#" xmlns:rdf="http://www.w3.org/1999/02/22-rdf-syntax-ns#">
   <cc:Work>
    <dc:type rdf:resource="http://purl.org/dc/dcmitype/StillImage"/>
    <dc:date>2025-12-17T16:20:06.097669</dc:date>
    <dc:format>image/svg+xml</dc:format>
    <dc:creator>
     <cc:Agent>
      <dc:title>Matplotlib v3.10.6, https://matplotlib.org/</dc:title>
     </cc:Agent>
    </dc:creator>
   </cc:Work>
  </rdf:RDF>
 </metadata>
 <defs>
  <style type="text/css">*{stroke-linejoin: round; stroke-linecap: butt}</style>
 </defs>
 <g id="figure_1">
  <g id="patch_1">
   <path d="M 0 280.512 
L 139.63533 280.512 
L 139.63533 0 
L 0 0 
z
" style="fill: #ffffff"/>
  </g>
  <g id="axes_1">
   <g id="patch_2">
    <path d="M 7.2 273.312 
L 132.43533 273.312 
L 132.43533 7.2 
L 7.2 7.2 
z
" clip-path="url(#p2e8406ee9e)" style="fill: #add8e6; stroke: #ffffff; stroke-linejoin: miter"/>
   </g>
   <g id="patch_3">
    <path d="M 7.2 273.312 
L 132.43533 273.312 
L 132.43533 7.2 
L 7.2 7.2 
z
" clip-path="url(#p2e8406ee9e)" style="fill: #add8e6; stroke: #ffffff; stroke-linejoin: miter"/>
   </g>
   <g id="patch_4">
    <path d="M 132.435334 60.134993 
L 130.522509 56.903012 
L 132.435334 60.574596 
L 132.435334 61.204502 
L 128.336014 64.011102 
L 128.681776 65.451659 
L 125.25774 64.811893 
L 118.791956 71.704694 
L 116.987437 69.372217 
L 116.44628 71.306432 
L 118.336764 72.144227 
L 115.606919 75.376858 
L 111.966237 76.518354 
L 110.77042 75.273505 
L 111.645205 76.449614 
L 108.780735 78.553787 
L 107.007547 76.594563 
L 106.913079 78.041408 
L 103.13526 77.800785 
L 106.22456 80.189392 
L 102.901452 83.912049 
L 98.582476 78.008743 
L 98.997041 82.62572 
L 101.832848 84.889283 
L 98.79519 87.566002 
L 99.420103 85.633921 
L 98.331501 86.387619 
L 96.765835 89.002349 
L 98.000703 90.834452 
L 95.083338 91.303413 
L 96.36686 92.353087 
L 95.182057 93.565584 
L 91.120511 91.877479 
L 93.159001 92.981763 
L 91.628917 93.184235 
L 91.612382 96.684225 
L 88.808537 95.269105 
L 91.113586 97.250983 
L 89.169726 97.897164 
L 91.302208 100.038292 
L 88.266283 98.250894 
L 90.941024 100.361934 
L 87.725132 101.471856 
L 89.651204 101.552763 
L 88.455381 103.457897 
L 90.949683 101.401295 
L 90.837265 102.763648 
L 89.419594 105.130541 
L 88.094823 103.256899 
L 88.086321 105.301681 
L 86.24669 105.805071 
L 88.147097 106.319421 
L 86.031772 106.136924 
L 87.312933 106.53065 
L 85.782374 106.752923 
L 87.002759 107.717698 
L 85.738759 111.667232 
L 86.658894 111.799259 
L 86.169854 114.016992 
L 85.979028 112.311337 
L 85.962969 113.475162 
L 84.407064 112.281375 
L 85.085822 113.515958 
L 83.709404 112.310791 
L 85.575489 114.047859 
L 83.787499 114.680468 
L 85.789305 115.147643 
L 85.315228 116.628799 
L 86.648501 114.908377 
L 85.755451 121.134164 
L 84.917355 119.220968 
L 84.453039 120.996801 
L 86.201347 121.522218 
L 85.41379 125.673354 
L 88.654395 142.367306 
L 96.242002 160.08119 
L 103.822683 171.842679 
L 104.820124 174.837332 
L 102.386122 175.883676 
L 102.076417 178.46399 
L 101.535428 177.360054 
L 100.980577 175.862194 
L 100.700632 171.500734 
L 98.730951 170.275465 
L 111.766746 204.724022 
L 108.981328 203.177606 
L 112.4896 205.187323 
L 114.992406 213.251958 
L 113.142543 236.199583 
L 112.944781 233.457425 
L 107.055256 250.091104 
L 110.425922 246.915133 
L 106.676911 252.200025 
L 106.125998 250.889182 
L 106.971657 251.585639 
L 107.668203 250.502612 
L 104.140728 249.112114 
L 101.766875 251.544072 
L 98.861163 250.479471 
L 93.1516 252.019706 
L 91.439188 249.558751 
L 92.017029 247.246813 
L 95.008863 249.833729 
L 96.994609 248.949873 
L 91.964279 245.953318 
L 90.64927 242.821607 
L 94.466609 241.810885 
L 92.498031 240.599342 
L 90.313902 241.991871 
L 89.100923 239.179376 
L 90.270919 238.242805 
L 87.836923 238.194571 
L 87.226336 237.1164 
L 88.877346 236.582225 
L 86.839958 235.120794 
L 84.467365 233.878262 
L 84.087755 235.234166 
L 82.264346 232.940563 
L 81.990224 234.201901 
L 79.900725 233.868635 
L 79.650851 232.4814 
L 81.482456 232.280686 
L 79.71966 232.386475 
L 80.965866 231.917757 
L 78.403387 229.773331 
L 77.372731 221.449792 
L 74.087409 220.60589 
L 78.387327 215.700378 
L 75.154122 219.042608 
L 73.056121 218.798459 
L 72.385384 210.691068 
L 74.361995 209.30138 
L 71.53469 210.27572 
L 68.721717 208.29716 
L 71.001096 212.705221 
L 68.480978 212.94676 
L 65.20431 207.284773 
L 62.581692 202.345153 
L 62.513515 199.169969 
L 60.054168 197.755267 
L 64.525552 196.708378 
L 60.982799 196.37867 
L 65.351683 192.088982 
L 66.022257 186.760473 
L 64.232696 187.383849 
L 64.585226 189.669149 
L 63.279346 189.377523 
L 62.994992 186.371717 
L 60.045033 184.648604 
L 59.298098 187.012835 
L 62.324261 188.279798 
L 60.389536 192.623922 
L 58.360175 188.15208 
L 58.44567 190.156003 
L 56.993049 189.05648 
L 56.75231 188.532009 
L 61.154891 172.998536 
L 61.189847 165.940951 
L 59.194339 165.431008 
L 61.447115 165.038187 
L 58.524241 161.993052 
L 57.87933 157.889069 
L 52.482621 158.199209 
L 49.083304 151.844793 
L 45.452855 149.747407 
L 45.460256 146.06021 
L 41.627483 144.012168 
L 39.656069 140.087724 
L 33.383631 135.763881 
L 29.434504 136.562179 
L 28.798096 134.971128 
L 28.866428 136.303264 
L 25.143084 137.407328 
L 26.047626 138.99019 
L 24.113527 138.442143 
L 25.946229 140.755085 
L 22.387419 140.323892 
L 14.776981 145.001141 
L 15.427559 142.729353 
L 12.567662 145.123691 
L 7.2 145.975799 
L 7.2 7.199999 
L 132.435334 7.199999 
z
" clip-path="url(#p2e8406ee9e)" style="fill: #d3d3d3"/>
   </g>
   <g id="patch_5">
    <path d="M 100.105003 204.562961 
L 103.017176 210.227686 
L 100.09367 216.104649 
L 92.95668 209.526627 
L 100.099336 204.459771 
z
" clip-path="url(#p2e8406ee9e)" style="fill: #add8e6"/>
   </g>
   <g id="matplotlib.axis_1"/>
   <g id="matplotlib.axis_2"/>
   <g id="LineCollection_1">
    <path d="M 132.43533 60.134986 
L 130.522505 56.903019 
L 132.43533 60.574593 
" clip-path="url(#p2e8406ee9e)" style="fill: none; stroke: #000000; stroke-width: 0.6"/>
    <path d="M 132.43533 61.204497 
L 128.336016 64.011107 
L 128.681773 65.451668 
L 125.257738 64.811892 
L 118.791952 71.704683 
L 116.987434 69.372213 
L 116.446283 71.306437 
L 118.336768 72.144225 
L 115.606924 75.376856 
L 111.966239 76.518351 
L 110.770417 75.273496 
L 111.645202 76.449605 
L 108.780739 78.553782 
L 107.007552 76.594566 
L 106.913083 78.041413 
L 103.135261 77.800774 
L 106.22456 80.189389 
L 102.90145 83.912045 
L 98.582476 78.008745 
L 98.997039 82.625719 
L 101.832846 84.88928 
L 98.79519 87.566004 
L 99.420103 85.633924 
L 98.331503 86.387616 
L 96.765834 89.002354 
L 98.000704 90.834446 
L 95.083338 91.303415 
L 96.366859 92.353087 
L 95.182058 93.565589 
L 91.120514 91.877475 
L 93.159001 92.981764 
L 91.628915 93.184238 
L 91.612383 96.684226 
L 88.808538 95.269104 
L 91.113586 97.250988 
L 89.169725 97.897167 
L 91.302209 100.038298 
L 88.266285 98.250895 
L 90.941022 100.361935 
L 87.725134 101.471856 
L 89.651203 101.552765 
L 88.455381 103.457897 
L 90.949682 101.40129 
L 90.837264 102.763645 
L 89.419596 105.130536 
L 88.094823 103.256898 
L 88.086321 105.301679 
L 86.246691 105.805074 
L 88.147096 106.319416 
L 86.031774 106.136921 
L 87.312934 106.53065 
L 85.782375 106.752923 
L 87.00276 107.717694 
L 85.738762 111.667227 
L 86.658892 111.799263 
L 86.169857 114.016996 
L 85.979029 112.311337 
L 85.962969 113.475167 
L 84.407062 112.28137 
L 85.085823 113.515961 
L 83.709407 112.310786 
L 85.575488 114.047859 
L 83.787501 114.680465 
L 85.789303 115.147644 
L 85.315225 116.628804 
L 86.6485 114.908374 
L 85.755452 121.134163 
L 84.917353 119.220973 
L 84.453037 120.9968 
L 86.201346 121.522214 
L 85.413788 125.673359 
L 88.654396 142.367304 
L 96.242003 160.081195 
L 103.822682 171.842683 
L 104.820119 174.837334 
L 102.38612 175.883677 
L 102.076419 178.463991 
L 101.535425 177.360054 
L 100.980576 175.862195 
L 100.700633 171.500734 
L 98.73095 170.275462 
L 111.766752 204.724022 
L 108.981328 203.177607 
L 112.489599 205.187323 
L 114.992402 213.251959 
L 113.142538 236.199582 
L 112.944783 233.457424 
L 107.055259 250.091104 
L 110.42592 246.915133 
L 106.67691 252.200025 
L 106.125998 250.889182 
L 106.971654 251.585639 
L 107.668207 250.502612 
L 104.140728 249.112114 
L 101.766875 251.544072 
L 98.86116 250.479472 
L 93.151601 252.019706 
L 91.43919 249.55875 
L 92.017026 247.246812 
L 95.008865 249.833728 
L 96.994607 248.949873 
L 91.964281 245.953317 
L 90.64927 242.821606 
L 94.466612 241.810885 
L 92.498032 240.599343 
L 90.313904 241.991872 
L 89.10092 239.179376 
L 90.270921 238.242806 
L 87.836923 238.194571 
L 87.226337 237.116399 
L 88.877343 236.582224 
L 86.839958 235.120793 
L 84.467365 233.878263 
L 84.087756 235.234167 
L 82.264343 232.940564 
L 81.990225 234.201901 
L 79.900725 233.868636 
L 79.650854 232.481399 
L 81.482453 232.280687 
L 79.719659 232.386474 
L 80.965865 231.917756 
L 78.403388 229.773331 
L 77.372729 221.449791 
L 74.087406 220.60589 
L 78.387328 215.700381 
L 75.154121 219.04261 
L 73.056118 218.798462 
L 72.385387 210.691067 
L 74.361997 209.301381 
L 71.534692 210.275722 
L 68.721715 208.29716 
L 71.001098 212.705222 
L 68.480976 212.94676 
L 65.204312 207.284772 
L 62.581691 202.345152 
L 62.513515 199.169969 
L 60.054168 197.755268 
L 64.525551 196.708377 
L 60.9828 196.378672 
L 65.351684 192.088984 
L 66.022258 186.760471 
L 64.232697 187.383849 
L 64.585224 189.669147 
L 63.279345 189.377522 
L 62.994993 186.371717 
L 60.045036 184.648605 
L 59.2981 187.012835 
L 62.324262 188.279798 
L 60.389533 192.623923 
L 58.360178 188.15208 
L 58.445673 190.156005 
L 56.993052 189.056482 
L 56.752313 188.532011 
L 61.154891 172.99854 
L 61.189845 165.940954 
L 59.194341 165.431005 
L 61.447116 165.038181 
L 58.52424 161.993047 
L 57.87933 157.889074 
L 52.482621 158.199213 
L 49.083305 151.844793 
L 45.452855 149.747412 
L 45.460255 146.060208 
L 41.627483 144.012163 
L 39.656069 140.08773 
L 33.38363 135.763879 
L 29.434504 136.562184 
L 28.798096 134.97113 
L 28.866429 136.30327 
L 25.143084 137.407325 
L 26.047626 138.990196 
L 24.113527 138.442147 
L 25.946229 140.755087 
L 22.387418 140.323887 
L 14.776981 145.001144 
L 15.427559 142.729358 
L 12.567662 145.123696 
L 7.2 145.975796 
L 7.2 145.975796 
" clip-path="url(#p2e8406ee9e)" style="fill: none; stroke: #000000; stroke-width: 0.6"/>
    <path d="M 100.105005 204.562961 
L 103.017174 210.227685 
L 100.093668 216.104647 
L 92.95668 209.526628 
L 100.099336 204.459771 
L 100.105005 204.562961 
" clip-path="url(#p2e8406ee9e)" style="fill: none; stroke: #000000; stroke-width: 0.6"/>
   </g>
   <g id="LineCollection_2"/>
   <g id="LineCollection_3">
    <path d="M 32.713615 7.2 
L 32.415793 7.675882 
L 31.662087 8.879525 
L 31.463702 9.196379 
L 27.089779 10.080919 
L 26.407711 16.233225 
" clip-path="url(#p2e8406ee9e)" style="fill: none; stroke: #ffffff; stroke-width: 0.3"/>
    <path d="M 32.713615 7.2 
L 32.415793 7.675882 
L 31.662087 8.879525 
L 31.463702 9.196379 
L 27.089779 10.080919 
L 26.407711 16.233225 
" clip-path="url(#p2e8406ee9e)" style="fill: none; stroke: #ffffff; stroke-width: 0.3"/>
    <path d="M 51.716791 15.876514 
L 52.898758 15.425925 
L 54.080724 14.975237 
L 55.262691 14.524451 
L 56.444658 14.073566 
L 57.626625 13.622581 
L 58.808592 13.171499 
L 59.990401 12.720317 
L 61.172368 12.269036 
L 62.354335 11.817655 
L 63.536302 11.366369 
L 64.718268 10.91479 
L 65.900235 10.463112 
L 66.294644 10.312402 
L 67.531561 10.383904 
L 68.768319 10.45521 
L 70.005236 10.5269 
L 71.241995 10.598202 
L 72.478911 10.669694 
L 73.71567 10.741183 
L 74.952587 10.812477 
L 76.189503 10.884154 
L 77.426262 10.955444 
L 78.663178 11.026923 
L 79.899937 11.0984 
L 81.136854 11.169682 
L 82.373613 11.241347 
L 83.610529 11.312624 
L 84.847446 11.384091 
L 86.084204 11.455555 
L 87.321121 11.527017 
L 88.032316 11.568044 
L 93.845162 12.037966 
L 94.240673 14.462325 
L 96.333008 12.970173 
L 99.394282 16.988726 
L 99.273833 20.273436 
L 100.511852 20.29837 
L 101.74987 20.323304 
L 102.988046 20.348237 
L 104.226065 20.37317 
L 105.464084 20.398103 
L 106.702102 20.423036 
L 107.940278 20.447968 
L 109.178297 20.4729 
L 110.416315 20.497832 
L 111.654334 20.522763 
L 112.89251 20.547886 
L 114.130528 20.572816 
L 115.368547 20.597747 
L 116.606565 20.622677 
L 117.844741 20.647607 
L 119.08276 20.672536 
L 120.320778 20.697465 
L 121.558797 20.722394 
L 122.502072 20.741378 
L 123.447708 21.714897 
L 124.393187 22.687766 
L 125.338824 23.66018 
L 126.284303 24.632331 
L 127.229939 25.604027 
L 128.175418 26.575078 
L 129.121054 27.545678 
L 130.066533 28.516016 
L 131.01217 29.485904 
L 131.957649 30.455152 
L 132.43533 30.944589 
" clip-path="url(#p2e8406ee9e)" style="fill: none; stroke: #ffffff; stroke-width: 0.3"/>
    <path d="M 51.716791 15.876514 
L 52.898758 15.425925 
L 54.080724 14.975237 
L 55.262691 14.524451 
L 56.444658 14.073566 
L 57.626625 13.622581 
L 58.808592 13.171499 
L 59.990401 12.720317 
L 61.172368 12.269036 
L 62.354335 11.817655 
L 63.536302 11.366369 
L 64.718268 10.91479 
L 65.900235 10.463112 
L 66.294644 10.312402 
L 67.531561 10.383904 
L 68.768319 10.45521 
L 70.005236 10.5269 
L 71.241995 10.598202 
L 72.478911 10.669694 
L 73.71567 10.741183 
L 74.952587 10.812477 
L 76.189503 10.884154 
L 77.426262 10.955444 
L 78.663178 11.026923 
L 79.899937 11.0984 
L 81.136854 11.169682 
L 82.373613 11.241347 
L 83.610529 11.312624 
L 84.847446 11.384091 
L 86.084204 11.455555 
L 87.321121 11.527017 
L 88.032316 11.568044 
L 93.845162 12.037966 
L 94.240673 14.462325 
L 96.333008 12.970173 
L 99.394282 16.988726 
L 99.273833 20.273436 
L 100.511852 20.29837 
L 101.74987 20.323304 
L 102.988046 20.348237 
L 104.226065 20.37317 
L 105.464084 20.398103 
L 106.702102 20.423036 
L 107.940278 20.447968 
L 109.178297 20.4729 
L 110.416315 20.497832 
L 111.654334 20.522763 
L 112.89251 20.547886 
L 114.130528 20.572816 
L 115.368547 20.597747 
L 116.606565 20.622677 
L 117.844741 20.647607 
L 119.08276 20.672536 
L 120.320778 20.697465 
L 121.558797 20.722394 
L 122.502072 20.741378 
L 123.447708 21.714897 
L 124.393187 22.687766 
L 125.338824 23.66018 
L 126.284303 24.632331 
L 127.229939 25.604027 
L 128.175418 26.575078 
L 129.121054 27.545678 
L 130.066533 28.516016 
L 131.01217 29.485904 
L 131.957649 30.455152 
L 132.43533 30.944589 
" clip-path="url(#p2e8406ee9e)" style="fill: none; stroke: #ffffff; stroke-width: 0.3"/>
    <path d="M 84.461067 121.146067 
L 83.252963 120.830489 
L 82.04486 120.514867 
L 80.836757 120.199019 
L 79.628496 119.883311 
L 78.420393 119.56756 
L 77.212289 119.251583 
L 76.004186 118.935562 
L 75.094133 118.697602 
L 73.506106 120.679369 
L 73.490991 122.119456 
L 73.475876 123.558465 
L 73.460603 124.996766 
L 73.445488 126.433995 
L 73.430373 127.870521 
L 73.415258 129.306163 
L 73.414471 129.379893 
L 70.897812 129.632455 
L 69.476209 124.797278 
L 68.240079 124.713529 
L 67.00395 124.629776 
L 65.767821 124.546204 
L 64.531692 124.462445 
L 63.295563 124.378684 
L 62.059434 124.294919 
L 60.823304 124.211334 
L 59.587175 124.127564 
L 58.351046 124.04379 
L 57.114917 123.960013 
L 55.878788 123.876233 
L 54.642659 123.792451 
L 53.406529 123.708665 
L 52.1704 123.624876 
L 50.934271 123.541084 
L 49.698142 123.45729 
L 48.462013 123.373492 
L 47.225884 123.289874 
L 45.989754 123.20607 
L 44.753625 123.122263 
L 43.517496 123.038453 
L 42.281367 122.954823 
L 41.045238 122.871007 
L 39.809109 122.787188 
L 38.572979 122.703366 
L 37.337008 122.619541 
L 36.100879 122.535713 
L 34.864749 122.451882 
L 33.62862 122.368047 
L 32.392491 122.28421 
L 31.156362 122.20037 
L 29.920233 122.116527 
L 28.684104 122.032863 
L 27.447974 121.949014 
L 26.211845 121.865162 
L 24.975716 121.781306 
L 23.739587 121.697631 
L 22.503458 121.61377 
L 21.267329 121.529905 
L 20.031199 121.446038 
L 18.79507 121.362167 
L 17.558941 121.278293 
L 16.322812 121.194417 
L 15.217837 121.119511 
L 13.176988 116.259934 
" clip-path="url(#p2e8406ee9e)" style="fill: none; stroke: #ffffff; stroke-width: 0.3"/>
    <path d="M 84.461067 121.146067 
L 83.252963 120.830489 
L 82.04486 120.514867 
L 80.836757 120.199019 
L 79.628496 119.883311 
L 78.420393 119.56756 
L 77.212289 119.251583 
L 76.004186 118.935562 
L 75.094133 118.697602 
L 73.506106 120.679369 
L 73.490991 122.119456 
L 73.475876 123.558465 
L 73.460603 124.996766 
L 73.445488 126.433995 
L 73.430373 127.870521 
L 73.415258 129.306163 
L 73.414471 129.379893 
L 70.897812 129.632455 
L 69.487702 124.817393 
L 68.251573 124.733278 
L 67.015444 124.648978 
L 65.779315 124.564857 
L 64.543343 124.48055 
L 63.307214 124.396424 
L 62.071085 124.312294 
L 60.834956 124.228161 
L 59.598826 124.144025 
L 58.362697 124.059886 
L 57.126726 123.975561 
L 55.890596 123.891416 
L 54.654467 123.807086 
L 53.418338 123.722934 
L 52.182209 123.63878 
L 50.94608 123.554623 
L 49.710108 123.470463 
L 48.473979 123.386299 
L 47.23785 123.30195 
L 46.00172 123.217781 
L 44.765591 123.133425 
L 43.529462 123.04925 
L 42.29349 122.965071 
L 41.057361 122.880889 
L 39.821232 122.796705 
L 38.585103 122.712517 
L 37.348974 122.628143 
L 36.112845 122.543949 
L 34.876715 122.459569 
L 33.640744 122.375369 
L 32.404615 122.291166 
L 31.168485 122.20696 
L 29.932356 122.122751 
L 28.696227 122.038539 
L 27.460098 121.95414 
L 26.224126 121.869922 
L 24.987997 121.785518 
L 23.751868 121.701293 
L 22.515739 121.617065 
L 21.27961 121.532835 
L 20.04348 121.448601 
L 18.807509 121.364364 
L 17.57138 121.279942 
L 16.33525 121.195699 
L 15.217837 121.119511 
L 13.176988 116.259934 
" clip-path="url(#p2e8406ee9e)" style="fill: none; stroke: #ffffff; stroke-width: 0.3"/>
    <path d="M 11.216438 88.838697 
L 14.644567 83.577266 
L 12.523577 81.95628 
L 12.603718 77.650478 
L 11.982426 76.38011 
L 11.361133 75.10882 
L 10.739841 73.836793 
L 10.118549 72.564214 
L 9.497257 71.290708 
L 8.875964 70.016458 
L 8.866202 69.99641 
L 8.615702 68.552859 
L 8.365358 67.108538 
L 8.114858 65.66307 
L 7.864514 64.216638 
L 7.614014 62.769241 
L 7.36367 61.320875 
L 7.2 60.374028 
" clip-path="url(#p2e8406ee9e)" style="fill: none; stroke: #ffffff; stroke-width: 0.3"/>
    <path d="M 70.192757 49.461545 
L 71.21145 50.307092 
L 72.230142 51.152304 
L 73.248678 51.997183 
L 74.26737 52.841728 
L 75.286063 53.685939 
L 75.833512 54.139535 
L 75.684565 56.81103 
L 79.32462 61.794869 
L 80.407552 62.51187 
L 81.490483 63.228634 
L 82.573415 63.945348 
L 83.656347 64.661638 
L 84.739278 65.377691 
L 84.856578 65.455235 
L 85.130538 66.89465 
L 85.404499 68.3333 
L 85.678459 69.770813 
L 85.95242 71.207379 
L 86.226381 72.643188 
L 86.500341 74.078055 
L 86.685186 75.045451 
L 90.050178 77.26302 
L 92.30311 82.247892 
L 92.171326 86.937286 
L 97.19866 89.440693 
" clip-path="url(#p2e8406ee9e)" style="fill: none; stroke: #ffffff; stroke-width: 0.3"/>
    <path d="M 70.192757 49.461545 
L 71.21145 50.307092 
L 72.230142 51.152304 
L 73.248678 51.997183 
L 74.26737 52.841728 
L 75.286063 53.685939 
L 75.833512 54.139535 
L 75.684565 56.81103 
L 79.32462 61.794869 
L 80.407552 62.51187 
L 81.490483 63.228634 
L 82.573415 63.945348 
L 83.656347 64.661638 
L 84.739278 65.377691 
L 84.856578 65.455235 
L 85.130538 66.89465 
L 85.404499 68.3333 
L 85.678459 69.770813 
L 85.95242 71.207379 
L 86.226381 72.643188 
L 86.500341 74.078055 
L 86.685186 75.045451 
L 90.050178 77.26302 
L 92.30311 82.247892 
L 92.171326 86.937286 
L 97.19866 89.440693 
" clip-path="url(#p2e8406ee9e)" style="fill: none; stroke: #ffffff; stroke-width: 0.3"/>
    <path d="M 11.222264 88.838697 
L 14.644567 83.577266 
L 12.523577 81.95628 
L 12.603718 77.650478 
L 11.982426 76.38011 
L 11.361133 75.10882 
L 10.739841 73.836793 
L 10.118549 72.564214 
L 9.497257 71.290708 
L 8.875964 70.016458 
L 8.866202 69.99641 
L 8.615702 68.552859 
L 8.365358 67.108538 
L 8.114858 65.66307 
L 7.864514 64.216638 
L 7.614014 62.769241 
L 7.36367 61.320875 
L 7.2 60.374028 
" clip-path="url(#p2e8406ee9e)" style="fill: none; stroke: #ffffff; stroke-width: 0.3"/>
    <path d="M 21.133812 15.953397 
L 22.371988 15.950706 
L 23.610322 15.947631 
L 24.848498 15.94494 
L 26.086674 15.942057 
L 27.325007 15.939174 
L 28.563183 15.936483 
L 29.801359 15.9336 
L 31.039535 15.930717 
L 32.277868 15.928026 
L 33.516044 15.925143 
L 34.75422 15.92226 
L 35.992554 15.919569 
L 37.23073 15.916494 
L 38.468906 15.913803 
L 39.707239 15.91092 
L 40.945415 15.908037 
L 42.183591 15.905346 
L 43.421925 15.902463 
L 44.660101 15.89958 
L 45.898277 15.896889 
L 47.136453 15.894005 
L 48.374786 15.891122 
L 49.612962 15.888431 
L 50.851138 15.885356 
L 51.745446 15.883434 
L 50.936318 17.027531 
L 50.127347 18.170801 
L 49.318218 19.31344 
L 48.509247 20.455639 
L 47.700119 21.597018 
L 46.891148 22.737768 
L 46.431398 23.385759 
L 47.462529 24.219251 
L 48.493817 25.0526 
L 49.524948 25.885424 
L 50.556237 26.717915 
L 51.587368 27.550265 
L 52.618656 28.382091 
L 53.201531 28.852224 
L 56.228324 28.977524 
L 57.540973 32.041976 
" clip-path="url(#p2e8406ee9e)" style="fill: none; stroke: #ffffff; stroke-width: 0.3"/>
    <path d="M 21.133812 15.953397 
L 22.371988 15.950706 
L 23.610322 15.947631 
L 24.848498 15.94494 
L 26.086674 15.942057 
L 27.325007 15.939174 
L 28.563183 15.936483 
L 29.801359 15.9336 
L 31.039535 15.930717 
L 32.277868 15.928026 
L 33.516044 15.925143 
L 34.75422 15.92226 
L 35.992554 15.919569 
L 37.23073 15.916494 
L 38.468906 15.913803 
L 39.707239 15.91092 
L 40.945415 15.908037 
L 42.183591 15.905346 
L 43.421925 15.902463 
L 44.660101 15.89958 
L 45.898277 15.896889 
L 47.136453 15.894005 
L 48.374786 15.891122 
L 49.612962 15.888431 
L 50.851138 15.885356 
L 51.745446 15.883434 
L 50.936318 17.027531 
L 50.127347 18.170801 
L 49.318218 19.31344 
L 48.509247 20.455639 
L 47.700119 21.597018 
L 46.891148 22.737768 
L 46.431398 23.385759 
L 47.462529 24.219251 
L 48.493817 25.0526 
L 49.524948 25.885424 
L 50.556237 26.717915 
L 51.587368 27.550265 
L 52.618656 28.382091 
L 53.201531 28.852224 
L 56.228324 28.977524 
L 57.540973 32.041976 
" clip-path="url(#p2e8406ee9e)" style="fill: none; stroke: #ffffff; stroke-width: 0.3"/>
    <path d="M 7.2 114.355367 
L 8.212633 114.355367 
L 9.450809 114.355 
L 10.688985 114.355 
L 11.927319 114.354816 
L 12.339991 114.354633 
" clip-path="url(#p2e8406ee9e)" style="fill: none; stroke: #ffffff; stroke-width: 0.3"/>
    <path d="M 7.2 114.355367 
L 8.212633 114.355367 
L 9.450809 114.355 
L 10.688985 114.355 
L 11.927319 114.354816 
L 12.339991 114.354633 
" clip-path="url(#p2e8406ee9e)" style="fill: none; stroke: #ffffff; stroke-width: 0.3"/>
    <path d="M 57.546798 31.986285 
L 58.214223 33.249271 
L 58.881805 34.511497 
L 59.54923 35.772965 
L 60.216812 37.033677 
L 60.884237 38.293635 
L 61.551819 39.552651 
L 62.219244 40.811106 
L 62.826523 41.9553 
L 63.891978 42.715792 
L 64.957433 43.475821 
L 66.022888 44.235768 
L 67.088343 44.995442 
L 68.153955 45.754655 
L 68.180564 45.773793 
L 70.135446 49.399501 
" clip-path="url(#p2e8406ee9e)" style="fill: none; stroke: #ffffff; stroke-width: 0.3"/>
    <path d="M 57.546798 31.986285 
L 58.214223 33.249271 
L 58.881805 34.511497 
L 59.54923 35.772965 
L 60.216812 37.033677 
L 60.884237 38.293635 
L 61.551819 39.552651 
L 62.219244 40.811106 
L 62.826523 41.9553 
L 63.891978 42.715792 
L 64.957433 43.475821 
L 66.022888 44.235768 
L 67.088343 44.995442 
L 68.153955 45.754655 
L 68.180564 45.773793 
L 70.135446 49.399501 
" clip-path="url(#p2e8406ee9e)" style="fill: none; stroke: #ffffff; stroke-width: 0.3"/>
    <path d="M 11.176289 99.196919 
L 11.05647 100.643763 
L 10.936652 102.089865 
L 10.816833 103.534859 
L 10.697015 104.978932 
L 10.577197 106.422271 
L 10.457378 107.864695 
L 10.33756 109.305838 
L 10.327955 109.420523 
L 10.870523 110.721419 
L 11.412934 112.021758 
L 11.955502 113.321176 
L 12.49807 114.619857 
L 13.04048 115.917989 
L 13.21147 116.326739 
" clip-path="url(#p2e8406ee9e)" style="fill: none; stroke: #ffffff; stroke-width: 0.3"/>
    <path d="M 11.182114 99.196919 
L 11.061509 100.643763 
L 10.940903 102.089496 
L 10.82014 103.534674 
L 10.699534 104.978563 
L 10.578929 106.421902 
L 10.458323 107.863958 
L 10.33756 109.305286 
L 10.327955 109.420523 
L 10.870523 110.721419 
L 11.412934 112.021758 
L 11.955502 113.321176 
L 12.49807 114.619857 
L 13.04048 115.917989 
L 13.21147 116.326739 
" clip-path="url(#p2e8406ee9e)" style="fill: none; stroke: #ffffff; stroke-width: 0.3"/>
    <path d="M 7.2 15.887543 
L 8.052193 15.887278 
L 9.290369 15.886894 
L 10.528545 15.886509 
L 11.766878 15.886125 
L 13.005054 15.885741 
L 14.24323 15.885356 
L 15.481564 15.884972 
L 16.71974 15.884779 
L 17.957916 15.884395 
L 19.196249 15.884011 
L 20.434425 15.883626 
L 21.04202 15.883434 
" clip-path="url(#p2e8406ee9e)" style="fill: none; stroke: #ffffff; stroke-width: 0.3"/>
    <path d="M 7.2 15.887543 
L 8.052193 15.887278 
L 9.290369 15.886894 
L 10.528545 15.886509 
L 11.766878 15.886125 
L 13.005054 15.885741 
L 14.24323 15.885356 
L 15.481564 15.884972 
L 16.71974 15.884779 
L 17.957916 15.884395 
L 19.196249 15.884011 
L 20.434425 15.883626 
L 21.04202 15.883434 
" clip-path="url(#p2e8406ee9e)" style="fill: none; stroke: #ffffff; stroke-width: 0.3"/>
    <path d="M 11.147633 99.156423 
L 9.54827 94.371274 
L 11.176289 88.784638 
" clip-path="url(#p2e8406ee9e)" style="fill: none; stroke: #ffffff; stroke-width: 0.3"/>
    <path d="M 11.147633 99.156423 
L 9.54827 94.371274 
L 11.182114 88.784638 
" clip-path="url(#p2e8406ee9e)" style="fill: none; stroke: #ffffff; stroke-width: 0.3"/>
   </g>
   <g id="line2d_1">
    <path d="M 108.926323 198.393848 
L 103.096341 183.539264 
L 103.096341 183.539264 
" clip-path="url(#p2e8406ee9e)" style="fill: none; stroke: #008000; stroke-width: 0.75; stroke-linecap: square"/>
   </g>
   <g id="line2d_2">
    <path d="M 108.926323 198.393848 
L 114.544569 215.345929 
L 114.544569 215.345929 
" clip-path="url(#p2e8406ee9e)" style="fill: none; stroke: #008000; stroke-width: 0.75; stroke-linecap: square"/>
   </g>
   <g id="line2d_3">
    <path d="M 103.096341 183.539264 
L 98.980476 171.144228 
L 98.980476 171.144228 
" clip-path="url(#p2e8406ee9e)" style="fill: none; stroke: #008000; stroke-width: 0.75; stroke-linecap: square"/>
   </g>
   <g id="line2d_4">
    <path d="M 80.079776 183.344408 
L 87.182449 172.88038 
L 87.182449 172.88038 
" clip-path="url(#p2e8406ee9e)" style="fill: none; stroke: #008000; stroke-width: 0.75; stroke-linecap: square"/>
   </g>
   <g id="line2d_5">
    <path d="M 80.079776 183.344408 
L 64.91109 186.72102 
L 64.91109 186.72102 
" clip-path="url(#p2e8406ee9e)" style="fill: none; stroke: #008000; stroke-width: 0.75; stroke-linecap: square"/>
   </g>
   <g id="line2d_6">
    <path d="M 87.182449 172.88038 
L 94.53772 157.032147 
L 94.53772 157.032147 
" clip-path="url(#p2e8406ee9e)" style="fill: none; stroke: #008000; stroke-width: 0.75; stroke-linecap: square"/>
   </g>
   <g id="line2d_7">
    <path d="M 114.544569 215.345929 
L 112.687023 229.0116 
L 112.687023 229.0116 
" clip-path="url(#p2e8406ee9e)" style="fill: none; stroke: #008000; stroke-width: 0.75; stroke-linecap: square"/>
   </g>
   <g id="line2d_8">
    <path d="M 111.649389 236.999411 
L 112.687023 229.0116 
L 112.687023 229.0116 
" clip-path="url(#p2e8406ee9e)" style="fill: none; stroke: #008000; stroke-width: 0.75; stroke-linecap: square"/>
   </g>
   <g id="line2d_9">
    <path d="M 35.1918 59.421427 
L 25.090761 47.164161 
L 25.090761 47.164161 
" clip-path="url(#p2e8406ee9e)" style="fill: none; stroke: #008000; stroke-width: 0.75; stroke-linecap: square"/>
   </g>
   <g id="line2d_10">
    <path d="M 35.1918 59.421427 
L 46.875291 68.573426 
L 46.875291 68.573426 
" clip-path="url(#p2e8406ee9e)" style="fill: none; stroke: #008000; stroke-width: 0.75; stroke-linecap: square"/>
   </g>
   <g id="line2d_11">
    <path d="M 62.829425 82.372454 
L 46.875291 68.573426 
L 46.875291 68.573426 
" clip-path="url(#p2e8406ee9e)" style="fill: none; stroke: #008000; stroke-width: 0.75; stroke-linecap: square"/>
   </g>
   <g id="line2d_12">
    <path d="M 62.829425 82.372454 
L 70.287675 96.854673 
L 70.287675 96.854673 
" clip-path="url(#p2e8406ee9e)" style="fill: none; stroke: #008000; stroke-width: 0.75; stroke-linecap: square"/>
   </g>
   <g id="line2d_13">
    <path d="M 73.916504 115.753143 
L 70.287675 96.854673 
L 70.287675 96.854673 
" clip-path="url(#p2e8406ee9e)" style="fill: none; stroke: #008000; stroke-width: 0.75; stroke-linecap: square"/>
   </g>
   <g id="line2d_14">
    <path d="M 73.916504 115.753143 
L 81.478146 130.370733 
L 81.478146 130.370733 
" clip-path="url(#p2e8406ee9e)" style="fill: none; stroke: #008000; stroke-width: 0.75; stroke-linecap: square"/>
   </g>
   <g id="line2d_15">
    <path d="M 88.518082 140.807972 
L 94.53772 157.032147 
L 94.53772 157.032147 
" clip-path="url(#p2e8406ee9e)" style="fill: none; stroke: #008000; stroke-width: 0.75; stroke-linecap: square"/>
   </g>
   <g id="line2d_16">
    <path d="M 88.518082 140.807972 
L 81.478146 130.370733 
L 81.478146 130.370733 
" clip-path="url(#p2e8406ee9e)" style="fill: none; stroke: #008000; stroke-width: 0.75; stroke-linecap: square"/>
   </g>
   <g id="line2d_17">
    <path d="M 98.980476 171.144228 
L 94.53772 157.032147 
L 94.53772 157.032147 
" clip-path="url(#p2e8406ee9e)" style="fill: none; stroke: #008000; stroke-width: 0.75; stroke-linecap: square"/>
   </g>
   <g id="patch_6">
    <path d="M 7.2 273.312 
L 7.2 7.2 
" style="fill: none; stroke: #ffffff; stroke-linejoin: miter; stroke-linecap: square"/>
   </g>
   <g id="patch_7">
    <path d="M 132.43533 273.312 
L 132.43533 7.2 
" style="fill: none; stroke: #ffffff; stroke-linejoin: miter; stroke-linecap: square"/>
   </g>
   <g id="patch_8">
    <path d="M 7.2 273.312 
L 132.43533 273.312 
" style="fill: none; stroke: #ffffff; stroke-linejoin: miter; stroke-linecap: square"/>
   </g>
   <g id="patch_9">
    <path d="M 7.2 7.2 
L 132.43533 7.2 
" style="fill: none; stroke: #ffffff; stroke-linejoin: miter; stroke-linecap: square"/>
   </g>
   <g id="PathCollection_1">
    <defs>
     <path id="m30a53f7d1f" d="M 0 1.118034 
C 0.296506 1.118034 0.580908 1.000231 0.790569 0.790569 
C 1.000231 0.580908 1.118034 0.296506 1.118034 0 
C 1.118034 -0.296506 1.000231 -0.580908 0.790569 -0.790569 
C 0.580908 -1.000231 0.296506 -1.118034 0 -1.118034 
C -0.296506 -1.118034 -0.580908 -1.000231 -0.790569 -0.790569 
C -1.000231 -0.580908 -1.118034 -0.296506 -1.118034 0 
C -1.118034 0.296506 -1.000231 0.580908 -0.790569 0.790569 
C -0.580908 1.000231 -0.296506 1.118034 0 1.118034 
z
" style="stroke: #ff0000"/>
    </defs>
    <g clip-path="url(#p2e8406ee9e)">
     <use xlink:href="#m30a53f7d1f" x="108.926323" y="198.393848" style="fill: #ff0000; stroke: #ff0000"/>
    </g>
   </g>
   <g id="PathCollection_2">
    <g clip-path="url(#p2e8406ee9e)">
     <use xlink:href="#m30a53f7d1f" x="103.096341" y="183.539264" style="fill: #ff0000; stroke: #ff0000"/>
    </g>
   </g>
   <g id="PathCollection_3">
    <g clip-path="url(#p2e8406ee9e)">
     <use xlink:href="#m30a53f7d1f" x="80.079776" y="183.344408" style="fill: #ff0000; stroke: #ff0000"/>
    </g>
   </g>
   <g id="PathCollection_4">
    <g clip-path="url(#p2e8406ee9e)">
     <use xlink:href="#m30a53f7d1f" x="87.182449" y="172.88038" style="fill: #ff0000; stroke: #ff0000"/>
    </g>
   </g>
   <g id="PathCollection_5">
    <g clip-path="url(#p2e8406ee9e)">
     <use xlink:href="#m30a53f7d1f" x="114.544569" y="215.345929" style="fill: #ff0000; stroke: #ff0000"/>
    </g>
   </g>
   <g id="PathCollection_6">
    <g clip-path="url(#p2e8406ee9e)">
     <use xlink:href="#m30a53f7d1f" x="64.91109" y="186.72102" style="fill: #ff0000; stroke: #ff0000"/>
    </g>
   </g>
   <g id="PathCollection_7">
    <g clip-path="url(#p2e8406ee9e)">
     <use xlink:href="#m30a53f7d1f" x="111.649389" y="236.999411" style="fill: #ff0000; stroke: #ff0000"/>
    </g>
   </g>
   <g id="PathCollection_8">
    <g clip-path="url(#p2e8406ee9e)">
     <use xlink:href="#m30a53f7d1f" x="112.687023" y="229.0116" style="fill: #ff0000; stroke: #ff0000"/>
    </g>
   </g>
   <g id="PathCollection_9">
    <g clip-path="url(#p2e8406ee9e)">
     <use xlink:href="#m30a53f7d1f" x="35.1918" y="59.421427" style="fill: #ff0000; stroke: #ff0000"/>
    </g>
   </g>
   <g id="PathCollection_10">
    <g clip-path="url(#p2e8406ee9e)">
     <use xlink:href="#m30a53f7d1f" x="25.090761" y="47.164161" style="fill: #ff0000; stroke: #ff0000"/>
    </g>
   </g>
   <g id="PathCollection_11">
    <g clip-path="url(#p2e8406ee9e)">
     <use xlink:href="#m30a53f7d1f" x="62.829425" y="82.372454" style="fill: #ff0000; stroke: #ff0000"/>
    </g>
   </g>
   <g id="PathCollection_12">
    <g clip-path="url(#p2e8406ee9e)">
     <use xlink:href="#m30a53f7d1f" x="46.875291" y="68.573426" style="fill: #ff0000; stroke: #ff0000"/>
    </g>
   </g>
   <g id="PathCollection_13">
    <g clip-path="url(#p2e8406ee9e)">
     <use xlink:href="#m30a53f7d1f" x="73.916504" y="115.753143" style="fill: #ff0000; stroke: #ff0000"/>
    </g>
   </g>
   <g id="PathCollection_14">
    <g clip-path="url(#p2e8406ee9e)">
     <use xlink:href="#m30a53f7d1f" x="70.287675" y="96.854673" style="fill: #ff0000; stroke: #ff0000"/>
    </g>
   </g>
   <g id="PathCollection_15">
    <g clip-path="url(#p2e8406ee9e)">
     <use xlink:href="#m30a53f7d1f" x="88.518082" y="140.807972" style="fill: #ff0000; stroke: #ff0000"/>
    </g>
   </g>
   <g id="PathCollection_16">
    <g clip-path="url(#p2e8406ee9e)">
     <use xlink:href="#m30a53f7d1f" x="81.478146" y="130.370733" style="fill: #ff0000; stroke: #ff0000"/>
    </g>
   </g>
   <g id="PathCollection_17">
    <g clip-path="url(#p2e8406ee9e)">
     <use xlink:href="#m30a53f7d1f" x="98.980476" y="171.144228" style="fill: #ff0000; stroke: #ff0000"/>
    </g>
   </g>
   <g id="PathCollection_18">
    <g clip-path="url(#p2e8406ee9e)">
     <use xlink:href="#m30a53f7d1f" x="94.53772" y="157.032147" style="fill: #ff0000; stroke: #ff0000"/>
    </g>
   </g>
  </g>
 </g>
 <defs>
  <clipPath id="p2e8406ee9e">
   <rect x="7.2" y="7.2" width="125.23533" height="266.112"/>
  </clipPath>
 </defs>
</svg>
