<?xml version="1.0" encoding="utf-8" standalone="no"?>
<!DOCTYPE svg PUBLIC "-//W3C//DTD SVG 1.1//EN"
  "http://www.w3.org/Graphics/SVG/1.1/DTD/svg11.dtd">
<svg xmlns:xlink="http://www.w3.org/1999/xlink" width="371.52pt" height="213.65564pt" viewBox="0 0 371.52 213.65564" xmlns="http://www.w3.org/2000/svg" version="1.1">
 <metadata>
  <rdf:RDF xmlns:dc="http://purl.org/dc/elements/1.1/" xmlns:cc="http://creativecommons.org/ns#" xmlns:rdf="http://www.w3.org/1999/02/22-rdf-syntax-ns#">
   <cc:Work>
    <dc:type rdf:resource="http://purl.org/dc/dcmitype/StillImage"/>
    <dc:date>2025-12-17T16:19:27.658739</dc:date>
    <dc:format>image/svg+xml</dc:format>
    <dc:creator>
     <cc:Agent>
      <dc:title>Matplotlib v3.10.6, https://matplotlib.org/</dc:title>
     </cc:Agent>
    </dc:creator>
   </cc:Work>
  </rdf:RDF>
 </metadata>
 <defs>
  <style type="text/css">*{stroke-linejoin: round; stroke-linecap: butt}</style>
 </defs>
 <g id="figure_1">
  <g id="patch_1">
   <path d="M 0 213.65564 
L 371.52 213.65564 
L 371.52 0 
L 0 0 
z
" style="fill: #ffffff"/>
  </g>
  <g id="axes_1">
   <g id="patch_2">
    <path d="M 7.2 206.45564 
L 364.32 206.45564 
L 364.32 7.2 
L 7.2 7.2 
z
" clip-path="url(#pcaedef02d2)" style="fill: #add8e6; stroke: #ffffff; stroke-linejoin: miter"/>
   </g>
   <g id="patch_3">
    <path d="M 7.2 206.45564 
L 364.32 206.45564 
L 364.32 7.2 
L 7.2 7.2 
z
" clip-path="url(#pcaedef02d2)" style="fill: #add8e6; stroke: #ffffff; stroke-linejoin: miter"/>
   </g>
   <g id="patch_4">
    <path d="M 364.319994 65.49345 
L 358.656394 65.753894 
L 364.319994 70.367667 
L 364.319994 83.241003 
L 361.404308 80.435707 
L 364.319994 84.067417 
L 364.319994 89.832781 
L 363.45011 89.731634 
L 364.319994 91.731314 
L 364.319994 101.510684 
L 362.507431 103.681571 
L 364.319994 114.379141 
L 364.319994 149.361108 
L 356.560622 142.990748 
L 351.17108 145.712188 
L 340.828796 140.342132 
L 334.942018 124.511079 
L 330.890729 131.610322 
L 328.197781 128.307326 
L 321.58323 133.807722 
L 319.923312 125.434478 
L 326.162041 118.881267 
L 322.312388 111.97986 
L 316.207025 136.339664 
L 333.826065 131.996307 
L 337.034582 147.245623 
L 360.164612 151.212854 
L 364.319994 158.441112 
L 364.319994 186.614915 
L 361.37956 180.102813 
L 340.723859 163.926868 
L 363.53354 191.501312 
L 364.319994 191.739077 
L 364.319994 206.45564 
L 354.883215 206.45564 
L 347.953886 198.265791 
L 353.264725 206.45564 
L 7.2 206.45564 
L 7.2 7.2 
L 364.319994 7.2 
z
" clip-path="url(#pcaedef02d2)" style="fill: #d3d3d3"/>
   </g>
   <g id="matplotlib.axis_1"/>
   <g id="matplotlib.axis_2"/>
   <g id="LineCollection_1">
    <path d="M 364.32 65.49345 
L 358.656383 65.753898 
L 364.32 70.367669 
" clip-path="url(#pcaedef02d2)" style="fill: none; stroke: #000000; stroke-width: 0.6"/>
    <path d="M 364.32 83.241005 
L 361.404307 80.435703 
L 364.32 84.067414 
" clip-path="url(#pcaedef02d2)" style="fill: none; stroke: #000000; stroke-width: 0.6"/>
    <path d="M 364.32 89.832778 
L 363.450126 89.731631 
L 364.32 91.731312 
" clip-path="url(#pcaedef02d2)" style="fill: none; stroke: #000000; stroke-width: 0.6"/>
    <path d="M 364.32 101.510687 
L 362.507418 103.681568 
L 364.32 114.379138 
" clip-path="url(#pcaedef02d2)" style="fill: none; stroke: #000000; stroke-width: 0.6"/>
    <path d="M 364.32 149.361109 
L 356.56061 142.990747 
L 351.171087 145.712188 
L 340.828793 140.342131 
L 334.942022 124.511075 
L 330.890714 131.610324 
L 328.197785 128.30733 
L 321.583245 133.807718 
L 319.923309 125.434475 
L 326.162049 118.881263 
L 322.312389 111.979857 
L 316.207012 136.339665 
L 333.826079 131.996305 
L 337.034587 147.245621 
L 360.164625 151.212856 
L 364.32 158.441112 
" clip-path="url(#pcaedef02d2)" style="fill: none; stroke: #000000; stroke-width: 0.6"/>
    <path d="M 364.32 186.614915 
L 361.379559 180.102813 
L 340.723844 163.926867 
L 363.533535 191.501312 
L 364.32 191.739077 
" clip-path="url(#pcaedef02d2)" style="fill: none; stroke: #000000; stroke-width: 0.6"/>
    <path d="M 354.883204 206.45564 
L 347.953871 198.265791 
L 353.264734 206.45564 
" clip-path="url(#pcaedef02d2)" style="fill: none; stroke: #000000; stroke-width: 0.6"/>
   </g>
   <g id="LineCollection_2"/>
   <g id="LineCollection_3">
    <path d="M 112.896742 7.2 
L 112.091189 9.845195 
L 110.75939 14.214061 
L 109.42805 18.57937 
L 108.096709 22.941134 
L 106.765368 27.299957 
L 105.434028 31.654657 
L 104.102687 36.005841 
L 103.576567 37.724389 
L 100.566042 40.295239 
L 97.555058 42.866054 
L 94.544532 45.435053 
L 91.533549 48.002832 
L 88.523023 50.569987 
L 85.51204 53.134739 
L 82.886022 55.37212 
L 74.409896 59.149016 
L 68.820099 54.011533 
L 61.878338 64.454522 
L 55.003946 65.48872 
L 46.92791 80.210201 
L 50.298654 91.546388 
L 40.704294 95.363666 
L 40.153426 87.062018 
L 33.54576 85.602583 
L 23.066895 103.331223 
L 25.553134 116.051007 
L 19.596244 118.186 
L 16.709916 128.912383 
L 7.2 130.395664 
" clip-path="url(#pcaedef02d2)" style="fill: none; stroke: #ffffff; stroke-width: 0.3"/>
    <path d="M 112.903766 7.2 
L 112.098063 9.848783 
L 110.767639 14.218244 
L 109.437674 18.584744 
L 108.10725 22.946503 
L 106.777284 27.305918 
L 105.44686 31.660613 
L 104.116894 36.012983 
L 103.593524 37.724389 
L 100.582082 40.294049 
L 97.57064 42.863082 
L 94.559198 45.430894 
L 91.547756 47.996894 
L 88.536314 50.562271 
L 85.524872 53.126433 
L 82.886022 55.37212 
L 74.409896 59.149016 
L 68.820099 54.011533 
L 61.878338 64.454522 
L 55.003946 65.48872 
L 46.92791 80.210201 
L 50.298654 91.546388 
L 40.704294 95.341885 
L 40.153426 87.062018 
L 33.54576 85.602583 
L 23.066895 103.331223 
L 25.553134 116.051007 
L 19.613201 118.186 
L 16.709916 128.912383 
L 7.2 130.395664 
" clip-path="url(#pcaedef02d2)" style="fill: none; stroke: #ffffff; stroke-width: 0.3"/>
    <path d="M 292.277712 60.551567 
L 286.270868 74.748079 
L 283.186099 72.344264 
L 280.100872 69.93998 
L 277.016103 67.534634 
L 273.930876 65.128223 
L 270.846107 62.720748 
L 267.76088 60.311612 
L 264.676111 57.901408 
L 261.590884 55.490725 
L 258.506115 53.078971 
L 255.969465 51.094667 
L 255.010716 55.592724 
L 254.052426 60.085868 
L 253.093677 64.576481 
L 252.134929 69.062797 
L 251.176639 73.545418 
L 251.080397 73.9946 
L 248.302684 76.955912 
L 245.524972 79.915618 
L 242.747717 82.87313 
L 239.970005 85.829042 
L 237.192292 88.783946 
L 234.414579 91.736668 
L 231.637325 94.687798 
L 228.859612 97.637929 
L 226.0819 100.586475 
L 223.998959 102.796258 
L 216.540702 97.763857 
L 214.501299 101.577988 
L 212.461896 105.389473 
L 210.422493 109.198317 
L 208.38309 113.004528 
L 206.343687 116.808112 
L 204.304284 120.609075 
L 202.264881 124.40801 
L 200.225478 128.20375 
L 199.020168 130.445784 
L 195.740625 128.53789 
L 192.461081 126.628752 
L 189.181538 124.718956 
L 185.901995 122.808499 
L 182.622451 120.897382 
L 179.342908 118.986189 
L 177.128437 117.69469 
L 175.654109 121.900479 
L 174.179781 126.103653 
L 172.705453 130.303051 
L 171.231125 134.499852 
L 169.756798 138.692894 
L 168.45158 142.40182 
L 166.126202 145.908776 
L 163.801283 149.412356 
L 161.475905 152.914315 
L 159.150985 156.414076 
L 156.825608 159.911643 
L 154.500688 163.407022 
L 152.175311 166.899636 
L 149.849933 170.391233 
L 147.525014 173.879495 
L 145.199636 177.366169 
L 142.874717 180.850679 
L 140.549339 184.333029 
L 139.034223 186.600701 
L 143.022287 191.17439 
L 139.468226 199.27936 
L 136.01224 200.568883 
L 132.556254 201.858113 
L 129.100268 203.147049 
L 125.644282 204.435691 
L 122.188296 205.72404 
L 120.225435 206.45564 
" clip-path="url(#pcaedef02d2)" style="fill: none; stroke: #ffffff; stroke-width: 0.3"/>
    <path d="M 105.502174 206.45564 
L 105.128346 206.259612 
L 105.009439 206.45564 
" clip-path="url(#pcaedef02d2)" style="fill: none; stroke: #ffffff; stroke-width: 0.3"/>
    <path d="M 42.024167 206.45564 
L 38.768465 198.269836 
L 35.474256 196.425416 
L 32.180048 194.58097 
L 28.885839 192.735344 
L 25.59163 190.889113 
L 22.297422 189.042856 
L 19.003213 187.194836 
L 18.395059 186.854345 
L 16.292411 183.153943 
L 14.189764 179.451104 
L 12.087575 175.746403 
L 9.984927 172.039254 
L 7.88228 168.329072 
L 7.2 167.124641 
" clip-path="url(#pcaedef02d2)" style="fill: none; stroke: #ffffff; stroke-width: 0.3"/>
    <path d="M 292.277712 60.551567 
L 286.270868 74.748079 
L 283.22093 72.271548 
L 280.170991 69.793891 
L 277.120594 67.315106 
L 274.070656 64.835191 
L 271.020717 62.354737 
L 267.970778 59.872557 
L 264.920381 57.389242 
L 261.870443 54.90479 
L 258.820504 52.419199 
L 256.586785 50.597884 
L 255.538211 55.061955 
L 254.489179 59.522354 
L 253.440605 63.979092 
L 252.391573 68.432178 
L 251.342999 72.881624 
L 251.080397 73.9946 
L 248.303601 76.957093 
L 245.526805 79.917979 
L 242.750009 82.87726 
L 239.973213 85.834349 
L 237.196417 88.79043 
L 234.419621 91.744326 
L 231.642824 94.697218 
L 228.866028 97.648521 
L 226.089691 100.598238 
L 223.998959 102.817422 
L 216.674065 97.634987 
L 214.629621 101.445091 
L 212.585177 105.251967 
L 210.540732 109.056208 
L 208.496288 112.858997 
L 206.451386 116.657989 
L 204.406941 120.454368 
L 202.362497 124.248724 
L 200.318053 128.040477 
L 199.020168 130.445784 
L 195.758956 128.486395 
L 192.498203 126.525727 
L 189.236991 124.565534 
L 185.976238 122.603475 
L 182.715027 120.641891 
L 179.454273 118.678438 
L 177.395164 117.439051 
L 175.904337 121.63566 
L 174.413511 125.829083 
L 172.922684 130.019329 
L 171.432316 134.206407 
L 169.94149 138.390325 
L 168.6019 142.14732 
L 166.277439 145.654435 
L 163.953436 149.159341 
L 161.628975 152.662625 
L 159.304514 156.163708 
L 156.980511 159.662014 
L 154.65605 163.158131 
L 152.331589 166.652062 
L 150.007127 170.144394 
L 147.683125 173.634551 
L 145.358664 177.121957 
L 143.034202 180.607198 
L 140.7102 184.090859 
L 139.034223 186.600701 
L 143.022287 191.17439 
L 139.684999 199.027429 
L 129.106226 206.091674 
L 124.601208 203.065055 
L 117.93111 206.45564 
" clip-path="url(#pcaedef02d2)" style="fill: none; stroke: #ffffff; stroke-width: 0.3"/>
    <path d="M 105.502174 206.45564 
L 105.128346 206.259612 
L 105.063787 206.45564 
" clip-path="url(#pcaedef02d2)" style="fill: none; stroke: #ffffff; stroke-width: 0.3"/>
    <path d="M 39.73957 206.45564 
L 38.167643 197.743333 
" clip-path="url(#pcaedef02d2)" style="fill: none; stroke: #ffffff; stroke-width: 0.3"/>
    <path d="M 7.2 168.00831 
L 9.24341 171.42261 
L 11.421217 175.05995 
L 13.599483 178.694933 
L 15.77729 182.327565 
L 17.955556 185.957852 
L 18.645286 187.10682 
L 21.955077 188.909138 
L 25.264868 190.71088 
L 28.574658 192.511468 
L 31.884449 194.312059 
L 35.19424 196.112076 
L 38.234554 197.764718 
L 35.085166 199.975 
L 31.936236 202.18384 
L 28.786848 204.391818 
L 25.842737 206.45564 
" clip-path="url(#pcaedef02d2)" style="fill: none; stroke: #ffffff; stroke-width: 0.3"/>
    <path d="M 364.32 157.111143 
L 360.239785 150.854434 
L 343.520347 148.625292 
L 333.292168 139.341201 
L 334.509852 131.744835 
L 321.244567 136.533663 
L 318.27483 124.372288 
L 320.985631 121.336845 
L 323.696433 118.299147 
L 326.407235 115.259776 
L 329.118037 112.219316 
L 331.828839 109.17659 
L 334.176215 106.54051 
L 332.707845 93.069614 
" clip-path="url(#pcaedef02d2)" style="fill: none; stroke: #ffffff; stroke-width: 0.3"/>
    <path d="M 364.32 157.111143 
L 360.239785 150.854434 
L 343.520347 148.625292 
L 333.292168 139.320176 
L 334.526809 131.744835 
L 321.244567 136.533663 
L 318.27483 124.372288 
L 320.985631 121.336845 
L 323.696433 118.299147 
L 326.407235 115.259776 
L 329.118037 112.219316 
L 331.828839 109.17659 
L 334.176215 106.54051 
L 332.707845 93.069614 
" clip-path="url(#pcaedef02d2)" style="fill: none; stroke: #ffffff; stroke-width: 0.3"/>
    <path d="M 242.136813 44.975777 
L 245.438354 43.102027 
L 248.740354 41.227627 
L 252.041895 39.351982 
L 255.343437 37.475685 
L 258.645436 35.599331 
L 261.946978 33.721729 
L 265.248519 31.844067 
L 265.580323 31.655253 
L 269.06289 32.860694 
L 272.545915 34.065866 
L 276.028482 35.270768 
L 279.511508 36.475401 
L 282.994075 37.679766 
L 285.253 38.460912 
L 286.584799 42.806613 
L 287.916598 47.148229 
L 289.248397 51.486957 
L 290.579737 55.82162 
L 291.911536 60.153415 
L 291.961032 60.313982 
L 303.257491 62.772864 
L 308.947196 68.074243 
L 305.726773 75.178254 
L 309.714837 80.188359 
L 313.011795 82.064119 
L 316.308753 83.939236 
L 319.605254 85.813709 
L 322.902212 87.68695 
L 326.19917 89.559551 
L 329.496129 91.4321 
L 332.757799 93.283986 
" clip-path="url(#pcaedef02d2)" style="fill: none; stroke: #ffffff; stroke-width: 0.3"/>
    <path d="M 242.136813 44.975777 
L 245.438354 43.102027 
L 248.740354 41.227627 
L 252.041895 39.351982 
L 255.343437 37.475685 
L 258.645436 35.599331 
L 261.946978 33.721729 
L 265.248519 31.844067 
L 265.580323 31.655253 
L 269.061057 32.869627 
L 272.542249 34.084322 
L 276.022983 35.298149 
L 279.503717 36.511703 
L 282.984451 37.725579 
L 285.653548 38.656032 
L 291.961032 60.313982 
L 303.257491 62.772864 
L 308.947196 68.074243 
L 305.726773 75.178254 
L 309.714837 80.188359 
L 313.012253 82.062939 
L 316.309212 83.936876 
L 319.606628 85.81017 
L 322.904045 87.682234 
L 326.201004 89.554247 
L 329.49842 91.425031 
L 332.774756 93.283986 
" clip-path="url(#pcaedef02d2)" style="fill: none; stroke: #ffffff; stroke-width: 0.3"/>
    <path d="M 364.32 29.88037 
L 363.243436 29.880548 
L 359.639421 29.880548 
L 356.034948 29.880548 
L 352.430934 29.881144 
L 348.826919 29.881739 
L 345.222446 29.881739 
L 341.618432 29.881739 
L 338.014417 29.881739 
L 334.409944 29.882335 
L 330.80593 29.882931 
L 327.201915 29.882931 
L 323.597442 29.882931 
L 319.993428 29.883527 
L 316.389413 29.884123 
L 312.78494 29.884123 
L 309.180925 29.884123 
L 305.576911 29.884719 
L 301.972438 29.885314 
L 298.368423 29.885314 
L 294.764409 29.885314 
L 291.159936 29.885314 
L 287.555921 29.88591 
L 283.951907 29.886506 
L 280.347434 29.886506 
L 276.743419 29.886506 
L 273.139405 29.887102 
L 269.53539 29.887698 
L 265.930917 29.887698 
L 262.326902 29.887698 
L 258.722888 29.888294 
L 255.118415 29.888889 
L 251.5144 29.888889 
L 247.910386 29.888889 
L 244.305913 29.888889 
L 240.701898 29.889485 
L 237.097884 29.890081 
L 233.493411 29.890081 
L 229.889396 29.890081 
L 226.285382 29.890677 
L 222.680909 29.891273 
L 219.076894 29.891273 
L 215.472879 29.891273 
L 211.868407 29.891869 
L 208.264392 29.892465 
L 204.660377 29.892465 
L 201.055904 29.892465 
L 197.45189 29.892465 
L 193.847875 29.89306 
L 190.243402 29.893656 
L 186.639388 29.893656 
L 183.035373 29.893656 
L 179.431359 29.894252 
L 175.826886 29.894848 
L 172.222871 29.894848 
L 168.618856 29.894848 
L 165.014384 29.895444 
L 161.410369 29.89604 
L 157.806354 29.89604 
L 154.201881 29.89604 
L 150.597867 29.89604 
L 146.993852 29.896635 
L 143.389379 29.897231 
L 139.785365 29.897231 
L 136.18135 29.897231 
L 132.576877 29.897827 
L 128.972863 29.898423 
L 125.368848 29.898423 
L 125.084707 29.898423 
L 125.084248 25.210739 
L 125.08379 20.518966 
L 125.083332 15.822494 
L 125.082873 11.121908 
L 125.082491 7.2 
" clip-path="url(#pcaedef02d2)" style="fill: none; stroke: #ffffff; stroke-width: 0.3"/>
    <path d="M 125.082767 7.2 
L 125.082873 8.291799 
L 125.083332 12.994269 
L 125.08379 17.692618 
L 125.08379 22.386858 
L 125.084248 27.077599 
L 125.084707 29.898423 
L 128.688721 29.898423 
L 132.293194 29.897827 
L 135.897209 29.897231 
L 139.501223 29.897231 
L 143.105696 29.897231 
L 146.709711 29.896635 
L 150.313725 29.896635 
L 153.918198 29.89604 
L 157.522213 29.89604 
L 161.126227 29.89604 
L 164.7307 29.895444 
L 168.334715 29.894848 
L 171.93873 29.894848 
L 175.542744 29.894848 
L 179.147217 29.894252 
L 182.751232 29.893656 
L 186.355246 29.893656 
L 189.959719 29.893656 
L 193.563734 29.89306 
L 197.167748 29.89306 
L 200.772221 29.892465 
L 204.376236 29.892465 
L 207.98025 29.892465 
L 211.584723 29.891869 
L 215.188738 29.891273 
L 218.792753 29.891273 
L 222.397225 29.891273 
L 226.00124 29.890677 
L 229.605255 29.890081 
L 233.209728 29.890081 
L 236.813742 29.890081 
L 240.417757 29.889485 
L 244.02223 29.889485 
L 247.626244 29.888889 
L 251.230259 29.888889 
L 254.834732 29.888889 
L 258.438746 29.888294 
L 262.042761 29.887698 
L 265.646776 29.887698 
L 269.251248 29.887698 
L 272.855263 29.887102 
L 276.459278 29.886506 
L 280.063751 29.886506 
L 283.667765 29.886506 
L 287.27178 29.88591 
L 290.876253 29.88591 
L 294.480267 29.885314 
L 298.084282 29.885314 
L 301.688755 29.885314 
L 305.292769 29.884719 
L 308.896784 29.884123 
L 312.501257 29.884123 
L 316.105271 29.884123 
L 319.709286 29.883527 
L 323.313759 29.882931 
L 326.917774 29.882931 
L 330.521788 29.882931 
L 334.126261 29.882335 
L 337.730276 29.882335 
L 341.33429 29.881739 
L 344.938763 29.881739 
L 348.542778 29.881739 
L 352.146792 29.881144 
L 355.750807 29.880548 
L 359.35528 29.880548 
L 362.959294 29.880548 
L 364.32 29.880323 
" clip-path="url(#pcaedef02d2)" style="fill: none; stroke: #ffffff; stroke-width: 0.3"/>
    <path d="M 38.234554 197.701719 
L 35.086999 199.914914 
L 31.938986 202.127821 
L 28.791431 204.339861 
L 25.778473 206.45564 
" clip-path="url(#pcaedef02d2)" style="fill: none; stroke: #ffffff; stroke-width: 0.3"/>
    <path d="M 187.723709 29.898423 
L 187.652215 34.581435 
L 187.580721 39.260384 
L 187.509228 43.934687 
L 187.437276 48.605546 
L 187.365782 53.272378 
L 187.294288 57.934602 
L 187.222795 62.594009 
L 187.151301 67.24824 
L 187.106388 70.163542 
L 190.076584 67.528125 
L 193.046779 64.891431 
L 196.016517 62.253458 
L 198.986712 59.614203 
L 201.956908 56.973665 
L 204.927104 54.331841 
L 207.897299 51.688729 
L 210.166307 49.66889 
L 218.926574 51.051935 
L 230.039258 36.207596 
L 241.869628 45.170662 
" clip-path="url(#pcaedef02d2)" style="fill: none; stroke: #ffffff; stroke-width: 0.3"/>
    <path d="M 187.723709 29.898423 
L 187.652215 34.581435 
L 187.580721 39.260384 
L 187.509228 43.934687 
L 187.437276 48.605546 
L 187.365782 53.272378 
L 187.294288 57.934602 
L 187.222795 62.594009 
L 187.151301 67.24824 
L 187.106388 70.163542 
L 190.076584 67.528125 
L 193.046779 64.891431 
L 196.016517 62.253458 
L 198.986712 59.614203 
L 201.956908 56.973665 
L 204.927104 54.331841 
L 207.897299 51.688729 
L 210.166307 49.66889 
L 218.926574 51.051935 
L 230.039258 36.207596 
L 241.869628 45.170662 
" clip-path="url(#pcaedef02d2)" style="fill: none; stroke: #ffffff; stroke-width: 0.3"/>
    <path d="M 334.126261 102.153642 
L 342.369115 94.227359 
L 334.176215 86.353872 
L 329.237193 90.345652 
" clip-path="url(#pcaedef02d2)" style="fill: none; stroke: #ffffff; stroke-width: 0.3"/>
    <path d="M 334.126261 102.153642 
L 342.369115 94.227359 
L 334.176215 86.332644 
L 329.237193 90.324439 
" clip-path="url(#pcaedef02d2)" style="fill: none; stroke: #ffffff; stroke-width: 0.3"/>
   </g>
   <g id="line2d_1">
    <path d="M 293.2463 36.113702 
L 288.190263 52.599537 
L 288.190263 52.599537 
" clip-path="url(#pcaedef02d2)" style="fill: none; stroke: #008000; stroke-width: 0.75; stroke-linecap: square"/>
   </g>
   <g id="line2d_2">
    <path d="M 293.2463 36.113702 
L 278.595385 50.568588 
L 278.595385 50.568588 
" clip-path="url(#pcaedef02d2)" style="fill: none; stroke: #008000; stroke-width: 0.75; stroke-linecap: square"/>
   </g>
   <g id="line2d_3">
    <path d="M 288.190263 52.599537 
L 277.494314 74.202158 
L 277.494314 74.202158 
" clip-path="url(#pcaedef02d2)" style="fill: none; stroke: #008000; stroke-width: 0.75; stroke-linecap: square"/>
   </g>
   <g id="line2d_4">
    <path d="M 288.190263 52.599537 
L 278.595385 50.568588 
L 278.595385 50.568588 
" clip-path="url(#pcaedef02d2)" style="fill: none; stroke: #008000; stroke-width: 0.75; stroke-linecap: square"/>
   </g>
   <g id="line2d_5">
    <path d="M 266.615153 71.576364 
L 277.494314 74.202158 
L 277.494314 74.202158 
" clip-path="url(#pcaedef02d2)" style="fill: none; stroke: #008000; stroke-width: 0.75; stroke-linecap: square"/>
   </g>
   <g id="line2d_6">
    <path d="M 266.615153 71.576364 
L 246.756431 86.720448 
L 246.756431 86.720448 
" clip-path="url(#pcaedef02d2)" style="fill: none; stroke: #008000; stroke-width: 0.75; stroke-linecap: square"/>
   </g>
   <g id="line2d_7">
    <path d="M 266.615153 71.576364 
L 278.595385 50.568588 
L 278.595385 50.568588 
" clip-path="url(#pcaedef02d2)" style="fill: none; stroke: #008000; stroke-width: 0.75; stroke-linecap: square"/>
   </g>
   <g id="line2d_8">
    <path d="M 266.615153 71.576364 
L 257.603736 84.811306 
L 257.603736 84.811306 
" clip-path="url(#pcaedef02d2)" style="fill: none; stroke: #008000; stroke-width: 0.75; stroke-linecap: square"/>
   </g>
   <g id="line2d_9">
    <path d="M 277.494314 74.202158 
L 302.640547 76.998567 
L 302.640547 76.998567 
" clip-path="url(#pcaedef02d2)" style="fill: none; stroke: #008000; stroke-width: 0.75; stroke-linecap: square"/>
   </g>
   <g id="line2d_10">
    <path d="M 208.913132 86.516985 
L 219.091321 98.308466 
L 219.091321 98.308466 
" clip-path="url(#pcaedef02d2)" style="fill: none; stroke: #008000; stroke-width: 0.75; stroke-linecap: square"/>
   </g>
   <g id="line2d_11">
    <path d="M 196.46496 113.479311 
L 219.091321 98.308466 
L 219.091321 98.308466 
" clip-path="url(#pcaedef02d2)" style="fill: none; stroke: #008000; stroke-width: 0.75; stroke-linecap: square"/>
   </g>
   <g id="line2d_12">
    <path d="M 242.436036 99.767984 
L 239.828326 102.001997 
L 239.828326 102.001997 
" clip-path="url(#pcaedef02d2)" style="fill: none; stroke: #008000; stroke-width: 0.75; stroke-linecap: square"/>
   </g>
   <g id="line2d_13">
    <path d="M 242.436036 99.767984 
L 250.019886 92.294749 
L 250.019886 92.294749 
" clip-path="url(#pcaedef02d2)" style="fill: none; stroke: #008000; stroke-width: 0.75; stroke-linecap: square"/>
   </g>
   <g id="line2d_14">
    <path d="M 224.230817 128.327203 
L 227.716226 109.707692 
L 227.716226 109.707692 
" clip-path="url(#pcaedef02d2)" style="fill: none; stroke: #008000; stroke-width: 0.75; stroke-linecap: square"/>
   </g>
   <g id="line2d_15">
    <path d="M 224.230817 128.327203 
L 192.734117 151.517803 
L 161.330644 174.915388 
L 156.650992 178.425616 
L 156.650992 178.425616 
" clip-path="url(#pcaedef02d2)" style="fill: none; stroke: #008000; stroke-width: 0.75; stroke-linecap: square"/>
   </g>
   <g id="line2d_16">
    <path d="M 224.230817 128.327203 
L 230.017115 113.006624 
L 230.017115 113.006624 
" clip-path="url(#pcaedef02d2)" style="fill: none; stroke: #008000; stroke-width: 0.75; stroke-linecap: square"/>
   </g>
   <g id="line2d_17">
    <path d="M 156.650992 178.425616 
L 122.944348 163.655739 
L 89.307094 149.158081 
L 58.217143 135.972915 
L 58.217143 135.972915 
" clip-path="url(#pcaedef02d2)" style="fill: none; stroke: #008000; stroke-width: 0.75; stroke-linecap: square"/>
   </g>
   <g id="line2d_18">
    <path d="M 105.973481 91.024809 
L 128.216562 82.974559 
L 128.216562 82.974559 
" clip-path="url(#pcaedef02d2)" style="fill: none; stroke: #008000; stroke-width: 0.75; stroke-linecap: square"/>
   </g>
   <g id="line2d_19">
    <path d="M 105.973481 91.024809 
L 113.649143 111.813998 
L 113.649143 111.813998 
" clip-path="url(#pcaedef02d2)" style="fill: none; stroke: #008000; stroke-width: 0.75; stroke-linecap: square"/>
   </g>
   <g id="line2d_20">
    <path d="M 113.649143 111.813998 
L 105.072441 141.224909 
L 105.072441 141.224909 
" clip-path="url(#pcaedef02d2)" style="fill: none; stroke: #008000; stroke-width: 0.75; stroke-linecap: square"/>
   </g>
   <g id="line2d_21">
    <path d="M 105.072441 141.224909 
L 70.143772 137.271617 
L 58.217143 135.972915 
L 58.217143 135.972915 
" clip-path="url(#pcaedef02d2)" style="fill: none; stroke: #008000; stroke-width: 0.75; stroke-linecap: square"/>
   </g>
   <g id="line2d_22">
    <path d="M 219.091321 98.308466 
L 227.716226 109.707692 
L 227.716226 109.707692 
" clip-path="url(#pcaedef02d2)" style="fill: none; stroke: #008000; stroke-width: 0.75; stroke-linecap: square"/>
   </g>
   <g id="line2d_23">
    <path d="M 219.091321 98.308466 
L 246.756431 86.720448 
L 246.756431 86.720448 
" clip-path="url(#pcaedef02d2)" style="fill: none; stroke: #008000; stroke-width: 0.75; stroke-linecap: square"/>
   </g>
   <g id="line2d_24">
    <path d="M 257.603736 84.811306 
L 264.746395 92.267188 
L 264.746395 92.267188 
" clip-path="url(#pcaedef02d2)" style="fill: none; stroke: #008000; stroke-width: 0.75; stroke-linecap: square"/>
   </g>
   <g id="line2d_25">
    <path d="M 257.603736 84.811306 
L 246.756431 86.720448 
L 246.756431 86.720448 
" clip-path="url(#pcaedef02d2)" style="fill: none; stroke: #008000; stroke-width: 0.75; stroke-linecap: square"/>
   </g>
   <g id="line2d_26">
    <path d="M 257.603736 84.811306 
L 250.019886 92.294749 
L 250.019886 92.294749 
" clip-path="url(#pcaedef02d2)" style="fill: none; stroke: #008000; stroke-width: 0.75; stroke-linecap: square"/>
   </g>
   <g id="line2d_27">
    <path d="M 239.828326 102.001997 
L 237.525652 99.134057 
L 237.525652 99.134057 
" clip-path="url(#pcaedef02d2)" style="fill: none; stroke: #008000; stroke-width: 0.75; stroke-linecap: square"/>
   </g>
   <g id="line2d_28">
    <path d="M 239.828326 102.001997 
L 230.017115 113.006624 
L 230.017115 113.006624 
" clip-path="url(#pcaedef02d2)" style="fill: none; stroke: #008000; stroke-width: 0.75; stroke-linecap: square"/>
   </g>
   <g id="line2d_29">
    <path d="M 288.724279 108.049998 
L 264.746395 92.267188 
L 264.746395 92.267188 
" clip-path="url(#pcaedef02d2)" style="fill: none; stroke: #008000; stroke-width: 0.75; stroke-linecap: square"/>
   </g>
   <g id="line2d_30">
    <path d="M 288.724279 108.049998 
L 313.302857 88.298927 
L 313.302857 88.298927 
" clip-path="url(#pcaedef02d2)" style="fill: none; stroke: #008000; stroke-width: 0.75; stroke-linecap: square"/>
   </g>
   <g id="line2d_31">
    <path d="M 246.756431 86.720448 
L 237.525652 99.134057 
L 237.525652 99.134057 
" clip-path="url(#pcaedef02d2)" style="fill: none; stroke: #008000; stroke-width: 0.75; stroke-linecap: square"/>
   </g>
   <g id="line2d_32">
    <path d="M 237.525652 99.134057 
L 227.716226 109.707692 
L 227.716226 109.707692 
" clip-path="url(#pcaedef02d2)" style="fill: none; stroke: #008000; stroke-width: 0.75; stroke-linecap: square"/>
   </g>
   <g id="line2d_33">
    <path d="M 230.017115 113.006624 
L 227.716226 109.707692 
L 227.716226 109.707692 
" clip-path="url(#pcaedef02d2)" style="fill: none; stroke: #008000; stroke-width: 0.75; stroke-linecap: square"/>
   </g>
   <g id="line2d_34">
    <path d="M 302.640547 76.998567 
L 307.212425 82.565432 
L 307.212425 82.565432 
" clip-path="url(#pcaedef02d2)" style="fill: none; stroke: #008000; stroke-width: 0.75; stroke-linecap: square"/>
   </g>
   <g id="line2d_35">
    <path d="M 307.212425 82.565432 
L 313.302857 88.298927 
L 313.302857 88.298927 
" clip-path="url(#pcaedef02d2)" style="fill: none; stroke: #008000; stroke-width: 0.75; stroke-linecap: square"/>
   </g>
   <g id="patch_5">
    <path d="M 7.2 206.45564 
L 7.2 7.2 
" style="fill: none; stroke: #ffffff; stroke-linejoin: miter; stroke-linecap: square"/>
   </g>
   <g id="patch_6">
    <path d="M 364.32 206.45564 
L 364.32 7.2 
" style="fill: none; stroke: #ffffff; stroke-linejoin: miter; stroke-linecap: square"/>
   </g>
   <g id="patch_7">
    <path d="M 7.2 206.45564 
L 364.32 206.45564 
" style="fill: none; stroke: #ffffff; stroke-linejoin: miter; stroke-linecap: square"/>
   </g>
   <g id="patch_8">
    <path d="M 7.2 7.2 
L 364.32 7.2 
" style="fill: none; stroke: #ffffff; stroke-linejoin: miter; stroke-linecap: square"/>
   </g>
   <g id="PathCollection_1">
    <defs>
     <path id="m711a15d5ce" d="M 0 1.118034 
C 0.296506 1.118034 0.580908 1.000231 0.790569 0.790569 
C 1.000231 0.580908 1.118034 0.296506 1.118034 0 
C 1.118034 -0.296506 1.000231 -0.580908 0.790569 -0.790569 
C 0.580908 -1.000231 0.296506 -1.118034 0 -1.118034 
C -0.296506 -1.118034 -0.580908 -1.000231 -0.790569 -0.790569 
C -1.000231 -0.580908 -1.118034 -0.296506 -1.118034 0 
C -1.118034 0.296506 -1.000231 0.580908 -0.790569 0.790569 
C -0.580908 1.000231 -0.296506 1.118034 0 1.118034 
z
" style="stroke: #ff0000"/>
    </defs>
    <g clip-path="url(#pcaedef02d2)">
     <use xlink:href="#m711a15d5ce" x="293.2463" y="36.113702" style="fill: #ff0000; stroke: #ff0000"/>
    </g>
   </g>
   <g id="PathCollection_2">
    <g clip-path="url(#pcaedef02d2)">
     <use xlink:href="#m711a15d5ce" x="288.190263" y="52.599537" style="fill: #ff0000; stroke: #ff0000"/>
    </g>
   </g>
   <g id="PathCollection_3">
    <g clip-path="url(#pcaedef02d2)">
     <use xlink:href="#m711a15d5ce" x="266.615153" y="71.576364" style="fill: #ff0000; stroke: #ff0000"/>
    </g>
   </g>
   <g id="PathCollection_4">
    <g clip-path="url(#pcaedef02d2)">
     <use xlink:href="#m711a15d5ce" x="277.494314" y="74.202158" style="fill: #ff0000; stroke: #ff0000"/>
    </g>
   </g>
   <g id="PathCollection_5">
    <g clip-path="url(#pcaedef02d2)">
     <use xlink:href="#m711a15d5ce" x="208.913132" y="86.516985" style="fill: #ff0000; stroke: #ff0000"/>
    </g>
   </g>
   <g id="PathCollection_6">
    <g clip-path="url(#pcaedef02d2)">
     <use xlink:href="#m711a15d5ce" x="196.46496" y="113.479311" style="fill: #ff0000; stroke: #ff0000"/>
    </g>
   </g>
   <g id="PathCollection_7">
    <g clip-path="url(#pcaedef02d2)">
     <use xlink:href="#m711a15d5ce" x="278.595385" y="50.568588" style="fill: #ff0000; stroke: #ff0000"/>
    </g>
   </g>
   <g id="PathCollection_8">
    <g clip-path="url(#pcaedef02d2)">
     <use xlink:href="#m711a15d5ce" x="242.436036" y="99.767984" style="fill: #ff0000; stroke: #ff0000"/>
    </g>
   </g>
   <g id="PathCollection_9">
    <g clip-path="url(#pcaedef02d2)">
     <use xlink:href="#m711a15d5ce" x="224.230817" y="128.327203" style="fill: #ff0000; stroke: #ff0000"/>
    </g>
   </g>
   <g id="PathCollection_10">
    <g clip-path="url(#pcaedef02d2)">
     <use xlink:href="#m711a15d5ce" x="156.650992" y="178.425616" style="fill: #ff0000; stroke: #ff0000"/>
    </g>
   </g>
   <g id="PathCollection_11">
    <g clip-path="url(#pcaedef02d2)">
     <use xlink:href="#m711a15d5ce" x="105.973481" y="91.024809" style="fill: #ff0000; stroke: #ff0000"/>
    </g>
   </g>
   <g id="PathCollection_12">
    <g clip-path="url(#pcaedef02d2)">
     <use xlink:href="#m711a15d5ce" x="113.649143" y="111.813998" style="fill: #ff0000; stroke: #ff0000"/>
    </g>
   </g>
   <g id="PathCollection_13">
    <g clip-path="url(#pcaedef02d2)">
     <use xlink:href="#m711a15d5ce" x="105.072441" y="141.224909" style="fill: #ff0000; stroke: #ff0000"/>
    </g>
   </g>
   <g id="PathCollection_14">
    <g clip-path="url(#pcaedef02d2)">
     <use xlink:href="#m711a15d5ce" x="58.217143" y="135.972915" style="fill: #ff0000; stroke: #ff0000"/>
    </g>
   </g>
   <g id="PathCollection_15">
    <defs>
     <path id="m0a0533d8c6" d="M 0 1.118034 
C 0.296506 1.118034 0.580908 1.000231 0.790569 0.790569 
C 1.000231 0.580908 1.118034 0.296506 1.118034 0 
C 1.118034 -0.296506 1.000231 -0.580908 0.790569 -0.790569 
C 0.580908 -1.000231 0.296506 -1.118034 0 -1.118034 
C -0.296506 -1.118034 -0.580908 -1.000231 -0.790569 -0.790569 
C -1.000231 -0.580908 -1.118034 -0.296506 -1.118034 0 
C -1.118034 0.296506 -1.000231 0.580908 -0.790569 0.790569 
C -0.580908 1.000231 -0.296506 1.118034 0 1.118034 
z
" style="stroke: #ffff00"/>
    </defs>
    <g clip-path="url(#pcaedef02d2)">
     <use xlink:href="#m0a0533d8c6" x="219.091321" y="98.308466" style="fill: #ffff00; stroke: #ffff00"/>
    </g>
   </g>
   <g id="PathCollection_16">
    <g clip-path="url(#pcaedef02d2)">
     <use xlink:href="#m0a0533d8c6" x="257.603736" y="84.811306" style="fill: #ffff00; stroke: #ffff00"/>
    </g>
   </g>
   <g id="PathCollection_17">
    <g clip-path="url(#pcaedef02d2)">
     <use xlink:href="#m0a0533d8c6" x="239.828326" y="102.001997" style="fill: #ffff00; stroke: #ffff00"/>
    </g>
   </g>
   <g id="PathCollection_18">
    <g clip-path="url(#pcaedef02d2)">
     <use xlink:href="#m711a15d5ce" x="128.216562" y="82.974559" style="fill: #ff0000; stroke: #ff0000"/>
    </g>
   </g>
   <g id="PathCollection_19">
    <g clip-path="url(#pcaedef02d2)">
     <use xlink:href="#m711a15d5ce" x="288.724279" y="108.049998" style="fill: #ff0000; stroke: #ff0000"/>
    </g>
   </g>
   <g id="PathCollection_20">
    <g clip-path="url(#pcaedef02d2)">
     <use xlink:href="#m711a15d5ce" x="264.746395" y="92.267188" style="fill: #ff0000; stroke: #ff0000"/>
    </g>
   </g>
   <g id="PathCollection_21">
    <g clip-path="url(#pcaedef02d2)">
     <use xlink:href="#m0a0533d8c6" x="246.756431" y="86.720448" style="fill: #ffff00; stroke: #ffff00"/>
    </g>
   </g>
   <g id="PathCollection_22">
    <g clip-path="url(#pcaedef02d2)">
     <use xlink:href="#m0a0533d8c6" x="250.019886" y="92.294749" style="fill: #ffff00; stroke: #ffff00"/>
    </g>
   </g>
   <g id="PathCollection_23">
    <g clip-path="url(#pcaedef02d2)">
     <use xlink:href="#m0a0533d8c6" x="237.525652" y="99.134057" style="fill: #ffff00; stroke: #ffff00"/>
    </g>
   </g>
   <g id="PathCollection_24">
    <g clip-path="url(#pcaedef02d2)">
     <use xlink:href="#m0a0533d8c6" x="230.017115" y="113.006624" style="fill: #ffff00; stroke: #ffff00"/>
    </g>
   </g>
   <g id="PathCollection_25">
    <g clip-path="url(#pcaedef02d2)">
     <use xlink:href="#m0a0533d8c6" x="227.716226" y="109.707692" style="fill: #ffff00; stroke: #ffff00"/>
    </g>
   </g>
   <g id="PathCollection_26">
    <g clip-path="url(#pcaedef02d2)">
     <use xlink:href="#m711a15d5ce" x="302.640547" y="76.998567" style="fill: #ff0000; stroke: #ff0000"/>
    </g>
   </g>
   <g id="PathCollection_27">
    <g clip-path="url(#pcaedef02d2)">
     <use xlink:href="#m711a15d5ce" x="307.212425" y="82.565432" style="fill: #ff0000; stroke: #ff0000"/>
    </g>
   </g>
   <g id="PathCollection_28">
    <g clip-path="url(#pcaedef02d2)">
     <use xlink:href="#m711a15d5ce" x="313.302857" y="88.298927" style="fill: #ff0000; stroke: #ff0000"/>
    </g>
   </g>
  </g>
 </g>
 <defs>
  <clipPath id="pcaedef02d2">
   <rect x="7.2" y="7.2" width="357.12" height="199.25564"/>
  </clipPath>
 </defs>
</svg>
