<?xml version="1.0" encoding="utf-8" standalone="no"?>
<!DOCTYPE svg PUBLIC "-//W3C//DTD SVG 1.1//EN"
  "http://www.w3.org/Graphics/SVG/1.1/DTD/svg11.dtd">
<svg xmlns:xlink="http://www.w3.org/1999/xlink" width="371.52pt" height="260.78337pt" viewBox="0 0 371.52 260.78337" xmlns="http://www.w3.org/2000/svg" version="1.1">
 <metadata>
  <rdf:RDF xmlns:dc="http://purl.org/dc/elements/1.1/" xmlns:cc="http://creativecommons.org/ns#" xmlns:rdf="http://www.w3.org/1999/02/22-rdf-syntax-ns#">
   <cc:Work>
    <dc:type rdf:resource="http://purl.org/dc/dcmitype/StillImage"/>
    <dc:date>2025-12-17T16:20:18.577980</dc:date>
    <dc:format>image/svg+xml</dc:format>
    <dc:creator>
     <cc:Agent>
      <dc:title>Matplotlib v3.10.6, https://matplotlib.org/</dc:title>
     </cc:Agent>
    </dc:creator>
   </cc:Work>
  </rdf:RDF>
 </metadata>
 <defs>
  <style type="text/css">*{stroke-linejoin: round; stroke-linecap: butt}</style>
 </defs>
 <g id="figure_1">
  <g id="patch_1">
   <path d="M 0 260.78337 
L 371.52 260.78337 
L 371.52 0 
L 0 0 
z
" style="fill: #ffffff"/>
  </g>
  <g id="axes_1">
   <g id="patch_2">
    <path d="M 7.2 253.58337 
L 364.32 253.58337 
L 364.32 7.2 
L 7.2 7.2 
z
" clip-path="url(#p0ea38f3b61)" style="fill: #add8e6; stroke: #ffffff; stroke-linejoin: miter"/>
   </g>
   <g id="patch_3">
    <path d="M 7.2 253.58337 
L 364.32 253.58337 
L 364.32 7.2 
L 7.2 7.2 
z
" clip-path="url(#p0ea38f3b61)" style="fill: #add8e6; stroke: #ffffff; stroke-linejoin: miter"/>
   </g>
   <g id="patch_4">
    <path d="M 7.2 253.58337 
L 7.2 7.199996 
L 364.319988 7.199996 
L 364.319988 253.58337 
z
" clip-path="url(#p0ea38f3b61)" style="fill: #d3d3d3"/>
   </g>
   <g id="patch_5">
    <path d="M 364.319988 246.393712 
L 355.346707 253.58337 
L 327.911512 253.58337 
L 325.304636 250.832298 
L 313.645345 221.238159 
L 316.107447 186.526399 
L 309.320139 157.825277 
L 318.830389 129.182762 
L 317.892576 113.533574 
L 328.274817 96.151215 
L 326.151926 86.910701 
L 336.651894 56.874298 
L 331.180255 49.781982 
L 324.145313 52.301326 
L 307.678834 72.95467 
L 302.962539 70.431846 
L 305.581356 61.166369 
L 312.798055 46.231876 
L 322.060699 42.622801 
L 323.754936 31.608494 
L 337.875222 7.199996 
L 364.319988 7.199996 
z
" clip-path="url(#p0ea38f3b61)" style="fill: #add8e6"/>
   </g>
   <g id="matplotlib.axis_1"/>
   <g id="matplotlib.axis_2"/>
   <g id="LineCollection_1">
    <path d="M 364.32 246.393712 
L 355.34671 253.58337 
" clip-path="url(#p0ea38f3b61)" style="fill: none; stroke: #000000; stroke-width: 0.6"/>
    <path d="M 327.911518 253.58337 
L 325.304628 250.832298 
L 313.645349 221.23816 
L 316.107448 186.526398 
L 309.320127 157.825279 
L 318.830391 129.182758 
L 317.892568 113.53357 
L 328.274819 96.151219 
L 326.151925 86.910699 
L 336.651895 56.874298 
L 331.180246 49.781983 
L 324.145319 52.301327 
L 307.678847 72.954676 
L 302.962537 70.431845 
L 305.581357 61.166367 
L 312.798052 46.231878 
L 322.060711 42.622797 
L 323.754947 31.608486 
L 337.875223 7.2 
" clip-path="url(#p0ea38f3b61)" style="fill: none; stroke: #000000; stroke-width: 0.6"/>
   </g>
   <g id="LineCollection_2"/>
   <g id="LineCollection_3">
    <path d="M 198.178045 253.58337 
L 198.55358 252.630064 
L 199.867105 249.292912 
L 201.18063 245.953957 
L 202.494155 242.61127 
L 203.808038 239.266766 
L 204.735127 236.90364 
L 203.354333 228.937702 
L 201.095471 226.674668 
L 198.836609 224.410354 
L 196.578104 222.144758 
L 194.319242 219.877878 
L 192.06038 217.609711 
L 189.801517 215.340254 
L 187.543013 213.069506 
L 185.284151 210.797465 
L 183.025289 208.524126 
L 181.207608 206.693849 
L 178.823511 195.639978 
L 176.098421 194.687427 
L 173.372973 193.733675 
L 170.647883 192.78018 
L 167.922435 191.826455 
L 165.197344 190.872014 
L 162.472254 189.918316 
L 162.161316 189.809196 
L 161.288615 186.165592 
L 160.415555 182.51814 
L 159.542854 178.867807 
L 158.669794 175.213606 
L 157.797093 171.556504 
L 156.937272 167.950867 
" clip-path="url(#p0ea38f3b61)" style="fill: none; stroke: #ffffff; stroke-width: 0.3"/>
    <path d="M 198.178045 253.58337 
L 198.55358 252.630064 
L 199.867105 249.292912 
L 201.18063 245.953957 
L 202.494155 242.61127 
L 203.808038 239.266766 
L 204.735127 236.90364 
L 203.354333 228.937702 
L 201.095471 226.674668 
L 198.836609 224.410354 
L 196.578104 222.144758 
L 194.319242 219.877878 
L 192.06038 217.609711 
L 189.801517 215.340254 
L 187.543013 213.069506 
L 185.284151 210.797465 
L 183.025289 208.524126 
L 181.207608 206.693849 
L 178.823511 195.639978 
L 176.098421 194.687427 
L 173.372973 193.733675 
L 170.647883 192.78018 
L 167.922435 191.826455 
L 165.197344 190.872014 
L 162.472254 189.918316 
L 162.161316 189.809196 
L 161.288615 186.165592 
L 160.415555 182.51814 
L 159.542854 178.867807 
L 158.669794 175.213606 
L 157.797093 171.556504 
L 156.937272 167.950867 
" clip-path="url(#p0ea38f3b61)" style="fill: none; stroke: #ffffff; stroke-width: 0.3"/>
    <path d="M 312.606079 7.2 
L 312.378339 8.481628 
L 311.687048 12.372309 
L 310.995399 16.258469 
L 310.6748 18.059234 
L 320.276306 16.705812 
L 317.514362 30.000488 
L 324.002195 35.5231 
" clip-path="url(#p0ea38f3b61)" style="fill: none; stroke: #ffffff; stroke-width: 0.3"/>
    <path d="M 312.539644 7.2 
L 312.308566 8.456099 
L 311.593659 12.337625 
L 310.878753 16.215159 
L 310.596797 17.744481 
L 320.276306 16.705812 
L 317.514362 30.000488 
L 323.988956 35.5231 
" clip-path="url(#p0ea38f3b61)" style="fill: none; stroke: #ffffff; stroke-width: 0.3"/>
    <path d="M 359.762564 251.600811 
L 362.576391 251.601771 
L 364.32 251.602959 
" clip-path="url(#p0ea38f3b61)" style="fill: none; stroke: #ffffff; stroke-width: 0.3"/>
    <path d="M 359.762564 251.600811 
L 362.576391 251.601771 
L 364.32 251.602959 
" clip-path="url(#p0ea38f3b61)" style="fill: none; stroke: #ffffff; stroke-width: 0.3"/>
    <path d="M 7.2 140.635035 
L 8.566913 140.634795 
L 11.38074 140.633809 
L 14.194926 140.633809 
L 17.008753 140.632822 
L 19.82258 140.632329 
L 22.636766 140.631836 
L 25.450593 140.630849 
L 28.264421 140.630849 
L 31.078606 140.629863 
L 33.892433 140.629369 
L 36.706261 140.628876 
L 39.520446 140.627889 
L 42.334274 140.627396 
L 45.148101 140.626903 
L 47.962286 140.62641 
L 50.776114 140.625916 
L 53.589941 140.62493 
L 56.404126 140.624436 
L 59.217954 140.623943 
L 62.031781 140.622957 
L 64.845967 140.622957 
L 67.659794 140.62197 
L 70.473622 140.621477 
L 73.287807 140.620983 
L 76.101634 140.619997 
L 78.915462 140.619997 
L 81.729289 140.61901 
L 84.543474 140.618517 
L 87.357302 140.618024 
L 90.171129 140.617037 
L 92.985315 140.617037 
L 95.799142 140.616051 
L 98.61297 140.615557 
L 101.427155 140.615064 
L 104.240982 140.614077 
L 107.05481 140.614077 
L 109.868995 140.613091 
L 112.682822 140.612598 
L 115.49665 140.612104 
L 118.310835 140.611118 
L 121.124663 140.610624 
L 123.93849 140.610131 
L 126.752675 140.609638 
L 129.566503 140.609145 
L 132.38033 140.608158 
L 135.194516 140.607665 
L 138.008343 140.607172 
L 140.82217 140.606185 
L 143.636356 140.606185 
L 146.450183 140.605198 
L 149.264011 140.604705 
L 152.077838 140.604212 
L 154.032203 140.603719 
" clip-path="url(#p0ea38f3b61)" style="fill: none; stroke: #ffffff; stroke-width: 0.3"/>
    <path d="M 7.2 140.635035 
L 8.566913 140.634795 
L 11.38074 140.633809 
L 14.194926 140.633809 
L 17.008753 140.632822 
L 19.82258 140.632329 
L 22.636766 140.631836 
L 25.450593 140.630849 
L 28.264421 140.630849 
L 31.078606 140.629863 
L 33.892433 140.629369 
L 36.706261 140.628876 
L 39.520446 140.627889 
L 42.334274 140.627396 
L 45.148101 140.626903 
L 47.962286 140.62641 
L 50.776114 140.625916 
L 53.589941 140.62493 
L 56.404126 140.624436 
L 59.217954 140.623943 
L 62.031781 140.622957 
L 64.845967 140.622957 
L 67.659794 140.62197 
L 70.473622 140.621477 
L 73.287807 140.620983 
L 76.101634 140.619997 
L 78.915462 140.619997 
L 81.729289 140.61901 
L 84.543474 140.618517 
L 87.357302 140.618024 
L 90.171129 140.617037 
L 92.985315 140.617037 
L 95.799142 140.616051 
L 98.61297 140.615557 
L 101.427155 140.615064 
L 104.240982 140.614077 
L 107.05481 140.614077 
L 109.868995 140.613091 
L 112.682822 140.612598 
L 115.49665 140.612104 
L 118.310835 140.611118 
L 121.124663 140.610624 
L 123.93849 140.610131 
L 126.752675 140.609638 
L 129.566503 140.609145 
L 132.38033 140.608158 
L 135.194516 140.607665 
L 138.008343 140.607172 
L 140.82217 140.606185 
L 143.636356 140.606185 
L 146.450183 140.605198 
L 149.264011 140.604705 
L 152.077838 140.604212 
L 154.032203 140.603719 
" clip-path="url(#p0ea38f3b61)" style="fill: none; stroke: #ffffff; stroke-width: 0.3"/>
    <path d="M 82.98128 7.2 
L 86.575842 14.108143 
L 81.83377 23.174121 
L 81.513529 27.145217 
L 81.193288 31.113166 
L 80.872689 35.076456 
L 80.552448 39.03561 
L 80.232207 42.991145 
L 79.911966 46.941558 
L 79.591725 50.888882 
L 79.271126 54.831615 
L 78.954463 58.726944 
" clip-path="url(#p0ea38f3b61)" style="fill: none; stroke: #ffffff; stroke-width: 0.3"/>
    <path d="M 78.954463 58.726944 
L 79.274704 54.788743 
L 79.594945 50.84546 
L 79.915544 46.898596 
L 80.235785 42.947634 
L 80.556026 38.992053 
L 80.876267 35.033361 
L 81.196508 31.069517 
L 81.517107 27.102031 
L 81.83377 23.174121 
L 86.575842 14.108143 
L 82.98128 7.2 
" clip-path="url(#p0ea38f3b61)" style="fill: none; stroke: #ffffff; stroke-width: 0.3"/>
    <path d="M 314.309804 205.315979 
L 311.495977 205.290261 
L 308.682149 205.264542 
L 305.868322 205.238338 
L 303.054137 205.213105 
L 300.240309 205.1869 
L 297.426482 205.161181 
L 294.612654 205.135462 
L 291.798827 205.109257 
L 288.984999 205.084023 
L 286.171172 205.057818 
L 283.356987 205.032098 
L 280.543159 205.006378 
L 277.729332 204.980172 
L 274.915504 204.954937 
L 272.101677 204.928731 
L 269.287849 204.90301 
L 266.474022 204.877289 
L 263.659837 204.851568 
L 260.846009 204.825847 
L 258.032182 204.79964 
L 255.218354 204.774403 
L 252.404527 204.748196 
L 249.590699 204.722474 
L 246.776872 204.696752 
L 243.962687 204.670544 
L 241.148859 204.645307 
L 238.335032 204.619099 
L 235.521204 204.593377 
L 232.707377 204.567654 
L 229.893549 204.54193 
L 227.079722 204.516207 
L 224.265894 204.489998 
L 221.451709 204.46476 
L 218.637882 204.438551 
L 215.824054 204.412827 
L 213.010227 204.387103 
L 210.196399 204.360893 
L 207.382572 204.335654 
L 204.568744 204.309444 
L 201.754559 204.283719 
L 198.940732 204.257994 
L 196.126904 204.231783 
L 193.313077 204.206543 
L 190.499249 204.180333 
L 187.685422 204.154607 
L 184.871594 204.128881 
L 182.057409 204.103155 
L 181.376852 204.096845 
" clip-path="url(#p0ea38f3b61)" style="fill: none; stroke: #ffffff; stroke-width: 0.3"/>
    <path d="M 314.309804 205.315979 
L 311.495977 205.290261 
L 308.682149 205.264542 
L 305.868322 205.238338 
L 303.054137 205.213105 
L 300.240309 205.1869 
L 297.426482 205.161181 
L 294.612654 205.135462 
L 291.798827 205.109257 
L 288.984999 205.084023 
L 286.171172 205.057818 
L 283.356987 205.032098 
L 280.543159 205.006378 
L 277.729332 204.980172 
L 274.915504 204.954937 
L 272.101677 204.928731 
L 269.287849 204.90301 
L 266.474022 204.877289 
L 263.659837 204.851568 
L 260.846009 204.825847 
L 258.032182 204.79964 
L 255.218354 204.774403 
L 252.404527 204.748196 
L 249.590699 204.722474 
L 246.776872 204.696752 
L 243.962687 204.670544 
L 241.148859 204.645307 
L 238.335032 204.619099 
L 235.521204 204.593377 
L 232.707377 204.567654 
L 229.893549 204.54193 
L 227.079722 204.516207 
L 224.265894 204.489998 
L 221.451709 204.46476 
L 218.637882 204.438551 
L 215.824054 204.412827 
L 213.010227 204.387103 
L 210.196399 204.360893 
L 207.382572 204.335654 
L 204.568744 204.309444 
L 201.754559 204.283719 
L 198.940732 204.257994 
L 196.126904 204.231783 
L 193.313077 204.206543 
L 190.499249 204.180333 
L 187.685422 204.154607 
L 184.871594 204.128881 
L 182.057409 204.103155 
L 181.376852 204.096845 
" clip-path="url(#p0ea38f3b61)" style="fill: none; stroke: #ffffff; stroke-width: 0.3"/>
    <path d="M 323.884833 35.652876 
L 330.463908 37.700814 
L 332.495918 28.70669 
L 334.717567 26.254472 
L 336.939217 23.801172 
L 339.161225 21.345772 
L 341.382875 18.889283 
L 343.604525 16.431197 
L 345.826175 13.971508 
L 347.060623 12.603868 
L 349.874093 12.526343 
L 352.687563 12.448817 
L 355.501032 12.370269 
L 358.314144 12.292739 
L 361.127614 12.215208 
L 363.175725 12.158079 
L 364.32 12.837479 
" clip-path="url(#p0ea38f3b61)" style="fill: none; stroke: #ffffff; stroke-width: 0.3"/>
    <path d="M 323.884833 35.652876 
L 330.463908 37.700814 
L 332.495918 28.70669 
L 334.717567 26.254472 
L 336.939217 23.801172 
L 339.161225 21.345772 
L 341.382875 18.889283 
L 343.604525 16.431197 
L 345.826175 13.971508 
L 347.060623 12.603868 
L 349.874093 12.526343 
L 352.687563 12.448817 
L 355.501032 12.370269 
L 358.314144 12.292739 
L 361.127614 12.215208 
L 363.175725 12.158079 
L 364.32 12.838022 
" clip-path="url(#p0ea38f3b61)" style="fill: none; stroke: #ffffff; stroke-width: 0.3"/>
    <path d="M 111.823002 80.696585 
L 114.181694 82.844179 
L 116.540385 84.991073 
L 118.899077 87.136769 
L 121.257768 89.280769 
L 123.61646 91.424074 
L 125.975152 93.566187 
L 128.333843 95.706611 
L 130.692535 97.846346 
L 133.051226 99.984894 
L 135.409918 102.12176 
L 137.768609 104.25844 
L 140.127301 106.392943 
L 142.485993 108.526269 
L 144.844684 110.659414 
L 147.203376 112.790389 
L 148.026342 113.53357 
" clip-path="url(#p0ea38f3b61)" style="fill: none; stroke: #ffffff; stroke-width: 0.3"/>
    <path d="M 111.823002 80.696585 
L 114.181694 82.844179 
L 116.540385 84.991073 
L 118.899077 87.136769 
L 121.257768 89.280769 
L 123.61646 91.424074 
L 125.975152 93.566187 
L 128.333843 95.706611 
L 130.692535 97.846346 
L 133.051226 99.984894 
L 135.409918 102.12176 
L 137.768609 104.25844 
L 140.127301 106.392943 
L 142.485993 108.526269 
L 144.844684 110.659414 
L 147.203376 112.790389 
L 148.026342 113.53357 
" clip-path="url(#p0ea38f3b61)" style="fill: none; stroke: #ffffff; stroke-width: 0.3"/>
    <path d="M 156.715787 167.790191 
L 160.650279 154.086083 
L 154.605417 149.609098 
L 154.13561 145.791108 
L 153.665804 141.969385 
L 153.195998 138.143919 
L 152.726192 134.314697 
L 152.256386 130.481709 
L 151.78658 126.644942 
L 151.726467 126.154807 
" clip-path="url(#p0ea38f3b61)" style="fill: none; stroke: #ffffff; stroke-width: 0.3"/>
    <path d="M 156.729026 167.790191 
L 160.650279 154.086083 
L 154.605417 149.609098 
L 154.13561 145.791108 
L 153.665804 141.969385 
L 153.195998 138.143919 
L 152.726192 134.314697 
L 152.256386 130.481709 
L 151.78658 126.644942 
L 151.726467 126.154807 
" clip-path="url(#p0ea38f3b61)" style="fill: none; stroke: #ffffff; stroke-width: 0.3"/>
    <path d="M 349.952811 183.400921 
L 349.746354 187.226463 
L 349.540255 191.047823 
L 349.333798 194.865501 
L 349.127341 198.679506 
L 348.921242 202.489852 
L 348.714785 206.297033 
L 348.508328 210.099605 
L 348.389534 212.288729 
" clip-path="url(#p0ea38f3b61)" style="fill: none; stroke: #ffffff; stroke-width: 0.3"/>
    <path d="M 349.952811 183.400921 
L 349.746354 187.226463 
L 349.539897 191.047336 
L 349.33344 194.865501 
L 349.126983 198.679506 
L 348.920526 202.489852 
L 348.714069 206.296548 
L 348.507612 210.099605 
L 348.389534 212.27129 
" clip-path="url(#p0ea38f3b61)" style="fill: none; stroke: #ffffff; stroke-width: 0.3"/>
    <path d="M 111.588636 80.659512 
L 108.983412 79.170301 
L 106.378189 77.680011 
L 103.772965 76.189142 
L 101.168099 74.698195 
L 98.562876 73.206667 
L 95.957652 71.713555 
L 93.352429 70.220864 
L 90.747205 68.727592 
L 89.572153 68.053117 
" clip-path="url(#p0ea38f3b61)" style="fill: none; stroke: #ffffff; stroke-width: 0.3"/>
    <path d="M 111.588636 80.659512 
L 108.983412 79.171304 
L 106.377831 77.681516 
L 103.772607 76.19165 
L 101.167026 74.701205 
L 98.561803 73.210181 
L 95.956221 71.718576 
L 93.350998 70.225888 
L 90.745416 68.733622 
L 89.558914 68.053117 
" clip-path="url(#p0ea38f3b61)" style="fill: none; stroke: #ffffff; stroke-width: 0.3"/>
    <path d="M 364.32 53.071665 
L 363.879898 53.964998 
L 362.274399 57.222115 
L 361.586328 58.6171 
" clip-path="url(#p0ea38f3b61)" style="fill: none; stroke: #ffffff; stroke-width: 0.3"/>
    <path d="M 364.32 53.071665 
L 363.879898 53.964998 
L 362.274399 57.222115 
L 361.586328 58.6171 
" clip-path="url(#p0ea38f3b61)" style="fill: none; stroke: #ffffff; stroke-width: 0.3"/>
    <path d="M 343.947308 139.849413 
L 344.134443 143.718556 
L 344.321221 147.584856 
L 344.508356 151.446354 
L 344.695491 155.304539 
L 344.882269 159.15893 
L 344.89837 159.487854 
" clip-path="url(#p0ea38f3b61)" style="fill: none; stroke: #ffffff; stroke-width: 0.3"/>
    <path d="M 343.947308 139.849413 
L 344.134443 143.718556 
L 344.321221 147.584856 
L 344.508356 151.446354 
L 344.695491 155.304539 
L 344.882269 159.15893 
L 344.89837 159.487854 
" clip-path="url(#p0ea38f3b61)" style="fill: none; stroke: #ffffff; stroke-width: 0.3"/>
    <path d="M 79.176306 58.837288 
L 89.793639 68.126501 
" clip-path="url(#p0ea38f3b61)" style="fill: none; stroke: #ffffff; stroke-width: 0.3"/>
    <path d="M 79.176306 58.837288 
L 89.7804 68.126501 
" clip-path="url(#p0ea38f3b61)" style="fill: none; stroke: #ffffff; stroke-width: 0.3"/>
    <path d="M 353.274731 88.695387 
L 350.317779 102.358895 
" clip-path="url(#p0ea38f3b61)" style="fill: none; stroke: #ffffff; stroke-width: 0.3"/>
    <path d="M 353.274731 88.695387 
L 350.317779 102.358895 
" clip-path="url(#p0ea38f3b61)" style="fill: none; stroke: #ffffff; stroke-width: 0.3"/>
    <path d="M 152.078196 122.241406 
L 148.052462 113.389515 
" clip-path="url(#p0ea38f3b61)" style="fill: none; stroke: #ffffff; stroke-width: 0.3"/>
    <path d="M 152.078196 122.223564 
L 148.052462 113.389515 
" clip-path="url(#p0ea38f3b61)" style="fill: none; stroke: #ffffff; stroke-width: 0.3"/>
    <path d="M 348.311531 250.936886 
L 335.961319 251.321151 
" clip-path="url(#p0ea38f3b61)" style="fill: none; stroke: #ffffff; stroke-width: 0.3"/>
    <path d="M 348.311531 250.936886 
L 335.961319 251.321151 
" clip-path="url(#p0ea38f3b61)" style="fill: none; stroke: #ffffff; stroke-width: 0.3"/>
    <path d="M 350.044053 205.421762 
L 341.094121 205.386825 
" clip-path="url(#p0ea38f3b61)" style="fill: none; stroke: #ffffff; stroke-width: 0.3"/>
    <path d="M 350.044053 205.421762 
L 341.094121 205.386825 
" clip-path="url(#p0ea38f3b61)" style="fill: none; stroke: #ffffff; stroke-width: 0.3"/>
    <path d="M 341.784697 246.410262 
L 340.989998 251.094242 
" clip-path="url(#p0ea38f3b61)" style="fill: none; stroke: #ffffff; stroke-width: 0.3"/>
    <path d="M 329.994817 251.076972 
L 326.972386 252.840102 
" clip-path="url(#p0ea38f3b61)" style="fill: none; stroke: #ffffff; stroke-width: 0.3"/>
    <path d="M 329.994817 251.094242 
L 326.972386 252.840102 
" clip-path="url(#p0ea38f3b61)" style="fill: none; stroke: #ffffff; stroke-width: 0.3"/>
    <path d="M 341.784697 246.410262 
L 340.989998 251.094242 
" clip-path="url(#p0ea38f3b61)" style="fill: none; stroke: #ffffff; stroke-width: 0.3"/>
    <path d="M 152.103958 122.403965 
L 151.77835 126.029045 
" clip-path="url(#p0ea38f3b61)" style="fill: none; stroke: #ffffff; stroke-width: 0.3"/>
    <path d="M 152.103958 122.421807 
L 151.77835 126.029045 
" clip-path="url(#p0ea38f3b61)" style="fill: none; stroke: #ffffff; stroke-width: 0.3"/>
   </g>
   <g id="line2d_1">
    <path d="M 309.472613 170.356933 
L 294.229959 172.103171 
L 294.229959 172.103171 
" clip-path="url(#p0ea38f3b61)" style="fill: none; stroke: #008000; stroke-width: 0.75; stroke-linecap: square"/>
   </g>
   <g id="line2d_2">
    <path d="M 309.472613 170.356933 
L 313.302857 199.303447 
L 313.302857 199.303447 
" clip-path="url(#p0ea38f3b61)" style="fill: none; stroke: #008000; stroke-width: 0.75; stroke-linecap: square"/>
   </g>
   <g id="line2d_3">
    <path d="M 253.778605 219.318185 
L 257.309164 193.141527 
L 257.309164 193.141527 
" clip-path="url(#p0ea38f3b61)" style="fill: none; stroke: #008000; stroke-width: 0.75; stroke-linecap: square"/>
   </g>
   <g id="line2d_4">
    <path d="M 253.778605 219.318185 
L 282.649852 209.486247 
L 311.512963 199.890806 
L 313.302857 199.303447 
L 313.302857 199.303447 
" clip-path="url(#p0ea38f3b61)" style="fill: none; stroke: #008000; stroke-width: 0.75; stroke-linecap: square"/>
   </g>
   <g id="line2d_5">
    <path d="M 257.309164 193.141527 
L 239.369815 168.165021 
L 239.369815 168.165021 
" clip-path="url(#p0ea38f3b61)" style="fill: none; stroke: #008000; stroke-width: 0.75; stroke-linecap: square"/>
   </g>
   <g id="line2d_6">
    <path d="M 294.229959 172.103171 
L 264.692913 169.887017 
L 239.369815 168.165021 
L 239.369815 168.165021 
" clip-path="url(#p0ea38f3b61)" style="fill: none; stroke: #008000; stroke-width: 0.75; stroke-linecap: square"/>
   </g>
   <g id="line2d_7">
    <path d="M 239.369815 168.165021 
L 216.609254 137.391733 
L 198.554056 113.246455 
L 198.554056 113.246455 
" clip-path="url(#p0ea38f3b61)" style="fill: none; stroke: #008000; stroke-width: 0.75; stroke-linecap: square"/>
   </g>
   <g id="line2d_8">
    <path d="M 239.369815 168.165021 
L 264.555571 144.560374 
L 265.81618 143.38691 
L 265.81618 143.38691 
" clip-path="url(#p0ea38f3b61)" style="fill: none; stroke: #008000; stroke-width: 0.75; stroke-linecap: square"/>
   </g>
   <g id="line2d_9">
    <path d="M 198.554056 113.246455 
L 174.084904 88.234581 
L 149.586682 63.510834 
L 141.01035 54.930337 
L 141.01035 54.930337 
" clip-path="url(#p0ea38f3b61)" style="fill: none; stroke: #008000; stroke-width: 0.75; stroke-linecap: square"/>
   </g>
   <g id="line2d_10">
    <path d="M 58.217143 43.766873 
L 87.177072 47.462538 
L 116.079348 51.375147 
L 141.01035 54.930337 
L 141.01035 54.930337 
" clip-path="url(#p0ea38f3b61)" style="fill: none; stroke: #008000; stroke-width: 0.75; stroke-linecap: square"/>
   </g>
   <g id="line2d_11">
    <path d="M 58.217143 43.766873 
L 87.119323 43.461193 
L 116.024466 43.376025 
L 144.929228 43.511404 
L 173.830267 43.867274 
L 202.724245 44.443491 
L 228.635096 45.147694 
L 228.635096 45.147694 
" clip-path="url(#p0ea38f3b61)" style="fill: none; stroke: #008000; stroke-width: 0.75; stroke-linecap: square"/>
   </g>
   <g id="line2d_12">
    <path d="M 228.635096 45.147694 
L 256.64145 55.719958 
L 284.67984 66.541166 
L 304.156139 74.197735 
L 304.156139 74.197735 
" clip-path="url(#p0ea38f3b61)" style="fill: none; stroke: #008000; stroke-width: 0.75; stroke-linecap: square"/>
   </g>
   <g id="line2d_13">
    <path d="M 304.156139 74.197735 
L 285.605226 91.080002 
L 285.605226 91.080002 
" clip-path="url(#p0ea38f3b61)" style="fill: none; stroke: #008000; stroke-width: 0.75; stroke-linecap: square"/>
   </g>
   <g id="line2d_14">
    <path d="M 285.605226 91.080002 
L 279.638263 106.583643 
L 279.638263 106.583643 
" clip-path="url(#p0ea38f3b61)" style="fill: none; stroke: #008000; stroke-width: 0.75; stroke-linecap: square"/>
   </g>
   <g id="line2d_15">
    <path d="M 279.638263 106.583643 
L 284.505444 122.836696 
L 284.505444 122.836696 
" clip-path="url(#p0ea38f3b61)" style="fill: none; stroke: #008000; stroke-width: 0.75; stroke-linecap: square"/>
   </g>
   <g id="line2d_16">
    <path d="M 284.505444 122.836696 
L 265.81618 143.38691 
L 265.81618 143.38691 
" clip-path="url(#p0ea38f3b61)" style="fill: none; stroke: #008000; stroke-width: 0.75; stroke-linecap: square"/>
   </g>
   <g id="patch_6">
    <path d="M 7.2 253.58337 
L 7.2 7.2 
" style="fill: none; stroke: #ffffff; stroke-linejoin: miter; stroke-linecap: square"/>
   </g>
   <g id="patch_7">
    <path d="M 364.32 253.58337 
L 364.32 7.2 
" style="fill: none; stroke: #ffffff; stroke-linejoin: miter; stroke-linecap: square"/>
   </g>
   <g id="patch_8">
    <path d="M 7.2 253.58337 
L 364.32 253.58337 
" style="fill: none; stroke: #ffffff; stroke-linejoin: miter; stroke-linecap: square"/>
   </g>
   <g id="patch_9">
    <path d="M 7.2 7.2 
L 364.32 7.2 
" style="fill: none; stroke: #ffffff; stroke-linejoin: miter; stroke-linecap: square"/>
   </g>
   <g id="PathCollection_1">
    <defs>
     <path id="m7a2a22c115" d="M 0 1.118034 
C 0.296506 1.118034 0.580908 1.000231 0.790569 0.790569 
C 1.000231 0.580908 1.118034 0.296506 1.118034 0 
C 1.118034 -0.296506 1.000231 -0.580908 0.790569 -0.790569 
C 0.580908 -1.000231 0.296506 -1.118034 0 -1.118034 
C -0.296506 -1.118034 -0.580908 -1.000231 -0.790569 -0.790569 
C -1.000231 -0.580908 -1.118034 -0.296506 -1.118034 0 
C -1.118034 0.296506 -1.000231 0.580908 -0.790569 0.790569 
C -0.580908 1.000231 -0.296506 1.118034 0 1.118034 
z
" style="stroke: #ff0000"/>
    </defs>
    <g clip-path="url(#p0ea38f3b61)">
     <use xlink:href="#m7a2a22c115" x="309.472613" y="170.356933" style="fill: #ff0000; stroke: #ff0000"/>
    </g>
   </g>
   <g id="PathCollection_2">
    <g clip-path="url(#p0ea38f3b61)">
     <use xlink:href="#m7a2a22c115" x="253.778605" y="219.318185" style="fill: #ff0000; stroke: #ff0000"/>
    </g>
   </g>
   <g id="PathCollection_3">
    <g clip-path="url(#p0ea38f3b61)">
     <use xlink:href="#m7a2a22c115" x="257.309164" y="193.141527" style="fill: #ff0000; stroke: #ff0000"/>
    </g>
   </g>
   <g id="PathCollection_4">
    <g clip-path="url(#p0ea38f3b61)">
     <use xlink:href="#m7a2a22c115" x="294.229959" y="172.103171" style="fill: #ff0000; stroke: #ff0000"/>
    </g>
   </g>
   <g id="PathCollection_5">
    <g clip-path="url(#p0ea38f3b61)">
     <use xlink:href="#m7a2a22c115" x="313.302857" y="199.303447" style="fill: #ff0000; stroke: #ff0000"/>
    </g>
   </g>
   <g id="PathCollection_6">
    <g clip-path="url(#p0ea38f3b61)">
     <use xlink:href="#m7a2a22c115" x="239.369815" y="168.165021" style="fill: #ff0000; stroke: #ff0000"/>
    </g>
   </g>
   <g id="PathCollection_7">
    <g clip-path="url(#p0ea38f3b61)">
     <use xlink:href="#m7a2a22c115" x="198.554056" y="113.246455" style="fill: #ff0000; stroke: #ff0000"/>
    </g>
   </g>
   <g id="PathCollection_8">
    <g clip-path="url(#p0ea38f3b61)">
     <use xlink:href="#m7a2a22c115" x="58.217143" y="43.766873" style="fill: #ff0000; stroke: #ff0000"/>
    </g>
   </g>
   <g id="PathCollection_9">
    <g clip-path="url(#p0ea38f3b61)">
     <use xlink:href="#m7a2a22c115" x="141.01035" y="54.930337" style="fill: #ff0000; stroke: #ff0000"/>
    </g>
   </g>
   <g id="PathCollection_10">
    <g clip-path="url(#p0ea38f3b61)">
     <use xlink:href="#m7a2a22c115" x="228.635096" y="45.147694" style="fill: #ff0000; stroke: #ff0000"/>
    </g>
   </g>
   <g id="PathCollection_11">
    <g clip-path="url(#p0ea38f3b61)">
     <use xlink:href="#m7a2a22c115" x="304.156139" y="74.197735" style="fill: #ff0000; stroke: #ff0000"/>
    </g>
   </g>
   <g id="PathCollection_12">
    <g clip-path="url(#p0ea38f3b61)">
     <use xlink:href="#m7a2a22c115" x="285.605226" y="91.080002" style="fill: #ff0000; stroke: #ff0000"/>
    </g>
   </g>
   <g id="PathCollection_13">
    <g clip-path="url(#p0ea38f3b61)">
     <use xlink:href="#m7a2a22c115" x="279.638263" y="106.583643" style="fill: #ff0000; stroke: #ff0000"/>
    </g>
   </g>
   <g id="PathCollection_14">
    <g clip-path="url(#p0ea38f3b61)">
     <use xlink:href="#m7a2a22c115" x="284.505444" y="122.836696" style="fill: #ff0000; stroke: #ff0000"/>
    </g>
   </g>
   <g id="PathCollection_15">
    <g clip-path="url(#p0ea38f3b61)">
     <use xlink:href="#m7a2a22c115" x="265.81618" y="143.38691" style="fill: #ff0000; stroke: #ff0000"/>
    </g>
   </g>
  </g>
 </g>
 <defs>
  <clipPath id="p0ea38f3b61">
   <rect x="7.2" y="7.2" width="357.12" height="246.38337"/>
  </clipPath>
 </defs>
</svg>
