<?xml version="1.0" encoding="utf-8" standalone="no"?>
<!DOCTYPE svg PUBLIC "-//W3C//DTD SVG 1.1//EN"
  "http://www.w3.org/Graphics/SVG/1.1/DTD/svg11.dtd">
<svg xmlns:xlink="http://www.w3.org/1999/xlink" width="371.52pt" height="268.141758pt" viewBox="0 0 371.52 268.141758" xmlns="http://www.w3.org/2000/svg" version="1.1">
 <metadata>
  <rdf:RDF xmlns:dc="http://purl.org/dc/elements/1.1/" xmlns:cc="http://creativecommons.org/ns#" xmlns:rdf="http://www.w3.org/1999/02/22-rdf-syntax-ns#">
   <cc:Work>
    <dc:type rdf:resource="http://purl.org/dc/dcmitype/StillImage"/>
    <dc:date>2025-12-17T16:18:51.105578</dc:date>
    <dc:format>image/svg+xml</dc:format>
    <dc:creator>
     <cc:Agent>
      <dc:title>Matplotlib v3.10.6, https://matplotlib.org/</dc:title>
     </cc:Agent>
    </dc:creator>
   </cc:Work>
  </rdf:RDF>
 </metadata>
 <defs>
  <style type="text/css">*{stroke-linejoin: round; stroke-linecap: butt}</style>
 </defs>
 <g id="figure_1">
  <g id="patch_1">
   <path d="M 0 268.141758 
L 371.52 268.141758 
L 371.52 0 
L 0 0 
z
" style="fill: #ffffff"/>
  </g>
  <g id="axes_1">
   <g id="patch_2">
    <path d="M 7.2 260.941758 
L 364.32 260.941758 
L 364.32 7.2 
L 7.2 7.2 
z
" clip-path="url(#pc3dad52378)" style="fill: #add8e6; stroke: #ffffff; stroke-linejoin: miter"/>
   </g>
   <g id="patch_3">
    <path d="M 7.2 260.941758 
L 364.32 260.941758 
L 364.32 7.2 
L 7.2 7.2 
z
" clip-path="url(#pc3dad52378)" style="fill: #add8e6; stroke: #ffffff; stroke-linejoin: miter"/>
   </g>
   <g id="patch_4">
    <path d="M 7.2 260.941758 
L 7.2 7.199995 
L 364.31999 7.199995 
L 364.31999 260.941758 
z
" clip-path="url(#pc3dad52378)" style="fill: #d3d3d3"/>
   </g>
   <g id="patch_5">
    <path d="M 230.957246 243.641634 
L 231.322522 250.99943 
L 239.176864 256.499635 
L 240.659635 260.941758 
L 224.911727 260.941758 
L 224.644301 245.505375 
L 231.071381 243.351201 
z
" clip-path="url(#pc3dad52378)" style="fill: #add8e6"/>
   </g>
   <g id="matplotlib.axis_1"/>
   <g id="matplotlib.axis_2"/>
   <g id="LineCollection_1">
    <path d="M 230.957245 243.641633 
L 231.322526 250.99943 
L 239.176857 256.499635 
L 240.659632 260.941758 
" clip-path="url(#pc3dad52378)" style="fill: none; stroke: #000000; stroke-width: 0.6"/>
    <path d="M 224.91173 260.941758 
L 224.644307 245.505375 
L 231.071376 243.351201 
L 230.957245 243.641633 
" clip-path="url(#pc3dad52378)" style="fill: none; stroke: #000000; stroke-width: 0.6"/>
   </g>
   <g id="LineCollection_2"/>
   <g id="LineCollection_3">
    <path d="M 301.471107 260.941758 
L 301.47095 260.1212 
L 301.470637 256.83457 
L 301.470323 253.544903 
L 301.47001 250.252188 
L 301.469696 246.956417 
L 301.469383 243.657162 
L 301.469069 240.35483 
L 301.468756 237.049834 
L 301.468442 233.741745 
L 301.468129 230.430552 
L 301.467501 227.116247 
L 301.467188 223.798398 
L 301.466874 220.477416 
L 301.466561 217.153716 
L 301.466247 213.826865 
L 301.465934 210.496853 
L 301.46562 207.163672 
L 301.465307 203.826886 
L 301.464993 200.487335 
L 301.46468 197.14416 
L 301.464366 193.7982 
L 301.463739 190.449022 
L 301.463425 187.096614 
L 301.463112 183.740542 
L 301.462798 180.381647 
L 301.462485 177.019065 
L 301.462171 173.653643 
L 301.461858 170.284942 
L 301.461544 166.912952 
L 301.461231 163.537663 
L 301.460917 160.158635 
L 301.46029 156.776287 
L 301.459976 153.39104 
L 301.459663 150.002452 
L 301.459349 146.610515 
L 301.459036 143.215217 
L 301.458722 139.816116 
L 301.458409 136.413632 
L 301.458095 133.008189 
L 301.457781 129.599344 
L 301.457468 126.187086 
L 301.457154 122.771405 
L 301.456527 119.351854 
L 301.456214 115.929294 
L 301.4559 112.502842 
L 301.455587 109.073359 
L 301.455273 105.640399 
L 301.45496 102.203952 
L 301.454646 98.763568 
L 301.454332 95.320111 
L 301.454019 91.872696 
L 301.453705 88.422187 
L 301.453078 84.968136 
L 301.452765 81.510531 
L 301.452451 78.049361 
L 301.452138 74.584174 
L 301.451824 71.1154 
L 301.451511 67.643468 
L 301.451197 64.167926 
L 301.450883 60.688763 
L 301.45057 57.205967 
L 301.450256 54.865526 
L 303.915983 54.864639 
L 306.382024 54.863309 
L 308.847751 54.861979 
L 311.313477 54.861092 
L 313.779518 54.860205 
L 316.245245 54.858875 
L 318.710972 54.857544 
L 321.177012 54.856658 
L 323.642739 54.855771 
L 326.108466 54.85444 
L 328.574506 54.85311 
L 331.040233 54.852223 
L 333.50596 54.851336 
L 335.971687 54.85045 
L 338.437727 54.849119 
L 340.903454 54.847789 
L 343.369181 54.846902 
L 345.835221 54.846015 
L 348.300948 54.844685 
L 350.766675 54.843355 
L 353.232715 54.842468 
L 355.698442 54.841581 
L 358.164169 54.840251 
L 360.63021 54.838921 
L 363.095936 54.838034 
L 364.32 54.837593 
" clip-path="url(#pc3dad52378)" style="fill: none; stroke: #ffffff; stroke-width: 0.3"/>
    <path d="M 301.48263 260.941758 
L 301.482552 260.1212 
L 301.481925 256.83457 
L 301.481611 253.544903 
L 301.481297 250.252188 
L 301.480984 246.956417 
L 301.48067 243.657162 
L 301.480357 240.35483 
L 301.480043 237.049834 
L 301.47973 233.741745 
L 301.479416 230.430552 
L 301.479103 227.116247 
L 301.478789 223.798398 
L 301.478476 220.477416 
L 301.477848 217.153716 
L 301.477535 213.826865 
L 301.477221 210.496853 
L 301.476908 207.163672 
L 301.476594 203.826886 
L 301.476281 200.487335 
L 301.475967 197.14416 
L 301.475654 193.7982 
L 301.47534 190.449022 
L 301.475027 187.096614 
L 301.474713 183.740542 
L 301.474399 180.381647 
L 301.474086 177.019065 
L 301.473459 173.653643 
L 301.473145 170.284942 
L 301.472832 166.912952 
L 301.472518 163.537663 
L 301.472205 160.158635 
L 301.471891 156.776287 
L 301.471578 153.39104 
L 301.471264 150.002452 
L 301.47095 146.610515 
L 301.470637 143.215217 
L 301.470323 139.816116 
L 301.47001 136.413632 
L 301.469383 133.008189 
L 301.469069 129.599344 
L 301.468756 126.187086 
L 301.468442 122.771405 
L 301.468129 119.351854 
L 301.467815 115.929294 
L 301.467501 112.502842 
L 301.467188 109.073359 
L 301.466874 105.640399 
L 301.466561 102.203952 
L 301.466247 98.763568 
L 301.465934 95.320111 
L 301.46562 91.872696 
L 301.464993 88.422187 
L 301.46468 84.968136 
L 301.464366 81.510531 
L 301.464052 78.049361 
L 301.463739 74.584174 
L 301.463425 71.1154 
L 301.463112 67.643468 
L 301.462798 64.167926 
L 301.462485 60.688763 
L 301.462171 57.205967 
L 301.461858 54.865526 
L 303.927584 54.864639 
L 306.393625 54.863309 
L 308.859352 54.861979 
L 311.325079 54.861092 
L 313.791119 54.860205 
L 316.256846 54.858875 
L 318.722573 54.857544 
L 321.188613 54.856658 
L 323.65434 54.855771 
L 326.120067 54.85444 
L 328.586107 54.85311 
L 331.051834 54.852223 
L 333.517561 54.851336 
L 335.983288 54.85045 
L 338.449328 54.849119 
L 340.915055 54.847789 
L 343.380782 54.846902 
L 345.846822 54.846015 
L 348.312549 54.844685 
L 350.778276 54.843355 
L 353.244317 54.842468 
L 355.710043 54.841581 
L 358.17577 54.840251 
L 360.641811 54.838921 
L 363.107538 54.838034 
L 364.32 54.837598 
" clip-path="url(#pc3dad52378)" style="fill: none; stroke: #ffffff; stroke-width: 0.3"/>
    <path d="M 159.628581 7.2 
L 157.43914 9.251456 
L 157.701578 21.733674 
L 167.633466 26.979963 
L 169.639848 24.935336 
L 171.646229 22.889442 
L 173.652611 20.84183 
L 175.659306 18.792946 
L 177.665688 16.743235 
L 179.67207 14.692248 
L 180.624937 13.717233 
L 188.536019 19.400753 
L 189.180984 22.80124 
L 189.825948 26.198225 
L 190.470913 29.591272 
L 191.115877 32.980839 
L 191.760842 36.367383 
L 191.812263 36.63714 
L 193.530182 39.150847 
L 195.248415 41.663539 
L 196.966335 44.173884 
L 198.684567 46.682332 
L 200.402487 49.189331 
L 202.12072 51.693554 
L 203.42225 53.590002 
L 203.479315 62.847297 
L 205.845961 63.823445 
L 208.212921 64.799308 
L 210.579567 65.774443 
L 212.946527 66.749736 
L 215.313174 67.724744 
L 215.545825 67.820153 
L 216.571121 70.978163 
L 217.596417 74.132754 
L 218.621399 77.284817 
L 219.646695 80.433479 
L 220.671991 83.57919 
L 221.51637 86.167617 
L 228.069171 91.218319 
L 231.528212 84.424054 
L 233.984846 84.723793 
L 236.441167 85.023506 
L 238.897801 85.323192 
L 241.354435 85.622851 
L 243.810755 85.922483 
L 246.267389 86.222089 
L 246.870966 86.295888 
L 252.636139 79.636027 
L 255.100925 79.741661 
L 257.565398 79.847291 
L 260.030184 79.952918 
L 262.49497 80.058982 
L 264.959443 80.164602 
L 267.424229 80.270659 
L 269.889015 80.376273 
L 272.353488 80.481883 
L 274.818274 80.587491 
L 277.282747 80.693534 
L 279.747533 80.799575 
L 282.212319 80.905172 
L 284.676792 81.010766 
L 284.748908 81.013845 
L 283.150763 75.482868 
L 288.619008 68.881839 
L 290.50875 71.11187 
L 292.398179 73.340857 
L 294.287922 75.568361 
L 296.177351 77.793945 
L 298.067094 80.018053 
L 299.956836 82.241128 
L 301.473145 84.024067 
" clip-path="url(#pc3dad52378)" style="fill: none; stroke: #ffffff; stroke-width: 0.3"/>
    <path d="M 159.636394 7.2 
L 157.450428 9.251456 
L 157.701578 21.733674 
L 167.633466 26.979963 
L 169.639848 24.935336 
L 171.646229 22.889442 
L 173.652611 20.84183 
L 175.659306 18.792946 
L 177.665688 16.743235 
L 179.67207 14.692248 
L 180.624937 13.717233 
L 188.536019 19.400753 
L 189.181611 22.800792 
L 189.827202 26.19733 
L 190.472794 29.590378 
L 191.118072 32.979946 
L 191.763663 36.366045 
L 191.812263 36.620643 
L 193.529555 39.136144 
L 195.246848 41.649293 
L 196.963826 44.160983 
L 198.681118 46.670774 
L 200.398411 49.178671 
L 202.115703 51.684677 
L 203.42225 53.590002 
L 203.490916 62.847297 
L 205.857563 63.82433 
L 208.224209 64.801076 
L 210.590542 65.777095 
L 212.957188 66.753271 
L 215.323834 67.729161 
L 215.545825 67.820153 
L 216.571121 70.978163 
L 217.596417 74.132754 
L 218.621399 77.284817 
L 219.646695 80.433479 
L 220.671991 83.57919 
L 221.51637 86.167617 
L 228.069171 91.202528 
L 231.528212 84.424054 
L 233.984846 84.721157 
L 236.44148 85.018233 
L 238.898428 85.315283 
L 241.355062 85.611867 
L 243.811696 85.908864 
L 246.26833 86.205396 
L 246.882567 86.280074 
L 252.636139 79.620182 
L 255.100925 79.726696 
L 257.565398 79.834087 
L 260.030184 79.941035 
L 262.494657 80.04798 
L 264.959443 80.154921 
L 267.423915 80.261858 
L 269.888702 80.368792 
L 272.353174 80.475723 
L 274.817961 80.58309 
L 277.282747 80.689574 
L 279.747219 80.796935 
L 282.212006 80.903852 
L 284.676478 81.010766 
L 284.748908 81.013845 
L 283.150763 75.482868 
L 288.619008 68.881839 
L 290.509377 71.110987 
L 292.399747 73.33777 
L 294.29043 75.563954 
L 296.1808 77.78866 
L 298.07117 80.011452 
L 299.961539 82.232771 
L 301.473145 84.008242 
" clip-path="url(#pc3dad52378)" style="fill: none; stroke: #ffffff; stroke-width: 0.3"/>
    <path d="M 56.260308 224.920025 
L 56.244944 221.600525 
L 56.229267 218.277465 
L 56.213903 214.95168 
L 56.19854 211.622738 
L 56.182862 208.290629 
L 56.167499 204.955344 
L 56.152135 201.616872 
L 56.136457 198.275205 
L 56.121094 194.930332 
L 56.10573 191.582243 
L 56.090053 188.230503 
L 56.074689 184.875953 
L 56.059325 181.518158 
L 56.043648 178.15668 
L 56.028284 174.792364 
L 56.01292 171.424773 
L 55.997243 168.053897 
L 55.981879 164.679725 
L 55.966515 161.302248 
L 55.950838 157.921454 
L 55.935474 154.537335 
L 55.920111 151.149879 
L 55.904433 147.758645 
L 55.88907 144.364486 
L 55.873706 140.966959 
L 55.858029 137.565621 
L 55.842665 134.161328 
L 55.827301 130.753635 
L 55.811624 127.342534 
L 55.79626 123.928013 
L 55.792184 123.024311 
L 56.667291 119.828145 
L 57.542398 116.628971 
L 58.417506 113.426342 
L 59.292926 110.220686 
L 60.168034 107.012429 
L 61.043141 103.801128 
L 61.408736 102.458396 
L 57.561838 97.153936 
L 49.17103 95.81469 
L 48.166428 85.143911 
L 49.813172 82.570966 
L 51.46023 79.996048 
L 53.106975 77.418713 
L 54.753719 74.840276 
L 56.400777 72.258971 
L 58.047521 69.676116 
L 59.694266 67.091264 
L 61.23754 64.666674 
L 62.459115 61.645186 
L 63.681005 58.62096 
L 64.902581 55.593544 
L 66.124156 52.564262 
L 67.345732 49.531331 
L 68.567621 46.496075 
L 69.789197 43.458044 
L 71.010773 40.416783 
L 72.232662 37.373176 
L 73.454238 34.32677 
L 74.675814 31.277111 
L 75.897703 28.225084 
L 77.119279 25.170235 
L 78.340855 22.112108 
L 79.423216 19.400753 
L 75.610181 10.266447 
L 73.419748 8.64267 
L 71.473994 7.2 
" clip-path="url(#pc3dad52378)" style="fill: none; stroke: #ffffff; stroke-width: 0.3"/>
    <path d="M 56.260308 224.920025 
L 56.245258 221.600525 
L 56.230208 218.277465 
L 56.215158 214.95168 
L 56.200107 211.622738 
L 56.184744 208.290629 
L 56.169693 204.955344 
L 56.154643 201.616872 
L 56.139593 198.275205 
L 56.124543 194.930332 
L 56.109493 191.582243 
L 56.094442 188.230503 
L 56.079392 184.875953 
L 56.064342 181.518158 
L 56.048978 178.15668 
L 56.033928 174.792364 
L 56.018878 171.424773 
L 56.003827 168.053897 
L 55.988777 164.679725 
L 55.973727 161.302248 
L 55.958677 157.921454 
L 55.943627 154.537335 
L 55.928576 151.149448 
L 55.913213 147.758645 
L 55.898162 144.364486 
L 55.883112 140.966526 
L 55.868062 137.565621 
L 55.853012 134.161328 
L 55.837962 130.753635 
L 55.822911 127.342534 
L 55.807861 123.928013 
L 55.803785 123.024311 
L 56.677325 119.827276 
L 57.550864 116.627229 
L 58.424404 113.423728 
L 59.297943 110.217633 
L 60.171483 107.008063 
L 61.045336 103.795884 
L 61.408736 102.458396 
L 57.561838 97.138172 
L 49.182631 95.81469 
L 48.166428 85.143911 
L 49.813172 82.570966 
L 51.46023 79.996048 
L 53.106975 77.418713 
L 54.753719 74.840276 
L 56.400777 72.258971 
L 58.047521 69.676116 
L 59.694266 67.091264 
L 61.23754 64.666674 
L 62.459115 61.645186 
L 63.681005 58.62096 
L 64.902581 55.593544 
L 66.124156 52.564262 
L 67.345732 49.531331 
L 68.567621 46.496075 
L 69.789197 43.458044 
L 71.010773 40.416783 
L 72.232662 37.373176 
L 73.454238 34.32677 
L 74.675814 31.277111 
L 75.897703 28.225084 
L 77.119279 25.170235 
L 78.340855 22.112108 
L 79.423216 19.400753 
L 75.610181 10.266447 
L 73.411909 8.665153 
L 71.402037 7.2 
" clip-path="url(#pc3dad52378)" style="fill: none; stroke: #ffffff; stroke-width: 0.3"/>
    <path d="M 7.2 224.904414 
L 9.386728 224.904414 
L 11.852768 224.904414 
L 14.318495 224.904414 
L 16.784222 224.904414 
L 19.250262 224.904414 
L 21.715989 224.904414 
L 24.181716 224.904414 
L 26.647756 224.904414 
L 29.113483 224.904414 
L 31.57921 224.904414 
L 34.04525 224.904414 
L 36.510977 224.904414 
L 38.976704 224.904414 
L 41.442431 224.904414 
L 43.908471 224.904414 
L 46.374198 224.904414 
L 48.839925 224.904414 
L 51.305966 224.904414 
L 53.771692 224.904414 
L 56.237419 224.904414 
L 58.70346 224.904414 
L 61.169187 224.904414 
L 63.634913 224.904414 
L 66.100954 224.904414 
L 68.566681 224.904414 
L 71.032408 224.904414 
L 73.498448 224.904414 
L 75.964175 224.904414 
L 78.429902 224.904414 
L 80.895942 224.904414 
L 83.361669 224.904414 
L 85.827396 224.904414 
L 88.293436 224.904414 
L 90.759163 224.904414 
L 93.22489 224.904414 
L 95.69093 224.904414 
L 98.156657 224.904414 
L 100.622384 224.904414 
L 103.088111 224.904414 
L 105.554151 224.904414 
L 108.019878 224.904414 
L 110.485605 224.904414 
L 112.951646 224.904414 
L 115.417373 224.904414 
L 117.883099 224.904414 
L 120.34914 224.904414 
L 122.814867 224.904414 
L 125.280594 224.904414 
L 127.746634 224.904414 
L 130.212361 224.904414 
L 132.678088 224.904414 
L 135.144128 224.904414 
L 137.609855 224.904414 
L 140.075582 224.904414 
L 142.541622 224.904414 
L 145.007349 224.904414 
L 147.473076 224.904414 
L 149.939116 224.904414 
L 152.404843 224.904414 
L 154.87057 224.904414 
L 157.336611 224.904414 
L 159.802337 224.904414 
L 162.268064 224.904414 
L 164.733791 224.904414 
L 167.199832 224.904414 
L 169.665558 224.904414 
L 172.131285 224.904414 
L 174.597326 224.904414 
L 177.063053 224.904414 
L 179.528779 224.904414 
L 181.99482 224.904414 
L 184.460547 224.904414 
L 186.926274 224.904414 
L 189.392314 224.904414 
L 191.858041 224.904414 
L 194.323768 224.904414 
L 196.789808 224.904414 
L 199.255535 224.904414 
L 201.721262 224.904414 
L 204.187302 224.904414 
L 206.653029 224.904414 
L 209.118756 224.904414 
L 211.584796 224.904414 
L 214.050523 224.904414 
L 216.51625 224.904414 
L 218.982291 224.904414 
L 221.448017 224.904414 
L 223.913744 224.904414 
L 226.379471 224.904414 
L 228.845512 224.904414 
L 231.311238 224.904414 
L 233.776965 224.904414 
L 236.243006 224.904414 
L 238.708733 224.904414 
L 241.174459 224.904414 
L 243.6405 224.904414 
L 246.106227 224.904414 
L 248.571954 224.904414 
L 251.037994 224.904414 
L 253.503721 224.904414 
L 255.969448 224.904414 
L 258.435488 224.904414 
L 260.901215 224.904414 
L 263.366942 224.904414 
L 265.832982 224.904414 
L 268.298709 224.904414 
L 270.764436 224.904414 
L 273.230476 224.904414 
L 275.696203 224.904414 
L 278.16193 224.904414 
L 280.627971 224.904414 
L 283.093697 224.904414 
L 285.559424 224.904414 
L 288.025151 224.904414 
L 290.491192 224.904414 
L 292.956918 224.904414 
L 295.422645 224.904414 
L 297.888686 224.904414 
L 300.354413 224.904414 
L 301.473145 224.904414 
" clip-path="url(#pc3dad52378)" style="fill: none; stroke: #ffffff; stroke-width: 0.3"/>
    <path d="M 7.2 224.904414 
L 9.386728 224.904414 
L 11.852768 224.904414 
L 14.318495 224.904414 
L 16.784222 224.904414 
L 19.250262 224.904414 
L 21.715989 224.904414 
L 24.181716 224.904414 
L 26.647756 224.904414 
L 29.113483 224.904414 
L 31.57921 224.904414 
L 34.04525 224.904414 
L 36.510977 224.904414 
L 38.976704 224.904414 
L 41.442431 224.904414 
L 43.908471 224.904414 
L 46.374198 224.904414 
L 48.839925 224.904414 
L 51.305966 224.904414 
L 53.771692 224.904414 
L 56.237419 224.904414 
L 58.70346 224.904414 
L 61.169187 224.904414 
L 63.634913 224.904414 
L 66.100954 224.904414 
L 68.566681 224.904414 
L 71.032408 224.904414 
L 73.498448 224.904414 
L 75.964175 224.904414 
L 78.429902 224.904414 
L 80.895942 224.904414 
L 83.361669 224.904414 
L 85.827396 224.904414 
L 88.293436 224.904414 
L 90.759163 224.904414 
L 93.22489 224.904414 
L 95.69093 224.904414 
L 98.156657 224.904414 
L 100.622384 224.904414 
L 103.088111 224.904414 
L 105.554151 224.904414 
L 108.019878 224.904414 
L 110.485605 224.904414 
L 112.951646 224.904414 
L 115.417373 224.904414 
L 117.883099 224.904414 
L 120.34914 224.904414 
L 122.814867 224.904414 
L 125.280594 224.904414 
L 127.746634 224.904414 
L 130.212361 224.904414 
L 132.678088 224.904414 
L 135.144128 224.904414 
L 137.609855 224.904414 
L 140.075582 224.904414 
L 142.541622 224.904414 
L 145.007349 224.904414 
L 147.473076 224.904414 
L 149.939116 224.904414 
L 152.404843 224.904414 
L 154.87057 224.904414 
L 157.336611 224.904414 
L 159.802337 224.904414 
L 162.268064 224.904414 
L 164.733791 224.904414 
L 167.199832 224.904414 
L 169.665558 224.904414 
L 172.131285 224.904414 
L 174.597326 224.904414 
L 177.063053 224.904414 
L 179.528779 224.904414 
L 181.99482 224.904414 
L 184.460547 224.904414 
L 186.926274 224.904414 
L 189.392314 224.904414 
L 191.858041 224.904414 
L 194.323768 224.904414 
L 196.789808 224.904414 
L 199.255535 224.904414 
L 201.721262 224.904414 
L 204.187302 224.904414 
L 206.653029 224.904414 
L 209.118756 224.904414 
L 211.584796 224.904414 
L 214.050523 224.904414 
L 216.51625 224.904414 
L 218.982291 224.904414 
L 221.448017 224.904414 
L 223.913744 224.904414 
L 226.379471 224.904414 
L 228.845512 224.904414 
L 231.311238 224.904414 
L 233.776965 224.904414 
L 236.243006 224.904414 
L 238.708733 224.904414 
L 241.174459 224.904414 
L 243.6405 224.904414 
L 246.106227 224.904414 
L 248.571954 224.904414 
L 251.037994 224.904414 
L 253.503721 224.904414 
L 255.969448 224.904414 
L 258.435488 224.904414 
L 260.901215 224.904414 
L 263.366942 224.904414 
L 265.832982 224.904414 
L 268.298709 224.904414 
L 270.764436 224.904414 
L 273.230476 224.904414 
L 275.696203 224.904414 
L 278.16193 224.904414 
L 280.627971 224.904414 
L 283.093697 224.904414 
L 285.559424 224.904414 
L 288.025151 224.904414 
L 290.491192 224.904414 
L 292.956918 224.904414 
L 295.422645 224.904414 
L 297.888686 224.904414 
L 300.354413 224.904414 
L 301.473145 224.904414 
" clip-path="url(#pc3dad52378)" style="fill: none; stroke: #ffffff; stroke-width: 0.3"/>
    <path d="M 178.535779 224.904414 
L 178.535779 228.221221 
L 178.535465 231.534488 
L 178.535465 234.845066 
L 178.535152 238.152123 
L 178.535152 241.45609 
L 178.535152 244.756975 
L 178.534838 248.054789 
L 178.534838 251.349959 
L 178.534838 254.642075 
L 178.534525 257.930729 
L 178.534525 260.941758 
" clip-path="url(#pc3dad52378)" style="fill: none; stroke: #ffffff; stroke-width: 0.3"/>
    <path d="M 178.535779 224.904414 
L 178.535779 228.221221 
L 178.535465 231.534488 
L 178.535465 234.845066 
L 178.535152 238.152123 
L 178.535152 241.45609 
L 178.535152 244.756975 
L 178.534838 248.054789 
L 178.534838 251.349959 
L 178.534838 254.642075 
L 178.534525 257.930729 
L 178.534525 260.941758 
" clip-path="url(#pc3dad52378)" style="fill: none; stroke: #ffffff; stroke-width: 0.3"/>
   </g>
   <g id="line2d_1">
    <path d="M 81.963881 134.576015 
L 74.897231 138.625847 
L 74.897231 138.625847 
" clip-path="url(#pc3dad52378)" style="fill: none; stroke: #008000; stroke-width: 0.75; stroke-linecap: square"/>
   </g>
   <g id="line2d_2">
    <path d="M 81.963881 134.576015 
L 89.692605 134.497115 
L 89.692605 134.497115 
" clip-path="url(#pc3dad52378)" style="fill: none; stroke: #008000; stroke-width: 0.75; stroke-linecap: square"/>
   </g>
   <g id="line2d_3">
    <path d="M 77.534022 119.706625 
L 86.928413 130.199703 
L 86.928413 130.199703 
" clip-path="url(#pc3dad52378)" style="fill: none; stroke: #008000; stroke-width: 0.75; stroke-linecap: square"/>
   </g>
   <g id="line2d_4">
    <path d="M 77.534022 119.706625 
L 80.216431 80.507616 
L 80.216431 80.507616 
" clip-path="url(#pc3dad52378)" style="fill: none; stroke: #008000; stroke-width: 0.75; stroke-linecap: square"/>
   </g>
   <g id="line2d_5">
    <path d="M 69.805298 131.689585 
L 60.386249 112.049493 
L 60.386249 112.049493 
" clip-path="url(#pc3dad52378)" style="fill: none; stroke: #008000; stroke-width: 0.75; stroke-linecap: square"/>
   </g>
   <g id="line2d_6">
    <path d="M 69.805298 131.689585 
L 74.897231 138.625847 
L 74.897231 138.625847 
" clip-path="url(#pc3dad52378)" style="fill: none; stroke: #008000; stroke-width: 0.75; stroke-linecap: square"/>
   </g>
   <g id="line2d_7">
    <path d="M 110.744605 161.666601 
L 137.636693 152.855783 
L 147.710231 149.615455 
L 147.710231 149.615455 
" clip-path="url(#pc3dad52378)" style="fill: none; stroke: #008000; stroke-width: 0.75; stroke-linecap: square"/>
   </g>
   <g id="line2d_8">
    <path d="M 110.744605 161.666601 
L 89.692605 134.497115 
L 89.692605 134.497115 
" clip-path="url(#pc3dad52378)" style="fill: none; stroke: #008000; stroke-width: 0.75; stroke-linecap: square"/>
   </g>
   <g id="line2d_9">
    <path d="M 110.744605 161.666601 
L 126.784811 171.678976 
L 126.784811 171.678976 
" clip-path="url(#pc3dad52378)" style="fill: none; stroke: #008000; stroke-width: 0.75; stroke-linecap: square"/>
   </g>
   <g id="line2d_10">
    <path d="M 110.744605 161.666601 
L 89.692605 134.497115 
L 89.692605 134.497115 
" clip-path="url(#pc3dad52378)" style="fill: none; stroke: #008000; stroke-width: 0.75; stroke-linecap: square"/>
   </g>
   <g id="line2d_11">
    <path d="M 226.39149 193.043373 
L 227.327271 181.148955 
L 227.327271 181.148955 
" clip-path="url(#pc3dad52378)" style="fill: none; stroke: #008000; stroke-width: 0.75; stroke-linecap: square"/>
   </g>
   <g id="line2d_12">
    <path d="M 226.39149 193.043373 
L 239.08639 199.59455 
L 239.08639 199.59455 
" clip-path="url(#pc3dad52378)" style="fill: none; stroke: #008000; stroke-width: 0.75; stroke-linecap: square"/>
   </g>
   <g id="line2d_13">
    <path d="M 239.08639 199.59455 
L 244.132294 176.370101 
L 244.132294 176.370101 
" clip-path="url(#pc3dad52378)" style="fill: none; stroke: #008000; stroke-width: 0.75; stroke-linecap: square"/>
   </g>
   <g id="line2d_14">
    <path d="M 239.08639 199.59455 
L 252.135137 214.277983 
L 252.135137 214.277983 
" clip-path="url(#pc3dad52378)" style="fill: none; stroke: #008000; stroke-width: 0.75; stroke-linecap: square"/>
   </g>
   <g id="line2d_15">
    <path d="M 147.710231 149.615455 
L 165.839404 147.087072 
L 165.839404 147.087072 
" clip-path="url(#pc3dad52378)" style="fill: none; stroke: #008000; stroke-width: 0.75; stroke-linecap: square"/>
   </g>
   <g id="line2d_16">
    <path d="M 182.51867 151.812543 
L 165.839404 147.087072 
L 165.839404 147.087072 
" clip-path="url(#pc3dad52378)" style="fill: none; stroke: #008000; stroke-width: 0.75; stroke-linecap: square"/>
   </g>
   <g id="line2d_17">
    <path d="M 197.588573 201.992268 
L 206.17335 207.909355 
L 206.17335 207.909355 
" clip-path="url(#pc3dad52378)" style="fill: none; stroke: #008000; stroke-width: 0.75; stroke-linecap: square"/>
   </g>
   <g id="line2d_18">
    <path d="M 197.588573 201.992268 
L 193.512972 190.48479 
L 193.512972 190.48479 
" clip-path="url(#pc3dad52378)" style="fill: none; stroke: #008000; stroke-width: 0.75; stroke-linecap: square"/>
   </g>
   <g id="line2d_19">
    <path d="M 206.17335 207.909355 
L 211.641733 191.710443 
L 211.641733 191.710443 
" clip-path="url(#pc3dad52378)" style="fill: none; stroke: #008000; stroke-width: 0.75; stroke-linecap: square"/>
   </g>
   <g id="line2d_20">
    <path d="M 193.512972 190.48479 
L 188.763789 195.13607 
L 188.763789 195.13607 
" clip-path="url(#pc3dad52378)" style="fill: none; stroke: #008000; stroke-width: 0.75; stroke-linecap: square"/>
   </g>
   <g id="line2d_21">
    <path d="M 188.763789 195.13607 
L 161.307625 193.617023 
L 161.307625 193.617023 
" clip-path="url(#pc3dad52378)" style="fill: none; stroke: #008000; stroke-width: 0.75; stroke-linecap: square"/>
   </g>
   <g id="line2d_22">
    <path d="M 188.763789 195.13607 
L 185.099158 211.411286 
L 185.099158 211.411286 
" clip-path="url(#pc3dad52378)" style="fill: none; stroke: #008000; stroke-width: 0.75; stroke-linecap: square"/>
   </g>
   <g id="line2d_23">
    <path d="M 270.857341 151.544832 
L 265.194979 139.443287 
L 265.194979 139.443287 
" clip-path="url(#pc3dad52378)" style="fill: none; stroke: #008000; stroke-width: 0.75; stroke-linecap: square"/>
   </g>
   <g id="line2d_24">
    <path d="M 270.857341 151.544832 
L 281.725885 174.375467 
L 281.725885 174.375467 
" clip-path="url(#pc3dad52378)" style="fill: none; stroke: #008000; stroke-width: 0.75; stroke-linecap: square"/>
   </g>
   <g id="line2d_25">
    <path d="M 265.194979 139.443287 
L 261.039239 142.826609 
L 261.039239 142.826609 
" clip-path="url(#pc3dad52378)" style="fill: none; stroke: #008000; stroke-width: 0.75; stroke-linecap: square"/>
   </g>
   <g id="line2d_26">
    <path d="M 265.194979 139.443287 
L 292.557438 135.906024 
L 298.964072 135.110103 
L 298.964072 135.110103 
" clip-path="url(#pc3dad52378)" style="fill: none; stroke: #008000; stroke-width: 0.75; stroke-linecap: square"/>
   </g>
   <g id="line2d_27">
    <path d="M 285.115986 108.395192 
L 275.503781 114.411942 
L 275.503781 114.411942 
" clip-path="url(#pc3dad52378)" style="fill: none; stroke: #008000; stroke-width: 0.75; stroke-linecap: square"/>
   </g>
   <g id="line2d_28">
    <path d="M 296.955656 123.070278 
L 298.964072 128.261653 
L 298.964072 128.261653 
" clip-path="url(#pc3dad52378)" style="fill: none; stroke: #008000; stroke-width: 0.75; stroke-linecap: square"/>
   </g>
   <g id="line2d_29">
    <path d="M 298.964072 128.261653 
L 298.964072 135.110103 
L 298.964072 135.110103 
" clip-path="url(#pc3dad52378)" style="fill: none; stroke: #008000; stroke-width: 0.75; stroke-linecap: square"/>
   </g>
   <g id="line2d_30">
    <path d="M 313.302857 142.070581 
L 301.738539 170.117597 
L 301.738539 170.117597 
" clip-path="url(#pc3dad52378)" style="fill: none; stroke: #008000; stroke-width: 0.75; stroke-linecap: square"/>
   </g>
   <g id="line2d_31">
    <path d="M 301.738539 170.117597 
L 306.339361 184.568223 
L 306.339361 184.568223 
" clip-path="url(#pc3dad52378)" style="fill: none; stroke: #008000; stroke-width: 0.75; stroke-linecap: square"/>
   </g>
   <g id="line2d_32">
    <path d="M 301.738539 170.117597 
L 281.725885 174.375467 
L 281.725885 174.375467 
" clip-path="url(#pc3dad52378)" style="fill: none; stroke: #008000; stroke-width: 0.75; stroke-linecap: square"/>
   </g>
   <g id="line2d_33">
    <path d="M 281.725885 174.375467 
L 278.689219 188.513348 
L 278.689219 188.513348 
" clip-path="url(#pc3dad52378)" style="fill: none; stroke: #008000; stroke-width: 0.75; stroke-linecap: square"/>
   </g>
   <g id="line2d_34">
    <path d="M 150.941287 172.583467 
L 161.307625 193.617023 
L 161.307625 193.617023 
" clip-path="url(#pc3dad52378)" style="fill: none; stroke: #008000; stroke-width: 0.75; stroke-linecap: square"/>
   </g>
   <g id="line2d_35">
    <path d="M 167.28931 139.821329 
L 165.839404 147.087072 
L 165.839404 147.087072 
" clip-path="url(#pc3dad52378)" style="fill: none; stroke: #008000; stroke-width: 0.75; stroke-linecap: square"/>
   </g>
   <g id="line2d_36">
    <path d="M 167.28931 139.821329 
L 153.235328 119.832045 
L 153.235328 119.832045 
" clip-path="url(#pc3dad52378)" style="fill: none; stroke: #008000; stroke-width: 0.75; stroke-linecap: square"/>
   </g>
   <g id="line2d_37">
    <path d="M 244.132294 176.370101 
L 248.26461 158.425825 
L 248.26461 158.425825 
" clip-path="url(#pc3dad52378)" style="fill: none; stroke: #008000; stroke-width: 0.75; stroke-linecap: square"/>
   </g>
   <g id="line2d_38">
    <path d="M 244.132294 176.370101 
L 254.509728 188.731273 
L 254.509728 188.731273 
" clip-path="url(#pc3dad52378)" style="fill: none; stroke: #008000; stroke-width: 0.75; stroke-linecap: square"/>
   </g>
   <g id="line2d_39">
    <path d="M 211.641733 191.710443 
L 227.327271 181.148955 
L 227.327271 181.148955 
" clip-path="url(#pc3dad52378)" style="fill: none; stroke: #008000; stroke-width: 0.75; stroke-linecap: square"/>
   </g>
   <g id="line2d_40">
    <path d="M 262.276536 203.733563 
L 261.987349 190.469153 
L 261.987349 190.469153 
" clip-path="url(#pc3dad52378)" style="fill: none; stroke: #008000; stroke-width: 0.75; stroke-linecap: square"/>
   </g>
   <g id="line2d_41">
    <path d="M 262.276536 203.733563 
L 257.329402 201.110438 
L 257.329402 201.110438 
" clip-path="url(#pc3dad52378)" style="fill: none; stroke: #008000; stroke-width: 0.75; stroke-linecap: square"/>
   </g>
   <g id="line2d_42">
    <path d="M 262.276536 203.733563 
L 267.512857 219.559088 
L 267.512857 219.559088 
" clip-path="url(#pc3dad52378)" style="fill: none; stroke: #008000; stroke-width: 0.75; stroke-linecap: square"/>
   </g>
   <g id="line2d_43">
    <path d="M 161.307625 193.617023 
L 150.941287 172.583467 
L 150.941287 172.583467 
" clip-path="url(#pc3dad52378)" style="fill: none; stroke: #008000; stroke-width: 0.75; stroke-linecap: square"/>
   </g>
   <g id="line2d_44">
    <path d="M 161.307625 193.617023 
L 155.268403 193.214139 
L 155.268403 193.214139 
" clip-path="url(#pc3dad52378)" style="fill: none; stroke: #008000; stroke-width: 0.75; stroke-linecap: square"/>
   </g>
   <g id="line2d_45">
    <path d="M 278.689219 188.513348 
L 287.057825 212.304952 
L 287.057825 212.304952 
" clip-path="url(#pc3dad52378)" style="fill: none; stroke: #008000; stroke-width: 0.75; stroke-linecap: square"/>
   </g>
   <g id="line2d_46">
    <path d="M 278.689219 188.513348 
L 261.987349 190.469153 
L 261.987349 190.469153 
" clip-path="url(#pc3dad52378)" style="fill: none; stroke: #008000; stroke-width: 0.75; stroke-linecap: square"/>
   </g>
   <g id="line2d_47">
    <path d="M 261.987349 190.469153 
L 254.509728 188.731273 
L 254.509728 188.731273 
" clip-path="url(#pc3dad52378)" style="fill: none; stroke: #008000; stroke-width: 0.75; stroke-linecap: square"/>
   </g>
   <g id="line2d_48">
    <path d="M 261.039239 142.826609 
L 275.503781 114.411942 
L 275.503781 114.411942 
" clip-path="url(#pc3dad52378)" style="fill: none; stroke: #008000; stroke-width: 0.75; stroke-linecap: square"/>
   </g>
   <g id="line2d_49">
    <path d="M 126.784811 171.678976 
L 143.315305 179.687084 
L 143.315305 179.687084 
" clip-path="url(#pc3dad52378)" style="fill: none; stroke: #008000; stroke-width: 0.75; stroke-linecap: square"/>
   </g>
   <g id="line2d_50">
    <path d="M 152.517362 225.815958 
L 155.268403 193.214139 
L 155.268403 193.214139 
" clip-path="url(#pc3dad52378)" style="fill: none; stroke: #008000; stroke-width: 0.75; stroke-linecap: square"/>
   </g>
   <g id="line2d_51">
    <path d="M 143.315305 179.687084 
L 155.268403 193.214139 
L 155.268403 193.214139 
" clip-path="url(#pc3dad52378)" style="fill: none; stroke: #008000; stroke-width: 0.75; stroke-linecap: square"/>
   </g>
   <g id="line2d_52">
    <path d="M 275.503781 114.411942 
L 252.956257 102.399817 
L 252.956257 102.399817 
" clip-path="url(#pc3dad52378)" style="fill: none; stroke: #008000; stroke-width: 0.75; stroke-linecap: square"/>
   </g>
   <g id="line2d_53">
    <path d="M 252.956257 102.399817 
L 244.508744 121.526477 
L 244.508744 121.526477 
" clip-path="url(#pc3dad52378)" style="fill: none; stroke: #008000; stroke-width: 0.75; stroke-linecap: square"/>
   </g>
   <g id="line2d_54">
    <path d="M 170.724619 83.532513 
L 184.526264 44.635203 
L 184.526264 44.635203 
" clip-path="url(#pc3dad52378)" style="fill: none; stroke: #008000; stroke-width: 0.75; stroke-linecap: square"/>
   </g>
   <g id="line2d_55">
    <path d="M 170.724619 83.532513 
L 191.863959 111.634608 
L 196.137845 117.360981 
L 196.137845 117.360981 
" clip-path="url(#pc3dad52378)" style="fill: none; stroke: #008000; stroke-width: 0.75; stroke-linecap: square"/>
   </g>
   <g id="line2d_56">
    <path d="M 170.724619 83.532513 
L 145.281771 97.974797 
L 141.675119 100.042726 
L 141.675119 100.042726 
" clip-path="url(#pc3dad52378)" style="fill: none; stroke: #008000; stroke-width: 0.75; stroke-linecap: square"/>
   </g>
   <g id="line2d_57">
    <path d="M 141.675119 100.042726 
L 153.235328 119.832045 
L 153.235328 119.832045 
" clip-path="url(#pc3dad52378)" style="fill: none; stroke: #008000; stroke-width: 0.75; stroke-linecap: square"/>
   </g>
   <g id="line2d_58">
    <path d="M 244.508744 121.526477 
L 221.151196 124.832546 
L 221.151196 124.832546 
" clip-path="url(#pc3dad52378)" style="fill: none; stroke: #008000; stroke-width: 0.75; stroke-linecap: square"/>
   </g>
   <g id="line2d_59">
    <path d="M 221.151196 124.832546 
L 209.004531 133.187336 
L 209.004531 133.187336 
" clip-path="url(#pc3dad52378)" style="fill: none; stroke: #008000; stroke-width: 0.75; stroke-linecap: square"/>
   </g>
   <g id="line2d_60">
    <path d="M 209.004531 133.187336 
L 196.137845 117.360981 
L 196.137845 117.360981 
" clip-path="url(#pc3dad52378)" style="fill: none; stroke: #008000; stroke-width: 0.75; stroke-linecap: square"/>
   </g>
   <g id="line2d_61">
    <path d="M 59.678556 108.015357 
L 60.386249 112.049493 
L 60.386249 112.049493 
" clip-path="url(#pc3dad52378)" style="fill: none; stroke: #008000; stroke-width: 0.75; stroke-linecap: square"/>
   </g>
   <g id="line2d_62">
    <path d="M 59.678556 108.015357 
L 58.217143 98.116624 
L 58.217143 98.116624 
" clip-path="url(#pc3dad52378)" style="fill: none; stroke: #008000; stroke-width: 0.75; stroke-linecap: square"/>
   </g>
   <g id="line2d_63">
    <path d="M 80.045056 70.527517 
L 93.995885 60.033624 
L 93.995885 60.033624 
" clip-path="url(#pc3dad52378)" style="fill: none; stroke: #008000; stroke-width: 0.75; stroke-linecap: square"/>
   </g>
   <g id="line2d_64">
    <path d="M 80.045056 70.527517 
L 79.531342 76.371428 
L 79.531342 76.371428 
" clip-path="url(#pc3dad52378)" style="fill: none; stroke: #008000; stroke-width: 0.75; stroke-linecap: square"/>
   </g>
   <g id="line2d_65">
    <path d="M 70.272572 79.610634 
L 67.863459 85.454878 
L 67.863459 85.454878 
" clip-path="url(#pc3dad52378)" style="fill: none; stroke: #008000; stroke-width: 0.75; stroke-linecap: square"/>
   </g>
   <g id="line2d_66">
    <path d="M 70.272572 79.610634 
L 79.531342 76.371428 
L 79.531342 76.371428 
" clip-path="url(#pc3dad52378)" style="fill: none; stroke: #008000; stroke-width: 0.75; stroke-linecap: square"/>
   </g>
   <g id="line2d_67">
    <path d="M 79.531342 76.371428 
L 80.216431 80.507616 
L 80.216431 80.507616 
" clip-path="url(#pc3dad52378)" style="fill: none; stroke: #008000; stroke-width: 0.75; stroke-linecap: square"/>
   </g>
   <g id="line2d_68">
    <path d="M 67.863459 85.454878 
L 58.217143 98.116624 
L 58.217143 98.116624 
" clip-path="url(#pc3dad52378)" style="fill: none; stroke: #008000; stroke-width: 0.75; stroke-linecap: square"/>
   </g>
   <g id="patch_6">
    <path d="M 7.2 260.941758 
L 7.2 7.2 
" style="fill: none; stroke: #ffffff; stroke-linejoin: miter; stroke-linecap: square"/>
   </g>
   <g id="patch_7">
    <path d="M 364.32 260.941758 
L 364.32 7.2 
" style="fill: none; stroke: #ffffff; stroke-linejoin: miter; stroke-linecap: square"/>
   </g>
   <g id="patch_8">
    <path d="M 7.2 260.941758 
L 364.32 260.941758 
" style="fill: none; stroke: #ffffff; stroke-linejoin: miter; stroke-linecap: square"/>
   </g>
   <g id="patch_9">
    <path d="M 7.2 7.2 
L 364.32 7.2 
" style="fill: none; stroke: #ffffff; stroke-linejoin: miter; stroke-linecap: square"/>
   </g>
   <g id="PathCollection_1">
    <defs>
     <path id="m7985235a83" d="M 0 1.118034 
C 0.296506 1.118034 0.580908 1.000231 0.790569 0.790569 
C 1.000231 0.580908 1.118034 0.296506 1.118034 0 
C 1.118034 -0.296506 1.000231 -0.580908 0.790569 -0.790569 
C 0.580908 -1.000231 0.296506 -1.118034 0 -1.118034 
C -0.296506 -1.118034 -0.580908 -1.000231 -0.790569 -0.790569 
C -1.000231 -0.580908 -1.118034 -0.296506 -1.118034 0 
C -1.118034 0.296506 -1.000231 0.580908 -0.790569 0.790569 
C -0.580908 1.000231 -0.296506 1.118034 0 1.118034 
z
" style="stroke: #ff0000"/>
    </defs>
    <g clip-path="url(#pc3dad52378)">
     <use xlink:href="#m7985235a83" x="81.963881" y="134.576015" style="fill: #ff0000; stroke: #ff0000"/>
    </g>
   </g>
   <g id="PathCollection_2">
    <g clip-path="url(#pc3dad52378)">
     <use xlink:href="#m7985235a83" x="77.534022" y="119.706625" style="fill: #ff0000; stroke: #ff0000"/>
    </g>
   </g>
   <g id="PathCollection_3">
    <g clip-path="url(#pc3dad52378)">
     <use xlink:href="#m7985235a83" x="69.805298" y="131.689585" style="fill: #ff0000; stroke: #ff0000"/>
    </g>
   </g>
   <g id="PathCollection_4">
    <g clip-path="url(#pc3dad52378)">
     <use xlink:href="#m7985235a83" x="74.897231" y="138.625847" style="fill: #ff0000; stroke: #ff0000"/>
    </g>
   </g>
   <g id="PathCollection_5">
    <g clip-path="url(#pc3dad52378)">
     <use xlink:href="#m7985235a83" x="110.744605" y="161.666601" style="fill: #ff0000; stroke: #ff0000"/>
    </g>
   </g>
   <g id="PathCollection_6">
    <g clip-path="url(#pc3dad52378)">
     <use xlink:href="#m7985235a83" x="110.744605" y="161.666601" style="fill: #ff0000; stroke: #ff0000"/>
    </g>
   </g>
   <g id="PathCollection_7">
    <g clip-path="url(#pc3dad52378)">
     <use xlink:href="#m7985235a83" x="86.928413" y="130.199703" style="fill: #ff0000; stroke: #ff0000"/>
    </g>
   </g>
   <g id="PathCollection_8">
    <g clip-path="url(#pc3dad52378)">
     <use xlink:href="#m7985235a83" x="89.692605" y="134.497115" style="fill: #ff0000; stroke: #ff0000"/>
    </g>
   </g>
   <g id="PathCollection_9">
    <g clip-path="url(#pc3dad52378)">
     <use xlink:href="#m7985235a83" x="226.39149" y="193.043373" style="fill: #ff0000; stroke: #ff0000"/>
    </g>
   </g>
   <g id="PathCollection_10">
    <g clip-path="url(#pc3dad52378)">
     <use xlink:href="#m7985235a83" x="239.08639" y="199.59455" style="fill: #ff0000; stroke: #ff0000"/>
    </g>
   </g>
   <g id="PathCollection_11">
    <g clip-path="url(#pc3dad52378)">
     <use xlink:href="#m7985235a83" x="147.710231" y="149.615455" style="fill: #ff0000; stroke: #ff0000"/>
    </g>
   </g>
   <g id="PathCollection_12">
    <g clip-path="url(#pc3dad52378)">
     <use xlink:href="#m7985235a83" x="182.51867" y="151.812543" style="fill: #ff0000; stroke: #ff0000"/>
    </g>
   </g>
   <g id="PathCollection_13">
    <g clip-path="url(#pc3dad52378)">
     <use xlink:href="#m7985235a83" x="197.588573" y="201.992268" style="fill: #ff0000; stroke: #ff0000"/>
    </g>
   </g>
   <g id="PathCollection_14">
    <g clip-path="url(#pc3dad52378)">
     <use xlink:href="#m7985235a83" x="206.17335" y="207.909355" style="fill: #ff0000; stroke: #ff0000"/>
    </g>
   </g>
   <g id="PathCollection_15">
    <g clip-path="url(#pc3dad52378)">
     <use xlink:href="#m7985235a83" x="193.512972" y="190.48479" style="fill: #ff0000; stroke: #ff0000"/>
    </g>
   </g>
   <g id="PathCollection_16">
    <g clip-path="url(#pc3dad52378)">
     <use xlink:href="#m7985235a83" x="188.763789" y="195.13607" style="fill: #ff0000; stroke: #ff0000"/>
    </g>
   </g>
   <g id="PathCollection_17">
    <g clip-path="url(#pc3dad52378)">
     <use xlink:href="#m7985235a83" x="270.857341" y="151.544832" style="fill: #ff0000; stroke: #ff0000"/>
    </g>
   </g>
   <g id="PathCollection_18">
    <g clip-path="url(#pc3dad52378)">
     <use xlink:href="#m7985235a83" x="265.194979" y="139.443287" style="fill: #ff0000; stroke: #ff0000"/>
    </g>
   </g>
   <g id="PathCollection_19">
    <g clip-path="url(#pc3dad52378)">
     <use xlink:href="#m7985235a83" x="285.115986" y="108.395192" style="fill: #ff0000; stroke: #ff0000"/>
    </g>
   </g>
   <g id="PathCollection_20">
    <g clip-path="url(#pc3dad52378)">
     <use xlink:href="#m7985235a83" x="296.955656" y="123.070278" style="fill: #ff0000; stroke: #ff0000"/>
    </g>
   </g>
   <g id="PathCollection_21">
    <g clip-path="url(#pc3dad52378)">
     <use xlink:href="#m7985235a83" x="298.964072" y="128.261653" style="fill: #ff0000; stroke: #ff0000"/>
    </g>
   </g>
   <g id="PathCollection_22">
    <g clip-path="url(#pc3dad52378)">
     <use xlink:href="#m7985235a83" x="298.964072" y="135.110103" style="fill: #ff0000; stroke: #ff0000"/>
    </g>
   </g>
   <g id="PathCollection_23">
    <g clip-path="url(#pc3dad52378)">
     <use xlink:href="#m7985235a83" x="313.302857" y="142.070581" style="fill: #ff0000; stroke: #ff0000"/>
    </g>
   </g>
   <g id="PathCollection_24">
    <g clip-path="url(#pc3dad52378)">
     <use xlink:href="#m7985235a83" x="301.738539" y="170.117597" style="fill: #ff0000; stroke: #ff0000"/>
    </g>
   </g>
   <g id="PathCollection_25">
    <g clip-path="url(#pc3dad52378)">
     <use xlink:href="#m7985235a83" x="306.339361" y="184.568223" style="fill: #ff0000; stroke: #ff0000"/>
    </g>
   </g>
   <g id="PathCollection_26">
    <g clip-path="url(#pc3dad52378)">
     <use xlink:href="#m7985235a83" x="281.725885" y="174.375467" style="fill: #ff0000; stroke: #ff0000"/>
    </g>
   </g>
   <g id="PathCollection_27">
    <g clip-path="url(#pc3dad52378)">
     <use xlink:href="#m7985235a83" x="150.941287" y="172.583467" style="fill: #ff0000; stroke: #ff0000"/>
    </g>
   </g>
   <g id="PathCollection_28">
    <g clip-path="url(#pc3dad52378)">
     <use xlink:href="#m7985235a83" x="167.28931" y="139.821329" style="fill: #ff0000; stroke: #ff0000"/>
    </g>
   </g>
   <g id="PathCollection_29">
    <g clip-path="url(#pc3dad52378)">
     <use xlink:href="#m7985235a83" x="244.132294" y="176.370101" style="fill: #ff0000; stroke: #ff0000"/>
    </g>
   </g>
   <g id="PathCollection_30">
    <g clip-path="url(#pc3dad52378)">
     <use xlink:href="#m7985235a83" x="248.26461" y="158.425825" style="fill: #ff0000; stroke: #ff0000"/>
    </g>
   </g>
   <g id="PathCollection_31">
    <g clip-path="url(#pc3dad52378)">
     <use xlink:href="#m7985235a83" x="211.641733" y="191.710443" style="fill: #ff0000; stroke: #ff0000"/>
    </g>
   </g>
   <g id="PathCollection_32">
    <defs>
     <path id="m79c08a9b88" d="M 0 1.118034 
C 0.296506 1.118034 0.580908 1.000231 0.790569 0.790569 
C 1.000231 0.580908 1.118034 0.296506 1.118034 0 
C 1.118034 -0.296506 1.000231 -0.580908 0.790569 -0.790569 
C 0.580908 -1.000231 0.296506 -1.118034 0 -1.118034 
C -0.296506 -1.118034 -0.580908 -1.000231 -0.790569 -0.790569 
C -1.000231 -0.580908 -1.118034 -0.296506 -1.118034 0 
C -1.118034 0.296506 -1.000231 0.580908 -0.790569 0.790569 
C -0.580908 1.000231 -0.296506 1.118034 0 1.118034 
z
" style="stroke: #ffff00"/>
    </defs>
    <g clip-path="url(#pc3dad52378)">
     <use xlink:href="#m79c08a9b88" x="262.276536" y="203.733563" style="fill: #ffff00; stroke: #ffff00"/>
    </g>
   </g>
   <g id="PathCollection_33">
    <g clip-path="url(#pc3dad52378)">
     <use xlink:href="#m7985235a83" x="161.307625" y="193.617023" style="fill: #ff0000; stroke: #ff0000"/>
    </g>
   </g>
   <g id="PathCollection_34">
    <g clip-path="url(#pc3dad52378)">
     <use xlink:href="#m7985235a83" x="278.689219" y="188.513348" style="fill: #ff0000; stroke: #ff0000"/>
    </g>
   </g>
   <g id="PathCollection_35">
    <g clip-path="url(#pc3dad52378)">
     <use xlink:href="#m7985235a83" x="287.057825" y="212.304952" style="fill: #ff0000; stroke: #ff0000"/>
    </g>
   </g>
   <g id="PathCollection_36">
    <g clip-path="url(#pc3dad52378)">
     <use xlink:href="#m7985235a83" x="261.987349" y="190.469153" style="fill: #ff0000; stroke: #ff0000"/>
    </g>
   </g>
   <g id="PathCollection_37">
    <g clip-path="url(#pc3dad52378)">
     <use xlink:href="#m7985235a83" x="257.329402" y="201.110438" style="fill: #ff0000; stroke: #ff0000"/>
    </g>
   </g>
   <g id="PathCollection_38">
    <g clip-path="url(#pc3dad52378)">
     <use xlink:href="#m7985235a83" x="252.135137" y="214.277983" style="fill: #ff0000; stroke: #ff0000"/>
    </g>
   </g>
   <g id="PathCollection_39">
    <g clip-path="url(#pc3dad52378)">
     <use xlink:href="#m7985235a83" x="254.509728" y="188.731273" style="fill: #ff0000; stroke: #ff0000"/>
    </g>
   </g>
   <g id="PathCollection_40">
    <g clip-path="url(#pc3dad52378)">
     <use xlink:href="#m7985235a83" x="150.941287" y="172.583467" style="fill: #ff0000; stroke: #ff0000"/>
    </g>
   </g>
   <g id="PathCollection_41">
    <g clip-path="url(#pc3dad52378)">
     <use xlink:href="#m7985235a83" x="261.039239" y="142.826609" style="fill: #ff0000; stroke: #ff0000"/>
    </g>
   </g>
   <g id="PathCollection_42">
    <g clip-path="url(#pc3dad52378)">
     <use xlink:href="#m7985235a83" x="126.784811" y="171.678976" style="fill: #ff0000; stroke: #ff0000"/>
    </g>
   </g>
   <g id="PathCollection_43">
    <g clip-path="url(#pc3dad52378)">
     <use xlink:href="#m7985235a83" x="152.517362" y="225.815958" style="fill: #ff0000; stroke: #ff0000"/>
    </g>
   </g>
   <g id="PathCollection_44">
    <g clip-path="url(#pc3dad52378)">
     <use xlink:href="#m7985235a83" x="185.099158" y="211.411286" style="fill: #ff0000; stroke: #ff0000"/>
    </g>
   </g>
   <g id="PathCollection_45">
    <g clip-path="url(#pc3dad52378)">
     <use xlink:href="#m7985235a83" x="143.315305" y="179.687084" style="fill: #ff0000; stroke: #ff0000"/>
    </g>
   </g>
   <g id="PathCollection_46">
    <g clip-path="url(#pc3dad52378)">
     <use xlink:href="#m7985235a83" x="227.327271" y="181.148955" style="fill: #ff0000; stroke: #ff0000"/>
    </g>
   </g>
   <g id="PathCollection_47">
    <g clip-path="url(#pc3dad52378)">
     <use xlink:href="#m7985235a83" x="275.503781" y="114.411942" style="fill: #ff0000; stroke: #ff0000"/>
    </g>
   </g>
   <g id="PathCollection_48">
    <g clip-path="url(#pc3dad52378)">
     <use xlink:href="#m7985235a83" x="252.956257" y="102.399817" style="fill: #ff0000; stroke: #ff0000"/>
    </g>
   </g>
   <g id="PathCollection_49">
    <g clip-path="url(#pc3dad52378)">
     <use xlink:href="#m79c08a9b88" x="165.839404" y="147.087072" style="fill: #ffff00; stroke: #ffff00"/>
    </g>
   </g>
   <g id="PathCollection_50">
    <g clip-path="url(#pc3dad52378)">
     <use xlink:href="#m7985235a83" x="170.724619" y="83.532513" style="fill: #ff0000; stroke: #ff0000"/>
    </g>
   </g>
   <g id="PathCollection_51">
    <g clip-path="url(#pc3dad52378)">
     <use xlink:href="#m7985235a83" x="141.675119" y="100.042726" style="fill: #ff0000; stroke: #ff0000"/>
    </g>
   </g>
   <g id="PathCollection_52">
    <g clip-path="url(#pc3dad52378)">
     <use xlink:href="#m7985235a83" x="153.235328" y="119.832045" style="fill: #ff0000; stroke: #ff0000"/>
    </g>
   </g>
   <g id="PathCollection_53">
    <g clip-path="url(#pc3dad52378)">
     <use xlink:href="#m7985235a83" x="244.508744" y="121.526477" style="fill: #ff0000; stroke: #ff0000"/>
    </g>
   </g>
   <g id="PathCollection_54">
    <g clip-path="url(#pc3dad52378)">
     <use xlink:href="#m7985235a83" x="221.151196" y="124.832546" style="fill: #ff0000; stroke: #ff0000"/>
    </g>
   </g>
   <g id="PathCollection_55">
    <g clip-path="url(#pc3dad52378)">
     <use xlink:href="#m7985235a83" x="209.004531" y="133.187336" style="fill: #ff0000; stroke: #ff0000"/>
    </g>
   </g>
   <g id="PathCollection_56">
    <g clip-path="url(#pc3dad52378)">
     <use xlink:href="#m7985235a83" x="196.137845" y="117.360981" style="fill: #ff0000; stroke: #ff0000"/>
    </g>
   </g>
   <g id="PathCollection_57">
    <g clip-path="url(#pc3dad52378)">
     <use xlink:href="#m7985235a83" x="155.268403" y="193.214139" style="fill: #ff0000; stroke: #ff0000"/>
    </g>
   </g>
   <g id="PathCollection_58">
    <g clip-path="url(#pc3dad52378)">
     <use xlink:href="#m7985235a83" x="267.512857" y="219.559088" style="fill: #ff0000; stroke: #ff0000"/>
    </g>
   </g>
   <g id="PathCollection_59">
    <g clip-path="url(#pc3dad52378)">
     <use xlink:href="#m7985235a83" x="59.678556" y="108.015357" style="fill: #ff0000; stroke: #ff0000"/>
    </g>
   </g>
   <g id="PathCollection_60">
    <g clip-path="url(#pc3dad52378)">
     <use xlink:href="#m7985235a83" x="60.386249" y="112.049493" style="fill: #ff0000; stroke: #ff0000"/>
    </g>
   </g>
   <g id="PathCollection_61">
    <g clip-path="url(#pc3dad52378)">
     <use xlink:href="#m7985235a83" x="184.526264" y="44.635203" style="fill: #ff0000; stroke: #ff0000"/>
    </g>
   </g>
   <g id="PathCollection_62">
    <g clip-path="url(#pc3dad52378)">
     <use xlink:href="#m7985235a83" x="80.045056" y="70.527517" style="fill: #ff0000; stroke: #ff0000"/>
    </g>
   </g>
   <g id="PathCollection_63">
    <g clip-path="url(#pc3dad52378)">
     <use xlink:href="#m7985235a83" x="93.995885" y="60.033624" style="fill: #ff0000; stroke: #ff0000"/>
    </g>
   </g>
   <g id="PathCollection_64">
    <g clip-path="url(#pc3dad52378)">
     <use xlink:href="#m7985235a83" x="70.272572" y="79.610634" style="fill: #ff0000; stroke: #ff0000"/>
    </g>
   </g>
   <g id="PathCollection_65">
    <g clip-path="url(#pc3dad52378)">
     <use xlink:href="#m7985235a83" x="79.531342" y="76.371428" style="fill: #ff0000; stroke: #ff0000"/>
    </g>
   </g>
   <g id="PathCollection_66">
    <g clip-path="url(#pc3dad52378)">
     <use xlink:href="#m7985235a83" x="80.216431" y="80.507616" style="fill: #ff0000; stroke: #ff0000"/>
    </g>
   </g>
   <g id="PathCollection_67">
    <g clip-path="url(#pc3dad52378)">
     <use xlink:href="#m7985235a83" x="67.863459" y="85.454878" style="fill: #ff0000; stroke: #ff0000"/>
    </g>
   </g>
   <g id="PathCollection_68">
    <g clip-path="url(#pc3dad52378)">
     <use xlink:href="#m7985235a83" x="58.217143" y="98.116624" style="fill: #ff0000; stroke: #ff0000"/>
    </g>
   </g>
  </g>
 </g>
 <defs>
  <clipPath id="pc3dad52378">
   <rect x="7.2" y="7.2" width="357.12" height="253.741758"/>
  </clipPath>
 </defs>
</svg>
