<?xml version="1.0" encoding="utf-8" standalone="no"?>
<!DOCTYPE svg PUBLIC "-//W3C//DTD SVG 1.1//EN"
  "http://www.w3.org/Graphics/SVG/1.1/DTD/svg11.dtd">
<svg xmlns:xlink="http://www.w3.org/1999/xlink" width="274.01322pt" height="280.512pt" viewBox="0 0 274.01322 280.512" xmlns="http://www.w3.org/2000/svg" version="1.1">
 <metadata>
  <rdf:RDF xmlns:dc="http://purl.org/dc/elements/1.1/" xmlns:cc="http://creativecommons.org/ns#" xmlns:rdf="http://www.w3.org/1999/02/22-rdf-syntax-ns#">
   <cc:Work>
    <dc:type rdf:resource="http://purl.org/dc/dcmitype/StillImage"/>
    <dc:date>2025-12-17T16:18:59.400721</dc:date>
    <dc:format>image/svg+xml</dc:format>
    <dc:creator>
     <cc:Agent>
      <dc:title>Matplotlib v3.10.6, https://matplotlib.org/</dc:title>
     </cc:Agent>
    </dc:creator>
   </cc:Work>
  </rdf:RDF>
 </metadata>
 <defs>
  <style type="text/css">*{stroke-linejoin: round; stroke-linecap: butt}</style>
 </defs>
 <g id="figure_1">
  <g id="patch_1">
   <path d="M -0 280.512 
L 274.01322 280.512 
L 274.01322 0 
L -0 0 
z
" style="fill: #ffffff"/>
  </g>
  <g id="axes_1">
   <g id="patch_2">
    <path d="M 7.2 273.312 
L 266.81322 273.312 
L 266.81322 7.2 
L 7.2 7.2 
z
" clip-path="url(#p76f3f9c287)" style="fill: #add8e6; stroke: #ffffff; stroke-linejoin: miter"/>
   </g>
   <g id="patch_3">
    <path d="M 7.2 273.312 
L 266.81322 273.312 
L 266.81322 7.2 
L 7.2 7.2 
z
" clip-path="url(#p76f3f9c287)" style="fill: #add8e6; stroke: #ffffff; stroke-linejoin: miter"/>
   </g>
   <g id="patch_4">
    <path d="M 7.2 273.312 
L 7.2 7.200006 
L 266.81323 7.200006 
L 266.81323 273.312 
z
" clip-path="url(#p76f3f9c287)" style="fill: #d3d3d3"/>
   </g>
   <g id="patch_5">
    <path d="M 130.844846 101.009795 
L 129.930167 117.043329 
L 122.314882 133.158763 
L 114.263478 139.611471 
L 105.357616 141.200924 
L 101.625684 137.265368 
L 96.203667 123.502938 
L 97.34864 107.36062 
L 94.192272 94.013482 
L 98.614914 80.693596 
L 98.178788 73.416116 
L 103.00694 65.332642 
L 102.019713 61.035438 
L 106.902607 47.067355 
L 104.358076 43.769146 
L 101.08656 44.940746 
L 93.429013 54.545353 
L 91.235746 53.372136 
L 92.453598 49.063335 
L 95.809644 42.118228 
L 100.117139 40.439849 
L 100.905026 35.317774 
L 114.4936 11.746407 
L 114.602581 19.124153 
L 119.043373 13.295676 
L 123.84157 12.668956 
L 123.550877 16.173456 
L 120.273201 19.107015 
L 122.242163 21.594254 
L 129.742472 11.119148 
L 142.961652 10.047336 
L 145.210617 7.200006 
L 151.223233 7.200006 
L 157.325793 8.573508 
L 163.050817 13.913569 
L 165.431785 7.47399 
L 167.945859 9.838053 
L 181.565044 10.186914 
L 180.06106 7.200006 
L 228.871004 7.200006 
L 228.292732 8.826309 
L 229.726645 7.200006 
L 232.91222 7.200006 
L 233.042531 7.351696 
L 229.595132 8.791322 
L 233.902634 7.927591 
L 230.273682 10.918864 
L 234.187504 8.590768 
L 239.427803 10.570149 
L 241.372468 8.739345 
L 241.50577 11.563653 
L 249.103071 10.779579 
L 255.767084 22.702255 
L 257.97215 21.541934 
L 259.068872 28.508028 
L 259.377868 26.868339 
L 261.61341 29.801554 
L 265.405894 28.508028 
L 263.879206 33.01346 
L 266.81323 35.649718 
L 266.81323 35.893252 
L 265.042322 37.439014 
L 266.81323 39.043006 
L 266.81323 44.931404 
L 264.436467 45.897399 
L 266.81323 49.843363 
L 266.81323 50.588846 
L 264.745487 56.685693 
L 253.955697 52.27458 
L 252.525854 48.782069 
L 246.328093 52.853245 
L 247.230954 46.78555 
L 241.996466 47.800972 
L 246.013262 41.476307 
L 241.614751 43.085105 
L 242.487162 41.57884 
L 239.361238 40.302673 
L 237.791963 35.489569 
L 238.706985 32.65212 
L 229.72841 32.170128 
L 237.265153 41.184915 
L 239.094682 51.934226 
L 228.643996 68.388102 
L 228.63186 90.659471 
L 219.253598 98.863056 
L 214.025264 100.545836 
L 209.336231 77.272444 
L 205.79216 70.309965 
L 202.308659 68.902752 
L 192.61542 73.315397 
L 193.887676 74.131148 
L 190.955282 79.512043 
L 186.617673 82.970315 
L 180.632063 79.101275 
L 182.655613 71.186066 
L 188.30809 69.231558 
L 189.525611 63.176857 
L 194.002823 60.730733 
L 194.644952 45.769073 
L 191.227845 40.165693 
L 192.282286 38.056687 
L 195.444656 39.197222 
L 192.790966 31.662245 
L 177.093986 24.605141 
L 172.465512 19.514498 
L 169.096986 19.739986 
L 162.832843 15.382616 
L 157.864911 16.338558 
L 158.919205 17.858013 
L 155.344842 23.982491 
L 159.567476 27.619411 
L 149.237943 32.075563 
L 149.031946 40.55138 
L 146.130163 47.382873 
L 146.856975 40.439849 
L 144.264028 47.058676 
L 143.349349 44.786775 
L 145.524308 33.632923 
L 139.599109 41.784371 
L 134.207377 43.033863 
L 133.843805 48.125242 
L 130.063444 49.56602 
L 130.008868 59.824145 
L 124.39899 68.742492 
L 126.458643 76.709924 
L 123.926425 81.765176 
L 128.1489 93.522836 
L 130.348315 93.040292 
L 128.65807 94.271089 
L 130.735852 100.852355 
z
" clip-path="url(#p76f3f9c287)" style="fill: #add8e6"/>
   </g>
   <g id="patch_6">
    <path d="M 230.613129 116.501048 
L 235.168896 112.595206 
L 241.845217 110.725419 
L 264.509039 114.577836 
L 256.900068 112.200191 
L 262.412929 107.195788 
L 266.81323 106.504133 
L 266.81323 125.111564 
L 260.304855 129.075402 
L 237.307421 138.580812 
L 229.092448 145.290219 
L 222.064691 144.901615 
L 212.904588 148.474421 
L 208.251829 145.322435 
L 209.778517 147.327437 
L 205.53774 145.815779 
L 202.902353 147.278831 
L 199.976285 146.31698 
L 207.761121 143.995468 
L 204.901606 142.610835 
L 202.223791 144.343581 
L 191.203707 138.727059 
L 197.377172 130.144003 
L 198.703845 122.479548 
L 203.7202 118.865282 
L 205.295298 111.631823 
L 207.409698 110.140514 
L 209.384654 110.667925 
L 209.954394 115.482353 
L 213.946562 115.901494 
L 214.316288 119.17711 
L 212.504742 121.357487 
L 200.352667 121.618048 
L 198.601018 128.68388 
L 203.071917 131.016352 
L 209.390808 129.548617 
L 212.14117 133.109569 
L 214.001139 127.49176 
L 226.190493 121.1446 
L 226.214618 123.044373 
L 230.588832 116.49292 
z
" clip-path="url(#p76f3f9c287)" style="fill: #add8e6"/>
   </g>
   <g id="patch_7">
    <path d="M 230.558553 12.878141 
L 230.558553 13.060993 
L 229.468009 15.556617 
L 232.060944 15.321984 
L 231.764109 17.015931 
L 226.063197 24.224726 
L 223.1977 23.005047 
L 228.292732 18.595307 
L 221.646715 23.031183 
L 211.184063 17.015931 
L 196.195765 12.382075 
L 197.334744 10.291531 
L 199.27942 11.763643 
L 205.416599 9.471882 
L 206.561572 14.122336 
L 210.166214 13.939607 
L 211.323336 15.956353 
L 210.16022 12.66035 
L 212.098902 10.909988 
L 216.551658 9.489363 
L 219.429316 14.322278 
L 224.342673 9.759523 
L 227.650444 17.675431 
z
" clip-path="url(#p76f3f9c287)" style="fill: #d3d3d3"/>
   </g>
   <g id="matplotlib.axis_1"/>
   <g id="matplotlib.axis_2"/>
   <g id="LineCollection_1">
    <path d="M 130.844846 101.009798 
L 129.930167 117.043332 
L 122.314881 133.158766 
L 114.263472 139.611466 
L 105.357618 141.20092 
L 101.625686 137.265367 
L 96.203668 123.502942 
L 97.34864 107.360623 
L 94.192271 94.013487 
L 98.614914 80.693601 
L 98.17879 73.41612 
L 103.00694 65.332651 
L 102.019712 61.03545 
L 106.902606 47.067356 
L 104.358077 43.769154 
L 101.086562 44.940747 
L 93.429012 54.545357 
L 91.235745 53.372142 
L 92.453598 49.063335 
L 95.809642 42.118217 
L 100.117138 40.439854 
L 100.905024 35.317771 
L 114.493598 11.746411 
L 114.602587 19.124159 
L 119.043367 13.295679 
L 123.841566 12.668965 
L 123.550872 16.173466 
L 120.273201 19.10701 
L 122.242166 21.594252 
L 129.742472 11.119139 
L 142.961646 10.047325 
L 145.210622 7.2 
" clip-path="url(#p76f3f9c287)" style="fill: none; stroke: #000000; stroke-width: 0.6"/>
    <path d="M 151.223239 7.2 
L 157.325792 8.573519 
L 163.050817 13.913567 
L 165.431779 7.473997 
L 167.945859 9.838055 
L 181.565049 10.186904 
L 180.061056 7.2 
" clip-path="url(#p76f3f9c287)" style="fill: none; stroke: #000000; stroke-width: 0.6"/>
    <path d="M 228.871012 7.2 
L 228.292743 8.826308 
L 229.726656 7.2 
" clip-path="url(#p76f3f9c287)" style="fill: none; stroke: #000000; stroke-width: 0.6"/>
    <path d="M 232.91222 7.2 
L 233.042521 7.351705 
L 229.595126 8.791327 
L 233.902622 7.927601 
L 230.273689 10.918853 
L 234.187493 8.590772 
L 239.427806 10.57015 
L 241.372477 8.739334 
L 241.505761 11.56366 
L 249.103075 10.779572 
L 255.767074 22.702255 
L 257.972155 21.541925 
L 259.068872 28.508038 
L 259.37787 26.868345 
L 261.613402 29.801551 
L 265.405903 28.508038 
L 263.879218 33.013453 
L 266.81322 35.649723 
" clip-path="url(#p76f3f9c287)" style="fill: none; stroke: #000000; stroke-width: 0.6"/>
    <path d="M 266.81322 35.893257 
L 265.042327 37.439009 
L 266.81322 39.043015 
" clip-path="url(#p76f3f9c287)" style="fill: none; stroke: #000000; stroke-width: 0.6"/>
    <path d="M 266.81322 44.931407 
L 264.436479 45.897403 
L 266.81322 49.843356 
" clip-path="url(#p76f3f9c287)" style="fill: none; stroke: #000000; stroke-width: 0.6"/>
    <path d="M 266.81322 50.588847 
L 264.745476 56.685697 
L 253.955686 52.27459 
L 252.525844 48.78208 
L 246.328087 52.853244 
L 247.230952 46.78555 
L 241.996463 47.800967 
L 246.013265 41.476318 
L 241.61475 43.085092 
L 242.487165 41.57885 
L 239.361247 40.302664 
L 237.791965 35.489565 
L 238.706978 32.652111 
L 229.728409 32.170128 
L 237.265155 41.184918 
L 239.094681 51.934227 
L 228.644005 68.388108 
L 228.631859 90.659476 
L 219.253606 98.863055 
L 214.025273 100.545832 
L 209.33623 77.272449 
L 205.792159 70.30997 
L 202.308656 68.902751 
L 192.615416 73.315402 
L 193.887681 74.131151 
L 190.955282 79.512037 
L 186.617668 82.970321 
L 180.632066 79.101277 
L 182.655609 71.186061 
L 188.308086 69.231563 
L 189.525606 63.17686 
L 194.002827 60.730721 
L 194.64495 45.769081 
L 191.227839 40.165699 
L 192.282291 38.056692 
L 195.444649 39.197225 
L 192.790964 31.662236 
L 177.093985 24.605147 
L 172.46551 19.514493 
L 169.096987 19.739986 
L 162.832838 15.38262 
L 157.864915 16.338558 
L 158.919201 17.858008 
L 155.344846 23.982481 
L 159.567481 27.619409 
L 149.237942 32.075559 
L 149.031943 40.551387 
L 146.130161 47.382869 
L 146.856979 40.439854 
L 144.264029 47.058682 
L 143.349349 44.78677 
L 145.524313 33.632925 
L 139.599113 41.784365 
L 134.207379 43.033871 
L 133.843804 48.125254 
L 130.06345 49.566017 
L 130.008872 59.824136 
L 124.398993 68.742491 
L 126.458644 76.709928 
L 123.926428 81.765179 
L 128.148896 93.522841 
L 130.34832 93.040289 
L 128.658068 94.271092 
L 130.735857 100.852349 
L 130.844846 101.009798 
" clip-path="url(#p76f3f9c287)" style="fill: none; stroke: #000000; stroke-width: 0.6"/>
    <path d="M 230.613137 116.501043 
L 235.168897 112.595206 
L 241.845209 110.725414 
L 264.509027 114.577839 
L 256.900065 112.200187 
L 262.412935 107.195782 
L 266.81322 106.504137 
" clip-path="url(#p76f3f9c287)" style="fill: none; stroke: #000000; stroke-width: 0.6"/>
    <path d="M 266.81322 125.111566 
L 260.304863 129.0754 
L 237.30742 138.58081 
L 229.092443 145.290217 
L 222.064702 144.901618 
L 212.904595 148.474419 
L 208.251827 145.32243 
L 209.778511 147.327438 
L 205.53774 145.815775 
L 202.902358 147.278836 
L 199.976282 146.316984 
L 207.761125 143.995466 
L 204.901607 142.610836 
L 202.223794 144.343576 
L 191.203711 138.727062 
L 197.377174 130.143999 
L 198.70385 122.47955 
L 203.720195 118.865288 
L 205.2953 111.631819 
L 207.409696 110.140517 
L 209.384652 110.667928 
L 209.954392 115.482355 
L 213.946568 115.901497 
L 214.3163 119.177109 
L 212.504746 121.357487 
L 200.35267 121.618043 
L 198.601018 128.683875 
L 203.071915 131.016347 
L 209.390808 129.548616 
L 212.14117 133.109574 
L 214.001146 127.491762 
L 226.190494 121.144606 
L 226.214622 123.044374 
L 230.588843 116.492921 
L 230.613137 116.501043 
" clip-path="url(#p76f3f9c287)" style="fill: none; stroke: #000000; stroke-width: 0.6"/>
    <path d="M 230.558559 12.878134 
L 230.558559 13.060987 
L 229.467999 15.556617 
L 232.06095 15.321991 
L 231.764099 17.01594 
L 226.063201 24.224734 
L 223.197694 23.005051 
L 228.292743 18.595318 
L 221.646715 23.031192 
L 211.184059 17.01594 
L 196.195762 12.382065 
L 197.334743 10.291521 
L 199.279415 11.763633 
L 205.416603 9.471892 
L 206.561575 14.122347 
L 210.166214 13.939606 
L 211.323333 15.956341 
L 210.160224 12.660359 
L 212.098905 10.909998 
L 216.551666 9.489376 
L 219.429321 14.322266 
L 224.342665 9.759513 
L 227.650454 17.675419 
L 230.558559 12.878134 
" clip-path="url(#p76f3f9c287)" style="fill: none; stroke: #000000; stroke-width: 0.6"/>
   </g>
   <g id="LineCollection_2">
    <path d="M 208.803097 114.372308 
L 207.669108 115.258863 
L 206.535118 116.144543 
L 205.401128 117.03025 
L 204.267305 117.915082 
L 203.133315 118.799718 
L 201.999326 119.683931 
L 200.865336 120.567722 
L 199.731347 121.451093 
L 199.388571 121.717935 
L 197.595319 129.230463 
L 199.703558 134.696502 
L 200.888465 135.441893 
L 202.073539 136.186988 
L 203.258445 136.931564 
L 204.443352 137.676291 
L 205.628425 138.420276 
L 206.813332 139.16419 
L 207.888251 139.83874 
L 213.807294 140.082027 
L 214.992867 139.34026 
L 216.178439 138.5982 
L 217.364012 137.85607 
L 218.549751 137.113423 
L 219.735323 136.370482 
L 220.920895 135.627469 
L 222.106468 134.883938 
L 223.29204 134.140112 
L 224.477613 133.396214 
L 225.663185 132.651797 
L 226.848924 131.907083 
L 228.034496 131.162296 
L 229.220069 130.416988 
L 230.405641 129.671382 
L 231.591214 128.925702 
L 232.776786 128.179501 
L 233.962359 127.433 
L 235.148097 126.686424 
L 236.33367 125.939325 
L 237.519242 125.191926 
L 238.704815 124.444451 
L 239.45809 123.969262 
L 240.752485 123.709261 
L 242.046715 123.449224 
L 243.34111 123.18915 
L 244.635506 122.928815 
L 245.929901 122.668893 
L 247.22413 122.408485 
L 248.518526 122.148491 
L 249.812921 121.88801 
L 251.107317 121.627942 
L 252.401546 121.367388 
L 253.695941 121.107023 
L 254.990337 120.84662 
L 256.284732 120.586182 
L 257.578961 120.325707 
L 258.873357 120.065195 
L 260.167752 119.804647 
L 261.462148 119.544062 
L 262.756377 119.28344 
L 264.050772 119.022557 
L 264.587899 118.914408 
L 265.810412 118.282511 
L 266.81322 117.76383 
" clip-path="url(#p76f3f9c287)" style="fill: none; stroke: #ffffff; stroke-width: 0.6"/>
    <path d="M 189.903815 7.2 
L 191.506719 8.861288 
L 188.223057 14.678813 
L 189.418281 15.443246 
L 190.613338 16.207583 
L 191.808561 16.971584 
L 193.003618 17.735013 
L 194.198842 18.498584 
L 195.394065 19.261346 
L 196.589122 20.024012 
L 197.784345 20.786346 
L 198.979402 21.548109 
L 200.174626 22.309779 
L 201.369849 23.071117 
L 202.564906 23.832124 
L 203.76013 24.5928 
L 204.955187 25.352909 
L 206.15041 26.112926 
L 207.345634 26.872613 
L 208.540691 27.631735 
L 209.735914 28.391002 
L 210.930971 29.149467 
L 211.238637 29.344597 
L 211.535821 31.15751 
L 211.832838 32.968082 
L 212.130021 34.777266 
L 212.427039 36.584122 
L 212.724222 38.389365 
L 213.021239 40.192763 
L 213.318423 41.994323 
L 213.61544 43.794049 
L 213.912623 45.591949 
L 214.20964 47.388026 
L 214.506824 49.182287 
L 214.804007 50.974737 
L 215.101024 52.765149 
L 215.398208 54.554228 
L 215.695225 56.341046 
L 215.992408 58.126541 
L 216.289426 59.909788 
L 216.586609 61.691721 
L 216.883626 63.471417 
L 217.18081 65.249811 
L 217.477827 67.025978 
L 217.77501 68.800621 
L 218.072194 70.573513 
L 218.369211 72.344659 
L 218.666394 74.114064 
L 218.963411 75.881734 
L 219.260595 77.647674 
L 219.557612 79.411888 
L 219.854795 81.174383 
L 220.151813 82.934934 
L 220.241167 83.463822 
L 219.646135 85.072285 
L 219.051269 86.679322 
L 218.456236 88.28471 
L 217.861203 89.888681 
L 217.266337 91.491239 
L 216.671305 93.092617 
L 216.076272 94.69259 
L 215.481406 96.290934 
L 214.886373 97.88788 
L 214.291507 99.483661 
L 213.904303 100.521026 
" clip-path="url(#p76f3f9c287)" style="fill: none; stroke: #ffffff; stroke-width: 0.6"/>
    <path d="M 213.910294 100.603863 
L 213.586154 102.337106 
L 213.262181 104.068486 
L 212.938041 105.798235 
L 212.613901 107.526583 
L 212.289928 109.253083 
L 211.965788 110.977967 
L 211.711202 112.331794 
L 208.906096 114.248978 
" clip-path="url(#p76f3f9c287)" style="fill: none; stroke: #ffffff; stroke-width: 0.6"/>
   </g>
   <g id="LineCollection_3">
    <path d="M 17.197287 177.634701 
L 15.531329 185.056033 
L 15.969783 186.667689 
L 16.408237 188.278009 
L 16.846691 189.886995 
L 17.284978 191.494436 
L 17.723432 193.100768 
L 18.161886 194.705779 
L 18.596845 196.296708 
L 19.659784 197.288787 
L 20.722722 198.280364 
L 21.785494 199.271654 
L 22.848433 200.262012 
L 23.911371 201.252301 
L 24.97431 202.242091 
L 26.037248 203.230951 
L 27.100187 204.219745 
L 28.162959 205.207826 
L 29.225897 206.195412 
L 30.288836 207.182718 
L 31.351774 208.169315 
L 31.428317 208.240489 
L 31.909368 209.812333 
L 32.390419 211.383142 
L 32.87147 212.952489 
L 33.352355 214.520808 
L 33.833406 216.087888 
L 34.314457 217.65373 
L 34.795509 219.21834 
L 34.972388 219.793048 
L 39.061739 217.612641 
L 40.272936 218.249642 
L 41.484134 218.88644 
L 42.695498 219.522819 
L 43.906695 220.159209 
L 45.117893 220.795396 
L 45.84704 221.178249 
L 45.374475 222.744149 
L 44.901744 224.308821 
L 44.429179 225.87248 
L 43.956614 227.434919 
L 43.484049 228.995926 
L 43.011318 230.555719 
L 42.538753 232.114513 
L 42.066188 233.672099 
L 41.593623 235.228268 
L 41.120891 236.783236 
L 40.673286 238.255248 
L 41.768505 239.166903 
L 42.863558 240.077936 
L 43.958777 240.98877 
L 45.05383 241.899194 
L 46.149049 242.808998 
L 47.244102 243.718817 
L 48.339322 244.627805 
L 49.434375 245.536597 
L 49.639541 245.7067 
L 49.433543 247.596077 
L 51.784221 247.2121 
L 52.868791 248.139973 
L 53.953194 249.067213 
L 55.037764 249.994452 
L 56.122334 250.920849 
L 57.206904 251.847035 
L 58.291308 252.772802 
L 58.8905 253.283992 
L 60.78076 260.749298 
L 59.054068 264.696483 
L 61.992457 270.671531 
L 64.2824 272.143541 
L 64.53682 269.661799 
L 67.905343 273.220367 
L 67.884533 273.312 
" clip-path="url(#p76f3f9c287)" style="fill: none; stroke: #ffffff; stroke-width: 0.3"/>
    <path d="M 17.197287 177.634701 
L 15.531329 185.056033 
L 15.969783 186.667689 
L 16.408237 188.278009 
L 16.846691 189.886995 
L 17.284978 191.494436 
L 17.723432 193.100768 
L 18.161886 194.705779 
L 18.596845 196.296708 
L 19.659784 197.288787 
L 20.722722 198.280364 
L 21.785494 199.271654 
L 22.848433 200.262012 
L 23.911371 201.252301 
L 24.97431 202.242091 
L 26.037248 203.230951 
L 27.100187 204.219745 
L 28.162959 205.207826 
L 29.225897 206.195412 
L 30.288836 207.182718 
L 31.351774 208.169315 
L 31.428317 208.240489 
L 31.909368 209.812333 
L 32.390419 211.383142 
L 32.87147 212.952489 
L 33.352355 214.520808 
L 33.833406 216.087888 
L 34.314457 217.65373 
L 34.795509 219.21834 
L 34.972388 219.793048 
L 39.061739 217.612641 
L 40.273436 218.248573 
L 41.484966 218.883873 
L 42.696662 219.519398 
L 43.908193 220.154293 
L 45.119889 220.789413 
L 45.84704 221.170345 
L 45.374642 222.736464 
L 44.902243 224.301355 
L 44.429845 225.865021 
L 43.95728 227.427465 
L 43.484881 228.988478 
L 43.012482 230.54849 
L 42.540084 232.107289 
L 42.067685 233.664881 
L 41.595286 235.221268 
L 41.122888 236.776453 
L 40.673286 238.255248 
L 41.768505 239.166903 
L 42.863558 240.077936 
L 43.958777 240.98877 
L 45.05383 241.899194 
L 46.149049 242.808998 
L 47.244102 243.718817 
L 48.339322 244.627805 
L 49.434375 245.536597 
L 49.639541 245.7067 
L 49.433543 247.596077 
L 51.784221 247.2121 
L 52.868791 248.139973 
L 53.953194 249.067213 
L 55.037764 249.994452 
L 56.122334 250.920849 
L 57.206904 251.847035 
L 58.291308 252.772802 
L 58.8905 253.283992 
L 60.78076 260.749298 
L 59.054068 264.696483 
L 61.992457 270.671531 
L 64.288557 272.143541 
L 64.542977 269.661799 
L 67.905343 273.220367 
L 67.884533 273.312 
" clip-path="url(#p76f3f9c287)" style="fill: none; stroke: #ffffff; stroke-width: 0.3"/>
    <path d="M 255.427792 170.000949 
L 252.029151 171.461322 
L 253.555836 179.478632 
L 253.072455 181.072695 
L 252.589074 182.665445 
L 252.105693 184.256886 
L 251.622313 185.847239 
L 251.138932 187.436072 
L 250.655551 189.023606 
L 250.172004 190.609846 
L 249.688623 192.194795 
L 249.205242 193.778456 
L 248.721862 195.36105 
L 248.238481 196.942147 
L 247.7551 198.521967 
L 247.564077 199.145934 
L 246.471021 200.079354 
L 245.377799 201.012761 
L 244.284742 201.945508 
L 243.19152 202.877813 
L 242.098464 203.809891 
L 241.005241 204.741097 
L 240.051791 205.553441 
L 236.974295 206.924749 
L 234.944761 205.059441 
L 232.424359 208.851063 
L 229.928417 209.226558 
L 226.996185 214.571607 
L 228.220028 218.687529 
L 224.736525 220.0735 
L 224.536517 217.059352 
L 222.137418 216.529463 
L 218.33277 222.966346 
L 219.235469 227.584622 
L 217.072652 228.359792 
L 216.024689 232.254308 
L 210.323791 233.143411 
L 204.980313 228.367455 
L 203.477922 223.750988 
L 202.255409 224.349345 
L 201.032897 224.947736 
L 199.810385 225.545948 
L 198.588039 226.143982 
L 197.365526 226.741623 
L 196.143014 227.339086 
L 194.920502 227.936583 
L 194.784223 228.003221 
L 190.192023 224.946884 
L 185.078836 226.498966 
L 182.279887 223.269399 
L 180.984659 223.029948 
L 179.689432 222.790469 
L 178.394204 222.551387 
L 177.098977 222.31185 
L 175.803749 222.072285 
L 175.088745 221.940319 
L 174.252771 220.647747 
L 173.416797 219.354335 
L 172.580823 218.060297 
L 171.744849 216.765415 
L 170.908874 215.469688 
L 170.0729 214.1729 
L 169.751423 213.673976 
L 166.176901 214.704277 
L 163.596097 212.721232 
L 160.215594 215.164588 
L 161.893699 222.686515 
L 160.626426 223.105073 
L 159.359153 223.523331 
L 158.09188 223.941714 
L 156.824607 224.36001 
L 155.557334 224.778004 
L 154.290061 225.196125 
L 153.751437 225.373709 
" clip-path="url(#p76f3f9c287)" style="fill: none; stroke: #ffffff; stroke-width: 0.3"/>
    <path d="M 255.427792 170.000949 
L 252.029151 171.461322 
L 253.555836 179.478632 
L 253.072788 181.073131 
L 252.589906 182.665881 
L 252.106858 184.257757 
L 251.623977 185.848109 
L 251.140929 187.437158 
L 250.658047 189.024909 
L 250.174999 190.611365 
L 249.692118 192.196746 
L 249.20907 193.780406 
L 248.726188 195.363214 
L 248.24314 196.944309 
L 247.760258 198.52456 
L 247.570234 199.145934 
L 246.476845 200.078922 
L 245.383456 201.011682 
L 244.290067 201.943998 
L 243.196678 202.875657 
L 242.103289 203.807089 
L 241.0099 204.738081 
L 240.051791 205.553441 
L 236.974295 206.924749 
L 234.944761 205.059441 
L 232.424359 208.851063 
L 229.928417 209.226558 
L 226.996185 214.571607 
L 228.220028 218.687529 
L 224.736525 220.065591 
L 224.536517 217.059352 
L 222.137418 216.529463 
L 218.33277 222.966346 
L 219.235469 227.584622 
L 217.078809 228.359792 
L 216.024689 232.254308 
L 210.323791 233.143411 
L 204.980313 228.367455 
L 203.477922 223.750988 
L 202.255409 224.349345 
L 201.032897 224.947736 
L 199.810385 225.545948 
L 198.588039 226.143982 
L 197.365526 226.741623 
L 196.143014 227.339086 
L 194.920502 227.936583 
L 194.784223 228.003221 
L 190.192023 224.946884 
L 185.078836 226.498966 
L 182.279887 223.269399 
L 180.986989 223.010313 
L 179.694091 222.751193 
L 178.401193 222.49204 
L 177.108295 222.232852 
L 175.815397 221.973631 
L 174.913031 221.792541 
L 174.084711 220.491966 
L 173.256391 219.190542 
L 172.428071 217.888265 
L 171.599751 216.584921 
L 170.771431 215.280934 
L 169.943111 213.975876 
L 169.751423 213.673976 
L 166.176901 214.704277 
L 163.596097 212.721232 
L 160.215594 215.164588 
L 161.899855 222.686515 
L 160.632582 223.104646 
L 159.365143 223.522904 
L 158.09787 223.940861 
L 156.830597 224.35873 
L 155.563158 224.776725 
L 154.295885 225.194419 
L 153.751437 225.373709 
" clip-path="url(#p76f3f9c287)" style="fill: none; stroke: #ffffff; stroke-width: 0.3"/>
    <path d="M 266.81322 243.636426 
L 266.053516 244.778559 
L 265.209222 246.046651 
L 264.364928 247.314374 
L 263.520801 248.580886 
L 262.676507 249.846821 
L 261.832379 251.111971 
L 260.988085 252.376337 
L 260.43798 253.199679 
L 261.885959 254.860286 
L 260.595557 257.803024 
L 259.340764 258.271222 
L 258.08597 258.739313 
L 256.831177 259.207297 
L 255.576384 259.675175 
L 254.321591 260.142947 
L 253.066797 260.610612 
L 251.812004 261.07817 
L 250.557211 261.545623 
L 250.484163 261.572846 
L 248.127495 260.337401 
L 245.873826 264.049462 
L 240.118516 265.381552 
L 237.028706 262.739114 
L 232.163949 266.423875 
L 226.663059 264.041723 
L 224.033668 257.436488 
L 222.837612 256.766819 
L 221.641557 256.097141 
L 220.445502 255.427034 
L 219.249446 254.756708 
L 218.053391 254.086372 
L 216.857336 253.415396 
L 216.636528 253.291772 
L 215.873102 251.948236 
L 215.109677 250.603816 
L 214.346418 249.25872 
L 213.582992 247.912735 
L 212.819567 246.565648 
L 212.056142 245.217669 
L 211.292883 243.869005 
L 210.529457 242.519444 
L 209.766032 241.168773 
L 209.269672 240.290183 
L 210.245086 232.942516 
" clip-path="url(#p76f3f9c287)" style="fill: none; stroke: #ffffff; stroke-width: 0.3"/>
    <path d="M 7.2 170.493241 
L 7.974782 170.486621 
L 9.283321 170.47544 
L 10.592027 170.464478 
L 10.654425 170.464039 
L 11.606544 171.646255 
L 12.558829 172.827963 
L 13.510948 174.008944 
L 14.463066 175.188983 
L 15.415351 176.368517 
L 15.731171 176.759495 
L 18.52413 177.220961 
L 17.83342 172.187368 
L 23.667601 169.162409 
L 24.375117 167.710384 
L 25.082467 166.257257 
L 25.789984 164.803245 
L 26.4975 163.347907 
L 27.205016 161.891459 
L 27.912366 160.433897 
L 27.938657 160.37968 
L 27.641806 156.660784 
L 24.515722 153.039252 
L 25.903133 147.965574 
L 27.169241 147.524049 
L 28.435183 147.082865 
L 29.701291 146.641134 
L 30.967233 146.199522 
L 32.233341 145.757806 
L 33.499283 145.315765 
L 34.765391 144.873842 
L 36.031499 144.431816 
L 37.297441 143.989463 
L 38.563549 143.54723 
L 39.829491 143.104892 
L 40.849 142.748544 
L 41.45984 141.200697 
L 42.07068 139.651575 
L 42.68152 138.101398 
L 43.292361 136.549493 
L 43.903201 134.996749 
L 44.514041 133.442269 
L 45.125048 131.886945 
L 45.55618 130.788 
L 44.914057 127.083529 
L 43.863599 126.03113 
L 42.81314 124.978136 
L 41.762847 123.924546 
L 40.712389 122.870358 
L 39.66193 121.815572 
L 38.611471 120.760187 
L 37.561179 119.704201 
L 36.51072 118.647613 
L 35.460261 117.590422 
L 34.614969 116.739272 
L 33.506271 111.598792 
L 32.238998 111.155819 
L 30.971559 110.712287 
L 29.704286 110.268875 
L 28.436847 109.825356 
L 27.169574 109.381504 
L 25.902301 108.937997 
L 25.757703 108.887252 
L 25.351863 107.192835 
L 24.945856 105.496628 
L 24.540016 103.799081 
L 24.134009 102.099735 
L 23.728169 100.39904 
L 23.328319 98.722279 
" clip-path="url(#p76f3f9c287)" style="fill: none; stroke: #ffffff; stroke-width: 0.3"/>
    <path d="M 7.2 170.485438 
L 7.974782 170.478947 
L 9.283321 170.467547 
L 10.59186 170.456585 
L 10.654425 170.455927 
L 11.606045 171.639244 
L 12.557664 172.821612 
L 13.509284 174.003254 
L 14.460903 175.184171 
L 15.412523 176.364364 
L 15.731171 176.759495 
L 18.52413 177.220961 
L 17.839577 172.187368 
L 23.667601 169.162409 
L 24.375117 167.710384 
L 25.082467 166.257257 
L 25.789984 164.803245 
L 26.4975 163.347907 
L 27.205016 161.891459 
L 27.912366 160.433897 
L 27.938657 160.37968 
L 27.641806 156.660784 
L 24.515722 153.039252 
L 25.903133 147.965574 
L 27.169241 147.524049 
L 28.435183 147.082865 
L 29.701291 146.641134 
L 30.967233 146.199522 
L 32.233341 145.757806 
L 33.499283 145.315765 
L 34.765391 144.873842 
L 36.031499 144.431816 
L 37.297441 143.989463 
L 38.563549 143.54723 
L 39.829491 143.104892 
L 40.849 142.748544 
L 41.45984 141.200697 
L 42.07068 139.651575 
L 42.68152 138.101398 
L 43.292361 136.549493 
L 43.903201 134.996749 
L 44.514041 133.442269 
L 45.125048 131.886945 
L 45.55618 130.788 
L 44.914057 127.083529 
L 43.863599 126.03113 
L 42.81314 124.978136 
L 41.762847 123.924546 
L 40.712389 122.870358 
L 39.66193 121.815572 
L 38.611471 120.760187 
L 37.561179 119.704201 
L 36.51072 118.647613 
L 35.460261 117.590422 
L 34.614969 116.739272 
L 33.506271 111.598792 
L 32.238998 111.155819 
L 30.971559 110.712287 
L 29.704286 110.268875 
L 28.436847 109.825356 
L 27.169574 109.381504 
L 25.902301 108.937997 
L 25.757703 108.887252 
L 25.351863 107.192835 
L 24.945856 105.496628 
L 24.540016 103.799081 
L 24.134009 102.099735 
L 23.728169 100.39904 
L 23.328319 98.722279 
" clip-path="url(#p76f3f9c287)" style="fill: none; stroke: #ffffff; stroke-width: 0.3"/>
    <path d="M 153.6303 225.280762 
L 148.020255 224.32567 
L 148.589662 229.514006 
L 144.445899 232.09178 
L 142.900911 236.226105 
L 139.568829 236.812488 
L 137.581726 243.407843 
L 134.849502 245.49924 
L 129.91802 242.823369 
L 127.761193 239.072474 
L 128.591343 240.806213 
L 125.731826 240.937368 
L 124.598835 246.305956 
L 121.993737 248.754949 
L 117.752965 244.822897 
L 113.53033 246.866437 
L 111.415935 250.373062 
L 110.198248 249.766368 
L 108.980561 249.159492 
L 107.763041 248.552647 
L 106.545354 247.945621 
L 105.327667 247.338202 
L 104.10998 246.730603 
L 102.892293 246.123032 
L 101.674773 245.51528 
L 101.134983 245.245532 
L 99.838591 249.383853 
L 99.093469 247.165916 
L 94.046841 246.597712 
L 94.337702 249.552581 
L 91.235745 249.751835 
L 88.848792 253.873248 
L 90.430055 258.765315 
L 89.155128 259.136855 
L 87.880201 259.508328 
L 86.605273 259.879734 
L 85.330346 260.251282 
L 84.055419 260.622553 
L 82.780492 260.993967 
L 81.681945 261.313585 
L 81.700082 262.9599 
L 81.718385 264.6049 
L 81.736523 266.248381 
L 81.754826 267.890555 
L 81.772963 269.531636 
L 81.778787 270.0489 
L 80.52233 269.590669 
L 79.265873 269.132337 
L 78.009416 268.673695 
L 76.752792 268.215369 
L 75.496335 267.756524 
L 74.239878 267.297785 
L 72.983421 266.838945 
L 71.726963 266.380003 
L 70.577 265.959826 
L 66.645226 270.010944 
L 67.553915 272.484978 
" clip-path="url(#p76f3f9c287)" style="fill: none; stroke: #ffffff; stroke-width: 0.3"/>
    <path d="M 153.6303 225.280762 
L 148.020255 224.32567 
L 148.589662 229.514006 
L 144.445899 232.09178 
L 142.900911 236.218472 
L 139.568829 236.812488 
L 137.581726 243.407843 
L 134.849502 245.49924 
L 129.91802 242.823369 
L 127.761193 239.072474 
L 128.591343 240.806213 
L 125.731826 240.937368 
L 124.598835 246.305956 
L 121.993737 248.754949 
L 117.752965 244.822897 
L 113.53033 246.866437 
L 111.415935 250.373062 
L 110.198248 249.766368 
L 108.980561 249.159492 
L 107.763041 248.552647 
L 106.545354 247.945621 
L 105.327667 247.338202 
L 104.10998 246.730603 
L 102.892293 246.123032 
L 101.674773 245.51528 
L 101.134983 245.245532 
L 99.838591 249.383853 
L 99.093469 247.165916 
L 94.046841 246.597712 
L 94.337702 249.552581 
L 91.235745 249.751835 
L 88.854949 253.873248 
L 90.430055 258.765315 
L 89.155128 259.136855 
L 87.880201 259.508328 
L 86.605273 259.879734 
L 85.330346 260.251282 
L 84.055419 260.622553 
L 82.780492 260.993967 
L 81.681945 261.313585 
L 81.700082 262.9599 
L 81.718385 264.6049 
L 81.736523 266.248381 
L 81.754826 267.890555 
L 81.772963 269.531636 
L 81.778787 270.0489 
L 80.52233 269.590669 
L 79.265873 269.132337 
L 78.009416 268.673695 
L 76.752792 268.215369 
L 75.496335 267.756524 
L 74.239878 267.297785 
L 72.983421 266.838945 
L 71.726963 266.380003 
L 70.577 265.959826 
L 66.645226 270.010944 
L 67.553915 272.484978 
" clip-path="url(#p76f3f9c287)" style="fill: none; stroke: #ffffff; stroke-width: 0.3"/>
    <path d="M 266.81322 243.630453 
L 266.109925 244.688192 
L 265.265963 245.956763 
L 264.422002 247.224753 
L 263.578207 248.491953 
L 262.734246 249.758154 
L 261.890285 251.023569 
L 261.04649 252.28841 
L 260.43798 253.199679 
L 261.885959 254.860286 
L 260.674262 257.711553 
L 256.83334 260.276426 
L 255.197666 259.177527 
L 250.484163 261.572846 
L 248.127495 260.337401 
L 247.1401 263.333403 
L 245.866504 263.711232 
L 244.592908 264.088991 
L 243.319312 264.466891 
L 242.045716 264.844512 
L 240.771954 265.222064 
L 240.233662 265.381552 
L 237.028706 262.739114 
L 231.279387 266.35556 
L 230.126761 265.577393 
L 228.974135 264.799142 
L 227.821509 264.020598 
L 226.668717 263.241551 
L 225.516091 262.462627 
L 224.651663 261.877927 
L 223.815523 257.245326 
" clip-path="url(#p76f3f9c287)" style="fill: none; stroke: #ffffff; stroke-width: 0.3"/>
    <path d="M 210.245086 232.942516 
L 209.17882 240.066931 
L 212.522883 246.367348 
L 213.313764 247.688845 
L 214.104478 249.009484 
L 214.895359 250.329267 
L 215.686073 251.648196 
L 216.476954 252.966275 
L 216.72738 253.38344 
L 217.929093 254.037822 
L 219.130806 254.691995 
L 220.332519 255.34575 
L 221.534232 255.999505 
L 222.735944 256.653052 
L 223.839816 257.25309 
L 222.696342 258.055595 
L 221.553034 258.857577 
L 220.40956 259.659246 
L 219.266086 260.460811 
L 218.122612 261.262064 
L 216.979304 262.062796 
L 215.83583 262.863426 
L 214.692355 263.663746 
L 213.549048 264.463545 
L 212.405573 265.263034 
L 211.262099 266.062423 
L 210.118625 266.861503 
L 208.975317 267.660065 
L 207.831843 268.45832 
L 207.827683 268.461241 
L 204.99895 273.312 
" clip-path="url(#p76f3f9c287)" style="fill: none; stroke: #ffffff; stroke-width: 0.3"/>
    <path d="M 75.445871 7.2 
L 76.68041 7.561035 
L 77.962991 7.936231 
L 79.245406 8.311106 
L 80.527821 8.685901 
L 81.810236 9.060615 
L 83.092651 9.435247 
L 84.375232 9.809799 
L 85.657647 10.184271 
L 86.940062 10.558661 
L 88.222477 10.932971 
L 89.505059 11.307201 
L 89.69708 11.363185 
L 89.642502 15.339177 
L 90.865514 16.007165 
L 92.088359 16.674897 
L 93.31137 17.342134 
L 94.534215 18.009356 
L 95.757227 18.676322 
L 96.579224 19.124397 
L 96.25758 20.939106 
L 95.936103 22.75217 
L 95.614459 24.562883 
L 95.292982 26.372201 
L 94.971338 28.179416 
L 94.822247 29.016842 
L 99.287321 28.387448 
L 98.002909 34.569989 
L 101.020004 37.138219 
" clip-path="url(#p76f3f9c287)" style="fill: none; stroke: #ffffff; stroke-width: 0.3"/>
    <path d="M 75.443981 7.2 
L 76.67442 7.559836 
L 77.957001 7.934793 
L 79.239416 8.309668 
L 80.521831 8.684463 
L 81.804246 9.059177 
L 83.086827 9.43381 
L 84.369242 9.808123 
L 85.651657 10.182595 
L 86.934072 10.556986 
L 88.216654 10.931057 
L 89.499068 11.305287 
L 89.69708 11.363185 
L 89.642502 15.339177 
L 90.865514 16.007165 
L 92.088359 16.674897 
L 93.31137 17.342134 
L 94.534215 18.009356 
L 95.757227 18.676322 
L 96.579224 19.124397 
L 96.246764 20.935299 
L 95.914305 22.744089 
L 95.582012 24.551011 
L 95.249552 26.356071 
L 94.917093 28.159275 
L 94.785973 28.870469 
L 99.287321 28.387448 
L 98.002909 34.569989 
L 101.013847 37.138219 
" clip-path="url(#p76f3f9c287)" style="fill: none; stroke: #ffffff; stroke-width: 0.3"/>
    <path d="M 117.649966 137.622756 
L 118.958505 137.623202 
L 120.267211 137.624094 
L 121.57575 137.624763 
L 122.884289 137.625432 
L 124.192994 137.626325 
L 125.501534 137.626994 
L 126.810073 137.627663 
L 128.118778 137.628555 
L 129.427318 137.629002 
L 130.735857 137.629894 
L 132.044562 137.630563 
L 133.353101 137.631232 
L 134.661641 137.632124 
L 135.97018 137.632571 
L 137.278885 137.633463 
L 138.587425 137.634132 
L 139.895964 137.634801 
L 141.204669 137.635694 
L 142.513208 137.636363 
L 143.821748 137.637032 
L 145.130453 137.637701 
L 146.438992 137.63837 
L 147.747531 137.639263 
L 149.056237 137.639932 
L 150.364776 137.640601 
L 151.673315 137.641493 
L 152.982021 137.641939 
L 154.29056 137.642832 
L 155.599099 137.643501 
L 156.907805 137.64417 
L 158.216344 137.645062 
L 159.524883 137.645508 
L 160.833589 137.646401 
L 162.08755 137.64707 
L 162.074238 139.400433 
L 162.061093 141.15216 
L 162.047781 142.902258 
L 162.03447 144.650508 
L 162.021324 146.397361 
L 162.008013 148.142598 
L 161.994701 149.886225 
L 161.981556 151.628247 
L 161.968244 153.368667 
L 161.954932 155.107492 
L 161.941787 156.844726 
L 161.928475 158.580374 
L 161.915164 160.314441 
L 161.902018 162.046931 
L 161.888707 163.777849 
L 161.875395 165.5072 
L 161.86225 167.234988 
L 161.848938 168.961219 
L 161.835626 170.685897 
L 161.822481 172.409027 
L 161.809169 174.130613 
L 161.795858 175.850441 
L 161.782712 177.568954 
L 161.769401 179.285938 
L 161.756255 181.001396 
L 161.742944 182.715334 
L 161.729632 184.427755 
L 161.716487 186.138448 
L 161.703175 187.847852 
L 161.689863 189.555753 
L 161.676718 191.262156 
L 161.663406 192.967066 
L 161.650095 194.670487 
L 161.636949 196.372424 
L 161.623638 198.072881 
L 161.610326 199.771862 
L 161.597181 201.469372 
L 161.583869 203.165416 
L 161.570557 204.859997 
L 161.557412 206.55312 
L 161.5441 208.24479 
L 161.530789 209.93501 
L 161.517643 211.623786 
L 161.504332 213.311121 
L 161.500005 213.861382 
" clip-path="url(#p76f3f9c287)" style="fill: none; stroke: #ffffff; stroke-width: 0.3"/>
    <path d="M 117.649966 137.622756 
L 118.958505 137.623202 
L 120.267211 137.624094 
L 121.57575 137.624763 
L 122.884289 137.625432 
L 124.192994 137.626325 
L 125.501534 137.626994 
L 126.810073 137.627663 
L 128.118778 137.628555 
L 129.427318 137.629002 
L 130.735857 137.629894 
L 132.044562 137.630563 
L 133.353101 137.631232 
L 134.661641 137.632124 
L 135.97018 137.632571 
L 137.278885 137.633463 
L 138.587425 137.634132 
L 139.895964 137.634801 
L 141.204669 137.635694 
L 142.513208 137.636363 
L 143.821748 137.637032 
L 145.130453 137.637701 
L 146.438992 137.63837 
L 147.747531 137.639263 
L 149.056237 137.639932 
L 150.364776 137.640601 
L 151.673315 137.641493 
L 152.982021 137.641939 
L 154.29056 137.642832 
L 155.599099 137.643501 
L 156.907805 137.64417 
L 158.216344 137.645062 
L 159.524883 137.645508 
L 160.833589 137.646401 
L 162.08755 137.64707 
L 162.074238 139.400433 
L 162.061093 141.15216 
L 162.047781 142.902258 
L 162.03447 144.650508 
L 162.021324 146.397361 
L 162.008013 148.142598 
L 161.994701 149.886225 
L 161.981556 151.628247 
L 161.968244 153.368667 
L 161.954932 155.107492 
L 161.941787 156.844726 
L 161.928475 158.580374 
L 161.915164 160.314441 
L 161.902018 162.046931 
L 161.888707 163.777849 
L 161.875395 165.5072 
L 161.86225 167.234988 
L 161.848938 168.961219 
L 161.835626 170.685897 
L 161.822481 172.409027 
L 161.809169 174.130613 
L 161.795858 175.850441 
L 161.782712 177.568954 
L 161.769401 179.285938 
L 161.756255 181.001396 
L 161.742944 182.715334 
L 161.729632 184.427755 
L 161.716487 186.138448 
L 161.703175 187.847852 
L 161.689863 189.555753 
L 161.676718 191.262156 
L 161.663406 192.967066 
L 161.650095 194.670487 
L 161.636949 196.372424 
L 161.623638 198.072881 
L 161.610326 199.771862 
L 161.597181 201.469372 
L 161.583869 203.165416 
L 161.570557 204.859997 
L 161.557412 206.55312 
L 161.5441 208.24479 
L 161.530789 209.93501 
L 161.517643 211.623786 
L 161.504332 213.311121 
L 161.500005 213.861382 
" clip-path="url(#p76f3f9c287)" style="fill: none; stroke: #ffffff; stroke-width: 0.3"/>
    <path d="M 102.407248 206.611226 
L 100.371724 208.083946 
L 99.450888 213.564612 
L 102.383121 217.963156 
L 102.825402 223.95302 
L 99.947581 230.784066 
L 98.905608 231.795371 
L 97.863469 232.805743 
L 96.821497 233.816031 
L 95.779524 234.8256 
L 94.737551 235.834664 
L 93.695412 236.843434 
L 92.65344 237.851489 
L 92.435295 238.062487 
L 93.641001 240.552129 
L 91.653898 241.884394 
L 92.889722 242.338505 
L 91.199471 243.315724 
L 91.435753 247.335039 
L 89.81206 247.549902 
L 91.181333 249.912951 
" clip-path="url(#p76f3f9c287)" style="fill: none; stroke: #ffffff; stroke-width: 0.3"/>
    <path d="M 102.413405 206.611226 
L 100.371724 208.083946 
L 99.450888 213.564612 
L 102.383121 217.963156 
L 102.825402 223.95302 
L 99.947581 230.776413 
L 98.905941 231.788146 
L 97.864301 232.799371 
L 96.822828 233.810299 
L 95.781188 234.82072 
L 94.739548 235.830422 
L 93.697908 236.839619 
L 92.656269 237.848523 
L 92.435295 238.062487 
L 93.641001 240.552129 
L 91.653898 241.876782 
L 92.889722 242.338505 
L 91.199471 243.308118 
L 91.435753 247.335039 
L 89.81206 247.549902 
L 91.181333 249.912951 
" clip-path="url(#p76f3f9c287)" style="fill: none; stroke: #ffffff; stroke-width: 0.3"/>
    <path d="M 7.2 86.007911 
L 7.982603 86.007774 
L 9.291308 86.007545 
L 10.599847 86.007315 
L 11.908386 86.006856 
L 13.217092 86.006627 
L 14.525631 86.006398 
L 15.83417 86.005939 
L 17.142876 86.005939 
L 18.451415 86.00548 
L 19.759954 86.005251 
L 21.068493 86.005021 
L 21.977349 86.004792 
" clip-path="url(#p76f3f9c287)" style="fill: none; stroke: #ffffff; stroke-width: 0.3"/>
    <path d="M 7.2 86.007911 
L 7.982603 86.007774 
L 9.291308 86.007545 
L 10.599847 86.007315 
L 11.908386 86.006856 
L 13.217092 86.006627 
L 14.525631 86.006398 
L 15.83417 86.005939 
L 17.142876 86.005939 
L 18.451415 86.00548 
L 19.759954 86.005251 
L 21.068493 86.005021 
L 21.977349 86.004792 
" clip-path="url(#p76f3f9c287)" style="fill: none; stroke: #ffffff; stroke-width: 0.3"/>
    <path d="M 266.81322 196.303631 
L 265.945026 196.303631 
L 264.636487 196.303631 
L 263.327948 196.303847 
L 262.019242 196.304064 
L 260.710703 196.304064 
L 259.402164 196.304064 
L 258.093458 196.30428 
L 256.784919 196.304496 
L 255.47638 196.304496 
L 255.373214 196.304496 
L 255.373048 194.6025 
L 255.372881 192.89902 
L 255.372715 191.193833 
L 255.372549 189.487153 
L 255.372382 187.779191 
L 255.372216 186.069727 
L 255.372049 184.358756 
L 255.371883 182.646274 
L 255.371717 180.932057 
L 255.37155 179.216537 
L 255.371384 177.499273 
L 255.371384 175.780698 
L 255.371217 174.060589 
L 255.371051 172.33894 
L 255.370885 170.615528 
L 255.370718 168.890787 
L 255.370552 167.164273 
L 255.370385 165.43642 
L 255.370219 163.707005 
L 255.370053 161.976023 
L 255.369886 160.243469 
L 255.36972 158.509117 
L 255.369554 156.773183 
L 255.369387 155.035884 
L 255.369221 153.296993 
L 255.369054 151.556506 
L 255.368888 149.814419 
L 255.368722 148.070504 
L 255.368555 146.324978 
L 255.368389 144.578058 
L 255.368222 142.829518 
L 255.368056 141.079353 
L 255.36789 139.327557 
L 255.367723 137.573903 
L 255.367557 135.818832 
L 255.367557 134.061892 
L 255.36739 132.303525 
L 255.367224 131.244443 
" clip-path="url(#p76f3f9c287)" style="fill: none; stroke: #ffffff; stroke-width: 0.3"/>
    <path d="M 255.367224 131.244443 
L 255.36739 133.004029 
L 255.367557 134.761738 
L 255.367723 136.517799 
L 255.36789 138.272217 
L 255.368056 140.024996 
L 255.368222 141.776365 
L 255.368389 143.525882 
L 255.368555 145.273999 
L 255.368722 147.020275 
L 255.368888 148.764937 
L 255.369054 150.50799 
L 255.369054 152.249661 
L 255.369221 153.989512 
L 255.369387 155.727989 
L 255.369554 157.464656 
L 255.36972 159.199739 
L 255.369886 160.933242 
L 255.370053 162.66539 
L 255.370219 164.395748 
L 255.370385 166.12476 
L 255.370552 167.851991 
L 255.370718 169.577667 
L 255.370885 171.301791 
L 255.371051 173.024369 
L 255.371217 174.745623 
L 255.371384 176.46534 
L 255.37155 178.183305 
L 255.371717 179.899742 
L 255.371883 181.614656 
L 255.372049 183.328051 
L 255.372216 185.040149 
L 255.372382 186.75052 
L 255.372549 188.459602 
L 255.372715 190.166966 
L 255.372881 191.872835 
L 255.372881 193.577211 
L 255.373048 195.280317 
L 255.373214 196.304496 
L 256.681753 196.304496 
L 257.990459 196.30428 
L 259.298998 196.304064 
L 260.607537 196.304064 
L 261.916243 196.304064 
L 263.224782 196.303847 
L 264.533321 196.303847 
L 265.842027 196.303631 
L 266.81322 196.303631 
" clip-path="url(#p76f3f9c287)" style="fill: none; stroke: #ffffff; stroke-width: 0.3"/>
    <path d="M 102.661834 138.986542 
L 102.655844 140.738656 
L 102.649854 142.48936 
L 102.643864 144.238216 
L 102.637707 145.985672 
L 102.631717 147.73129 
L 102.625726 149.475296 
L 102.619736 151.217696 
L 102.613746 152.958494 
L 102.607756 154.697694 
L 102.601765 156.435524 
L 102.595775 158.171545 
L 102.589618 159.906204 
L 102.583628 161.639065 
L 102.577638 163.370353 
L 102.571648 165.100072 
L 102.565657 166.828228 
L 102.559667 168.554826 
L 102.553677 170.280088 
L 102.547687 172.003582 
L 102.54153 173.725531 
L 102.53554 175.446159 
L 102.529549 177.165032 
L 102.523559 178.882374 
L 102.517569 180.598191 
L 102.511579 182.312485 
L 102.505588 184.025263 
L 102.499432 185.736746 
L 102.493441 187.446503 
L 102.487451 189.154974 
L 102.481461 190.861728 
L 102.475471 192.566989 
L 102.46948 194.270759 
L 102.46349 195.973044 
L 102.4575 197.673847 
L 102.451343 199.373391 
L 102.445353 201.071246 
L 102.439363 202.767848 
L 102.433372 204.462772 
L 102.427382 206.156237 
L 102.425552 206.666316 
" clip-path="url(#p76f3f9c287)" style="fill: none; stroke: #ffffff; stroke-width: 0.3"/>
    <path d="M 102.661834 138.986542 
L 102.655844 140.738656 
L 102.649854 142.48936 
L 102.643864 144.238216 
L 102.637707 145.985672 
L 102.631717 147.73129 
L 102.625726 149.475296 
L 102.619736 151.217696 
L 102.613746 152.958494 
L 102.607756 154.697694 
L 102.601765 156.435524 
L 102.595775 158.171545 
L 102.589618 159.906204 
L 102.583628 161.639065 
L 102.577638 163.370353 
L 102.571648 165.100072 
L 102.565657 166.828228 
L 102.559667 168.554826 
L 102.553677 170.280088 
L 102.547687 172.003582 
L 102.54153 173.725531 
L 102.53554 175.446159 
L 102.529549 177.165032 
L 102.523559 178.882374 
L 102.517569 180.598191 
L 102.511579 182.312485 
L 102.505588 184.025263 
L 102.499432 185.736746 
L 102.493441 187.446503 
L 102.487451 189.154974 
L 102.481461 190.861728 
L 102.475471 192.566989 
L 102.46948 194.270759 
L 102.46349 195.973044 
L 102.4575 197.673847 
L 102.451343 199.373391 
L 102.445353 201.071246 
L 102.439363 202.767848 
L 102.433372 204.462772 
L 102.427382 206.156237 
L 102.425552 206.666316 
" clip-path="url(#p76f3f9c287)" style="fill: none; stroke: #ffffff; stroke-width: 0.3"/>
    <path d="M 223.839816 257.230217 
L 222.697008 258.03378 
L 221.554033 258.837238 
L 220.411224 259.640382 
L 219.268249 260.443002 
L 218.12544 261.245309 
L 216.982632 262.047513 
L 215.839657 262.849405 
L 214.696848 263.650775 
L 213.553873 264.451835 
L 212.411065 265.252792 
L 211.268256 266.053438 
L 210.125281 266.853566 
L 208.982472 267.653384 
L 207.839497 268.452893 
L 207.827683 268.461241 
L 204.99895 273.312 
" clip-path="url(#p76f3f9c287)" style="fill: none; stroke: #ffffff; stroke-width: 0.3"/>
    <path d="M 96.512665 116.098509 
L 95.204126 116.086549 
L 93.895587 116.074589 
L 92.587048 116.062403 
L 91.278342 116.050668 
L 89.969803 116.038482 
L 88.661264 116.026522 
L 87.352725 116.014562 
L 86.044186 116.002375 
L 84.735646 115.99064 
L 83.427107 115.978454 
L 82.118402 115.966493 
L 80.809863 115.954532 
L 79.501323 115.942346 
L 78.192784 115.93061 
L 76.884245 115.918424 
L 75.575706 115.906462 
L 74.267167 115.894501 
L 72.958461 115.88254 
L 71.649922 115.870578 
L 70.341383 115.858391 
L 69.032844 115.846655 
L 67.724304 115.834468 
L 66.415765 115.822506 
L 65.107226 115.810544 
L 63.798521 115.798357 
L 62.489981 115.786621 
L 61.181442 115.774433 
L 59.872903 115.762471 
L 58.564364 115.750509 
L 57.255825 115.738546 
L 55.947286 115.726584 
L 54.638746 115.714396 
L 53.330041 115.702659 
L 52.021502 115.690471 
L 50.712962 115.678508 
L 49.404423 115.666545 
L 48.095884 115.654357 
L 46.787345 115.64262 
L 45.478806 115.630431 
L 44.1701 115.618468 
L 42.861561 115.606505 
L 41.553022 115.594316 
L 40.244483 115.582578 
L 38.935944 115.570389 
L 37.627404 115.558426 
L 36.318865 115.546462 
L 35.01016 115.534499 
L 34.693674 115.531564 
" clip-path="url(#p76f3f9c287)" style="fill: none; stroke: #ffffff; stroke-width: 0.3"/>
    <path d="M 96.512665 116.098509 
L 95.204126 116.086549 
L 93.895587 116.074589 
L 92.587048 116.062403 
L 91.278342 116.050668 
L 89.969803 116.038482 
L 88.661264 116.026522 
L 87.352725 116.014562 
L 86.044186 116.002375 
L 84.735646 115.99064 
L 83.427107 115.978454 
L 82.118402 115.966493 
L 80.809863 115.954532 
L 79.501323 115.942346 
L 78.192784 115.93061 
L 76.884245 115.918424 
L 75.575706 115.906462 
L 74.267167 115.894501 
L 72.958461 115.88254 
L 71.649922 115.870578 
L 70.341383 115.858391 
L 69.032844 115.846655 
L 67.724304 115.834468 
L 66.415765 115.822506 
L 65.107226 115.810544 
L 63.798521 115.798357 
L 62.489981 115.786621 
L 61.181442 115.774433 
L 59.872903 115.762471 
L 58.564364 115.750509 
L 57.255825 115.738546 
L 55.947286 115.726584 
L 54.638746 115.714396 
L 53.330041 115.702659 
L 52.021502 115.690471 
L 50.712962 115.678508 
L 49.404423 115.666545 
L 48.095884 115.654357 
L 46.787345 115.64262 
L 45.478806 115.630431 
L 44.1701 115.618468 
L 42.861561 115.606505 
L 41.553022 115.594316 
L 40.244483 115.582578 
L 38.935944 115.570389 
L 37.627404 115.558426 
L 36.318865 115.546462 
L 35.01016 115.534499 
L 34.693674 115.531564 
" clip-path="url(#p76f3f9c287)" style="fill: none; stroke: #ffffff; stroke-width: 0.3"/>
    <path d="M 100.965426 37.19857 
L 104.024951 38.15094 
L 104.969915 33.968323 
L 106.003069 32.827946 
L 107.036222 31.687067 
L 108.069542 30.54521 
L 109.102696 29.402847 
L 110.135849 28.259741 
L 111.169003 27.11589 
L 111.74307 26.479885 
L 113.051442 26.443833 
L 114.359815 26.40778 
L 115.668188 26.371252 
L 116.976394 26.335198 
L 118.284767 26.299143 
L 119.237219 26.272576 
L 120.445254 26.989751 
L 121.653124 27.70687 
L 122.86116 28.42346 
L 124.069029 29.139757 
L 125.277065 29.855999 
L 126.485101 30.571712 
L 127.692971 31.287134 
L 128.901007 32.002266 
L 129.912029 32.600586 
" clip-path="url(#p76f3f9c287)" style="fill: none; stroke: #ffffff; stroke-width: 0.3"/>
    <path d="M 100.965426 37.19857 
L 104.024951 38.15094 
L 104.969915 33.968323 
L 106.003069 32.827946 
L 107.036222 31.687067 
L 108.069542 30.54521 
L 109.102696 29.402847 
L 110.135849 28.259741 
L 111.169003 27.11589 
L 111.74307 26.479885 
L 113.051442 26.443833 
L 114.359815 26.40778 
L 115.668188 26.371252 
L 116.976394 26.335198 
L 118.284767 26.299143 
L 119.237219 26.272576 
L 120.445088 26.990225 
L 121.652958 27.707582 
L 122.860827 28.424645 
L 124.068697 29.141178 
L 125.276566 29.857656 
L 126.484436 30.573606 
L 127.692305 31.2895 
L 128.900175 32.005103 
L 129.905873 32.600586 
" clip-path="url(#p76f3f9c287)" style="fill: none; stroke: #ffffff; stroke-width: 0.3"/>
    <path d="M 7.2 62.559356 
L 7.832846 63.134345 
L 8.929729 64.130511 
L 10.026613 65.125891 
L 11.123496 66.120951 
L 12.220379 67.115459 
L 13.317263 68.109185 
L 14.414146 69.102824 
L 15.511029 70.095451 
L 16.607912 71.087531 
L 17.704796 72.079526 
L 18.801679 73.070512 
L 19.18439 73.41612 
" clip-path="url(#p76f3f9c287)" style="fill: none; stroke: #ffffff; stroke-width: 0.3"/>
    <path d="M 7.2 62.559356 
L 7.832846 63.134345 
L 8.929729 64.130511 
L 10.026613 65.125891 
L 11.123496 66.120951 
L 12.220379 67.115459 
L 13.317263 68.109185 
L 14.414146 69.102824 
L 15.511029 70.095451 
L 16.607912 71.087531 
L 17.704796 72.079526 
L 18.801679 73.070512 
L 19.18439 73.41612 
" clip-path="url(#p76f3f9c287)" style="fill: none; stroke: #ffffff; stroke-width: 0.3"/>
    <path d="M 191.112859 138.24791 
L 189.804819 138.299421 
L 188.496779 138.350931 
L 187.188739 138.402438 
L 185.880699 138.453722 
L 184.572659 138.50545 
L 183.264619 138.556731 
L 181.956579 138.608233 
L 180.648706 138.659734 
L 179.340666 138.711234 
L 178.032626 138.762732 
L 176.724586 138.814005 
L 175.416546 138.865724 
L 174.108506 138.916994 
L 172.800466 138.96871 
L 171.492426 139.019978 
L 170.184386 139.071467 
L 168.876346 139.122956 
L 167.568306 139.174442 
L 166.260266 139.225928 
L 164.952226 139.277189 
L 163.644186 139.328894 
L 162.336312 139.380153 
L 162.026982 139.39241 
" clip-path="url(#p76f3f9c287)" style="fill: none; stroke: #ffffff; stroke-width: 0.3"/>
    <path d="M 191.112859 138.24791 
L 189.804819 138.299421 
L 188.496779 138.350931 
L 187.188739 138.402438 
L 185.880699 138.453722 
L 184.572659 138.50545 
L 183.264619 138.556731 
L 181.956579 138.608233 
L 180.648706 138.659734 
L 179.340666 138.711234 
L 178.032626 138.762732 
L 176.724586 138.814005 
L 175.416546 138.865724 
L 174.108506 138.916994 
L 172.800466 138.96871 
L 171.492426 139.019978 
L 170.184386 139.071467 
L 168.876346 139.122956 
L 167.568306 139.174442 
L 166.260266 139.225928 
L 164.952226 139.277189 
L 163.644186 139.328894 
L 162.336312 139.380153 
L 162.026982 139.39241 
" clip-path="url(#p76f3f9c287)" style="fill: none; stroke: #ffffff; stroke-width: 0.3"/>
    <path d="M 23.22532 98.647559 
L 25.055012 92.274616 
L 22.243916 90.192644 
L 22.025438 88.41713 
L 21.806959 86.63988 
L 21.588481 84.860889 
L 21.370003 83.080152 
L 21.151525 81.297664 
L 20.933047 79.513418 
L 20.905092 79.285486 
" clip-path="url(#p76f3f9c287)" style="fill: none; stroke: #ffffff; stroke-width: 0.3"/>
    <path d="M 23.231477 98.647559 
L 25.055012 92.274616 
L 22.243916 90.192644 
L 22.025438 88.41713 
L 21.806959 86.63988 
L 21.588481 84.860889 
L 21.370003 83.080152 
L 21.151525 81.297664 
L 20.933047 79.513418 
L 20.905092 79.285486 
" clip-path="url(#p76f3f9c287)" style="fill: none; stroke: #ffffff; stroke-width: 0.3"/>
    <path d="M 113.08805 105.907155 
L 112.992039 107.686181 
L 112.896195 109.463262 
L 112.800184 111.23863 
L 112.704174 113.012291 
L 112.608329 114.78425 
L 112.512319 116.554737 
L 112.416308 118.323081 
L 112.361065 119.341109 
" clip-path="url(#p76f3f9c287)" style="fill: none; stroke: #ffffff; stroke-width: 0.3"/>
    <path d="M 113.08805 105.907155 
L 112.992039 107.686181 
L 112.896028 109.463035 
L 112.800018 111.23863 
L 112.704007 113.012291 
L 112.607997 114.78425 
L 112.511986 116.554512 
L 112.415976 118.323081 
L 112.361065 119.332999 
" clip-path="url(#p76f3f9c287)" style="fill: none; stroke: #ffffff; stroke-width: 0.3"/>
    <path d="M 122.551164 39.642921 
L 121.804544 41.162573 
L 121.057925 42.681391 
L 120.311306 44.198436 
L 119.564686 45.714418 
L 118.818067 47.229105 
L 118.498087 47.877827 
" clip-path="url(#p76f3f9c287)" style="fill: none; stroke: #ffffff; stroke-width: 0.3"/>
    <path d="M 122.551164 39.642921 
L 121.804544 41.162573 
L 121.057925 42.681391 
L 120.311306 44.198436 
L 119.564686 45.714418 
L 118.818067 47.229105 
L 118.498087 47.877827 
" clip-path="url(#p76f3f9c287)" style="fill: none; stroke: #ffffff; stroke-width: 0.3"/>
    <path d="M 110.295257 85.654011 
L 110.382282 87.453312 
L 110.469141 89.251292 
L 110.556166 91.047039 
L 110.643191 92.841245 
L 110.73005 94.633687 
L 110.737538 94.786649 
" clip-path="url(#p76f3f9c287)" style="fill: none; stroke: #ffffff; stroke-width: 0.3"/>
    <path d="M 110.295257 85.654011 
L 110.382282 87.453312 
L 110.469141 89.251292 
L 110.556166 91.047039 
L 110.643191 92.841245 
L 110.73005 94.633687 
L 110.737538 94.786649 
" clip-path="url(#p76f3f9c287)" style="fill: none; stroke: #ffffff; stroke-width: 0.3"/>
    <path d="M 114.632871 61.8654 
L 113.257774 68.219462 
" clip-path="url(#p76f3f9c287)" style="fill: none; stroke: #ffffff; stroke-width: 0.3"/>
    <path d="M 114.632871 61.8654 
L 113.257774 68.219462 
" clip-path="url(#p76f3f9c287)" style="fill: none; stroke: #ffffff; stroke-width: 0.3"/>
    <path d="M 21.06866 77.465603 
L 19.196537 73.349129 
" clip-path="url(#p76f3f9c287)" style="fill: none; stroke: #ffffff; stroke-width: 0.3"/>
    <path d="M 21.06866 77.457305 
L 19.196537 73.349129 
" clip-path="url(#p76f3f9c287)" style="fill: none; stroke: #ffffff; stroke-width: 0.3"/>
    <path d="M 112.32479 137.314004 
L 106.581462 137.492703 
" clip-path="url(#p76f3f9c287)" style="fill: none; stroke: #ffffff; stroke-width: 0.3"/>
    <path d="M 112.32479 137.314004 
L 106.581462 137.492703 
" clip-path="url(#p76f3f9c287)" style="fill: none; stroke: #ffffff; stroke-width: 0.3"/>
    <path d="M 113.130481 116.147702 
L 108.968414 116.131455 
" clip-path="url(#p76f3f9c287)" style="fill: none; stroke: #ffffff; stroke-width: 0.3"/>
    <path d="M 113.130481 116.147702 
L 108.968414 116.131455 
" clip-path="url(#p76f3f9c287)" style="fill: none; stroke: #ffffff; stroke-width: 0.3"/>
    <path d="M 109.289559 135.208948 
L 108.919993 137.387181 
" clip-path="url(#p76f3f9c287)" style="fill: none; stroke: #ffffff; stroke-width: 0.3"/>
    <path d="M 103.806806 137.37915 
L 102.401258 138.199074 
" clip-path="url(#p76f3f9c287)" style="fill: none; stroke: #ffffff; stroke-width: 0.3"/>
    <path d="M 103.806806 137.387181 
L 102.401258 138.199074 
" clip-path="url(#p76f3f9c287)" style="fill: none; stroke: #ffffff; stroke-width: 0.3"/>
    <path d="M 109.289559 135.208948 
L 108.919993 137.387181 
" clip-path="url(#p76f3f9c287)" style="fill: none; stroke: #ffffff; stroke-width: 0.3"/>
    <path d="M 21.08064 77.541199 
L 20.92922 79.227002 
" clip-path="url(#p76f3f9c287)" style="fill: none; stroke: #ffffff; stroke-width: 0.3"/>
    <path d="M 21.08064 77.549496 
L 20.92922 79.227002 
" clip-path="url(#p76f3f9c287)" style="fill: none; stroke: #ffffff; stroke-width: 0.3"/>
   </g>
   <g id="line2d_1">
    <path d="M 132.396221 194.971615 
L 116.753089 176.488135 
L 116.753089 176.488135 
" clip-path="url(#p76f3f9c287)" style="fill: none; stroke: #008000; stroke-width: 0.75; stroke-linecap: square"/>
   </g>
   <g id="line2d_2">
    <path d="M 132.396221 194.971615 
L 142.81676 185.387499 
L 142.81676 185.387499 
" clip-path="url(#p76f3f9c287)" style="fill: none; stroke: #008000; stroke-width: 0.75; stroke-linecap: square"/>
   </g>
   <g id="line2d_3">
    <path d="M 132.396221 194.971615 
L 140.7084 201.965961 
L 140.7084 201.965961 
" clip-path="url(#p76f3f9c287)" style="fill: none; stroke: #008000; stroke-width: 0.75; stroke-linecap: square"/>
   </g>
   <g id="line2d_4">
    <path d="M 132.396221 194.971615 
L 133.51703 199.356836 
L 133.51703 199.356836 
" clip-path="url(#p76f3f9c287)" style="fill: none; stroke: #008000; stroke-width: 0.75; stroke-linecap: square"/>
   </g>
   <g id="line2d_5">
    <path d="M 132.396221 194.971615 
L 112.086702 201.264521 
L 105.005855 203.513049 
L 105.005855 203.513049 
" clip-path="url(#p76f3f9c287)" style="fill: none; stroke: #008000; stroke-width: 0.75; stroke-linecap: square"/>
   </g>
   <g id="line2d_6">
    <path d="M 124.362554 212.009094 
L 133.51703 199.356836 
L 133.51703 199.356836 
" clip-path="url(#p76f3f9c287)" style="fill: none; stroke: #008000; stroke-width: 0.75; stroke-linecap: square"/>
   </g>
   <g id="line2d_7">
    <path d="M 124.362554 212.009094 
L 137.557745 210.99278 
L 137.557745 210.99278 
" clip-path="url(#p76f3f9c287)" style="fill: none; stroke: #008000; stroke-width: 0.75; stroke-linecap: square"/>
   </g>
   <g id="line2d_8">
    <path d="M 140.7084 201.965961 
L 137.557745 210.99278 
L 137.557745 210.99278 
" clip-path="url(#p76f3f9c287)" style="fill: none; stroke: #008000; stroke-width: 0.75; stroke-linecap: square"/>
   </g>
   <g id="line2d_9">
    <path d="M 140.7084 201.965961 
L 160.985326 209.055815 
L 169.498087 212.102483 
L 169.498087 212.102483 
" clip-path="url(#p76f3f9c287)" style="fill: none; stroke: #008000; stroke-width: 0.75; stroke-linecap: square"/>
   </g>
   <g id="line2d_10">
    <path d="M 67.503995 229.938721 
L 46.490449 227.345824 
L 44.287603 227.087016 
L 44.287603 227.087016 
" clip-path="url(#p76f3f9c287)" style="fill: none; stroke: #008000; stroke-width: 0.75; stroke-linecap: square"/>
   </g>
   <g id="line2d_11">
    <path d="M 67.503995 229.938721 
L 82.751646 205.203806 
L 84.091931 203.049954 
L 84.091931 203.049954 
" clip-path="url(#p76f3f9c287)" style="fill: none; stroke: #008000; stroke-width: 0.75; stroke-linecap: square"/>
   </g>
   <g id="line2d_12">
    <path d="M 137.557745 210.99278 
L 141.090291 237.474191 
L 141.090291 237.474191 
" clip-path="url(#p76f3f9c287)" style="fill: none; stroke: #008000; stroke-width: 0.75; stroke-linecap: square"/>
   </g>
   <g id="line2d_13">
    <path d="M 167.346761 108.960315 
L 186.279258 100.627909 
L 186.279258 100.627909 
" clip-path="url(#p76f3f9c287)" style="fill: none; stroke: #008000; stroke-width: 0.75; stroke-linecap: square"/>
   </g>
   <g id="line2d_14">
    <path d="M 167.346761 108.960315 
L 170.709408 123.354443 
L 170.709408 123.354443 
" clip-path="url(#p76f3f9c287)" style="fill: none; stroke: #008000; stroke-width: 0.75; stroke-linecap: square"/>
   </g>
   <g id="line2d_15">
    <path d="M 167.346761 108.960315 
L 162.723504 83.086551 
L 162.723504 83.086551 
" clip-path="url(#p76f3f9c287)" style="fill: none; stroke: #008000; stroke-width: 0.75; stroke-linecap: square"/>
   </g>
   <g id="line2d_16">
    <path d="M 167.346761 108.960315 
L 147.573311 103.338692 
L 143.081968 102.093932 
L 143.081968 102.093932 
" clip-path="url(#p76f3f9c287)" style="fill: none; stroke: #008000; stroke-width: 0.75; stroke-linecap: square"/>
   </g>
   <g id="line2d_17">
    <path d="M 170.709408 123.354443 
L 185.114175 122.420552 
L 185.114175 122.420552 
" clip-path="url(#p76f3f9c287)" style="fill: none; stroke: #008000; stroke-width: 0.75; stroke-linecap: square"/>
   </g>
   <g id="line2d_18">
    <path d="M 170.709408 123.354443 
L 153.733474 121.135205 
L 153.733474 121.135205 
" clip-path="url(#p76f3f9c287)" style="fill: none; stroke: #008000; stroke-width: 0.75; stroke-linecap: square"/>
   </g>
   <g id="line2d_19">
    <path d="M 44.287603 227.087016 
L 56.374199 194.025372 
L 56.374199 194.025372 
" clip-path="url(#p76f3f9c287)" style="fill: none; stroke: #008000; stroke-width: 0.75; stroke-linecap: square"/>
   </g>
   <g id="line2d_20">
    <path d="M 116.753089 176.488135 
L 132.929254 174.489589 
L 132.929254 174.489589 
" clip-path="url(#p76f3f9c287)" style="fill: none; stroke: #008000; stroke-width: 0.75; stroke-linecap: square"/>
   </g>
   <g id="line2d_21">
    <path d="M 116.753089 176.488135 
L 106.477585 142.480195 
L 106.477585 142.480195 
" clip-path="url(#p76f3f9c287)" style="fill: none; stroke: #008000; stroke-width: 0.75; stroke-linecap: square"/>
   </g>
   <g id="line2d_22">
    <path d="M 143.081968 102.093932 
L 144.845515 122.003406 
L 144.845515 122.003406 
" clip-path="url(#p76f3f9c287)" style="fill: none; stroke: #008000; stroke-width: 0.75; stroke-linecap: square"/>
   </g>
   <g id="line2d_23">
    <path d="M 143.081968 102.093932 
L 130.425699 94.004707 
L 130.425699 94.004707 
" clip-path="url(#p76f3f9c287)" style="fill: none; stroke: #008000; stroke-width: 0.75; stroke-linecap: square"/>
   </g>
   <g id="line2d_24">
    <path d="M 130.425699 94.004707 
L 141.086307 57.797016 
L 144.117065 47.647286 
L 144.117065 47.647286 
" clip-path="url(#p76f3f9c287)" style="fill: none; stroke: #008000; stroke-width: 0.75; stroke-linecap: square"/>
   </g>
   <g id="line2d_25">
    <path d="M 130.425699 94.004707 
L 149.951585 87.327373 
L 162.723504 83.086551 
L 162.723504 83.086551 
" clip-path="url(#p76f3f9c287)" style="fill: none; stroke: #008000; stroke-width: 0.75; stroke-linecap: square"/>
   </g>
   <g id="line2d_26">
    <path d="M 106.477585 142.480195 
L 95.075383 136.297512 
L 95.075383 136.297512 
" clip-path="url(#p76f3f9c287)" style="fill: none; stroke: #008000; stroke-width: 0.75; stroke-linecap: square"/>
   </g>
   <g id="line2d_27">
    <path d="M 153.733474 121.135205 
L 144.845515 122.003406 
L 144.845515 122.003406 
" clip-path="url(#p76f3f9c287)" style="fill: none; stroke: #008000; stroke-width: 0.75; stroke-linecap: square"/>
   </g>
   <g id="line2d_28">
    <path d="M 68.363304 122.610079 
L 61.662657 98.821869 
L 61.662657 98.821869 
" clip-path="url(#p76f3f9c287)" style="fill: none; stroke: #008000; stroke-width: 0.75; stroke-linecap: square"/>
   </g>
   <g id="line2d_29">
    <path d="M 68.363304 122.610079 
L 87.532183 132.282045 
L 93.772897 135.484532 
L 93.772897 135.484532 
" clip-path="url(#p76f3f9c287)" style="fill: none; stroke: #008000; stroke-width: 0.75; stroke-linecap: square"/>
   </g>
   <g id="line2d_30">
    <path d="M 61.662657 98.821869 
L 76.511509 76.060839 
L 80.38905 70.184134 
L 80.38905 70.184134 
" clip-path="url(#p76f3f9c287)" style="fill: none; stroke: #008000; stroke-width: 0.75; stroke-linecap: square"/>
   </g>
   <g id="line2d_31">
    <path d="M 61.662657 98.821869 
L 81.747654 99.380882 
L 94.263183 99.841193 
L 94.263183 99.841193 
" clip-path="url(#p76f3f9c287)" style="fill: none; stroke: #008000; stroke-width: 0.75; stroke-linecap: square"/>
   </g>
   <g id="line2d_32">
    <path d="M 149.226464 182.874858 
L 142.81676 185.387499 
L 142.81676 185.387499 
" clip-path="url(#p76f3f9c287)" style="fill: none; stroke: #008000; stroke-width: 0.75; stroke-linecap: square"/>
   </g>
   <g id="line2d_33">
    <path d="M 149.226464 182.874858 
L 143.264953 172.674684 
L 143.264953 172.674684 
" clip-path="url(#p76f3f9c287)" style="fill: none; stroke: #008000; stroke-width: 0.75; stroke-linecap: square"/>
   </g>
   <g id="line2d_34">
    <path d="M 84.091931 203.049954 
L 86.915219 185.070959 
L 86.915219 185.070959 
" clip-path="url(#p76f3f9c287)" style="fill: none; stroke: #008000; stroke-width: 0.75; stroke-linecap: square"/>
   </g>
   <g id="line2d_35">
    <path d="M 84.091931 203.049954 
L 104.953714 203.511616 
L 105.005855 203.513049 
L 105.005855 203.513049 
" clip-path="url(#p76f3f9c287)" style="fill: none; stroke: #008000; stroke-width: 0.75; stroke-linecap: square"/>
   </g>
   <g id="line2d_36">
    <path d="M 86.915219 185.070959 
L 78.424035 172.289952 
L 78.424035 172.289952 
" clip-path="url(#p76f3f9c287)" style="fill: none; stroke: #008000; stroke-width: 0.75; stroke-linecap: square"/>
   </g>
   <g id="line2d_37">
    <path d="M 70.551053 174.553536 
L 78.424035 172.289952 
L 78.424035 172.289952 
" clip-path="url(#p76f3f9c287)" style="fill: none; stroke: #008000; stroke-width: 0.75; stroke-linecap: square"/>
   </g>
   <g id="line2d_38">
    <path d="M 70.551053 174.553536 
L 57.567635 168.538126 
L 57.567635 168.538126 
" clip-path="url(#p76f3f9c287)" style="fill: none; stroke: #008000; stroke-width: 0.75; stroke-linecap: square"/>
   </g>
   <g id="line2d_39">
    <path d="M 57.567635 168.538126 
L 56.374199 194.025372 
L 56.374199 194.025372 
" clip-path="url(#p76f3f9c287)" style="fill: none; stroke: #008000; stroke-width: 0.75; stroke-linecap: square"/>
   </g>
   <g id="line2d_40">
    <path d="M 56.374199 194.025372 
L 73.874844 176.733616 
L 78.424035 172.289952 
L 78.424035 172.289952 
" clip-path="url(#p76f3f9c287)" style="fill: none; stroke: #008000; stroke-width: 0.75; stroke-linecap: square"/>
   </g>
   <g id="line2d_41">
    <path d="M 185.114175 122.420552 
L 195.977237 116.555981 
L 195.977237 116.555981 
" clip-path="url(#p76f3f9c287)" style="fill: none; stroke: #008000; stroke-width: 0.75; stroke-linecap: square"/>
   </g>
   <g id="line2d_42">
    <path d="M 144.117065 47.647286 
L 160.395698 65.67884 
L 176.619355 83.981384 
L 180.535628 88.449484 
L 180.535628 88.449484 
" clip-path="url(#p76f3f9c287)" style="fill: none; stroke: #008000; stroke-width: 0.75; stroke-linecap: square"/>
   </g>
   <g id="line2d_43">
    <path d="M 162.723504 83.086551 
L 174.071181 82.551312 
L 174.071181 82.551312 
" clip-path="url(#p76f3f9c287)" style="fill: none; stroke: #008000; stroke-width: 0.75; stroke-linecap: square"/>
   </g>
   <g id="line2d_44">
    <path d="M 110.19137 142.990469 
L 130.390367 139.853449 
L 130.390367 139.853449 
" clip-path="url(#p76f3f9c287)" style="fill: none; stroke: #008000; stroke-width: 0.75; stroke-linecap: square"/>
   </g>
   <g id="line2d_45">
    <path d="M 110.19137 142.990469 
L 99.855671 134.980413 
L 99.855671 134.980413 
" clip-path="url(#p76f3f9c287)" style="fill: none; stroke: #008000; stroke-width: 0.75; stroke-linecap: square"/>
   </g>
   <g id="line2d_46">
    <path d="M 99.855671 134.980413 
L 85.439603 159.968856 
L 78.424035 172.289952 
L 78.424035 172.289952 
" clip-path="url(#p76f3f9c287)" style="fill: none; stroke: #008000; stroke-width: 0.75; stroke-linecap: square"/>
   </g>
   <g id="line2d_47">
    <path d="M 99.855671 134.980413 
L 93.772897 135.484532 
L 93.772897 135.484532 
" clip-path="url(#p76f3f9c287)" style="fill: none; stroke: #008000; stroke-width: 0.75; stroke-linecap: square"/>
   </g>
   <g id="line2d_48">
    <path d="M 174.071181 82.551312 
L 180.535628 88.449484 
L 180.535628 88.449484 
" clip-path="url(#p76f3f9c287)" style="fill: none; stroke: #008000; stroke-width: 0.75; stroke-linecap: square"/>
   </g>
   <g id="line2d_49">
    <path d="M 180.535628 88.449484 
L 180.535628 88.449484 
" clip-path="url(#p76f3f9c287)" style="fill: none; stroke: #008000; stroke-width: 0.75; stroke-linecap: square"/>
   </g>
   <g id="line2d_50">
    <path d="M 202.730809 167.365303 
L 182.140529 167.149734 
L 177.167747 167.130997 
L 177.167747 167.130997 
" clip-path="url(#p76f3f9c287)" style="fill: none; stroke: #008000; stroke-width: 0.75; stroke-linecap: square"/>
   </g>
   <g id="line2d_51">
    <path d="M 202.730809 167.365303 
L 220.770198 152.492367 
L 229.725617 145.215688 
L 229.725617 145.215688 
" clip-path="url(#p76f3f9c287)" style="fill: none; stroke: #008000; stroke-width: 0.75; stroke-linecap: square"/>
   </g>
   <g id="line2d_52">
    <path d="M 202.730809 167.365303 
L 201.299064 189.493278 
L 201.299064 189.493278 
" clip-path="url(#p76f3f9c287)" style="fill: none; stroke: #008000; stroke-width: 0.75; stroke-linecap: square"/>
   </g>
   <g id="line2d_53">
    <path d="M 83.163921 62.974338 
L 80.38905 70.184134 
L 80.38905 70.184134 
" clip-path="url(#p76f3f9c287)" style="fill: none; stroke: #008000; stroke-width: 0.75; stroke-linecap: square"/>
   </g>
   <g id="line2d_54">
    <path d="M 83.163921 62.974338 
L 91.790816 55.123428 
L 91.790816 55.123428 
" clip-path="url(#p76f3f9c287)" style="fill: none; stroke: #008000; stroke-width: 0.75; stroke-linecap: square"/>
   </g>
   <g id="line2d_55">
    <path d="M 94.263183 99.841193 
L 95.953885 126.837735 
L 95.953885 126.837735 
" clip-path="url(#p76f3f9c287)" style="fill: none; stroke: #008000; stroke-width: 0.75; stroke-linecap: square"/>
   </g>
   <g id="line2d_56">
    <path d="M 94.263183 99.841193 
L 91.790816 55.123428 
L 91.790816 55.123428 
" clip-path="url(#p76f3f9c287)" style="fill: none; stroke: #008000; stroke-width: 0.75; stroke-linecap: square"/>
   </g>
   <g id="line2d_57">
    <path d="M 94.766337 129.604946 
L 95.953885 126.837735 
L 95.953885 126.837735 
" clip-path="url(#p76f3f9c287)" style="fill: none; stroke: #008000; stroke-width: 0.75; stroke-linecap: square"/>
   </g>
   <g id="line2d_58">
    <path d="M 94.766337 129.604946 
L 93.772897 135.484532 
L 93.772897 135.484532 
" clip-path="url(#p76f3f9c287)" style="fill: none; stroke: #008000; stroke-width: 0.75; stroke-linecap: square"/>
   </g>
   <g id="line2d_59">
    <path d="M 95.075383 136.297512 
L 93.772897 135.484532 
L 93.772897 135.484532 
" clip-path="url(#p76f3f9c287)" style="fill: none; stroke: #008000; stroke-width: 0.75; stroke-linecap: square"/>
   </g>
   <g id="line2d_60">
    <path d="M 95.075383 136.297512 
L 93.772897 135.484532 
L 93.772897 135.484532 
" clip-path="url(#p76f3f9c287)" style="fill: none; stroke: #008000; stroke-width: 0.75; stroke-linecap: square"/>
   </g>
   <g id="line2d_61">
    <path d="M 177.167747 167.130997 
L 157.696382 157.341545 
L 154.842506 155.927707 
L 154.842506 155.927707 
" clip-path="url(#p76f3f9c287)" style="fill: none; stroke: #008000; stroke-width: 0.75; stroke-linecap: square"/>
   </g>
   <g id="line2d_62">
    <path d="M 154.842506 155.927707 
L 137.049197 140.492935 
L 136.351877 139.894041 
L 136.351877 139.894041 
" clip-path="url(#p76f3f9c287)" style="fill: none; stroke: #008000; stroke-width: 0.75; stroke-linecap: square"/>
   </g>
   <g id="line2d_63">
    <path d="M 154.842506 155.927707 
L 143.264953 172.674684 
L 143.264953 172.674684 
" clip-path="url(#p76f3f9c287)" style="fill: none; stroke: #008000; stroke-width: 0.75; stroke-linecap: square"/>
   </g>
   <g id="line2d_64">
    <path d="M 130.390367 139.853449 
L 136.351877 139.894041 
L 136.351877 139.894041 
" clip-path="url(#p76f3f9c287)" style="fill: none; stroke: #008000; stroke-width: 0.75; stroke-linecap: square"/>
   </g>
   <g id="line2d_65">
    <path d="M 130.390367 139.853449 
L 130.299419 135.573515 
L 130.299419 135.573515 
" clip-path="url(#p76f3f9c287)" style="fill: none; stroke: #008000; stroke-width: 0.75; stroke-linecap: square"/>
   </g>
   <g id="line2d_66">
    <path d="M 130.390367 139.853449 
L 139.048014 152.812402 
L 139.048014 152.812402 
" clip-path="url(#p76f3f9c287)" style="fill: none; stroke: #008000; stroke-width: 0.75; stroke-linecap: square"/>
   </g>
   <g id="line2d_67">
    <path d="M 139.048014 152.812402 
L 143.264953 172.674684 
L 143.264953 172.674684 
" clip-path="url(#p76f3f9c287)" style="fill: none; stroke: #008000; stroke-width: 0.75; stroke-linecap: square"/>
   </g>
   <g id="line2d_68">
    <path d="M 143.264953 172.674684 
L 132.929254 174.489589 
L 132.929254 174.489589 
" clip-path="url(#p76f3f9c287)" style="fill: none; stroke: #008000; stroke-width: 0.75; stroke-linecap: square"/>
   </g>
   <g id="line2d_69">
    <path d="M 136.351877 139.894041 
L 143.8584 132.228784 
L 143.8584 132.228784 
" clip-path="url(#p76f3f9c287)" style="fill: none; stroke: #008000; stroke-width: 0.75; stroke-linecap: square"/>
   </g>
   <g id="line2d_70">
    <path d="M 136.351877 139.894041 
L 156.768517 139.921132 
L 177.18216 140.170837 
L 189.163614 140.421074 
L 189.163614 140.421074 
" clip-path="url(#p76f3f9c287)" style="fill: none; stroke: #008000; stroke-width: 0.75; stroke-linecap: square"/>
   </g>
   <g id="line2d_71">
    <path d="M 143.8584 132.228784 
L 144.845515 122.003406 
L 144.845515 122.003406 
" clip-path="url(#p76f3f9c287)" style="fill: none; stroke: #008000; stroke-width: 0.75; stroke-linecap: square"/>
   </g>
   <g id="line2d_72">
    <path d="M 144.845515 122.003406 
L 130.299419 135.573515 
L 130.299419 135.573515 
" clip-path="url(#p76f3f9c287)" style="fill: none; stroke: #008000; stroke-width: 0.75; stroke-linecap: square"/>
   </g>
   <g id="line2d_73">
    <path d="M 175.28381 195.239171 
L 195.836897 190.669377 
L 201.299064 189.493278 
L 201.299064 189.493278 
" clip-path="url(#p76f3f9c287)" style="fill: none; stroke: #008000; stroke-width: 0.75; stroke-linecap: square"/>
   </g>
   <g id="line2d_74">
    <path d="M 175.28381 195.239171 
L 169.498087 212.102483 
L 169.498087 212.102483 
" clip-path="url(#p76f3f9c287)" style="fill: none; stroke: #008000; stroke-width: 0.75; stroke-linecap: square"/>
   </g>
   <g id="line2d_75">
    <path d="M 180.535628 88.449484 
L 186.279258 100.627909 
L 186.279258 100.627909 
" clip-path="url(#p76f3f9c287)" style="fill: none; stroke: #008000; stroke-width: 0.75; stroke-linecap: square"/>
   </g>
   <g id="line2d_76">
    <path d="M 186.279258 100.627909 
L 194.92491 111.738014 
L 194.92491 111.738014 
" clip-path="url(#p76f3f9c287)" style="fill: none; stroke: #008000; stroke-width: 0.75; stroke-linecap: square"/>
   </g>
   <g id="line2d_77">
    <path d="M 194.92491 111.738014 
L 195.977237 116.555981 
L 195.977237 116.555981 
" clip-path="url(#p76f3f9c287)" style="fill: none; stroke: #008000; stroke-width: 0.75; stroke-linecap: square"/>
   </g>
   <g id="line2d_78">
    <path d="M 195.977237 116.555981 
L 189.163614 140.421074 
L 189.163614 140.421074 
" clip-path="url(#p76f3f9c287)" style="fill: none; stroke: #008000; stroke-width: 0.75; stroke-linecap: square"/>
   </g>
   <g id="line2d_79">
    <path d="M 189.163614 140.421074 
L 209.520921 142.716221 
L 229.725617 145.215688 
L 229.725617 145.215688 
" clip-path="url(#p76f3f9c287)" style="fill: none; stroke: #008000; stroke-width: 0.75; stroke-linecap: square"/>
   </g>
   <g id="patch_8">
    <path d="M 7.2 273.312 
L 7.2 7.2 
" style="fill: none; stroke: #ffffff; stroke-linejoin: miter; stroke-linecap: square"/>
   </g>
   <g id="patch_9">
    <path d="M 266.81322 273.312 
L 266.81322 7.2 
" style="fill: none; stroke: #ffffff; stroke-linejoin: miter; stroke-linecap: square"/>
   </g>
   <g id="patch_10">
    <path d="M 7.2 273.312 
L 266.81322 273.312 
" style="fill: none; stroke: #ffffff; stroke-linejoin: miter; stroke-linecap: square"/>
   </g>
   <g id="patch_11">
    <path d="M 7.2 7.2 
L 266.81322 7.2 
" style="fill: none; stroke: #ffffff; stroke-linejoin: miter; stroke-linecap: square"/>
   </g>
   <g id="PathCollection_1">
    <defs>
     <path id="m4efd6c62b5" d="M 0 1.118034 
C 0.296506 1.118034 0.580908 1.000231 0.790569 0.790569 
C 1.000231 0.580908 1.118034 0.296506 1.118034 0 
C 1.118034 -0.296506 1.000231 -0.580908 0.790569 -0.790569 
C 0.580908 -1.000231 0.296506 -1.118034 0 -1.118034 
C -0.296506 -1.118034 -0.580908 -1.000231 -0.790569 -0.790569 
C -1.000231 -0.580908 -1.118034 -0.296506 -1.118034 0 
C -1.118034 0.296506 -1.000231 0.580908 -0.790569 0.790569 
C -0.580908 1.000231 -0.296506 1.118034 0 1.118034 
z
" style="stroke: #ff0000"/>
    </defs>
    <g clip-path="url(#p76f3f9c287)">
     <use xlink:href="#m4efd6c62b5" x="132.396221" y="194.971615" style="fill: #ff0000; stroke: #ff0000"/>
    </g>
   </g>
   <g id="PathCollection_2">
    <g clip-path="url(#p76f3f9c287)">
     <use xlink:href="#m4efd6c62b5" x="124.362554" y="212.009094" style="fill: #ff0000; stroke: #ff0000"/>
    </g>
   </g>
   <g id="PathCollection_3">
    <g clip-path="url(#p76f3f9c287)">
     <use xlink:href="#m4efd6c62b5" x="140.7084" y="201.965961" style="fill: #ff0000; stroke: #ff0000"/>
    </g>
   </g>
   <g id="PathCollection_4">
    <g clip-path="url(#p76f3f9c287)">
     <use xlink:href="#m4efd6c62b5" x="133.51703" y="199.356836" style="fill: #ff0000; stroke: #ff0000"/>
    </g>
   </g>
   <g id="PathCollection_5">
    <g clip-path="url(#p76f3f9c287)">
     <use xlink:href="#m4efd6c62b5" x="67.503995" y="229.938721" style="fill: #ff0000; stroke: #ff0000"/>
    </g>
   </g>
   <g id="PathCollection_6">
    <g clip-path="url(#p76f3f9c287)">
     <use xlink:href="#m4efd6c62b5" x="137.557745" y="210.99278" style="fill: #ff0000; stroke: #ff0000"/>
    </g>
   </g>
   <g id="PathCollection_7">
    <g clip-path="url(#p76f3f9c287)">
     <use xlink:href="#m4efd6c62b5" x="141.090291" y="237.474191" style="fill: #ff0000; stroke: #ff0000"/>
    </g>
   </g>
   <g id="PathCollection_8">
    <g clip-path="url(#p76f3f9c287)">
     <use xlink:href="#m4efd6c62b5" x="167.346761" y="108.960315" style="fill: #ff0000; stroke: #ff0000"/>
    </g>
   </g>
   <g id="PathCollection_9">
    <g clip-path="url(#p76f3f9c287)">
     <use xlink:href="#m4efd6c62b5" x="170.709408" y="123.354443" style="fill: #ff0000; stroke: #ff0000"/>
    </g>
   </g>
   <g id="PathCollection_10">
    <g clip-path="url(#p76f3f9c287)">
     <use xlink:href="#m4efd6c62b5" x="44.287603" y="227.087016" style="fill: #ff0000; stroke: #ff0000"/>
    </g>
   </g>
   <g id="PathCollection_11">
    <g clip-path="url(#p76f3f9c287)">
     <use xlink:href="#m4efd6c62b5" x="116.753089" y="176.488135" style="fill: #ff0000; stroke: #ff0000"/>
    </g>
   </g>
   <g id="PathCollection_12">
    <g clip-path="url(#p76f3f9c287)">
     <use xlink:href="#m4efd6c62b5" x="143.081968" y="102.093932" style="fill: #ff0000; stroke: #ff0000"/>
    </g>
   </g>
   <g id="PathCollection_13">
    <g clip-path="url(#p76f3f9c287)">
     <use xlink:href="#m4efd6c62b5" x="130.425699" y="94.004707" style="fill: #ff0000; stroke: #ff0000"/>
    </g>
   </g>
   <g id="PathCollection_14">
    <g clip-path="url(#p76f3f9c287)">
     <use xlink:href="#m4efd6c62b5" x="106.477585" y="142.480195" style="fill: #ff0000; stroke: #ff0000"/>
    </g>
   </g>
   <g id="PathCollection_15">
    <g clip-path="url(#p76f3f9c287)">
     <use xlink:href="#m4efd6c62b5" x="153.733474" y="121.135205" style="fill: #ff0000; stroke: #ff0000"/>
    </g>
   </g>
   <g id="PathCollection_16">
    <g clip-path="url(#p76f3f9c287)">
     <use xlink:href="#m4efd6c62b5" x="68.363304" y="122.610079" style="fill: #ff0000; stroke: #ff0000"/>
    </g>
   </g>
   <g id="PathCollection_17">
    <g clip-path="url(#p76f3f9c287)">
     <use xlink:href="#m4efd6c62b5" x="61.662657" y="98.821869" style="fill: #ff0000; stroke: #ff0000"/>
    </g>
   </g>
   <g id="PathCollection_18">
    <g clip-path="url(#p76f3f9c287)">
     <use xlink:href="#m4efd6c62b5" x="149.226464" y="182.874858" style="fill: #ff0000; stroke: #ff0000"/>
    </g>
   </g>
   <g id="PathCollection_19">
    <g clip-path="url(#p76f3f9c287)">
     <use xlink:href="#m4efd6c62b5" x="142.81676" y="185.387499" style="fill: #ff0000; stroke: #ff0000"/>
    </g>
   </g>
   <g id="PathCollection_20">
    <g clip-path="url(#p76f3f9c287)">
     <use xlink:href="#m4efd6c62b5" x="84.091931" y="203.049954" style="fill: #ff0000; stroke: #ff0000"/>
    </g>
   </g>
   <g id="PathCollection_21">
    <g clip-path="url(#p76f3f9c287)">
     <use xlink:href="#m4efd6c62b5" x="105.005855" y="203.513049" style="fill: #ff0000; stroke: #ff0000"/>
    </g>
   </g>
   <g id="PathCollection_22">
    <g clip-path="url(#p76f3f9c287)">
     <use xlink:href="#m4efd6c62b5" x="86.915219" y="185.070959" style="fill: #ff0000; stroke: #ff0000"/>
    </g>
   </g>
   <g id="PathCollection_23">
    <g clip-path="url(#p76f3f9c287)">
     <use xlink:href="#m4efd6c62b5" x="70.551053" y="174.553536" style="fill: #ff0000; stroke: #ff0000"/>
    </g>
   </g>
   <g id="PathCollection_24">
    <g clip-path="url(#p76f3f9c287)">
     <use xlink:href="#m4efd6c62b5" x="57.567635" y="168.538126" style="fill: #ff0000; stroke: #ff0000"/>
    </g>
   </g>
   <g id="PathCollection_25">
    <g clip-path="url(#p76f3f9c287)">
     <use xlink:href="#m4efd6c62b5" x="56.374199" y="194.025372" style="fill: #ff0000; stroke: #ff0000"/>
    </g>
   </g>
   <g id="PathCollection_26">
    <g clip-path="url(#p76f3f9c287)">
     <use xlink:href="#m4efd6c62b5" x="185.114175" y="122.420552" style="fill: #ff0000; stroke: #ff0000"/>
    </g>
   </g>
   <g id="PathCollection_27">
    <g clip-path="url(#p76f3f9c287)">
     <use xlink:href="#m4efd6c62b5" x="144.117065" y="47.647286" style="fill: #ff0000; stroke: #ff0000"/>
    </g>
   </g>
   <g id="PathCollection_28">
    <g clip-path="url(#p76f3f9c287)">
     <use xlink:href="#m4efd6c62b5" x="162.723504" y="83.086551" style="fill: #ff0000; stroke: #ff0000"/>
    </g>
   </g>
   <g id="PathCollection_29">
    <g clip-path="url(#p76f3f9c287)">
     <use xlink:href="#m4efd6c62b5" x="110.19137" y="142.990469" style="fill: #ff0000; stroke: #ff0000"/>
    </g>
   </g>
   <g id="PathCollection_30">
    <g clip-path="url(#p76f3f9c287)">
     <use xlink:href="#m4efd6c62b5" x="99.855671" y="134.980413" style="fill: #ff0000; stroke: #ff0000"/>
    </g>
   </g>
   <g id="PathCollection_31">
    <g clip-path="url(#p76f3f9c287)">
     <use xlink:href="#m4efd6c62b5" x="174.071181" y="82.551312" style="fill: #ff0000; stroke: #ff0000"/>
    </g>
   </g>
   <g id="PathCollection_32">
    <defs>
     <path id="m3f0b0cab93" d="M 0 1.118034 
C 0.296506 1.118034 0.580908 1.000231 0.790569 0.790569 
C 1.000231 0.580908 1.118034 0.296506 1.118034 0 
C 1.118034 -0.296506 1.000231 -0.580908 0.790569 -0.790569 
C 0.580908 -1.000231 0.296506 -1.118034 0 -1.118034 
C -0.296506 -1.118034 -0.580908 -1.000231 -0.790569 -0.790569 
C -1.000231 -0.580908 -1.118034 -0.296506 -1.118034 0 
C -1.118034 0.296506 -1.000231 0.580908 -0.790569 0.790569 
C -0.580908 1.000231 -0.296506 1.118034 0 1.118034 
z
" style="stroke: #ffff00"/>
    </defs>
    <g clip-path="url(#p76f3f9c287)">
     <use xlink:href="#m3f0b0cab93" x="78.424035" y="172.289952" style="fill: #ffff00; stroke: #ffff00"/>
    </g>
   </g>
   <g id="PathCollection_33">
    <g clip-path="url(#p76f3f9c287)">
     <use xlink:href="#m4efd6c62b5" x="180.535628" y="88.449484" style="fill: #ff0000; stroke: #ff0000"/>
    </g>
   </g>
   <g id="PathCollection_34">
    <g clip-path="url(#p76f3f9c287)">
     <use xlink:href="#m3f0b0cab93" x="202.730809" y="167.365303" style="fill: #ffff00; stroke: #ffff00"/>
    </g>
   </g>
   <g id="PathCollection_35">
    <g clip-path="url(#p76f3f9c287)">
     <use xlink:href="#m4efd6c62b5" x="83.163921" y="62.974338" style="fill: #ff0000; stroke: #ff0000"/>
    </g>
   </g>
   <g id="PathCollection_36">
    <g clip-path="url(#p76f3f9c287)">
     <use xlink:href="#m4efd6c62b5" x="80.38905" y="70.184134" style="fill: #ff0000; stroke: #ff0000"/>
    </g>
   </g>
   <g id="PathCollection_37">
    <g clip-path="url(#p76f3f9c287)">
     <use xlink:href="#m4efd6c62b5" x="94.263183" y="99.841193" style="fill: #ff0000; stroke: #ff0000"/>
    </g>
   </g>
   <g id="PathCollection_38">
    <g clip-path="url(#p76f3f9c287)">
     <use xlink:href="#m4efd6c62b5" x="91.790816" y="55.123428" style="fill: #ff0000; stroke: #ff0000"/>
    </g>
   </g>
   <g id="PathCollection_39">
    <g clip-path="url(#p76f3f9c287)">
     <use xlink:href="#m4efd6c62b5" x="94.766337" y="129.604946" style="fill: #ff0000; stroke: #ff0000"/>
    </g>
   </g>
   <g id="PathCollection_40">
    <g clip-path="url(#p76f3f9c287)">
     <use xlink:href="#m4efd6c62b5" x="95.953885" y="126.837735" style="fill: #ff0000; stroke: #ff0000"/>
    </g>
   </g>
   <g id="PathCollection_41">
    <g clip-path="url(#p76f3f9c287)">
     <use xlink:href="#m4efd6c62b5" x="95.075383" y="136.297512" style="fill: #ff0000; stroke: #ff0000"/>
    </g>
   </g>
   <g id="PathCollection_42">
    <g clip-path="url(#p76f3f9c287)">
     <use xlink:href="#m4efd6c62b5" x="93.772897" y="135.484532" style="fill: #ff0000; stroke: #ff0000"/>
    </g>
   </g>
   <g id="PathCollection_43">
    <g clip-path="url(#p76f3f9c287)">
     <use xlink:href="#m4efd6c62b5" x="177.167747" y="167.130997" style="fill: #ff0000; stroke: #ff0000"/>
    </g>
   </g>
   <g id="PathCollection_44">
    <g clip-path="url(#p76f3f9c287)">
     <use xlink:href="#m4efd6c62b5" x="154.842506" y="155.927707" style="fill: #ff0000; stroke: #ff0000"/>
    </g>
   </g>
   <g id="PathCollection_45">
    <g clip-path="url(#p76f3f9c287)">
     <use xlink:href="#m4efd6c62b5" x="130.390367" y="139.853449" style="fill: #ff0000; stroke: #ff0000"/>
    </g>
   </g>
   <g id="PathCollection_46">
    <g clip-path="url(#p76f3f9c287)">
     <use xlink:href="#m4efd6c62b5" x="139.048014" y="152.812402" style="fill: #ff0000; stroke: #ff0000"/>
    </g>
   </g>
   <g id="PathCollection_47">
    <g clip-path="url(#p76f3f9c287)">
     <use xlink:href="#m4efd6c62b5" x="143.264953" y="172.674684" style="fill: #ff0000; stroke: #ff0000"/>
    </g>
   </g>
   <g id="PathCollection_48">
    <g clip-path="url(#p76f3f9c287)">
     <use xlink:href="#m4efd6c62b5" x="132.929254" y="174.489589" style="fill: #ff0000; stroke: #ff0000"/>
    </g>
   </g>
   <g id="PathCollection_49">
    <g clip-path="url(#p76f3f9c287)">
     <use xlink:href="#m4efd6c62b5" x="136.351877" y="139.894041" style="fill: #ff0000; stroke: #ff0000"/>
    </g>
   </g>
   <g id="PathCollection_50">
    <g clip-path="url(#p76f3f9c287)">
     <use xlink:href="#m4efd6c62b5" x="143.8584" y="132.228784" style="fill: #ff0000; stroke: #ff0000"/>
    </g>
   </g>
   <g id="PathCollection_51">
    <g clip-path="url(#p76f3f9c287)">
     <use xlink:href="#m4efd6c62b5" x="144.845515" y="122.003406" style="fill: #ff0000; stroke: #ff0000"/>
    </g>
   </g>
   <g id="PathCollection_52">
    <g clip-path="url(#p76f3f9c287)">
     <use xlink:href="#m4efd6c62b5" x="130.299419" y="135.573515" style="fill: #ff0000; stroke: #ff0000"/>
    </g>
   </g>
   <g id="PathCollection_53">
    <g clip-path="url(#p76f3f9c287)">
     <use xlink:href="#m4efd6c62b5" x="175.28381" y="195.239171" style="fill: #ff0000; stroke: #ff0000"/>
    </g>
   </g>
   <g id="PathCollection_54">
    <g clip-path="url(#p76f3f9c287)">
     <use xlink:href="#m4efd6c62b5" x="169.498087" y="212.102483" style="fill: #ff0000; stroke: #ff0000"/>
    </g>
   </g>
   <g id="PathCollection_55">
    <g clip-path="url(#p76f3f9c287)">
     <use xlink:href="#m4efd6c62b5" x="180.535628" y="88.449484" style="fill: #ff0000; stroke: #ff0000"/>
    </g>
   </g>
   <g id="PathCollection_56">
    <g clip-path="url(#p76f3f9c287)">
     <use xlink:href="#m4efd6c62b5" x="186.279258" y="100.627909" style="fill: #ff0000; stroke: #ff0000"/>
    </g>
   </g>
   <g id="PathCollection_57">
    <g clip-path="url(#p76f3f9c287)">
     <use xlink:href="#m4efd6c62b5" x="194.92491" y="111.738014" style="fill: #ff0000; stroke: #ff0000"/>
    </g>
   </g>
   <g id="PathCollection_58">
    <g clip-path="url(#p76f3f9c287)">
     <use xlink:href="#m4efd6c62b5" x="195.977237" y="116.555981" style="fill: #ff0000; stroke: #ff0000"/>
    </g>
   </g>
   <g id="PathCollection_59">
    <g clip-path="url(#p76f3f9c287)">
     <use xlink:href="#m4efd6c62b5" x="189.163614" y="140.421074" style="fill: #ff0000; stroke: #ff0000"/>
    </g>
   </g>
   <g id="PathCollection_60">
    <g clip-path="url(#p76f3f9c287)">
     <use xlink:href="#m4efd6c62b5" x="229.725617" y="145.215688" style="fill: #ff0000; stroke: #ff0000"/>
    </g>
   </g>
   <g id="PathCollection_61">
    <g clip-path="url(#p76f3f9c287)">
     <use xlink:href="#m4efd6c62b5" x="201.299064" y="189.493278" style="fill: #ff0000; stroke: #ff0000"/>
    </g>
   </g>
  </g>
 </g>
 <defs>
  <clipPath id="p76f3f9c287">
   <rect x="7.2" y="7.2" width="259.61322" height="266.112"/>
  </clipPath>
 </defs>
</svg>
