<?xml version="1.0" encoding="utf-8" standalone="no"?>
<!DOCTYPE svg PUBLIC "-//W3C//DTD SVG 1.1//EN"
  "http://www.w3.org/Graphics/SVG/1.1/DTD/svg11.dtd">
<svg xmlns:xlink="http://www.w3.org/1999/xlink" width="286.517125pt" height="280.512pt" viewBox="0 0 286.517125 280.512" xmlns="http://www.w3.org/2000/svg" version="1.1">
 <metadata>
  <rdf:RDF xmlns:dc="http://purl.org/dc/elements/1.1/" xmlns:cc="http://creativecommons.org/ns#" xmlns:rdf="http://www.w3.org/1999/02/22-rdf-syntax-ns#">
   <cc:Work>
    <dc:type rdf:resource="http://purl.org/dc/dcmitype/StillImage"/>
    <dc:date>2025-12-17T16:19:39.588268</dc:date>
    <dc:format>image/svg+xml</dc:format>
    <dc:creator>
     <cc:Agent>
      <dc:title>Matplotlib v3.10.6, https://matplotlib.org/</dc:title>
     </cc:Agent>
    </dc:creator>
   </cc:Work>
  </rdf:RDF>
 </metadata>
 <defs>
  <style type="text/css">*{stroke-linejoin: round; stroke-linecap: butt}</style>
 </defs>
 <g id="figure_1">
  <g id="patch_1">
   <path d="M 0 280.512 
L 286.517125 280.512 
L 286.517125 0 
L 0 0 
z
" style="fill: #ffffff"/>
  </g>
  <g id="axes_1">
   <g id="patch_2">
    <path d="M 7.2 273.312 
L 279.317125 273.312 
L 279.317125 7.2 
L 7.2 7.2 
z
" clip-path="url(#p69ff10339f)" style="fill: #add8e6; stroke: #ffffff; stroke-linejoin: miter"/>
   </g>
   <g id="patch_3">
    <path d="M 7.2 273.312 
L 279.317125 273.312 
L 279.317125 7.2 
L 7.2 7.2 
z
" clip-path="url(#p69ff10339f)" style="fill: #add8e6; stroke: #ffffff; stroke-linejoin: miter"/>
   </g>
   <g id="patch_4">
    <path d="M 279.317129 135.832303 
L 275.228466 131.043275 
L 275.213297 135.034592 
L 271.054016 126.346196 
L 273.48085 128.289399 
L 276.525657 123.521377 
L 273.351143 124.090631 
L 272.792523 120.086168 
L 279.317129 122.056029 
z
" clip-path="url(#p69ff10339f)" style="fill: #d3d3d3"/>
   </g>
   <g id="patch_5">
    <path d="M 279.317129 120.356115 
L 275.658477 117.732657 
L 274.602238 112.057418 
L 272.606493 116.108719 
L 272.958403 111.604766 
L 271.071117 118.224065 
L 272.564545 110.877125 
L 274.324036 109.273215 
L 277.243263 114.793635 
L 276.275332 109.96754 
L 279.317129 108.47524 
z
" clip-path="url(#p69ff10339f)" style="fill: #d3d3d3"/>
   </g>
   <g id="patch_6">
    <path d="M 279.317129 108.459543 
L 275.98001 109.782892 
L 275.076677 104.631788 
L 272.633821 107.552551 
L 271.063126 105.060915 
L 269.732812 109.831093 
L 272.080996 101.20391 
L 275.401239 104.355264 
L 279.317129 99.200032 
z
" clip-path="url(#p69ff10339f)" style="fill: #d3d3d3"/>
   </g>
   <g id="patch_7">
    <path d="M 279.317129 98.95294 
L 277.204894 97.144568 
L 275.161956 100.365563 
L 273.278004 96.063908 
L 276.670288 87.981335 
L 279.317129 86.459298 
z
" clip-path="url(#p69ff10339f)" style="fill: #d3d3d3"/>
   </g>
   <g id="patch_8">
    <path d="M 279.317129 83.012154 
L 275.128832 86.669241 
L 275.25553 81.089894 
L 273.311127 81.956423 
L 273.215621 88.969438 
L 270.12362 84.296718 
L 268.891578 91.378866 
L 265.629834 88.79575 
L 269.044465 91.775855 
L 267.408357 93.874833 
L 266.125258 90.552272 
L 260.621593 90.805362 
L 267.857685 96.697334 
L 267.781232 100.131343 
L 264.290147 98.873172 
L 269.144933 102.201183 
L 266.917916 104.111019 
L 262.276468 99.647184 
L 267.110005 105.664217 
L 263.50851 105.245471 
L 265.717329 110.320132 
L 262.940781 113.646536 
L 264.970483 125.615433 
L 269.618274 131.391882 
L 265.629834 134.266325 
L 269.921588 135.380667 
L 271.73848 147.473151 
L 259.359437 137.319682 
L 256.113716 138.958616 
L 249.885286 135.724607 
L 246.340095 126.190676 
L 243.900268 130.46605 
L 242.278516 128.476894 
L 238.295037 131.78939 
L 237.295386 126.746774 
L 241.052533 122.800242 
L 238.734158 118.644011 
L 235.057307 133.314203 
L 245.668035 130.698502 
L 247.600299 139.882088 
L 261.529886 142.271274 
L 266.361227 150.670306 
L 274.854494 154.198794 
L 270.588951 164.136668 
L 273.317186 166.867628 
L 270.317642 167.128933 
L 266.649636 163.241439 
L 264.939556 165.598803 
L 262.261564 159.669661 
L 249.82207 149.928035 
L 263.558754 166.534181 
L 272.647892 169.280971 
L 268.470677 171.02208 
L 274.021536 174.233946 
L 273.513973 180.684701 
L 267.105857 175.25141 
L 266.809437 181.103864 
L 270.13273 182.392251 
L 265.224935 183.651041 
L 254.176206 170.60795 
L 260.996378 181.116695 
L 272.856818 188.96128 
L 272.356453 194.92412 
L 267.863765 196.243611 
L 259.969399 184.812313 
L 247.780249 183.796303 
L 256.731668 188.116864 
L 258.668894 185.817983 
L 259.404719 192.652267 
L 265.858911 196.715107 
L 264.415991 201.205751 
L 270.57791 198.167523 
L 273.066862 202.045587 
L 272.868977 196.130648 
L 279.317129 199.492692 
L 279.317129 228.3107 
L 275.853332 226.335492 
L 279.317129 230.900414 
L 279.317129 233.648859 
L 276.637165 234.183096 
L 273.110192 230.371466 
L 275.580926 235.48779 
L 266.898863 230.783972 
L 272.491121 235.394884 
L 264.881057 239.515999 
L 257.254136 234.408266 
L 256.787972 242.775478 
L 268.94898 240.48345 
L 274.19624 243.352512 
L 272.009789 242.140051 
L 279.317129 240.552413 
L 279.317129 267.805989 
L 277.875287 269.794211 
L 270.727503 265.875405 
L 268.859553 268.834707 
L 268.19522 263.915408 
L 266.656814 267.80082 
L 264.21589 266.542494 
L 262.180962 261.74854 
L 266.312102 260.338505 
L 259.859822 259.896525 
L 262.648224 267.094357 
L 247.437469 262.808582 
L 266.584509 272.621159 
L 263.55237 273.312 
L 7.2 273.312 
L 7.2 7.199999 
L 279.317129 7.199999 
z
" clip-path="url(#p69ff10339f)" style="fill: #d3d3d3"/>
   </g>
   <g id="matplotlib.axis_1"/>
   <g id="matplotlib.axis_2"/>
   <g id="LineCollection_1">
    <path d="M 279.317125 135.832304 
L 275.228473 131.043273 
L 275.213293 135.034589 
L 271.054011 126.346196 
L 273.480857 128.289401 
L 276.525661 123.521378 
L 273.351138 124.090627 
L 272.792519 120.086171 
L 279.317125 122.056031 
" clip-path="url(#p69ff10339f)" style="fill: none; stroke: #000000; stroke-width: 0.6"/>
    <path d="M 279.317125 120.356118 
L 275.658477 117.732656 
L 274.602235 112.057419 
L 272.606497 116.108715 
L 272.958394 111.604764 
L 271.071123 118.224067 
L 272.564545 110.877129 
L 274.324029 109.273214 
L 277.243255 114.793632 
L 276.275332 109.967536 
L 279.317125 108.475244 
" clip-path="url(#p69ff10339f)" style="fill: none; stroke: #000000; stroke-width: 0.6"/>
    <path d="M 279.317125 108.459538 
L 275.980014 109.782894 
L 275.076675 104.631793 
L 272.633821 107.552553 
L 271.063119 105.060915 
L 269.732811 109.831094 
L 272.080998 101.203909 
L 275.401248 104.355265 
L 279.317125 99.200032 
" clip-path="url(#p69ff10339f)" style="fill: none; stroke: #000000; stroke-width: 0.6"/>
    <path d="M 279.317125 98.952942 
L 277.204891 97.144574 
L 275.161958 100.365573 
L 273.277999 96.063918 
L 276.670284 87.981345 
L 279.317125 86.459304 
" clip-path="url(#p69ff10339f)" style="fill: none; stroke: #000000; stroke-width: 0.6"/>
    <path d="M 279.317125 83.01216 
L 275.128838 86.669248 
L 275.255521 81.089898 
L 273.311119 81.956414 
L 273.215624 88.969441 
L 270.123624 84.296715 
L 268.891571 91.37886 
L 265.629833 88.795743 
L 269.044474 91.775863 
L 267.408361 93.874829 
L 266.125248 90.552271 
L 260.621583 90.805367 
L 267.857685 96.697339 
L 267.781233 100.131341 
L 264.290141 98.873168 
L 269.144937 102.201176 
L 266.917913 104.111021 
L 262.276464 99.647184 
L 267.110007 105.664218 
L 263.508516 105.245466 
L 265.717324 110.320135 
L 262.940789 113.646531 
L 264.970475 125.615438 
L 269.618272 131.391881 
L 265.629833 134.26633 
L 269.921594 135.380671 
L 271.738485 147.473151 
L 259.359446 137.319681 
L 256.113716 138.958613 
L 249.885281 135.724606 
L 246.340093 126.190676 
L 243.900275 130.466054 
L 242.278514 128.476893 
L 238.295043 131.78939 
L 237.29538 126.746775 
L 241.052533 122.800237 
L 238.734155 118.644006 
L 235.057316 133.314203 
L 245.668039 130.698503 
L 247.600298 139.882092 
L 261.52989 142.271278 
L 266.361226 150.670308 
L 274.854497 154.198789 
L 270.588956 164.136666 
L 273.317191 166.867632 
L 270.31765 167.128936 
L 266.649644 163.241435 
L 264.939563 165.598799 
L 262.26156 159.669665 
L 249.822077 149.928032 
L 263.558748 166.534178 
L 272.647897 169.280974 
L 268.470675 171.022085 
L 274.021536 174.233947 
L 273.513977 180.684699 
L 267.105867 175.251414 
L 266.809446 181.103861 
L 270.132732 182.392254 
L 265.224945 183.65104 
L 254.176214 170.607947 
L 260.996387 181.116699 
L 272.856827 188.961281 
L 272.356443 194.924121 
L 267.863756 196.243611 
L 259.969401 184.812318 
L 247.780248 183.796308 
L 256.731674 188.116862 
L 258.6689 185.817979 
L 259.40471 192.652267 
L 265.858911 196.715105 
L 264.415996 201.205749 
L 270.577916 198.167524 
L 273.066861 202.045586 
L 272.868971 196.13065 
L 279.317125 199.492694 
" clip-path="url(#p69ff10339f)" style="fill: none; stroke: #000000; stroke-width: 0.6"/>
    <path d="M 279.317125 228.310698 
L 275.853331 226.33549 
L 279.317125 230.900414 
" clip-path="url(#p69ff10339f)" style="fill: none; stroke: #000000; stroke-width: 0.6"/>
    <path d="M 279.317125 233.648858 
L 276.637164 234.183097 
L 273.110193 230.371464 
L 275.580922 235.487791 
L 266.898869 230.783972 
L 272.49113 235.394883 
L 264.881052 239.516 
L 257.254137 234.408267 
L 256.787978 242.775478 
L 268.948979 240.483449 
L 274.196243 243.352513 
L 272.009791 242.140051 
L 279.317125 240.552413 
" clip-path="url(#p69ff10339f)" style="fill: none; stroke: #000000; stroke-width: 0.6"/>
    <path d="M 279.317125 267.805989 
L 277.875289 269.794211 
L 270.727506 265.875405 
L 268.859555 268.834707 
L 268.195229 263.915408 
L 266.656819 267.80082 
L 264.215898 266.542494 
L 262.180968 261.74854 
L 266.312099 260.338505 
L 259.85983 259.896525 
L 262.648232 267.094357 
L 247.437459 262.808582 
L 266.584508 272.621159 
L 263.552368 273.312 
" clip-path="url(#p69ff10339f)" style="fill: none; stroke: #000000; stroke-width: 0.6"/>
   </g>
   <g id="LineCollection_2"/>
   <g id="LineCollection_3">
    <path d="M 120.048339 25.583043 
L 114.411091 28.00533 
L 116.943368 41.303461 
L 116.141595 43.947497 
L 115.339822 46.589355 
L 114.53805 49.229042 
L 113.736277 51.866924 
L 112.934504 54.502285 
L 112.132732 57.135493 
L 111.330683 59.766553 
L 110.52891 62.395471 
L 109.727138 65.022254 
L 108.925365 67.647267 
L 108.123592 70.269796 
L 107.32182 72.890207 
L 107.004975 73.925168 
L 105.191947 75.473409 
L 103.378644 77.02163 
L 101.565616 78.568758 
L 99.752313 80.11515 
L 97.939285 81.661167 
L 96.125982 83.205736 
L 94.544516 84.553153 
L 89.439943 86.827712 
L 86.073602 83.733767 
L 81.893068 90.022844 
L 77.753106 90.645669 
L 72.889478 99.51138 
L 74.91944 106.338367 
L 69.141433 108.637245 
L 68.809684 103.637747 
L 64.830352 102.758832 
L 58.51967 113.435543 
L 60.016956 121.095773 
L 56.429541 122.381529 
L 54.691309 128.841274 
L 45.235359 130.31601 
L 36.372252 122.394239 
L 33.880271 114.737011 
L 31.852517 115.729493 
L 29.824764 116.722031 
L 27.79701 117.714271 
L 25.769533 118.706215 
L 23.74178 119.697509 
L 21.714026 120.688507 
L 19.686273 121.679563 
L 19.460231 121.790094 
L 11.843252 116.720616 
L 7.2 118.130299 
" clip-path="url(#p69ff10339f)" style="fill: none; stroke: #ffffff; stroke-width: 0.3"/>
    <path d="M 120.048339 25.583043 
L 114.411091 28.00533 
L 116.943368 41.303461 
L 116.142147 43.94822 
L 115.341202 46.590078 
L 114.539982 49.230486 
L 113.739037 51.868367 
L 112.937816 54.504087 
L 112.136872 57.137654 
L 111.335651 59.769072 
L 110.534706 62.398708 
L 109.733486 65.025488 
L 108.932541 67.650857 
L 108.13132 70.273383 
L 107.330376 72.894508 
L 107.015186 73.925168 
L 105.201607 75.472693 
L 103.388028 77.019841 
L 101.574448 78.566253 
L 99.760869 80.111574 
L 97.947289 81.65652 
L 96.13371 83.200734 
L 94.544516 84.553153 
L 89.439943 86.827712 
L 86.073602 83.733767 
L 81.893068 90.022844 
L 77.753106 90.645669 
L 72.889478 99.51138 
L 74.91944 106.338367 
L 69.141433 108.624127 
L 68.809684 103.637747 
L 64.830352 102.758832 
L 58.51967 113.435543 
L 60.016956 121.095773 
L 56.439753 122.381529 
L 54.691309 128.841274 
L 45.235359 130.31601 
L 36.372252 122.394239 
L 33.880271 114.737011 
L 31.852517 115.729493 
L 29.824764 116.722031 
L 27.79701 117.714271 
L 25.769533 118.706215 
L 23.74178 119.697509 
L 21.714026 120.688507 
L 19.686273 121.679563 
L 19.460231 121.790094 
L 11.843252 116.720616 
L 7.2 118.130299 
" clip-path="url(#p69ff10339f)" style="fill: none; stroke: #ffffff; stroke-width: 0.3"/>
    <path d="M 220.646384 87.672369 
L 217.028885 96.221929 
L 215.171146 94.77428 
L 213.313131 93.326349 
L 211.455392 91.877779 
L 209.597377 90.428567 
L 207.739638 88.978714 
L 205.881623 87.527862 
L 204.023884 86.076365 
L 202.165869 84.624581 
L 200.30813 83.172151 
L 198.780484 81.977145 
L 198.203097 84.686007 
L 197.625986 87.391912 
L 197.0486 90.096292 
L 196.471213 92.798084 
L 195.894102 95.49765 
L 195.836143 95.768161 
L 194.163322 97.551551 
L 192.490501 99.333973 
L 190.817957 101.115074 
L 189.145136 102.895212 
L 187.472315 104.674743 
L 185.799494 106.452959 
L 184.12695 108.230217 
L 182.454129 110.006873 
L 180.781308 111.782575 
L 179.5269 113.113371 
L 175.035317 110.082711 
L 173.807128 112.379693 
L 172.578939 114.675082 
L 171.350751 116.968881 
L 170.122562 119.261094 
L 168.894373 121.551724 
L 167.666184 123.840777 
L 166.437995 126.128607 
L 165.209807 128.414515 
L 164.483933 129.764734 
L 162.508895 128.615743 
L 160.533857 127.466004 
L 158.558819 126.315868 
L 156.583781 125.165335 
L 154.608744 124.014404 
L 152.633706 122.863427 
L 151.300086 122.085648 
L 150.412202 124.618498 
L 149.524318 127.149774 
L 148.636434 129.678776 
L 147.74855 132.206213 
L 146.860666 134.731387 
L 146.074626 136.965012 
L 144.674214 139.077004 
L 143.274079 141.186964 
L 141.873668 143.295947 
L 140.473533 145.403607 
L 139.073121 147.509945 
L 137.672986 149.614966 
L 136.272575 151.718321 
L 134.872164 153.821064 
L 133.472029 155.921799 
L 132.071617 158.021577 
L 130.671482 160.120052 
L 129.271071 162.217226 
L 128.358623 163.582885 
L 130.760353 166.337296 
L 128.619993 171.218348 
L 126.538696 171.994938 
L 124.457399 172.77135 
L 122.376102 173.547585 
L 120.294805 174.323644 
L 118.213508 175.099525 
L 116.132211 175.875231 
L 114.050914 176.65076 
L 111.969617 177.426113 
L 111.848454 177.471267 
L 107.939502 175.422062 
L 104.201392 181.579173 
L 94.655191 183.78868 
L 89.530194 179.405729 
L 81.461132 185.517559 
L 72.336931 181.566337 
L 67.975619 170.610383 
L 65.991749 169.499619 
L 64.00788 168.388839 
L 62.02401 167.277348 
L 60.04014 166.165494 
L 58.05627 165.053623 
L 56.0724 163.940691 
L 55.706151 163.735637 
L 54.439875 161.507145 
L 53.173599 159.277186 
L 51.907598 157.046106 
L 50.641322 154.813551 
L 49.375045 152.57917 
L 48.108769 150.343307 
L 46.842768 148.106309 
L 45.576492 145.867823 
L 44.310216 143.627494 
L 43.486915 142.170198 
L 45.104812 129.982789 
" clip-path="url(#p69ff10339f)" style="fill: none; stroke: #ffffff; stroke-width: 0.3"/>
    <path d="M 7.2 213.66492 
L 8.798724 213.67302 
L 10.969168 213.684706 
L 13.139612 213.695705 
L 15.310057 213.707391 
L 17.480777 213.718389 
L 19.651221 213.730075 
L 21.821665 213.741073 
L 23.992109 213.752759 
L 26.162829 213.763758 
L 28.333274 213.775443 
L 30.503718 213.786441 
L 32.674162 213.798127 
L 34.844882 213.809125 
L 37.015326 213.820811 
L 39.18577 213.831809 
L 41.356215 213.843494 
L 43.526935 213.854492 
L 45.697379 213.866178 
L 47.867823 213.877176 
L 50.038267 213.888861 
L 52.208987 213.899859 
L 54.379432 213.911544 
L 56.549876 213.922542 
L 58.72032 213.934227 
L 60.89104 213.945225 
L 63.061484 213.95691 
L 65.231928 213.967907 
L 67.402373 213.979592 
L 69.573093 213.99059 
L 71.743537 214.002275 
L 73.913981 214.013273 
L 76.084425 214.024957 
L 78.255145 214.035955 
L 80.425589 214.04764 
L 82.596034 214.058637 
L 84.766478 214.070322 
L 86.937198 214.081319 
L 89.107642 214.093004 
L 91.278086 214.104001 
L 93.44853 214.115685 
L 95.619251 214.126683 
L 97.789695 214.138367 
L 99.960139 214.149364 
L 102.130583 214.161048 
L 104.301303 214.172046 
L 106.471747 214.18373 
L 108.642192 214.194727 
L 110.812636 214.206411 
L 112.983356 214.217408 
L 115.1538 214.229092 
L 117.324244 214.240089 
L 119.494688 214.251773 
L 121.665409 214.26277 
L 123.835853 214.274454 
L 126.006297 214.28545 
L 128.176741 214.297134 
L 130.347461 214.308131 
L 132.517905 214.319815 
L 134.68835 214.330811 
L 136.858794 214.342495 
L 139.029514 214.353491 
L 141.199958 214.365175 
L 143.370402 214.376172 
L 145.540846 214.387855 
L 147.711567 214.398851 
L 149.882011 214.410535 
L 152.052455 214.421531 
L 154.222899 214.433215 
L 156.393619 214.444211 
L 158.564063 214.455894 
L 160.734508 214.46689 
L 162.904952 214.478574 
L 165.075672 214.48957 
L 167.246116 214.501253 
L 169.41656 214.512249 
L 171.587004 214.523932 
L 173.757725 214.534928 
L 175.928169 214.546611 
L 178.098613 214.557607 
L 180.269057 214.56929 
L 182.439777 214.580286 
L 184.610221 214.591969 
L 186.780665 214.602964 
L 188.95111 214.614647 
L 191.12183 214.625643 
L 193.292274 214.637325 
L 195.462718 214.648321 
L 197.633162 214.660004 
L 199.803882 214.670999 
L 201.974327 214.682682 
L 204.144771 214.693677 
L 206.315215 214.70536 
L 208.485935 214.716355 
L 210.656379 214.728037 
L 212.826823 214.739033 
L 214.997268 214.750715 
L 217.167988 214.76171 
L 219.338432 214.773393 
L 221.508876 214.784388 
L 223.67932 214.79607 
L 225.85004 214.807065 
L 228.020485 214.818747 
L 230.190929 214.829742 
L 232.361373 214.841424 
L 234.532093 214.852419 
L 236.702537 214.864101 
L 238.872981 214.875096 
L 241.043426 214.886778 
L 243.214146 214.897773 
L 245.38459 214.909454 
L 247.555034 214.920449 
L 249.725478 214.932131 
L 251.896198 214.943125 
L 254.066643 214.954807 
L 256.237087 214.965802 
L 258.407531 214.977483 
L 260.578251 214.988478 
L 262.748695 215.000159 
L 264.919139 215.011154 
L 267.089584 215.022492 
L 269.260304 215.03383 
L 271.430748 215.045167 
L 273.601192 215.056505 
L 275.771636 215.067843 
L 277.942356 215.079181 
L 279.317125 215.086362 
" clip-path="url(#p69ff10339f)" style="fill: none; stroke: #ffffff; stroke-width: 0.3"/>
    <path d="M 7.2 213.66492 
L 8.798724 213.67302 
L 10.969168 213.684706 
L 13.139612 213.695705 
L 15.310057 213.707391 
L 17.480777 213.718389 
L 19.651221 213.730075 
L 21.821665 213.741073 
L 23.992109 213.752759 
L 26.162829 213.763758 
L 28.333274 213.775443 
L 30.503718 213.786441 
L 32.674162 213.798127 
L 34.844882 213.809125 
L 37.015326 213.820811 
L 39.18577 213.831809 
L 41.356215 213.843494 
L 43.526935 213.854492 
L 45.697379 213.866178 
L 47.867823 213.877176 
L 50.038267 213.888861 
L 52.208987 213.899859 
L 54.379432 213.911544 
L 56.549876 213.922542 
L 58.72032 213.934227 
L 60.89104 213.945225 
L 63.061484 213.95691 
L 65.231928 213.967907 
L 67.402373 213.979592 
L 69.573093 213.99059 
L 71.743537 214.002275 
L 73.913981 214.013273 
L 76.084425 214.024957 
L 78.255145 214.035955 
L 80.425589 214.04764 
L 82.596034 214.058637 
L 84.766478 214.070322 
L 86.937198 214.081319 
L 89.107642 214.093004 
L 91.278086 214.104001 
L 93.44853 214.115685 
L 95.619251 214.126683 
L 97.789695 214.138367 
L 99.960139 214.149364 
L 102.130583 214.161048 
L 104.301303 214.172046 
L 106.471747 214.18373 
L 108.642192 214.194727 
L 110.812636 214.206411 
L 112.983356 214.217408 
L 115.1538 214.229092 
L 117.324244 214.240089 
L 119.494688 214.251773 
L 121.665409 214.26277 
L 123.835853 214.274454 
L 126.006297 214.28545 
L 128.176741 214.297134 
L 130.347461 214.308131 
L 132.517905 214.319815 
L 134.68835 214.330811 
L 136.858794 214.342495 
L 139.029514 214.353491 
L 141.199958 214.365175 
L 143.370402 214.376172 
L 145.540846 214.387855 
L 147.711567 214.398851 
L 149.882011 214.410535 
L 152.052455 214.421531 
L 154.222899 214.433215 
L 156.393619 214.444211 
L 158.564063 214.455894 
L 160.734508 214.46689 
L 162.904952 214.478574 
L 165.075672 214.48957 
L 167.246116 214.501253 
L 169.41656 214.512249 
L 171.587004 214.523932 
L 173.757725 214.534928 
L 175.928169 214.546611 
L 178.098613 214.557607 
L 180.269057 214.56929 
L 182.439777 214.580286 
L 184.610221 214.591969 
L 186.780665 214.602964 
L 188.95111 214.614647 
L 191.12183 214.625643 
L 193.292274 214.637325 
L 195.462718 214.648321 
L 197.633162 214.660004 
L 199.803882 214.670999 
L 201.974327 214.682682 
L 204.144771 214.693677 
L 206.315215 214.70536 
L 208.485935 214.716355 
L 210.656379 214.728037 
L 212.826823 214.739033 
L 214.997268 214.750715 
L 217.167988 214.76171 
L 219.338432 214.773393 
L 221.508876 214.784388 
L 223.67932 214.79607 
L 225.85004 214.807065 
L 228.020485 214.818747 
L 230.190929 214.829742 
L 232.361373 214.841424 
L 234.532093 214.852419 
L 236.702537 214.864101 
L 238.872981 214.875096 
L 241.043426 214.886778 
L 243.214146 214.897773 
L 245.38459 214.909454 
L 247.555034 214.920449 
L 249.725478 214.932131 
L 251.896198 214.943125 
L 254.066643 214.954807 
L 256.237087 214.965802 
L 258.407531 214.977483 
L 260.578251 214.988478 
L 262.748695 215.000159 
L 264.919139 215.011154 
L 267.089584 215.022492 
L 269.260304 215.03383 
L 271.430748 215.045167 
L 273.601192 215.056505 
L 275.771636 215.067843 
L 277.942356 215.079181 
L 279.317125 215.086362 
" clip-path="url(#p69ff10339f)" style="fill: none; stroke: #ffffff; stroke-width: 0.3"/>
    <path d="M 220.646384 87.672369 
L 217.028885 96.221929 
L 215.192122 94.730489 
L 213.355359 93.23837 
L 211.518319 91.745573 
L 209.681556 90.252095 
L 207.844793 88.758292 
L 206.00803 87.26345 
L 204.170991 85.767924 
L 202.334227 84.271714 
L 200.497464 82.774817 
L 199.152252 81.677967 
L 198.52077 84.366363 
L 197.889012 87.052547 
L 197.25753 89.736526 
L 196.625772 92.418306 
L 195.994289 95.097894 
L 195.836143 95.768161 
L 194.163874 97.552263 
L 192.491605 99.335395 
L 190.819337 101.117562 
L 189.147068 102.898408 
L 187.474799 104.678648 
L 185.80253 106.457571 
L 184.130262 108.23589 
L 182.457993 110.013252 
L 180.786 111.789659 
L 179.5269 113.126117 
L 175.115632 110.005101 
L 173.884407 112.299659 
L 172.653183 114.592272 
L 171.421958 116.883299 
L 170.190733 119.17345 
L 168.959232 121.461316 
L 167.728008 123.747607 
L 166.496783 126.032681 
L 165.265558 128.316187 
L 164.483933 129.764734 
L 162.519935 128.584732 
L 160.556213 127.403959 
L 158.592215 126.223473 
L 156.628493 125.041863 
L 154.664495 123.860539 
L 152.700773 122.67809 
L 151.460716 121.931695 
L 150.562896 124.459016 
L 149.665077 126.98442 
L 148.767257 129.50791 
L 147.869713 132.029492 
L 146.971893 134.549171 
L 146.165153 136.811744 
L 144.765293 138.923833 
L 143.36571 141.034591 
L 141.965851 143.144372 
L 140.565992 145.252828 
L 139.166409 147.359611 
L 137.766549 149.465076 
L 136.36669 151.569225 
L 134.966831 153.672411 
L 133.567248 155.774286 
L 132.167389 157.874505 
L 130.767529 159.973421 
L 129.367946 162.071384 
L 128.358623 163.582885 
L 130.760353 166.337296 
L 128.75054 171.066628 
L 122.37969 175.320925 
L 119.666635 173.498206 
L 111.848454 177.471267 
L 107.939502 175.422062 
L 106.301733 180.391463 
L 104.189248 181.018159 
L 102.076764 181.64474 
L 99.964279 182.271553 
L 97.851794 182.897905 
L 95.739034 183.524142 
L 94.846182 183.78868 
L 89.530194 179.405729 
L 79.993929 185.404245 
L 78.082095 184.113518 
L 76.17026 182.822651 
L 74.258426 181.531298 
L 72.346315 180.239109 
L 70.434481 178.947127 
L 69.000674 177.977298 
L 67.613787 170.293308 
" clip-path="url(#p69ff10339f)" style="fill: none; stroke: #ffffff; stroke-width: 0.3"/>
    <path d="M 78.828392 212.386291 
L 76.828514 224.345911 
L 69.754423 225.992327 
L 63.715046 235.183098 
L 55.796679 233.640784 
L 53.987515 235.125026 
L 52.178352 236.609325 
L 50.369188 238.092315 
L 48.560025 239.575364 
L 46.750861 241.057108 
L 46.169887 241.533153 
L 43.597314 236.973644 
L 37.30678 242.798998 
L 33.689281 242.016975 
L 30.684772 249.544001 
L 24.333794 250.44783 
L 22.454251 251.785291 
L 20.574708 253.122589 
L 18.695166 254.459043 
L 16.815623 255.794995 
L 14.93608 257.130785 
L 13.056537 258.465735 
L 12.415947 258.920786 
L 10.266479 259.292657 
L 8.117286 259.664489 
L 7.2 259.823156 
" clip-path="url(#p69ff10339f)" style="fill: none; stroke: #ffffff; stroke-width: 0.3"/>
    <path d="M 78.828392 212.386291 
L 76.828514 224.345911 
L 69.754423 225.992327 
L 63.715046 235.183098 
L 55.796679 233.640784 
L 53.987515 235.125026 
L 52.178352 236.609325 
L 50.369188 238.092315 
L 48.560025 239.575364 
L 46.750861 241.057108 
L 46.169887 241.533153 
L 43.607526 236.973644 
L 37.316991 242.798998 
L 33.689281 242.016975 
L 30.684772 249.544001 
L 24.333794 250.44783 
L 22.454251 251.785291 
L 20.574708 253.122589 
L 18.695166 254.459043 
L 16.815623 255.794995 
L 14.93608 257.130785 
L 13.056537 258.465735 
L 12.415947 258.920786 
L 10.266479 259.292657 
L 8.117286 259.664489 
L 7.2 259.823156 
" clip-path="url(#p69ff10339f)" style="fill: none; stroke: #ffffff; stroke-width: 0.3"/>
    <path d="M 45.104812 129.982789 
L 43.33622 141.799896 
L 48.882942 152.250253 
L 50.194758 154.44219 
L 51.506298 156.632703 
L 52.818114 158.821798 
L 54.129654 161.009476 
L 55.44147 163.195743 
L 55.856846 163.887685 
L 57.8501 164.973094 
L 59.843354 166.058157 
L 61.836607 167.142524 
L 63.829861 168.226893 
L 65.823115 169.310916 
L 67.654082 170.306186 
L 65.757428 171.637283 
L 63.861049 172.967512 
L 61.964394 174.297222 
L 60.06774 175.62676 
L 58.171085 176.955781 
L 56.274706 178.283937 
L 54.378052 179.611923 
L 52.481397 180.939394 
L 50.585018 182.266003 
L 48.688364 183.592099 
L 46.791709 184.918027 
L 44.895054 186.243442 
L 42.998676 187.567999 
L 41.102021 188.892045 
L 41.095121 188.896892 
L 35.126399 199.128905 
L 27.971441 201.415469 
L 25.529691 206.133904 
L 23.434318 206.840305 
L 21.338669 207.546219 
L 19.243297 208.251988 
L 17.147924 208.957959 
L 15.052551 209.663785 
L 12.956902 210.369124 
L 10.861529 211.07432 
L 8.766156 211.779716 
L 7.2 212.306792 
" clip-path="url(#p69ff10339f)" style="fill: none; stroke: #ffffff; stroke-width: 0.3"/>
    <path d="M 276.839194 152.887062 
L 266.489013 149.586249 
L 261.575154 142.055426 
L 251.506214 140.712971 
L 245.346502 135.121817 
L 246.079828 130.547061 
L 238.091081 133.431034 
L 236.302617 126.107095 
L 237.935142 124.279061 
L 239.567667 122.44967 
L 241.200192 120.619271 
L 242.832717 118.788216 
L 244.465242 116.955796 
L 245.878901 115.368271 
L 244.994605 107.255699 
" clip-path="url(#p69ff10339f)" style="fill: none; stroke: #ffffff; stroke-width: 0.3"/>
    <path d="M 276.839194 152.887062 
L 266.489013 149.586249 
L 261.575154 142.055426 
L 251.506214 140.712971 
L 245.346502 135.109155 
L 246.090039 130.547061 
L 238.091081 133.431034 
L 236.302617 126.107095 
L 237.935142 124.279061 
L 239.567667 122.44967 
L 241.200192 120.619271 
L 242.832717 118.788216 
L 244.465242 116.955796 
L 245.878901 115.368271 
L 244.994605 107.255699 
" clip-path="url(#p69ff10339f)" style="fill: none; stroke: #ffffff; stroke-width: 0.3"/>
    <path d="M 190.450052 78.292168 
L 192.438338 77.163741 
L 194.4269 76.034922 
L 196.415185 74.905353 
L 198.403471 73.775391 
L 200.392033 72.645395 
L 202.380319 71.514647 
L 204.368605 70.383864 
L 204.568427 70.270154 
L 206.665732 70.996107 
L 208.763313 71.721897 
L 210.860617 72.447525 
L 212.958198 73.172991 
L 215.055503 73.898294 
L 216.415895 74.368724 
L 217.217943 76.985833 
L 218.019992 79.600483 
L 218.822041 82.213393 
L 219.623813 84.823856 
L 220.425862 87.43259 
L 220.45567 87.529289 
L 227.258732 89.0101 
L 230.68524 92.202747 
L 228.745806 96.480993 
L 231.147536 99.498226 
L 233.133062 100.627864 
L 235.118588 101.757115 
L 237.103838 102.885978 
L 239.089363 104.0141 
L 241.074889 105.141835 
L 243.060415 106.26954 
L 245.024689 107.3848 
" clip-path="url(#p69ff10339f)" style="fill: none; stroke: #ffffff; stroke-width: 0.3"/>
    <path d="M 190.450052 78.292168 
L 192.438338 77.163741 
L 194.4269 76.034922 
L 196.415185 74.905353 
L 198.403471 73.775391 
L 200.392033 72.645395 
L 202.380319 71.514647 
L 204.368605 70.383864 
L 204.568427 70.270154 
L 206.664628 71.001486 
L 208.761105 71.733012 
L 210.857305 72.464014 
L 212.953506 73.194852 
L 215.049707 73.925884 
L 216.657116 74.486231 
L 220.45567 87.529289 
L 227.258732 89.0101 
L 230.68524 92.202747 
L 228.745806 96.480993 
L 231.147536 99.498226 
L 233.133338 100.627154 
L 235.118864 101.755694 
L 237.104666 102.883847 
L 239.090467 104.011259 
L 241.075993 105.138641 
L 243.061795 106.265282 
L 245.034901 107.3848 
" clip-path="url(#p69ff10339f)" style="fill: none; stroke: #ffffff; stroke-width: 0.3"/>
    <path d="M 279.317125 69.199939 
L 278.577703 69.199939 
L 276.407258 69.199939 
L 274.236538 69.200298 
L 272.066094 69.200657 
L 269.89565 69.200657 
L 267.72493 69.200657 
L 265.554486 69.201016 
L 263.384041 69.201375 
L 261.213597 69.201375 
L 259.042877 69.201375 
L 256.872433 69.201734 
L 254.701989 69.202092 
L 252.531269 69.202092 
L 250.360824 69.202092 
L 248.19038 69.202092 
L 246.01966 69.202451 
L 243.849216 69.20281 
L 241.678772 69.20281 
L 239.508052 69.20281 
L 237.337607 69.203169 
L 235.167163 69.203528 
L 232.996443 69.203528 
L 230.825999 69.203528 
L 228.655555 69.203886 
L 226.484835 69.204245 
L 224.31439 69.204245 
L 222.143946 69.204245 
L 219.973226 69.204245 
L 217.802782 69.204604 
L 215.632338 69.204963 
L 213.461618 69.204963 
L 211.291173 69.204963 
L 209.120729 69.205322 
L 206.950285 69.205681 
L 204.779565 69.205681 
L 202.609121 69.205681 
L 200.438677 69.206039 
L 198.267957 69.206398 
L 196.097512 69.206398 
L 193.927068 69.206398 
L 191.756348 69.206398 
L 189.585904 69.206757 
L 187.41546 69.207116 
L 185.24474 69.207116 
L 183.074295 69.207116 
L 180.903851 69.207475 
L 178.733131 69.207834 
L 176.562687 69.207834 
L 174.392243 69.207834 
L 172.221523 69.208192 
L 170.051078 69.208551 
L 167.880634 69.208551 
L 165.709914 69.208551 
L 163.53947 69.208551 
L 161.369026 69.20891 
L 159.198306 69.209269 
L 157.027861 69.209269 
L 154.857417 69.209269 
L 152.686973 69.209628 
L 150.516253 69.209987 
L 148.345809 69.209987 
L 146.175365 69.209987 
L 144.004644 69.210345 
L 141.8342 69.210704 
L 139.663756 69.210704 
L 137.493036 69.210704 
L 135.322592 69.210704 
L 133.152148 69.211063 
L 130.981427 69.211422 
L 128.810983 69.211422 
L 126.640539 69.211422 
L 124.469819 69.211781 
L 122.299375 69.21214 
L 120.128931 69.21214 
L 119.957812 69.21214 
L 119.957536 66.389078 
L 119.95726 63.563553 
L 119.956984 60.735199 
L 119.956708 57.904367 
L 119.956432 55.07141 
L 119.956156 52.235961 
L 119.95588 49.398012 
L 119.955604 46.557556 
L 119.955328 43.714224 
L 119.955052 40.86873 
L 119.954776 38.020344 
L 119.954776 35.169783 
L 119.9545 32.316676 
L 119.954224 29.461016 
L 119.953948 26.602432 
L 119.953672 23.741643 
L 119.953396 20.877913 
L 119.95312 18.011964 
L 119.952844 15.143422 
L 119.952568 12.272281 
L 119.952292 9.398533 
L 119.952081 7.2 
" clip-path="url(#p69ff10339f)" style="fill: none; stroke: #ffffff; stroke-width: 0.3"/>
    <path d="M 119.951971 7.2 
L 119.952016 7.667322 
L 119.952292 10.542644 
L 119.952568 13.415719 
L 119.952844 16.285824 
L 119.95312 19.153697 
L 119.953396 22.018617 
L 119.953672 24.880955 
L 119.953948 27.740721 
L 119.954224 30.597921 
L 119.9545 33.452927 
L 119.954776 36.305382 
L 119.955052 39.154932 
L 119.955328 42.001947 
L 119.955604 44.846436 
L 119.95588 47.688405 
L 119.956156 50.528223 
L 119.956432 53.365176 
L 119.956708 56.199992 
L 119.956984 59.031958 
L 119.95726 61.861443 
L 119.95726 64.688453 
L 119.957536 67.513356 
L 119.957812 69.21214 
L 122.128256 69.21214 
L 124.298977 69.211781 
L 126.469421 69.211422 
L 128.639865 69.211422 
L 130.810585 69.211422 
L 132.981029 69.211063 
L 135.151473 69.211063 
L 137.322193 69.210704 
L 139.492638 69.210704 
L 141.663082 69.210704 
L 143.833802 69.210345 
L 146.004246 69.209987 
L 148.17469 69.209987 
L 150.345134 69.209987 
L 152.515855 69.209628 
L 154.686299 69.209269 
L 156.856743 69.209269 
L 159.027463 69.209269 
L 161.197907 69.20891 
L 163.368351 69.20891 
L 165.539072 69.208551 
L 167.709516 69.208551 
L 169.87996 69.208551 
L 172.05068 69.208192 
L 174.221124 69.207834 
L 176.391568 69.207834 
L 178.562289 69.207834 
L 180.732733 69.207475 
L 182.903177 69.207116 
L 185.073897 69.207116 
L 187.244341 69.207116 
L 189.414785 69.206757 
L 191.585506 69.206757 
L 193.75595 69.206398 
L 195.926394 69.206398 
L 198.097114 69.206398 
L 200.267558 69.206039 
L 202.438002 69.205681 
L 204.608447 69.205681 
L 206.779167 69.205681 
L 208.949611 69.205322 
L 211.120055 69.204963 
L 213.290775 69.204963 
L 215.461219 69.204963 
L 217.631664 69.204604 
L 219.802384 69.204604 
L 221.972828 69.204245 
L 224.143272 69.204245 
L 226.313992 69.204245 
L 228.484436 69.203886 
L 230.654881 69.203528 
L 232.825601 69.203528 
L 234.996045 69.203528 
L 237.166489 69.203169 
L 239.337209 69.20281 
L 241.507653 69.20281 
L 243.678097 69.20281 
L 245.848818 69.202451 
L 248.019262 69.202451 
L 250.189706 69.202092 
L 252.360426 69.202092 
L 254.53087 69.202092 
L 256.701314 69.201734 
L 258.871759 69.201375 
L 261.042479 69.201375 
L 263.212923 69.201375 
L 265.383367 69.201016 
L 267.554087 69.200657 
L 269.724531 69.200657 
L 271.894976 69.200657 
L 274.065696 69.200298 
L 276.23614 69.200298 
L 278.406584 69.199939 
L 279.317125 69.199939 
" clip-path="url(#p69ff10339f)" style="fill: none; stroke: #ffffff; stroke-width: 0.3"/>
    <path d="M 67.654082 170.268247 
L 65.758532 171.601098 
L 63.862705 172.933776 
L 61.967154 174.265932 
L 60.071328 175.59722 
L 58.175777 176.927989 
L 56.280226 178.258587 
L 54.384399 179.588666 
L 52.488849 180.917881 
L 50.593022 182.24658 
L 48.697471 183.575109 
L 46.801921 184.903124 
L 44.906094 186.230277 
L 43.010543 187.556917 
L 41.114717 188.883045 
L 41.095121 188.896892 
L 35.126399 199.128905 
L 27.971441 201.415469 
L 25.529691 206.133904 
L 23.434318 206.840305 
L 21.338669 207.546219 
L 19.243297 208.251988 
L 17.147924 208.957959 
L 15.052551 209.663785 
L 12.956902 210.369124 
L 10.861529 211.07432 
L 8.766156 211.779716 
L 7.2 212.306792 
" clip-path="url(#p69ff10339f)" style="fill: none; stroke: #ffffff; stroke-width: 0.3"/>
    <path d="M 157.680871 69.21214 
L 157.637816 72.032388 
L 157.59476 74.850189 
L 157.551705 77.665193 
L 157.508373 80.478122 
L 157.465317 83.288627 
L 157.422262 86.096356 
L 157.379206 88.902388 
L 157.336151 91.705304 
L 157.309103 93.460985 
L 159.097842 91.873859 
L 160.886582 90.285964 
L 162.675046 88.697298 
L 164.463785 87.107861 
L 166.252525 85.517651 
L 168.041265 83.926667 
L 169.830004 82.334906 
L 171.196468 81.1185 
L 176.47216 81.95141 
L 183.164547 73.01171 
L 190.289145 78.409534 
" clip-path="url(#p69ff10339f)" style="fill: none; stroke: #ffffff; stroke-width: 0.3"/>
    <path d="M 157.680871 69.21214 
L 157.637816 72.032388 
L 157.59476 74.850189 
L 157.551705 77.665193 
L 157.508373 80.478122 
L 157.465317 83.288627 
L 157.422262 86.096356 
L 157.379206 88.902388 
L 157.336151 91.705304 
L 157.309103 93.460985 
L 159.097842 91.873859 
L 160.886582 90.285964 
L 162.675046 88.697298 
L 164.463785 87.107861 
L 166.252525 85.517651 
L 168.041265 83.926667 
L 169.830004 82.334906 
L 171.196468 81.1185 
L 176.47216 81.95141 
L 183.164547 73.01171 
L 190.289145 78.409534 
" clip-path="url(#p69ff10339f)" style="fill: none; stroke: #ffffff; stroke-width: 0.3"/>
    <path d="M 245.848818 112.726369 
L 250.812908 107.952927 
L 245.878901 103.21128 
L 242.904477 105.615248 
" clip-path="url(#p69ff10339f)" style="fill: none; stroke: #ffffff; stroke-width: 0.3"/>
    <path d="M 245.848818 112.726369 
L 250.812908 107.952927 
L 245.878901 103.198496 
L 242.904477 105.602473 
" clip-path="url(#p69ff10339f)" style="fill: none; stroke: #ffffff; stroke-width: 0.3"/>
   </g>
   <g id="line2d_1">
    <path d="M 143.360035 208.735196 
L 160.634579 213.494199 
L 160.634579 213.494199 
" clip-path="url(#p69ff10339f)" style="fill: none; stroke: #008000; stroke-width: 0.75; stroke-linecap: square"/>
   </g>
   <g id="line2d_2">
    <path d="M 143.360035 208.735196 
L 140.867902 182.494715 
L 140.867902 182.494715 
" clip-path="url(#p69ff10339f)" style="fill: none; stroke: #008000; stroke-width: 0.75; stroke-linecap: square"/>
   </g>
   <g id="line2d_3">
    <path d="M 160.634579 213.494199 
L 146.274337 236.544764 
L 146.274337 236.544764 
" clip-path="url(#p69ff10339f)" style="fill: none; stroke: #008000; stroke-width: 0.75; stroke-linecap: square"/>
   </g>
   <g id="line2d_4">
    <path d="M 160.634579 213.494199 
L 169.778671 175.997882 
L 169.778671 175.997882 
" clip-path="url(#p69ff10339f)" style="fill: none; stroke: #008000; stroke-width: 0.75; stroke-linecap: square"/>
   </g>
   <g id="line2d_5">
    <path d="M 53.611049 225.750789 
L 67.217394 207.909506 
L 67.217394 207.909506 
" clip-path="url(#p69ff10339f)" style="fill: none; stroke: #008000; stroke-width: 0.75; stroke-linecap: square"/>
   </g>
   <g id="line2d_6">
    <path d="M 53.611049 225.750789 
L 59.580013 213.020214 
L 59.580013 213.020214 
" clip-path="url(#p69ff10339f)" style="fill: none; stroke: #008000; stroke-width: 0.75; stroke-linecap: square"/>
   </g>
   <g id="line2d_7">
    <path d="M 53.611049 225.750789 
L 46.073875 215.185061 
L 46.073875 215.185061 
" clip-path="url(#p69ff10339f)" style="fill: none; stroke: #008000; stroke-width: 0.75; stroke-linecap: square"/>
   </g>
   <g id="line2d_8">
    <path d="M 143.279725 175.795653 
L 165.46931 150.171945 
L 172.330856 142.317343 
L 172.330856 142.317343 
" clip-path="url(#p69ff10339f)" style="fill: none; stroke: #008000; stroke-width: 0.75; stroke-linecap: square"/>
   </g>
   <g id="line2d_9">
    <path d="M 143.279725 175.795653 
L 158.905389 159.091731 
L 158.905389 159.091731 
" clip-path="url(#p69ff10339f)" style="fill: none; stroke: #008000; stroke-width: 0.75; stroke-linecap: square"/>
   </g>
   <g id="line2d_10">
    <path d="M 143.279725 175.795653 
L 140.867902 182.494715 
L 140.867902 182.494715 
" clip-path="url(#p69ff10339f)" style="fill: none; stroke: #008000; stroke-width: 0.75; stroke-linecap: square"/>
   </g>
   <g id="line2d_11">
    <path d="M 143.279725 175.795653 
L 121.902603 169.004567 
L 121.902603 169.004567 
" clip-path="url(#p69ff10339f)" style="fill: none; stroke: #008000; stroke-width: 0.75; stroke-linecap: square"/>
   </g>
   <g id="line2d_12">
    <path d="M 193.856026 147.845379 
L 178.923124 146.046445 
L 178.923124 146.046445 
" clip-path="url(#p69ff10339f)" style="fill: none; stroke: #008000; stroke-width: 0.75; stroke-linecap: square"/>
   </g>
   <g id="line2d_13">
    <path d="M 193.856026 147.845379 
L 178.923124 146.046445 
L 178.923124 146.046445 
" clip-path="url(#p69ff10339f)" style="fill: none; stroke: #008000; stroke-width: 0.75; stroke-linecap: square"/>
   </g>
   <g id="line2d_14">
    <path d="M 193.856026 147.845379 
L 171.804751 173.613202 
L 169.778671 175.997882 
L 169.778671 175.997882 
" clip-path="url(#p69ff10339f)" style="fill: none; stroke: #008000; stroke-width: 0.75; stroke-linecap: square"/>
   </g>
   <g id="line2d_15">
    <path d="M 169.778671 175.997882 
L 142.595129 182.099324 
L 140.867902 182.494715 
L 140.867902 182.494715 
" clip-path="url(#p69ff10339f)" style="fill: none; stroke: #008000; stroke-width: 0.75; stroke-linecap: square"/>
   </g>
   <g id="line2d_16">
    <path d="M 158.905389 159.091731 
L 172.456475 144.00379 
L 172.456475 144.00379 
" clip-path="url(#p69ff10339f)" style="fill: none; stroke: #008000; stroke-width: 0.75; stroke-linecap: square"/>
   </g>
   <g id="line2d_17">
    <path d="M 178.923124 146.046445 
L 179.666532 128.488862 
L 179.666532 128.488862 
" clip-path="url(#p69ff10339f)" style="fill: none; stroke: #008000; stroke-width: 0.75; stroke-linecap: square"/>
   </g>
   <g id="line2d_18">
    <path d="M 178.923124 146.046445 
L 172.456475 144.00379 
L 172.456475 144.00379 
" clip-path="url(#p69ff10339f)" style="fill: none; stroke: #008000; stroke-width: 0.75; stroke-linecap: square"/>
   </g>
   <g id="line2d_19">
    <path d="M 172.330856 142.317343 
L 172.456475 144.00379 
L 172.456475 144.00379 
" clip-path="url(#p69ff10339f)" style="fill: none; stroke: #008000; stroke-width: 0.75; stroke-linecap: square"/>
   </g>
   <g id="line2d_20">
    <path d="M 202.024192 97.599736 
L 187.996877 116.492123 
L 187.996877 116.492123 
" clip-path="url(#p69ff10339f)" style="fill: none; stroke: #008000; stroke-width: 0.75; stroke-linecap: square"/>
   </g>
   <g id="line2d_21">
    <path d="M 202.024192 97.599736 
L 200.478072 102.500501 
L 200.478072 102.500501 
" clip-path="url(#p69ff10339f)" style="fill: none; stroke: #008000; stroke-width: 0.75; stroke-linecap: square"/>
   </g>
   <g id="line2d_22">
    <path d="M 202.024192 97.599736 
L 212.406482 81.660324 
L 212.406482 81.660324 
" clip-path="url(#p69ff10339f)" style="fill: none; stroke: #008000; stroke-width: 0.75; stroke-linecap: square"/>
   </g>
   <g id="line2d_23">
    <path d="M 233.308348 104.38265 
L 229.64051 100.92977 
L 229.64051 100.92977 
" clip-path="url(#p69ff10339f)" style="fill: none; stroke: #008000; stroke-width: 0.75; stroke-linecap: square"/>
   </g>
   <g id="line2d_24">
    <path d="M 233.308348 104.38265 
L 218.506402 116.277329 
L 218.506402 116.277329 
" clip-path="url(#p69ff10339f)" style="fill: none; stroke: #008000; stroke-width: 0.75; stroke-linecap: square"/>
   </g>
   <g id="line2d_25">
    <path d="M 218.506402 116.277329 
L 204.066211 106.772454 
L 204.066211 106.772454 
" clip-path="url(#p69ff10339f)" style="fill: none; stroke: #008000; stroke-width: 0.75; stroke-linecap: square"/>
   </g>
   <g id="line2d_26">
    <path d="M 140.867902 182.494715 
L 123.774597 184.376209 
L 123.774597 184.376209 
" clip-path="url(#p69ff10339f)" style="fill: none; stroke: #008000; stroke-width: 0.75; stroke-linecap: square"/>
   </g>
   <g id="line2d_27">
    <path d="M 140.867902 182.494715 
L 123.955475 188.90392 
L 123.955475 188.90392 
" clip-path="url(#p69ff10339f)" style="fill: none; stroke: #008000; stroke-width: 0.75; stroke-linecap: square"/>
   </g>
   <g id="line2d_28">
    <path d="M 140.867902 182.494715 
L 121.902603 169.004567 
L 121.902603 169.004567 
" clip-path="url(#p69ff10339f)" style="fill: none; stroke: #008000; stroke-width: 0.75; stroke-linecap: square"/>
   </g>
   <g id="line2d_29">
    <path d="M 87.084639 195.875865 
L 94.531013 182.546084 
L 94.531013 182.546084 
" clip-path="url(#p69ff10339f)" style="fill: none; stroke: #008000; stroke-width: 0.75; stroke-linecap: square"/>
   </g>
   <g id="line2d_30">
    <path d="M 87.084639 195.875865 
L 99.505511 197.124981 
L 99.505511 197.124981 
" clip-path="url(#p69ff10339f)" style="fill: none; stroke: #008000; stroke-width: 0.75; stroke-linecap: square"/>
   </g>
   <g id="line2d_31">
    <path d="M 87.084639 195.875865 
L 67.217394 207.909506 
L 67.217394 207.909506 
" clip-path="url(#p69ff10339f)" style="fill: none; stroke: #008000; stroke-width: 0.75; stroke-linecap: square"/>
   </g>
   <g id="line2d_32">
    <path d="M 121.902603 169.004567 
L 98.010375 148.567349 
L 79.688188 133.093336 
L 79.688188 133.093336 
" clip-path="url(#p69ff10339f)" style="fill: none; stroke: #008000; stroke-width: 0.75; stroke-linecap: square"/>
   </g>
   <g id="line2d_33">
    <path d="M 121.902603 169.004567 
L 123.774597 184.376209 
L 123.774597 184.376209 
" clip-path="url(#p69ff10339f)" style="fill: none; stroke: #008000; stroke-width: 0.75; stroke-linecap: square"/>
   </g>
   <g id="line2d_34">
    <path d="M 172.456475 144.00379 
L 179.666532 128.488862 
L 179.666532 128.488862 
" clip-path="url(#p69ff10339f)" style="fill: none; stroke: #008000; stroke-width: 0.75; stroke-linecap: square"/>
   </g>
   <g id="line2d_35">
    <path d="M 187.996877 116.492123 
L 179.666532 128.488862 
L 179.666532 128.488862 
" clip-path="url(#p69ff10339f)" style="fill: none; stroke: #008000; stroke-width: 0.75; stroke-linecap: square"/>
   </g>
   <g id="line2d_36">
    <path d="M 187.996877 116.492123 
L 179.666532 128.488862 
L 179.666532 128.488862 
" clip-path="url(#p69ff10339f)" style="fill: none; stroke: #008000; stroke-width: 0.75; stroke-linecap: square"/>
   </g>
   <g id="line2d_37">
    <path d="M 187.996877 116.492123 
L 190.630253 111.289655 
L 190.630253 111.289655 
" clip-path="url(#p69ff10339f)" style="fill: none; stroke: #008000; stroke-width: 0.75; stroke-linecap: square"/>
   </g>
   <g id="line2d_38">
    <path d="M 200.478072 102.500501 
L 205.191632 94.311828 
L 205.191632 94.311828 
" clip-path="url(#p69ff10339f)" style="fill: none; stroke: #008000; stroke-width: 0.75; stroke-linecap: square"/>
   </g>
   <g id="line2d_39">
    <path d="M 200.478072 102.500501 
L 204.066211 106.772454 
L 204.066211 106.772454 
" clip-path="url(#p69ff10339f)" style="fill: none; stroke: #008000; stroke-width: 0.75; stroke-linecap: square"/>
   </g>
   <g id="line2d_40">
    <path d="M 200.478072 102.500501 
L 190.630253 111.289655 
L 190.630253 111.289655 
" clip-path="url(#p69ff10339f)" style="fill: none; stroke: #008000; stroke-width: 0.75; stroke-linecap: square"/>
   </g>
   <g id="line2d_41">
    <path d="M 229.64051 100.92977 
L 226.887189 97.577239 
L 226.887189 97.577239 
" clip-path="url(#p69ff10339f)" style="fill: none; stroke: #008000; stroke-width: 0.75; stroke-linecap: square"/>
   </g>
   <g id="line2d_42">
    <path d="M 226.887189 97.577239 
L 205.191632 94.311828 
L 205.191632 94.311828 
" clip-path="url(#p69ff10339f)" style="fill: none; stroke: #008000; stroke-width: 0.75; stroke-linecap: square"/>
   </g>
   <g id="line2d_43">
    <path d="M 205.191632 94.311828 
L 212.406482 81.660324 
L 212.406482 81.660324 
" clip-path="url(#p69ff10339f)" style="fill: none; stroke: #008000; stroke-width: 0.75; stroke-linecap: square"/>
   </g>
   <g id="line2d_44">
    <path d="M 240.44325 46.55308 
L 223.360074 59.027712 
L 223.360074 59.027712 
" clip-path="url(#p69ff10339f)" style="fill: none; stroke: #008000; stroke-width: 0.75; stroke-linecap: square"/>
   </g>
   <g id="line2d_45">
    <path d="M 223.360074 59.027712 
L 221.229697 72.955165 
L 221.229697 72.955165 
" clip-path="url(#p69ff10339f)" style="fill: none; stroke: #008000; stroke-width: 0.75; stroke-linecap: square"/>
   </g>
   <g id="line2d_46">
    <path d="M 221.229697 72.955165 
L 212.406482 81.660324 
L 212.406482 81.660324 
" clip-path="url(#p69ff10339f)" style="fill: none; stroke: #008000; stroke-width: 0.75; stroke-linecap: square"/>
   </g>
   <g id="line2d_47">
    <path d="M 59.580013 213.020214 
L 67.217394 207.909506 
L 67.217394 207.909506 
" clip-path="url(#p69ff10339f)" style="fill: none; stroke: #008000; stroke-width: 0.75; stroke-linecap: square"/>
   </g>
   <g id="line2d_48">
    <path d="M 59.580013 213.020214 
L 46.073875 215.185061 
L 46.073875 215.185061 
" clip-path="url(#p69ff10339f)" style="fill: none; stroke: #008000; stroke-width: 0.75; stroke-linecap: square"/>
   </g>
   <g id="line2d_49">
    <path d="M 50.294475 129.88911 
L 77.417882 132.836476 
L 79.688188 133.093336 
L 79.688188 133.093336 
" clip-path="url(#p69ff10339f)" style="fill: none; stroke: #008000; stroke-width: 0.75; stroke-linecap: square"/>
   </g>
   <g id="line2d_50">
    <path d="M 123.774597 184.376209 
L 123.955475 188.90392 
L 123.955475 188.90392 
" clip-path="url(#p69ff10339f)" style="fill: none; stroke: #008000; stroke-width: 0.75; stroke-linecap: square"/>
   </g>
   <g id="line2d_51">
    <path d="M 123.955475 188.90392 
L 117.89571 188.815892 
L 117.89571 188.815892 
" clip-path="url(#p69ff10339f)" style="fill: none; stroke: #008000; stroke-width: 0.75; stroke-linecap: square"/>
   </g>
   <g id="line2d_52">
    <path d="M 117.89571 188.815892 
L 99.505511 197.124981 
L 99.505511 197.124981 
" clip-path="url(#p69ff10339f)" style="fill: none; stroke: #008000; stroke-width: 0.75; stroke-linecap: square"/>
   </g>
   <g id="line2d_53">
    <path d="M 99.505511 197.124981 
L 72.598192 206.088896 
L 67.217394 207.909506 
L 67.217394 207.909506 
" clip-path="url(#p69ff10339f)" style="fill: none; stroke: #008000; stroke-width: 0.75; stroke-linecap: square"/>
   </g>
   <g id="patch_9">
    <path d="M 7.2 273.312 
L 7.2 7.2 
" style="fill: none; stroke: #ffffff; stroke-linejoin: miter; stroke-linecap: square"/>
   </g>
   <g id="patch_10">
    <path d="M 279.317125 273.312 
L 279.317125 7.2 
" style="fill: none; stroke: #ffffff; stroke-linejoin: miter; stroke-linecap: square"/>
   </g>
   <g id="patch_11">
    <path d="M 7.2 273.312 
L 279.317125 273.312 
" style="fill: none; stroke: #ffffff; stroke-linejoin: miter; stroke-linecap: square"/>
   </g>
   <g id="patch_12">
    <path d="M 7.2 7.2 
L 279.317125 7.2 
" style="fill: none; stroke: #ffffff; stroke-linejoin: miter; stroke-linecap: square"/>
   </g>
   <g id="PathCollection_1">
    <defs>
     <path id="md173eae56c" d="M 0 1.118034 
C 0.296506 1.118034 0.580908 1.000231 0.790569 0.790569 
C 1.000231 0.580908 1.118034 0.296506 1.118034 0 
C 1.118034 -0.296506 1.000231 -0.580908 0.790569 -0.790569 
C 0.580908 -1.000231 0.296506 -1.118034 0 -1.118034 
C -0.296506 -1.118034 -0.580908 -1.000231 -0.790569 -0.790569 
C -1.000231 -0.580908 -1.118034 -0.296506 -1.118034 0 
C -1.118034 0.296506 -1.000231 0.580908 -0.790569 0.790569 
C -0.580908 1.000231 -0.296506 1.118034 0 1.118034 
z
" style="stroke: #ff0000"/>
    </defs>
    <g clip-path="url(#p69ff10339f)">
     <use xlink:href="#md173eae56c" x="143.360035" y="208.735196" style="fill: #ff0000; stroke: #ff0000"/>
    </g>
   </g>
   <g id="PathCollection_2">
    <g clip-path="url(#p69ff10339f)">
     <use xlink:href="#md173eae56c" x="160.634579" y="213.494199" style="fill: #ff0000; stroke: #ff0000"/>
    </g>
   </g>
   <g id="PathCollection_3">
    <g clip-path="url(#p69ff10339f)">
     <use xlink:href="#md173eae56c" x="53.611049" y="225.750789" style="fill: #ff0000; stroke: #ff0000"/>
    </g>
   </g>
   <g id="PathCollection_4">
    <g clip-path="url(#p69ff10339f)">
     <use xlink:href="#md173eae56c" x="146.274337" y="236.544764" style="fill: #ff0000; stroke: #ff0000"/>
    </g>
   </g>
   <g id="PathCollection_5">
    <g clip-path="url(#p69ff10339f)">
     <use xlink:href="#md173eae56c" x="143.279725" y="175.795653" style="fill: #ff0000; stroke: #ff0000"/>
    </g>
   </g>
   <g id="PathCollection_6">
    <g clip-path="url(#p69ff10339f)">
     <use xlink:href="#md173eae56c" x="193.856026" y="147.845379" style="fill: #ff0000; stroke: #ff0000"/>
    </g>
   </g>
   <g id="PathCollection_7">
    <g clip-path="url(#p69ff10339f)">
     <use xlink:href="#md173eae56c" x="169.778671" y="175.997882" style="fill: #ff0000; stroke: #ff0000"/>
    </g>
   </g>
   <g id="PathCollection_8">
    <g clip-path="url(#p69ff10339f)">
     <use xlink:href="#md173eae56c" x="158.905389" y="159.091731" style="fill: #ff0000; stroke: #ff0000"/>
    </g>
   </g>
   <g id="PathCollection_9">
    <g clip-path="url(#p69ff10339f)">
     <use xlink:href="#md173eae56c" x="178.923124" y="146.046445" style="fill: #ff0000; stroke: #ff0000"/>
    </g>
   </g>
   <g id="PathCollection_10">
    <g clip-path="url(#p69ff10339f)">
     <use xlink:href="#md173eae56c" x="172.330856" y="142.317343" style="fill: #ff0000; stroke: #ff0000"/>
    </g>
   </g>
   <g id="PathCollection_11">
    <defs>
     <path id="mccf0d13c40" d="M 0 1.118034 
C 0.296506 1.118034 0.580908 1.000231 0.790569 0.790569 
C 1.000231 0.580908 1.118034 0.296506 1.118034 0 
C 1.118034 -0.296506 1.000231 -0.580908 0.790569 -0.790569 
C 0.580908 -1.000231 0.296506 -1.118034 0 -1.118034 
C -0.296506 -1.118034 -0.580908 -1.000231 -0.790569 -0.790569 
C -1.000231 -0.580908 -1.118034 -0.296506 -1.118034 0 
C -1.118034 0.296506 -1.000231 0.580908 -0.790569 0.790569 
C -0.580908 1.000231 -0.296506 1.118034 0 1.118034 
z
" style="stroke: #ffff00"/>
    </defs>
    <g clip-path="url(#p69ff10339f)">
     <use xlink:href="#mccf0d13c40" x="202.024192" y="97.599736" style="fill: #ffff00; stroke: #ffff00"/>
    </g>
   </g>
   <g id="PathCollection_12">
    <g clip-path="url(#p69ff10339f)">
     <use xlink:href="#md173eae56c" x="233.308348" y="104.38265" style="fill: #ff0000; stroke: #ff0000"/>
    </g>
   </g>
   <g id="PathCollection_13">
    <g clip-path="url(#p69ff10339f)">
     <use xlink:href="#md173eae56c" x="218.506402" y="116.277329" style="fill: #ff0000; stroke: #ff0000"/>
    </g>
   </g>
   <g id="PathCollection_14">
    <g clip-path="url(#p69ff10339f)">
     <use xlink:href="#md173eae56c" x="140.867902" y="182.494715" style="fill: #ff0000; stroke: #ff0000"/>
    </g>
   </g>
   <g id="PathCollection_15">
    <g clip-path="url(#p69ff10339f)">
     <use xlink:href="#mccf0d13c40" x="87.084639" y="195.875865" style="fill: #ffff00; stroke: #ffff00"/>
    </g>
   </g>
   <g id="PathCollection_16">
    <g clip-path="url(#p69ff10339f)">
     <use xlink:href="#mccf0d13c40" x="121.902603" y="169.004567" style="fill: #ffff00; stroke: #ffff00"/>
    </g>
   </g>
   <g id="PathCollection_17">
    <g clip-path="url(#p69ff10339f)">
     <use xlink:href="#mccf0d13c40" x="172.456475" y="144.00379" style="fill: #ffff00; stroke: #ffff00"/>
    </g>
   </g>
   <g id="PathCollection_18">
    <g clip-path="url(#p69ff10339f)">
     <use xlink:href="#mccf0d13c40" x="187.996877" y="116.492123" style="fill: #ffff00; stroke: #ffff00"/>
    </g>
   </g>
   <g id="PathCollection_19">
    <g clip-path="url(#p69ff10339f)">
     <use xlink:href="#mccf0d13c40" x="200.478072" y="102.500501" style="fill: #ffff00; stroke: #ffff00"/>
    </g>
   </g>
   <g id="PathCollection_20">
    <g clip-path="url(#p69ff10339f)">
     <use xlink:href="#md173eae56c" x="229.64051" y="100.92977" style="fill: #ff0000; stroke: #ff0000"/>
    </g>
   </g>
   <g id="PathCollection_21">
    <g clip-path="url(#p69ff10339f)">
     <use xlink:href="#md173eae56c" x="226.887189" y="97.577239" style="fill: #ff0000; stroke: #ff0000"/>
    </g>
   </g>
   <g id="PathCollection_22">
    <g clip-path="url(#p69ff10339f)">
     <use xlink:href="#md173eae56c" x="205.191632" y="94.311828" style="fill: #ff0000; stroke: #ff0000"/>
    </g>
   </g>
   <g id="PathCollection_23">
    <g clip-path="url(#p69ff10339f)">
     <use xlink:href="#md173eae56c" x="204.066211" y="106.772454" style="fill: #ff0000; stroke: #ff0000"/>
    </g>
   </g>
   <g id="PathCollection_24">
    <g clip-path="url(#p69ff10339f)">
     <use xlink:href="#md173eae56c" x="190.630253" y="111.289655" style="fill: #ff0000; stroke: #ff0000"/>
    </g>
   </g>
   <g id="PathCollection_25">
    <g clip-path="url(#p69ff10339f)">
     <use xlink:href="#md173eae56c" x="179.666532" y="128.488862" style="fill: #ff0000; stroke: #ff0000"/>
    </g>
   </g>
   <g id="PathCollection_26">
    <g clip-path="url(#p69ff10339f)">
     <use xlink:href="#md173eae56c" x="240.44325" y="46.55308" style="fill: #ff0000; stroke: #ff0000"/>
    </g>
   </g>
   <g id="PathCollection_27">
    <g clip-path="url(#p69ff10339f)">
     <use xlink:href="#md173eae56c" x="223.360074" y="59.027712" style="fill: #ff0000; stroke: #ff0000"/>
    </g>
   </g>
   <g id="PathCollection_28">
    <g clip-path="url(#p69ff10339f)">
     <use xlink:href="#md173eae56c" x="221.229697" y="72.955165" style="fill: #ff0000; stroke: #ff0000"/>
    </g>
   </g>
   <g id="PathCollection_29">
    <g clip-path="url(#p69ff10339f)">
     <use xlink:href="#md173eae56c" x="212.406482" y="81.660324" style="fill: #ff0000; stroke: #ff0000"/>
    </g>
   </g>
   <g id="PathCollection_30">
    <g clip-path="url(#p69ff10339f)">
     <use xlink:href="#md173eae56c" x="59.580013" y="213.020214" style="fill: #ff0000; stroke: #ff0000"/>
    </g>
   </g>
   <g id="PathCollection_31">
    <g clip-path="url(#p69ff10339f)">
     <use xlink:href="#md173eae56c" x="46.073875" y="215.185061" style="fill: #ff0000; stroke: #ff0000"/>
    </g>
   </g>
   <g id="PathCollection_32">
    <g clip-path="url(#p69ff10339f)">
     <use xlink:href="#md173eae56c" x="50.294475" y="129.88911" style="fill: #ff0000; stroke: #ff0000"/>
    </g>
   </g>
   <g id="PathCollection_33">
    <g clip-path="url(#p69ff10339f)">
     <use xlink:href="#md173eae56c" x="79.688188" y="133.093336" style="fill: #ff0000; stroke: #ff0000"/>
    </g>
   </g>
   <g id="PathCollection_34">
    <g clip-path="url(#p69ff10339f)">
     <use xlink:href="#md173eae56c" x="94.531013" y="182.546084" style="fill: #ff0000; stroke: #ff0000"/>
    </g>
   </g>
   <g id="PathCollection_35">
    <g clip-path="url(#p69ff10339f)">
     <use xlink:href="#md173eae56c" x="123.774597" y="184.376209" style="fill: #ff0000; stroke: #ff0000"/>
    </g>
   </g>
   <g id="PathCollection_36">
    <g clip-path="url(#p69ff10339f)">
     <use xlink:href="#md173eae56c" x="123.955475" y="188.90392" style="fill: #ff0000; stroke: #ff0000"/>
    </g>
   </g>
   <g id="PathCollection_37">
    <g clip-path="url(#p69ff10339f)">
     <use xlink:href="#md173eae56c" x="117.89571" y="188.815892" style="fill: #ff0000; stroke: #ff0000"/>
    </g>
   </g>
   <g id="PathCollection_38">
    <g clip-path="url(#p69ff10339f)">
     <use xlink:href="#md173eae56c" x="99.505511" y="197.124981" style="fill: #ff0000; stroke: #ff0000"/>
    </g>
   </g>
   <g id="PathCollection_39">
    <g clip-path="url(#p69ff10339f)">
     <use xlink:href="#md173eae56c" x="67.217394" y="207.909506" style="fill: #ff0000; stroke: #ff0000"/>
    </g>
   </g>
  </g>
 </g>
 <defs>
  <clipPath id="p69ff10339f">
   <rect x="7.2" y="7.2" width="272.117125" height="266.112"/>
  </clipPath>
 </defs>
</svg>
