<?xml version="1.0" encoding="utf-8" standalone="no"?>
<!DOCTYPE svg PUBLIC "-//W3C//DTD SVG 1.1//EN"
  "http://www.w3.org/Graphics/SVG/1.1/DTD/svg11.dtd">
<svg xmlns:xlink="http://www.w3.org/1999/xlink" width="200.713546pt" height="280.512pt" viewBox="0 0 200.713546 280.512" xmlns="http://www.w3.org/2000/svg" version="1.1">
 <metadata>
  <rdf:RDF xmlns:dc="http://purl.org/dc/elements/1.1/" xmlns:cc="http://creativecommons.org/ns#" xmlns:rdf="http://www.w3.org/1999/02/22-rdf-syntax-ns#">
   <cc:Work>
    <dc:type rdf:resource="http://purl.org/dc/dcmitype/StillImage"/>
    <dc:date>2025-12-18T10:42:30.655076</dc:date>
    <dc:format>image/svg+xml</dc:format>
    <dc:creator>
     <cc:Agent>
      <dc:title>Matplotlib v3.10.6, https://matplotlib.org/</dc:title>
     </cc:Agent>
    </dc:creator>
   </cc:Work>
  </rdf:RDF>
 </metadata>
 <defs>
  <style type="text/css">*{stroke-linejoin: round; stroke-linecap: butt}</style>
 </defs>
 <g id="figure_1">
  <g id="patch_1">
   <path d="M 0 280.512 
L 200.713546 280.512 
L 200.713546 0 
L 0 0 
z
" style="fill: #ffffff"/>
  </g>
  <g id="axes_1">
   <g id="patch_2">
    <path d="M 7.2 273.312 
L 193.513546 273.312 
L 193.513546 7.2 
L 7.2 7.2 
z
" clip-path="url(#pa5944da5e4)" style="fill: #add8e6; stroke: #ffffff; stroke-linejoin: miter"/>
   </g>
   <g id="patch_3">
    <path d="M 7.2 273.312 
L 193.513546 273.312 
L 193.513546 7.2 
L 7.2 7.2 
z
" clip-path="url(#pa5944da5e4)" style="fill: #add8e6; stroke: #ffffff; stroke-linejoin: miter"/>
   </g>
   <g id="patch_4">
    <path d="M 193.51355 250.843523 
L 192.71867 249.660842 
L 187.892836 246.465925 
L 188.353231 244.349043 
L 184.689961 244.045744 
L 185.2329 238.114011 
L 182.538937 233.798872 
L 180.407894 224.747945 
L 175.883745 221.93234 
L 175.6447 223.104458 
L 167.49548 217.411316 
L 167.24498 218.332861 
L 160.86838 215.883824 
L 157.48059 217.856837 
L 151.808644 225.931146 
L 139.587374 229.914375 
L 138.904556 232.552805 
L 136.52999 232.599755 
L 135.553184 234.761436 
L 133.654424 234.87149 
L 131.290055 237.654544 
L 132.910216 237.771034 
L 132.187659 239.635718 
L 128.880205 239.977422 
L 128.334146 241.14543 
L 126.117553 240.601069 
L 125.549956 242.266688 
L 122.321696 240.477023 
L 122.650975 241.566315 
L 121.036427 241.87739 
L 119.160767 239.46376 
L 114.329306 238.794226 
L 114.011788 236.044305 
L 110.420113 236.701721 
L 109.561535 235.411431 
L 110.442486 235.169353 
L 107.816692 234.276526 
L 107.828453 236.529748 
L 106.748517 235.262754 
L 107.612087 236.654795 
L 105.123043 236.310522 
L 104.452309 234.244699 
L 104.566058 236.107858 
L 103.815402 234.511914 
L 98.519053 233.994633 
L 97.268654 232.301792 
L 89.4127 237.732158 
L 87.025951 237.45112 
L 83.627534 241.783535 
L 83.007694 240.905281 
L 83.143716 245.209611 
L 82.535944 244.177363 
L 81.801933 245.923376 
L 82.819742 246.504081 
L 83.121336 245.27124 
L 82.905392 250.054724 
L 84.701022 254.679607 
L 86.837685 255.432583 
L 83.871164 257.444272 
L 85.361038 260.066126 
L 85.241354 263.315712 
L 81.592859 266.547935 
L 72.556231 271.153045 
L 71.051794 273.312 
L 7.2 273.312 
L 7.2 235.68502 
L 12.480315 237.670124 
L 19.651901 234.763011 
L 21.817707 230.678622 
L 24.375339 213.662178 
L 25.290844 211.369961 
L 27.682482 211.537924 
L 25.619395 209.275034 
L 24.341619 212.018257 
L 26.597655 194.03884 
L 30.582713 198.212026 
L 32.645073 203.946689 
L 34.628237 204.726818 
L 32.752683 203.310449 
L 30.689905 195.742672 
L 24.659242 191.445784 
L 24.62469 189.556899 
L 26.222898 189.647041 
L 25.432587 188.28412 
L 27.910188 185.965171 
L 26.825048 186.234969 
L 25.831178 182.344101 
L 24.591701 182.229164 
L 26.523453 179.188655 
L 25.040347 180.18449 
L 16.821814 175.702634 
L 12.29278 169.185159 
L 14.292594 164.556898 
L 10.837357 162.937474 
L 11.922186 160.235514 
L 10.160692 160.939386 
L 7.2 159.927273 
L 7.2 159.759709 
L 7.82546 159.690927 
L 7.2 158.831306 
L 7.2 157.818495 
L 8.35934 157.308318 
L 7.449142 155.660878 
L 8.944735 155.433655 
L 7.2 155.460375 
L 7.2 133.414367 
L 9.91134 131.246599 
L 9.671874 132.691895 
L 10.899175 132.174749 
L 11.35417 133.653995 
L 13.592826 132.29572 
L 14.605221 134.427239 
L 13.814495 132.064174 
L 15.150445 130.987696 
L 16.400849 130.798134 
L 17.379214 133.035827 
L 23.028773 132.416186 
L 20.124067 130.134561 
L 20.43097 120.245243 
L 16.838881 117.020547 
L 15.082696 109.583341 
L 19.41358 111.339738 
L 24.27876 110.196878 
L 23.670574 113.329615 
L 26.325614 118.023973 
L 27.996255 116.52286 
L 38.170268 119.261368 
L 41.545996 117.987876 
L 41.54641 117.987876 
L 48.177665 114.783483 
L 43.915675 114.887909 
L 42.438709 114.030358 
L 44.35298 109.863436 
L 49.456793 106.959302 
L 56.44844 105.564915 
L 62.279808 99.36722 
L 64.268385 99.927103 
L 62.540506 97.918596 
L 63.142968 85.129192 
L 75.647741 80.725494 
L 89.377524 73.479904 
L 93.536794 75.100977 
L 95.765148 73.498765 
L 99.523122 74.716456 
L 95.765148 72.367606 
L 93.560209 73.989323 
L 88.342333 70.752298 
L 93.855455 69.133878 
L 99.225278 72.950045 
L 99.301872 70.625147 
L 95.890552 69.508999 
L 98.94907 69.756034 
L 97.529343 68.245689 
L 104.917296 66.797372 
L 96.880575 64.087615 
L 96.211505 61.278231 
L 97.945 61.283813 
L 104.440233 49.903794 
L 106.111917 38.802857 
L 108.043669 40.499957 
L 110.2485 39.406765 
L 111.488288 43.518822 
L 113.716228 43.895016 
L 112.521608 46.249295 
L 110.032142 46.408418 
L 110.282634 50.091025 
L 111.670205 50.183613 
L 108.805672 51.916441 
L 113.20441 53.565208 
L 111.374232 51.973055 
L 116.022733 48.101179 
L 121.264132 47.437345 
L 117.763727 45.695914 
L 119.468502 41.639152 
L 114.624865 40.754874 
L 114.307033 36.336025 
L 115.76235 33.114857 
L 121.730577 29.033392 
L 125.833754 30.395546 
L 127.435813 30.40513 
L 125.879228 28.872122 
L 134.484282 27.469715 
L 138.33239 32.207515 
L 141.602368 30.787627 
L 142.875154 32.99962 
L 141.648263 30.730645 
L 137.163155 30.137226 
L 138.299805 24.689359 
L 140.948087 22.478394 
L 150.081182 21.63794 
L 153.04699 25.701096 
L 151.615387 27.383705 
L 153.467945 28.881537 
L 154.933146 27.612875 
L 154.400419 24.083979 
L 158.207723 25.720356 
L 157.569559 29.654888 
L 158.503275 25.721061 
L 157.23009 22.137269 
L 159.78813 17.565983 
L 161.5387 18.954022 
L 167.897083 18.805157 
L 171.689191 24.035554 
L 175.576846 25.93137 
L 171.893489 23.864317 
L 166.926319 16.96781 
L 163.050532 16.611305 
L 162.072577 14.408911 
L 164.378568 14.475891 
L 164.526758 13.013098 
L 161.686476 10.936936 
L 163.777666 7.728249 
L 158.502861 8.097682 
L 158.851792 7.199985 
L 179.941611 7.199985 
L 179.907415 7.658663 
L 180.317913 7.199985 
L 186.273787 7.199985 
L 187.569698 7.969794 
L 189.861597 7.199985 
L 193.262207 7.199985 
L 192.878207 10.509694 
L 188.262697 13.826149 
L 190.068946 16.061358 
L 193.51355 14.889854 
z
" clip-path="url(#pa5944da5e4)" style="fill: #d3d3d3"/>
   </g>
   <g id="patch_5">
    <path d="M 41.545996 86.964209 
L 41.477828 86.965527 
L 37.749303 86.047529 
L 30.724352 88.419703 
L 29.030297 87.172923 
L 30.451585 86.065976 
L 25.473072 85.759475 
L 25.92661 87.324333 
L 21.357404 84.192179 
L 23.222031 87.055401 
L 20.380184 88.779305 
L 13.672335 88.20418 
L 14.911812 91.136881 
L 8.444157 90.285832 
L 8.035682 92.881655 
L 7.2 92.087818 
L 7.2 68.445525 
L 9.024661 65.824553 
L 8.342273 64.647973 
L 8.250587 64.647299 
L 7.2 66.097472 
L 7.2 7.199985 
L 35.464535 7.199985 
L 36.578096 9.402133 
L 40.488433 12.335049 
L 38.600702 14.524255 
L 41.545996 20.589202 
L 41.54641 20.589908 
L 43.046481 25.022572 
L 41.545996 24.28219 
L 40.135738 23.585816 
L 37.930803 21.071126 
L 30.894924 22.1559 
L 31.770156 23.508409 
L 33.163239 22.04833 
L 37.543556 21.743624 
L 38.487786 23.19277 
L 41.545996 25.654158 
L 43.830025 27.134202 
L 46.422521 34.081772 
L 41.545996 40.524983 
L 41.443276 40.6602 
L 41.545996 40.602773 
L 41.931679 40.387496 
L 46.660114 42.965118 
L 48.979837 38.576463 
L 59.300901 39.557501 
L 64.655943 44.157814 
L 65.632851 49.809826 
L 63.110084 58.581125 
L 59.550983 62.006101 
L 57.48217 59.809243 
L 58.994313 61.444255 
L 56.015406 61.57225 
L 59.153539 61.646529 
L 58.404026 64.53703 
L 55.778124 65.594524 
L 54.776657 63.810357 
L 55.049944 65.22635 
L 50.99214 66.503231 
L 54.333003 66.134872 
L 53.278461 68.896566 
L 54.266296 69.490062 
L 45.012992 72.229475 
L 51.002755 72.057394 
L 48.694893 73.889926 
L 51.071337 74.118038 
L 51.776102 72.658373 
L 53.901008 73.343752 
L 53.913601 74.700125 
L 51.810654 73.943949 
L 53.776436 74.990693 
L 61.005991 73.826212 
L 60.563798 79.049954 
L 55.720574 81.329571 
L 54.846071 84.318947 
L 52.048557 83.81393 
L 44.819734 88.168819 
z
" clip-path="url(#pa5944da5e4)" style="fill: #d3d3d3"/>
   </g>
   <g id="patch_6">
    <path d="M 164.312278 270.925828 
L 164.311864 270.924994 
L 161.39623 269.445762 
L 163.130454 266.988967 
L 159.657728 266.068523 
L 161.623207 263.261187 
L 158.963578 263.276426 
L 158.724947 262.023511 
L 160.862354 260.433649 
L 158.28119 258.640775 
L 158.025813 256.960688 
L 160.122723 256.430356 
L 158.053798 254.540165 
L 159.634634 253.647342 
L 160.526611 250.555473 
L 164.516147 249.505374 
L 165.993538 247.804747 
L 168.392762 248.841109 
L 168.978161 242.896344 
L 170.178202 242.453315 
L 171.865488 259.115945 
L 169.762859 262.08565 
L 169.796993 266.905205 
L 168.149132 268.563844 
L 169.330956 268.77621 
L 167.302222 272.926365 
z
" clip-path="url(#pa5944da5e4)" style="fill: #d3d3d3"/>
   </g>
   <g id="patch_7">
    <path d="M 104.952473 66.802248 
L 106.854668 64.97818 
L 105.91491 66.19673 
L 107.407797 66.832824 
L 105.028339 66.783939 
z
" clip-path="url(#pa5944da5e4)" style="fill: #add8e6"/>
   </g>
   <g id="matplotlib.axis_1"/>
   <g id="matplotlib.axis_2"/>
   <g id="LineCollection_1">
    <path d="M 193.513546 254.018531 
L 192.866764 254.054806 
L 193.513546 253.079086 
" clip-path="url(#pa5944da5e4)" style="fill: none; stroke: #000000; stroke-width: 0.2"/>
    <path d="M 193.513546 250.843522 
L 192.718672 249.660842 
L 187.89283 246.465925 
L 188.353237 244.349043 
L 184.689963 244.045743 
L 185.232898 238.114011 
L 182.538935 233.79887 
L 180.407888 224.747945 
L 175.883745 221.932339 
L 175.644696 223.104459 
L 167.495474 217.411316 
L 167.244977 218.332861 
L 160.868383 215.883823 
L 157.480584 217.856837 
L 151.80865 225.931145 
L 139.587367 229.914376 
L 138.904562 232.552805 
L 136.52999 232.599756 
L 135.553187 234.761435 
L 133.654425 234.871489 
L 131.290053 237.654544 
L 132.910218 237.771036 
L 132.187659 239.63572 
L 128.880202 239.977422 
L 128.334145 241.145429 
L 126.117552 240.601068 
L 125.549953 242.266688 
L 122.321693 240.477022 
L 122.650972 241.566315 
L 121.036426 241.877391 
L 119.160767 239.46376 
L 114.329305 238.794226 
L 114.011787 236.044304 
L 110.420114 236.701721 
L 109.561534 235.411429 
L 110.442489 235.169354 
L 107.816692 234.276527 
L 107.828452 236.529747 
L 106.748515 235.262753 
L 107.61209 236.654795 
L 105.123041 236.310522 
L 104.452308 234.244699 
L 104.566057 236.107859 
L 103.815398 234.511912 
L 98.519054 233.994632 
L 97.26865 232.301791 
L 89.412698 237.732159 
L 87.02595 237.451119 
L 83.627536 241.783536 
L 83.007693 240.905281 
L 83.143713 245.209612 
L 82.535943 244.177363 
L 81.801935 245.923376 
L 82.819742 246.504082 
L 83.121338 245.271239 
L 82.905392 250.054723 
L 84.701021 254.679607 
L 86.837687 255.432583 
L 83.871164 257.444273 
L 85.361034 260.066126 
L 85.241353 263.315711 
L 81.592858 266.547935 
L 72.556229 271.153045 
L 71.051795 273.312 
" clip-path="url(#pa5944da5e4)" style="fill: none; stroke: #000000; stroke-width: 0.2"/>
    <path d="M 7.2 235.685019 
L 12.480315 237.670125 
L 19.651901 234.763011 
L 21.817707 230.67862 
L 24.375338 213.662178 
L 25.290844 211.369961 
L 27.682483 211.537922 
L 25.619394 209.275035 
L 24.341619 212.018259 
L 26.597654 194.038841 
L 30.582713 198.212025 
L 32.645073 203.946686 
L 34.628236 204.726821 
L 32.752682 203.310449 
L 30.689905 195.742671 
L 24.659242 191.445782 
L 24.62469 189.556902 
L 26.222897 189.647043 
L 25.432588 188.284124 
L 27.910189 185.96517 
L 26.825048 186.234969 
L 25.831177 182.344102 
L 24.5917 182.229162 
L 26.523452 179.188654 
L 25.040347 180.18449 
L 16.821814 175.702633 
L 12.29278 169.185155 
L 14.292594 164.556896 
L 10.837357 162.937474 
L 11.922186 160.235515 
L 10.160692 160.939389 
L 7.2 159.927271 
" clip-path="url(#pa5944da5e4)" style="fill: none; stroke: #000000; stroke-width: 0.2"/>
    <path d="M 7.2 159.759711 
L 7.82546 159.690924 
L 7.2 158.831308 
" clip-path="url(#pa5944da5e4)" style="fill: none; stroke: #000000; stroke-width: 0.2"/>
    <path d="M 7.2 157.818495 
L 8.35934 157.308318 
L 7.449142 155.660874 
L 8.944735 155.433658 
L 7.2 155.460373 
" clip-path="url(#pa5944da5e4)" style="fill: none; stroke: #000000; stroke-width: 0.2"/>
    <path d="M 7.2 133.414361 
L 9.91134 131.246597 
L 9.671874 132.69189 
L 10.899175 132.174752 
L 11.35417 133.653991 
L 13.592826 132.295713 
L 14.605221 134.427245 
L 13.814495 132.064173 
L 15.150445 130.987701 
L 16.40085 130.798139 
L 17.379214 133.035824 
L 23.028773 132.416188 
L 20.124068 130.134558 
L 20.430971 120.245249 
L 16.838881 117.020544 
L 15.082696 109.583346 
L 19.41358 111.339745 
L 24.278761 110.196875 
L 23.670574 113.329611 
L 26.325615 118.023969 
L 27.996255 116.522863 
L 38.170268 119.261369 
L 41.545995 117.987882 
L 41.546411 117.987882 
L 48.177665 114.783483 
L 43.915675 114.887916 
L 42.43871 114.030355 
L 44.352978 109.863439 
L 49.456792 106.959307 
L 56.448441 105.564918 
L 62.27981 99.36722 
L 64.268385 99.92711 
L 62.540506 97.918594 
L 63.142969 85.12919 
L 75.64774 80.725496 
L 89.377522 73.479906 
L 93.536794 75.100975 
L 95.765147 73.498759 
L 99.523124 74.716451 
L 95.765147 72.36761 
L 93.56021 73.989315 
L 88.342335 70.752303 
L 93.855457 69.133875 
L 99.225275 72.950038 
L 99.301871 70.625148 
L 95.890552 69.508996 
L 98.949073 69.75604 
L 97.529346 68.245689 
L 104.917294 66.797377 
L 96.880572 64.087617 
L 96.211504 61.278234 
L 97.945003 61.283808 
L 104.440236 49.903792 
L 106.111917 38.802855 
L 108.043669 40.499964 
L 110.248502 39.406762 
L 111.488291 43.518829 
L 113.716227 43.895019 
L 112.521605 46.249295 
L 110.03214 46.408424 
L 110.282637 50.09103 
L 111.670206 50.18361 
L 108.805672 51.916442 
L 113.20441 53.565214 
L 111.37423 51.973048 
L 116.022736 48.101176 
L 121.264131 47.437339 
L 117.763728 45.695915 
L 119.468503 41.639158 
L 114.624865 40.75488 
L 114.307034 36.33603 
L 115.762353 33.114852 
L 121.730574 29.033398 
L 125.833753 30.395551 
L 127.43581 30.405137 
L 125.879231 28.872116 
L 134.484281 27.469721 
L 138.332383 32.207521 
L 141.602375 30.787623 
L 142.875155 32.999613 
L 141.64827 30.730652 
L 137.163154 30.13722 
L 138.299809 24.689353 
L 140.948086 22.478397 
L 150.081188 21.637941 
L 153.046982 25.701093 
L 151.615392 27.383708 
L 153.467947 28.881543 
L 154.933152 27.612883 
L 154.400416 24.083978 
L 158.207723 25.720358 
L 157.569564 29.654888 
L 158.503282 25.721058 
L 157.230087 22.137275 
L 159.788134 17.565989 
L 161.5387 18.954015 
L 167.897081 18.80516 
L 171.689193 24.035559 
L 175.576842 25.931365 
L 171.893483 23.864322 
L 166.926313 16.96781 
L 163.050529 16.611305 
L 162.07258 14.408918 
L 164.378569 14.475891 
L 164.526765 13.013102 
L 161.68648 10.936925 
L 163.777668 7.728255 
L 158.502866 8.097688 
L 158.85179 7.2 
" clip-path="url(#pa5944da5e4)" style="fill: none; stroke: #000000; stroke-width: 0.2"/>
    <path d="M 179.941605 7.2 
L 179.907414 7.658669 
L 180.317907 7.2 
" clip-path="url(#pa5944da5e4)" style="fill: none; stroke: #000000; stroke-width: 0.2"/>
    <path d="M 186.27379 7.2 
L 187.569691 7.969802 
L 189.861593 7.2 
" clip-path="url(#pa5944da5e4)" style="fill: none; stroke: #000000; stroke-width: 0.2"/>
    <path d="M 193.262211 7.2 
L 192.878212 10.509696 
L 188.262695 13.826155 
L 190.068939 16.061356 
L 193.513546 14.889843 
" clip-path="url(#pa5944da5e4)" style="fill: none; stroke: #000000; stroke-width: 0.2"/>
    <path d="M 41.545995 86.96421 
L 41.477829 86.965527 
L 37.749304 86.047529 
L 30.724353 88.4197 
L 29.030297 87.172924 
L 30.451584 86.065983 
L 25.473071 85.759474 
L 25.926609 87.32433 
L 21.357404 84.192185 
L 23.222031 87.055404 
L 20.380184 88.779302 
L 13.672335 88.204174 
L 14.911812 91.136874 
L 8.444157 90.285835 
L 8.035682 92.881652 
L 7.2 92.087818 
" clip-path="url(#pa5944da5e4)" style="fill: none; stroke: #000000; stroke-width: 0.2"/>
    <path d="M 7.2 68.445526 
L 9.024661 65.824556 
L 8.342273 64.647969 
L 8.250587 64.647296 
L 7.2 66.097471 
" clip-path="url(#pa5944da5e4)" style="fill: none; stroke: #000000; stroke-width: 0.2"/>
    <path d="M 35.464535 7.2 
L 36.578097 9.402144 
L 40.488433 12.335035 
L 38.600703 14.524259 
L 41.545995 20.589207 
L 41.546411 20.589911 
L 43.04648 25.022569 
L 41.545995 24.282187 
L 40.135739 23.585821 
L 37.930802 21.071132 
L 30.894924 22.155907 
L 31.770155 23.508416 
L 33.163239 22.048328 
L 37.543557 21.743631 
L 38.487786 23.192765 
L 41.545995 25.654157 
L 43.830025 27.134195 
L 46.42252 34.081766 
L 41.545995 40.524976 
L 41.443278 40.6602 
L 41.545995 40.602766 
L 41.93168 40.38749 
L 46.660112 42.965113 
L 48.979838 38.576467 
L 59.300903 39.557508 
L 64.655943 44.15782 
L 65.63285 49.809818 
L 63.110083 58.581128 
L 59.550984 62.006093 
L 57.482171 59.80924 
L 58.994312 61.444249 
L 56.015405 61.572245 
L 59.153539 61.646536 
L 58.404025 64.537035 
L 55.778124 65.59453 
L 54.776656 63.810355 
L 55.049945 65.226343 
L 50.992141 66.503228 
L 54.333005 66.134873 
L 53.278461 68.896567 
L 54.266296 69.490068 
L 45.012992 72.229468 
L 51.002756 72.057389 
L 48.694894 73.889922 
L 51.071338 74.118044 
L 51.776102 72.658366 
L 53.901009 73.343752 
L 53.913602 74.70012 
L 51.810654 73.943956 
L 53.776437 74.990698 
L 61.00599 73.826212 
L 60.563796 79.049961 
L 55.720574 81.329574 
L 54.846071 84.318952 
L 52.048558 83.813935 
L 44.819734 88.168824 
L 41.545995 86.96421 
" clip-path="url(#pa5944da5e4)" style="fill: none; stroke: #000000; stroke-width: 0.2"/>
    <path d="M 164.312277 270.925828 
L 164.31186 270.924995 
L 161.396228 269.445762 
L 163.130455 266.988967 
L 159.657734 266.068523 
L 161.623205 263.261187 
L 158.963585 263.276426 
L 158.724952 262.023511 
L 160.862347 260.433648 
L 158.281196 258.640775 
L 158.025808 256.960688 
L 160.12272 256.430355 
L 158.053803 254.540165 
L 159.63463 253.647342 
L 160.526617 250.555474 
L 164.51615 249.505373 
L 165.993532 247.804747 
L 168.392768 248.841108 
L 168.978163 242.896345 
L 170.178197 242.453315 
L 171.865488 259.115945 
L 169.762853 262.08565 
L 169.796988 266.905206 
L 168.149139 268.563844 
L 169.330961 268.77621 
L 167.302215 272.926365 
L 164.312277 270.925828 
" clip-path="url(#pa5944da5e4)" style="fill: none; stroke: #000000; stroke-width: 0.2"/>
    <path d="M 104.95247 66.802248 
L 106.854666 64.978173 
L 105.914912 66.196723 
L 107.4078 66.832817 
L 105.028337 66.78394 
L 104.95247 66.802248 
" clip-path="url(#pa5944da5e4)" style="fill: none; stroke: #000000; stroke-width: 0.2"/>
   </g>
   <g id="LineCollection_2">
    <path d="M 145.063752 153.842237 
L 143.999009 151.44628 
L 145.537376 145.970711 
L 144.927316 142.972501 
L 145.282924 141.867732 
L 145.638532 140.761797 
L 145.994245 139.654539 
L 146.349853 138.546421 
L 146.705461 137.436814 
L 147.061069 136.326343 
L 147.416677 135.214375 
L 147.772389 134.101378 
L 148.127997 132.987192 
L 148.364029 132.247047 
L 148.999274 131.46571 
L 149.634414 130.683786 
L 150.269659 129.901274 
L 150.904904 129.118172 
L 151.540149 128.334479 
L 152.175394 127.550195 
L 152.810535 126.765317 
L 153.44578 125.979845 
L 153.778596 125.567943 
L 152.968097 125.395462 
L 152.157494 125.222637 
L 151.346995 125.050099 
L 150.536391 124.877215 
L 149.725892 124.70462 
L 148.915289 124.531679 
L 148.10479 124.358867 
L 147.294186 124.186027 
L 146.483583 124.013158 
L 145.920042 123.892974 
L 142.873594 121.149234 
L 140.956411 122.516132 
L 137.629597 122.504685 
L 136.083633 120.227244 
L 133.359282 121.369536 
L 132.875563 120.359326 
L 132.391845 119.348125 
L 131.90823 118.335933 
L 131.424511 117.322745 
L 130.940793 116.30856 
L 130.763769 115.936943 
L 128.331127 115.220205 
L 128.676432 114.077963 
L 129.021737 112.934289 
L 129.367042 111.7895 
L 129.712347 110.643433 
L 130.057652 109.496083 
L 130.402958 108.347446 
L 130.543973 107.877954 
L 126.838239 106.326714 
L 124.928549 102.579961 
L 125.754555 98.878608 
L 128.823691 96.939741 
L 128.497847 94.432261 
L 125.913679 92.609945 
L 127.084573 90.557674 
L 123.780446 88.518981 
L 124.48521 84.201099 
L 121.537316 81.432701 
L 122.30421 80.978067 
L 123.071103 80.522896 
L 123.837997 80.06785 
L 124.604891 79.612431 
L 125.371785 79.156806 
L 125.70533 78.958701 
L 124.432134 77.156709 
L 126.429035 74.447796 
L 126.010048 73.321058 
L 125.591061 72.19305 
L 125.172178 71.063766 
L 124.753191 69.933204 
L 124.334204 68.801359 
L 123.915217 67.668396 
L 123.496334 66.533974 
L 123.077348 65.398259 
L 122.685419 64.33483 
L 125.667448 64.065048 
L 125.508325 62.555307 
L 128.895708 64.267307 
L 129.693719 63.973251 
L 130.49173 63.67894 
L 131.28974 63.384709 
L 132.087751 63.090392 
L 132.885762 62.795987 
L 133.571481 62.542993 
L 134.711987 60.963355 
L 132.828731 58.986831 
L 133.568151 58.415819 
L 134.30757 57.844478 
L 135.046989 57.272807 
L 135.786304 56.700806 
L 136.525724 56.128474 
L 137.265143 55.555811 
L 137.754585 55.17657 
L 136.905788 50.226652 
L 133.764739 50.214013 
L 132.787103 48.222183 
L 133.813965 45.926328 
L 137.735645 46.101117 
L 138.071167 44.870242 
L 138.40669 43.637478 
L 138.742212 42.403338 
L 139.077631 41.167642 
L 139.413153 39.930215 
L 139.748676 38.691569 
L 139.975029 37.854959 
L 139.91446 36.497469 
L 139.853891 35.138265 
L 139.793322 33.77682 
L 139.732753 32.413822 
L 139.672184 31.048743 
L 139.664275 30.871419 
L 136.974058 30.662177 
L 135.617606 27.752179 
L 134.837704 27.335105 
L 134.057905 26.917676 
L 133.278003 26.500069 
L 132.498204 26.082457 
L 131.718406 25.664315 
L 130.938503 25.246344 
L 130.158705 24.828017 
L 129.378802 24.40951 
L 128.967725 24.188875 
" clip-path="url(#pa5944da5e4)" style="fill: none; stroke: #ffffff; stroke-width: 0.2"/>
    <path d="M 144.290718 228.013756 
L 143.783064 226.254041 
L 146.693076 222.504862 
L 146.208005 220.541042 
L 145.399483 220.717642 
L 144.590857 220.89436 
L 143.782335 221.070904 
L 142.973709 221.247421 
L 142.165187 221.424055 
L 141.782417 221.507577 
L 141.006573 221.144154 
L 140.230833 220.780614 
L 139.455093 220.416956 
L 138.67925 220.053179 
L 137.90351 219.689285 
L 137.12777 219.325273 
L 136.902042 219.219358 
L 135.352331 216.846959 
L 136.144202 215.57921 
L 135.022637 213.709487 
L 136.71638 210.861677 
L 138.01601 210.819078 
L 137.462876 208.134815 
L 133.578974 206.439772 
L 131.847453 202.757606 
L 132.642342 202.481228 
L 133.437126 202.204781 
L 134.232015 201.92856 
L 135.026904 201.651974 
L 135.821792 201.375319 
L 136.616681 201.098742 
L 137.41157 200.822096 
L 138.072832 200.591775 
L 139.512748 196.835873 
L 138.883644 196.089736 
L 138.254643 195.343091 
L 137.625538 194.595937 
L 136.996537 193.848272 
L 136.367433 193.100097 
L 135.738432 192.35141 
L 135.109327 191.602209 
L 134.495937 190.871277 
L 134.424025 188.730654 
L 137.565177 186.754914 
L 139.603706 187.794956 
L 140.38569 187.448087 
L 141.167674 187.101107 
L 141.949658 186.754016 
L 142.731746 186.406815 
L 143.51373 186.059502 
L 144.295714 185.712079 
L 144.537053 185.604834 
L 145.335792 185.861844 
L 146.134531 186.118793 
L 146.933167 186.375681 
L 147.731906 186.632508 
L 148.530645 186.889275 
L 148.807368 186.978142 
L 149.446255 186.242753 
L 150.085143 185.506567 
L 150.724134 184.770182 
L 151.363021 184.032997 
L 152.001909 183.295611 
L 152.640796 182.557424 
L 152.70251 182.486221 
L 152.145526 179.896015 
L 152.857991 179.313109 
L 153.570352 178.729587 
L 154.282817 178.1459 
L 154.995178 177.561898 
L 155.707643 176.977428 
L 156.420004 176.392793 
L 156.540829 176.293535 
L 156.749282 180.586661 
L 159.09846 183.060365 
L 161.940307 183.524954 
L 161.383323 185.621011 
L 164.391786 188.937349 
L 165.479321 187.402926 
L 164.441116 184.655349 
L 165.066786 183.894982 
L 165.692352 183.134082 
L 166.318023 182.372648 
L 166.943589 181.610528 
L 167.56926 180.848022 
L 167.635344 180.767528 
L 168.362795 175.484628 
L 170.575641 175.402071 
L 171.712297 179.380603 
L 172.517593 179.168463 
L 173.322784 178.956281 
L 174.127976 178.744058 
L 174.933168 178.531642 
L 175.738359 178.319335 
L 176.543655 178.106835 
L 177.187538 177.936987 
L 179.828529 180.877058 
L 180.169567 177.244796 
L 178.589572 176.634629 
L 178.638798 174.768771 
L 181.135755 172.783874 
L 182.120989 174.493221 
L 184.379313 174.537411 
L 183.204672 171.894957 
L 184.602856 166.851428 
L 182.825752 165.663122 
L 179.445862 168.597939 
L 176.308456 166.823687 
L 176.255484 165.157478 
L 175.440302 165.051068 
L 174.625016 164.944801 
L 173.809833 164.838217 
L 172.994547 164.731928 
L 172.179364 164.625476 
L 171.364078 164.519014 
L 170.802931 164.445691 
L 171.01513 161.293067 
L 173.493251 157.677657 
L 172.045738 154.740615 
" clip-path="url(#pa5944da5e4)" style="fill: none; stroke: #ffffff; stroke-width: 0.2"/>
    <path d="M 174.285122 154.818618 
L 175.062007 153.639939 
L 177.452813 154.594305 
L 179.29111 158.388911 
L 181.109426 157.951734 
L 180.316931 160.09901 
L 183.788507 157.891329 
L 184.398254 153.712777 
L 184.754175 154.751869 
L 185.572687 154.751869 
L 186.391096 154.751869 
L 187.209608 154.751869 
L 188.028017 154.751869 
L 188.846426 154.751869 
L 189.664834 154.751869 
L 189.990886 154.751869 
L 191.297697 157.593099 
L 193.513546 157.562726 
" clip-path="url(#pa5944da5e4)" style="fill: none; stroke: #ffffff; stroke-width: 0.2"/>
    <path d="M 137.576521 186.754914 
L 136.948665 185.999759 
L 136.320809 185.244079 
L 135.692953 184.487874 
L 135.065097 183.731141 
L 134.437346 182.97388 
L 134.105674 182.573646 
L 134.431518 177.23921 
L 132.976511 176.458506 
L 132.165596 176.618921 
L 131.35468 176.779011 
L 130.543661 176.939378 
L 129.732745 177.099571 
L 128.921726 177.25974 
L 128.11081 177.419885 
L 127.63396 177.514059 
L 126.466916 179.078954 
L 127.524062 180.586661 
L 126.743015 180.940243 
L 125.961967 181.293408 
L 125.180816 181.64676 
L 124.399768 181.999846 
L 123.618721 182.352816 
L 122.924156 182.666772 
L 125.5537 178.140319 
L 124.360222 177.019402 
L 125.163436 173.710524 
L 125.873716 173.118657 
L 126.583995 172.526464 
L 127.294275 171.933793 
L 128.004554 171.340946 
L 128.714834 170.747772 
L 129.425113 170.154118 
L 129.630756 169.982098 
L 129.33145 166.995606 
L 132.976511 164.83501 
L 133.598747 164.054548 
L 134.220983 163.273514 
L 134.84322 162.491908 
L 135.465456 161.709882 
L 136.087692 160.926975 
L 136.709928 160.143798 
L 137.332164 159.359891 
L 137.872081 158.679238 
L 135.409154 158.444217 
L 136.902042 155.615897 
L 139.732545 155.655175 
L 140.399323 157.156978 
L 141.141656 156.647432 
L 141.883989 156.13764 
L 142.626323 155.627604 
L 143.368656 155.117321 
L 144.110989 154.606793 
L 144.853218 154.096019 
L 145.595551 153.584844 
L 145.768516 153.465848 
L 146.192915 154.701457 
L 147.002269 154.521373 
L 147.811624 154.341259 
L 148.620978 154.161113 
L 149.430333 153.980938 
L 150.239687 153.800731 
L 151.049146 153.620494 
L 151.8585 153.44038 
L 152.667854 153.260082 
L 153.384586 153.100443 
L 154.201642 153.171928 
L 155.018594 153.243255 
L 155.835649 153.314885 
L 156.652705 153.386202 
L 157.469657 153.457668 
L 158.286712 153.529129 
L 158.526386 153.550119 
L 159.151536 152.318727 
L 156.218836 151.435146 
L 158.393696 149.344132 
L 159.132699 149.867894 
L 159.871598 150.391395 
L 160.610497 150.914792 
L 161.3495 151.43762 
L 162.088399 151.960499 
L 162.827402 152.482965 
L 162.849673 152.498723 
L 163.667769 152.460254 
L 164.485762 152.421939 
L 165.303754 152.383622 
L 166.12185 152.344995 
L 166.939843 152.306675 
L 167.757939 152.268354 
L 167.881574 152.262482 
L 168.670947 152.58338 
L 169.460424 152.90418 
L 170.249797 153.224729 
L 171.03917 153.545489 
L 171.828543 153.865843 
L 172.617916 154.186255 
L 173.407289 154.50657 
L 174.196662 154.826788 
L 174.24724 154.84729 
" clip-path="url(#pa5944da5e4)" style="fill: none; stroke: #ffffff; stroke-width: 0.2"/>
    <path d="M 128.331127 115.220205 
L 126.523738 114.205386 
L 123.087026 115.459226 
L 120.218745 113.177853 
L 116.202258 114.252024 
L 113.515788 110.200415 
L 112.717777 109.919448 
L 111.919766 109.638405 
L 111.121755 109.357445 
L 110.323745 109.076408 
L 109.525734 108.795133 
L 108.727619 108.51378 
L 107.929608 108.232511 
L 107.839795 108.200753 
L 107.779122 106.935742 
L 107.71845 105.669001 
L 107.657777 104.400689 
L 107.597104 103.13096 
L 107.536327 101.859486 
L 107.475654 100.586423 
L 107.460876 100.275504 
L 106.784731 100.995314 
L 106.108691 101.714616 
L 105.432546 102.43341 
L 104.756506 103.151698 
L 104.080361 103.86948 
L 103.404321 104.586757 
L 103.073169 104.938091 
L 102.258091 104.82261 
L 101.443012 104.707117 
L 100.627934 104.59161 
L 99.812856 104.476253 
L 98.997777 104.36072 
L 98.182699 104.245336 
L 98.166256 104.242909 
L 99.056681 98.17944 
L 96.56347 96.239236 
L 95.754532 96.434304 
L 94.945594 96.629009 
L 94.136655 96.824002 
L 93.327717 97.018957 
L 92.518779 97.21355 
L 92.103747 97.313602 
L 90.87603 93.330955 
L 90.065322 93.15525 
L 89.254511 92.979351 
L 88.443804 92.803585 
L 87.632992 92.627624 
L 86.822181 92.451797 
L 86.287468 92.335872 
L 84.510364 86.919927 
L 81.138071 88.943939 
L 79.739991 88.267637 
L 77.057268 85.564315 
L 76.216068 80.401614 
" clip-path="url(#pa5944da5e4)" style="fill: none; stroke: #ffffff; stroke-width: 0.2"/>
    <path d="M 193.513546 167.032887 
L 191.794528 170.148192 
L 190.9884 169.941064 
L 190.182376 169.733744 
L 189.376351 169.526383 
L 188.570327 169.318983 
L 187.764303 169.111694 
L 186.958175 168.904366 
L 186.15215 168.696845 
L 185.346126 168.489284 
L 184.540102 168.281835 
L 184.390657 168.243324 
" clip-path="url(#pa5944da5e4)" style="fill: none; stroke: #ffffff; stroke-width: 0.2"/>
    <path d="M 123.549306 87.638918 
L 122.730898 87.634312 
L 121.912489 87.629706 
L 121.093976 87.6251 
L 120.275568 87.620493 
L 119.457159 87.615887 
L 119.278991 87.6149 
L 118.471926 85.774472 
L 118.927233 84.696847 
L 119.382437 83.617903 
L 119.83764 82.5378 
L 120.292948 81.456702 
L 120.748151 80.37444 
L 121.203458 79.290845 
L 121.332714 78.982927 
L 120.574978 78.489831 
L 119.817138 77.996491 
L 119.059403 77.502743 
L 118.301563 77.008918 
L 117.543827 76.514849 
L 116.785988 76.020536 
L 116.717614 75.975768 
L 112.856503 76.617973 
L 110.314066 71.77398 
L 108.79464 73.701115 
L 106.786396 73.348758 
L 107.040328 71.463574 
L 104.982858 73.16035 
L 102.747221 71.901658 
L 101.481727 72.570697 
L 101.947753 74.508466 
L 99.374928 74.241422 
L 98.640921 74.821093 
L 97.906913 75.400429 
L 97.172801 75.97943 
L 96.438794 76.558096 
L 95.704682 77.136428 
L 94.970674 77.714427 
L 94.710603 77.919089 
L 93.936112 77.496761 
L 93.161621 77.073922 
L 92.38713 76.651237 
L 91.612639 76.228374 
L 90.838148 75.805165 
L 90.762385 75.763717 
L 88.458582 77.065942 
L 87.522782 74.271764 
" clip-path="url(#pa5944da5e4)" style="fill: none; stroke: #ffffff; stroke-width: 0.2"/>
    <path d="M 41.542249 248.214276 
L 40.825413 247.676659 
L 40.108577 247.138649 
L 39.391741 246.60053 
L 38.674905 246.062159 
L 37.958069 245.523393 
L 37.753154 245.369495 
L 34.282307 246.511315 
L 31.607285 243.082301 
L 29.129164 243.387846 
L 28.341352 243.084719 
L 27.55354 242.781655 
L 26.765624 242.47851 
L 25.977812 242.175142 
L 25.19 241.871695 
L 24.578483 241.636257 
L 24.35494 240.385619 
L 22.236798 241.522153 
L 22.846858 237.479712 
L 22.03282 237.363333 
L 21.218783 237.246799 
L 20.404745 237.130397 
L 19.590707 237.013982 
L 18.77667 236.897413 
L 18.406076 236.844488 
L 17.420946 235.385362 
" clip-path="url(#pa5944da5e4)" style="fill: none; stroke: #ffffff; stroke-width: 0.2"/>
    <path d="M 61.813784 250.21337 
L 60.248879 247.714067 
L 59.450972 247.465794 
L 58.65317 247.217467 
L 57.855263 246.969229 
L 57.057356 246.720938 
L 56.259449 246.47245 
L 55.461647 246.223909 
L 54.66374 245.975457 
L 53.865833 245.72695 
L 53.067927 245.478248 
L 52.27002 245.229492 
L 51.939493 245.126396 
L 51.27261 248.224615 
L 50.457532 248.12292 
L 49.642558 248.021075 
L 48.827479 247.91922 
L 48.012505 247.817498 
L 47.197427 247.715767 
L 46.382453 247.614027 
L 45.567478 247.512137 
L 44.7524 247.410237 
L 44.5811 247.388977 
L 41.618012 248.229714 
" clip-path="url(#pa5944da5e4)" style="fill: none; stroke: #ffffff; stroke-width: 0.2"/>
    <path d="M 125.205168 101.132982 
L 122.977128 100.240085 
L 122.440125 101.203919 
L 121.903123 102.166841 
L 121.36612 103.128692 
L 120.829118 104.08996 
L 120.292115 105.05 
L 119.755112 106.0093 
L 119.72233 106.067944 
L 122.01479 110.955714 
L 120.779476 113.434833 
" clip-path="url(#pa5944da5e4)" style="fill: none; stroke: #ffffff; stroke-width: 0.2"/>
    <path d="M 85.309936 253.313202 
L 82.070228 252.342521 
L 78.535065 253.67765 
L 78.341807 255.067701 
L 77.546814 254.804386 
L 76.751821 254.541151 
L 75.956829 254.277857 
L 75.161836 254.014362 
L 74.366843 253.750948 
L 73.57185 253.487474 
L 72.783206 253.225915 
L 69.710219 254.570309 
L 68.965076 254.112158 
L 68.219829 253.653827 
L 67.474686 253.195313 
L 66.729439 252.73676 
L 65.984191 252.277884 
L 65.49683 251.977653 
" clip-path="url(#pa5944da5e4)" style="fill: none; stroke: #ffffff; stroke-width: 0.2"/>
    <path d="M 65.49683 251.977653 
L 62.056267 253.128467 
L 61.434864 250.892672 
L 63.435511 249.038984 
L 65.80748 249.801438 
L 65.470292 251.977653 
" clip-path="url(#pa5944da5e4)" style="fill: none; stroke: #ffffff; stroke-width: 0.2"/>
    <path d="M 173.542477 243.698571 
L 172.969466 242.89976 
L 172.396455 242.100676 
L 171.82334 241.30075 
L 171.250329 240.500549 
L 170.677318 239.699503 
L 170.47334 239.414379 
" clip-path="url(#pa5944da5e4)" style="fill: none; stroke: #ffffff; stroke-width: 0.2"/>
    <path d="M 172.489077 164.323474 
L 171.598652 160.109747 
" clip-path="url(#pa5944da5e4)" style="fill: none; stroke: #ffffff; stroke-width: 0.2"/>
    <path d="M 68.755374 252.825495 
L 69.206311 251.931348 
L 68.740284 252.804899 
" clip-path="url(#pa5944da5e4)" style="fill: none; stroke: #ffffff; stroke-width: 0.2"/>
    <path d="M 175.61514 252.357904 
L 175.137666 249.0905 
" clip-path="url(#pa5944da5e4)" style="fill: none; stroke: #ffffff; stroke-width: 0.2"/>
    <path d="M 168.739968 273.312 
L 169.764726 272.090063 
" clip-path="url(#pa5944da5e4)" style="fill: none; stroke: #ffffff; stroke-width: 0.2"/>
    <path d="M 142.369685 229.13118 
L 143.036568 228.601496 
" clip-path="url(#pa5944da5e4)" style="fill: none; stroke: #ffffff; stroke-width: 0.2"/>
    <path d="M 159.947257 151.654719 
L 159.958601 151.654719 
" clip-path="url(#pa5944da5e4)" style="fill: none; stroke: #ffffff; stroke-width: 0.2"/>
   </g>
   <g id="LineCollection_3"/>
   <g id="line2d_1">
    <path d="M 139.02365 170.522936 
L 143.134275 166.64533 
L 143.134275 166.64533 
" clip-path="url(#pa5944da5e4)" style="fill: none; stroke: #008000; stroke-width: 0.25; stroke-linecap: square"/>
   </g>
   <g id="line2d_2">
    <path d="M 139.02365 170.522936 
L 125.377496 181.446585 
L 125.377496 181.446585 
" clip-path="url(#pa5944da5e4)" style="fill: none; stroke: #008000; stroke-width: 0.25; stroke-linecap: square"/>
   </g>
   <g id="line2d_3">
    <path d="M 149.352387 158.584331 
L 143.134275 166.64533 
L 143.134275 166.64533 
" clip-path="url(#pa5944da5e4)" style="fill: none; stroke: #008000; stroke-width: 0.25; stroke-linecap: square"/>
   </g>
   <g id="line2d_4">
    <path d="M 149.352387 158.584331 
L 158.173962 158.248454 
L 158.173962 158.248454 
" clip-path="url(#pa5944da5e4)" style="fill: none; stroke: #008000; stroke-width: 0.25; stroke-linecap: square"/>
   </g>
   <g id="line2d_5">
    <path d="M 78.830524 141.671951 
L 78.973342 152.862338 
L 78.973342 152.862338 
" clip-path="url(#pa5944da5e4)" style="fill: none; stroke: #008000; stroke-width: 0.25; stroke-linecap: square"/>
   </g>
   <g id="line2d_6">
    <path d="M 78.830524 141.671951 
L 75.42035 133.112592 
L 75.42035 133.112592 
" clip-path="url(#pa5944da5e4)" style="fill: none; stroke: #008000; stroke-width: 0.25; stroke-linecap: square"/>
   </g>
   <g id="line2d_7">
    <path d="M 78.973342 152.862338 
L 84.63696 165.816369 
L 84.63696 165.816369 
" clip-path="url(#pa5944da5e4)" style="fill: none; stroke: #008000; stroke-width: 0.25; stroke-linecap: square"/>
   </g>
   <g id="line2d_8">
    <path d="M 84.63696 165.816369 
L 92.965015 173.138638 
L 92.965015 173.138638 
" clip-path="url(#pa5944da5e4)" style="fill: none; stroke: #008000; stroke-width: 0.25; stroke-linecap: square"/>
   </g>
   <g id="line2d_9">
    <path d="M 92.965015 173.138638 
L 99.973606 176.882085 
L 99.973606 176.882085 
" clip-path="url(#pa5944da5e4)" style="fill: none; stroke: #008000; stroke-width: 0.25; stroke-linecap: square"/>
   </g>
   <g id="line2d_10">
    <path d="M 99.973606 176.882085 
L 106.33931 183.459338 
L 106.33931 183.459338 
" clip-path="url(#pa5944da5e4)" style="fill: none; stroke: #008000; stroke-width: 0.25; stroke-linecap: square"/>
   </g>
   <g id="line2d_11">
    <path d="M 106.33931 183.459338 
L 109.825282 187.386656 
L 109.825282 187.386656 
" clip-path="url(#pa5944da5e4)" style="fill: none; stroke: #008000; stroke-width: 0.25; stroke-linecap: square"/>
   </g>
   <g id="line2d_12">
    <path d="M 115.433154 188.366273 
L 120.207399 189.34501 
L 120.207399 189.34501 
" clip-path="url(#pa5944da5e4)" style="fill: none; stroke: #008000; stroke-width: 0.25; stroke-linecap: square"/>
   </g>
   <g id="line2d_13">
    <path d="M 115.433154 188.366273 
L 109.825282 187.386656 
L 109.825282 187.386656 
" clip-path="url(#pa5944da5e4)" style="fill: none; stroke: #008000; stroke-width: 0.25; stroke-linecap: square"/>
   </g>
   <g id="line2d_14">
    <path d="M 120.207399 189.34501 
L 125.377496 181.446585 
L 125.377496 181.446585 
" clip-path="url(#pa5944da5e4)" style="fill: none; stroke: #008000; stroke-width: 0.25; stroke-linecap: square"/>
   </g>
   <g id="line2d_15">
    <path d="M 107.70338 190.322869 
L 109.825282 187.386656 
L 109.825282 187.386656 
" clip-path="url(#pa5944da5e4)" style="fill: none; stroke: #008000; stroke-width: 0.25; stroke-linecap: square"/>
   </g>
   <g id="line2d_16">
    <path d="M 107.70338 190.322869 
L 107.021345 200.376623 
L 107.021345 200.376623 
" clip-path="url(#pa5944da5e4)" style="fill: none; stroke: #008000; stroke-width: 0.25; stroke-linecap: square"/>
   </g>
   <g id="line2d_17">
    <path d="M 106.33931 222.431088 
L 112.574337 229.859716 
L 112.574337 229.859716 
" clip-path="url(#pa5944da5e4)" style="fill: none; stroke: #008000; stroke-width: 0.25; stroke-linecap: square"/>
   </g>
   <g id="line2d_18">
    <path d="M 106.33931 222.431088 
L 106.33931 213.214897 
L 106.33931 213.214897 
" clip-path="url(#pa5944da5e4)" style="fill: none; stroke: #008000; stroke-width: 0.25; stroke-linecap: square"/>
   </g>
   <g id="line2d_19">
    <path d="M 101.792456 77.671002 
L 101.792456 77.671002 
" clip-path="url(#pa5944da5e4)" style="fill: none; stroke: #008000; stroke-width: 0.25; stroke-linecap: square"/>
   </g>
   <g id="line2d_20">
    <path d="M 101.792456 77.671002 
L 102.300709 72.298352 
L 102.300709 72.298352 
" clip-path="url(#pa5944da5e4)" style="fill: none; stroke: #008000; stroke-width: 0.25; stroke-linecap: square"/>
   </g>
   <g id="line2d_21">
    <path d="M 61.238662 231.491852 
L 59.234297 227.246568 
L 59.234297 227.246568 
" clip-path="url(#pa5944da5e4)" style="fill: none; stroke: #008000; stroke-width: 0.25; stroke-linecap: square"/>
   </g>
   <g id="line2d_22">
    <path d="M 61.238662 231.491852 
L 66.099251 235.958676 
L 66.099251 235.958676 
" clip-path="url(#pa5944da5e4)" style="fill: none; stroke: #008000; stroke-width: 0.25; stroke-linecap: square"/>
   </g>
   <g id="line2d_23">
    <path d="M 100.86639 85.614726 
L 88.59549 91.7064 
L 88.59549 91.7064 
" clip-path="url(#pa5944da5e4)" style="fill: none; stroke: #008000; stroke-width: 0.25; stroke-linecap: square"/>
   </g>
   <g id="line2d_24">
    <path d="M 100.86639 85.614726 
L 100.86639 85.614726 
" clip-path="url(#pa5944da5e4)" style="fill: none; stroke: #008000; stroke-width: 0.25; stroke-linecap: square"/>
   </g>
   <g id="line2d_25">
    <path d="M 114.947546 237.266128 
L 112.574337 229.859716 
L 112.574337 229.859716 
" clip-path="url(#pa5944da5e4)" style="fill: none; stroke: #008000; stroke-width: 0.25; stroke-linecap: square"/>
   </g>
   <g id="line2d_26">
    <path d="M 114.947546 237.266128 
L 108.993381 234.624361 
L 108.993381 234.624361 
" clip-path="url(#pa5944da5e4)" style="fill: none; stroke: #008000; stroke-width: 0.25; stroke-linecap: square"/>
   </g>
   <g id="line2d_27">
    <path d="M 33.816221 208.097507 
L 42.00064 214.171816 
L 42.00064 214.171816 
" clip-path="url(#pa5944da5e4)" style="fill: none; stroke: #008000; stroke-width: 0.25; stroke-linecap: square"/>
   </g>
   <g id="line2d_28">
    <path d="M 33.816221 208.097507 
L 40.181925 207.13534 
L 40.181925 207.13534 
" clip-path="url(#pa5944da5e4)" style="fill: none; stroke: #008000; stroke-width: 0.25; stroke-linecap: square"/>
   </g>
   <g id="line2d_29">
    <path d="M 154.850406 164.597447 
L 158.173962 158.248454 
L 158.173962 158.248454 
" clip-path="url(#pa5944da5e4)" style="fill: none; stroke: #008000; stroke-width: 0.25; stroke-linecap: square"/>
   </g>
   <g id="line2d_30">
    <path d="M 154.850406 164.597447 
L 159.538032 167.938561 
L 159.538032 167.938561 
" clip-path="url(#pa5944da5e4)" style="fill: none; stroke: #008000; stroke-width: 0.25; stroke-linecap: square"/>
   </g>
   <g id="line2d_31">
    <path d="M 166.897325 195.894212 
L 164.297545 181.756558 
L 164.297545 181.756558 
" clip-path="url(#pa5944da5e4)" style="fill: none; stroke: #008000; stroke-width: 0.25; stroke-linecap: square"/>
   </g>
   <g id="line2d_32">
    <path d="M 87.485956 124.786993 
L 80.649375 125.868066 
L 80.649375 125.868066 
" clip-path="url(#pa5944da5e4)" style="fill: none; stroke: #008000; stroke-width: 0.25; stroke-linecap: square"/>
   </g>
   <g id="line2d_33">
    <path d="M 87.485956 124.786993 
L 98.609536 123.788877 
L 98.609536 123.788877 
" clip-path="url(#pa5944da5e4)" style="fill: none; stroke: #008000; stroke-width: 0.25; stroke-linecap: square"/>
   </g>
   <g id="line2d_34">
    <path d="M 80.649375 125.868066 
L 73.585266 127.872401 
L 73.585266 127.872401 
" clip-path="url(#pa5944da5e4)" style="fill: none; stroke: #008000; stroke-width: 0.25; stroke-linecap: square"/>
   </g>
   <g id="line2d_35">
    <path d="M 109.522094 128.288595 
L 119.297973 131.047874 
L 119.297973 131.047874 
" clip-path="url(#pa5944da5e4)" style="fill: none; stroke: #008000; stroke-width: 0.25; stroke-linecap: square"/>
   </g>
   <g id="line2d_36">
    <path d="M 109.522094 128.288595 
L 98.609536 123.788877 
L 98.609536 123.788877 
" clip-path="url(#pa5944da5e4)" style="fill: none; stroke: #008000; stroke-width: 0.25; stroke-linecap: square"/>
   </g>
   <g id="line2d_37">
    <path d="M 85.878263 89.219026 
L 88.59549 91.7064 
L 88.59549 91.7064 
" clip-path="url(#pa5944da5e4)" style="fill: none; stroke: #008000; stroke-width: 0.25; stroke-linecap: square"/>
   </g>
   <g id="line2d_38">
    <path d="M 85.878263 89.219026 
L 81.558664 94.229878 
L 81.558664 94.229878 
" clip-path="url(#pa5944da5e4)" style="fill: none; stroke: #008000; stroke-width: 0.25; stroke-linecap: square"/>
   </g>
   <g id="line2d_39">
    <path d="M 85.878263 89.219026 
L 92.243968 81.294048 
L 92.243968 81.294048 
" clip-path="url(#pa5944da5e4)" style="fill: none; stroke: #008000; stroke-width: 0.25; stroke-linecap: square"/>
   </g>
   <g id="line2d_40">
    <path d="M 80.859851 114.886238 
L 71.939925 122.5927 
L 71.939925 122.5927 
" clip-path="url(#pa5944da5e4)" style="fill: none; stroke: #008000; stroke-width: 0.25; stroke-linecap: square"/>
   </g>
   <g id="line2d_41">
    <path d="M 80.859851 114.886238 
L 81.33141 105.5913 
L 81.33141 105.5913 
" clip-path="url(#pa5944da5e4)" style="fill: none; stroke: #008000; stroke-width: 0.25; stroke-linecap: square"/>
   </g>
   <g id="line2d_42">
    <path d="M 81.558664 94.229878 
L 81.33141 105.5913 
L 81.33141 105.5913 
" clip-path="url(#pa5944da5e4)" style="fill: none; stroke: #008000; stroke-width: 0.25; stroke-linecap: square"/>
   </g>
   <g id="line2d_43">
    <path d="M 92.243968 81.294048 
L 100.86639 85.614726 
L 100.86639 85.614726 
" clip-path="url(#pa5944da5e4)" style="fill: none; stroke: #008000; stroke-width: 0.25; stroke-linecap: square"/>
   </g>
   <g id="line2d_44">
    <path d="M 101.792456 77.671002 
L 100.86639 85.614726 
L 100.86639 85.614726 
" clip-path="url(#pa5944da5e4)" style="fill: none; stroke: #008000; stroke-width: 0.25; stroke-linecap: square"/>
   </g>
   <g id="line2d_45">
    <path d="M 159.538032 167.938561 
L 164.297545 181.756558 
L 164.297545 181.756558 
" clip-path="url(#pa5944da5e4)" style="fill: none; stroke: #008000; stroke-width: 0.25; stroke-linecap: square"/>
   </g>
   <g id="line2d_46">
    <path d="M 158.173962 158.248454 
L 145.215299 154.212851 
L 145.215299 154.212851 
" clip-path="url(#pa5944da5e4)" style="fill: none; stroke: #008000; stroke-width: 0.25; stroke-linecap: square"/>
   </g>
   <g id="line2d_47">
    <path d="M 145.215299 154.212851 
L 144.533265 147.113295 
L 144.533265 147.113295 
" clip-path="url(#pa5944da5e4)" style="fill: none; stroke: #008000; stroke-width: 0.25; stroke-linecap: square"/>
   </g>
   <g id="line2d_48">
    <path d="M 126.118322 131.392347 
L 137.030881 131.047874 
L 137.030881 131.047874 
" clip-path="url(#pa5944da5e4)" style="fill: none; stroke: #008000; stroke-width: 0.25; stroke-linecap: square"/>
   </g>
   <g id="line2d_49">
    <path d="M 126.118322 131.392347 
L 119.297973 131.047874 
L 119.297973 131.047874 
" clip-path="url(#pa5944da5e4)" style="fill: none; stroke: #008000; stroke-width: 0.25; stroke-linecap: square"/>
   </g>
   <g id="line2d_50">
    <path d="M 147.261404 133.456383 
L 137.030881 131.047874 
L 137.030881 131.047874 
" clip-path="url(#pa5944da5e4)" style="fill: none; stroke: #008000; stroke-width: 0.25; stroke-linecap: square"/>
   </g>
   <g id="line2d_51">
    <path d="M 147.261404 133.456383 
L 139.304376 126.906097 
L 139.304376 126.906097 
" clip-path="url(#pa5944da5e4)" style="fill: none; stroke: #008000; stroke-width: 0.25; stroke-linecap: square"/>
   </g>
   <g id="line2d_52">
    <path d="M 147.261404 133.456383 
L 144.533265 147.113295 
L 144.533265 147.113295 
" clip-path="url(#pa5944da5e4)" style="fill: none; stroke: #008000; stroke-width: 0.25; stroke-linecap: square"/>
   </g>
   <g id="line2d_53">
    <path d="M 157.010684 114.62547 
L 143.329612 124.074635 
L 139.304376 126.906097 
L 139.304376 126.906097 
" clip-path="url(#pa5944da5e4)" style="fill: none; stroke: #008000; stroke-width: 0.25; stroke-linecap: square"/>
   </g>
   <g id="line2d_54">
    <path d="M 157.010684 114.62547 
L 159.992677 101.345588 
L 159.992677 101.345588 
" clip-path="url(#pa5944da5e4)" style="fill: none; stroke: #008000; stroke-width: 0.25; stroke-linecap: square"/>
   </g>
   <g id="line2d_55">
    <path d="M 159.992677 101.345588 
L 154.763788 100.991121 
L 154.763788 100.991121 
" clip-path="url(#pa5944da5e4)" style="fill: none; stroke: #008000; stroke-width: 0.25; stroke-linecap: square"/>
   </g>
   <g id="line2d_56">
    <path d="M 159.992677 101.345588 
L 159.992677 101.345588 
" clip-path="url(#pa5944da5e4)" style="fill: none; stroke: #008000; stroke-width: 0.25; stroke-linecap: square"/>
   </g>
   <g id="line2d_57">
    <path d="M 73.585266 127.872401 
L 73.585266 127.872401 
L 73.585266 127.872401 
" clip-path="url(#pa5944da5e4)" style="fill: none; stroke: #008000; stroke-width: 0.25; stroke-linecap: square"/>
   </g>
   <g id="line2d_58">
    <path d="M 73.585266 127.872401 
L 71.939925 122.5927 
L 71.939925 122.5927 
" clip-path="url(#pa5944da5e4)" style="fill: none; stroke: #008000; stroke-width: 0.25; stroke-linecap: square"/>
   </g>
   <g id="line2d_59">
    <path d="M 33.816221 73.306078 
L 39.048111 79.925449 
L 39.048111 79.925449 
" clip-path="url(#pa5944da5e4)" style="fill: none; stroke: #008000; stroke-width: 0.25; stroke-linecap: square"/>
   </g>
   <g id="line2d_60">
    <path d="M 33.816221 73.306078 
L 39.830814 71.294868 
L 39.830814 71.294868 
" clip-path="url(#pa5944da5e4)" style="fill: none; stroke: #008000; stroke-width: 0.25; stroke-linecap: square"/>
   </g>
   <g id="line2d_61">
    <path d="M 39.830814 71.294868 
L 49.48038 58.721759 
L 49.48038 58.721759 
" clip-path="url(#pa5944da5e4)" style="fill: none; stroke: #008000; stroke-width: 0.25; stroke-linecap: square"/>
   </g>
   <g id="line2d_62">
    <path d="M 65.417217 49.697887 
L 52.745417 54.453318 
L 52.745417 54.453318 
" clip-path="url(#pa5944da5e4)" style="fill: none; stroke: #008000; stroke-width: 0.25; stroke-linecap: square"/>
   </g>
   <g id="line2d_63">
    <path d="M 65.417217 49.697887 
L 80.212956 50.468135 
L 94.982339 51.459834 
L 103.394147 52.124273 
L 103.394147 52.124273 
" clip-path="url(#pa5944da5e4)" style="fill: none; stroke: #008000; stroke-width: 0.25; stroke-linecap: square"/>
   </g>
   <g id="line2d_64">
    <path d="M 108.244779 52.143041 
L 102.645 62.180606 
L 102.645 62.180606 
" clip-path="url(#pa5944da5e4)" style="fill: none; stroke: #008000; stroke-width: 0.25; stroke-linecap: square"/>
   </g>
   <g id="line2d_65">
    <path d="M 108.244779 52.143041 
L 103.394147 52.124273 
L 103.394147 52.124273 
" clip-path="url(#pa5944da5e4)" style="fill: none; stroke: #008000; stroke-width: 0.25; stroke-linecap: square"/>
   </g>
   <g id="line2d_66">
    <path d="M 108.244779 52.143041 
L 115.584703 60.206391 
L 115.584703 60.206391 
" clip-path="url(#pa5944da5e4)" style="fill: none; stroke: #008000; stroke-width: 0.25; stroke-linecap: square"/>
   </g>
   <g id="line2d_67">
    <path d="M 73.585266 127.872401 
L 76.557165 136.544794 
L 76.557165 136.544794 
" clip-path="url(#pa5944da5e4)" style="fill: none; stroke: #008000; stroke-width: 0.25; stroke-linecap: square"/>
   </g>
   <g id="line2d_68">
    <path d="M 73.585266 127.872401 
L 75.42035 133.112592 
L 75.42035 133.112592 
" clip-path="url(#pa5944da5e4)" style="fill: none; stroke: #008000; stroke-width: 0.25; stroke-linecap: square"/>
   </g>
   <g id="line2d_69">
    <path d="M 81.33141 105.5913 
L 72.9196 105.944384 
L 72.9196 105.944384 
" clip-path="url(#pa5944da5e4)" style="fill: none; stroke: #008000; stroke-width: 0.25; stroke-linecap: square"/>
   </g>
   <g id="line2d_70">
    <path d="M 72.9196 105.944384 
L 61.925198 99.954885 
L 61.925198 99.954885 
" clip-path="url(#pa5944da5e4)" style="fill: none; stroke: #008000; stroke-width: 0.25; stroke-linecap: square"/>
   </g>
   <g id="line2d_71">
    <path d="M 39.048111 79.925449 
L 44.728779 86.704146 
L 44.728779 86.704146 
" clip-path="url(#pa5944da5e4)" style="fill: none; stroke: #008000; stroke-width: 0.25; stroke-linecap: square"/>
   </g>
   <g id="line2d_72">
    <path d="M 102.645 62.180606 
L 102.300709 72.298352 
L 102.300709 72.298352 
" clip-path="url(#pa5944da5e4)" style="fill: none; stroke: #008000; stroke-width: 0.25; stroke-linecap: square"/>
   </g>
   <g id="line2d_73">
    <path d="M 59.234297 227.246568 
L 50.867093 220.530531 
L 50.867093 220.530531 
" clip-path="url(#pa5944da5e4)" style="fill: none; stroke: #008000; stroke-width: 0.25; stroke-linecap: square"/>
   </g>
   <g id="line2d_74">
    <path d="M 50.867093 220.530531 
L 42.00064 214.171816 
L 42.00064 214.171816 
" clip-path="url(#pa5944da5e4)" style="fill: none; stroke: #008000; stroke-width: 0.25; stroke-linecap: square"/>
   </g>
   <g id="line2d_75">
    <path d="M 59.733547 153.875991 
L 67.463321 147.113295 
L 67.463321 147.113295 
" clip-path="url(#pa5944da5e4)" style="fill: none; stroke: #008000; stroke-width: 0.25; stroke-linecap: square"/>
   </g>
   <g id="line2d_76">
    <path d="M 59.733547 153.875991 
L 50.867093 157.912874 
L 50.867093 157.912874 
" clip-path="url(#pa5944da5e4)" style="fill: none; stroke: #008000; stroke-width: 0.25; stroke-linecap: square"/>
   </g>
   <g id="line2d_77">
    <path d="M 46.092849 173.909169 
L 50.867093 157.912874 
L 50.867093 157.912874 
" clip-path="url(#pa5944da5e4)" style="fill: none; stroke: #008000; stroke-width: 0.25; stroke-linecap: square"/>
   </g>
   <g id="line2d_78">
    <path d="M 46.092849 173.909169 
L 35.635072 184.4425 
L 35.635072 184.4425 
" clip-path="url(#pa5944da5e4)" style="fill: none; stroke: #008000; stroke-width: 0.25; stroke-linecap: square"/>
   </g>
   <g id="line2d_79">
    <path d="M 42.22803 192.601203 
L 35.635072 184.4425 
L 35.635072 184.4425 
" clip-path="url(#pa5944da5e4)" style="fill: none; stroke: #008000; stroke-width: 0.25; stroke-linecap: square"/>
   </g>
   <g id="line2d_80">
    <path d="M 42.22803 192.601203 
L 40.181925 207.13534 
L 40.181925 207.13534 
" clip-path="url(#pa5944da5e4)" style="fill: none; stroke: #008000; stroke-width: 0.25; stroke-linecap: square"/>
   </g>
   <g id="line2d_81">
    <path d="M 107.021345 200.376623 
L 106.33931 213.214897 
L 106.33931 213.214897 
" clip-path="url(#pa5944da5e4)" style="fill: none; stroke: #008000; stroke-width: 0.25; stroke-linecap: square"/>
   </g>
   <g id="line2d_82">
    <path d="M 133.977547 77.561021 
L 128.391817 70.019837 
L 128.391817 70.019837 
" clip-path="url(#pa5944da5e4)" style="fill: none; stroke: #008000; stroke-width: 0.25; stroke-linecap: square"/>
   </g>
   <g id="line2d_83">
    <path d="M 133.977547 77.561021 
L 137.712916 84.90408 
L 137.712916 84.90408 
" clip-path="url(#pa5944da5e4)" style="fill: none; stroke: #008000; stroke-width: 0.25; stroke-linecap: square"/>
   </g>
   <g id="line2d_84">
    <path d="M 103.156526 228.743125 
L 108.993381 234.624361 
L 108.993381 234.624361 
" clip-path="url(#pa5944da5e4)" style="fill: none; stroke: #008000; stroke-width: 0.25; stroke-linecap: square"/>
   </g>
   <g id="line2d_85">
    <path d="M 103.156526 228.743125 
L 94.517327 231.572097 
L 94.517327 231.572097 
" clip-path="url(#pa5944da5e4)" style="fill: none; stroke: #008000; stroke-width: 0.25; stroke-linecap: square"/>
   </g>
   <g id="line2d_86">
    <path d="M 83.604768 236.896473 
L 94.517327 231.572097 
L 94.517327 231.572097 
" clip-path="url(#pa5944da5e4)" style="fill: none; stroke: #008000; stroke-width: 0.25; stroke-linecap: square"/>
   </g>
   <g id="line2d_87">
    <path d="M 83.604768 236.896473 
L 76.329775 239.081731 
L 76.329775 239.081731 
" clip-path="url(#pa5944da5e4)" style="fill: none; stroke: #008000; stroke-width: 0.25; stroke-linecap: square"/>
   </g>
   <g id="line2d_88">
    <path d="M 66.099251 235.958676 
L 76.329775 239.081731 
L 76.329775 239.081731 
" clip-path="url(#pa5944da5e4)" style="fill: none; stroke: #008000; stroke-width: 0.25; stroke-linecap: square"/>
   </g>
   <g id="line2d_89">
    <path d="M 67.463321 147.113295 
L 76.557165 136.544794 
L 76.557165 136.544794 
" clip-path="url(#pa5944da5e4)" style="fill: none; stroke: #008000; stroke-width: 0.25; stroke-linecap: square"/>
   </g>
   <g id="line2d_90">
    <path d="M 49.48038 58.721759 
L 52.745417 54.453318 
L 52.745417 54.453318 
" clip-path="url(#pa5944da5e4)" style="fill: none; stroke: #008000; stroke-width: 0.25; stroke-linecap: square"/>
   </g>
   <g id="line2d_91">
    <path d="M 61.925198 99.954885 
L 48.584273 89.634496 
L 44.728779 86.704146 
L 44.728779 86.704146 
" clip-path="url(#pa5944da5e4)" style="fill: none; stroke: #008000; stroke-width: 0.25; stroke-linecap: square"/>
   </g>
   <g id="line2d_92">
    <path d="M 125.436287 63.414681 
L 115.584703 60.206391 
L 115.584703 60.206391 
" clip-path="url(#pa5944da5e4)" style="fill: none; stroke: #008000; stroke-width: 0.25; stroke-linecap: square"/>
   </g>
   <g id="line2d_93">
    <path d="M 125.436287 63.414681 
L 128.391817 70.019837 
L 128.391817 70.019837 
" clip-path="url(#pa5944da5e4)" style="fill: none; stroke: #008000; stroke-width: 0.25; stroke-linecap: square"/>
   </g>
   <g id="line2d_94">
    <path d="M 137.712916 84.90408 
L 140.8957 91.727446 
L 140.8957 91.727446 
" clip-path="url(#pa5944da5e4)" style="fill: none; stroke: #008000; stroke-width: 0.25; stroke-linecap: square"/>
   </g>
   <g id="line2d_95">
    <path d="M 140.8957 91.727446 
L 145.215299 92.085377 
L 145.215299 92.085377 
" clip-path="url(#pa5944da5e4)" style="fill: none; stroke: #008000; stroke-width: 0.25; stroke-linecap: square"/>
   </g>
   <g id="line2d_96">
    <path d="M 145.215299 92.085377 
L 154.763788 100.991121 
L 154.763788 100.991121 
" clip-path="url(#pa5944da5e4)" style="fill: none; stroke: #008000; stroke-width: 0.25; stroke-linecap: square"/>
   </g>
   <g id="patch_8">
    <path d="M 7.2 273.312 
L 7.2 7.2 
" style="fill: none; stroke: #ffffff; stroke-linejoin: miter; stroke-linecap: square"/>
   </g>
   <g id="patch_9">
    <path d="M 193.513546 273.312 
L 193.513546 7.2 
" style="fill: none; stroke: #ffffff; stroke-linejoin: miter; stroke-linecap: square"/>
   </g>
   <g id="patch_10">
    <path d="M 7.2 273.312 
L 193.513546 273.312 
" style="fill: none; stroke: #ffffff; stroke-linejoin: miter; stroke-linecap: square"/>
   </g>
   <g id="patch_11">
    <path d="M 7.2 7.2 
L 193.513546 7.2 
" style="fill: none; stroke: #ffffff; stroke-linejoin: miter; stroke-linecap: square"/>
   </g>
   <g id="PathCollection_1">
    <defs>
     <path id="m5bab0cbd4c" d="M 0 0.353553 
C 0.093763 0.353553 0.183699 0.316301 0.25 0.25 
C 0.316301 0.183699 0.353553 0.093763 0.353553 0 
C 0.353553 -0.093763 0.316301 -0.183699 0.25 -0.25 
C 0.183699 -0.316301 0.093763 -0.353553 0 -0.353553 
C -0.093763 -0.353553 -0.183699 -0.316301 -0.25 -0.25 
C -0.316301 -0.183699 -0.353553 -0.093763 -0.353553 0 
C -0.353553 0.093763 -0.316301 0.183699 -0.25 0.25 
C -0.183699 0.316301 -0.093763 0.353553 0 0.353553 
z
" style="stroke: #ff0000"/>
    </defs>
    <g clip-path="url(#pa5944da5e4)">
     <use xlink:href="#m5bab0cbd4c" x="139.02365" y="170.522936" style="fill: #ff0000; stroke: #ff0000"/>
    </g>
   </g>
   <g id="PathCollection_2">
    <g clip-path="url(#pa5944da5e4)">
     <use xlink:href="#m5bab0cbd4c" x="149.352387" y="158.584331" style="fill: #ff0000; stroke: #ff0000"/>
    </g>
   </g>
   <g id="PathCollection_3">
    <g clip-path="url(#pa5944da5e4)">
     <use xlink:href="#m5bab0cbd4c" x="78.830524" y="141.671951" style="fill: #ff0000; stroke: #ff0000"/>
    </g>
   </g>
   <g id="PathCollection_4">
    <g clip-path="url(#pa5944da5e4)">
     <use xlink:href="#m5bab0cbd4c" x="78.973342" y="152.862338" style="fill: #ff0000; stroke: #ff0000"/>
    </g>
   </g>
   <g id="PathCollection_5">
    <g clip-path="url(#pa5944da5e4)">
     <use xlink:href="#m5bab0cbd4c" x="84.63696" y="165.816369" style="fill: #ff0000; stroke: #ff0000"/>
    </g>
   </g>
   <g id="PathCollection_6">
    <g clip-path="url(#pa5944da5e4)">
     <use xlink:href="#m5bab0cbd4c" x="92.965015" y="173.138638" style="fill: #ff0000; stroke: #ff0000"/>
    </g>
   </g>
   <g id="PathCollection_7">
    <g clip-path="url(#pa5944da5e4)">
     <use xlink:href="#m5bab0cbd4c" x="99.973606" y="176.882085" style="fill: #ff0000; stroke: #ff0000"/>
    </g>
   </g>
   <g id="PathCollection_8">
    <g clip-path="url(#pa5944da5e4)">
     <use xlink:href="#m5bab0cbd4c" x="106.33931" y="183.459338" style="fill: #ff0000; stroke: #ff0000"/>
    </g>
   </g>
   <g id="PathCollection_9">
    <g clip-path="url(#pa5944da5e4)">
     <use xlink:href="#m5bab0cbd4c" x="115.433154" y="188.366273" style="fill: #ff0000; stroke: #ff0000"/>
    </g>
   </g>
   <g id="PathCollection_10">
    <g clip-path="url(#pa5944da5e4)">
     <use xlink:href="#m5bab0cbd4c" x="120.207399" y="189.34501" style="fill: #ff0000; stroke: #ff0000"/>
    </g>
   </g>
   <g id="PathCollection_11">
    <g clip-path="url(#pa5944da5e4)">
     <use xlink:href="#m5bab0cbd4c" x="107.70338" y="190.322869" style="fill: #ff0000; stroke: #ff0000"/>
    </g>
   </g>
   <g id="PathCollection_12">
    <defs>
     <path id="m48e6397081" d="M 0 0.353553 
C 0.093763 0.353553 0.183699 0.316301 0.25 0.25 
C 0.316301 0.183699 0.353553 0.093763 0.353553 0 
C 0.353553 -0.093763 0.316301 -0.183699 0.25 -0.25 
C 0.183699 -0.316301 0.093763 -0.353553 0 -0.353553 
C -0.093763 -0.353553 -0.183699 -0.316301 -0.25 -0.25 
C -0.316301 -0.183699 -0.353553 -0.093763 -0.353553 0 
C -0.353553 0.093763 -0.316301 0.183699 -0.25 0.25 
C -0.183699 0.316301 -0.093763 0.353553 0 0.353553 
z
" style="stroke: #ffff00"/>
    </defs>
    <g clip-path="url(#pa5944da5e4)">
     <use xlink:href="#m48e6397081" x="109.825282" y="187.386656" style="fill: #ffff00; stroke: #ffff00"/>
    </g>
   </g>
   <g id="PathCollection_13">
    <g clip-path="url(#pa5944da5e4)">
     <use xlink:href="#m5bab0cbd4c" x="106.33931" y="222.431088" style="fill: #ff0000; stroke: #ff0000"/>
    </g>
   </g>
   <g id="PathCollection_14">
    <g clip-path="url(#pa5944da5e4)">
     <use xlink:href="#m5bab0cbd4c" x="101.792456" y="77.671002" style="fill: #ff0000; stroke: #ff0000"/>
    </g>
   </g>
   <g id="PathCollection_15">
    <g clip-path="url(#pa5944da5e4)">
     <use xlink:href="#m5bab0cbd4c" x="61.238662" y="231.491852" style="fill: #ff0000; stroke: #ff0000"/>
    </g>
   </g>
   <g id="PathCollection_16">
    <g clip-path="url(#pa5944da5e4)">
     <use xlink:href="#m5bab0cbd4c" x="100.86639" y="85.614726" style="fill: #ff0000; stroke: #ff0000"/>
    </g>
   </g>
   <g id="PathCollection_17">
    <g clip-path="url(#pa5944da5e4)">
     <use xlink:href="#m5bab0cbd4c" x="114.947546" y="237.266128" style="fill: #ff0000; stroke: #ff0000"/>
    </g>
   </g>
   <g id="PathCollection_18">
    <g clip-path="url(#pa5944da5e4)">
     <use xlink:href="#m5bab0cbd4c" x="33.816221" y="208.097507" style="fill: #ff0000; stroke: #ff0000"/>
    </g>
   </g>
   <g id="PathCollection_19">
    <g clip-path="url(#pa5944da5e4)">
     <use xlink:href="#m5bab0cbd4c" x="154.850406" y="164.597447" style="fill: #ff0000; stroke: #ff0000"/>
    </g>
   </g>
   <g id="PathCollection_20">
    <g clip-path="url(#pa5944da5e4)">
     <use xlink:href="#m5bab0cbd4c" x="166.897325" y="195.894212" style="fill: #ff0000; stroke: #ff0000"/>
    </g>
   </g>
   <g id="PathCollection_21">
    <g clip-path="url(#pa5944da5e4)">
     <use xlink:href="#m5bab0cbd4c" x="87.485956" y="124.786993" style="fill: #ff0000; stroke: #ff0000"/>
    </g>
   </g>
   <g id="PathCollection_22">
    <g clip-path="url(#pa5944da5e4)">
     <use xlink:href="#m5bab0cbd4c" x="80.649375" y="125.868066" style="fill: #ff0000; stroke: #ff0000"/>
    </g>
   </g>
   <g id="PathCollection_23">
    <g clip-path="url(#pa5944da5e4)">
     <use xlink:href="#m5bab0cbd4c" x="109.522094" y="128.288595" style="fill: #ff0000; stroke: #ff0000"/>
    </g>
   </g>
   <g id="PathCollection_24">
    <g clip-path="url(#pa5944da5e4)">
     <use xlink:href="#m5bab0cbd4c" x="98.609536" y="123.788877" style="fill: #ff0000; stroke: #ff0000"/>
    </g>
   </g>
   <g id="PathCollection_25">
    <g clip-path="url(#pa5944da5e4)">
     <use xlink:href="#m5bab0cbd4c" x="85.878263" y="89.219026" style="fill: #ff0000; stroke: #ff0000"/>
    </g>
   </g>
   <g id="PathCollection_26">
    <g clip-path="url(#pa5944da5e4)">
     <use xlink:href="#m5bab0cbd4c" x="88.59549" y="91.7064" style="fill: #ff0000; stroke: #ff0000"/>
    </g>
   </g>
   <g id="PathCollection_27">
    <g clip-path="url(#pa5944da5e4)">
     <use xlink:href="#m5bab0cbd4c" x="80.859851" y="114.886238" style="fill: #ff0000; stroke: #ff0000"/>
    </g>
   </g>
   <g id="PathCollection_28">
    <g clip-path="url(#pa5944da5e4)">
     <use xlink:href="#m5bab0cbd4c" x="81.558664" y="94.229878" style="fill: #ff0000; stroke: #ff0000"/>
    </g>
   </g>
   <g id="PathCollection_29">
    <g clip-path="url(#pa5944da5e4)">
     <use xlink:href="#m5bab0cbd4c" x="92.243968" y="81.294048" style="fill: #ff0000; stroke: #ff0000"/>
    </g>
   </g>
   <g id="PathCollection_30">
    <g clip-path="url(#pa5944da5e4)">
     <use xlink:href="#m5bab0cbd4c" x="101.792456" y="77.671002" style="fill: #ff0000; stroke: #ff0000"/>
    </g>
   </g>
   <g id="PathCollection_31">
    <g clip-path="url(#pa5944da5e4)">
     <use xlink:href="#m5bab0cbd4c" x="159.538032" y="167.938561" style="fill: #ff0000; stroke: #ff0000"/>
    </g>
   </g>
   <g id="PathCollection_32">
    <g clip-path="url(#pa5944da5e4)">
     <use xlink:href="#m5bab0cbd4c" x="164.297545" y="181.756558" style="fill: #ff0000; stroke: #ff0000"/>
    </g>
   </g>
   <g id="PathCollection_33">
    <g clip-path="url(#pa5944da5e4)">
     <use xlink:href="#m5bab0cbd4c" x="143.134275" y="166.64533" style="fill: #ff0000; stroke: #ff0000"/>
    </g>
   </g>
   <g id="PathCollection_34">
    <g clip-path="url(#pa5944da5e4)">
     <use xlink:href="#m5bab0cbd4c" x="158.173962" y="158.248454" style="fill: #ff0000; stroke: #ff0000"/>
    </g>
   </g>
   <g id="PathCollection_35">
    <g clip-path="url(#pa5944da5e4)">
     <use xlink:href="#m5bab0cbd4c" x="145.215299" y="154.212851" style="fill: #ff0000; stroke: #ff0000"/>
    </g>
   </g>
   <g id="PathCollection_36">
    <g clip-path="url(#pa5944da5e4)">
     <use xlink:href="#m5bab0cbd4c" x="126.118322" y="131.392347" style="fill: #ff0000; stroke: #ff0000"/>
    </g>
   </g>
   <g id="PathCollection_37">
    <g clip-path="url(#pa5944da5e4)">
     <use xlink:href="#m5bab0cbd4c" x="147.261404" y="133.456383" style="fill: #ff0000; stroke: #ff0000"/>
    </g>
   </g>
   <g id="PathCollection_38">
    <g clip-path="url(#pa5944da5e4)">
     <use xlink:href="#m5bab0cbd4c" x="157.010684" y="114.62547" style="fill: #ff0000; stroke: #ff0000"/>
    </g>
   </g>
   <g id="PathCollection_39">
    <g clip-path="url(#pa5944da5e4)">
     <use xlink:href="#m5bab0cbd4c" x="159.992677" y="101.345588" style="fill: #ff0000; stroke: #ff0000"/>
    </g>
   </g>
   <g id="PathCollection_40">
    <g clip-path="url(#pa5944da5e4)">
     <use xlink:href="#m5bab0cbd4c" x="159.992677" y="101.345588" style="fill: #ff0000; stroke: #ff0000"/>
    </g>
   </g>
   <g id="PathCollection_41">
    <g clip-path="url(#pa5944da5e4)">
     <use xlink:href="#m5bab0cbd4c" x="73.585266" y="127.872401" style="fill: #ff0000; stroke: #ff0000"/>
    </g>
   </g>
   <g id="PathCollection_42">
    <g clip-path="url(#pa5944da5e4)">
     <use xlink:href="#m5bab0cbd4c" x="125.377496" y="181.446585" style="fill: #ff0000; stroke: #ff0000"/>
    </g>
   </g>
   <g id="PathCollection_43">
    <g clip-path="url(#pa5944da5e4)">
     <use xlink:href="#m5bab0cbd4c" x="33.816221" y="73.306078" style="fill: #ff0000; stroke: #ff0000"/>
    </g>
   </g>
   <g id="PathCollection_44">
    <g clip-path="url(#pa5944da5e4)">
     <use xlink:href="#m5bab0cbd4c" x="39.830814" y="71.294868" style="fill: #ff0000; stroke: #ff0000"/>
    </g>
   </g>
   <g id="PathCollection_45">
    <g clip-path="url(#pa5944da5e4)">
     <use xlink:href="#m5bab0cbd4c" x="65.417217" y="49.697887" style="fill: #ff0000; stroke: #ff0000"/>
    </g>
   </g>
   <g id="PathCollection_46">
    <g clip-path="url(#pa5944da5e4)">
     <use xlink:href="#m5bab0cbd4c" x="108.244779" y="52.143041" style="fill: #ff0000; stroke: #ff0000"/>
    </g>
   </g>
   <g id="PathCollection_47">
    <g clip-path="url(#pa5944da5e4)">
     <use xlink:href="#m5bab0cbd4c" x="73.585266" y="127.872401" style="fill: #ff0000; stroke: #ff0000"/>
    </g>
   </g>
   <g id="PathCollection_48">
    <g clip-path="url(#pa5944da5e4)">
     <use xlink:href="#m5bab0cbd4c" x="81.33141" y="105.5913" style="fill: #ff0000; stroke: #ff0000"/>
    </g>
   </g>
   <g id="PathCollection_49">
    <g clip-path="url(#pa5944da5e4)">
     <use xlink:href="#m5bab0cbd4c" x="72.9196" y="105.944384" style="fill: #ff0000; stroke: #ff0000"/>
    </g>
   </g>
   <g id="PathCollection_50">
    <g clip-path="url(#pa5944da5e4)">
     <use xlink:href="#m5bab0cbd4c" x="39.048111" y="79.925449" style="fill: #ff0000; stroke: #ff0000"/>
    </g>
   </g>
   <g id="PathCollection_51">
    <g clip-path="url(#pa5944da5e4)">
     <use xlink:href="#m5bab0cbd4c" x="102.645" y="62.180606" style="fill: #ff0000; stroke: #ff0000"/>
    </g>
   </g>
   <g id="PathCollection_52">
    <g clip-path="url(#pa5944da5e4)">
     <use xlink:href="#m5bab0cbd4c" x="100.86639" y="85.614726" style="fill: #ff0000; stroke: #ff0000"/>
    </g>
   </g>
   <g id="PathCollection_53">
    <g clip-path="url(#pa5944da5e4)">
     <use xlink:href="#m5bab0cbd4c" x="59.234297" y="227.246568" style="fill: #ff0000; stroke: #ff0000"/>
    </g>
   </g>
   <g id="PathCollection_54">
    <g clip-path="url(#pa5944da5e4)">
     <use xlink:href="#m5bab0cbd4c" x="50.867093" y="220.530531" style="fill: #ff0000; stroke: #ff0000"/>
    </g>
   </g>
   <g id="PathCollection_55">
    <g clip-path="url(#pa5944da5e4)">
     <use xlink:href="#m5bab0cbd4c" x="59.733547" y="153.875991" style="fill: #ff0000; stroke: #ff0000"/>
    </g>
   </g>
   <g id="PathCollection_56">
    <g clip-path="url(#pa5944da5e4)">
     <use xlink:href="#m5bab0cbd4c" x="144.533265" y="147.113295" style="fill: #ff0000; stroke: #ff0000"/>
    </g>
   </g>
   <g id="PathCollection_57">
    <g clip-path="url(#pa5944da5e4)">
     <use xlink:href="#m5bab0cbd4c" x="46.092849" y="173.909169" style="fill: #ff0000; stroke: #ff0000"/>
    </g>
   </g>
   <g id="PathCollection_58">
    <g clip-path="url(#pa5944da5e4)">
     <use xlink:href="#m5bab0cbd4c" x="50.867093" y="157.912874" style="fill: #ff0000; stroke: #ff0000"/>
    </g>
   </g>
   <g id="PathCollection_59">
    <g clip-path="url(#pa5944da5e4)">
     <use xlink:href="#m5bab0cbd4c" x="42.22803" y="192.601203" style="fill: #ff0000; stroke: #ff0000"/>
    </g>
   </g>
   <g id="PathCollection_60">
    <g clip-path="url(#pa5944da5e4)">
     <use xlink:href="#m5bab0cbd4c" x="35.635072" y="184.4425" style="fill: #ff0000; stroke: #ff0000"/>
    </g>
   </g>
   <g id="PathCollection_61">
    <g clip-path="url(#pa5944da5e4)">
     <use xlink:href="#m5bab0cbd4c" x="42.00064" y="214.171816" style="fill: #ff0000; stroke: #ff0000"/>
    </g>
   </g>
   <g id="PathCollection_62">
    <g clip-path="url(#pa5944da5e4)">
     <use xlink:href="#m5bab0cbd4c" x="40.181925" y="207.13534" style="fill: #ff0000; stroke: #ff0000"/>
    </g>
   </g>
   <g id="PathCollection_63">
    <g clip-path="url(#pa5944da5e4)">
     <use xlink:href="#m5bab0cbd4c" x="107.021345" y="200.376623" style="fill: #ff0000; stroke: #ff0000"/>
    </g>
   </g>
   <g id="PathCollection_64">
    <g clip-path="url(#pa5944da5e4)">
     <use xlink:href="#m5bab0cbd4c" x="133.977547" y="77.561021" style="fill: #ff0000; stroke: #ff0000"/>
    </g>
   </g>
   <g id="PathCollection_65">
    <g clip-path="url(#pa5944da5e4)">
     <use xlink:href="#m5bab0cbd4c" x="112.574337" y="229.859716" style="fill: #ff0000; stroke: #ff0000"/>
    </g>
   </g>
   <g id="PathCollection_66">
    <g clip-path="url(#pa5944da5e4)">
     <use xlink:href="#m5bab0cbd4c" x="106.33931" y="213.214897" style="fill: #ff0000; stroke: #ff0000"/>
    </g>
   </g>
   <g id="PathCollection_67">
    <g clip-path="url(#pa5944da5e4)">
     <use xlink:href="#m5bab0cbd4c" x="103.156526" y="228.743125" style="fill: #ff0000; stroke: #ff0000"/>
    </g>
   </g>
   <g id="PathCollection_68">
    <g clip-path="url(#pa5944da5e4)">
     <use xlink:href="#m5bab0cbd4c" x="108.993381" y="234.624361" style="fill: #ff0000; stroke: #ff0000"/>
    </g>
   </g>
   <g id="PathCollection_69">
    <g clip-path="url(#pa5944da5e4)">
     <use xlink:href="#m5bab0cbd4c" x="83.604768" y="236.896473" style="fill: #ff0000; stroke: #ff0000"/>
    </g>
   </g>
   <g id="PathCollection_70">
    <g clip-path="url(#pa5944da5e4)">
     <use xlink:href="#m5bab0cbd4c" x="94.517327" y="231.572097" style="fill: #ff0000; stroke: #ff0000"/>
    </g>
   </g>
   <g id="PathCollection_71">
    <g clip-path="url(#pa5944da5e4)">
     <use xlink:href="#m5bab0cbd4c" x="66.099251" y="235.958676" style="fill: #ff0000; stroke: #ff0000"/>
    </g>
   </g>
   <g id="PathCollection_72">
    <g clip-path="url(#pa5944da5e4)">
     <use xlink:href="#m5bab0cbd4c" x="76.329775" y="239.081731" style="fill: #ff0000; stroke: #ff0000"/>
    </g>
   </g>
   <g id="PathCollection_73">
    <g clip-path="url(#pa5944da5e4)">
     <use xlink:href="#m5bab0cbd4c" x="67.463321" y="147.113295" style="fill: #ff0000; stroke: #ff0000"/>
    </g>
   </g>
   <g id="PathCollection_74">
    <g clip-path="url(#pa5944da5e4)">
     <use xlink:href="#m5bab0cbd4c" x="76.557165" y="136.544794" style="fill: #ff0000; stroke: #ff0000"/>
    </g>
   </g>
   <g id="PathCollection_75">
    <g clip-path="url(#pa5944da5e4)">
     <use xlink:href="#m5bab0cbd4c" x="49.48038" y="58.721759" style="fill: #ff0000; stroke: #ff0000"/>
    </g>
   </g>
   <g id="PathCollection_76">
    <g clip-path="url(#pa5944da5e4)">
     <use xlink:href="#m5bab0cbd4c" x="52.745417" y="54.453318" style="fill: #ff0000; stroke: #ff0000"/>
    </g>
   </g>
   <g id="PathCollection_77">
    <g clip-path="url(#pa5944da5e4)">
     <use xlink:href="#m5bab0cbd4c" x="103.394147" y="52.124273" style="fill: #ff0000; stroke: #ff0000"/>
    </g>
   </g>
   <g id="PathCollection_78">
    <g clip-path="url(#pa5944da5e4)">
     <use xlink:href="#m5bab0cbd4c" x="102.300709" y="72.298352" style="fill: #ff0000; stroke: #ff0000"/>
    </g>
   </g>
   <g id="PathCollection_79">
    <g clip-path="url(#pa5944da5e4)">
     <use xlink:href="#m5bab0cbd4c" x="75.42035" y="133.112592" style="fill: #ff0000; stroke: #ff0000"/>
    </g>
   </g>
   <g id="PathCollection_80">
    <g clip-path="url(#pa5944da5e4)">
     <use xlink:href="#m5bab0cbd4c" x="71.939925" y="122.5927" style="fill: #ff0000; stroke: #ff0000"/>
    </g>
   </g>
   <g id="PathCollection_81">
    <g clip-path="url(#pa5944da5e4)">
     <use xlink:href="#m5bab0cbd4c" x="61.925198" y="99.954885" style="fill: #ff0000; stroke: #ff0000"/>
    </g>
   </g>
   <g id="PathCollection_82">
    <g clip-path="url(#pa5944da5e4)">
     <use xlink:href="#m5bab0cbd4c" x="44.728779" y="86.704146" style="fill: #ff0000; stroke: #ff0000"/>
    </g>
   </g>
   <g id="PathCollection_83">
    <g clip-path="url(#pa5944da5e4)">
     <use xlink:href="#m5bab0cbd4c" x="137.030881" y="131.047874" style="fill: #ff0000; stroke: #ff0000"/>
    </g>
   </g>
   <g id="PathCollection_84">
    <g clip-path="url(#pa5944da5e4)">
     <use xlink:href="#m5bab0cbd4c" x="119.297973" y="131.047874" style="fill: #ff0000; stroke: #ff0000"/>
    </g>
   </g>
   <g id="PathCollection_85">
    <g clip-path="url(#pa5944da5e4)">
     <use xlink:href="#m5bab0cbd4c" x="125.436287" y="63.414681" style="fill: #ff0000; stroke: #ff0000"/>
    </g>
   </g>
   <g id="PathCollection_86">
    <g clip-path="url(#pa5944da5e4)">
     <use xlink:href="#m5bab0cbd4c" x="115.584703" y="60.206391" style="fill: #ff0000; stroke: #ff0000"/>
    </g>
   </g>
   <g id="PathCollection_87">
    <g clip-path="url(#pa5944da5e4)">
     <use xlink:href="#m5bab0cbd4c" x="128.391817" y="70.019837" style="fill: #ff0000; stroke: #ff0000"/>
    </g>
   </g>
   <g id="PathCollection_88">
    <g clip-path="url(#pa5944da5e4)">
     <use xlink:href="#m5bab0cbd4c" x="137.712916" y="84.90408" style="fill: #ff0000; stroke: #ff0000"/>
    </g>
   </g>
   <g id="PathCollection_89">
    <g clip-path="url(#pa5944da5e4)">
     <use xlink:href="#m5bab0cbd4c" x="140.8957" y="91.727446" style="fill: #ff0000; stroke: #ff0000"/>
    </g>
   </g>
   <g id="PathCollection_90">
    <g clip-path="url(#pa5944da5e4)">
     <use xlink:href="#m5bab0cbd4c" x="145.215299" y="92.085377" style="fill: #ff0000; stroke: #ff0000"/>
    </g>
   </g>
   <g id="PathCollection_91">
    <g clip-path="url(#pa5944da5e4)">
     <use xlink:href="#m5bab0cbd4c" x="154.763788" y="100.991121" style="fill: #ff0000; stroke: #ff0000"/>
    </g>
   </g>
   <g id="PathCollection_92">
    <g clip-path="url(#pa5944da5e4)">
     <use xlink:href="#m5bab0cbd4c" x="139.304376" y="126.906097" style="fill: #ff0000; stroke: #ff0000"/>
    </g>
   </g>
  </g>
 </g>
 <defs>
  <clipPath id="pa5944da5e4">
   <rect x="7.2" y="7.2" width="186.313546" height="266.112"/>
  </clipPath>
 </defs>
</svg>
