<?xml version="1.0" encoding="utf-8" standalone="no"?>
<!DOCTYPE svg PUBLIC "-//W3C//DTD SVG 1.1//EN"
  "http://www.w3.org/Graphics/SVG/1.1/DTD/svg11.dtd">
<svg xmlns:xlink="http://www.w3.org/1999/xlink" width="191.047038pt" height="280.512pt" viewBox="0 0 191.047038 280.512" xmlns="http://www.w3.org/2000/svg" version="1.1">
 <metadata>
  <rdf:RDF xmlns:dc="http://purl.org/dc/elements/1.1/" xmlns:cc="http://creativecommons.org/ns#" xmlns:rdf="http://www.w3.org/1999/02/22-rdf-syntax-ns#">
   <cc:Work>
    <dc:type rdf:resource="http://purl.org/dc/dcmitype/StillImage"/>
    <dc:date>2025-12-18T10:42:23.400670</dc:date>
    <dc:format>image/svg+xml</dc:format>
    <dc:creator>
     <cc:Agent>
      <dc:title>Matplotlib v3.10.6, https://matplotlib.org/</dc:title>
     </cc:Agent>
    </dc:creator>
   </cc:Work>
  </rdf:RDF>
 </metadata>
 <defs>
  <style type="text/css">*{stroke-linejoin: round; stroke-linecap: butt}</style>
 </defs>
 <g id="figure_1">
  <g id="patch_1">
   <path d="M 0 280.512 
L 191.047038 280.512 
L 191.047038 0 
L 0 0 
z
" style="fill: #ffffff"/>
  </g>
  <g id="axes_1">
   <g id="patch_2">
    <path d="M 7.2 273.312 
L 183.847038 273.312 
L 183.847038 7.2 
L 7.2 7.2 
z
" clip-path="url(#pca174df71f)" style="fill: #add8e6; stroke: #ffffff; stroke-linejoin: miter"/>
   </g>
   <g id="patch_3">
    <path d="M 7.2 273.312 
L 183.847038 273.312 
L 183.847038 7.2 
L 7.2 7.2 
z
" clip-path="url(#pca174df71f)" style="fill: #add8e6; stroke: #ffffff; stroke-linejoin: miter"/>
   </g>
   <g id="patch_4">
    <path d="M 183.847039 238.106129 
L 181.157998 233.798872 
L 179.026955 224.747945 
L 174.502822 221.93234 
L 174.263761 223.104458 
L 166.114541 217.411316 
L 165.864041 218.332861 
L 159.487456 215.883824 
L 156.099651 217.856837 
L 150.42772 225.931146 
L 138.206435 229.914375 
L 137.523632 232.552805 
L 135.149059 232.599755 
L 134.172261 234.761436 
L 132.273493 234.87149 
L 129.909124 237.654544 
L 131.529292 237.771034 
L 130.806728 239.635718 
L 127.499274 239.977422 
L 126.953214 241.14543 
L 124.736621 240.601069 
L 124.169025 242.266688 
L 120.940764 240.477023 
L 121.270044 241.566315 
L 119.655495 241.87739 
L 117.779836 239.46376 
L 112.948374 238.794226 
L 112.630856 236.044305 
L 109.039182 236.701721 
L 108.180603 235.411431 
L 109.061562 235.169353 
L 106.43576 234.276526 
L 106.447522 236.529748 
L 105.367586 235.262754 
L 106.231163 236.654795 
L 103.742112 236.310522 
L 103.071378 234.244699 
L 103.185127 236.107858 
L 102.434471 234.511914 
L 97.138121 233.994633 
L 95.887722 232.301792 
L 88.031769 237.732158 
L 85.64502 237.45112 
L 82.246603 241.783535 
L 81.626763 240.905281 
L 81.762785 245.209611 
L 81.155013 244.177363 
L 80.421002 245.923376 
L 81.438811 246.504081 
L 81.740405 245.27124 
L 81.52446 250.054724 
L 83.320091 254.679607 
L 85.456754 255.432583 
L 82.490233 257.444272 
L 83.980106 260.066126 
L 83.860423 263.315712 
L 80.211927 266.547935 
L 71.1753 271.153045 
L 69.670867 273.312 
L 7.2 273.312 
L 7.2 236.204505 
L 11.099385 237.670124 
L 18.270971 234.763011 
L 20.436777 230.678622 
L 22.994408 213.662178 
L 23.909914 211.369961 
L 26.301553 211.537924 
L 24.238463 209.275034 
L 22.960689 212.018257 
L 25.216726 194.03884 
L 29.201784 198.212026 
L 31.264143 203.946689 
L 33.247307 204.726818 
L 31.371753 203.310449 
L 29.308976 195.742672 
L 23.278312 191.445784 
L 23.243761 189.556899 
L 24.841969 189.647041 
L 24.051658 188.28412 
L 26.529259 185.965171 
L 25.444119 186.234969 
L 24.450246 182.344101 
L 23.21077 182.229164 
L 25.142523 179.188655 
L 23.659418 180.18449 
L 15.440884 175.702634 
L 10.91185 169.185159 
L 12.911664 164.556898 
L 9.456428 162.937474 
L 10.541256 160.235514 
L 8.779763 160.939386 
L 7.2 160.39946 
L 7.2 155.488935 
L 7.563806 155.433655 
L 7.2 155.439229 
L 7.2 132.31084 
L 8.53041 131.246599 
L 8.290945 132.691895 
L 9.518245 132.174749 
L 9.973241 133.653995 
L 12.211896 132.29572 
L 13.224291 134.427239 
L 12.433566 132.064174 
L 13.769516 130.987696 
L 15.01992 130.798134 
L 15.998285 133.035827 
L 21.647843 132.416186 
L 18.743138 130.134561 
L 19.050041 120.245243 
L 15.457952 117.020547 
L 13.701766 109.583341 
L 18.03265 111.339738 
L 22.897831 110.196878 
L 22.289644 113.329615 
L 24.944685 118.023973 
L 26.615326 116.52286 
L 36.789339 119.261368 
L 40.165065 117.987876 
L 40.165483 117.987876 
L 46.796734 114.783483 
L 42.534747 114.887909 
L 41.057781 114.030358 
L 42.972049 109.863436 
L 48.075861 106.959302 
L 55.067513 105.564915 
L 60.898881 99.36722 
L 62.887454 99.927103 
L 61.159578 97.918596 
L 61.762041 85.129192 
L 74.26681 80.725494 
L 87.996592 73.479904 
L 92.155863 75.100977 
L 94.384217 73.498765 
L 98.142191 74.716456 
L 94.384217 72.367606 
L 92.179278 73.989323 
L 86.961402 70.752298 
L 92.474531 69.133878 
L 97.844347 72.950045 
L 97.920941 70.625147 
L 94.50962 69.508999 
L 97.568147 69.756034 
L 96.14842 68.245689 
L 103.536365 66.797372 
L 95.499644 64.087615 
L 94.830573 61.278231 
L 96.564069 61.283813 
L 103.05931 49.903794 
L 104.730985 38.802857 
L 106.662737 40.499957 
L 108.867569 39.406765 
L 110.107364 43.518822 
L 112.335297 43.895016 
L 111.140676 46.249295 
L 108.651211 46.408418 
L 108.901711 50.091025 
L 110.289274 50.183613 
L 107.424741 51.916441 
L 111.823479 53.565208 
L 109.993301 51.973055 
L 114.64181 48.101179 
L 119.883201 47.437345 
L 116.382796 45.695914 
L 118.087571 41.639152 
L 113.243934 40.754874 
L 112.926101 36.336025 
L 114.381419 33.114857 
L 120.349645 29.033392 
L 124.452823 30.395546 
L 126.054882 30.40513 
L 124.498304 28.872122 
L 133.10335 27.469715 
L 136.951451 32.207515 
L 140.221444 30.787627 
L 141.494231 32.99962 
L 140.267339 30.730645 
L 135.782224 30.137226 
L 136.918881 24.689359 
L 139.567163 22.478394 
L 148.700258 21.63794 
L 151.666051 25.701096 
L 150.234463 27.383705 
L 152.087021 28.881537 
L 153.552222 27.612875 
L 153.01948 24.083979 
L 156.8268 25.720356 
L 156.188635 29.654888 
L 157.122352 25.721061 
L 155.849151 22.137269 
L 158.407206 17.565983 
L 160.157777 18.954022 
L 166.516144 18.805157 
L 170.308267 24.035554 
L 174.195907 25.93137 
L 170.51255 23.864317 
L 165.54538 16.96781 
L 161.669593 16.611305 
L 160.691653 14.408911 
L 162.997645 14.475891 
L 163.145835 13.013098 
L 160.305553 10.936936 
L 162.396742 7.728249 
L 157.121938 8.097682 
L 157.470868 7.199985 
L 178.560672 7.199985 
L 178.526492 7.658663 
L 178.936974 7.199985 
L 183.847039 7.199985 
z
" clip-path="url(#pca174df71f)" style="fill: #d3d3d3"/>
   </g>
   <g id="patch_5">
    <path d="M 40.165065 86.964209 
L 40.0969 86.965527 
L 36.368374 86.047529 
L 29.343422 88.419703 
L 27.649366 87.172923 
L 29.070655 86.065976 
L 24.092142 85.759475 
L 24.545679 87.324333 
L 19.976475 84.192179 
L 21.841102 87.055401 
L 18.999255 88.779305 
L 12.291406 88.20418 
L 13.530882 91.136881 
L 7.2 90.303834 
L 7.2 66.462579 
L 7.643732 65.824553 
L 7.2 65.059621 
L 7.2 7.199985 
L 34.083605 7.199985 
L 35.197167 9.402133 
L 39.107504 12.335049 
L 37.219772 14.524255 
L 40.165065 20.589202 
L 40.165483 20.589908 
L 41.66555 25.022572 
L 40.165065 24.28219 
L 38.754809 23.585816 
L 36.549872 21.071126 
L 29.513995 22.1559 
L 30.389224 23.508409 
L 31.78231 22.04833 
L 36.162627 21.743624 
L 37.106857 23.19277 
L 40.165065 25.654158 
L 42.449094 27.134202 
L 45.04159 34.081772 
L 40.165065 40.524983 
L 40.062349 40.6602 
L 40.165065 40.602773 
L 40.550751 40.387496 
L 45.279182 42.965118 
L 47.598909 38.576463 
L 57.919974 39.557501 
L 63.275011 44.157814 
L 64.25192 49.809826 
L 61.729153 58.581125 
L 58.170056 62.006101 
L 56.101243 59.809243 
L 57.613381 61.444255 
L 54.634474 61.57225 
L 57.772608 61.646529 
L 57.023094 64.53703 
L 54.397196 65.594524 
L 53.395726 63.810357 
L 53.669016 65.22635 
L 49.611212 66.503231 
L 52.952076 66.134872 
L 51.89753 68.896566 
L 52.885364 69.490062 
L 43.63206 72.229475 
L 49.621827 72.057394 
L 47.313965 73.889926 
L 49.69041 74.118038 
L 50.395174 72.658373 
L 52.52008 73.343752 
L 52.532673 74.700125 
L 50.429722 73.943949 
L 52.395509 74.990693 
L 59.625059 73.826212 
L 59.182866 79.049954 
L 54.339643 81.329571 
L 53.46514 84.318947 
L 50.667629 83.81393 
L 43.438803 88.168819 
z
" clip-path="url(#pca174df71f)" style="fill: #d3d3d3"/>
   </g>
   <g id="patch_6">
    <path d="M 162.931339 270.925828 
L 162.930925 270.924994 
L 160.015291 269.445762 
L 161.749531 266.988967 
L 158.276804 266.068523 
L 160.242268 263.261187 
L 157.582654 263.276426 
L 157.344023 262.023511 
L 159.481415 260.433649 
L 156.900266 258.640775 
L 156.644874 256.960688 
L 158.741784 256.430356 
L 156.672875 254.540165 
L 158.253695 253.647342 
L 159.145687 250.555473 
L 163.135223 249.505374 
L 164.612599 247.804747 
L 167.011838 248.841109 
L 167.597237 242.896344 
L 168.797263 242.453315 
L 170.484565 259.115945 
L 168.38192 262.08565 
L 168.416054 266.905205 
L 166.768208 268.563844 
L 167.950032 268.77621 
L 165.921283 272.926365 
z
" clip-path="url(#pca174df71f)" style="fill: #d3d3d3"/>
   </g>
   <g id="patch_7">
    <path d="M 103.571542 66.802248 
L 105.473737 64.97818 
L 104.533979 66.19673 
L 106.026873 66.832824 
L 103.647408 66.783939 
z
" clip-path="url(#pca174df71f)" style="fill: #add8e6"/>
   </g>
   <g id="matplotlib.axis_1"/>
   <g id="matplotlib.axis_2"/>
   <g id="LineCollection_1">
    <path d="M 183.847038 244.090292 
L 183.309033 244.045743 
L 183.847038 238.16801 
" clip-path="url(#pca174df71f)" style="fill: none; stroke: #000000; stroke-width: 0.2"/>
    <path d="M 183.847038 238.10613 
L 181.158005 233.79887 
L 179.026958 224.747945 
L 174.502816 221.932339 
L 174.263766 223.104459 
L 166.114544 217.411316 
L 165.864047 218.332861 
L 159.487454 215.883823 
L 156.099654 217.856837 
L 150.427721 225.931145 
L 138.206437 229.914376 
L 137.523632 232.552805 
L 135.149061 232.599756 
L 134.172257 234.761435 
L 132.273495 234.871489 
L 129.909123 237.654544 
L 131.529289 237.771036 
L 130.806729 239.63572 
L 127.499272 239.977422 
L 126.953215 241.145429 
L 124.736623 240.601068 
L 124.169023 242.266688 
L 120.940764 240.477022 
L 121.270042 241.566315 
L 119.655496 241.877391 
L 117.779837 239.46376 
L 112.948375 238.794226 
L 112.630857 236.044304 
L 109.039184 236.701721 
L 108.180604 235.411429 
L 109.061559 235.169354 
L 106.435762 234.276527 
L 106.447522 236.529747 
L 105.367585 235.262753 
L 106.23116 236.654795 
L 103.742111 236.310522 
L 103.071379 234.244699 
L 103.185127 236.107859 
L 102.434469 234.511912 
L 97.138125 233.994632 
L 95.88772 232.301791 
L 88.031768 237.732159 
L 85.645021 237.451119 
L 82.246606 241.783536 
L 81.626764 240.905281 
L 81.762783 245.209612 
L 81.155013 244.177363 
L 80.421005 245.923376 
L 81.438813 246.504082 
L 81.740408 245.271239 
L 81.524463 250.054723 
L 83.320091 254.679607 
L 85.456758 255.432583 
L 82.490235 257.444273 
L 83.980105 260.066126 
L 83.860424 263.315711 
L 80.211928 266.547935 
L 71.175299 271.153045 
L 69.670865 273.312 
" clip-path="url(#pca174df71f)" style="fill: none; stroke: #000000; stroke-width: 0.2"/>
    <path d="M 7.2 236.204506 
L 11.099385 237.670125 
L 18.270971 234.763011 
L 20.436777 230.67862 
L 22.994408 213.662178 
L 23.909914 211.369961 
L 26.301553 211.537922 
L 24.238464 209.275035 
L 22.960689 212.018259 
L 25.216725 194.038841 
L 29.201783 198.212025 
L 31.264144 203.946686 
L 33.247307 204.726821 
L 31.371752 203.310449 
L 29.308976 195.742671 
L 23.278312 191.445782 
L 23.243761 189.556902 
L 24.841968 189.647043 
L 24.051658 188.284124 
L 26.529259 185.96517 
L 25.444118 186.234969 
L 24.450247 182.344102 
L 23.21077 182.229162 
L 25.142523 179.188654 
L 23.659417 180.18449 
L 15.440884 175.702633 
L 10.91185 169.185155 
L 12.911665 164.556896 
L 9.456428 162.937474 
L 10.541256 160.235515 
L 8.779763 160.939389 
L 7.2 160.399464 
" clip-path="url(#pca174df71f)" style="fill: none; stroke: #000000; stroke-width: 0.2"/>
    <path d="M 7.2 155.488933 
L 7.563806 155.433658 
L 7.2 155.439228 
" clip-path="url(#pca174df71f)" style="fill: none; stroke: #000000; stroke-width: 0.2"/>
    <path d="M 7.2 132.310847 
L 8.53041 131.246597 
L 8.290945 132.69189 
L 9.518245 132.174752 
L 9.973241 133.653991 
L 12.211896 132.295713 
L 13.224292 134.427245 
L 12.433566 132.064173 
L 13.769516 130.987701 
L 15.01992 130.798139 
L 15.998285 133.035824 
L 21.647843 132.416188 
L 18.743138 130.134558 
L 19.050041 120.245249 
L 15.457952 117.020544 
L 13.701766 109.583346 
L 18.03265 111.339745 
L 22.897831 110.196875 
L 22.289644 113.329611 
L 24.944685 118.023969 
L 26.615325 116.522863 
L 36.789338 119.261369 
L 40.165065 117.987882 
L 40.165482 117.987882 
L 46.796735 114.783483 
L 42.534745 114.887916 
L 41.05778 114.030355 
L 42.972049 109.863439 
L 48.075863 106.959307 
L 55.067511 105.564918 
L 60.898881 99.36722 
L 62.887455 99.92711 
L 61.159577 97.918594 
L 61.762039 85.12919 
L 74.26681 80.725496 
L 87.996592 73.479906 
L 92.155865 75.100975 
L 94.384217 73.498759 
L 98.142194 74.716451 
L 94.384217 72.36761 
L 92.17928 73.989315 
L 86.961405 70.752303 
L 92.474528 69.133875 
L 97.844345 72.950038 
L 97.920941 70.625148 
L 94.509622 69.508996 
L 97.568143 69.75604 
L 96.148416 68.245689 
L 103.536365 66.797377 
L 95.499642 64.087617 
L 94.830575 61.278234 
L 96.564073 61.283808 
L 103.059306 49.903792 
L 104.730987 38.802855 
L 106.662739 40.499964 
L 108.867572 39.406762 
L 110.107361 43.518829 
L 112.335297 43.895019 
L 111.140675 46.249295 
L 108.65121 46.408424 
L 108.901707 50.09103 
L 110.289276 50.18361 
L 107.424742 51.916442 
L 111.82348 53.565214 
L 109.9933 51.973048 
L 114.641807 48.101176 
L 119.883202 47.437339 
L 116.382798 45.695915 
L 118.087573 41.639158 
L 113.243935 40.75488 
L 112.926104 36.33603 
L 114.381423 33.114852 
L 120.349645 29.033398 
L 124.452823 30.395551 
L 126.054881 30.405137 
L 124.498302 28.872116 
L 133.103352 27.469721 
L 136.951454 32.207521 
L 140.221446 30.787623 
L 141.494225 32.999613 
L 140.267341 30.730652 
L 135.782224 30.13722 
L 136.91888 24.689353 
L 139.567156 22.478397 
L 148.700258 21.637941 
L 151.666053 25.701093 
L 150.234462 27.383708 
L 152.087017 28.881543 
L 153.552222 27.612883 
L 153.019487 24.083978 
L 156.826793 25.720358 
L 156.188634 29.654888 
L 157.122353 25.721058 
L 155.849157 22.137275 
L 158.407204 17.565989 
L 160.15777 18.954015 
L 166.516151 18.80516 
L 170.308264 24.035559 
L 174.195912 25.931365 
L 170.512554 23.864322 
L 165.545384 16.96781 
L 161.669599 16.611305 
L 160.691651 14.408918 
L 162.99764 14.475891 
L 163.145836 13.013102 
L 160.30555 10.936925 
L 162.396738 7.728255 
L 157.121936 8.097688 
L 157.470861 7.2 
" clip-path="url(#pca174df71f)" style="fill: none; stroke: #000000; stroke-width: 0.2"/>
    <path d="M 178.560675 7.2 
L 178.526484 7.658669 
L 178.936978 7.2 
" clip-path="url(#pca174df71f)" style="fill: none; stroke: #000000; stroke-width: 0.2"/>
    <path d="M 40.165065 86.96421 
L 40.096899 86.965527 
L 36.368374 86.047529 
L 29.343423 88.4197 
L 27.649367 87.172924 
L 29.070655 86.065983 
L 24.092141 85.759474 
L 24.54568 87.32433 
L 19.976475 84.192185 
L 21.841101 87.055404 
L 18.999255 88.779302 
L 12.291406 88.204174 
L 13.530883 91.136874 
L 7.2 90.303839 
" clip-path="url(#pca174df71f)" style="fill: none; stroke: #000000; stroke-width: 0.2"/>
    <path d="M 7.2 66.462574 
L 7.643732 65.824556 
L 7.2 65.059624 
" clip-path="url(#pca174df71f)" style="fill: none; stroke: #000000; stroke-width: 0.2"/>
    <path d="M 34.083605 7.2 
L 35.197167 9.402144 
L 39.107503 12.335035 
L 37.219773 14.524259 
L 40.165065 20.589207 
L 40.165482 20.589911 
L 41.665551 25.022569 
L 40.165065 24.282187 
L 38.754809 23.585821 
L 36.549873 21.071132 
L 29.513994 22.155907 
L 30.389225 23.508416 
L 31.78231 22.048328 
L 36.162627 21.743631 
L 37.106857 23.192765 
L 40.165065 25.654157 
L 42.449096 27.134195 
L 45.04159 34.081766 
L 40.165065 40.524976 
L 40.062348 40.6602 
L 40.165065 40.602766 
L 40.55075 40.38749 
L 45.279182 42.965113 
L 47.598909 38.576467 
L 57.919973 39.557508 
L 63.275013 44.15782 
L 64.25192 49.809818 
L 61.729153 58.581128 
L 58.170054 62.006093 
L 56.101241 59.80924 
L 57.613382 61.444249 
L 54.634475 61.572245 
L 57.77261 61.646536 
L 57.023096 64.537035 
L 54.397195 65.59453 
L 53.395727 63.810355 
L 53.669015 65.226343 
L 49.611211 66.503228 
L 52.952075 66.134873 
L 51.897531 68.896567 
L 52.885366 69.490068 
L 43.632062 72.229468 
L 49.621826 72.057389 
L 47.313964 73.889922 
L 49.690409 74.118044 
L 50.395173 72.658366 
L 52.520079 73.343752 
L 52.532672 74.70012 
L 50.429724 73.943956 
L 52.395507 74.990698 
L 59.62506 73.826212 
L 59.182866 79.049961 
L 54.339644 81.329574 
L 53.465141 84.318952 
L 50.667629 83.813935 
L 43.438804 88.168824 
L 40.165065 86.96421 
" clip-path="url(#pca174df71f)" style="fill: none; stroke: #000000; stroke-width: 0.2"/>
    <path d="M 162.931347 270.925828 
L 162.930931 270.924995 
L 160.015298 269.445762 
L 161.749525 266.988967 
L 158.276804 266.068523 
L 160.242275 263.261187 
L 157.582656 263.276426 
L 157.344022 262.023511 
L 159.481418 260.433648 
L 156.900267 258.640775 
L 156.644878 256.960688 
L 158.74179 256.430355 
L 156.672873 254.540165 
L 158.253701 253.647342 
L 159.145687 250.555474 
L 163.135221 249.505373 
L 164.612602 247.804747 
L 167.011838 248.841108 
L 167.597233 242.896345 
L 168.797267 242.453315 
L 170.484559 259.115945 
L 168.381923 262.08565 
L 168.416058 266.905206 
L 166.768209 268.563844 
L 167.950031 268.77621 
L 165.921286 272.926365 
L 162.931347 270.925828 
" clip-path="url(#pca174df71f)" style="fill: none; stroke: #000000; stroke-width: 0.2"/>
    <path d="M 103.57154 66.802248 
L 105.473737 64.978173 
L 104.533982 66.196723 
L 106.02687 66.832817 
L 103.647408 66.78394 
L 103.57154 66.802248 
" clip-path="url(#pca174df71f)" style="fill: none; stroke: #000000; stroke-width: 0.2"/>
   </g>
   <g id="LineCollection_2">
    <path d="M 143.682823 153.842237 
L 142.61808 151.44628 
L 144.156446 145.970711 
L 143.546387 142.972501 
L 143.901995 141.867732 
L 144.257603 140.761797 
L 144.613315 139.654539 
L 144.968923 138.546421 
L 145.324531 137.436814 
L 145.680139 136.326343 
L 146.035747 135.214375 
L 146.391459 134.101378 
L 146.747068 132.987192 
L 146.983099 132.247047 
L 147.618344 131.46571 
L 148.253485 130.683786 
L 148.88873 129.901274 
L 149.523974 129.118172 
L 150.159219 128.334479 
L 150.794464 127.550195 
L 151.429605 126.765317 
L 152.06485 125.979845 
L 152.397667 125.567943 
L 151.587167 125.395462 
L 150.776564 125.222637 
L 149.966065 125.050099 
L 149.155462 124.877215 
L 148.344962 124.70462 
L 147.534359 124.531679 
L 146.72386 124.358867 
L 145.913257 124.186027 
L 145.102653 124.013158 
L 144.539113 123.892974 
L 141.492664 121.149234 
L 139.575481 122.516132 
L 136.248667 122.504685 
L 134.702703 120.227244 
L 131.978352 121.369536 
L 131.494633 120.359326 
L 131.010915 119.348125 
L 130.5273 118.335933 
L 130.043582 117.322745 
L 129.559863 116.30856 
L 129.38284 115.936943 
L 126.950197 115.220205 
L 127.295502 114.077963 
L 127.640807 112.934289 
L 127.986113 111.7895 
L 128.331418 110.643433 
L 128.676723 109.496083 
L 129.022028 108.347446 
L 129.163043 107.877954 
L 125.457309 106.326714 
L 123.54762 102.579961 
L 124.373625 98.878608 
L 127.442762 96.939741 
L 127.116918 94.432261 
L 124.532749 92.609945 
L 125.703643 90.557674 
L 122.399517 88.518981 
L 123.10428 84.201099 
L 120.156386 81.432701 
L 120.92328 80.978067 
L 121.690174 80.522896 
L 122.457067 80.06785 
L 123.223961 79.612431 
L 123.990855 79.156806 
L 124.3244 78.958701 
L 123.051205 77.156709 
L 125.048105 74.447796 
L 124.629118 73.321058 
L 124.210131 72.19305 
L 123.791248 71.063766 
L 123.372261 69.933204 
L 122.953274 68.801359 
L 122.534288 67.668396 
L 122.115405 66.533974 
L 121.696418 65.398259 
L 121.304489 64.33483 
L 124.286519 64.065048 
L 124.127395 62.555307 
L 127.514778 64.267307 
L 128.312789 63.973251 
L 129.1108 63.67894 
L 129.908811 63.384709 
L 130.706821 63.090392 
L 131.504832 62.795987 
L 132.190551 62.542993 
L 133.331057 60.963355 
L 131.447802 58.986831 
L 132.187221 58.415819 
L 132.92664 57.844478 
L 133.66606 57.272807 
L 134.405375 56.700806 
L 135.144794 56.128474 
L 135.884213 55.555811 
L 136.373656 55.17657 
L 135.524859 50.226652 
L 132.38381 50.214013 
L 131.406174 48.222183 
L 132.433035 45.926328 
L 136.354715 46.101117 
L 136.690237 44.870242 
L 137.02576 43.637478 
L 137.361282 42.403338 
L 137.696701 41.167642 
L 138.032223 39.930215 
L 138.367746 38.691569 
L 138.594099 37.854959 
L 138.53353 36.497469 
L 138.472961 35.138265 
L 138.412392 33.77682 
L 138.351823 32.413822 
L 138.291254 31.048743 
L 138.283345 30.871419 
L 135.593129 30.662177 
L 134.236677 27.752179 
L 133.456774 27.335105 
L 132.676976 26.917676 
L 131.897073 26.500069 
L 131.117275 26.082457 
L 130.337476 25.664315 
L 129.557574 25.246344 
L 128.777775 24.828017 
L 127.997872 24.40951 
L 127.586795 24.188875 
" clip-path="url(#pca174df71f)" style="fill: none; stroke: #ffffff; stroke-width: 0.2"/>
    <path d="M 142.909789 228.013756 
L 142.402134 226.254041 
L 145.312147 222.504862 
L 144.827075 220.541042 
L 144.018553 220.717642 
L 143.209927 220.89436 
L 142.401405 221.070904 
L 141.592779 221.247421 
L 140.784258 221.424055 
L 140.401487 221.507577 
L 139.625643 221.144154 
L 138.849904 220.780614 
L 138.074164 220.416956 
L 137.29832 220.053179 
L 136.52258 219.689285 
L 135.74684 219.325273 
L 135.521112 219.219358 
L 133.971402 216.846959 
L 134.763272 215.57921 
L 133.641707 213.709487 
L 135.335451 210.861677 
L 136.63508 210.819078 
L 136.081947 208.134815 
L 132.198044 206.439772 
L 130.466523 202.757606 
L 131.261412 202.481228 
L 132.056197 202.204781 
L 132.851085 201.92856 
L 133.645974 201.651974 
L 134.440863 201.375319 
L 135.235751 201.098742 
L 136.03064 200.822096 
L 136.691902 200.591775 
L 138.131819 196.835873 
L 137.502714 196.089736 
L 136.873713 195.343091 
L 136.244608 194.595937 
L 135.615608 193.848272 
L 134.986503 193.100097 
L 134.357502 192.35141 
L 133.728398 191.602209 
L 133.115007 190.871277 
L 133.043095 188.730654 
L 136.184248 186.754914 
L 138.222776 187.794956 
L 139.00476 187.448087 
L 139.786744 187.101107 
L 140.568728 186.754016 
L 141.350816 186.406815 
L 142.1328 186.059502 
L 142.914784 185.712079 
L 143.156123 185.604834 
L 143.954862 185.861844 
L 144.753602 186.118793 
L 145.552237 186.375681 
L 146.350976 186.632508 
L 147.149715 186.889275 
L 147.426438 186.978142 
L 148.065326 186.242753 
L 148.704213 185.506567 
L 149.343204 184.770182 
L 149.982092 184.032997 
L 150.620979 183.295611 
L 151.259866 182.557424 
L 151.32158 182.486221 
L 150.764596 179.896015 
L 151.477061 179.313109 
L 152.189422 178.729587 
L 152.901887 178.1459 
L 153.614248 177.561898 
L 154.326713 176.977428 
L 155.039074 176.392793 
L 155.1599 176.293535 
L 155.368352 180.586661 
L 157.717531 183.060365 
L 160.559377 183.524954 
L 160.002393 185.621011 
L 163.010857 188.937349 
L 164.098391 187.402926 
L 163.060186 184.655349 
L 163.685856 183.894982 
L 164.311423 183.134082 
L 164.937093 182.372648 
L 165.562659 181.610528 
L 166.18833 180.848022 
L 166.254415 180.767528 
L 166.981866 175.484628 
L 169.194712 175.402071 
L 170.331367 179.380603 
L 171.136663 179.168463 
L 171.941855 178.956281 
L 172.747046 178.744058 
L 173.552238 178.531642 
L 174.35743 178.319335 
L 175.162725 178.106835 
L 175.806608 177.936987 
L 178.447599 180.877058 
L 178.788637 177.244796 
L 177.208643 176.634629 
L 177.257868 174.768771 
L 179.754826 172.783874 
L 180.740059 174.493221 
L 182.998384 174.537411 
L 181.823743 171.894957 
L 183.221927 166.851428 
L 181.444823 165.663122 
L 178.064933 168.597939 
L 174.927526 166.823687 
L 174.874555 165.157478 
L 174.059372 165.051068 
L 173.244086 164.944801 
L 172.428903 164.838217 
L 171.613617 164.731928 
L 170.798435 164.625476 
L 169.983148 164.519014 
L 169.422001 164.445691 
L 169.6342 161.293067 
L 172.112322 157.677657 
L 170.664808 154.740615 
" clip-path="url(#pca174df71f)" style="fill: none; stroke: #ffffff; stroke-width: 0.2"/>
    <path d="M 172.904192 154.818618 
L 173.681077 153.639939 
L 176.071883 154.594305 
L 177.91018 158.388911 
L 179.728496 157.951734 
L 178.936001 160.09901 
L 182.407577 157.891329 
L 183.017325 153.712777 
L 183.373245 154.751869 
L 183.847038 154.751869 
" clip-path="url(#pca174df71f)" style="fill: none; stroke: #ffffff; stroke-width: 0.2"/>
    <path d="M 136.195591 186.754914 
L 135.567735 185.999759 
L 134.93988 185.244079 
L 134.312024 184.487874 
L 133.684168 183.731141 
L 133.056416 182.97388 
L 132.724744 182.573646 
L 133.050588 177.23921 
L 131.595582 176.458506 
L 130.784666 176.618921 
L 129.973751 176.779011 
L 129.162731 176.939378 
L 128.351815 177.099571 
L 127.540796 177.25974 
L 126.72988 177.419885 
L 126.25303 177.514059 
L 125.085986 179.078954 
L 126.143132 180.586661 
L 125.362085 180.940243 
L 124.581037 181.293408 
L 123.799886 181.64676 
L 123.018839 181.999846 
L 122.237791 182.352816 
L 121.543226 182.666772 
L 124.17277 178.140319 
L 122.979292 177.019402 
L 123.782506 173.710524 
L 124.492786 173.118657 
L 125.203065 172.526464 
L 125.913345 171.933793 
L 126.623625 171.340946 
L 127.333904 170.747772 
L 128.044184 170.154118 
L 128.249827 169.982098 
L 127.95052 166.995606 
L 131.595582 164.83501 
L 132.217818 164.054548 
L 132.840054 163.273514 
L 133.46229 162.491908 
L 134.084526 161.709882 
L 134.706762 160.926975 
L 135.328998 160.143798 
L 135.951234 159.359891 
L 136.491151 158.679238 
L 134.028224 158.444217 
L 135.521112 155.615897 
L 138.351615 155.655175 
L 139.018393 157.156978 
L 139.760727 156.647432 
L 140.50306 156.13764 
L 141.245393 155.627604 
L 141.987726 155.117321 
L 142.730059 154.606793 
L 143.472288 154.096019 
L 144.214622 153.584844 
L 144.387586 153.465848 
L 144.811985 154.701457 
L 145.621339 154.521373 
L 146.430694 154.341259 
L 147.240048 154.161113 
L 148.049403 153.980938 
L 148.858757 153.800731 
L 149.668216 153.620494 
L 150.47757 153.44038 
L 151.286925 153.260082 
L 152.003657 153.100443 
L 152.820712 153.171928 
L 153.637664 153.243255 
L 154.45472 153.314885 
L 155.271775 153.386202 
L 156.088727 153.457668 
L 156.905783 153.529129 
L 157.145456 153.550119 
L 157.770606 152.318727 
L 154.837906 151.435146 
L 157.012767 149.344132 
L 157.75177 149.867894 
L 158.490669 150.391395 
L 159.229567 150.914792 
L 159.96857 151.43762 
L 160.707469 151.960499 
L 161.446472 152.482965 
L 161.468743 152.498723 
L 162.28684 152.460254 
L 163.104832 152.421939 
L 163.922824 152.383622 
L 164.740921 152.344995 
L 165.558913 152.306675 
L 166.377009 152.268354 
L 166.500645 152.262482 
L 167.290018 152.58338 
L 168.079495 152.90418 
L 168.868868 153.224729 
L 169.658241 153.545489 
L 170.447614 153.865843 
L 171.236987 154.186255 
L 172.02636 154.50657 
L 172.815733 154.826788 
L 172.866311 154.84729 
" clip-path="url(#pca174df71f)" style="fill: none; stroke: #ffffff; stroke-width: 0.2"/>
    <path d="M 126.950197 115.220205 
L 125.142809 114.205386 
L 121.706096 115.459226 
L 118.837816 113.177853 
L 114.821328 114.252024 
L 112.134858 110.200415 
L 111.336847 109.919448 
L 110.538836 109.638405 
L 109.740826 109.357445 
L 108.942815 109.076408 
L 108.144804 108.795133 
L 107.346689 108.51378 
L 106.548678 108.232511 
L 106.458866 108.200753 
L 106.398193 106.935742 
L 106.33752 105.669001 
L 106.276847 104.400689 
L 106.216174 103.13096 
L 106.155397 101.859486 
L 106.094724 100.586423 
L 106.079946 100.275504 
L 105.403801 100.995314 
L 104.727761 101.714616 
L 104.051616 102.43341 
L 103.375576 103.151698 
L 102.699431 103.86948 
L 102.023391 104.586757 
L 101.692239 104.938091 
L 100.877161 104.82261 
L 100.062083 104.707117 
L 99.247004 104.59161 
L 98.431926 104.476253 
L 97.616848 104.36072 
L 96.801769 104.245336 
L 96.785326 104.242909 
L 97.675752 98.17944 
L 95.18254 96.239236 
L 94.373602 96.434304 
L 93.564664 96.629009 
L 92.755726 96.824002 
L 91.946787 97.018957 
L 91.137849 97.21355 
L 90.722817 97.313602 
L 89.4951 93.330955 
L 88.684393 93.15525 
L 87.873581 92.979351 
L 87.062874 92.803585 
L 86.252063 92.627624 
L 85.441251 92.451797 
L 84.906538 92.335872 
L 83.129434 86.919927 
L 79.757141 88.943939 
L 78.359061 88.267637 
L 75.676338 85.564315 
L 74.835138 80.401614 
" clip-path="url(#pca174df71f)" style="fill: none; stroke: #ffffff; stroke-width: 0.2"/>
    <path d="M 183.847038 168.458876 
L 183.159172 168.281835 
L 183.009727 168.243324 
" clip-path="url(#pca174df71f)" style="fill: none; stroke: #ffffff; stroke-width: 0.2"/>
    <path d="M 122.168376 87.638918 
L 121.349968 87.634312 
L 120.531559 87.629706 
L 119.713047 87.6251 
L 118.894638 87.620493 
L 118.07623 87.615887 
L 117.898061 87.6149 
L 117.090996 85.774472 
L 117.546304 84.696847 
L 118.001507 83.617903 
L 118.45671 82.5378 
L 118.912018 81.456702 
L 119.367221 80.37444 
L 119.822529 79.290845 
L 119.951784 78.982927 
L 119.194048 78.489831 
L 118.436209 77.996491 
L 117.678473 77.502743 
L 116.920633 77.008918 
L 116.162898 76.514849 
L 115.405058 76.020536 
L 115.336684 75.975768 
L 111.475573 76.617973 
L 108.933136 71.77398 
L 107.41371 73.701115 
L 105.405467 73.348758 
L 105.659398 71.463574 
L 103.601929 73.16035 
L 101.366291 71.901658 
L 100.100797 72.570697 
L 100.566824 74.508466 
L 97.993998 74.241422 
L 97.259991 74.821093 
L 96.525983 75.400429 
L 95.791872 75.97943 
L 95.057864 76.558096 
L 94.323752 77.136428 
L 93.589745 77.714427 
L 93.329673 77.919089 
L 92.555182 77.496761 
L 91.780691 77.073922 
L 91.0062 76.651237 
L 90.231709 76.228374 
L 89.457219 75.805165 
L 89.381455 75.763717 
L 87.077652 77.065942 
L 86.141852 74.271764 
" clip-path="url(#pca174df71f)" style="fill: none; stroke: #ffffff; stroke-width: 0.2"/>
    <path d="M 40.161319 248.214276 
L 39.444483 247.676659 
L 38.727647 247.138649 
L 38.010811 246.60053 
L 37.293975 246.062159 
L 36.577139 245.523393 
L 36.372225 245.369495 
L 32.901377 246.511315 
L 30.226355 243.082301 
L 27.748234 243.387846 
L 26.960422 243.084719 
L 26.17261 242.781655 
L 25.384694 242.47851 
L 24.596882 242.175142 
L 23.80907 241.871695 
L 23.197553 241.636257 
L 22.97401 240.385619 
L 20.855868 241.522153 
L 21.465928 237.479712 
L 20.651891 237.363333 
L 19.837853 237.246799 
L 19.023815 237.130397 
L 18.209778 237.013982 
L 17.39574 236.897413 
L 17.025146 236.844488 
L 16.040017 235.385362 
" clip-path="url(#pca174df71f)" style="fill: none; stroke: #ffffff; stroke-width: 0.2"/>
    <path d="M 60.432854 250.21337 
L 58.867949 247.714067 
L 58.070043 247.465794 
L 57.27224 247.217467 
L 56.474333 246.969229 
L 55.676426 246.720938 
L 54.87852 246.47245 
L 54.080717 246.223909 
L 53.28281 245.975457 
L 52.484904 245.72695 
L 51.686997 245.478248 
L 50.88909 245.229492 
L 50.558563 245.126396 
L 49.891681 248.224615 
L 49.076602 248.12292 
L 48.261628 248.021075 
L 47.44655 247.91922 
L 46.631576 247.817498 
L 45.816497 247.715767 
L 45.001523 247.614027 
L 44.186549 247.512137 
L 43.37147 247.410237 
L 43.200171 247.388977 
L 40.237082 248.229714 
" clip-path="url(#pca174df71f)" style="fill: none; stroke: #ffffff; stroke-width: 0.2"/>
    <path d="M 123.824239 101.132982 
L 121.596198 100.240085 
L 121.059196 101.203919 
L 120.522193 102.166841 
L 119.98519 103.128692 
L 119.448188 104.08996 
L 118.911185 105.05 
L 118.374183 106.0093 
L 118.341401 106.067944 
L 120.63386 110.955714 
L 119.398546 113.434833 
" clip-path="url(#pca174df71f)" style="fill: none; stroke: #ffffff; stroke-width: 0.2"/>
    <path d="M 83.929006 253.313202 
L 80.689299 252.342521 
L 77.154136 253.67765 
L 76.960877 255.067701 
L 76.165885 254.804386 
L 75.370892 254.541151 
L 74.575899 254.277857 
L 73.780906 254.014362 
L 72.985913 253.750948 
L 72.190921 253.487474 
L 71.402276 253.225915 
L 68.329289 254.570309 
L 67.584146 254.112158 
L 66.838899 253.653827 
L 66.093756 253.195313 
L 65.348509 252.73676 
L 64.603262 252.277884 
L 64.115901 251.977653 
" clip-path="url(#pca174df71f)" style="fill: none; stroke: #ffffff; stroke-width: 0.2"/>
    <path d="M 64.115901 251.977653 
L 60.675338 253.128467 
L 60.053934 250.892672 
L 62.054581 249.038984 
L 64.42655 249.801438 
L 64.089363 251.977653 
" clip-path="url(#pca174df71f)" style="fill: none; stroke: #ffffff; stroke-width: 0.2"/>
    <path d="M 172.161547 243.698571 
L 171.588536 242.89976 
L 171.015525 242.100676 
L 170.44241 241.30075 
L 169.869399 240.500549 
L 169.296388 239.699503 
L 169.092411 239.414379 
" clip-path="url(#pca174df71f)" style="fill: none; stroke: #ffffff; stroke-width: 0.2"/>
    <path d="M 171.108148 164.323474 
L 170.217722 160.109747 
" clip-path="url(#pca174df71f)" style="fill: none; stroke: #ffffff; stroke-width: 0.2"/>
    <path d="M 67.374445 252.825495 
L 67.825381 251.931348 
L 67.359355 252.804899 
" clip-path="url(#pca174df71f)" style="fill: none; stroke: #ffffff; stroke-width: 0.2"/>
    <path d="M 174.23421 252.357904 
L 173.756736 249.0905 
" clip-path="url(#pca174df71f)" style="fill: none; stroke: #ffffff; stroke-width: 0.2"/>
    <path d="M 167.359038 273.312 
L 168.383796 272.090063 
" clip-path="url(#pca174df71f)" style="fill: none; stroke: #ffffff; stroke-width: 0.2"/>
    <path d="M 140.988756 229.13118 
L 141.655638 228.601496 
" clip-path="url(#pca174df71f)" style="fill: none; stroke: #ffffff; stroke-width: 0.2"/>
    <path d="M 158.566328 151.654719 
L 158.577671 151.654719 
" clip-path="url(#pca174df71f)" style="fill: none; stroke: #ffffff; stroke-width: 0.2"/>
   </g>
   <g id="LineCollection_3"/>
   <g id="line2d_1">
    <path d="M 137.642721 170.522936 
L 141.753345 166.64533 
L 141.753345 166.64533 
" clip-path="url(#pca174df71f)" style="fill: none; stroke: #008000; stroke-width: 0.25; stroke-linecap: square"/>
   </g>
   <g id="line2d_2">
    <path d="M 137.642721 170.522936 
L 123.996566 181.446585 
L 123.996566 181.446585 
" clip-path="url(#pca174df71f)" style="fill: none; stroke: #008000; stroke-width: 0.25; stroke-linecap: square"/>
   </g>
   <g id="line2d_3">
    <path d="M 147.971457 158.584331 
L 141.753345 166.64533 
L 141.753345 166.64533 
" clip-path="url(#pca174df71f)" style="fill: none; stroke: #008000; stroke-width: 0.25; stroke-linecap: square"/>
   </g>
   <g id="line2d_4">
    <path d="M 147.971457 158.584331 
L 156.793033 158.248454 
L 156.793033 158.248454 
" clip-path="url(#pca174df71f)" style="fill: none; stroke: #008000; stroke-width: 0.25; stroke-linecap: square"/>
   </g>
   <g id="line2d_5">
    <path d="M 77.449594 141.671951 
L 74.03942 133.112592 
L 74.03942 133.112592 
" clip-path="url(#pca174df71f)" style="fill: none; stroke: #008000; stroke-width: 0.25; stroke-linecap: square"/>
   </g>
   <g id="line2d_6">
    <path d="M 77.449594 141.671951 
L 77.592412 152.862338 
L 77.592412 152.862338 
" clip-path="url(#pca174df71f)" style="fill: none; stroke: #008000; stroke-width: 0.25; stroke-linecap: square"/>
   </g>
   <g id="line2d_7">
    <path d="M 77.592412 152.862338 
L 83.25603 165.816369 
L 83.25603 165.816369 
" clip-path="url(#pca174df71f)" style="fill: none; stroke: #008000; stroke-width: 0.25; stroke-linecap: square"/>
   </g>
   <g id="line2d_8">
    <path d="M 83.25603 165.816369 
L 91.584086 173.138638 
L 91.584086 173.138638 
" clip-path="url(#pca174df71f)" style="fill: none; stroke: #008000; stroke-width: 0.25; stroke-linecap: square"/>
   </g>
   <g id="line2d_9">
    <path d="M 91.584086 173.138638 
L 98.592676 176.882085 
L 98.592676 176.882085 
" clip-path="url(#pca174df71f)" style="fill: none; stroke: #008000; stroke-width: 0.25; stroke-linecap: square"/>
   </g>
   <g id="line2d_10">
    <path d="M 98.592676 176.882085 
L 104.958381 183.459338 
L 104.958381 183.459338 
" clip-path="url(#pca174df71f)" style="fill: none; stroke: #008000; stroke-width: 0.25; stroke-linecap: square"/>
   </g>
   <g id="line2d_11">
    <path d="M 104.958381 183.459338 
L 108.444352 187.386656 
L 108.444352 187.386656 
" clip-path="url(#pca174df71f)" style="fill: none; stroke: #008000; stroke-width: 0.25; stroke-linecap: square"/>
   </g>
   <g id="line2d_12">
    <path d="M 114.052225 188.366273 
L 118.826469 189.34501 
L 118.826469 189.34501 
" clip-path="url(#pca174df71f)" style="fill: none; stroke: #008000; stroke-width: 0.25; stroke-linecap: square"/>
   </g>
   <g id="line2d_13">
    <path d="M 114.052225 188.366273 
L 108.444352 187.386656 
L 108.444352 187.386656 
" clip-path="url(#pca174df71f)" style="fill: none; stroke: #008000; stroke-width: 0.25; stroke-linecap: square"/>
   </g>
   <g id="line2d_14">
    <path d="M 118.826469 189.34501 
L 123.996566 181.446585 
L 123.996566 181.446585 
" clip-path="url(#pca174df71f)" style="fill: none; stroke: #008000; stroke-width: 0.25; stroke-linecap: square"/>
   </g>
   <g id="line2d_15">
    <path d="M 106.32245 190.322869 
L 105.640416 200.376623 
L 105.640416 200.376623 
" clip-path="url(#pca174df71f)" style="fill: none; stroke: #008000; stroke-width: 0.25; stroke-linecap: square"/>
   </g>
   <g id="line2d_16">
    <path d="M 106.32245 190.322869 
L 108.444352 187.386656 
L 108.444352 187.386656 
" clip-path="url(#pca174df71f)" style="fill: none; stroke: #008000; stroke-width: 0.25; stroke-linecap: square"/>
   </g>
   <g id="line2d_17">
    <path d="M 104.958381 222.431088 
L 111.193407 229.859716 
L 111.193407 229.859716 
" clip-path="url(#pca174df71f)" style="fill: none; stroke: #008000; stroke-width: 0.25; stroke-linecap: square"/>
   </g>
   <g id="line2d_18">
    <path d="M 104.958381 222.431088 
L 104.958381 213.214897 
L 104.958381 213.214897 
" clip-path="url(#pca174df71f)" style="fill: none; stroke: #008000; stroke-width: 0.25; stroke-linecap: square"/>
   </g>
   <g id="line2d_19">
    <path d="M 100.411527 77.671002 
L 100.919779 72.298352 
L 100.919779 72.298352 
" clip-path="url(#pca174df71f)" style="fill: none; stroke: #008000; stroke-width: 0.25; stroke-linecap: square"/>
   </g>
   <g id="line2d_20">
    <path d="M 100.411527 77.671002 
L 100.411527 77.671002 
" clip-path="url(#pca174df71f)" style="fill: none; stroke: #008000; stroke-width: 0.25; stroke-linecap: square"/>
   </g>
   <g id="line2d_21">
    <path d="M 59.857732 231.491852 
L 57.853368 227.246568 
L 57.853368 227.246568 
" clip-path="url(#pca174df71f)" style="fill: none; stroke: #008000; stroke-width: 0.25; stroke-linecap: square"/>
   </g>
   <g id="line2d_22">
    <path d="M 59.857732 231.491852 
L 64.718322 235.958676 
L 64.718322 235.958676 
" clip-path="url(#pca174df71f)" style="fill: none; stroke: #008000; stroke-width: 0.25; stroke-linecap: square"/>
   </g>
   <g id="line2d_23">
    <path d="M 99.48546 85.614726 
L 87.214561 91.7064 
L 87.214561 91.7064 
" clip-path="url(#pca174df71f)" style="fill: none; stroke: #008000; stroke-width: 0.25; stroke-linecap: square"/>
   </g>
   <g id="line2d_24">
    <path d="M 99.48546 85.614726 
L 99.48546 85.614726 
" clip-path="url(#pca174df71f)" style="fill: none; stroke: #008000; stroke-width: 0.25; stroke-linecap: square"/>
   </g>
   <g id="line2d_25">
    <path d="M 113.566616 237.266128 
L 111.193407 229.859716 
L 111.193407 229.859716 
" clip-path="url(#pca174df71f)" style="fill: none; stroke: #008000; stroke-width: 0.25; stroke-linecap: square"/>
   </g>
   <g id="line2d_26">
    <path d="M 113.566616 237.266128 
L 107.612451 234.624361 
L 107.612451 234.624361 
" clip-path="url(#pca174df71f)" style="fill: none; stroke: #008000; stroke-width: 0.25; stroke-linecap: square"/>
   </g>
   <g id="line2d_27">
    <path d="M 32.435291 208.097507 
L 40.61971 214.171816 
L 40.61971 214.171816 
" clip-path="url(#pca174df71f)" style="fill: none; stroke: #008000; stroke-width: 0.25; stroke-linecap: square"/>
   </g>
   <g id="line2d_28">
    <path d="M 32.435291 208.097507 
L 38.800996 207.13534 
L 38.800996 207.13534 
" clip-path="url(#pca174df71f)" style="fill: none; stroke: #008000; stroke-width: 0.25; stroke-linecap: square"/>
   </g>
   <g id="line2d_29">
    <path d="M 86.105026 124.786993 
L 79.268445 125.868066 
L 79.268445 125.868066 
" clip-path="url(#pca174df71f)" style="fill: none; stroke: #008000; stroke-width: 0.25; stroke-linecap: square"/>
   </g>
   <g id="line2d_30">
    <path d="M 86.105026 124.786993 
L 97.228606 123.788877 
L 97.228606 123.788877 
" clip-path="url(#pca174df71f)" style="fill: none; stroke: #008000; stroke-width: 0.25; stroke-linecap: square"/>
   </g>
   <g id="line2d_31">
    <path d="M 79.268445 125.868066 
L 72.204337 127.872401 
L 72.204337 127.872401 
" clip-path="url(#pca174df71f)" style="fill: none; stroke: #008000; stroke-width: 0.25; stroke-linecap: square"/>
   </g>
   <g id="line2d_32">
    <path d="M 108.141165 128.288595 
L 97.228606 123.788877 
L 97.228606 123.788877 
" clip-path="url(#pca174df71f)" style="fill: none; stroke: #008000; stroke-width: 0.25; stroke-linecap: square"/>
   </g>
   <g id="line2d_33">
    <path d="M 108.141165 128.288595 
L 117.917044 131.047874 
L 117.917044 131.047874 
" clip-path="url(#pca174df71f)" style="fill: none; stroke: #008000; stroke-width: 0.25; stroke-linecap: square"/>
   </g>
   <g id="line2d_34">
    <path d="M 84.497334 89.219026 
L 80.177734 94.229878 
L 80.177734 94.229878 
" clip-path="url(#pca174df71f)" style="fill: none; stroke: #008000; stroke-width: 0.25; stroke-linecap: square"/>
   </g>
   <g id="line2d_35">
    <path d="M 84.497334 89.219026 
L 90.863038 81.294048 
L 90.863038 81.294048 
" clip-path="url(#pca174df71f)" style="fill: none; stroke: #008000; stroke-width: 0.25; stroke-linecap: square"/>
   </g>
   <g id="line2d_36">
    <path d="M 84.497334 89.219026 
L 87.214561 91.7064 
L 87.214561 91.7064 
" clip-path="url(#pca174df71f)" style="fill: none; stroke: #008000; stroke-width: 0.25; stroke-linecap: square"/>
   </g>
   <g id="line2d_37">
    <path d="M 79.478921 114.886238 
L 70.558996 122.5927 
L 70.558996 122.5927 
" clip-path="url(#pca174df71f)" style="fill: none; stroke: #008000; stroke-width: 0.25; stroke-linecap: square"/>
   </g>
   <g id="line2d_38">
    <path d="M 79.478921 114.886238 
L 79.95048 105.5913 
L 79.95048 105.5913 
" clip-path="url(#pca174df71f)" style="fill: none; stroke: #008000; stroke-width: 0.25; stroke-linecap: square"/>
   </g>
   <g id="line2d_39">
    <path d="M 80.177734 94.229878 
L 79.95048 105.5913 
L 79.95048 105.5913 
" clip-path="url(#pca174df71f)" style="fill: none; stroke: #008000; stroke-width: 0.25; stroke-linecap: square"/>
   </g>
   <g id="line2d_40">
    <path d="M 90.863038 81.294048 
L 99.48546 85.614726 
L 99.48546 85.614726 
" clip-path="url(#pca174df71f)" style="fill: none; stroke: #008000; stroke-width: 0.25; stroke-linecap: square"/>
   </g>
   <g id="line2d_41">
    <path d="M 100.411527 77.671002 
L 99.48546 85.614726 
L 99.48546 85.614726 
" clip-path="url(#pca174df71f)" style="fill: none; stroke: #008000; stroke-width: 0.25; stroke-linecap: square"/>
   </g>
   <g id="line2d_42">
    <path d="M 156.793033 158.248454 
L 143.83437 154.212851 
L 143.83437 154.212851 
" clip-path="url(#pca174df71f)" style="fill: none; stroke: #008000; stroke-width: 0.25; stroke-linecap: square"/>
   </g>
   <g id="line2d_43">
    <path d="M 143.83437 154.212851 
L 143.152335 147.113295 
L 143.152335 147.113295 
" clip-path="url(#pca174df71f)" style="fill: none; stroke: #008000; stroke-width: 0.25; stroke-linecap: square"/>
   </g>
   <g id="line2d_44">
    <path d="M 124.737393 131.392347 
L 135.649951 131.047874 
L 135.649951 131.047874 
" clip-path="url(#pca174df71f)" style="fill: none; stroke: #008000; stroke-width: 0.25; stroke-linecap: square"/>
   </g>
   <g id="line2d_45">
    <path d="M 124.737393 131.392347 
L 117.917044 131.047874 
L 117.917044 131.047874 
" clip-path="url(#pca174df71f)" style="fill: none; stroke: #008000; stroke-width: 0.25; stroke-linecap: square"/>
   </g>
   <g id="line2d_46">
    <path d="M 145.880474 133.456383 
L 143.152335 147.113295 
L 143.152335 147.113295 
" clip-path="url(#pca174df71f)" style="fill: none; stroke: #008000; stroke-width: 0.25; stroke-linecap: square"/>
   </g>
   <g id="line2d_47">
    <path d="M 145.880474 133.456383 
L 135.649951 131.047874 
L 135.649951 131.047874 
" clip-path="url(#pca174df71f)" style="fill: none; stroke: #008000; stroke-width: 0.25; stroke-linecap: square"/>
   </g>
   <g id="line2d_48">
    <path d="M 145.880474 133.456383 
L 137.923446 126.906097 
L 137.923446 126.906097 
" clip-path="url(#pca174df71f)" style="fill: none; stroke: #008000; stroke-width: 0.25; stroke-linecap: square"/>
   </g>
   <g id="line2d_49">
    <path d="M 155.629754 114.62547 
L 158.611747 101.345588 
L 158.611747 101.345588 
" clip-path="url(#pca174df71f)" style="fill: none; stroke: #008000; stroke-width: 0.25; stroke-linecap: square"/>
   </g>
   <g id="line2d_50">
    <path d="M 155.629754 114.62547 
L 141.948682 124.074635 
L 137.923446 126.906097 
L 137.923446 126.906097 
" clip-path="url(#pca174df71f)" style="fill: none; stroke: #008000; stroke-width: 0.25; stroke-linecap: square"/>
   </g>
   <g id="line2d_51">
    <path d="M 158.611747 101.345588 
L 158.611747 101.345588 
" clip-path="url(#pca174df71f)" style="fill: none; stroke: #008000; stroke-width: 0.25; stroke-linecap: square"/>
   </g>
   <g id="line2d_52">
    <path d="M 158.611747 101.345588 
L 153.382858 100.991121 
L 153.382858 100.991121 
" clip-path="url(#pca174df71f)" style="fill: none; stroke: #008000; stroke-width: 0.25; stroke-linecap: square"/>
   </g>
   <g id="line2d_53">
    <path d="M 72.204337 127.872401 
L 72.204337 127.872401 
L 72.204337 127.872401 
" clip-path="url(#pca174df71f)" style="fill: none; stroke: #008000; stroke-width: 0.25; stroke-linecap: square"/>
   </g>
   <g id="line2d_54">
    <path d="M 72.204337 127.872401 
L 70.558996 122.5927 
L 70.558996 122.5927 
" clip-path="url(#pca174df71f)" style="fill: none; stroke: #008000; stroke-width: 0.25; stroke-linecap: square"/>
   </g>
   <g id="line2d_55">
    <path d="M 32.435291 73.306078 
L 37.667181 79.925449 
L 37.667181 79.925449 
" clip-path="url(#pca174df71f)" style="fill: none; stroke: #008000; stroke-width: 0.25; stroke-linecap: square"/>
   </g>
   <g id="line2d_56">
    <path d="M 32.435291 73.306078 
L 38.449884 71.294868 
L 38.449884 71.294868 
" clip-path="url(#pca174df71f)" style="fill: none; stroke: #008000; stroke-width: 0.25; stroke-linecap: square"/>
   </g>
   <g id="line2d_57">
    <path d="M 38.449884 71.294868 
L 48.09945 58.721759 
L 48.09945 58.721759 
" clip-path="url(#pca174df71f)" style="fill: none; stroke: #008000; stroke-width: 0.25; stroke-linecap: square"/>
   </g>
   <g id="line2d_58">
    <path d="M 64.036287 49.697887 
L 78.832026 50.468135 
L 93.601409 51.459834 
L 102.013218 52.124273 
L 102.013218 52.124273 
" clip-path="url(#pca174df71f)" style="fill: none; stroke: #008000; stroke-width: 0.25; stroke-linecap: square"/>
   </g>
   <g id="line2d_59">
    <path d="M 64.036287 49.697887 
L 51.364488 54.453318 
L 51.364488 54.453318 
" clip-path="url(#pca174df71f)" style="fill: none; stroke: #008000; stroke-width: 0.25; stroke-linecap: square"/>
   </g>
   <g id="line2d_60">
    <path d="M 106.86385 52.143041 
L 102.013218 52.124273 
L 102.013218 52.124273 
" clip-path="url(#pca174df71f)" style="fill: none; stroke: #008000; stroke-width: 0.25; stroke-linecap: square"/>
   </g>
   <g id="line2d_61">
    <path d="M 106.86385 52.143041 
L 114.203773 60.206391 
L 114.203773 60.206391 
" clip-path="url(#pca174df71f)" style="fill: none; stroke: #008000; stroke-width: 0.25; stroke-linecap: square"/>
   </g>
   <g id="line2d_62">
    <path d="M 106.86385 52.143041 
L 101.26407 62.180606 
L 101.26407 62.180606 
" clip-path="url(#pca174df71f)" style="fill: none; stroke: #008000; stroke-width: 0.25; stroke-linecap: square"/>
   </g>
   <g id="line2d_63">
    <path d="M 72.204337 127.872401 
L 74.03942 133.112592 
L 74.03942 133.112592 
" clip-path="url(#pca174df71f)" style="fill: none; stroke: #008000; stroke-width: 0.25; stroke-linecap: square"/>
   </g>
   <g id="line2d_64">
    <path d="M 72.204337 127.872401 
L 75.176236 136.544794 
L 75.176236 136.544794 
" clip-path="url(#pca174df71f)" style="fill: none; stroke: #008000; stroke-width: 0.25; stroke-linecap: square"/>
   </g>
   <g id="line2d_65">
    <path d="M 79.95048 105.5913 
L 71.538671 105.944384 
L 71.538671 105.944384 
" clip-path="url(#pca174df71f)" style="fill: none; stroke: #008000; stroke-width: 0.25; stroke-linecap: square"/>
   </g>
   <g id="line2d_66">
    <path d="M 71.538671 105.944384 
L 60.544268 99.954885 
L 60.544268 99.954885 
" clip-path="url(#pca174df71f)" style="fill: none; stroke: #008000; stroke-width: 0.25; stroke-linecap: square"/>
   </g>
   <g id="line2d_67">
    <path d="M 37.667181 79.925449 
L 43.34785 86.704146 
L 43.34785 86.704146 
" clip-path="url(#pca174df71f)" style="fill: none; stroke: #008000; stroke-width: 0.25; stroke-linecap: square"/>
   </g>
   <g id="line2d_68">
    <path d="M 101.26407 62.180606 
L 100.919779 72.298352 
L 100.919779 72.298352 
" clip-path="url(#pca174df71f)" style="fill: none; stroke: #008000; stroke-width: 0.25; stroke-linecap: square"/>
   </g>
   <g id="line2d_69">
    <path d="M 57.853368 227.246568 
L 49.486164 220.530531 
L 49.486164 220.530531 
" clip-path="url(#pca174df71f)" style="fill: none; stroke: #008000; stroke-width: 0.25; stroke-linecap: square"/>
   </g>
   <g id="line2d_70">
    <path d="M 49.486164 220.530531 
L 40.61971 214.171816 
L 40.61971 214.171816 
" clip-path="url(#pca174df71f)" style="fill: none; stroke: #008000; stroke-width: 0.25; stroke-linecap: square"/>
   </g>
   <g id="line2d_71">
    <path d="M 58.352617 153.875991 
L 66.082392 147.113295 
L 66.082392 147.113295 
" clip-path="url(#pca174df71f)" style="fill: none; stroke: #008000; stroke-width: 0.25; stroke-linecap: square"/>
   </g>
   <g id="line2d_72">
    <path d="M 58.352617 153.875991 
L 49.486164 157.912874 
L 49.486164 157.912874 
" clip-path="url(#pca174df71f)" style="fill: none; stroke: #008000; stroke-width: 0.25; stroke-linecap: square"/>
   </g>
   <g id="line2d_73">
    <path d="M 44.711919 173.909169 
L 49.486164 157.912874 
L 49.486164 157.912874 
" clip-path="url(#pca174df71f)" style="fill: none; stroke: #008000; stroke-width: 0.25; stroke-linecap: square"/>
   </g>
   <g id="line2d_74">
    <path d="M 44.711919 173.909169 
L 34.254142 184.4425 
L 34.254142 184.4425 
" clip-path="url(#pca174df71f)" style="fill: none; stroke: #008000; stroke-width: 0.25; stroke-linecap: square"/>
   </g>
   <g id="line2d_75">
    <path d="M 40.8471 192.601203 
L 38.800996 207.13534 
L 38.800996 207.13534 
" clip-path="url(#pca174df71f)" style="fill: none; stroke: #008000; stroke-width: 0.25; stroke-linecap: square"/>
   </g>
   <g id="line2d_76">
    <path d="M 40.8471 192.601203 
L 34.254142 184.4425 
L 34.254142 184.4425 
" clip-path="url(#pca174df71f)" style="fill: none; stroke: #008000; stroke-width: 0.25; stroke-linecap: square"/>
   </g>
   <g id="line2d_77">
    <path d="M 105.640416 200.376623 
L 104.958381 213.214897 
L 104.958381 213.214897 
" clip-path="url(#pca174df71f)" style="fill: none; stroke: #008000; stroke-width: 0.25; stroke-linecap: square"/>
   </g>
   <g id="line2d_78">
    <path d="M 132.596617 77.561021 
L 127.010888 70.019837 
L 127.010888 70.019837 
" clip-path="url(#pca174df71f)" style="fill: none; stroke: #008000; stroke-width: 0.25; stroke-linecap: square"/>
   </g>
   <g id="line2d_79">
    <path d="M 132.596617 77.561021 
L 136.331986 84.90408 
L 136.331986 84.90408 
" clip-path="url(#pca174df71f)" style="fill: none; stroke: #008000; stroke-width: 0.25; stroke-linecap: square"/>
   </g>
   <g id="line2d_80">
    <path d="M 101.775597 228.743125 
L 93.136397 231.572097 
L 93.136397 231.572097 
" clip-path="url(#pca174df71f)" style="fill: none; stroke: #008000; stroke-width: 0.25; stroke-linecap: square"/>
   </g>
   <g id="line2d_81">
    <path d="M 101.775597 228.743125 
L 107.612451 234.624361 
L 107.612451 234.624361 
" clip-path="url(#pca174df71f)" style="fill: none; stroke: #008000; stroke-width: 0.25; stroke-linecap: square"/>
   </g>
   <g id="line2d_82">
    <path d="M 82.223839 236.896473 
L 93.136397 231.572097 
L 93.136397 231.572097 
" clip-path="url(#pca174df71f)" style="fill: none; stroke: #008000; stroke-width: 0.25; stroke-linecap: square"/>
   </g>
   <g id="line2d_83">
    <path d="M 82.223839 236.896473 
L 74.948845 239.081731 
L 74.948845 239.081731 
" clip-path="url(#pca174df71f)" style="fill: none; stroke: #008000; stroke-width: 0.25; stroke-linecap: square"/>
   </g>
   <g id="line2d_84">
    <path d="M 64.718322 235.958676 
L 74.948845 239.081731 
L 74.948845 239.081731 
" clip-path="url(#pca174df71f)" style="fill: none; stroke: #008000; stroke-width: 0.25; stroke-linecap: square"/>
   </g>
   <g id="line2d_85">
    <path d="M 66.082392 147.113295 
L 75.176236 136.544794 
L 75.176236 136.544794 
" clip-path="url(#pca174df71f)" style="fill: none; stroke: #008000; stroke-width: 0.25; stroke-linecap: square"/>
   </g>
   <g id="line2d_86">
    <path d="M 48.09945 58.721759 
L 51.364488 54.453318 
L 51.364488 54.453318 
" clip-path="url(#pca174df71f)" style="fill: none; stroke: #008000; stroke-width: 0.25; stroke-linecap: square"/>
   </g>
   <g id="line2d_87">
    <path d="M 60.544268 99.954885 
L 47.203343 89.634496 
L 43.34785 86.704146 
L 43.34785 86.704146 
" clip-path="url(#pca174df71f)" style="fill: none; stroke: #008000; stroke-width: 0.25; stroke-linecap: square"/>
   </g>
   <g id="line2d_88">
    <path d="M 124.055358 63.414681 
L 114.203773 60.206391 
L 114.203773 60.206391 
" clip-path="url(#pca174df71f)" style="fill: none; stroke: #008000; stroke-width: 0.25; stroke-linecap: square"/>
   </g>
   <g id="line2d_89">
    <path d="M 124.055358 63.414681 
L 127.010888 70.019837 
L 127.010888 70.019837 
" clip-path="url(#pca174df71f)" style="fill: none; stroke: #008000; stroke-width: 0.25; stroke-linecap: square"/>
   </g>
   <g id="line2d_90">
    <path d="M 136.331986 84.90408 
L 139.51477 91.727446 
L 139.51477 91.727446 
" clip-path="url(#pca174df71f)" style="fill: none; stroke: #008000; stroke-width: 0.25; stroke-linecap: square"/>
   </g>
   <g id="line2d_91">
    <path d="M 139.51477 91.727446 
L 143.83437 92.085377 
L 143.83437 92.085377 
" clip-path="url(#pca174df71f)" style="fill: none; stroke: #008000; stroke-width: 0.25; stroke-linecap: square"/>
   </g>
   <g id="line2d_92">
    <path d="M 143.83437 92.085377 
L 153.382858 100.991121 
L 153.382858 100.991121 
" clip-path="url(#pca174df71f)" style="fill: none; stroke: #008000; stroke-width: 0.25; stroke-linecap: square"/>
   </g>
   <g id="patch_8">
    <path d="M 7.2 273.312 
L 7.2 7.2 
" style="fill: none; stroke: #ffffff; stroke-linejoin: miter; stroke-linecap: square"/>
   </g>
   <g id="patch_9">
    <path d="M 183.847038 273.312 
L 183.847038 7.2 
" style="fill: none; stroke: #ffffff; stroke-linejoin: miter; stroke-linecap: square"/>
   </g>
   <g id="patch_10">
    <path d="M 7.2 273.312 
L 183.847038 273.312 
" style="fill: none; stroke: #ffffff; stroke-linejoin: miter; stroke-linecap: square"/>
   </g>
   <g id="patch_11">
    <path d="M 7.2 7.2 
L 183.847038 7.2 
" style="fill: none; stroke: #ffffff; stroke-linejoin: miter; stroke-linecap: square"/>
   </g>
   <g id="PathCollection_1">
    <defs>
     <path id="m6596124152" d="M 0 0.353553 
C 0.093763 0.353553 0.183699 0.316301 0.25 0.25 
C 0.316301 0.183699 0.353553 0.093763 0.353553 0 
C 0.353553 -0.093763 0.316301 -0.183699 0.25 -0.25 
C 0.183699 -0.316301 0.093763 -0.353553 0 -0.353553 
C -0.093763 -0.353553 -0.183699 -0.316301 -0.25 -0.25 
C -0.316301 -0.183699 -0.353553 -0.093763 -0.353553 0 
C -0.353553 0.093763 -0.316301 0.183699 -0.25 0.25 
C -0.183699 0.316301 -0.093763 0.353553 0 0.353553 
z
" style="stroke: #ff0000"/>
    </defs>
    <g clip-path="url(#pca174df71f)">
     <use xlink:href="#m6596124152" x="137.642721" y="170.522936" style="fill: #ff0000; stroke: #ff0000"/>
    </g>
   </g>
   <g id="PathCollection_2">
    <g clip-path="url(#pca174df71f)">
     <use xlink:href="#m6596124152" x="147.971457" y="158.584331" style="fill: #ff0000; stroke: #ff0000"/>
    </g>
   </g>
   <g id="PathCollection_3">
    <g clip-path="url(#pca174df71f)">
     <use xlink:href="#m6596124152" x="77.449594" y="141.671951" style="fill: #ff0000; stroke: #ff0000"/>
    </g>
   </g>
   <g id="PathCollection_4">
    <g clip-path="url(#pca174df71f)">
     <use xlink:href="#m6596124152" x="77.592412" y="152.862338" style="fill: #ff0000; stroke: #ff0000"/>
    </g>
   </g>
   <g id="PathCollection_5">
    <g clip-path="url(#pca174df71f)">
     <use xlink:href="#m6596124152" x="83.25603" y="165.816369" style="fill: #ff0000; stroke: #ff0000"/>
    </g>
   </g>
   <g id="PathCollection_6">
    <g clip-path="url(#pca174df71f)">
     <use xlink:href="#m6596124152" x="91.584086" y="173.138638" style="fill: #ff0000; stroke: #ff0000"/>
    </g>
   </g>
   <g id="PathCollection_7">
    <g clip-path="url(#pca174df71f)">
     <use xlink:href="#m6596124152" x="98.592676" y="176.882085" style="fill: #ff0000; stroke: #ff0000"/>
    </g>
   </g>
   <g id="PathCollection_8">
    <g clip-path="url(#pca174df71f)">
     <use xlink:href="#m6596124152" x="104.958381" y="183.459338" style="fill: #ff0000; stroke: #ff0000"/>
    </g>
   </g>
   <g id="PathCollection_9">
    <g clip-path="url(#pca174df71f)">
     <use xlink:href="#m6596124152" x="114.052225" y="188.366273" style="fill: #ff0000; stroke: #ff0000"/>
    </g>
   </g>
   <g id="PathCollection_10">
    <g clip-path="url(#pca174df71f)">
     <use xlink:href="#m6596124152" x="118.826469" y="189.34501" style="fill: #ff0000; stroke: #ff0000"/>
    </g>
   </g>
   <g id="PathCollection_11">
    <g clip-path="url(#pca174df71f)">
     <use xlink:href="#m6596124152" x="106.32245" y="190.322869" style="fill: #ff0000; stroke: #ff0000"/>
    </g>
   </g>
   <g id="PathCollection_12">
    <defs>
     <path id="m0f72e678c9" d="M 0 0.353553 
C 0.093763 0.353553 0.183699 0.316301 0.25 0.25 
C 0.316301 0.183699 0.353553 0.093763 0.353553 0 
C 0.353553 -0.093763 0.316301 -0.183699 0.25 -0.25 
C 0.183699 -0.316301 0.093763 -0.353553 0 -0.353553 
C -0.093763 -0.353553 -0.183699 -0.316301 -0.25 -0.25 
C -0.316301 -0.183699 -0.353553 -0.093763 -0.353553 0 
C -0.353553 0.093763 -0.316301 0.183699 -0.25 0.25 
C -0.183699 0.316301 -0.093763 0.353553 0 0.353553 
z
" style="stroke: #ffff00"/>
    </defs>
    <g clip-path="url(#pca174df71f)">
     <use xlink:href="#m0f72e678c9" x="108.444352" y="187.386656" style="fill: #ffff00; stroke: #ffff00"/>
    </g>
   </g>
   <g id="PathCollection_13">
    <g clip-path="url(#pca174df71f)">
     <use xlink:href="#m6596124152" x="104.958381" y="222.431088" style="fill: #ff0000; stroke: #ff0000"/>
    </g>
   </g>
   <g id="PathCollection_14">
    <g clip-path="url(#pca174df71f)">
     <use xlink:href="#m6596124152" x="100.411527" y="77.671002" style="fill: #ff0000; stroke: #ff0000"/>
    </g>
   </g>
   <g id="PathCollection_15">
    <g clip-path="url(#pca174df71f)">
     <use xlink:href="#m6596124152" x="59.857732" y="231.491852" style="fill: #ff0000; stroke: #ff0000"/>
    </g>
   </g>
   <g id="PathCollection_16">
    <g clip-path="url(#pca174df71f)">
     <use xlink:href="#m6596124152" x="99.48546" y="85.614726" style="fill: #ff0000; stroke: #ff0000"/>
    </g>
   </g>
   <g id="PathCollection_17">
    <g clip-path="url(#pca174df71f)">
     <use xlink:href="#m6596124152" x="113.566616" y="237.266128" style="fill: #ff0000; stroke: #ff0000"/>
    </g>
   </g>
   <g id="PathCollection_18">
    <g clip-path="url(#pca174df71f)">
     <use xlink:href="#m6596124152" x="32.435291" y="208.097507" style="fill: #ff0000; stroke: #ff0000"/>
    </g>
   </g>
   <g id="PathCollection_19">
    <g clip-path="url(#pca174df71f)">
     <use xlink:href="#m6596124152" x="86.105026" y="124.786993" style="fill: #ff0000; stroke: #ff0000"/>
    </g>
   </g>
   <g id="PathCollection_20">
    <g clip-path="url(#pca174df71f)">
     <use xlink:href="#m6596124152" x="79.268445" y="125.868066" style="fill: #ff0000; stroke: #ff0000"/>
    </g>
   </g>
   <g id="PathCollection_21">
    <g clip-path="url(#pca174df71f)">
     <use xlink:href="#m6596124152" x="108.141165" y="128.288595" style="fill: #ff0000; stroke: #ff0000"/>
    </g>
   </g>
   <g id="PathCollection_22">
    <g clip-path="url(#pca174df71f)">
     <use xlink:href="#m6596124152" x="97.228606" y="123.788877" style="fill: #ff0000; stroke: #ff0000"/>
    </g>
   </g>
   <g id="PathCollection_23">
    <g clip-path="url(#pca174df71f)">
     <use xlink:href="#m6596124152" x="84.497334" y="89.219026" style="fill: #ff0000; stroke: #ff0000"/>
    </g>
   </g>
   <g id="PathCollection_24">
    <g clip-path="url(#pca174df71f)">
     <use xlink:href="#m6596124152" x="87.214561" y="91.7064" style="fill: #ff0000; stroke: #ff0000"/>
    </g>
   </g>
   <g id="PathCollection_25">
    <g clip-path="url(#pca174df71f)">
     <use xlink:href="#m6596124152" x="79.478921" y="114.886238" style="fill: #ff0000; stroke: #ff0000"/>
    </g>
   </g>
   <g id="PathCollection_26">
    <g clip-path="url(#pca174df71f)">
     <use xlink:href="#m6596124152" x="80.177734" y="94.229878" style="fill: #ff0000; stroke: #ff0000"/>
    </g>
   </g>
   <g id="PathCollection_27">
    <g clip-path="url(#pca174df71f)">
     <use xlink:href="#m6596124152" x="90.863038" y="81.294048" style="fill: #ff0000; stroke: #ff0000"/>
    </g>
   </g>
   <g id="PathCollection_28">
    <g clip-path="url(#pca174df71f)">
     <use xlink:href="#m6596124152" x="100.411527" y="77.671002" style="fill: #ff0000; stroke: #ff0000"/>
    </g>
   </g>
   <g id="PathCollection_29">
    <g clip-path="url(#pca174df71f)">
     <use xlink:href="#m6596124152" x="141.753345" y="166.64533" style="fill: #ff0000; stroke: #ff0000"/>
    </g>
   </g>
   <g id="PathCollection_30">
    <g clip-path="url(#pca174df71f)">
     <use xlink:href="#m6596124152" x="156.793033" y="158.248454" style="fill: #ff0000; stroke: #ff0000"/>
    </g>
   </g>
   <g id="PathCollection_31">
    <g clip-path="url(#pca174df71f)">
     <use xlink:href="#m6596124152" x="143.83437" y="154.212851" style="fill: #ff0000; stroke: #ff0000"/>
    </g>
   </g>
   <g id="PathCollection_32">
    <g clip-path="url(#pca174df71f)">
     <use xlink:href="#m6596124152" x="124.737393" y="131.392347" style="fill: #ff0000; stroke: #ff0000"/>
    </g>
   </g>
   <g id="PathCollection_33">
    <g clip-path="url(#pca174df71f)">
     <use xlink:href="#m6596124152" x="145.880474" y="133.456383" style="fill: #ff0000; stroke: #ff0000"/>
    </g>
   </g>
   <g id="PathCollection_34">
    <g clip-path="url(#pca174df71f)">
     <use xlink:href="#m6596124152" x="155.629754" y="114.62547" style="fill: #ff0000; stroke: #ff0000"/>
    </g>
   </g>
   <g id="PathCollection_35">
    <g clip-path="url(#pca174df71f)">
     <use xlink:href="#m6596124152" x="158.611747" y="101.345588" style="fill: #ff0000; stroke: #ff0000"/>
    </g>
   </g>
   <g id="PathCollection_36">
    <g clip-path="url(#pca174df71f)">
     <use xlink:href="#m6596124152" x="158.611747" y="101.345588" style="fill: #ff0000; stroke: #ff0000"/>
    </g>
   </g>
   <g id="PathCollection_37">
    <g clip-path="url(#pca174df71f)">
     <use xlink:href="#m6596124152" x="72.204337" y="127.872401" style="fill: #ff0000; stroke: #ff0000"/>
    </g>
   </g>
   <g id="PathCollection_38">
    <g clip-path="url(#pca174df71f)">
     <use xlink:href="#m6596124152" x="123.996566" y="181.446585" style="fill: #ff0000; stroke: #ff0000"/>
    </g>
   </g>
   <g id="PathCollection_39">
    <g clip-path="url(#pca174df71f)">
     <use xlink:href="#m6596124152" x="32.435291" y="73.306078" style="fill: #ff0000; stroke: #ff0000"/>
    </g>
   </g>
   <g id="PathCollection_40">
    <g clip-path="url(#pca174df71f)">
     <use xlink:href="#m6596124152" x="38.449884" y="71.294868" style="fill: #ff0000; stroke: #ff0000"/>
    </g>
   </g>
   <g id="PathCollection_41">
    <g clip-path="url(#pca174df71f)">
     <use xlink:href="#m6596124152" x="64.036287" y="49.697887" style="fill: #ff0000; stroke: #ff0000"/>
    </g>
   </g>
   <g id="PathCollection_42">
    <g clip-path="url(#pca174df71f)">
     <use xlink:href="#m6596124152" x="106.86385" y="52.143041" style="fill: #ff0000; stroke: #ff0000"/>
    </g>
   </g>
   <g id="PathCollection_43">
    <g clip-path="url(#pca174df71f)">
     <use xlink:href="#m6596124152" x="72.204337" y="127.872401" style="fill: #ff0000; stroke: #ff0000"/>
    </g>
   </g>
   <g id="PathCollection_44">
    <g clip-path="url(#pca174df71f)">
     <use xlink:href="#m6596124152" x="79.95048" y="105.5913" style="fill: #ff0000; stroke: #ff0000"/>
    </g>
   </g>
   <g id="PathCollection_45">
    <g clip-path="url(#pca174df71f)">
     <use xlink:href="#m6596124152" x="71.538671" y="105.944384" style="fill: #ff0000; stroke: #ff0000"/>
    </g>
   </g>
   <g id="PathCollection_46">
    <g clip-path="url(#pca174df71f)">
     <use xlink:href="#m6596124152" x="37.667181" y="79.925449" style="fill: #ff0000; stroke: #ff0000"/>
    </g>
   </g>
   <g id="PathCollection_47">
    <g clip-path="url(#pca174df71f)">
     <use xlink:href="#m6596124152" x="101.26407" y="62.180606" style="fill: #ff0000; stroke: #ff0000"/>
    </g>
   </g>
   <g id="PathCollection_48">
    <g clip-path="url(#pca174df71f)">
     <use xlink:href="#m6596124152" x="99.48546" y="85.614726" style="fill: #ff0000; stroke: #ff0000"/>
    </g>
   </g>
   <g id="PathCollection_49">
    <g clip-path="url(#pca174df71f)">
     <use xlink:href="#m6596124152" x="57.853368" y="227.246568" style="fill: #ff0000; stroke: #ff0000"/>
    </g>
   </g>
   <g id="PathCollection_50">
    <g clip-path="url(#pca174df71f)">
     <use xlink:href="#m6596124152" x="49.486164" y="220.530531" style="fill: #ff0000; stroke: #ff0000"/>
    </g>
   </g>
   <g id="PathCollection_51">
    <g clip-path="url(#pca174df71f)">
     <use xlink:href="#m6596124152" x="58.352617" y="153.875991" style="fill: #ff0000; stroke: #ff0000"/>
    </g>
   </g>
   <g id="PathCollection_52">
    <g clip-path="url(#pca174df71f)">
     <use xlink:href="#m6596124152" x="143.152335" y="147.113295" style="fill: #ff0000; stroke: #ff0000"/>
    </g>
   </g>
   <g id="PathCollection_53">
    <g clip-path="url(#pca174df71f)">
     <use xlink:href="#m6596124152" x="44.711919" y="173.909169" style="fill: #ff0000; stroke: #ff0000"/>
    </g>
   </g>
   <g id="PathCollection_54">
    <g clip-path="url(#pca174df71f)">
     <use xlink:href="#m6596124152" x="49.486164" y="157.912874" style="fill: #ff0000; stroke: #ff0000"/>
    </g>
   </g>
   <g id="PathCollection_55">
    <g clip-path="url(#pca174df71f)">
     <use xlink:href="#m6596124152" x="40.8471" y="192.601203" style="fill: #ff0000; stroke: #ff0000"/>
    </g>
   </g>
   <g id="PathCollection_56">
    <g clip-path="url(#pca174df71f)">
     <use xlink:href="#m6596124152" x="34.254142" y="184.4425" style="fill: #ff0000; stroke: #ff0000"/>
    </g>
   </g>
   <g id="PathCollection_57">
    <g clip-path="url(#pca174df71f)">
     <use xlink:href="#m6596124152" x="40.61971" y="214.171816" style="fill: #ff0000; stroke: #ff0000"/>
    </g>
   </g>
   <g id="PathCollection_58">
    <g clip-path="url(#pca174df71f)">
     <use xlink:href="#m6596124152" x="38.800996" y="207.13534" style="fill: #ff0000; stroke: #ff0000"/>
    </g>
   </g>
   <g id="PathCollection_59">
    <g clip-path="url(#pca174df71f)">
     <use xlink:href="#m6596124152" x="105.640416" y="200.376623" style="fill: #ff0000; stroke: #ff0000"/>
    </g>
   </g>
   <g id="PathCollection_60">
    <g clip-path="url(#pca174df71f)">
     <use xlink:href="#m6596124152" x="132.596617" y="77.561021" style="fill: #ff0000; stroke: #ff0000"/>
    </g>
   </g>
   <g id="PathCollection_61">
    <g clip-path="url(#pca174df71f)">
     <use xlink:href="#m6596124152" x="111.193407" y="229.859716" style="fill: #ff0000; stroke: #ff0000"/>
    </g>
   </g>
   <g id="PathCollection_62">
    <g clip-path="url(#pca174df71f)">
     <use xlink:href="#m6596124152" x="104.958381" y="213.214897" style="fill: #ff0000; stroke: #ff0000"/>
    </g>
   </g>
   <g id="PathCollection_63">
    <g clip-path="url(#pca174df71f)">
     <use xlink:href="#m6596124152" x="101.775597" y="228.743125" style="fill: #ff0000; stroke: #ff0000"/>
    </g>
   </g>
   <g id="PathCollection_64">
    <g clip-path="url(#pca174df71f)">
     <use xlink:href="#m6596124152" x="107.612451" y="234.624361" style="fill: #ff0000; stroke: #ff0000"/>
    </g>
   </g>
   <g id="PathCollection_65">
    <g clip-path="url(#pca174df71f)">
     <use xlink:href="#m6596124152" x="82.223839" y="236.896473" style="fill: #ff0000; stroke: #ff0000"/>
    </g>
   </g>
   <g id="PathCollection_66">
    <g clip-path="url(#pca174df71f)">
     <use xlink:href="#m6596124152" x="93.136397" y="231.572097" style="fill: #ff0000; stroke: #ff0000"/>
    </g>
   </g>
   <g id="PathCollection_67">
    <g clip-path="url(#pca174df71f)">
     <use xlink:href="#m6596124152" x="64.718322" y="235.958676" style="fill: #ff0000; stroke: #ff0000"/>
    </g>
   </g>
   <g id="PathCollection_68">
    <g clip-path="url(#pca174df71f)">
     <use xlink:href="#m6596124152" x="74.948845" y="239.081731" style="fill: #ff0000; stroke: #ff0000"/>
    </g>
   </g>
   <g id="PathCollection_69">
    <g clip-path="url(#pca174df71f)">
     <use xlink:href="#m6596124152" x="66.082392" y="147.113295" style="fill: #ff0000; stroke: #ff0000"/>
    </g>
   </g>
   <g id="PathCollection_70">
    <g clip-path="url(#pca174df71f)">
     <use xlink:href="#m6596124152" x="75.176236" y="136.544794" style="fill: #ff0000; stroke: #ff0000"/>
    </g>
   </g>
   <g id="PathCollection_71">
    <g clip-path="url(#pca174df71f)">
     <use xlink:href="#m6596124152" x="48.09945" y="58.721759" style="fill: #ff0000; stroke: #ff0000"/>
    </g>
   </g>
   <g id="PathCollection_72">
    <g clip-path="url(#pca174df71f)">
     <use xlink:href="#m6596124152" x="51.364488" y="54.453318" style="fill: #ff0000; stroke: #ff0000"/>
    </g>
   </g>
   <g id="PathCollection_73">
    <g clip-path="url(#pca174df71f)">
     <use xlink:href="#m6596124152" x="102.013218" y="52.124273" style="fill: #ff0000; stroke: #ff0000"/>
    </g>
   </g>
   <g id="PathCollection_74">
    <g clip-path="url(#pca174df71f)">
     <use xlink:href="#m6596124152" x="100.919779" y="72.298352" style="fill: #ff0000; stroke: #ff0000"/>
    </g>
   </g>
   <g id="PathCollection_75">
    <g clip-path="url(#pca174df71f)">
     <use xlink:href="#m6596124152" x="74.03942" y="133.112592" style="fill: #ff0000; stroke: #ff0000"/>
    </g>
   </g>
   <g id="PathCollection_76">
    <g clip-path="url(#pca174df71f)">
     <use xlink:href="#m6596124152" x="70.558996" y="122.5927" style="fill: #ff0000; stroke: #ff0000"/>
    </g>
   </g>
   <g id="PathCollection_77">
    <g clip-path="url(#pca174df71f)">
     <use xlink:href="#m6596124152" x="60.544268" y="99.954885" style="fill: #ff0000; stroke: #ff0000"/>
    </g>
   </g>
   <g id="PathCollection_78">
    <g clip-path="url(#pca174df71f)">
     <use xlink:href="#m6596124152" x="43.34785" y="86.704146" style="fill: #ff0000; stroke: #ff0000"/>
    </g>
   </g>
   <g id="PathCollection_79">
    <g clip-path="url(#pca174df71f)">
     <use xlink:href="#m6596124152" x="135.649951" y="131.047874" style="fill: #ff0000; stroke: #ff0000"/>
    </g>
   </g>
   <g id="PathCollection_80">
    <g clip-path="url(#pca174df71f)">
     <use xlink:href="#m6596124152" x="117.917044" y="131.047874" style="fill: #ff0000; stroke: #ff0000"/>
    </g>
   </g>
   <g id="PathCollection_81">
    <g clip-path="url(#pca174df71f)">
     <use xlink:href="#m6596124152" x="124.055358" y="63.414681" style="fill: #ff0000; stroke: #ff0000"/>
    </g>
   </g>
   <g id="PathCollection_82">
    <g clip-path="url(#pca174df71f)">
     <use xlink:href="#m6596124152" x="114.203773" y="60.206391" style="fill: #ff0000; stroke: #ff0000"/>
    </g>
   </g>
   <g id="PathCollection_83">
    <g clip-path="url(#pca174df71f)">
     <use xlink:href="#m6596124152" x="127.010888" y="70.019837" style="fill: #ff0000; stroke: #ff0000"/>
    </g>
   </g>
   <g id="PathCollection_84">
    <g clip-path="url(#pca174df71f)">
     <use xlink:href="#m6596124152" x="136.331986" y="84.90408" style="fill: #ff0000; stroke: #ff0000"/>
    </g>
   </g>
   <g id="PathCollection_85">
    <g clip-path="url(#pca174df71f)">
     <use xlink:href="#m6596124152" x="139.51477" y="91.727446" style="fill: #ff0000; stroke: #ff0000"/>
    </g>
   </g>
   <g id="PathCollection_86">
    <g clip-path="url(#pca174df71f)">
     <use xlink:href="#m6596124152" x="143.83437" y="92.085377" style="fill: #ff0000; stroke: #ff0000"/>
    </g>
   </g>
   <g id="PathCollection_87">
    <g clip-path="url(#pca174df71f)">
     <use xlink:href="#m6596124152" x="153.382858" y="100.991121" style="fill: #ff0000; stroke: #ff0000"/>
    </g>
   </g>
   <g id="PathCollection_88">
    <g clip-path="url(#pca174df71f)">
     <use xlink:href="#m6596124152" x="137.923446" y="126.906097" style="fill: #ff0000; stroke: #ff0000"/>
    </g>
   </g>
  </g>
 </g>
 <defs>
  <clipPath id="pca174df71f">
   <rect x="7.2" y="7.2" width="176.647038" height="266.112"/>
  </clipPath>
 </defs>
</svg>
