<?xml version="1.0" encoding="utf-8" standalone="no"?>
<!DOCTYPE svg PUBLIC "-//W3C//DTD SVG 1.1//EN"
  "http://www.w3.org/Graphics/SVG/1.1/DTD/svg11.dtd">
<svg xmlns:xlink="http://www.w3.org/1999/xlink" width="371.52pt" height="175.758526pt" viewBox="0 0 371.52 175.758526" xmlns="http://www.w3.org/2000/svg" version="1.1">
 <metadata>
  <rdf:RDF xmlns:dc="http://purl.org/dc/elements/1.1/" xmlns:cc="http://creativecommons.org/ns#" xmlns:rdf="http://www.w3.org/1999/02/22-rdf-syntax-ns#">
   <cc:Work>
    <dc:type rdf:resource="http://purl.org/dc/dcmitype/StillImage"/>
    <dc:date>2025-12-17T16:18:51.284152</dc:date>
    <dc:format>image/svg+xml</dc:format>
    <dc:creator>
     <cc:Agent>
      <dc:title>Matplotlib v3.10.6, https://matplotlib.org/</dc:title>
     </cc:Agent>
    </dc:creator>
   </cc:Work>
  </rdf:RDF>
 </metadata>
 <defs>
  <style type="text/css">*{stroke-linejoin: round; stroke-linecap: butt}</style>
 </defs>
 <g id="figure_1">
  <g id="patch_1">
   <path d="M 0 175.758526 
L 371.52 175.758526 
L 371.52 0 
L 0 0 
z
" style="fill: #ffffff"/>
  </g>
  <g id="axes_1">
   <g id="patch_2">
    <path d="M 7.2 168.558526 
L 364.32 168.558526 
L 364.32 7.2 
L 7.2 7.2 
z
" clip-path="url(#pc1f352b306)" style="fill: #add8e6; stroke: #ffffff; stroke-linejoin: miter"/>
   </g>
   <g id="patch_3">
    <path d="M 7.2 168.558526 
L 364.32 168.558526 
L 364.32 7.2 
L 7.2 7.2 
z
" clip-path="url(#pc1f352b306)" style="fill: #add8e6; stroke: #ffffff; stroke-linejoin: miter"/>
   </g>
   <g id="patch_4">
    <path d="M 7.2 168.558526 
L 7.2 7.199999 
L 364.319997 7.199999 
L 364.319997 168.558526 
z
" clip-path="url(#pc1f352b306)" style="fill: #d3d3d3"/>
   </g>
   <g id="patch_5">
    <path d="M 340.465197 50.754555 
L 350.810807 56.033316 
L 349.444812 63.031157 
L 353.134626 63.934539 
L 352.841169 57.957424 
L 357.058457 57.764787 
L 356.851034 65.302735 
L 360.068573 65.621708 
L 357.616768 66.150361 
L 357.437974 69.263878 
L 364.319997 70.598893 
L 364.319997 74.846621 
L 356.899535 70.191436 
L 352.638113 72.344313 
L 356.2375 66.314276 
L 348.127342 63.031157 
L 349.738294 56.803267 
L 344.982542 53.272052 
L 338.686392 51.94941 
L 329.872273 57.050618 
L 327.694079 52.95984 
L 323.342256 56.20752 
L 322.349204 54.364337 
L 327.658901 51.379737 
L 330.066572 55.676027 
L 340.434212 50.754555 
z
" clip-path="url(#pc1f352b306)" style="fill: #add8e6"/>
   </g>
   <g id="patch_6">
    <path d="M 227.044644 69.982196 
L 231.893502 70.754621 
L 233.039943 74.404078 
L 237.527121 68.199341 
L 235.896471 67.088611 
L 242.130848 68.836145 
L 244.644252 65.284458 
L 247.536826 66.928771 
L 253.716824 66.906506 
L 252.306893 64.646078 
L 257.192443 64.618777 
L 261.422383 61.478454 
L 262.096698 59.064556 
L 259.993946 58.387401 
L 266.295826 56.079137 
L 266.412177 61.533417 
L 269.34246 62.620418 
L 269.771644 70.900128 
L 267.417658 73.315564 
L 268.83972 68.290325 
L 263.880564 59.842198 
L 262.023116 66.3871 
L 260.337243 64.062339 
L 257.682903 67.270698 
L 255.574271 65.721847 
L 254.857013 69.963962 
L 254.826375 67.379991 
L 251.393501 69.627568 
L 251.810206 68.0081 
L 243.724633 66.952035 
L 242.670305 69.372793 
L 237.81522 69.082002 
L 231.219187 78.181491 
L 231.623786 71.37251 
L 226.400967 70.027639 
z
" clip-path="url(#pc1f352b306)" style="fill: #add8e6"/>
   </g>
   <g id="matplotlib.axis_1"/>
   <g id="matplotlib.axis_2"/>
   <g id="LineCollection_1">
    <path d="M 340.465203 50.75455 
L 350.810801 56.033316 
L 349.444824 63.031159 
L 353.134629 63.93454 
L 352.841162 57.957428 
L 357.058467 57.764788 
L 356.851036 65.302738 
L 360.068567 65.621709 
L 357.616778 66.15036 
L 357.43797 69.263878 
L 364.32 70.598894 
" clip-path="url(#pc1f352b306)" style="fill: none; stroke: #000000; stroke-width: 0.6"/>
    <path d="M 364.32 74.846621 
L 356.899527 70.191437 
L 352.638109 72.344313 
L 356.2375 66.314279 
L 348.127337 63.031159 
L 349.738291 56.803272 
L 344.982542 53.272047 
L 338.686386 51.949414 
L 329.872272 57.050621 
L 327.694083 52.959834 
L 323.342251 56.207524 
L 322.349211 54.364342 
L 327.658894 51.379731 
L 330.06657 55.676032 
L 340.434224 50.75455 
L 340.465203 50.75455 
" clip-path="url(#pc1f352b306)" style="fill: none; stroke: #000000; stroke-width: 0.6"/>
    <path d="M 227.044651 69.982193 
L 231.893507 70.75462 
L 233.039932 74.40408 
L 237.527132 68.199339 
L 235.896479 67.088613 
L 242.130844 68.836143 
L 244.644255 65.284459 
L 247.536833 66.928771 
L 253.716815 66.906507 
L 252.306894 64.646079 
L 257.192455 64.618776 
L 261.422388 61.478453 
L 262.096705 59.064562 
L 259.993946 58.387395 
L 266.295826 56.079135 
L 266.412169 61.533411 
L 269.342462 62.620419 
L 269.771635 70.900129 
L 267.417669 73.315565 
L 268.839713 68.290325 
L 263.880574 59.842192 
L 262.023128 66.387098 
L 260.33725 64.062338 
L 257.682914 67.270699 
L 255.574261 65.721845 
L 254.857009 69.963964 
L 254.826366 67.379992 
L 251.393492 69.627569 
L 251.810205 68.008101 
L 243.724624 66.952035 
L 242.670298 69.372794 
L 237.815211 69.082004 
L 231.21919 78.181491 
L 231.62378 71.37251 
L 226.400976 70.02764 
L 227.044651 69.982193 
" clip-path="url(#pc1f352b306)" style="fill: none; stroke: #000000; stroke-width: 0.6"/>
   </g>
   <g id="LineCollection_2">
    <path d="M 7.2 23.652622 
L 364.32 23.652622 
L 364.32 23.652622 
" clip-path="url(#pc1f352b306)" style="fill: none; stroke: #ffffff; stroke-width: 0.6"/>
   </g>
   <g id="LineCollection_3">
    <path d="M 84.813479 7.2 
L 84.813479 10.472886 
L 89.423252 16.864727 
L 94.131185 18.655666 
L 96.246067 23.708824 
" clip-path="url(#pc1f352b306)" style="fill: none; stroke: #ffffff; stroke-width: 0.3"/>
    <path d="M 84.813479 7.2 
L 84.813479 10.472886 
L 89.306741 16.761652 
L 94.131185 18.655666 
L 96.240005 23.736797 
" clip-path="url(#pc1f352b306)" style="fill: none; stroke: #ffffff; stroke-width: 0.3"/>
    <path d="M 162.618377 168.558526 
L 162.616932 153.164286 
L 318.107661 153.094994 
L 317.482339 23.409828 
L 317.482339 23.409828 
" clip-path="url(#pc1f352b306)" style="fill: none; stroke: #ffffff; stroke-width: 0.3"/>
    <path d="M 162.624607 168.558526 
L 162.623161 153.164286 
L 318.107661 153.094994 
L 317.482339 23.400587 
L 317.482339 23.400587 
" clip-path="url(#pc1f352b306)" style="fill: none; stroke: #ffffff; stroke-width: 0.3"/>
    <path d="M 52.329893 23.662118 
L 52.328714 25.67933 
L 52.327704 27.693862 
L 52.326525 29.705979 
L 52.325515 31.715689 
L 52.324337 33.723 
L 52.323326 35.728175 
L 52.322148 37.730712 
L 52.321138 39.731127 
L 52.319959 41.72892 
L 52.318949 43.724353 
L 52.31777 45.717435 
L 52.31676 47.708424 
L 52.315581 49.696824 
L 52.314571 51.683148 
L 52.313393 53.666897 
L 52.312382 55.648333 
L 52.311541 57.169628 
L 53.311147 58.466839 
L 54.310585 59.763063 
L 55.310191 61.058302 
L 56.309629 62.352557 
L 57.309236 63.645831 
L 58.308674 64.938126 
L 59.30828 66.229443 
L 59.557298 66.551245 
L 59.189412 71.536179 
L 61.457678 73.869003 
L 59.465368 75.410261 
L 60.674931 76.20662 
L 61.884493 77.002611 
L 63.094055 77.797984 
L 64.303618 78.592989 
L 65.51318 79.387876 
L 66.722743 80.182395 
L 67.932305 80.976299 
L 68.439769 81.309238 
L 69.386171 82.673068 
L 70.332741 84.03582 
L 71.279143 85.397249 
L 72.225545 86.757851 
L 73.171946 88.117381 
L 74.118516 89.475843 
L 75.064918 90.833238 
L 76.01132 92.189568 
L 76.957722 93.544837 
L 77.904292 94.899046 
L 78.850694 96.252198 
L 79.797095 97.604296 
L 80.651063 98.823231 
L 82.759884 97.651477 
L 84.813479 101.083929 
L 90.361236 100.288897 
L 89.920783 102.107786 
L 89.480161 103.92453 
L 89.039708 105.739381 
L 88.599086 107.552345 
L 88.158633 109.363426 
L 87.71818 111.172875 
L 87.277559 112.980454 
L 86.837106 114.785923 
L 86.396652 116.589533 
L 86.394969 116.596097 
L 89.10453 125.08937 
L 85.285418 128.670308 
L 85.426342 135.373046 
L 90.759597 138.190214 
L 91.836989 137.092284 
L 92.914382 135.993674 
L 93.991775 134.894141 
L 95.069336 133.793925 
L 96.146729 132.693265 
L 97.224122 131.59192 
L 97.735795 131.068354 
L 101.983912 134.120307 
L 102.330246 135.946311 
L 102.676581 137.770434 
L 103.022916 139.592442 
L 103.369251 141.412582 
L 103.715586 143.231098 
L 103.743198 143.375953 
L 104.665692 144.725771 
L 105.588354 146.075043 
L 106.510847 147.423056 
L 107.433509 148.77005 
L 108.356002 150.116266 
L 109.278664 151.46099 
L 109.977563 152.479351 
L 110.008206 157.450361 
L 111.279055 157.974535 
L 112.550072 158.498557 
L 113.820921 159.022188 
L 115.091938 159.545904 
L 116.362787 160.069467 
L 116.487716 160.1207 
L 117.038283 161.816497 
L 117.588849 163.510458 
L 118.139247 165.203062 
L 118.689814 166.89384 
L 119.232388 168.558526 
" clip-path="url(#pc1f352b306)" style="fill: none; stroke: #ffffff; stroke-width: 0.3"/>
    <path d="M 134.593586 168.558526 
L 136.404583 166.465622 
L 137.728131 166.522346 
L 139.051511 166.579067 
L 140.375059 166.635787 
L 141.698607 166.692742 
L 143.021987 166.749458 
L 144.345535 166.806409 
L 145.669083 166.863122 
L 146.992463 166.919833 
L 148.316011 166.976542 
L 149.639391 167.033486 
L 150.962939 167.090428 
L 152.286487 167.147131 
L 153.609867 167.203833 
L 153.648592 167.205487 
L 152.790416 164.235446 
L 155.72677 160.690806 
L 156.741529 161.888295 
L 157.75612 163.085223 
L 158.77088 164.281355 
L 159.785471 165.476456 
L 160.800231 166.670764 
L 161.81499 167.864517 
L 162.40517 168.558526 
" clip-path="url(#pc1f352b306)" style="fill: none; stroke: #ffffff; stroke-width: 0.3"/>
    <path d="M 52.329893 23.662118 
L 52.328714 25.67933 
L 52.327704 27.693862 
L 52.326525 29.705979 
L 52.325515 31.715689 
L 52.324337 33.723 
L 52.323326 35.728175 
L 52.322148 37.730712 
L 52.321138 39.731127 
L 52.319959 41.72892 
L 52.318949 43.724353 
L 52.31777 45.717435 
L 52.31676 47.708424 
L 52.315581 49.696824 
L 52.314571 51.683148 
L 52.313393 53.666897 
L 52.312382 55.648333 
L 52.311541 57.169628 
L 53.311147 58.466839 
L 54.310585 59.763063 
L 55.310191 61.058302 
L 56.309629 62.352557 
L 57.309236 63.645831 
L 58.308674 64.938126 
L 59.30828 66.229443 
L 59.557298 66.551245 
L 59.189412 71.536179 
L 61.457678 73.869003 
L 59.465368 75.410261 
L 60.674931 76.20662 
L 61.884493 77.002611 
L 63.094055 77.797984 
L 64.303618 78.592989 
L 65.51318 79.387876 
L 66.722743 80.182395 
L 67.932305 80.976299 
L 68.439769 81.309238 
L 69.386171 82.673068 
L 70.332741 84.03582 
L 71.279143 85.397249 
L 72.225545 86.757851 
L 73.171946 88.117381 
L 74.118516 89.475843 
L 75.064918 90.833238 
L 76.01132 92.189568 
L 76.957722 93.544837 
L 77.904292 94.899046 
L 78.850694 96.252198 
L 79.797095 97.604296 
L 80.651063 98.823231 
L 82.759884 97.651477 
L 84.813479 101.083929 
L 90.361236 100.288897 
L 89.921288 102.107786 
L 89.481508 103.92502 
L 89.04156 105.740359 
L 88.601612 107.553811 
L 88.161664 109.365135 
L 87.721884 111.174826 
L 87.281936 112.982402 
L 86.841988 114.788356 
L 86.40204 116.59245 
L 86.401198 116.596097 
L 89.10453 125.08937 
L 85.291479 128.670308 
L 85.426342 135.373046 
L 90.759597 138.190214 
L 91.836989 137.092284 
L 92.914382 135.993674 
L 93.991775 134.894141 
L 95.069336 133.793925 
L 96.146729 132.693265 
L 97.224122 131.59192 
L 97.735795 131.068354 
L 101.983912 134.120307 
L 102.330583 135.94607 
L 102.677255 137.769953 
L 103.023926 139.591962 
L 103.37043 141.412102 
L 103.717101 143.23038 
L 103.743198 143.367095 
L 104.665355 144.717876 
L 105.587512 146.067394 
L 106.5095 147.416128 
L 107.431657 148.763844 
L 108.353813 150.110541 
L 109.27597 151.456224 
L 109.977563 152.479351 
L 110.014436 157.450361 
L 111.285285 157.97501 
L 112.556134 158.499507 
L 113.826814 159.023612 
L 115.097663 159.547802 
L 116.368511 160.071838 
L 116.487716 160.1207 
L 117.038283 161.816497 
L 117.588849 163.510458 
L 118.139247 165.203062 
L 118.689814 166.89384 
L 119.232388 168.558526 
" clip-path="url(#pc1f352b306)" style="fill: none; stroke: #ffffff; stroke-width: 0.3"/>
    <path d="M 134.589887 168.558526 
L 136.404583 166.457114 
L 137.728131 166.51431 
L 139.051511 166.571977 
L 140.375059 166.629406 
L 141.698439 166.686834 
L 143.021987 166.744259 
L 144.345367 166.801683 
L 145.668915 166.859105 
L 146.992295 166.916525 
L 148.315843 166.974179 
L 149.639391 167.031359 
L 150.962771 167.08901 
L 152.286319 167.146423 
L 153.609699 167.203833 
L 153.648592 167.205487 
L 152.790416 164.235446 
L 155.72677 160.690806 
L 156.741866 161.887821 
L 157.756962 163.083566 
L 158.772227 164.278989 
L 159.787323 165.473618 
L 160.80242 166.667219 
L 161.817516 167.86003 
L 162.412161 168.558526 
" clip-path="url(#pc1f352b306)" style="fill: none; stroke: #ffffff; stroke-width: 0.3"/>
    <path d="M 33.835239 121.633482 
L 32.511186 121.635421 
L 31.186964 121.636875 
L 29.862911 121.638814 
L 28.538858 121.640511 
L 27.214636 121.642208 
L 25.890583 121.644147 
L 24.566529 121.645844 
L 23.242308 121.64754 
L 21.918254 121.649479 
L 20.594201 121.650934 
L 19.270148 121.652873 
L 17.945926 121.654569 
L 16.621873 121.656266 
L 15.29782 121.658205 
L 13.973598 121.659902 
L 12.649545 121.661598 
L 11.325491 121.663537 
L 10.00127 121.664992 
L 8.677216 121.666931 
L 7.353163 121.668627 
L 7.2 121.668823 
" clip-path="url(#pc1f352b306)" style="fill: none; stroke: #ffffff; stroke-width: 0.3"/>
    <path d="M 7.2 121.668862 
L 8.517771 121.667173 
L 9.841824 121.665476 
L 11.166046 121.663537 
L 12.490099 121.661841 
L 13.814153 121.660144 
L 15.138374 121.658205 
L 16.462427 121.656751 
L 17.786481 121.654812 
L 19.110702 121.652873 
L 20.434756 121.651418 
L 21.758809 121.649479 
L 23.083031 121.647783 
L 24.407084 121.646086 
L 25.731137 121.644147 
L 27.055191 121.64245 
L 28.379412 121.640754 
L 29.703465 121.638814 
L 31.027519 121.63736 
L 32.35174 121.635421 
L 33.675794 121.633724 
L 33.835239 121.633482 
" clip-path="url(#pc1f352b306)" style="fill: none; stroke: #ffffff; stroke-width: 0.3"/>
    <path d="M 27.161365 168.558526 
L 27.492108 168.041634 
L 28.37655 166.658948 
L 29.260824 165.274962 
L 30.145097 163.890386 
L 31.029539 162.504269 
L 31.913813 161.11732 
L 32.798086 159.729299 
L 33.626798 158.427335 
L 34.282764 156.804847 
L 34.938897 155.180889 
L 35.594863 153.555219 
L 36.250828 151.928546 
L 36.906794 150.299914 
L 37.562927 148.670033 
L 38.218893 147.038662 
L 38.874858 145.405557 
L 39.530992 143.771192 
L 40.186957 142.135324 
L 40.842922 140.497709 
L 41.499056 138.858823 
L 42.155022 137.218421 
L 42.810987 135.576259 
L 43.392196 134.120307 
L 41.344662 129.215341 
L 40.168436 128.3434 
L 38.992211 127.471269 
L 37.815986 126.598707 
L 36.63976 125.725471 
L 35.463535 124.851801 
L 34.834509 124.384796 
L 34.292866 122.647077 
L 33.751391 120.907638 
L 33.209748 119.166719 
L 32.668106 117.424072 
L 32.126631 115.679691 
L 31.584988 113.933329 
L 31.043345 112.185466 
L 30.501703 110.435611 
L 30.322726 109.856899 
L 30.325589 107.936893 
L 30.328619 106.014772 
L 30.331482 104.090285 
L 30.334512 102.163914 
L 30.337374 100.235162 
L 30.340405 98.304514 
L 30.343267 96.371717 
L 30.346298 94.436764 
L 30.34916 92.499649 
L 30.352191 90.560117 
L 30.355053 88.618407 
L 30.357916 86.674761 
L 30.360946 84.728924 
L 30.363808 82.780889 
L 30.366839 80.830649 
L 30.369701 78.877949 
L 30.372732 76.923277 
L 30.375594 74.96613 
L 30.378625 73.006998 
L 30.381487 71.045625 
L 30.384518 69.082004 
L 30.38738 67.116127 
L 30.390411 65.147737 
L 30.393273 63.177327 
L 30.396135 61.204387 
L 30.399166 59.229414 
L 30.402028 57.252148 
L 30.405059 55.272582 
L 30.407921 53.290708 
L 30.410952 51.306266 
L 30.413814 49.319501 
L 30.416845 47.330658 
L 30.419707 45.339477 
L 30.422738 43.34595 
L 30.4256 41.35007 
L 30.428462 39.351574 
L 30.431493 37.350963 
L 30.434355 35.34772 
L 30.437386 33.342347 
L 30.440248 31.334581 
L 30.443279 29.324415 
L 30.446141 27.31184 
L 30.449171 25.296592 
L 30.451529 23.643383 
" clip-path="url(#pc1f352b306)" style="fill: none; stroke: #ffffff; stroke-width: 0.3"/>
    <path d="M 27.161365 168.558526 
L 27.492108 168.041634 
L 28.37655 166.658948 
L 29.260824 165.274962 
L 30.145097 163.890386 
L 31.029539 162.504269 
L 31.913813 161.11732 
L 32.798086 159.729299 
L 33.626798 158.427335 
L 34.282764 156.804847 
L 34.938897 155.180889 
L 35.594863 153.555219 
L 36.250828 151.928546 
L 36.906794 150.299914 
L 37.562927 148.670033 
L 38.218893 147.038662 
L 38.874858 145.405557 
L 39.530992 143.771192 
L 40.186957 142.135324 
L 40.842922 140.497709 
L 41.499056 138.858823 
L 42.155022 137.218421 
L 42.810987 135.576259 
L 43.392196 134.120307 
L 41.344662 129.215341 
L 40.164227 128.355473 
L 38.983793 127.494944 
L 37.80319 126.634237 
L 36.622755 125.772867 
L 35.442321 124.911318 
L 34.914147 124.525637 
L 34.369642 122.790236 
L 33.825137 121.05288 
L 33.280632 119.313803 
L 32.736127 117.573246 
L 32.191622 115.830716 
L 31.647116 114.086452 
L 31.102443 112.340691 
L 30.557938 110.593187 
L 30.328788 109.856899 
L 30.33165 107.936893 
L 30.334344 106.014772 
L 30.337206 104.090285 
L 30.340068 102.163914 
L 30.342762 100.235162 
L 30.345625 98.304514 
L 30.348318 96.371717 
L 30.351181 94.436764 
L 30.354043 92.499649 
L 30.356737 90.560117 
L 30.359599 88.618407 
L 30.362461 86.674761 
L 30.365155 84.728924 
L 30.368018 82.780889 
L 30.37088 80.830649 
L 30.373574 78.877949 
L 30.376436 76.923277 
L 30.37913 74.96613 
L 30.381992 73.006998 
L 30.384855 71.045625 
L 30.387548 69.082004 
L 30.390411 67.116127 
L 30.393273 65.147737 
L 30.395967 63.177076 
L 30.398829 61.204387 
L 30.401691 59.229414 
L 30.404385 57.252148 
L 30.407248 55.272582 
L 30.409942 53.290456 
L 30.412804 51.306266 
L 30.415666 49.319501 
L 30.41836 47.330658 
L 30.421222 45.339477 
L 30.424084 43.34595 
L 30.426778 41.35007 
L 30.429641 39.351574 
L 30.432503 37.350963 
L 30.435197 35.34772 
L 30.438059 33.342347 
L 30.440753 31.334581 
L 30.443615 29.324415 
L 30.446478 27.31184 
L 30.449171 25.296592 
L 30.451529 23.643383 
" clip-path="url(#pc1f352b306)" style="fill: none; stroke: #ffffff; stroke-width: 0.3"/>
    <path d="M 317.439051 168.558526 
L 317.435701 167.326682 
L 317.430481 165.467942 
L 317.425262 163.607282 
L 317.420211 161.744695 
L 317.414991 159.879939 
L 317.40994 158.01348 
L 317.404721 156.144839 
L 317.399502 154.274484 
L 317.396471 153.155714 
" clip-path="url(#pc1f352b306)" style="fill: none; stroke: #ffffff; stroke-width: 0.3"/>
    <path d="M 317.439051 168.558526 
L 317.435701 167.326682 
L 317.430481 165.467942 
L 317.425262 163.607282 
L 317.420211 161.744695 
L 317.414991 159.879939 
L 317.40994 158.01348 
L 317.404721 156.144839 
L 317.399502 154.274484 
L 317.396471 153.155714 
" clip-path="url(#pc1f352b306)" style="fill: none; stroke: #ffffff; stroke-width: 0.3"/>
    <path d="M 317.98492 123.521114 
L 319.308974 123.521114 
L 320.633195 123.521114 
L 321.957249 123.521114 
L 323.281302 123.521114 
L 324.605524 123.521356 
L 325.929577 123.521599 
L 327.25363 123.521599 
L 328.577852 123.521599 
L 329.901905 123.521599 
L 331.225958 123.521599 
L 332.55018 123.521599 
L 333.874233 123.521841 
L 335.198287 123.522083 
L 336.52234 123.522083 
L 337.846561 123.522083 
L 339.170615 123.522083 
L 340.494668 123.522083 
L 341.81889 123.522325 
L 343.142943 123.522325 
L 344.466996 123.522567 
L 345.791218 123.522567 
L 347.115271 123.522567 
L 348.439325 123.522567 
L 349.763546 123.522567 
L 351.087599 123.522809 
L 352.411653 123.522809 
L 353.735874 123.523051 
L 355.059928 123.523051 
L 356.383981 123.523051 
L 357.708203 123.523051 
L 359.032256 123.523051 
L 360.356309 123.523293 
L 361.680531 123.523293 
L 363.004584 123.523536 
L 364.32 123.523536 
" clip-path="url(#pc1f352b306)" style="fill: none; stroke: #ffffff; stroke-width: 0.3"/>
    <path d="M 317.98492 123.521114 
L 319.308974 123.521114 
L 320.633195 123.521114 
L 321.957249 123.521114 
L 323.281302 123.521114 
L 324.605524 123.521356 
L 325.929577 123.521599 
L 327.25363 123.521599 
L 328.577852 123.521599 
L 329.901905 123.521599 
L 331.225958 123.521599 
L 332.55018 123.521599 
L 333.874233 123.521841 
L 335.198287 123.522083 
L 336.52234 123.522083 
L 337.846561 123.522083 
L 339.170615 123.522083 
L 340.494668 123.522083 
L 341.81889 123.522325 
L 343.142943 123.522325 
L 344.466996 123.522567 
L 345.791218 123.522567 
L 347.115271 123.522567 
L 348.439325 123.522567 
L 349.763546 123.522567 
L 351.087599 123.522809 
L 352.411653 123.522809 
L 353.735874 123.523051 
L 355.059928 123.523051 
L 356.383981 123.523051 
L 357.708203 123.523051 
L 359.032256 123.523051 
L 360.356309 123.523293 
L 361.680531 123.523293 
L 363.004584 123.523536 
L 364.32 123.523536 
" clip-path="url(#pc1f352b306)" style="fill: none; stroke: #ffffff; stroke-width: 0.3"/>
    <path d="M 185.794936 23.662118 
L 185.794936 21.642474 
L 185.794936 19.620648 
L 185.794936 17.596375 
L 185.794936 15.569646 
L 185.794936 13.540453 
L 185.794936 11.508531 
L 185.794936 9.474386 
L 185.794936 7.437494 
L 185.794936 7.2 
" clip-path="url(#pc1f352b306)" style="fill: none; stroke: #ffffff; stroke-width: 0.3"/>
    <path d="M 185.794936 23.662118 
L 185.794936 21.642474 
L 185.794936 19.620648 
L 185.794936 17.596375 
L 185.794936 15.569646 
L 185.794936 13.540453 
L 185.794936 11.508531 
L 185.794936 9.474386 
L 185.794936 7.437494 
L 185.794936 7.2 
" clip-path="url(#pc1f352b306)" style="fill: none; stroke: #ffffff; stroke-width: 0.3"/>
    <path d="M 96.246067 23.708824 
L 96.233776 23.736797 
" clip-path="url(#pc1f352b306)" style="fill: none; stroke: #ffffff; stroke-width: 0.3"/>
   </g>
   <g id="line2d_1">
    <path d="M 260.029833 50.441383 
L 279.406842 51.003807 
L 298.768527 51.787754 
L 306.81076 52.178631 
L 306.81076 52.178631 
" clip-path="url(#pc1f352b306)" style="fill: none; stroke: #008000; stroke-width: 0.75; stroke-linecap: square"/>
   </g>
   <g id="line2d_2">
    <path d="M 260.029833 50.441383 
L 240.839873 46.812629 
L 221.570135 43.395643 
L 202.393556 40.220302 
L 192.778871 38.712623 
L 192.778871 38.712623 
" clip-path="url(#pc1f352b306)" style="fill: none; stroke: #008000; stroke-width: 0.75; stroke-linecap: square"/>
   </g>
   <g id="line2d_3">
    <path d="M 313.302857 52.325471 
L 306.81076 52.178631 
L 306.81076 52.178631 
" clip-path="url(#pc1f352b306)" style="fill: none; stroke: #008000; stroke-width: 0.75; stroke-linecap: square"/>
   </g>
   <g id="line2d_4">
    <path d="M 302.495053 86.206176 
L 285.600281 101.371024 
L 277.599632 108.656913 
L 277.599632 108.656913 
" clip-path="url(#pc1f352b306)" style="fill: none; stroke: #008000; stroke-width: 0.75; stroke-linecap: square"/>
   </g>
   <g id="line2d_5">
    <path d="M 126.626036 91.074028 
L 141.597606 70.308847 
L 142.105511 69.611078 
L 142.105511 69.611078 
" clip-path="url(#pc1f352b306)" style="fill: none; stroke: #008000; stroke-width: 0.75; stroke-linecap: square"/>
   </g>
   <g id="line2d_6">
    <path d="M 126.626036 91.074028 
L 140.873429 102.745997 
L 140.873429 102.745997 
" clip-path="url(#pc1f352b306)" style="fill: none; stroke: #008000; stroke-width: 0.75; stroke-linecap: square"/>
   </g>
   <g id="line2d_7">
    <path d="M 126.626036 91.074028 
L 107.116733 92.821942 
L 97.665826 93.748665 
L 97.665826 93.748665 
" clip-path="url(#pc1f352b306)" style="fill: none; stroke: #008000; stroke-width: 0.75; stroke-linecap: square"/>
   </g>
   <g id="line2d_8">
    <path d="M 140.873429 102.745997 
L 156.157822 122.854734 
L 162.887814 131.82543 
L 162.887814 131.82543 
" clip-path="url(#pc1f352b306)" style="fill: none; stroke: #008000; stroke-width: 0.75; stroke-linecap: square"/>
   </g>
   <g id="line2d_9">
    <path d="M 140.873429 102.745997 
L 130.262392 137.552228 
L 127.601241 146.400566 
L 127.601241 146.400566 
" clip-path="url(#pc1f352b306)" style="fill: none; stroke: #008000; stroke-width: 0.75; stroke-linecap: square"/>
   </g>
   <g id="line2d_10">
    <path d="M 97.665826 93.748665 
L 80.950678 78.004524 
L 64.227285 62.557738 
L 58.217143 57.080322 
L 58.217143 57.080322 
" clip-path="url(#pc1f352b306)" style="fill: none; stroke: #008000; stroke-width: 0.75; stroke-linecap: square"/>
   </g>
   <g id="line2d_11">
    <path d="M 305.805321 31.203259 
L 292.07561 54.778888 
L 278.372152 78.753564 
L 264.705667 103.11286 
L 259.12282 113.194559 
L 259.12282 113.194559 
" clip-path="url(#pc1f352b306)" style="fill: none; stroke: #008000; stroke-width: 0.75; stroke-linecap: square"/>
   </g>
   <g id="line2d_12">
    <path d="M 171.077858 62.931814 
L 157.100362 73.353084 
L 157.100362 73.353084 
" clip-path="url(#pc1f352b306)" style="fill: none; stroke: #008000; stroke-width: 0.75; stroke-linecap: square"/>
   </g>
   <g id="line2d_13">
    <path d="M 171.077858 62.931814 
L 186.927701 45.181283 
L 192.778871 38.712623 
L 192.778871 38.712623 
" clip-path="url(#pc1f352b306)" style="fill: none; stroke: #008000; stroke-width: 0.75; stroke-linecap: square"/>
   </g>
   <g id="line2d_14">
    <path d="M 171.077858 62.931814 
L 186.371104 82.477437 
L 192.497278 90.408523 
L 192.497278 90.408523 
" clip-path="url(#pc1f352b306)" style="fill: none; stroke: #008000; stroke-width: 0.75; stroke-linecap: square"/>
   </g>
   <g id="line2d_15">
    <path d="M 192.778871 38.712623 
L 173.462382 37.570136 
L 154.122308 36.649251 
L 134.763697 35.950785 
L 134.472474 35.941983 
L 134.472474 35.941983 
" clip-path="url(#pc1f352b306)" style="fill: none; stroke: #008000; stroke-width: 0.75; stroke-linecap: square"/>
   </g>
   <g id="line2d_16">
    <path d="M 259.12282 113.194559 
L 277.599632 108.656913 
L 277.599632 108.656913 
" clip-path="url(#pc1f352b306)" style="fill: none; stroke: #008000; stroke-width: 0.75; stroke-linecap: square"/>
   </g>
   <g id="line2d_17">
    <path d="M 259.12282 113.194559 
L 240.075125 120.332696 
L 220.983933 127.725252 
L 218.894678 128.548778 
L 218.894678 128.548778 
" clip-path="url(#pc1f352b306)" style="fill: none; stroke: #008000; stroke-width: 0.75; stroke-linecap: square"/>
   </g>
   <g id="line2d_18">
    <path d="M 58.217143 57.080322 
L 77.423284 53.091186 
L 90.627976 50.480118 
L 90.627976 50.480118 
" clip-path="url(#pc1f352b306)" style="fill: none; stroke: #008000; stroke-width: 0.75; stroke-linecap: square"/>
   </g>
   <g id="line2d_19">
    <path d="M 142.105511 69.611078 
L 157.100362 73.353084 
L 157.100362 73.353084 
" clip-path="url(#pc1f352b306)" style="fill: none; stroke: #008000; stroke-width: 0.75; stroke-linecap: square"/>
   </g>
   <g id="line2d_20">
    <path d="M 192.497278 90.408523 
L 186.790155 126.913552 
L 186.790155 126.913552 
" clip-path="url(#pc1f352b306)" style="fill: none; stroke: #008000; stroke-width: 0.75; stroke-linecap: square"/>
   </g>
   <g id="line2d_21">
    <path d="M 186.790155 126.913552 
L 206.572376 127.851621 
L 218.894678 128.548778 
L 218.894678 128.548778 
" clip-path="url(#pc1f352b306)" style="fill: none; stroke: #008000; stroke-width: 0.75; stroke-linecap: square"/>
   </g>
   <g id="patch_7">
    <path d="M 7.2 168.558526 
L 7.2 7.2 
" style="fill: none; stroke: #ffffff; stroke-linejoin: miter; stroke-linecap: square"/>
   </g>
   <g id="patch_8">
    <path d="M 364.32 168.558526 
L 364.32 7.2 
" style="fill: none; stroke: #ffffff; stroke-linejoin: miter; stroke-linecap: square"/>
   </g>
   <g id="patch_9">
    <path d="M 7.2 168.558526 
L 364.32 168.558526 
" style="fill: none; stroke: #ffffff; stroke-linejoin: miter; stroke-linecap: square"/>
   </g>
   <g id="patch_10">
    <path d="M 7.2 7.2 
L 364.32 7.2 
" style="fill: none; stroke: #ffffff; stroke-linejoin: miter; stroke-linecap: square"/>
   </g>
   <g id="PathCollection_1">
    <defs>
     <path id="me8d7540088" d="M 0 1.118034 
C 0.296506 1.118034 0.580908 1.000231 0.790569 0.790569 
C 1.000231 0.580908 1.118034 0.296506 1.118034 0 
C 1.118034 -0.296506 1.000231 -0.580908 0.790569 -0.790569 
C 0.580908 -1.000231 0.296506 -1.118034 0 -1.118034 
C -0.296506 -1.118034 -0.580908 -1.000231 -0.790569 -0.790569 
C -1.000231 -0.580908 -1.118034 -0.296506 -1.118034 0 
C -1.118034 0.296506 -1.000231 0.580908 -0.790569 0.790569 
C -0.580908 1.000231 -0.296506 1.118034 0 1.118034 
z
" style="stroke: #ff0000"/>
    </defs>
    <g clip-path="url(#pc1f352b306)">
     <use xlink:href="#me8d7540088" x="260.029833" y="50.441383" style="fill: #ff0000; stroke: #ff0000"/>
    </g>
   </g>
   <g id="PathCollection_2">
    <g clip-path="url(#pc1f352b306)">
     <use xlink:href="#me8d7540088" x="313.302857" y="52.325471" style="fill: #ff0000; stroke: #ff0000"/>
    </g>
   </g>
   <g id="PathCollection_3">
    <g clip-path="url(#pc1f352b306)">
     <use xlink:href="#me8d7540088" x="302.495053" y="86.206176" style="fill: #ff0000; stroke: #ff0000"/>
    </g>
   </g>
   <g id="PathCollection_4">
    <g clip-path="url(#pc1f352b306)">
     <use xlink:href="#me8d7540088" x="306.81076" y="52.178631" style="fill: #ff0000; stroke: #ff0000"/>
    </g>
   </g>
   <g id="PathCollection_5">
    <g clip-path="url(#pc1f352b306)">
     <use xlink:href="#me8d7540088" x="126.626036" y="91.074028" style="fill: #ff0000; stroke: #ff0000"/>
    </g>
   </g>
   <g id="PathCollection_6">
    <g clip-path="url(#pc1f352b306)">
     <use xlink:href="#me8d7540088" x="140.873429" y="102.745997" style="fill: #ff0000; stroke: #ff0000"/>
    </g>
   </g>
   <g id="PathCollection_7">
    <g clip-path="url(#pc1f352b306)">
     <use xlink:href="#me8d7540088" x="127.601241" y="146.400566" style="fill: #ff0000; stroke: #ff0000"/>
    </g>
   </g>
   <g id="PathCollection_8">
    <g clip-path="url(#pc1f352b306)">
     <use xlink:href="#me8d7540088" x="97.665826" y="93.748665" style="fill: #ff0000; stroke: #ff0000"/>
    </g>
   </g>
   <g id="PathCollection_9">
    <g clip-path="url(#pc1f352b306)">
     <use xlink:href="#me8d7540088" x="162.887814" y="131.82543" style="fill: #ff0000; stroke: #ff0000"/>
    </g>
   </g>
   <g id="PathCollection_10">
    <g clip-path="url(#pc1f352b306)">
     <use xlink:href="#me8d7540088" x="305.805321" y="31.203259" style="fill: #ff0000; stroke: #ff0000"/>
    </g>
   </g>
   <g id="PathCollection_11">
    <g clip-path="url(#pc1f352b306)">
     <use xlink:href="#me8d7540088" x="171.077858" y="62.931814" style="fill: #ff0000; stroke: #ff0000"/>
    </g>
   </g>
   <g id="PathCollection_12">
    <g clip-path="url(#pc1f352b306)">
     <use xlink:href="#me8d7540088" x="192.778871" y="38.712623" style="fill: #ff0000; stroke: #ff0000"/>
    </g>
   </g>
   <g id="PathCollection_13">
    <g clip-path="url(#pc1f352b306)">
     <use xlink:href="#me8d7540088" x="259.12282" y="113.194559" style="fill: #ff0000; stroke: #ff0000"/>
    </g>
   </g>
   <g id="PathCollection_14">
    <g clip-path="url(#pc1f352b306)">
     <use xlink:href="#me8d7540088" x="277.599632" y="108.656913" style="fill: #ff0000; stroke: #ff0000"/>
    </g>
   </g>
   <g id="PathCollection_15">
    <g clip-path="url(#pc1f352b306)">
     <use xlink:href="#me8d7540088" x="58.217143" y="57.080322" style="fill: #ff0000; stroke: #ff0000"/>
    </g>
   </g>
   <g id="PathCollection_16">
    <g clip-path="url(#pc1f352b306)">
     <use xlink:href="#me8d7540088" x="90.627976" y="50.480118" style="fill: #ff0000; stroke: #ff0000"/>
    </g>
   </g>
   <g id="PathCollection_17">
    <g clip-path="url(#pc1f352b306)">
     <use xlink:href="#me8d7540088" x="134.472474" y="35.941983" style="fill: #ff0000; stroke: #ff0000"/>
    </g>
   </g>
   <g id="PathCollection_18">
    <g clip-path="url(#pc1f352b306)">
     <use xlink:href="#me8d7540088" x="142.105511" y="69.611078" style="fill: #ff0000; stroke: #ff0000"/>
    </g>
   </g>
   <g id="PathCollection_19">
    <g clip-path="url(#pc1f352b306)">
     <use xlink:href="#me8d7540088" x="157.100362" y="73.353084" style="fill: #ff0000; stroke: #ff0000"/>
    </g>
   </g>
   <g id="PathCollection_20">
    <g clip-path="url(#pc1f352b306)">
     <use xlink:href="#me8d7540088" x="192.497278" y="90.408523" style="fill: #ff0000; stroke: #ff0000"/>
    </g>
   </g>
   <g id="PathCollection_21">
    <g clip-path="url(#pc1f352b306)">
     <use xlink:href="#me8d7540088" x="186.790155" y="126.913552" style="fill: #ff0000; stroke: #ff0000"/>
    </g>
   </g>
   <g id="PathCollection_22">
    <g clip-path="url(#pc1f352b306)">
     <use xlink:href="#me8d7540088" x="218.894678" y="128.548778" style="fill: #ff0000; stroke: #ff0000"/>
    </g>
   </g>
  </g>
 </g>
 <defs>
  <clipPath id="pc1f352b306">
   <rect x="7.2" y="7.2" width="357.12" height="161.358526"/>
  </clipPath>
 </defs>
</svg>
